<svg xmlns="http://www.w3.org/2000/svg" width="1168" height="1168"><path fill="#F3F8FF" d="M0 0h1167.995v1167.995H0z"/><path fill="#00A4FF" d="M964.132 317.561c-.224-2.569-.534-5.038 1.152-7.217 3.097-3.997 9.477-5.094 14.234-5.492 7.013-.587 18.032-.135 23.511 4.753 1.207 1.077 1.966 2.333 2.026 3.985.048 1.32-.22 3.022-.607 4.288-13.385 5.697-26.875 4.454-40.316-.317M693.533 218.544c-.522-1.778-1.271-3.849-.418-5.64 1.577-3.308 6.496-4.89 9.759-5.618 8.296-1.85 20.584-1.542 27.9 3.133 1.58 1.009 3.143 2.339 3.522 4.27.247 1.266-.085 3.112-.374 4.352-2.011.515-4.013 1.788-6.05 2.427-11.551 3.629-23.617 2.696-34.339-2.924M828.072 265.245c-.348-1.588-.812-3.631-.496-5.253.377-1.938 1.67-3.294 3.236-4.385 6.126-4.27 17.22-4.308 24.344-3.019 4.436.803 10.427 2.573 12.987 6.62 1.255 1.984 1.111 3.641.643 5.845q-1.011.514-2.047.978-1.037.465-2.094.878-1.058.412-2.134.772-1.077.36-2.17.666-1.094.307-2.2.558-1.108.252-2.225.449-1.118.196-2.245.338-1.126.141-2.259.228-1.131.085-2.266.115t-2.27.002q-1.135-.026-2.267-.108t-2.259-.221q-1.127-.138-2.246-.332t-2.226-.443-2.202-.55q-1.093-.304-2.171-.661a30.4 30.4 0 0 1-5.433-2.477"/><path d="M252.836 859.486c1.666-.073 3.123.456 4.661 1.037 25.88 9.763 52.015 21.921 77.684 32.644l150.445 62.402 38.868 15.863c6.38 2.581 17.508 5.852 22.728 9.944l.002 1.968c-6.04-.764-26.29-10.34-33.758-13.41Q459.49 947.82 405.75 925.134l-119.686-49.664c-7.428-3.154-26.603-9.715-32.227-13.874-1.094-.81-.823-.863-1-2.111"/><path fill="#00A4FF" d="M693.533 218.544c10.722 5.62 22.788 6.553 34.339 2.924 2.037-.64 4.039-1.912 6.05-2.427q.129 29.673-.097 59.346-.498 34.62-.471 69.247c-.003 5.783-1.059 19.503.505 24.293-2.508 2.057-2.986 3.13-3.28 6.307-1.18 12.744-.137 26.378-.408 39.236-12.046-5.154-24.421-9.727-36.685-14.338.654-37.22.22-74.404.206-111.624-.01-24.274.83-48.716-.159-72.964M868.786 265.053c-1.141 14.255-.484 29.03-.564 43.35l-.605 78.767c-.12 10.147.862 26.623-.518 36.11-1.593.42-2.585.384-3.638 1.689-1.15 5.52-.853 11.634-1.012 17.273l-.692 25.851c-11.353-4.225-23.283-8.477-34.223-13.627 1.274-62.998.685-126.206.538-189.22a30.4 30.4 0 0 0 5.433 2.476q1.078.357 2.171.66 1.094.302 2.202.551t2.226.443 2.246.332 2.259.22 2.267.11q1.135.027 2.27-.003t2.266-.115q1.133-.087 2.259-.228 1.127-.142 2.245-.338 1.117-.197 2.225-.45 1.106-.25 2.2-.557 1.093-.306 2.17-.666t2.134-.772 2.094-.878q1.036-.464 2.047-.978M964.132 317.561c13.44 4.771 26.931 6.014 40.316.317-.5 14.561-.134 29.226-.128 43.801q.105 40.254-.241 80.505c-.117 12.099.635 24.611-.217 36.65-1.865 1.288-2.598 1.773-3.053 4.127-1.831 9.463-1.69 26.924-1.833 37.067-11.854-3.783-23.538-8.595-35.124-13.128q.638-61.178.47-122.358c.012-22.31.373-44.68-.19-66.98M813.888 807.048l4.844 1.754c.046 7.28.312 14.625-.376 21.882l-183.488 97.605c-22.033 11.67-43.892 23.782-66.156 35-6.778 3.415-13.61 7.53-20.59 10.415-22.652-10.448-46.234-18.813-69.014-29.05 3.526-1.99 24.252-11.224 27.055-11.745l2.986 1.213c12.159 5.959 25.729 10.544 38.558 14.88 21.87-9.534 42.638-21.938 63.681-33.13l139.764-75.05 36.041-19.442c8.846-4.848 17.584-9.997 26.695-14.332"/><path fill="#00A4FF" d="M770.552 791.344c7.647 2.94 15.288 5.984 23.033 8.658 6.77 2.34 13.68 4.298 20.303 7.046-9.111 4.335-17.85 9.484-26.695 14.332l-36.041 19.443-139.764 75.048c-21.043 11.193-41.811 23.597-63.68 33.13-12.83-4.335-26.4-8.92-38.56-14.879 22.575-13.678 46.706-25.447 69.897-38.077l123.89-67.523 39.74-21.28c7.612-4.054 22.142-10.075 27.877-15.898M359.473 872.226c22.279-11.223 44.028-23.298 65.984-35.13q62.227-33.456 123.886-67.947l47.168-25.672c6.984-3.74 15.47-7.185 21.825-11.832 16.581 6.04 32.926 12.572 49.316 19.109 8.194 3.269 16.607 6.26 24.658 9.856L519.77 852.87l-57.99 31.84c-9.881 5.425-19.721 11.12-29.82 16.129-2.874-.116-25.562 10.51-29.322 12.502l-2.79-.938c-19.29-8.913-39.428-15.671-58.747-24.403-.838-1.205-.565-1.969-.543-3.39.295-2.161.324-4.383.444-6.563 3.54-1.901 12.192-7.752 15.908-6.847z"/><path fill="#00A4FF" d="M399.942 889.67c13.526-6.682 26.693-14.355 39.908-21.638l89.975-50.077 57.623-31.697c6.823-3.777 15.144-6.97 21.32-11.582l.87.32c-1.637 2.812-187.241 102.867-209.49 116.182.074 4.33 1.074 17.88-.3 21.226-19.29-8.913-39.428-15.671-58.747-24.403-.838-1.205-.565-1.969-.543-3.39.295-2.161.324-4.383.444-6.563 3.54-1.901 12.192-7.752 15.908-6.847l2.563 1.025q20.324 8.515 40.47 17.444M695.492 761.723c24.999 9.78 50.836 17.963 75.06 29.62-5.735 5.824-20.265 11.845-27.876 15.899l-39.74 21.28-123.891 67.523c-23.191 12.63-47.322 24.399-69.896 38.077l-2.986-1.213c-2.803.52-23.529 9.754-27.055 11.746-1.527-.332-3.074-.965-4.561-1.466-8.563-4.203-17.797-7.626-26.63-11.243l-45.28-18.604c3.761-1.991 26.45-12.618 29.324-12.502l1.314 1.913c5.44-1.93 10.791-5.101 15.89-7.825 13.376-7.146 26.282-15.185 39.689-22.254 51.307-27.053 101.839-55.557 153.088-82.73 17.794-9.434 35.355-19.601 53.55-28.22"/><path fill="#F3F8FF" d="M506.163 932.909c5.576-4.672 13.984-8.157 20.397-11.658l51.764-27.96 130.092-70.465c18.331-9.851 36.306-20.767 55.003-29.87 2.357-1.147 4.539-1.392 7.133-1.612-5.735 5.823-20.265 11.844-27.876 15.898l-39.74 21.28-123.891 67.523c-23.191 12.63-47.322 24.399-69.896 38.077z"/><path fill="#00A4FF" d="M474.988 920.559c9.322-4.655 60.418-34.104 64.3-34.446l.197.377c-2.674 2-5.441 3.073-8.343 4.646-2.686 1.455-5.122 3.35-7.803 4.82-1.949 1.067-4.09 1.775-6.068 2.796-14.377 7.418-29.6 15.21-43.074 24.143q.008 10.15.35 20.294c-8.563-4.203-17.797-7.626-26.63-11.243l-45.28-18.604c3.761-1.991 26.45-12.618 29.324-12.502l1.314 1.913c13.897 4.8 27.9 12.232 41.713 17.806M529.987 696.765l53.446 21.34c10.41 4.057 21.033 7.692 31.182 12.39q-45.038 24.062-89.454 49.258l-76.42 41.793-71.482 38.535c-4.393 2.377-17.454 8.2-20.349 11.12-3.716-.905-12.367 4.946-15.908 6.847-.12 2.18-.15 4.402-.444 6.563.006-1.469.16-3.11-.286-4.521-.234-.744-.633-.746-1.27-1.09-2.689-.104-7.439 2.804-10.227 3.846-5.842-1.789-11.75-4.653-17.442-6.941q-21.65-8.505-42.767-18.264c-.013-5.867-.941-14.219.757-19.785.283-.927.633-.818 1.447-1.185 29.527-14.03 58.129-30.619 86.793-46.329 15.022-8.233 30.412-15.809 45.578-23.771 12.428-6.525 24.757-13.546 37.057-20.323 29.88-16.462 59.39-34.005 89.789-49.483"/><path fill="#00A4FF" d="M328.292 859.146c.351-.131.704-.258 1.054-.393 8.497-3.279 16.493-9.49 24.55-13.856l149.616-81.945 47.113-25.845c3.084-1.653 5.97-3.749 9.065-5.314 1.634-.826 4.599-2.54 6.348-2.116-5.722 4.833-14.256 8.213-20.933 11.773q-14.67 7.87-29.195 16.005l-127.06 69.982q-20.234 10.944-40.335 22.125c-6.527 3.63-13.279 7.064-19.55 11.113-.262 7.396-.244 14.773-.19 22.17-5.842-1.788-11.75-4.652-17.442-6.94q-21.65-8.505-42.767-18.264c-.013-5.867-.941-14.219.757-19.785.283-.927.633-.818 1.447-1.185 19.518 6.259 38.111 15.818 57.522 22.475M376.76 1118.146c-17.162-6.77-34.038-14.167-51.068-21.25l-139.785-58.209-90.262-37.453c-13.073-5.454-30.036-11.216-42.272-17.596-5.22-2.723-9.024-7.025-12.32-11.797-11.113-16.095-12.642-36.976-9.127-55.757 4.793-25.605 20.693-49.52 42.285-64.083 13.236-8.927 31.414-15.646 47.537-15.265 5.96.14 11.722 1.347 17.548 2.497 2.127 3.305 44.39 19.123 51.663 23.324 8.33 4.028 16.916 7.538 25.362 11.313q32.665 14.925 65.87 28.605l90.983 38.486q23.966 10.11 47.797 20.53c9.632 4.205 19.272 8.775 29.185 12.273-6.204.794-12.514 1.087-18.57 2.745-20.611 5.638-39.816 21.218-52.677 37.865-15.368 19.893-23.198 45.162-19.819 70.302 1.243 9.253 4.532 17.967 10.413 25.277 1.648 2.048 6.713 6.046 7.257 8.193"/><path d="M496.089 347.376c11.827 3.466 23.546 8.33 35.216 12.4 11.329 3.95 42.395 13.327 50.761 18.732 2.478 3.277.854 17.451 1.055 21.997q22.877-10.564 45.42-21.823c21.561 6.744 43.721 16.332 64.945 24.45 12.264 4.611 24.64 9.184 36.685 14.338.27-12.858-.772-26.492.408-39.236.294-3.178.772-4.25 3.28-6.307 1.952 11.346.306 34.718.174 47.132 30.874 12.47 62.298 23.782 93.5 35.407 10.941 5.15 22.871 9.402 34.224 13.627l.692-25.85c.159-5.64-.138-11.754 1.012-17.274 1.053-1.305 2.045-1.269 3.638-1.69-.491 14.586-.009 31.889-1.88 46.126q32.25 11.8 64.229 24.32c11.45 4.36 23.097 8.473 34.404 13.175 11.586 4.533 23.27 9.345 35.124 13.128.142-10.143.002-27.604 1.833-37.067.455-2.354 1.188-2.839 3.053-4.128.497 14.32-.07 28.682-.007 43.007q46.728 18.11 93.726 35.503c14.323 5.307 28.549 11.09 43.085 15.766q-.662 129.313.25 258.629c-44.11 22.716-87.434 46.896-131.172 70.33L975.3 920.561c-6.398 3.447-13.135 7.648-19.925 10.228-11.909-4.187-23.564-9.688-35.231-14.556l-54.67-22.634c.87-6.274 1.945-12.532 2.748-18.812-13.087 5.864-25.44 12.86-38.07 19.61l-47.425 24.999q-79.983 42.106-159.524 85.04-32.804 18.043-65.881 35.58c-8.956 4.768-17.924 10.463-27.11 14.634-13.38-4.737-26.477-10.764-39.69-16.018q-10.493-4.279-20.633-9.34c8.419-4.4 17.203-8.102 25.605-12.557 13.591-6.505 26.818-13.854 40.186-20.81q33.67-17.171 66.906-35.172l151.757-81.536 78.53-41.792q16.4-8.461 32.486-17.502c2.968-1.67 6.923-3.312 9.522-5.418 1.75-1.418 1.552-3.143 1.906-5.249-5.312.536-12.392 4.005-16.684 7.095-.511.624-.74 1.265-1.6 1.377-4.241.545-26.553-9.68-31.753-11.613Q670.315 747.67 515.306 685.54c-9.594 6.418-20.237 11.594-30.389 17.093L429.22 732.61l-166.777 90.718-50.19 27.108c-7.024 3.884-14.764 7.49-21.294 12.121-7.274-4.2-49.536-20.019-51.663-23.324 21.802-13.048 44.866-24.448 67.282-36.433q57.419-31.184 115.21-61.665l44.073-23.67c7.186-3.862 15.167-7.25 21.798-11.946-5.555-2.196-11.42-3.827-17.084-5.734-15.39-5.183-31.258-10.37-46.166-16.786 4.07-23.9 6.486-48.06 9.705-72.08l18.58-133.963c3.128-21.898 5.632-44.18 9.958-65.87 5.343-3.355 11.37-5.922 17.048-8.67l36.813-17.498 52.11-25.07c8.951-4.252 18.112-9.24 27.466-12.472"/><path fill="#F3F8FF" d="m854.71 773.892.8.109c1.567 2.77.607 33.69.606 39.372q-10.61-4.153-21.29-8.122l-10.915-3.967q4.822-8.861 9.81-17.631 10.364-5.163 20.989-9.76M613.691 557.808c5.04-.031 23.797 7.82 29.328 10.238-11.468 5.249-22.64 11.514-33.88 17.259l-76.18 39.218c-3.59 1.822-10.004 6.322-14.015 6.255-2.703-.045-4.022.653-6.377 1.996q-.137-11.623-.02-23.245c33.434-17.767 67.571-34.22 101.144-51.721"/><path fill="#00A4FF" d="M512.53 519.657c32.46 11.356 64.781 23.623 96.908 35.895-10.372 5.93-21.426 11.035-32.088 16.443-21.784 10.696-43.118 22.233-64.985 32.775-1.177-28.207.055-56.869.165-85.113"/><path fill="#F3F8FF" d="m647.978 569.713 140.876 52.762c22.265 8.434 44.823 16.06 66.746 25.375.027 7.99.228 16.017.048 24.001q-6.945 1.874-13.93 3.593-.951-3.558-1.979-7.095c-2.466-8.354-6.332-15.497-14.394-19.698-14.35-7.478-28.803-1.02-42.993 3.145-1.429-8.128-3.327-16.308-10.052-21.82-2.428-1.99-5.265-3.437-8.242-4.418-4.654-1.535-9.604-1.392-14.307-2.581-4.927-1.244-9.436-3.89-14.496-4.683q-2.096-.33-4.22-.32c-6.861.041-13.458 2.873-20.28 3.61l-.775.078c-.549-6.973-.027-13.051-4.033-19.237-4.477-6.913-12.87-11.079-20.79-12.675-6.034-1.217-11.972-.537-17.76 1.375-15.138 5-31.91 15.55-46.347 23.01-14.857 7.679-29.558 15.403-44.225 23.434-5.272 2.887-10.985 5.416-15.951 8.8-11.713-4.563-23.404-9.475-35.297-13.523q61.017-31.923 122.401-63.133"/><path fill="#00A4FF" d="M502.39 654.286c15.417 5.36 30.527 11.972 45.702 17.995l86.679 33.962 117.981 45.862c25.61 9.96 51.773 19.385 76.884 30.543l-9.592 17.465c-33.648-11.788-66.756-25.625-99.93-38.685l-131.157-50.99-57.155-22.442c-9.647-3.808-19.422-8.436-29.35-11.355.073-7.45.248-14.91-.061-22.355M517.71 635.267c3.375-.226 7.214 1.381 10.354 2.515 11.786 4.258 23.33 9.386 35.005 13.955l66.55 25.886 169.964 66.882c18.742 7.477 38.258 17.32 57.317 23.261-6.524 3.74-13.133 7.205-20.068 10.124l-2.807 1.268c-7.146-1.008-15.019-5.317-21.78-8.073q-15.553-6.356-31.205-12.464l-194.65-76.047c-9.734-3.874-84.218-31.935-86.58-34.552-.605-.672-.375-1.067-.337-1.896 3.04-4.421 13.333-8.685 18.237-10.859"/><path fill="#F3F8FF" d="M495.151 351.805c6.9.562 15.357 4.88 21.95 7.118q18.554 6.298 37.036 12.798c7.842 2.74 15.854 5.231 23.44 8.624-4.515 3.04-9.848 5.275-14.74 7.68-11.359 5.59-22.887 10.826-34.25 16.401l-48.42 24.243c-9.092 4.503-18.147 9.278-27.6 12.982-10.076-3.075-20.007-7.174-29.9-10.82-17.735-6.536-35.376-12.89-53.46-18.43 10.329-7.086 29.383-14.32 41.434-20.004zM1045.185 542.921c4.43-.11 80.055 28.998 88.806 32.569-7.403 4.405-15.646 7.915-23.338 11.856q-25.866 13.379-51.876 26.474c-9.362 4.72-18.813 9.321-28.056 14.272-11.741 6.289-23.182 12.924-35.247 18.598-19.528-7.777-39.4-14.773-59.131-22.016-9.595-3.522-19.79-6.59-28.956-11.047 45.688-24.117 91.828-47.154 137.798-70.706"/><path fill="#00A4FF" d="m1120.315 687.168.418.127c1.153 2.266.633 113.445.734 125.23-12.411 7.756-26.358 14.036-39.338 20.895-22.434 11.856-44.718 24.14-67.729 34.85l-.388-.03c-1.571-2.355-.457-111.184-.118-125.595 35.26-18.845 70.974-36.973 106.42-55.477M365.89 415.31c12.758 3.843 25.25 8.682 37.807 13.126 15.77 5.581 31.724 10.929 47.206 17.27-1.963 16.888-5.201 33.701-7.902 50.49-7.613 47.32-16.441 94.473-23.363 141.901-1.019 6.982-7.971 58.78-9.84 61.263-3.888 1.934-7.606 4.299-11.345 6.51-8.855-3.143-17.582-6.617-26.45-9.73-14.176-4.976-28.521-9.626-42.553-14.99.477-9.523 2.386-19.335 3.618-28.805q3.828-29.893 7.988-59.742 11.778-88.736 24.834-177.293"/><path d="M391.175 472.884c4.286-.274 7.91.259 11.795 2.176 7.387 3.648 12.899 10.745 15.24 18.573 2.006 6.705 2.087 14.603-1.455 20.823-2.823 4.958-7.058 7.549-12.413 9.07-5.054.42-9.306-.168-13.781-2.692-7.211-4.068-12.303-11.587-14.379-19.513-1.686-6.438-1.624-14.013 1.965-19.825 3.125-5.059 7.478-7.234 13.028-8.612"/><path fill="#00A4FF" d="M392.78 476.354c3.143.196 5.937.751 8.744 2.249 6.31 3.367 10.922 9.566 12.73 16.44 1.49 5.658 1.542 12.548-1.596 17.687-2.513 4.116-5.854 5.872-10.42 6.916l-.35-.023c-3.742-.21-6.766-.756-10.047-2.66-6.212-3.6-10.435-9.948-12.22-16.823-1.372-5.282-1.337-11.412 1.56-16.201 2.707-4.476 6.68-6.401 11.6-7.585"/><path d="M378.776 556.766c4.942-.556 9-.133 13.514 2.105 7.562 3.75 13.026 10.852 15.549 18.81 2.115 6.672 2.153 14.659-1.242 20.91-2.54 4.675-6.412 7.22-11.381 8.737-4.315.612-7.79.572-11.965-.996-7.7-2.892-13.846-9.46-16.93-17.004-2.713-6.634-3.444-14.703-.501-21.369 2.61-5.913 7.151-8.956 12.956-11.193"/><path fill="#00A4FF" d="M379.236 560.708c3.905-.474 6.879-.405 10.522 1.242 6.578 2.974 11.537 9.33 13.88 16.049 1.959 5.616 2.344 12.499-.367 17.944-2.138 4.291-5.243 6.493-9.678 8.026-2.616.284-5.086.24-7.62-.563-6.442-2.038-11.642-7.032-14.676-12.985-2.984-5.853-4.362-13.1-2.111-19.436 1.83-5.15 5.216-8.032 10.05-10.277M560.874 646.369c4.966-3.384 10.68-5.913 15.951-8.8 14.667-8.031 29.368-15.755 44.225-23.434 14.436-7.46 31.209-18.01 46.347-23.01 5.788-1.912 11.726-2.592 17.76-1.375 7.92 1.596 16.313 5.762 20.79 12.675 4.006 6.186 3.484 12.264 4.033 19.237l.776-.079c6.82-.736 13.418-3.568 20.28-3.609q2.123-.01 4.22.32c5.059.792 9.568 3.439 14.495 4.683 4.703 1.189 9.653 1.046 14.307 2.581 2.977.981 5.814 2.427 8.242 4.418 6.725 5.512 8.623 13.692 10.052 21.82 14.19-4.166 28.643-10.623 42.993-3.145 8.062 4.201 11.928 11.344 14.394 19.698q1.028 3.537 1.98 7.095 6.984-1.719 13.929-3.593c-.55 30.45.706 60.919.336 91.341-5.237-2.268-11.096-4.324-16.072-7.074l-3.887-1.27c-8.652-3.102-17.152-6.873-25.69-10.293l-37.226-14.697-1.08-.26c-20.166-8.053-40.872-15.46-60.687-24.301l-2.495-.839c-19.457-8.594-39.754-15.997-59.592-23.695l-3.192-1.102c-20.661-7.358-41.074-16.01-61.484-24.059l-3.43-1.215c-6.83-2.372-13.555-5.333-20.275-8.018"/><path fill="#F3F8FF" d="M836.025 754.849c5.165-3.419 13.126-6.649 19.113-8.304.26 1.206.338 2.034.157 3.256-3.04 3.623-10.86 5.394-15.383 6.317zM708.847 704.458c3.964-3.359 69.424-36.652 72.234-36.558.162.005.32.048.48.073-1.218 2.169-4.645 3.828-6.76 5.048-11.46 6.605-23.86 12.054-35.636 18.132-7.921 4.09-19.922 11.642-27.823 14.144zM772.029 729.599c.435-.694.747-1.247 1.429-1.734 3.816-2.724 9.188-4.703 13.372-6.892q21.077-11.033 42.438-21.505c4.21-2.099 12.693-7.185 16.615-8.488.778-.26 1.06-.217 1.788-.222l.854.752c-.116.338-.125.733-.347 1.013-.93 1.174-51.4 26.65-58.06 29.908-5.522 2.701-11.15 5.541-17.01 7.427zM646.063 679.661c4.737-5.443 64.742-33.422 75.77-38.538l.998.17.227.834c-3.16 3.467-8.94 5.427-13.069 7.521-14.933 7.573-30.098 14.637-44.986 22.291-5.25 2.699-11.164 5.063-15.748 8.824zM581.15 654.387c6.006-5.172 29.68-15.209 38.052-19.484 13.977-7.137 27.69-15.114 41.853-21.871.952-.454.63-.311 1.828-.332l.229.902c-1.328 1.755-3.29 2.873-5.17 3.963-11.241 6.52-23.308 12.05-34.913 17.921-12.902 6.53-25.609 13.458-38.45 20.116z"/><path fill="#00A4FF" d="m904.182 616.804 88.968 32.688c-4.805 38.743-11.242 77.297-17.035 115.904l-22.039 156.767c.033 1.154-.269 2.054-.607 3.149l-.798.343c-9.089-2.757-18.08-7.533-26.876-11.193q-28.084-11.361-55.96-23.221c4.032-25.415 6.704-51.051 9.93-76.574q7.75-58.889 14.755-117.871c3.223-26.671 6.065-53.367 9.662-79.992"/><path d="M934.601 676.53c4.515-.215 8.856 1.093 12.65 3.516 6.903 4.407 11.592 12.072 13.36 19.984 1.454 6.5.908 13.418-2.92 19.036-3.278 4.813-7.672 6.867-13.225 7.96-4.413.155-8.292-.799-12.081-3.112-7.017-4.282-11.845-11.9-13.686-19.833-1.528-6.584-1.018-13.871 2.793-19.619 3.186-4.806 7.584-6.937 13.11-7.933"/><path fill="#00A4FF" d="M934.5 680.435c3.271-.151 6.084.29 9.017 1.836 6.48 3.415 10.978 10.26 12.921 17.204 1.498 5.355 1.51 11.351-1.351 16.275-2.388 4.11-5.708 5.973-10.162 7.2-3.267.134-6.135-.129-9.107-1.604-6.068-3.012-10.666-8.92-12.8-15.28-1.867-5.555-2.02-12.203.746-17.498 2.368-4.532 5.95-6.77 10.736-8.133"/><path d="M924.332 761.51c5.09.154 9.628 1.618 13.778 4.598 6.86 4.927 11.528 13.159 12.87 21.452 1.05 6.497.21 13.76-3.842 19.142-3.423 4.547-8.092 6.567-13.58 7.344-4.69-.195-8.553-1.02-12.64-3.511-7.235-4.409-12.484-12.14-14.295-20.377-1.44-6.547-.737-13.892 2.988-19.59 3.532-5.401 8.598-7.866 14.721-9.058"/><path fill="#00A4FF" d="M923.45 765.509c3.199-.217 6.02.204 8.928 1.596 6.636 3.173 11.398 9.62 13.612 16.518 1.85 5.761 2.33 12.596-.648 18.079-2.574 4.744-6.252 6.825-11.277 8.283-3.036-.096-5.73-.415-8.557-1.596-6.67-2.787-11.781-8.517-14.261-15.258-2.088-5.677-2.465-12.305.217-17.858 2.473-5.118 6.748-7.98 11.987-9.764M470.82 457.722c29.008 9.6 57.585 20.929 86.246 31.534l150.76 55.608 124.635 45.792c22.617 8.298 45.927 15.766 68.05 25.3-8.909 64.285-14.269 129.106-23.724 193.301-5.312.536-12.392 4.005-16.684 7.095-1.97-57.029-.691-114.4-.864-171.47-22.938-9.98-47.171-17.414-70.571-26.274l-186.451-69.333-62.972-23.543c-7.586-2.832-22.506-10.23-29.844-10.642l-.607.573c-1.306 6.92-.367 24.332-.395 32.254q-.11 43.878.251 87.755c-4.218 2.317-8.32 4.693-12.342 7.338-.225 2.876-.2 5.744-.201 8.627l6.284 2.649c.309 7.446.134 14.905.061 22.355l-31.909-12.048.041-140.168.097-43.105c.008-7.816-.321-15.801.14-23.598M628.494 383.184c4.627-.375 87.306 32.87 98.506 37.186l178.79 68.948 134.163 50.947c-10.93 7.052-23.63 12.44-35.246 18.332q-32.643 16.518-65.056 33.487c-12.63 6.58-25.761 12.775-37.81 20.362l-8.546-3.377c-24.492-9.642-49.42-18.15-74.12-27.23l-153.807-56.591-119.887-44.05c-22.502-8.335-44.948-17.531-67.727-25.042q46.514-22.985 93.295-45.419c19.11-9.21 38.132-18.786 57.445-27.553"/></svg>