<svg xmlns="http://www.w3.org/2000/svg" xml:space="preserve" width="1080" height="1080"><path d="M0 0h1024v1024H0z" style="stroke:none;stroke-width:1;stroke-dasharray:none;stroke-linecap:butt;stroke-dashoffset:0;stroke-linejoin:miter;stroke-miterlimit:4;fill:#f3f8ff;fill-rule:nonzero;opacity:1" transform="translate(-145.57 -82.74)scale(1.14)" vector-effect="non-scaling-stroke"/><path d="M845.27 278.411c-.196-2.252-.468-4.417 1.01-6.327 2.715-3.505 8.309-4.466 12.479-4.815 6.149-.515 15.809-.119 20.613 4.167 1.058.944 1.723 2.045 1.776 3.493.042 1.157-.193 2.65-.532 3.76-11.735 4.994-23.562 3.905-35.346-.278" style="stroke:none;stroke-width:1;stroke-dasharray:none;stroke-linecap:butt;stroke-dashoffset:0;stroke-linejoin:miter;stroke-miterlimit:4;fill:#f3f8ff;fill-rule:nonzero;opacity:1" transform="translate(-145.348 -82.887)scale(1.14)" vector-effect="non-scaling-stroke"/><path d="M608.032 191.601c-.458-1.559-1.115-3.374-.367-4.945 1.383-2.9 5.695-4.286 8.556-4.925 7.273-1.622 18.046-1.352 24.461 2.747 1.384.884 2.755 2.05 3.087 3.743.217 1.11-.074 2.729-.328 3.816-1.763.451-3.518 1.567-5.304 2.128-10.127 3.181-20.705 2.363-30.105-2.564" style="stroke:none;stroke-width:1;stroke-dasharray:none;stroke-linecap:butt;stroke-dashoffset:0;stroke-linejoin:miter;stroke-miterlimit:4;fill:#f3f8ff;fill-rule:nonzero;opacity:1" transform="translate(-145.503 -82.94)scale(1.14)" vector-effect="non-scaling-stroke"/><path d="M725.984 232.545c-.305-1.393-.712-3.184-.435-4.606.331-1.699 1.465-2.888 2.837-3.844 5.371-3.743 15.098-3.777 21.343-2.647 3.889.704 9.142 2.256 11.386 5.804 1.1 1.739.974 3.192.564 5.124q-.887.451-1.795.858-.909.407-1.836.769t-1.871.677-1.902.584-1.929.489-1.951.394q-.98.172-1.968.296-.987.124-1.98.2-.992.075-1.987.101t-1.99.002q-.995-.023-1.988-.095-.992-.072-1.98-.194-.988-.121-1.969-.291t-1.952-.388-1.93-.483q-.959-.266-1.904-.579a26.6 26.6 0 0 1-4.763-2.171" style="stroke:none;stroke-width:1;stroke-dasharray:none;stroke-linecap:butt;stroke-dashoffset:0;stroke-linejoin:miter;stroke-miterlimit:4;fill:#f3f8ff;fill-rule:nonzero;opacity:1" transform="translate(-145.43 -82.92)scale(1.14)" vector-effect="non-scaling-stroke"/><path d="M221.665 753.525c1.461-.064 2.738.4 4.087.909 22.69 8.56 45.602 19.219 68.107 28.62l131.897 54.709 34.076 13.907c5.594 2.263 15.35 5.131 19.926 8.718l.002 1.726c-5.296-.67-23.048-9.065-29.596-11.758q-47.322-19.387-94.437-39.275L250.796 767.54c-6.512-2.766-23.323-8.518-28.254-12.164-.959-.71-.721-.757-.877-1.851" style="stroke:none;stroke-width:1;stroke-dasharray:none;stroke-linecap:butt;stroke-dashoffset:0;stroke-linejoin:miter;stroke-miterlimit:4;fill:#000;fill-rule:nonzero;opacity:1" transform="translate(-145.67 -82.565)scale(1.14)" vector-effect="non-scaling-stroke"/><path d="M608.032 191.601c9.4 4.927 19.978 5.745 30.105 2.564 1.786-.561 3.541-1.677 5.304-2.128q.113 26.015-.085 52.029-.436 30.353-.413 60.71c-.002 5.07-.928 17.099.443 21.298-2.199 1.804-2.618 2.744-2.876 5.53-1.034 11.173-.12 23.126-.357 34.399-10.561-4.519-21.411-8.528-32.163-12.571.574-32.631.194-65.231.181-97.862-.008-21.282.728-42.71-.139-63.969" style="stroke:none;stroke-width:1;stroke-dasharray:none;stroke-linecap:butt;stroke-dashoffset:0;stroke-linejoin:miter;stroke-miterlimit:4;fill:#f3f8ff;fill-rule:nonzero;opacity:1" transform="translate(-145.495 -82.882)scale(1.14)" vector-effect="non-scaling-stroke"/><path d="M761.679 232.376c-1.001 12.498-.425 25.452-.495 38.006l-.53 69.056c-.106 8.896.756 23.341-.454 31.658-1.397.369-2.267.337-3.19 1.481-1.008 4.84-.748 10.2-.887 15.144l-.607 22.664c-9.953-3.704-20.412-7.432-30.004-11.947 1.117-55.232.601-110.647.472-165.893a26.6 26.6 0 0 0 4.763 2.171q.945.313 1.904.579t1.93.483 1.952.388q.981.17 1.969.291.988.122 1.98.194.993.072 1.988.095t1.99-.002q.995-.026 1.987-.101t1.98-.2q.988-.124 1.968-.296.98-.173 1.951-.394.97-.22 1.929-.489.958-.268 1.902-.584t1.871-.677 1.836-.769q.908-.407 1.795-.858" style="stroke:none;stroke-width:1;stroke-dasharray:none;stroke-linecap:butt;stroke-dashoffset:0;stroke-linejoin:miter;stroke-miterlimit:4;fill:#f3f8ff;fill-rule:nonzero;opacity:1" transform="translate(-145.434 -82.853)scale(1.14)" vector-effect="non-scaling-stroke"/><path d="M845.27 278.411c11.784 4.183 23.611 5.272 35.346.278-.439 12.766-.118 25.623-.112 38.401q.092 35.291-.212 70.58c-.102 10.607.557 21.577-.19 32.131-1.635 1.13-2.278 1.555-2.677 3.619-1.605 8.296-1.482 23.604-1.607 32.497-10.392-3.317-20.636-7.535-30.793-11.51q.559-53.635.412-107.273c.01-19.56.327-39.172-.167-58.723" style="stroke:none;stroke-width:1;stroke-dasharray:none;stroke-linecap:butt;stroke-dashoffset:0;stroke-linejoin:miter;stroke-miterlimit:4;fill:#f3f8ff;fill-rule:nonzero;opacity:1" transform="translate(-145.355 -82.822)scale(1.14)" vector-effect="non-scaling-stroke"/><path d="m713.549 707.552 4.247 1.538c.04 6.383.273 12.822-.33 19.184l-160.867 85.572c-19.317 10.231-38.481 20.85-58 30.685-5.942 2.994-11.932 6.602-18.051 9.131-19.86-9.16-40.535-16.494-60.506-25.468 3.091-1.746 21.262-9.841 23.719-10.298l2.618 1.064c10.66 5.224 22.557 9.244 33.805 13.045 19.173-8.358 37.381-19.233 55.83-29.046l122.533-65.796 31.598-17.046c7.755-4.25 15.416-8.764 23.404-12.565" style="stroke:none;stroke-width:1;stroke-dasharray:none;stroke-linecap:butt;stroke-dashoffset:0;stroke-linejoin:miter;stroke-miterlimit:4;fill:#f3f8ff;fill-rule:nonzero;opacity:1" transform="translate(-145.534 -82.575)scale(1.14)" vector-effect="non-scaling-stroke"/><path d="M675.555 693.784c6.705 2.578 13.404 5.246 20.194 7.591 5.935 2.051 11.993 3.768 17.8 6.177-7.988 3.801-15.649 8.315-23.404 12.565l-31.598 17.046-122.533 65.796c-18.449 9.813-36.657 20.688-55.83 29.046-11.248-3.801-23.145-7.821-33.805-13.045 19.791-11.992 40.947-22.31 61.279-33.383l108.617-59.198 34.841-18.657c6.673-3.554 19.411-8.833 24.439-13.938" style="stroke:none;stroke-width:1;stroke-dasharray:none;stroke-linecap:butt;stroke-dashoffset:0;stroke-linejoin:miter;stroke-miterlimit:4;fill:#f3f8ff;fill-rule:nonzero;opacity:1" transform="translate(-145.524 -82.575)scale(1.14)" vector-effect="non-scaling-stroke"/><path d="M315.156 764.695c19.532-9.84 38.6-20.426 57.849-30.8q54.555-29.331 108.613-59.57l41.353-22.507c6.123-3.279 13.563-6.299 19.134-10.373 14.537 5.296 28.867 11.022 43.236 16.753 7.184 2.866 14.56 5.489 21.618 8.641L455.69 747.726l-50.84 27.914c-8.663 4.757-17.29 9.75-26.143 14.141-2.52-.102-22.411 9.215-25.708 10.961l-2.445-.823c-16.912-7.814-34.568-13.739-51.505-21.394-.735-1.057-.496-1.726-.476-2.972.258-1.895.284-3.843.389-5.754 3.104-1.667 10.689-6.796 13.947-6.003z" style="stroke:none;stroke-width:1;stroke-dasharray:none;stroke-linecap:butt;stroke-dashoffset:0;stroke-linejoin:miter;stroke-miterlimit:4;fill:#f3f8ff;fill-rule:nonzero;opacity:1" transform="translate(-145.604 -82.603)scale(1.14)" vector-effect="non-scaling-stroke"/><path d="M350.636 779.988c11.858-5.858 23.402-12.585 34.988-18.97l78.882-43.904 50.519-27.789c5.982-3.311 13.277-6.111 18.691-10.154l.763.28c-1.435 2.466-164.157 90.186-183.663 101.859.065 3.797.942 15.676-.262 18.609-16.912-7.814-34.568-13.739-51.505-21.394-.735-1.057-.496-1.726-.476-2.972.258-1.895.284-3.843.389-5.754 3.104-1.667 10.689-6.796 13.947-6.003l2.247.899q17.818 7.465 35.48 15.293" style="stroke:none;stroke-width:1;stroke-dasharray:none;stroke-linecap:butt;stroke-dashoffset:0;stroke-linejoin:miter;stroke-miterlimit:4;fill:#f3f8ff;fill-rule:nonzero;opacity:1" transform="translate(-145.63 -82.607)scale(1.14)" vector-effect="non-scaling-stroke"/><path d="M609.749 667.815c21.917 8.574 44.569 15.748 65.806 25.969-5.028 5.105-17.766 10.384-24.439 13.938l-34.841 18.657-108.617 59.198c-20.332 11.073-41.488 21.391-61.279 33.383l-2.618-1.064c-2.457.457-20.628 8.552-23.719 10.298-1.339-.291-2.695-.846-3.999-1.285-7.507-3.685-15.603-6.686-23.347-9.857l-39.697-16.31c3.297-1.746 23.188-11.063 25.708-10.961l1.152 1.677c4.77-1.692 9.461-4.472 13.931-6.86 11.727-6.265 23.042-13.313 34.796-19.511 44.982-23.717 89.284-48.707 134.215-72.53 15.6-8.271 30.996-17.185 46.948-24.742" style="stroke:none;stroke-width:1;stroke-dasharray:none;stroke-linecap:butt;stroke-dashoffset:0;stroke-linejoin:miter;stroke-miterlimit:4;fill:#f3f8ff;fill-rule:nonzero;opacity:1" transform="translate(-145.57 -82.59)scale(1.14)" vector-effect="non-scaling-stroke"/><path d="M443.761 817.896c4.889-4.096 12.26-7.151 17.883-10.22l45.382-24.513 114.054-61.778c16.071-8.637 31.83-18.207 48.222-26.187 2.066-1.006 3.979-1.221 6.253-1.414-5.028 5.105-17.766 10.384-24.439 13.938l-34.841 18.657-108.617 59.198c-20.332 11.073-41.488 21.391-61.279 33.383z" style="stroke:none;stroke-width:1;stroke-dasharray:none;stroke-linecap:butt;stroke-dashoffset:0;stroke-linejoin:miter;stroke-miterlimit:4;fill:#f3f8ff;fill-rule:nonzero;opacity:1" transform="translate(-145.542 -82.582)scale(1.14)" vector-effect="non-scaling-stroke"/><path d="M416.43 807.069c8.172-4.081 52.969-29.9 56.373-30.199l.172.33c-2.344 1.754-4.77 2.694-7.314 4.073-2.355 1.276-4.491 2.937-6.841 4.226-1.709.936-3.586 1.556-5.32 2.451-12.605 6.504-25.951 13.335-37.764 21.167q.007 8.899.307 17.792c-7.507-3.685-15.603-6.686-23.347-9.857l-39.697-16.31c3.297-1.746 23.188-11.063 25.708-10.961l1.152 1.677c12.184 4.209 24.461 10.724 36.571 15.611" style="stroke:none;stroke-width:1;stroke-dasharray:none;stroke-linecap:butt;stroke-dashoffset:0;stroke-linejoin:miter;stroke-miterlimit:4;fill:#f3f8ff;fill-rule:nonzero;opacity:1" transform="translate(-145.639 -82.565)scale(1.14)" vector-effect="non-scaling-stroke"/><path d="m464.648 610.865 46.857 18.709c9.126 3.557 18.44 6.744 27.338 10.862q-39.486 21.096-78.426 43.186l-66.999 36.641-62.669 33.784c-3.851 2.084-15.302 7.189-17.84 9.749-3.258-.793-10.843 4.336-13.947 6.003-.105 1.911-.131 3.859-.389 5.754.005-1.288.14-2.727-.251-3.964-.205-.652-.555-.654-1.114-.956-2.357-.091-6.521 2.459-8.966 3.372-5.121-1.568-10.301-4.079-15.291-6.085q-18.982-7.456-37.495-16.012c-.011-5.144-.825-12.466.664-17.346.248-.813.555-.717 1.268-1.039 25.887-12.301 50.963-26.844 76.093-40.617 13.17-7.218 26.663-13.86 39.959-20.841 10.896-5.72 21.705-11.876 32.489-17.817 26.196-14.433 52.068-29.813 78.719-43.383" style="stroke:none;stroke-width:1;stroke-dasharray:none;stroke-linecap:butt;stroke-dashoffset:0;stroke-linejoin:miter;stroke-miterlimit:4;fill:#f3f8ff;fill-rule:nonzero;opacity:1" transform="translate(-145.644 -82.63)scale(1.14)" vector-effect="non-scaling-stroke"/><path d="M287.819 753.227c.308-.115.617-.226.924-.344 7.449-2.875 14.46-8.321 21.524-12.148l131.17-71.843 41.305-22.658c2.704-1.45 5.233-3.287 7.947-4.659 1.433-.724 4.032-2.227 5.566-1.855-5.017 4.237-12.499 7.2-18.353 10.321q-12.861 6.9-25.595 14.032l-111.396 61.354q-17.739 9.595-35.362 19.398c-5.723 3.182-11.642 6.193-17.14 9.743-.23 6.484-.214 12.951-.167 19.437-5.121-1.568-10.301-4.079-15.291-6.085q-18.982-7.456-37.495-16.012c-.011-5.144-.825-12.466.664-17.346.248-.813.555-.717 1.268-1.039 17.112 5.487 33.413 13.868 50.431 19.704" style="stroke:none;stroke-width:1;stroke-dasharray:none;stroke-linecap:butt;stroke-dashoffset:0;stroke-linejoin:miter;stroke-miterlimit:4;fill:#f3f8ff;fill-rule:nonzero;opacity:1" transform="translate(-145.664 -82.616)scale(1.14)" vector-effect="non-scaling-stroke"/><path d="M330.312 980.297c-15.047-5.935-29.842-12.421-44.773-18.631l-122.551-51.032-79.135-32.836c-11.46-4.782-26.332-9.833-37.06-15.427-4.576-2.387-7.911-6.159-10.8-10.342-9.744-14.111-11.085-32.418-8.003-48.883 4.202-22.449 18.142-43.415 37.072-56.183 11.604-7.826 27.541-13.717 41.676-13.383 5.225.123 10.277 1.181 15.385 2.189 1.865 2.898 38.917 16.766 45.294 20.449 7.303 3.531 14.83 6.608 22.235 9.918q28.638 13.085 57.75 25.078l79.766 33.742q21.011 8.863 41.904 17.998c8.445 3.687 16.896 7.694 25.587 10.761-5.439.696-10.971.953-16.281 2.406-18.07 4.943-34.907 18.602-46.182 33.197-13.474 17.441-20.338 39.594-17.376 61.635 1.09 8.112 3.973 15.752 9.129 22.161 1.445 1.795 5.886 5.3 6.363 7.183" style="stroke:none;stroke-width:1;stroke-dasharray:none;stroke-linecap:butt;stroke-dashoffset:0;stroke-linejoin:miter;stroke-miterlimit:4;fill:#f3f8ff;fill-rule:nonzero;opacity:1" transform="translate(-145.763 -82.52)scale(1.14)" vector-effect="non-scaling-stroke"/><path d="M434.929 304.55c10.369 3.039 20.643 7.303 30.875 10.872 9.932 3.463 37.168 11.683 44.503 16.422 2.172 2.873.748 15.3.925 19.285q20.056-9.261 39.82-19.132c18.903 5.912 38.331 14.318 56.938 21.435 10.752 4.043 21.602 8.052 32.163 12.571.237-11.273-.677-23.226.357-34.399.258-2.786.677-3.726 2.876-5.53 1.711 9.948.268 30.438.153 41.322 27.067 10.932 54.617 20.85 81.973 31.042 9.592 4.515 20.051 8.243 30.004 11.947l.607-22.664c.139-4.944-.121-10.304.887-15.144.923-1.144 1.793-1.112 3.19-1.481-.431 12.787-.008 27.957-1.649 40.439q28.275 10.345 56.311 21.322c10.038 3.823 20.25 7.428 30.163 11.55 10.157 3.975 20.401 8.193 30.793 11.51.125-8.893.002-24.201 1.607-32.497.399-2.064 1.042-2.489 2.677-3.619.436 12.554-.061 25.146-.006 37.705q40.967 15.877 82.171 31.126c12.557 4.652 25.029 9.722 37.773 13.822q-.58 113.371.22 226.744c-38.673 19.916-76.655 41.115-115.001 61.659l-30.198 16.215c-5.609 3.022-11.515 6.705-17.468 8.967-10.441-3.671-20.659-8.494-30.888-12.762l-47.93-19.843c.762-5.501 1.705-10.987 2.409-16.493-11.473 5.141-22.303 11.274-33.376 17.193l-41.579 21.916q-70.122 36.915-139.857 74.556-28.76 15.819-57.759 31.194c-7.852 4.18-15.714 9.173-23.768 12.83-11.73-4.153-23.212-9.437-34.796-14.044q-9.2-3.751-18.09-8.188c7.381-3.858 15.082-7.103 22.449-11.009 11.915-5.703 23.511-12.146 35.231-18.245q29.52-15.054 58.658-30.835l133.048-71.484 68.849-36.64q14.377-7.418 28.48-15.344c2.602-1.465 6.07-2.904 8.348-4.75 1.534-1.244 1.361-2.756 1.671-4.602-4.657.47-10.864 3.511-14.627 6.22-.448.547-.649 1.109-1.403 1.207-3.718.478-23.279-8.487-27.838-10.181q-137.149-51.241-273.048-105.712c-8.411 5.627-17.742 10.165-26.642 14.986l-48.831 26.282-146.216 79.534-44.002 23.766c-6.158 3.405-12.944 6.566-18.669 10.627-6.377-3.683-43.429-17.551-45.294-20.449 19.114-11.439 39.335-21.434 58.987-31.941q50.34-27.34 101.007-54.063l38.639-20.751c6.3-3.387 13.297-6.357 19.111-10.474-4.87-1.925-10.012-3.355-14.978-5.027-13.493-4.544-27.404-9.091-40.474-14.717 3.568-20.953 5.686-42.134 8.508-63.194l16.29-117.447c2.742-19.198 4.937-38.733 8.73-57.749 4.684-2.942 9.968-5.192 14.946-7.601l32.275-15.341 45.685-21.98c7.848-3.727 15.879-8.1 24.08-10.934" style="stroke:none;stroke-width:1;stroke-dasharray:none;stroke-linecap:butt;stroke-dashoffset:0;stroke-linejoin:miter;stroke-miterlimit:4;fill:#000;fill-rule:nonzero;opacity:1" transform="translate(-145.537 -82.673)scale(1.14)" vector-effect="non-scaling-stroke"/><path d="m749.338 678.484.702.095c1.373 2.428.532 29.537.531 34.518q-9.302-3.641-18.665-7.12l-9.57-3.478q4.228-7.769 8.601-15.458 9.086-4.526 18.401-8.557" style="stroke:none;stroke-width:1;stroke-dasharray:none;stroke-linecap:butt;stroke-dashoffset:0;stroke-linejoin:miter;stroke-miterlimit:4;fill:#f3f8ff;fill-rule:nonzero;opacity:1" transform="translate(-145.431 -82.62)scale(1.14)" vector-effect="non-scaling-stroke"/><path d="M538.033 489.039c4.418-.027 20.863 6.856 25.712 8.976-10.054 4.602-19.848 10.095-29.703 15.131l-66.789 34.383c-3.147 1.598-8.77 5.543-12.286 5.484-2.37-.039-3.527.573-5.591 1.75q-.12-10.19-.018-20.379c29.312-15.577 59.241-30.001 88.675-45.345" style="stroke:none;stroke-width:1;stroke-dasharray:none;stroke-linecap:butt;stroke-dashoffset:0;stroke-linejoin:miter;stroke-miterlimit:4;fill:#f3f8ff;fill-rule:nonzero;opacity:1" transform="translate(-145.571 -82.736)scale(1.14)" vector-effect="non-scaling-stroke"/><path d="M449.343 455.592c28.459 9.956 56.795 20.71 84.961 31.469-9.093 5.2-18.784 9.675-28.132 14.416-19.098 9.378-37.802 19.492-56.973 28.735-1.032-24.73.048-49.858.144-74.62" style="stroke:none;stroke-width:1;stroke-dasharray:none;stroke-linecap:butt;stroke-dashoffset:0;stroke-linejoin:miter;stroke-miterlimit:4;fill:#f3f8ff;fill-rule:nonzero;opacity:1" transform="translate(-145.584 -82.746)scale(1.14)" vector-effect="non-scaling-stroke"/><path d="m568.093 499.477 123.508 46.257c19.52 7.394 39.297 14.08 58.517 22.247.024 7.004.2 14.042.042 21.042q-6.088 1.643-12.212 3.15-.834-3.12-1.735-6.221c-2.162-7.324-5.552-13.586-12.62-17.269-12.581-6.556-25.252-.895-37.692 2.757-1.253-7.126-2.917-14.297-8.813-19.13-2.129-1.745-4.616-3.013-7.226-3.873-4.08-1.346-8.42-1.221-12.543-2.263-4.32-1.091-8.273-3.411-12.709-4.106q-1.838-.289-3.699-.28c-6.016.036-11.8 2.519-17.78 3.164l-.68.069c-.481-6.113-.024-11.442-3.536-16.865-3.925-6.061-11.284-9.713-18.227-11.113-5.29-1.067-10.496-.47-15.57 1.206-13.272 4.383-27.977 13.632-40.633 20.173-13.026 6.732-25.914 13.504-38.773 20.545-4.622 2.531-9.631 4.748-13.985 7.715-10.269-4-20.518-8.307-30.945-11.856q53.494-27.987 107.311-55.349" style="stroke:none;stroke-width:1;stroke-dasharray:none;stroke-linecap:butt;stroke-dashoffset:0;stroke-linejoin:miter;stroke-miterlimit:4;fill:#f3f8ff;fill-rule:nonzero;opacity:1" transform="translate(-145.51 -82.726)scale(1.14)" vector-effect="non-scaling-stroke"/><path d="M440.454 573.623c13.516 4.699 26.763 10.496 40.067 15.777l75.993 29.775 103.436 40.208c22.452 8.732 45.39 16.995 67.405 26.777l-8.409 15.312c-29.5-10.335-58.526-22.466-87.61-33.916l-114.988-44.703-50.109-19.676c-8.457-3.338-17.027-7.396-25.731-9.955.064-6.531.217-13.071-.054-19.599" style="stroke:none;stroke-width:1;stroke-dasharray:none;stroke-linecap:butt;stroke-dashoffset:0;stroke-linejoin:miter;stroke-miterlimit:4;fill:#f3f8ff;fill-rule:nonzero;opacity:1" transform="translate(-145.516 -82.667)scale(1.14)" vector-effect="non-scaling-stroke"/><path d="M453.885 556.949c2.959-.198 6.324 1.211 9.077 2.205 10.333 3.733 20.454 8.229 30.69 12.234l58.345 22.695 149.01 58.637c16.432 6.555 33.542 15.184 50.251 20.393-5.72 3.278-11.514 6.317-17.594 8.876l-2.461 1.111c-6.265-.883-13.167-4.661-19.095-7.077q-13.635-5.573-27.358-10.928l-170.652-66.671c-8.534-3.397-73.836-27.998-75.906-30.293-.531-.589-.329-.935-.296-1.662 2.665-3.876 11.689-7.614 15.989-9.52" style="stroke:none;stroke-width:1;stroke-dasharray:none;stroke-linecap:butt;stroke-dashoffset:0;stroke-linejoin:miter;stroke-miterlimit:4;fill:#f3f8ff;fill-rule:nonzero;opacity:1" transform="translate(-145.516 -82.683)scale(1.14)" vector-effect="non-scaling-stroke"/><path d="M434.107 308.433c6.049.493 13.464 4.278 19.244 6.241q16.266 5.521 32.47 11.22c6.875 2.402 13.899 4.586 20.55 7.561-3.958 2.665-8.634 4.624-12.922 6.733-9.959 4.9-20.066 9.491-30.028 14.379l-42.451 21.254c-7.971 3.948-15.91 8.134-24.198 11.382-8.833-2.696-17.54-6.29-26.213-9.486-15.549-5.731-31.015-11.301-46.869-16.159 9.055-6.212 25.76-12.554 36.326-17.537z" style="stroke:none;stroke-width:1;stroke-dasharray:none;stroke-linecap:butt;stroke-dashoffset:0;stroke-linejoin:miter;stroke-miterlimit:4;fill:#f3f8ff;fill-rule:nonzero;opacity:1" transform="translate(-145.634 -82.845)scale(1.14)" vector-effect="non-scaling-stroke"/><path d="M916.331 475.988c3.884-.097 70.185 25.423 77.857 28.553-6.49 3.862-13.717 6.94-20.461 10.395q-22.677 11.729-45.48 23.21c-8.208 4.138-16.494 8.172-24.597 12.512-10.294 5.514-20.324 11.331-30.902 16.306-17.12-6.819-34.542-12.952-51.841-19.302-8.412-3.088-17.35-5.778-25.386-9.685 40.055-21.144 80.507-41.341 120.81-61.989" style="stroke:none;stroke-width:1;stroke-dasharray:none;stroke-linecap:butt;stroke-dashoffset:0;stroke-linejoin:miter;stroke-miterlimit:4;fill:#f3f8ff;fill-rule:nonzero;opacity:1" transform="translate(-145.329 -82.737)scale(1.14)" vector-effect="non-scaling-stroke"/><path d="m982.198 602.451.367.112c1.011 1.986.555 99.459.643 109.79-10.881 6.801-23.108 12.306-34.488 18.32-19.668 10.394-39.205 21.164-59.379 30.553l-.34-.026c-1.378-2.065-.401-97.477-.104-110.111 30.913-16.522 62.224-32.415 93.301-48.638" style="stroke:none;stroke-width:1;stroke-dasharray:none;stroke-linecap:butt;stroke-dashoffset:0;stroke-linejoin:miter;stroke-miterlimit:4;fill:#f3f8ff;fill-rule:nonzero;opacity:1" transform="translate(-145.306 -82.638)scale(1.14)" vector-effect="non-scaling-stroke"/><path d="M320.782 364.109c11.185 3.369 22.136 7.612 33.146 11.508 13.826 4.893 27.813 9.581 41.386 15.141-1.721 14.806-4.56 29.546-6.928 44.265-6.674 41.487-14.414 82.826-20.483 124.407-.893 6.121-6.988 51.534-8.626 53.71-3.409 1.696-6.669 3.769-9.947 5.708-7.763-2.756-15.414-5.802-23.189-8.531-12.428-4.362-25.005-8.439-37.307-13.142.418-8.349 2.092-16.951 3.172-25.254q3.356-26.207 7.003-52.376 10.326-77.797 21.773-155.436" style="stroke:none;stroke-width:1;stroke-dasharray:none;stroke-linecap:butt;stroke-dashoffset:0;stroke-linejoin:miter;stroke-miterlimit:4;fill:#f3f8ff;fill-rule:nonzero;opacity:1" transform="translate(-145.67 -82.757)scale(1.14)" vector-effect="non-scaling-stroke"/><path d="M342.949 414.585c3.758-.24 6.936.227 10.341 1.908 6.477 3.198 11.309 9.42 13.362 16.283 1.758 5.878 1.829 12.803-1.276 18.256-2.475 4.347-6.188 6.618-10.883 7.951-4.431.369-8.159-.147-12.082-2.359-6.322-3.567-10.786-10.159-12.606-17.108-1.478-5.644-1.424-12.285 1.723-17.381 2.739-4.435 6.556-6.342 11.421-7.55" style="stroke:none;stroke-width:1;stroke-dasharray:none;stroke-linecap:butt;stroke-dashoffset:0;stroke-linejoin:miter;stroke-miterlimit:4;fill:#000;fill-rule:nonzero;opacity:1" transform="translate(-145.672 -82.783)scale(1.14)" vector-effect="non-scaling-stroke"/><path d="M344.357 417.627c2.755.172 5.205.659 7.666 1.972 5.531 2.952 9.575 8.387 11.161 14.414 1.306 4.96 1.351 11-1.4 15.506-2.203 3.608-5.132 5.148-9.136 6.063l-.307-.02c-3.28-.184-5.931-.663-8.808-2.332-5.446-3.157-9.148-8.722-10.713-14.749-1.203-4.631-1.172-10.005 1.368-14.204 2.373-3.924 5.856-5.612 10.169-6.65" style="stroke:none;stroke-width:1;stroke-dasharray:none;stroke-linecap:butt;stroke-dashoffset:0;stroke-linejoin:miter;stroke-miterlimit:4;fill:#f3f8ff;fill-rule:nonzero;opacity:1" transform="translate(-145.677 -82.784)scale(1.14)" vector-effect="non-scaling-stroke"/><path d="M332.079 488.126c4.333-.488 7.89-.117 11.848 1.845 6.63 3.288 11.42 9.514 13.632 16.492 1.854 5.849 1.888 12.851-1.089 18.331-2.227 4.099-5.621 6.331-9.978 7.66-3.783.537-6.83.502-10.49-.873-6.751-2.535-12.139-8.293-14.843-14.908-2.378-5.816-3.019-12.89-.439-18.734 2.289-5.184 6.27-7.852 11.359-9.813" style="stroke:none;stroke-width:1;stroke-dasharray:none;stroke-linecap:butt;stroke-dashoffset:0;stroke-linejoin:miter;stroke-miterlimit:4;fill:#000;fill-rule:nonzero;opacity:1" transform="translate(-145.673 -82.739)scale(1.14)" vector-effect="non-scaling-stroke"/><path d="M332.482 491.582c3.424-.416 6.031-.355 9.225 1.089 5.767 2.607 10.115 8.18 12.169 14.07 1.717 4.924 2.055 10.958-.322 15.732-1.874 3.762-4.596 5.692-8.485 7.036-2.293.249-4.459.21-6.681-.493-5.647-1.787-10.206-6.165-12.866-11.384-2.616-5.132-3.824-11.485-1.851-17.04 1.604-4.516 4.573-7.042 8.811-9.01" style="stroke:none;stroke-width:1;stroke-dasharray:none;stroke-linecap:butt;stroke-dashoffset:0;stroke-linejoin:miter;stroke-miterlimit:4;fill:#f3f8ff;fill-rule:nonzero;opacity:1" transform="translate(-145.676 -82.74)scale(1.14)" vector-effect="non-scaling-stroke"/><path d="M491.727 566.682c4.354-2.967 9.363-5.184 13.985-7.715 12.859-7.041 25.747-13.813 38.773-20.545 12.656-6.541 27.361-15.79 40.633-20.173 5.074-1.676 10.28-2.273 15.57-1.206 6.943 1.4 14.302 5.052 18.227 11.113 3.512 5.423 3.055 10.752 3.536 16.865l.68-.069c5.98-.645 11.764-3.128 17.78-3.164q1.861-.009 3.699.28c4.436.695 8.389 3.015 12.709 4.106 4.123 1.042 8.463.917 12.543 2.263 2.61.86 5.097 2.128 7.226 3.873 5.896 4.833 7.56 12.004 8.813 19.13 12.44-3.652 25.111-9.313 37.692-2.757 7.068 3.683 10.458 9.945 12.62 17.269q.901 3.101 1.735 6.221 6.124-1.507 12.212-3.15c-.482 26.695.619 53.408.295 80.08-4.591-1.989-9.728-3.791-14.091-6.202l-3.407-1.113c-7.586-2.72-15.038-6.026-22.523-9.025l-32.637-12.885-.947-.227c-17.68-7.061-35.833-13.554-53.205-21.306l-2.187-.735c-17.059-7.535-34.853-14.025-52.246-20.774l-2.798-.966c-18.114-6.451-36.01-14.036-53.904-21.093l-3.007-1.065c-5.989-2.08-11.884-4.676-17.776-7.03" style="stroke:none;stroke-width:1;stroke-dasharray:none;stroke-linecap:butt;stroke-dashoffset:0;stroke-linejoin:miter;stroke-miterlimit:4;fill:#f3f8ff;fill-rule:nonzero;opacity:1" transform="translate(-145.497 -82.693)scale(1.14)" vector-effect="non-scaling-stroke"/><path d="M732.957 661.788c4.528-2.997 11.507-5.829 16.756-7.28.228 1.057.297 1.783.138 2.855-2.665 3.176-9.522 4.729-13.487 5.538z" style="stroke:none;stroke-width:1;stroke-dasharray:none;stroke-linecap:butt;stroke-dashoffset:0;stroke-linejoin:miter;stroke-miterlimit:4;fill:#f3f8ff;fill-rule:nonzero;opacity:1" transform="translate(-145.433 -82.648)scale(1.14)" vector-effect="non-scaling-stroke"/><path d="M621.458 617.61c3.475-2.945 60.865-32.134 63.328-32.051.142.004.281.042.421.064-1.068 1.901-4.072 3.356-5.926 4.425-10.047 5.791-20.919 10.568-31.243 15.897-6.945 3.585-17.466 10.207-24.393 12.4z" style="stroke:none;stroke-width:1;stroke-dasharray:none;stroke-linecap:butt;stroke-dashoffset:0;stroke-linejoin:miter;stroke-miterlimit:4;fill:#f3f8ff;fill-rule:nonzero;opacity:1" transform="translate(-145.476 -82.683)scale(1.14)" vector-effect="non-scaling-stroke"/><path d="M676.85 639.651c.382-.608.655-1.093 1.253-1.52 3.346-2.388 8.055-4.123 11.724-6.042q18.478-9.673 37.206-18.854c3.691-1.84 11.128-6.299 14.566-7.442.682-.227.93-.19 1.568-.194l.749.659c-.102.296-.11.643-.305.888-.815 1.029-45.063 23.365-50.902 26.221-4.841 2.368-9.776 4.858-14.912 6.511z" style="stroke:none;stroke-width:1;stroke-dasharray:none;stroke-linecap:butt;stroke-dashoffset:0;stroke-linejoin:miter;stroke-miterlimit:4;fill:#f3f8ff;fill-rule:nonzero;opacity:1" transform="translate(-145.443 -82.674)scale(1.14)" vector-effect="non-scaling-stroke"/><path d="M566.414 595.87c4.153-4.772 56.76-29.302 66.429-33.787l.875.149.199.731c-2.771 3.04-7.838 4.758-11.458 6.594-13.092 6.639-26.388 12.832-39.44 19.543-4.603 2.366-9.788 4.439-13.807 7.736z" style="stroke:none;stroke-width:1;stroke-dasharray:none;stroke-linecap:butt;stroke-dashoffset:0;stroke-linejoin:miter;stroke-miterlimit:4;fill:#f3f8ff;fill-rule:nonzero;opacity:1" transform="translate(-145.524 -82.694)scale(1.14)" vector-effect="non-scaling-stroke"/><path d="M509.503 573.712c5.266-4.535 26.021-13.334 33.361-17.082 12.254-6.257 24.277-13.251 36.694-19.175.834-.398.552-.273 1.602-.291l.201.791c-1.164 1.538-2.884 2.519-4.532 3.474-9.856 5.716-20.435 10.564-30.609 15.712-11.312 5.725-22.452 11.799-33.71 17.636z" style="stroke:none;stroke-width:1;stroke-dasharray:none;stroke-linecap:butt;stroke-dashoffset:0;stroke-linejoin:miter;stroke-miterlimit:4;fill:#f3f8ff;fill-rule:nonzero;opacity:1" transform="translate(-145.55 -82.716)scale(1.14)" vector-effect="non-scaling-stroke"/><path d="m792.711 540.762 78 28.658c-4.213 33.967-9.856 67.768-14.935 101.615l-19.322 137.44c.029 1.012-.236 1.801-.532 2.761l-.7.301c-7.968-2.417-15.851-6.605-23.563-9.813q-24.621-9.961-49.061-20.359c3.535-22.281 5.878-44.757 8.706-67.133q6.795-51.629 12.936-103.34c2.826-23.383 5.317-46.787 8.471-70.13" style="stroke:none;stroke-width:1;stroke-dasharray:none;stroke-linecap:butt;stroke-dashoffset:0;stroke-linejoin:miter;stroke-miterlimit:4;fill:#f3f8ff;fill-rule:nonzero;opacity:1" transform="translate(-145.371 -82.641)scale(1.14)" vector-effect="non-scaling-stroke"/><path d="M819.38 593.124c3.958-.188 7.764.959 11.091 3.083 6.051 3.864 10.162 10.584 11.713 17.521 1.274 5.699.795 11.763-2.561 16.689-2.874 4.219-6.726 6.02-11.594 6.979-3.869.135-7.27-.701-10.592-2.729-6.152-3.754-10.385-10.432-11.999-17.388-1.339-5.772-.892-12.161 2.449-17.2 2.793-4.214 6.649-6.082 11.493-6.955" style="stroke:none;stroke-width:1;stroke-dasharray:none;stroke-linecap:butt;stroke-dashoffset:0;stroke-linejoin:miter;stroke-miterlimit:4;fill:#000;fill-rule:nonzero;opacity:1" transform="translate(-145.37 -82.676)scale(1.14)" vector-effect="non-scaling-stroke"/><path d="M819.291 596.548c2.868-.132 5.334.254 7.906 1.61 5.681 2.994 9.624 8.995 11.328 15.083 1.313 4.695 1.323 9.952-1.185 14.269-2.093 3.603-5.004 5.236-8.909 6.312-2.864.117-5.379-.113-7.984-1.406-5.32-2.641-9.351-7.82-11.223-13.396-1.636-4.871-1.771-10.699.655-15.341 2.076-3.974 5.216-5.936 9.412-7.131" style="stroke:none;stroke-width:1;stroke-dasharray:none;stroke-linecap:butt;stroke-dashoffset:0;stroke-linejoin:miter;stroke-miterlimit:4;fill:#f3f8ff;fill-rule:nonzero;opacity:1" transform="translate(-145.38 -82.677)scale(1.14)" vector-effect="non-scaling-stroke"/><path d="M810.377 667.628c4.463.135 8.441 1.419 12.079 4.031 6.014 4.32 10.107 11.537 11.283 18.808.921 5.696.185 12.064-3.368 16.782-3.001 3.986-7.094 5.757-11.906 6.438-4.111-.171-7.498-.894-11.081-3.078-6.343-3.865-10.945-10.644-12.533-17.865-1.262-5.74-.646-12.179 2.62-17.175 3.096-4.735 7.538-6.896 12.906-7.941" style="stroke:none;stroke-width:1;stroke-dasharray:none;stroke-linecap:butt;stroke-dashoffset:0;stroke-linejoin:miter;stroke-miterlimit:4;fill:#000;fill-rule:nonzero;opacity:1" transform="translate(-145.384 -82.632)scale(1.14)" vector-effect="non-scaling-stroke"/><path d="M809.604 671.134c2.804-.19 5.277.179 7.827 1.399 5.818 2.782 9.993 8.435 11.934 14.482 1.621 5.051 2.042 11.043-.568 15.85-2.257 4.159-5.482 5.984-9.887 7.262-2.662-.084-5.024-.364-7.502-1.399-5.848-2.444-10.329-7.467-12.503-13.377-1.831-4.977-2.161-10.788.19-15.657 2.168-4.487 5.916-6.996 10.509-8.56" style="stroke:none;stroke-width:1;stroke-dasharray:none;stroke-linecap:butt;stroke-dashoffset:0;stroke-linejoin:miter;stroke-miterlimit:4;fill:#f3f8ff;fill-rule:nonzero;opacity:1" transform="translate(-145.387 -82.635)scale(1.14)" vector-effect="non-scaling-stroke"/><path d="M412.776 401.292c25.431 8.417 50.485 18.349 75.613 27.647l132.174 48.752 109.269 40.147c19.829 7.275 40.265 13.822 59.661 22.181-7.811 56.359-12.51 113.189-20.8 169.47-4.657.47-10.864 3.511-14.627 6.22-1.727-49.998-.606-100.296-.757-150.331-20.11-8.749-41.356-15.267-61.871-23.034l-163.465-60.786-55.208-20.64c-6.651-2.483-19.732-8.969-26.165-9.33l-.532.502c-1.145 6.067-.322 21.332-.346 28.278q-.097 38.468.22 76.936c-3.698 2.031-7.295 4.114-10.821 6.433-.197 2.522-.175 5.036-.176 7.564l5.509 2.322c.271 6.528.118 13.068.054 19.599l-27.975-10.563.036-122.887.085-37.791c.007-6.852-.282-13.853.122-20.689" style="stroke:none;stroke-width:1;stroke-dasharray:none;stroke-linecap:butt;stroke-dashoffset:0;stroke-linejoin:miter;stroke-miterlimit:4;fill:#f3f8ff;fill-rule:nonzero;opacity:1" transform="translate(-145.511 -82.71)scale(1.14)" vector-effect="non-scaling-stroke"/><path d="M551.011 335.944c4.056-.329 76.542 28.817 86.362 32.601l156.748 60.448 117.623 44.666c-9.583 6.183-20.717 10.907-30.901 16.072q-28.619 14.482-57.036 29.359c-11.073 5.768-22.585 11.2-33.148 17.851l-7.493-2.96c-21.472-8.454-43.327-15.913-64.982-23.873l-134.845-49.615-105.107-38.619c-19.728-7.307-39.407-15.37-59.377-21.955q40.779-20.151 81.793-39.819c16.754-8.075 33.431-16.47 50.363-24.156" style="stroke:none;stroke-width:1;stroke-dasharray:none;stroke-linecap:butt;stroke-dashoffset:0;stroke-linejoin:miter;stroke-miterlimit:4;fill:#f3f8ff;fill-rule:nonzero;opacity:1" transform="translate(-145.472 -82.782)scale(1.14)" vector-effect="non-scaling-stroke"/><path d="m16.28 19.945 3.677-3.625c2.103-2.154 5.621-2.154 7.724 0l22.326 22.275L72.333 16.32c2.103-2.154 5.621-2.154 7.721 0l3.626 3.625c2.154 2.101 2.154 5.621 0 7.723L61.405 49.993 83.68 72.32c2.154 2.102 2.154 5.619 0 7.723l-3.626 3.678c-2.1 2.099-5.618 2.099-7.721 0L50.007 61.393 27.681 83.721c-2.103 2.099-5.621 2.099-7.724 0l-3.677-3.678c-2.1-2.104-2.1-5.621 0-7.723l22.326-22.327L16.28 27.667c-2.1-2.101-2.1-5.621 0-7.722z" style="stroke:#000;stroke-width:0;stroke-dasharray:none;stroke-linecap:butt;stroke-dashoffset:0;stroke-linejoin:miter;stroke-miterlimit:4;fill:red;fill-rule:nonzero;opacity:1" transform="matrix(5.1 0 0 5.1 536.6 492.34)" vector-effect="non-scaling-stroke"/></svg>