<?xml version="1.0" encoding="UTF-8" standalone="no" ?>
<!DOCTYPE svg PUBLIC "-//W3C//DTD SVG 1.1//EN" "http://www.w3.org/Graphics/SVG/1.1/DTD/svg11.dtd">
<svg xmlns="http://www.w3.org/2000/svg" xmlns:xlink="http://www.w3.org/1999/xlink" version="1.1" width="1080" height="1080" viewBox="0 0 1080 1080" xml:space="preserve">
<desc>Created with Fabric.js 5.2.4</desc>
<defs>
</defs>
<g transform="matrix(1 0 0 1 540 540)" id="691b8417-f4be-4798-b9c6-8298d7808f9b"  >
<rect style="stroke: none; stroke-width: 1; stroke-dasharray: none; stroke-linecap: butt; stroke-dashoffset: 0; stroke-linejoin: miter; stroke-miterlimit: 4; fill: rgb(255,255,255); fill-rule: nonzero; opacity: 1; visibility: hidden;" vector-effect="non-scaling-stroke"  x="-540" y="-540" rx="0" ry="0" width="1080" height="1080" />
</g>
<g transform="matrix(1 0 0 1 540 540)" id="8fe4f288-f201-4775-9f09-bb430072c1c6"  >
</g>
<g transform="matrix(1 0 0 1 438.11 500.94)"  >
<g style="" vector-effect="non-scaling-stroke"   >
		<g transform="matrix(1.14 0 0 1.14 0 0)"  >
<path style="stroke: none; stroke-width: 1; stroke-dasharray: none; stroke-linecap: butt; stroke-dashoffset: 0; stroke-linejoin: miter; stroke-miterlimit: 4; fill: rgb(243,248,255); fill-rule: nonzero; opacity: 1;" vector-effect="non-scaling-stroke"  transform=" translate(-512, -512)" d="M 0 0 L 1024 0 L 1024 1024 L 0 1024 L 0 0 Z" stroke-linecap="round" />
</g>
		<g transform="matrix(1.14 0 0 1.14 400.51 -270.84)"  >
<path style="stroke: none; stroke-width: 1; stroke-dasharray: none; stroke-linecap: butt; stroke-dashoffset: 0; stroke-linejoin: miter; stroke-miterlimit: 4; fill: rgb(243,248,255); fill-rule: nonzero; opacity: 1;" vector-effect="non-scaling-stroke"  transform=" translate(-863.13, -274.55)" d="M 845.27 278.411 C 845.074 276.159 844.802 273.994 846.28 272.084 C 848.995 268.579 854.589 267.618 858.759 267.269 C 864.908 266.754 874.568 267.15 879.372 271.436 C 880.43 272.38 881.095 273.481 881.148 274.929 C 881.19 276.086 880.955 277.579 880.616 278.689 C 868.881 283.683 857.054 282.594 845.27 278.411 Z" stroke-linecap="round" />
</g>
		<g transform="matrix(1.14 0 0 1.14 129.56 -369.07)"  >
<path style="stroke: none; stroke-width: 1; stroke-dasharray: none; stroke-linecap: butt; stroke-dashoffset: 0; stroke-linejoin: miter; stroke-miterlimit: 4; fill: rgb(243,248,255); fill-rule: nonzero; opacity: 1;" vector-effect="non-scaling-stroke"  transform=" translate(-625.59, -188.43)" d="M 608.032 191.601 C 607.574 190.042 606.917 188.227 607.665 186.656 C 609.048 183.756 613.36 182.37 616.221 181.731 C 623.494 180.109 634.267 180.379 640.682 184.478 C 642.066 185.362 643.437 186.528 643.769 188.221 C 643.986 189.331 643.695 190.95 643.441 192.037 C 641.678 192.488 639.923 193.604 638.137 194.165 C 628.01 197.346 617.432 196.528 608.032 191.601 Z" stroke-linecap="round" />
</g>
		<g transform="matrix(1.14 0 0 1.14 264.3 -323.05)"  >
<path style="stroke: none; stroke-width: 1; stroke-dasharray: none; stroke-linecap: butt; stroke-dashoffset: 0; stroke-linejoin: miter; stroke-miterlimit: 4; fill: rgb(243,248,255); fill-rule: nonzero; opacity: 1;" vector-effect="non-scaling-stroke"  transform=" translate(-743.72, -228.78)" d="M 725.984 232.545 C 725.679 231.152 725.272 229.361 725.549 227.939 C 725.88 226.24 727.014 225.051 728.386 224.095 C 733.757 220.352 743.484 220.318 749.729 221.448 C 753.618 222.152 758.871 223.704 761.115 227.252 C 762.215 228.991 762.089 230.444 761.679 232.376 Q 760.792 232.827 759.884 233.234 Q 758.975 233.641 758.048 234.003 Q 757.121 234.365 756.177 234.68 Q 755.233 234.996 754.275 235.264 Q 753.316 235.533 752.346 235.753 Q 751.375 235.974 750.395 236.147 Q 749.415 236.319 748.427 236.443 Q 747.44 236.567 746.447 236.643 Q 745.455 236.718 744.46 236.744 Q 743.465 236.77 742.47 236.746 Q 741.475 236.723 740.482 236.651 Q 739.49 236.579 738.502 236.457 Q 737.514 236.336 736.533 236.166 Q 735.552 235.996 734.581 235.778 Q 733.61 235.56 732.651 235.295 Q 731.692 235.029 730.747 234.716 C 729.107 234.164 727.482 233.41 725.984 232.545 Z" stroke-linecap="round" />
</g>
		<g transform="matrix(1.14 0 0 1.14 -183.97 337.41)"  >
<path style="stroke: none; stroke-width: 1; stroke-dasharray: none; stroke-linecap: butt; stroke-dashoffset: 0; stroke-linejoin: miter; stroke-miterlimit: 4; fill: rgb(0,0,0); fill-rule: nonzero; opacity: 1;" vector-effect="non-scaling-stroke"  transform=" translate(-350.71, -807.82)" d="M 221.665 753.525 C 223.126 753.461 224.403 753.925 225.752 754.434 C 248.442 762.994 271.354 773.653 293.859 783.054 L 425.756 837.763 L 459.832 851.67 C 465.426 853.933 475.182 856.801 479.758 860.388 L 479.76 862.114 C 474.464 861.444 456.712 853.049 450.164 850.356 Q 402.842 830.969 355.727 811.081 L 250.796 767.54 C 244.284 764.774 227.473 759.022 222.542 755.376 C 221.583 754.666 221.821 754.619 221.665 753.525 Z" stroke-linecap="round" />
</g>
		<g transform="matrix(1.14 0 0 1.14 129.75 -265.99)"  >
<path style="stroke: none; stroke-width: 1; stroke-dasharray: none; stroke-linecap: butt; stroke-dashoffset: 0; stroke-linejoin: miter; stroke-miterlimit: 4; fill: rgb(243,248,255); fill-rule: nonzero; opacity: 1;" vector-effect="non-scaling-stroke"  transform=" translate(-625.75, -278.8)" d="M 608.032 191.601 C 617.432 196.528 628.01 197.346 638.137 194.165 C 639.923 193.604 641.678 192.488 643.441 192.037 Q 643.554 218.052 643.356 244.066 Q 642.92 274.419 642.943 304.776 C 642.941 309.846 642.015 321.875 643.386 326.074 C 641.187 327.878 640.768 328.818 640.51 331.604 C 639.476 342.777 640.39 354.73 640.153 366.003 C 629.592 361.484 618.742 357.475 607.99 353.432 C 608.564 320.801 608.184 288.201 608.171 255.57 C 608.163 234.288 608.899 212.86 608.032 191.601 Z" stroke-linecap="round" />
</g>
		<g transform="matrix(1.14 0 0 1.14 264.16 -217.42)"  >
<path style="stroke: none; stroke-width: 1; stroke-dasharray: none; stroke-linecap: butt; stroke-dashoffset: 0; stroke-linejoin: miter; stroke-miterlimit: 4; fill: rgb(243,248,255); fill-rule: nonzero; opacity: 1;" vector-effect="non-scaling-stroke"  transform=" translate(-743.6, -321.38)" d="M 761.679 232.376 C 760.678 244.874 761.254 257.828 761.184 270.382 L 760.654 339.438 C 760.548 348.334 761.41 362.779 760.2 371.096 C 758.803 371.465 757.933 371.433 757.01 372.577 C 756.002 377.417 756.262 382.777 756.123 387.721 L 755.516 410.385 C 745.563 406.681 735.104 402.953 725.512 398.438 C 726.629 343.206 726.113 287.791 725.984 232.545 C 727.482 233.41 729.107 234.164 730.747 234.716 Q 731.692 235.029 732.651 235.295 Q 733.61 235.56 734.581 235.778 Q 735.552 235.996 736.533 236.166 Q 737.514 236.336 738.502 236.457 Q 739.49 236.579 740.482 236.651 Q 741.475 236.723 742.47 236.746 Q 743.465 236.77 744.46 236.744 Q 745.455 236.718 746.447 236.643 Q 747.44 236.567 748.427 236.443 Q 749.415 236.319 750.395 236.147 Q 751.375 235.974 752.346 235.753 Q 753.316 235.533 754.275 235.264 Q 755.233 234.996 756.177 234.68 Q 757.121 234.365 758.048 234.003 Q 758.975 233.641 759.884 233.234 Q 760.792 232.827 761.679 232.376 Z" stroke-linecap="round" />
</g>
		<g transform="matrix(1.14 0 0 1.14 400.15 -165.2)"  >
<path style="stroke: none; stroke-width: 1; stroke-dasharray: none; stroke-linecap: butt; stroke-dashoffset: 0; stroke-linejoin: miter; stroke-miterlimit: 4; fill: rgb(243,248,255); fill-rule: nonzero; opacity: 1;" vector-effect="non-scaling-stroke"  transform=" translate(-862.82, -367.16)" d="M 845.27 278.411 C 857.054 282.594 868.881 283.683 880.616 278.689 C 880.177 291.455 880.498 304.312 880.504 317.09 Q 880.596 352.381 880.292 387.67 C 880.19 398.277 880.849 409.247 880.102 419.801 C 878.467 420.931 877.824 421.356 877.425 423.42 C 875.82 431.716 875.943 447.024 875.818 455.917 C 865.426 452.6 855.182 448.382 845.025 444.407 Q 845.584 390.772 845.437 337.134 C 845.447 317.574 845.764 297.962 845.27 278.411 Z" stroke-linecap="round" />
</g>
		<g transform="matrix(1.14 0 0 1.14 64.97 306.38)"  >
<path style="stroke: none; stroke-width: 1; stroke-dasharray: none; stroke-linecap: butt; stroke-dashoffset: 0; stroke-linejoin: miter; stroke-miterlimit: 4; fill: rgb(243,248,255); fill-rule: nonzero; opacity: 1;" vector-effect="non-scaling-stroke"  transform=" translate(-568.96, -780.61)" d="M 713.549 707.552 L 717.796 709.09 C 717.836 715.473 718.069 721.912 717.466 728.274 L 556.599 813.846 C 537.282 824.077 518.118 834.696 498.599 844.531 C 492.657 847.525 486.667 851.133 480.548 853.662 C 460.688 844.502 440.013 837.168 420.042 828.194 C 423.133 826.448 441.304 818.353 443.761 817.896 L 446.379 818.96 C 457.039 824.184 468.936 828.204 480.184 832.005 C 499.357 823.647 517.565 812.772 536.014 802.959 L 658.547 737.163 L 690.145 720.117 C 697.9 715.867 705.561 711.353 713.549 707.552 Z" stroke-linecap="round" />
</g>
		<g transform="matrix(1.14 0 0 1.14 77.52 286.18)"  >
<path style="stroke: none; stroke-width: 1; stroke-dasharray: none; stroke-linecap: butt; stroke-dashoffset: 0; stroke-linejoin: miter; stroke-miterlimit: 4; fill: rgb(243,248,255); fill-rule: nonzero; opacity: 1;" vector-effect="non-scaling-stroke"  transform=" translate(-579.96, -762.89)" d="M 675.555 693.784 C 682.26 696.362 688.959 699.03 695.749 701.375 C 701.684 703.426 707.742 705.143 713.549 707.552 C 705.561 711.353 697.9 715.867 690.145 720.117 L 658.547 737.163 L 536.014 802.959 C 517.565 812.772 499.357 823.647 480.184 832.005 C 468.936 828.204 457.039 824.184 446.379 818.96 C 466.17 806.968 487.326 796.65 507.658 785.577 L 616.275 726.379 L 651.116 707.722 C 657.789 704.168 670.527 698.889 675.555 693.784 Z" stroke-linecap="round" />
</g>
		<g transform="matrix(1.14 0 0 1.14 -67.59 238.5)"  >
<path style="stroke: none; stroke-width: 1; stroke-dasharray: none; stroke-linecap: butt; stroke-dashoffset: 0; stroke-linejoin: miter; stroke-miterlimit: 4; fill: rgb(243,248,255); fill-rule: nonzero; opacity: 1;" vector-effect="non-scaling-stroke"  transform=" translate(-452.74, -721.09)" d="M 315.156 764.695 C 334.688 754.855 353.756 744.269 373.005 733.895 Q 427.56 704.564 481.618 674.325 L 522.971 651.818 C 529.094 648.539 536.534 645.519 542.105 641.445 C 556.642 646.741 570.972 652.467 585.341 658.198 C 592.525 661.064 599.901 663.687 606.959 666.839 L 455.69 747.726 L 404.85 775.64 C 396.187 780.397 387.56 785.39 378.707 789.781 C 376.187 789.679 356.296 798.996 352.999 800.742 L 350.554 799.919 C 333.642 792.105 315.986 786.18 299.049 778.525 C 298.314 777.468 298.553 776.799 298.573 775.553 C 298.831 773.658 298.857 771.71 298.962 769.799 C 302.066 768.132 309.651 763.003 312.909 763.796 L 315.156 764.695 Z" stroke-linecap="round" />
</g>
		<g transform="matrix(1.14 0 0 1.14 -108.93 259.54)"  >
<path style="stroke: none; stroke-width: 1; stroke-dasharray: none; stroke-linecap: butt; stroke-dashoffset: 0; stroke-linejoin: miter; stroke-miterlimit: 4; fill: rgb(243,248,255); fill-rule: nonzero; opacity: 1;" vector-effect="non-scaling-stroke"  transform=" translate(-416.5, -739.55)" d="M 350.636 779.988 C 362.494 774.13 374.038 767.403 385.624 761.018 L 464.506 717.114 L 515.025 689.325 C 521.007 686.014 528.302 683.214 533.716 679.171 L 534.479 679.451 C 533.044 681.917 370.322 769.637 350.816 781.31 C 350.881 785.107 351.758 796.986 350.554 799.919 C 333.642 792.105 315.986 786.18 299.049 778.525 C 298.314 777.468 298.553 776.799 298.573 775.553 C 298.831 773.658 298.857 771.71 298.962 769.799 C 302.066 768.132 309.651 763.003 312.909 763.796 L 315.156 764.695 Q 332.974 772.16 350.636 779.988 Z" stroke-linecap="round" />
</g>
		<g transform="matrix(1.14 0 0 1.14 2.6 269.19)"  >
<path style="stroke: none; stroke-width: 1; stroke-dasharray: none; stroke-linecap: butt; stroke-dashoffset: 0; stroke-linejoin: miter; stroke-miterlimit: 4; fill: rgb(243,248,255); fill-rule: nonzero; opacity: 1;" vector-effect="non-scaling-stroke"  transform=" translate(-514.28, -748)" d="M 609.749 667.815 C 631.666 676.389 654.318 683.563 675.555 693.784 C 670.527 698.889 657.789 704.168 651.116 707.722 L 616.275 726.379 L 507.658 785.577 C 487.326 796.65 466.17 806.968 446.379 818.96 L 443.761 817.896 C 441.304 818.353 423.133 826.448 420.042 828.194 C 418.703 827.903 417.347 827.348 416.043 826.909 C 408.536 823.224 400.44 820.223 392.696 817.052 L 352.999 800.742 C 356.296 798.996 376.187 789.679 378.707 789.781 L 379.859 791.458 C 384.629 789.766 389.32 786.986 393.79 784.598 C 405.517 778.333 416.832 771.285 428.586 765.087 C 473.568 741.37 517.87 716.38 562.801 692.557 C 578.401 684.286 593.797 675.372 609.749 667.815 Z" stroke-linecap="round" />
</g>
		<g transform="matrix(1.14 0 0 1.14 54.36 278.74)"  >
<path style="stroke: none; stroke-width: 1; stroke-dasharray: none; stroke-linecap: butt; stroke-dashoffset: 0; stroke-linejoin: miter; stroke-miterlimit: 4; fill: rgb(243,248,255); fill-rule: nonzero; opacity: 1;" vector-effect="non-scaling-stroke"  transform=" translate(-559.66, -756.37)" d="M 443.761 817.896 C 448.65 813.8 456.021 810.745 461.644 807.676 L 507.026 783.163 L 621.08 721.385 C 637.151 712.748 652.91 703.178 669.302 695.198 C 671.368 694.192 673.281 693.977 675.555 693.784 C 670.527 698.889 657.789 704.168 651.116 707.722 L 616.275 726.379 L 507.658 785.577 C 487.326 796.65 466.17 806.968 446.379 818.96 L 443.761 817.896 Z" stroke-linecap="round" />
</g>
		<g transform="matrix(1.14 0 0 1.14 -112.94 330.65)"  >
<path style="stroke: none; stroke-width: 1; stroke-dasharray: none; stroke-linecap: butt; stroke-dashoffset: 0; stroke-linejoin: miter; stroke-miterlimit: 4; fill: rgb(243,248,255); fill-rule: nonzero; opacity: 1;" vector-effect="non-scaling-stroke"  transform=" translate(-412.99, -801.89)" d="M 416.43 807.069 C 424.602 802.988 469.399 777.169 472.803 776.87 L 472.975 777.2 C 470.631 778.954 468.205 779.894 465.661 781.273 C 463.306 782.549 461.17 784.21 458.82 785.499 C 457.111 786.435 455.234 787.055 453.5 787.95 C 440.895 794.454 427.549 801.285 415.736 809.117 Q 415.743 818.016 416.043 826.909 C 408.536 823.224 400.44 820.223 392.696 817.052 L 352.999 800.742 C 356.296 798.996 376.187 789.679 378.707 789.781 L 379.859 791.458 C 392.043 795.667 404.32 802.182 416.43 807.069 Z" stroke-linecap="round" />
</g>
		<g transform="matrix(1.14 0 0 1.14 -142.54 206.69)"  >
<path style="stroke: none; stroke-width: 1; stroke-dasharray: none; stroke-linecap: butt; stroke-dashoffset: 0; stroke-linejoin: miter; stroke-miterlimit: 4; fill: rgb(243,248,255); fill-rule: nonzero; opacity: 1;" vector-effect="non-scaling-stroke"  transform=" translate(-387.03, -693.21)" d="M 464.648 610.865 L 511.505 629.574 C 520.631 633.131 529.945 636.318 538.843 640.436 Q 499.357 661.532 460.417 683.622 L 393.418 720.263 L 330.749 754.047 C 326.898 756.131 315.447 761.236 312.909 763.796 C 309.651 763.003 302.066 768.132 298.962 769.799 C 298.857 771.71 298.831 773.658 298.573 775.553 C 298.578 774.265 298.713 772.826 298.322 771.589 C 298.117 770.937 297.767 770.935 297.208 770.633 C 294.851 770.542 290.687 773.092 288.242 774.005 C 283.121 772.437 277.941 769.926 272.951 767.92 Q 253.969 760.464 235.456 751.908 C 235.445 746.764 234.631 739.442 236.12 734.562 C 236.368 733.749 236.675 733.845 237.388 733.523 C 263.275 721.222 288.351 706.679 313.481 692.906 C 326.651 685.688 340.144 679.046 353.44 672.065 C 364.336 666.345 375.145 660.189 385.929 654.248 C 412.125 639.815 437.997 624.435 464.648 610.865 Z" stroke-linecap="round" />
</g>
		<g transform="matrix(1.14 0 0 1.14 -166.83 222.23)"  >
<path style="stroke: none; stroke-width: 1; stroke-dasharray: none; stroke-linecap: butt; stroke-dashoffset: 0; stroke-linejoin: miter; stroke-miterlimit: 4; fill: rgb(243,248,255); fill-rule: nonzero; opacity: 1;" vector-effect="non-scaling-stroke"  transform=" translate(-365.74, -706.83)" d="M 287.819 753.227 C 288.127 753.112 288.436 753.001 288.743 752.883 C 296.192 750.008 303.203 744.562 310.267 740.735 L 441.437 668.892 L 482.742 646.234 C 485.446 644.784 487.975 642.947 490.689 641.575 C 492.122 640.851 494.721 639.348 496.255 639.72 C 491.238 643.957 483.756 646.92 477.902 650.041 Q 465.041 656.941 452.307 664.073 L 340.911 725.427 Q 323.172 735.022 305.549 744.825 C 299.826 748.007 293.907 751.018 288.409 754.568 C 288.179 761.052 288.195 767.519 288.242 774.005 C 283.121 772.437 277.941 769.926 272.951 767.92 Q 253.969 760.464 235.456 751.908 C 235.445 746.764 234.631 739.442 236.12 734.562 C 236.368 733.749 236.675 733.845 237.388 733.523 C 254.5 739.01 270.801 747.391 287.819 753.227 Z" stroke-linecap="round" />
</g>
		<g transform="matrix(1.14 0 0 1.14 -343.8 393.44)"  >
<path style="stroke: none; stroke-width: 1; stroke-dasharray: none; stroke-linecap: butt; stroke-dashoffset: 0; stroke-linejoin: miter; stroke-miterlimit: 4; fill: rgb(243,248,255); fill-rule: nonzero; opacity: 1;" vector-effect="non-scaling-stroke"  transform=" translate(-210.59, -856.93)" d="M 330.312 980.297 C 315.265 974.362 300.47 967.876 285.539 961.666 L 162.988 910.634 L 83.8532 877.798 C 72.3926 873.016 57.5206 867.965 46.793 862.371 C 42.2172 859.984 38.8815 856.212 35.9926 852.029 C 26.2491 837.918 24.9084 819.611 27.9901 803.146 C 32.1918 780.697 46.1319 759.731 65.0622 746.963 C 76.6659 739.137 92.603 733.246 106.738 733.58 C 111.963 733.703 117.015 734.761 122.123 735.769 C 123.988 738.667 161.04 752.535 167.417 756.218 C 174.72 759.749 182.247 762.826 189.652 766.136 Q 218.29 779.221 247.402 791.214 L 327.168 824.956 Q 348.179 833.819 369.072 842.954 C 377.517 846.641 385.968 850.648 394.659 853.715 C 389.22 854.411 383.688 854.668 378.378 856.121 C 360.308 861.064 343.471 874.723 332.196 889.318 C 318.722 906.759 311.858 928.912 314.82 950.953 C 315.91 959.065 318.793 966.705 323.949 973.114 C 325.394 974.909 329.835 978.414 330.312 980.297 Z" stroke-linecap="round" />
</g>
		<g transform="matrix(1.14 0 0 1.14 56.11 117.02)"  >
<path style="stroke: none; stroke-width: 1; stroke-dasharray: none; stroke-linecap: butt; stroke-dashoffset: 0; stroke-linejoin: miter; stroke-miterlimit: 4; fill: rgb(0,0,0); fill-rule: nonzero; opacity: 1;" vector-effect="non-scaling-stroke"  transform=" translate(-561.19, -614.59)" d="M 434.929 304.55 C 445.298 307.589 455.572 311.853 465.804 315.422 C 475.736 318.885 502.972 327.105 510.307 331.844 C 512.479 334.717 511.055 347.144 511.232 351.129 Q 531.288 341.868 551.052 331.997 C 569.955 337.909 589.383 346.315 607.99 353.432 C 618.742 357.475 629.592 361.484 640.153 366.003 C 640.39 354.73 639.476 342.777 640.51 331.604 C 640.768 328.818 641.187 327.878 643.386 326.074 C 645.097 336.022 643.654 356.512 643.539 367.396 C 670.606 378.328 698.156 388.246 725.512 398.438 C 735.104 402.953 745.563 406.681 755.516 410.385 L 756.123 387.721 C 756.262 382.777 756.002 377.417 757.01 372.577 C 757.933 371.433 758.803 371.465 760.2 371.096 C 759.769 383.883 760.192 399.053 758.551 411.535 Q 786.826 421.88 814.862 432.857 C 824.9 436.68 835.112 440.285 845.025 444.407 C 855.182 448.382 865.426 452.6 875.818 455.917 C 875.943 447.024 875.82 431.716 877.425 423.42 C 877.824 421.356 878.467 420.931 880.102 419.801 C 880.538 432.355 880.041 444.947 880.096 457.506 Q 921.063 473.383 962.267 488.632 C 974.824 493.284 987.296 498.354 1000.04 502.454 Q 999.46 615.825 1000.26 729.198 C 961.587 749.114 923.605 770.313 885.259 790.857 L 855.061 807.072 C 849.452 810.094 843.546 813.777 837.593 816.039 C 827.152 812.368 816.934 807.545 806.705 803.277 L 758.775 783.434 C 759.537 777.933 760.48 772.447 761.184 766.941 C 749.711 772.082 738.881 778.215 727.808 784.134 L 686.229 806.05 Q 616.107 842.965 546.372 880.606 Q 517.612 896.425 488.613 911.8 C 480.761 915.98 472.899 920.973 464.845 924.63 C 453.115 920.477 441.633 915.193 430.049 910.586 Q 420.849 906.835 411.959 902.398 C 419.34 898.54 427.041 895.295 434.408 891.389 C 446.323 885.686 457.919 879.243 469.639 873.144 Q 499.159 858.09 528.297 842.309 L 661.345 770.825 L 730.194 734.185 Q 744.571 726.767 758.674 718.841 C 761.276 717.376 764.744 715.937 767.022 714.091 C 768.556 712.847 768.383 711.335 768.693 709.489 C 764.036 709.959 757.829 713 754.066 715.709 C 753.618 716.256 753.417 716.818 752.663 716.916 C 748.945 717.394 729.384 708.429 724.825 706.735 Q 587.676 655.494 451.777 601.023 C 443.366 606.65 434.035 611.188 425.135 616.009 L 376.304 642.291 L 230.088 721.825 L 186.086 745.591 C 179.928 748.996 173.142 752.157 167.417 756.218 C 161.04 752.535 123.988 738.667 122.123 735.769 C 141.237 724.33 161.458 714.335 181.11 703.828 Q 231.45 676.488 282.117 649.765 L 320.756 629.014 C 327.056 625.627 334.053 622.657 339.867 618.54 C 334.997 616.615 329.855 615.185 324.889 613.513 C 311.396 608.969 297.485 604.422 284.415 598.796 C 287.983 577.843 290.101 556.662 292.923 535.602 L 309.213 418.155 C 311.955 398.957 314.15 379.422 317.943 360.406 C 322.627 357.464 327.911 355.214 332.889 352.805 L 365.164 337.464 L 410.849 315.484 C 418.697 311.757 426.728 307.384 434.929 304.55 Z" stroke-linecap="round" />
</g>
		<g transform="matrix(1.14 0 0 1.14 256.16 209.64)"  >
<path style="stroke: none; stroke-width: 1; stroke-dasharray: none; stroke-linecap: butt; stroke-dashoffset: 0; stroke-linejoin: miter; stroke-miterlimit: 4; fill: rgb(243,248,255); fill-rule: nonzero; opacity: 1;" vector-effect="non-scaling-stroke"  transform=" translate(-736.58, -695.79)" d="M 749.338 678.484 L 750.04 678.579 C 751.413 681.007 750.572 708.116 750.571 713.097 Q 741.269 709.456 731.906 705.977 L 722.336 702.499 Q 726.564 694.73 730.937 687.041 Q 740.023 682.515 749.338 678.484 Z" stroke-linecap="round" />
</g>
		<g transform="matrix(1.14 0 0 1.14 -6.26 11.29)"  >
<path style="stroke: none; stroke-width: 1; stroke-dasharray: none; stroke-linecap: butt; stroke-dashoffset: 0; stroke-linejoin: miter; stroke-miterlimit: 4; fill: rgb(243,248,255); fill-rule: nonzero; opacity: 1;" vector-effect="non-scaling-stroke"  transform=" translate(-506.51, -521.9)" d="M 538.033 489.039 C 542.451 489.012 558.896 495.895 563.745 498.015 C 553.691 502.617 543.897 508.11 534.042 513.146 L 467.253 547.529 C 464.106 549.127 458.483 553.072 454.967 553.013 C 452.597 552.974 451.44 553.586 449.376 554.763 Q 449.256 544.573 449.358 534.384 C 478.67 518.807 508.599 504.383 538.033 489.039 Z" stroke-linecap="round" />
</g>
		<g transform="matrix(1.14 0 0 1.14 -23.35 -21.78)"  >
<path style="stroke: none; stroke-width: 1; stroke-dasharray: none; stroke-linecap: butt; stroke-dashoffset: 0; stroke-linejoin: miter; stroke-miterlimit: 4; fill: rgb(243,248,255); fill-rule: nonzero; opacity: 1;" vector-effect="non-scaling-stroke"  transform=" translate(-491.53, -492.9)" d="M 449.343 455.592 C 477.802 465.548 506.138 476.302 534.304 487.061 C 525.211 492.261 515.52 496.736 506.172 501.477 C 487.074 510.855 468.37 520.969 449.199 530.212 C 448.167 505.482 449.247 480.354 449.343 455.592 Z" stroke-linecap="round" />
</g>
		<g transform="matrix(1.14 0 0 1.14 106.65 38.58)"  >
<path style="stroke: none; stroke-width: 1; stroke-dasharray: none; stroke-linecap: butt; stroke-dashoffset: 0; stroke-linejoin: miter; stroke-miterlimit: 4; fill: rgb(243,248,255); fill-rule: nonzero; opacity: 1;" vector-effect="non-scaling-stroke"  transform=" translate(-605.5, -545.83)" d="M 568.093 499.477 L 691.601 545.734 C 711.121 553.128 730.898 559.814 750.118 567.981 C 750.142 574.985 750.318 582.023 750.16 589.023 Q 744.072 590.666 737.948 592.173 Q 737.114 589.053 736.213 585.952 C 734.051 578.628 730.661 572.366 723.593 568.683 C 711.012 562.127 698.341 567.788 685.901 571.44 C 684.648 564.314 682.984 557.143 677.088 552.31 C 674.959 550.565 672.472 549.297 669.862 548.437 C 665.782 547.091 661.442 547.216 657.319 546.174 C 652.999 545.083 649.046 542.763 644.61 542.068 Q 642.772 541.779 640.911 541.788 C 634.895 541.824 629.111 544.307 623.131 544.952 L 622.451 545.021 C 621.97 538.908 622.427 533.579 618.915 528.156 C 614.99 522.095 607.631 518.443 600.688 517.043 C 595.398 515.976 590.192 516.573 585.118 518.249 C 571.846 522.632 557.141 531.881 544.485 538.422 C 531.459 545.154 518.571 551.926 505.712 558.967 C 501.09 561.498 496.081 563.715 491.727 566.682 C 481.458 562.682 471.209 558.375 460.782 554.826 Q 514.276 526.839 568.093 499.477 Z" stroke-linecap="round" />
</g>
		<g transform="matrix(1.14 0 0 1.14 82.02 143.2)"  >
<path style="stroke: none; stroke-width: 1; stroke-dasharray: none; stroke-linecap: butt; stroke-dashoffset: 0; stroke-linejoin: miter; stroke-miterlimit: 4; fill: rgb(243,248,255); fill-rule: nonzero; opacity: 1;" vector-effect="non-scaling-stroke"  transform=" translate(-583.9, -637.55)" d="M 440.454 573.623 C 453.97 578.322 467.217 584.119 480.521 589.4 L 556.514 619.175 L 659.95 659.383 C 682.402 668.115 705.34 676.378 727.355 686.16 L 718.946 701.472 C 689.446 691.137 660.42 679.006 631.336 667.556 L 516.348 622.853 L 466.239 603.177 C 457.782 599.839 449.212 595.781 440.508 593.222 C 440.572 586.691 440.725 580.151 440.454 573.623 Z" stroke-linecap="round" />
</g>
		<g transform="matrix(1.14 0 0 1.14 94.15 123.2)"  >
<path style="stroke: none; stroke-width: 1; stroke-dasharray: none; stroke-linecap: butt; stroke-dashoffset: 0; stroke-linejoin: miter; stroke-miterlimit: 4; fill: rgb(243,248,255); fill-rule: nonzero; opacity: 1;" vector-effect="non-scaling-stroke"  transform=" translate(-594.54, -620.02)" d="M 453.885 556.949 C 456.844 556.751 460.209 558.16 462.962 559.154 C 473.295 562.887 483.416 567.383 493.652 571.388 L 551.997 594.083 L 701.007 652.72 C 717.439 659.275 734.549 667.904 751.258 673.113 C 745.538 676.391 739.744 679.43 733.664 681.989 L 731.203 683.1 C 724.938 682.217 718.036 678.439 712.108 676.023 Q 698.473 670.45 684.75 665.095 L 514.098 598.424 C 505.564 595.027 440.262 570.426 438.192 568.131 C 437.661 567.542 437.863 567.196 437.896 566.469 C 440.561 562.593 449.585 558.855 453.885 556.949 Z" stroke-linecap="round" />
</g>
		<g transform="matrix(1.14 0 0 1.14 -110.61 -187.27)"  >
<path style="stroke: none; stroke-width: 1; stroke-dasharray: none; stroke-linecap: butt; stroke-dashoffset: 0; stroke-linejoin: miter; stroke-miterlimit: 4; fill: rgb(243,248,255); fill-rule: nonzero; opacity: 1;" vector-effect="non-scaling-stroke"  transform=" translate(-415.03, -347.82)" d="M 434.107 308.433 C 440.156 308.926 447.571 312.711 453.351 314.674 Q 469.617 320.195 485.821 325.894 C 492.696 328.296 499.72 330.48 506.371 333.455 C 502.413 336.12 497.737 338.079 493.449 340.188 C 483.49 345.088 473.383 349.679 463.421 354.567 L 420.97 375.821 C 412.999 379.769 405.06 383.955 396.772 387.203 C 387.939 384.507 379.232 380.913 370.559 377.717 C 355.01 371.986 339.544 366.416 323.69 361.558 C 332.745 355.346 349.45 349.004 360.016 344.021 L 434.107 308.433 Z" stroke-linecap="round" />
</g>
		<g transform="matrix(1.14 0 0 1.14 436.69 10.81)"  >
<path style="stroke: none; stroke-width: 1; stroke-dasharray: none; stroke-linecap: butt; stroke-dashoffset: 0; stroke-linejoin: miter; stroke-miterlimit: 4; fill: rgb(243,248,255); fill-rule: nonzero; opacity: 1;" vector-effect="non-scaling-stroke"  transform=" translate(-894.85, -521.48)" d="M 916.331 475.988 C 920.215 475.891 986.516 501.411 994.188 504.541 C 987.698 508.403 980.471 511.481 973.727 514.936 Q 951.05 526.665 928.247 538.146 C 920.039 542.284 911.753 546.318 903.65 550.658 C 893.356 556.172 883.326 561.989 872.748 566.964 C 855.628 560.145 838.206 554.012 820.907 547.662 C 812.495 544.574 803.557 541.884 795.521 537.977 C 835.576 516.833 876.028 496.636 916.331 475.988 Z" stroke-linecap="round" />
</g>
		<g transform="matrix(1.14 0 0 1.14 483.35 193.72)"  >
<path style="stroke: none; stroke-width: 1; stroke-dasharray: none; stroke-linecap: butt; stroke-dashoffset: 0; stroke-linejoin: miter; stroke-miterlimit: 4; fill: rgb(243,248,255); fill-rule: nonzero; opacity: 1;" vector-effect="non-scaling-stroke"  transform=" translate(-935.76, -681.84)" d="M 982.198 602.451 L 982.565 602.563 C 983.576 604.549 983.12 702.022 983.208 712.353 C 972.327 719.154 960.1 724.659 948.72 730.673 C 929.052 741.067 909.515 751.837 889.341 761.226 L 889.001 761.2 C 887.623 759.135 888.6 663.723 888.897 651.089 C 919.81 634.567 951.121 618.674 982.198 602.451 Z" stroke-linecap="round" />
</g>
		<g transform="matrix(1.14 0 0 1.14 -193.82 -23.41)"  >
<path style="stroke: none; stroke-width: 1; stroke-dasharray: none; stroke-linecap: butt; stroke-dashoffset: 0; stroke-linejoin: miter; stroke-miterlimit: 4; fill: rgb(243,248,255); fill-rule: nonzero; opacity: 1;" vector-effect="non-scaling-stroke"  transform=" translate(-342.07, -491.48)" d="M 320.782 364.109 C 331.967 367.478 342.918 371.721 353.928 375.617 C 367.754 380.51 381.741 385.198 395.314 390.758 C 393.593 405.564 390.754 420.304 388.386 435.023 C 381.712 476.51 373.972 517.849 367.903 559.43 C 367.01 565.551 360.915 610.964 359.277 613.14 C 355.868 614.836 352.608 616.909 349.33 618.848 C 341.567 616.092 333.916 613.046 326.141 610.317 C 313.713 605.955 301.136 601.878 288.834 597.175 C 289.252 588.826 290.926 580.224 292.006 571.921 Q 295.362 545.714 299.009 519.545 Q 309.335 441.748 320.782 364.109 Z" stroke-linecap="round" />
</g>
		<g transform="matrix(1.14 0 0 1.14 -186.64 -85.76)"  >
<path style="stroke: none; stroke-width: 1; stroke-dasharray: none; stroke-linecap: butt; stroke-dashoffset: 0; stroke-linejoin: miter; stroke-miterlimit: 4; fill: rgb(0,0,0); fill-rule: nonzero; opacity: 1;" vector-effect="non-scaling-stroke"  transform=" translate(-348.37, -436.81)" d="M 342.949 414.585 C 346.707 414.345 349.885 414.812 353.29 416.493 C 359.767 419.691 364.599 425.913 366.652 432.776 C 368.41 438.654 368.481 445.579 365.376 451.032 C 362.901 455.379 359.188 457.65 354.493 458.983 C 350.062 459.352 346.334 458.836 342.411 456.624 C 336.089 453.057 331.625 446.465 329.805 439.516 C 328.327 433.872 328.381 427.231 331.528 422.135 C 334.267 417.7 338.084 415.793 342.949 414.585 Z" stroke-linecap="round" />
</g>
		<g transform="matrix(1.14 0 0 1.14 -187.01 -86)"  >
<path style="stroke: none; stroke-width: 1; stroke-dasharray: none; stroke-linecap: butt; stroke-dashoffset: 0; stroke-linejoin: miter; stroke-miterlimit: 4; fill: rgb(243,248,255); fill-rule: nonzero; opacity: 1;" vector-effect="non-scaling-stroke"  transform=" translate(-348.05, -436.6)" d="M 344.357 417.627 C 347.112 417.799 349.562 418.286 352.023 419.599 C 357.554 422.551 361.598 427.986 363.184 434.013 C 364.49 438.973 364.535 445.013 361.784 449.519 C 359.581 453.127 356.652 454.667 352.648 455.582 L 352.341 455.562 C 349.061 455.378 346.41 454.899 343.533 453.23 C 338.087 450.073 334.385 444.508 332.82 438.481 C 331.617 433.85 331.648 428.476 334.188 424.277 C 336.561 420.353 340.044 418.665 344.357 417.627 Z" stroke-linecap="round" />
</g>
		<g transform="matrix(1.14 0 0 1.14 -197.38 -1.88)"  >
<path style="stroke: none; stroke-width: 1; stroke-dasharray: none; stroke-linecap: butt; stroke-dashoffset: 0; stroke-linejoin: miter; stroke-miterlimit: 4; fill: rgb(0,0,0); fill-rule: nonzero; opacity: 1;" vector-effect="non-scaling-stroke"  transform=" translate(-338.95, -510.35)" d="M 332.079 488.126 C 336.412 487.638 339.969 488.009 343.927 489.971 C 350.557 493.259 355.347 499.485 357.559 506.463 C 359.413 512.312 359.447 519.314 356.47 524.794 C 354.243 528.893 350.849 531.125 346.492 532.454 C 342.709 532.991 339.662 532.956 336.002 531.581 C 329.251 529.046 323.863 523.288 321.159 516.673 C 318.781 510.857 318.14 503.783 320.72 497.939 C 323.009 492.755 326.99 490.087 332.079 488.126 Z" stroke-linecap="round" />
</g>
		<g transform="matrix(1.14 0 0 1.14 -197.36 -1.71)"  >
<path style="stroke: none; stroke-width: 1; stroke-dasharray: none; stroke-linecap: butt; stroke-dashoffset: 0; stroke-linejoin: miter; stroke-miterlimit: 4; fill: rgb(243,248,255); fill-rule: nonzero; opacity: 1;" vector-effect="non-scaling-stroke"  transform=" translate(-338.97, -510.5)" d="M 332.482 491.582 C 335.906 491.166 338.513 491.227 341.707 492.671 C 347.474 495.278 351.822 500.851 353.876 506.741 C 355.593 511.665 355.931 517.699 353.554 522.473 C 351.68 526.235 348.958 528.165 345.069 529.509 C 342.776 529.758 340.61 529.719 338.388 529.016 C 332.741 527.229 328.182 522.851 325.522 517.632 C 322.906 512.5 321.698 506.147 323.671 500.592 C 325.275 496.076 328.244 493.55 332.482 491.582 Z" stroke-linecap="round" />
</g>
		<g transform="matrix(1.14 0 0 1.14 124.47 92.17)"  >
<path style="stroke: none; stroke-width: 1; stroke-dasharray: none; stroke-linecap: butt; stroke-dashoffset: 0; stroke-linejoin: miter; stroke-miterlimit: 4; fill: rgb(243,248,255); fill-rule: nonzero; opacity: 1;" vector-effect="non-scaling-stroke"  transform=" translate(-621.12, -592.81)" d="M 491.727 566.682 C 496.081 563.715 501.09 561.498 505.712 558.967 C 518.571 551.926 531.459 545.154 544.485 538.422 C 557.141 531.881 571.846 522.632 585.118 518.249 C 590.192 516.573 595.398 515.976 600.688 517.043 C 607.631 518.443 614.99 522.095 618.915 528.156 C 622.427 533.579 621.97 538.908 622.451 545.021 L 623.131 544.952 C 629.111 544.307 634.895 541.824 640.911 541.788 Q 642.772 541.779 644.61 542.068 C 649.046 542.763 652.999 545.083 657.319 546.174 C 661.442 547.216 665.782 547.091 669.862 548.437 C 672.472 549.297 674.959 550.565 677.088 552.31 C 682.984 557.143 684.648 564.314 685.901 571.44 C 698.341 567.788 711.012 562.127 723.593 568.683 C 730.661 572.366 734.051 578.628 736.213 585.952 Q 737.114 589.053 737.948 592.173 Q 744.072 590.666 750.16 589.023 C 749.678 615.718 750.779 642.431 750.455 669.103 C 745.864 667.114 740.727 665.312 736.364 662.901 L 732.957 661.788 C 725.371 659.068 717.919 655.762 710.434 652.763 L 677.797 639.878 L 676.85 639.651 C 659.17 632.59 641.017 626.097 623.645 618.345 L 621.458 617.61 C 604.399 610.075 586.605 603.585 569.212 596.836 L 566.414 595.87 C 548.3 589.419 530.404 581.834 512.51 574.777 L 509.503 573.712 C 503.514 571.632 497.619 569.036 491.727 566.682 Z" stroke-linecap="round" />
</g>
		<g transform="matrix(1.14 0 0 1.14 261.71 167.33)"  >
<path style="stroke: none; stroke-width: 1; stroke-dasharray: none; stroke-linecap: butt; stroke-dashoffset: 0; stroke-linejoin: miter; stroke-miterlimit: 4; fill: rgb(243,248,255); fill-rule: nonzero; opacity: 1;" vector-effect="non-scaling-stroke"  transform=" translate(-741.45, -658.7)" d="M 732.957 661.788 C 737.485 658.791 744.464 655.959 749.713 654.508 C 749.941 655.565 750.01 656.291 749.851 657.363 C 747.186 660.539 740.329 662.092 736.364 662.901 L 732.957 661.788 Z" stroke-linecap="round" />
</g>
		<g transform="matrix(1.14 0 0 1.14 161.21 102.6)"  >
<path style="stroke: none; stroke-width: 1; stroke-dasharray: none; stroke-linecap: butt; stroke-dashoffset: 0; stroke-linejoin: miter; stroke-miterlimit: 4; fill: rgb(243,248,255); fill-rule: nonzero; opacity: 1;" vector-effect="non-scaling-stroke"  transform=" translate(-653.33, -601.95)" d="M 621.458 617.61 C 624.933 614.665 682.323 585.476 684.786 585.559 C 684.928 585.563 685.067 585.601 685.207 585.623 C 684.139 587.524 681.135 588.979 679.281 590.048 C 669.234 595.839 658.362 600.616 648.038 605.945 C 641.093 609.53 630.572 616.152 623.645 618.345 L 621.458 617.61 Z" stroke-linecap="round" />
</g>
		<g transform="matrix(1.14 0 0 1.14 226.28 126.31)"  >
<path style="stroke: none; stroke-width: 1; stroke-dasharray: none; stroke-linecap: butt; stroke-dashoffset: 0; stroke-linejoin: miter; stroke-miterlimit: 4; fill: rgb(243,248,255); fill-rule: nonzero; opacity: 1;" vector-effect="non-scaling-stroke"  transform=" translate(-710.38, -622.74)" d="M 676.85 639.651 C 677.232 639.043 677.505 638.558 678.103 638.131 C 681.449 635.743 686.158 634.008 689.827 632.089 Q 708.305 622.416 727.033 613.235 C 730.724 611.395 738.161 606.936 741.599 605.793 C 742.281 605.566 742.529 605.603 743.167 605.599 L 743.916 606.258 C 743.814 606.554 743.806 606.901 743.611 607.146 C 742.796 608.175 698.548 630.511 692.709 633.367 C 687.868 635.735 682.933 638.225 677.797 639.878 L 676.85 639.651 Z" stroke-linecap="round" />
</g>
		<g transform="matrix(1.14 0 0 1.14 100.56 76.95)"  >
<path style="stroke: none; stroke-width: 1; stroke-dasharray: none; stroke-linecap: butt; stroke-dashoffset: 0; stroke-linejoin: miter; stroke-miterlimit: 4; fill: rgb(243,248,255); fill-rule: nonzero; opacity: 1;" vector-effect="non-scaling-stroke"  transform=" translate(-600.17, -579.46)" d="M 566.414 595.87 C 570.567 591.098 623.174 566.568 632.843 562.083 L 633.718 562.232 L 633.917 562.963 C 631.146 566.003 626.079 567.721 622.459 569.557 C 609.367 576.196 596.071 582.389 583.019 589.1 C 578.416 591.466 573.231 593.539 569.212 596.836 L 566.414 595.87 Z" stroke-linecap="round" />
</g>
		<g transform="matrix(1.14 0 0 1.14 38.13 50.15)"  >
<path style="stroke: none; stroke-width: 1; stroke-dasharray: none; stroke-linecap: butt; stroke-dashoffset: 0; stroke-linejoin: miter; stroke-miterlimit: 4; fill: rgb(243,248,255); fill-rule: nonzero; opacity: 1;" vector-effect="non-scaling-stroke"  transform=" translate(-545.43, -555.97)" d="M 509.503 573.712 C 514.769 569.177 535.524 560.378 542.864 556.63 C 555.118 550.373 567.141 543.379 579.558 537.455 C 580.392 537.057 580.11 537.182 581.16 537.164 L 581.361 537.955 C 580.197 539.493 578.477 540.474 576.829 541.429 C 566.973 547.145 556.394 551.993 546.22 557.141 C 534.908 562.866 523.768 568.94 512.51 574.777 L 509.503 573.712 Z" stroke-linecap="round" />
</g>
		<g transform="matrix(1.14 0 0 1.14 347.5 187.23)"  >
<path style="stroke: none; stroke-width: 1; stroke-dasharray: none; stroke-linecap: butt; stroke-dashoffset: 0; stroke-linejoin: miter; stroke-miterlimit: 4; fill: rgb(243,248,255); fill-rule: nonzero; opacity: 1;" vector-effect="non-scaling-stroke"  transform=" translate(-816.65, -676.15)" d="M 792.711 540.762 L 870.711 569.42 C 866.498 603.387 860.855 637.188 855.776 671.035 L 836.454 808.475 C 836.483 809.487 836.218 810.276 835.922 811.236 L 835.222 811.537 C 827.254 809.12 819.371 804.932 811.659 801.724 Q 787.038 791.763 762.598 781.365 C 766.133 759.084 768.476 736.608 771.304 714.232 Q 778.099 662.603 784.24 610.892 C 787.066 587.509 789.557 564.105 792.711 540.762 Z" stroke-linecap="round" />
</g>
		<g transform="matrix(1.14 0 0 1.14 355.63 117.78)"  >
<path style="stroke: none; stroke-width: 1; stroke-dasharray: none; stroke-linecap: butt; stroke-dashoffset: 0; stroke-linejoin: miter; stroke-miterlimit: 4; fill: rgb(0,0,0); fill-rule: nonzero; opacity: 1;" vector-effect="non-scaling-stroke"  transform=" translate(-823.78, -615.26)" d="M 819.38 593.124 C 823.338 592.936 827.144 594.083 830.471 596.207 C 836.522 600.071 840.633 606.791 842.184 613.728 C 843.458 619.427 842.979 625.491 839.623 630.417 C 836.749 634.636 832.897 636.437 828.029 637.396 C 824.16 637.531 820.759 636.695 817.437 634.667 C 811.285 630.913 807.052 624.235 805.438 617.279 C 804.099 611.507 804.546 605.118 807.887 600.079 C 810.68 595.865 814.536 593.997 819.38 593.124 Z" stroke-linecap="round" />
</g>
		<g transform="matrix(1.14 0 0 1.14 355.54 117.7)"  >
<path style="stroke: none; stroke-width: 1; stroke-dasharray: none; stroke-linecap: butt; stroke-dashoffset: 0; stroke-linejoin: miter; stroke-miterlimit: 4; fill: rgb(243,248,255); fill-rule: nonzero; opacity: 1;" vector-effect="non-scaling-stroke"  transform=" translate(-823.71, -615.19)" d="M 819.291 596.548 C 822.159 596.416 824.625 596.802 827.197 598.158 C 832.878 601.152 836.821 607.153 838.525 613.241 C 839.838 617.936 839.848 623.193 837.34 627.51 C 835.247 631.113 832.336 632.746 828.431 633.822 C 825.567 633.939 823.052 633.709 820.447 632.416 C 815.127 629.775 811.096 624.596 809.224 619.02 C 807.588 614.149 807.453 608.321 809.879 603.679 C 811.955 599.705 815.095 597.743 819.291 596.548 Z" stroke-linecap="round" />
</g>
		<g transform="matrix(1.14 0 0 1.14 344.66 203.78)"  >
<path style="stroke: none; stroke-width: 1; stroke-dasharray: none; stroke-linecap: butt; stroke-dashoffset: 0; stroke-linejoin: miter; stroke-miterlimit: 4; fill: rgb(0,0,0); fill-rule: nonzero; opacity: 1;" vector-effect="non-scaling-stroke"  transform=" translate(-814.17, -690.66)" d="M 810.377 667.628 C 814.84 667.763 818.818 669.047 822.456 671.659 C 828.47 675.979 832.563 683.196 833.739 690.467 C 834.66 696.163 833.924 702.531 830.371 707.249 C 827.37 711.235 823.277 713.006 818.465 713.687 C 814.354 713.516 810.967 712.793 807.384 710.609 C 801.041 706.744 796.439 699.965 794.851 692.744 C 793.589 687.004 794.205 680.565 797.471 675.569 C 800.567 670.834 805.009 668.673 810.377 667.628 Z" stroke-linecap="round" />
</g>
		<g transform="matrix(1.14 0 0 1.14 344.52 203.72)"  >
<path style="stroke: none; stroke-width: 1; stroke-dasharray: none; stroke-linecap: butt; stroke-dashoffset: 0; stroke-linejoin: miter; stroke-miterlimit: 4; fill: rgb(243,248,255); fill-rule: nonzero; opacity: 1;" vector-effect="non-scaling-stroke"  transform=" translate(-814.05, -690.61)" d="M 809.604 671.134 C 812.408 670.944 814.881 671.313 817.431 672.533 C 823.249 675.315 827.424 680.968 829.365 687.015 C 830.986 692.066 831.407 698.058 828.797 702.865 C 826.54 707.024 823.315 708.849 818.91 710.127 C 816.248 710.043 813.886 709.763 811.408 708.728 C 805.56 706.284 801.079 701.261 798.905 695.351 C 797.074 690.374 796.744 684.563 799.095 679.694 C 801.263 675.207 805.011 672.698 809.604 671.134 Z" stroke-linecap="round" />
</g>
		<g transform="matrix(1.14 0 0 1.14 101.53 53.04)"  >
<path style="stroke: none; stroke-width: 1; stroke-dasharray: none; stroke-linecap: butt; stroke-dashoffset: 0; stroke-linejoin: miter; stroke-miterlimit: 4; fill: rgb(243,248,255); fill-rule: nonzero; opacity: 1;" vector-effect="non-scaling-stroke"  transform=" translate(-601.01, -558.5)" d="M 412.776 401.292 C 438.207 409.709 463.261 419.641 488.389 428.939 L 620.563 477.691 L 729.832 517.838 C 749.661 525.113 770.097 531.66 789.493 540.019 C 781.682 596.378 776.983 653.208 768.693 709.489 C 764.036 709.959 757.829 713 754.066 715.709 C 752.339 665.711 753.46 615.413 753.309 565.378 C 733.199 556.629 711.953 550.111 691.438 542.344 L 527.973 481.558 L 472.765 460.918 C 466.114 458.435 453.033 451.949 446.6 451.588 L 446.068 452.09 C 444.923 458.157 445.746 473.422 445.722 480.368 Q 445.625 518.836 445.942 557.304 C 442.244 559.335 438.647 561.418 435.121 563.737 C 434.924 566.259 434.946 568.773 434.945 571.301 L 440.454 573.623 C 440.725 580.151 440.572 586.691 440.508 593.222 L 412.533 582.659 L 412.569 459.772 L 412.654 421.981 C 412.661 415.129 412.372 408.128 412.776 401.292 Z" stroke-linecap="round" />
</g>
		<g transform="matrix(1.14 0 0 1.14 174.86 -86.18)"  >
<path style="stroke: none; stroke-width: 1; stroke-dasharray: none; stroke-linecap: butt; stroke-dashoffset: 0; stroke-linejoin: miter; stroke-miterlimit: 4; fill: rgb(243,248,255); fill-rule: nonzero; opacity: 1;" vector-effect="non-scaling-stroke"  transform=" translate(-665.3, -436.44)" d="M 551.011 335.944 C 555.067 335.615 627.553 364.761 637.373 368.545 L 794.121 428.993 L 911.744 473.659 C 902.161 479.842 891.027 484.566 880.843 489.731 Q 852.224 504.213 823.807 519.09 C 812.734 524.858 801.222 530.29 790.659 536.941 L 783.166 533.981 C 761.694 525.527 739.839 518.068 718.184 510.108 L 583.339 460.493 L 478.232 421.874 C 458.504 414.567 438.825 406.504 418.855 399.919 Q 459.634 379.768 500.648 360.1 C 517.402 352.025 534.079 343.63 551.011 335.944 Z" stroke-linecap="round" />
</g>
</g>
</g>
<g transform="matrix(5.1 0 0 5.1 791.6 747.34)" id="3e77fc5b-0461-45ea-b3a2-e72f48bd501c"  >
<path style="stroke: rgb(0,0,0); stroke-width: 0; stroke-dasharray: none; stroke-linecap: butt; stroke-dashoffset: 0; stroke-linejoin: miter; stroke-miterlimit: 4; fill: rgb(255,0,0); fill-rule: nonzero; opacity: 1;" vector-effect="non-scaling-stroke"  transform=" translate(-50, -50)" d="M 16.28 19.945 L 19.957 16.32 C 22.060000000000002 14.166 25.578000000000003 14.166 27.681 16.32 L 50.007000000000005 38.595 L 72.333 16.32 C 74.43599999999999 14.166 77.954 14.166 80.054 16.32 L 83.68 19.945 C 85.834 22.046 85.834 25.566000000000003 83.68 27.668 L 61.405 49.993 L 83.68 72.32 C 85.834 74.422 85.834 77.939 83.68 80.04299999999999 L 80.054 83.72099999999999 C 77.95400000000001 85.82 74.436 85.82 72.333 83.72099999999999 L 50.007 61.393 L 27.681 83.721 C 25.578 85.82000000000001 22.060000000000002 85.82000000000001 19.957 83.721 L 16.28 80.043 C 14.180000000000001 77.93900000000001 14.180000000000001 74.42200000000001 16.28 72.32000000000001 L 38.606 49.99300000000001 L 16.28 27.667 C 14.18 25.566 14.18 22.046 16.28 19.945 z" stroke-linecap="round" />
</g>
</svg>