<?xml version="1.0" encoding="utf-8" ?>
<svg xmlns="http://www.w3.org/2000/svg" xmlns:xlink="http://www.w3.org/1999/xlink" width="1168" height="1168">
	<path fill="#F3F8FF" transform="matrix(1.14062 0 0 1.14062 1.52588e-05 0)" d="M0 0L1024 0L1024 1024L0 1024L0 0Z"/>
	<path fill="#FF6C00" transform="matrix(1.14062 0 0 1.14062 1.52588e-05 0)" d="M845.27 278.411C845.074 276.159 844.802 273.994 846.28 272.084C848.995 268.579 854.589 267.618 858.759 267.269C864.908 266.754 874.568 267.15 879.372 271.436C880.43 272.38 881.095 273.481 881.148 274.929C881.19 276.086 880.955 277.579 880.616 278.689C868.881 283.683 857.054 282.594 845.27 278.411Z"/>
	<path fill="#FF6C00" transform="matrix(1.14062 0 0 1.14062 1.52588e-05 0)" d="M608.032 191.601C607.574 190.042 606.917 188.227 607.665 186.656C609.048 183.756 613.36 182.37 616.221 181.731C623.494 180.109 634.267 180.379 640.682 184.478C642.066 185.362 643.437 186.528 643.769 188.221C643.986 189.331 643.695 190.95 643.441 192.037C641.678 192.488 639.923 193.604 638.137 194.165C628.01 197.346 617.432 196.528 608.032 191.601Z"/>
	<path fill="#FF6C00" transform="matrix(1.14062 0 0 1.14062 1.52588e-05 0)" d="M725.984 232.545C725.679 231.152 725.272 229.361 725.549 227.939C725.88 226.24 727.014 225.051 728.386 224.095C733.757 220.352 743.484 220.318 749.729 221.448C753.618 222.152 758.871 223.704 761.115 227.252C762.215 228.991 762.089 230.444 761.679 232.376Q760.792 232.827 759.884 233.234Q758.975 233.641 758.048 234.003Q757.121 234.365 756.177 234.68Q755.233 234.996 754.275 235.264Q753.316 235.533 752.346 235.753Q751.375 235.974 750.395 236.147Q749.415 236.319 748.427 236.443Q747.44 236.567 746.447 236.643Q745.455 236.718 744.46 236.744Q743.465 236.77 742.47 236.746Q741.475 236.723 740.482 236.651Q739.49 236.579 738.502 236.457Q737.514 236.336 736.533 236.166Q735.552 235.996 734.581 235.778Q733.61 235.56 732.651 235.295Q731.692 235.029 730.747 234.716C729.107 234.164 727.482 233.41 725.984 232.545Z"/>
	<path transform="matrix(1.14062 0 0 1.14062 1.52588e-05 0)" d="M221.665 753.525C223.126 753.461 224.403 753.925 225.752 754.434C248.442 762.994 271.354 773.653 293.859 783.054L425.756 837.763L459.832 851.67C465.426 853.933 475.182 856.801 479.758 860.388L479.76 862.114C474.464 861.444 456.712 853.049 450.164 850.356Q402.842 830.969 355.727 811.081L250.796 767.54C244.284 764.774 227.473 759.022 222.542 755.376C221.583 754.666 221.821 754.619 221.665 753.525Z"/>
	<path fill="#FF6C00" transform="matrix(1.14062 0 0 1.14062 1.52588e-05 0)" d="M608.032 191.601C617.432 196.528 628.01 197.346 638.137 194.165C639.923 193.604 641.678 192.488 643.441 192.037Q643.554 218.052 643.356 244.066Q642.92 274.419 642.943 304.776C642.941 309.846 642.015 321.875 643.386 326.074C641.187 327.878 640.768 328.818 640.51 331.604C639.476 342.777 640.39 354.73 640.153 366.003C629.592 361.484 618.742 357.475 607.99 353.432C608.564 320.801 608.184 288.201 608.171 255.57C608.163 234.288 608.899 212.86 608.032 191.601Z"/>
	<path fill="#FF6C00" transform="matrix(1.14062 0 0 1.14062 1.52588e-05 0)" d="M761.679 232.376C760.678 244.874 761.254 257.828 761.184 270.382L760.654 339.438C760.548 348.334 761.41 362.779 760.2 371.096C758.803 371.465 757.933 371.433 757.01 372.577C756.002 377.417 756.262 382.777 756.123 387.721L755.516 410.385C745.563 406.681 735.104 402.953 725.512 398.438C726.629 343.206 726.113 287.791 725.984 232.545C727.482 233.41 729.107 234.164 730.747 234.716Q731.692 235.029 732.651 235.295Q733.61 235.56 734.581 235.778Q735.552 235.996 736.533 236.166Q737.514 236.336 738.502 236.457Q739.49 236.579 740.482 236.651Q741.475 236.723 742.47 236.746Q743.465 236.77 744.46 236.744Q745.455 236.718 746.447 236.643Q747.44 236.567 748.427 236.443Q749.415 236.319 750.395 236.147Q751.375 235.974 752.346 235.753Q753.316 235.533 754.275 235.264Q755.233 234.996 756.177 234.68Q757.121 234.365 758.048 234.003Q758.975 233.641 759.884 233.234Q760.792 232.827 761.679 232.376Z"/>
	<path fill="#FF6C00" transform="matrix(1.14062 0 0 1.14062 1.52588e-05 0)" d="M845.27 278.411C857.054 282.594 868.881 283.683 880.616 278.689C880.177 291.455 880.498 304.312 880.504 317.09Q880.596 352.381 880.292 387.67C880.19 398.277 880.849 409.247 880.102 419.801C878.467 420.931 877.824 421.356 877.425 423.42C875.82 431.716 875.943 447.024 875.818 455.917C865.426 452.6 855.182 448.382 845.025 444.407Q845.584 390.772 845.437 337.134C845.447 317.574 845.764 297.962 845.27 278.411Z"/>
	<path fill="#FF6C00" transform="matrix(1.14062 0 0 1.14062 1.52588e-05 0)" d="M713.549 707.552L717.796 709.09C717.836 715.473 718.069 721.912 717.466 728.274L556.599 813.846C537.282 824.077 518.118 834.696 498.599 844.531C492.657 847.525 486.667 851.133 480.548 853.662C460.688 844.502 440.013 837.168 420.042 828.194C423.133 826.448 441.304 818.353 443.761 817.896L446.379 818.96C457.039 824.184 468.936 828.204 480.184 832.005C499.357 823.647 517.565 812.772 536.014 802.959L658.547 737.163L690.145 720.117C697.9 715.867 705.561 711.353 713.549 707.552Z"/>
	<path fill="#FF6C00" transform="matrix(1.14062 0 0 1.14062 1.52588e-05 0)" d="M675.555 693.784C682.26 696.362 688.959 699.03 695.749 701.375C701.684 703.426 707.742 705.143 713.549 707.552C705.561 711.353 697.9 715.867 690.145 720.117L658.547 737.163L536.014 802.959C517.565 812.772 499.357 823.647 480.184 832.005C468.936 828.204 457.039 824.184 446.379 818.96C466.17 806.968 487.326 796.65 507.658 785.577L616.275 726.379L651.116 707.722C657.789 704.168 670.527 698.889 675.555 693.784Z"/>
	<path fill="#FF6C00" transform="matrix(1.14062 0 0 1.14062 1.52588e-05 0)" d="M315.156 764.695C334.688 754.855 353.756 744.269 373.005 733.895Q427.56 704.564 481.618 674.325L522.971 651.818C529.094 648.539 536.534 645.519 542.105 641.445C556.642 646.741 570.972 652.467 585.341 658.198C592.525 661.064 599.901 663.687 606.959 666.839L455.69 747.726L404.85 775.64C396.187 780.397 387.56 785.39 378.707 789.781C376.187 789.679 356.296 798.996 352.999 800.742L350.554 799.919C333.642 792.105 315.986 786.18 299.049 778.525C298.314 777.468 298.553 776.799 298.573 775.553C298.831 773.658 298.857 771.71 298.962 769.799C302.066 768.132 309.651 763.003 312.909 763.796L315.156 764.695Z"/>
	<path fill="#FF6C00" transform="matrix(1.14062 0 0 1.14062 1.52588e-05 0)" d="M350.636 779.988C362.494 774.13 374.038 767.403 385.624 761.018L464.506 717.114L515.025 689.325C521.007 686.014 528.302 683.214 533.716 679.171L534.479 679.451C533.044 681.917 370.322 769.637 350.816 781.31C350.881 785.107 351.758 796.986 350.554 799.919C333.642 792.105 315.986 786.18 299.049 778.525C298.314 777.468 298.553 776.799 298.573 775.553C298.831 773.658 298.857 771.71 298.962 769.799C302.066 768.132 309.651 763.003 312.909 763.796L315.156 764.695Q332.974 772.16 350.636 779.988Z"/>
	<path fill="#FF6C00" transform="matrix(1.14062 0 0 1.14062 1.52588e-05 0)" d="M609.749 667.815C631.666 676.389 654.318 683.563 675.555 693.784C670.527 698.889 657.789 704.168 651.116 707.722L616.275 726.379L507.658 785.577C487.326 796.65 466.17 806.968 446.379 818.96L443.761 817.896C441.304 818.353 423.133 826.448 420.042 828.194C418.703 827.903 417.347 827.348 416.043 826.909C408.536 823.224 400.44 820.223 392.696 817.052L352.999 800.742C356.296 798.996 376.187 789.679 378.707 789.781L379.859 791.458C384.629 789.766 389.32 786.986 393.79 784.598C405.517 778.333 416.832 771.285 428.586 765.087C473.568 741.37 517.87 716.38 562.801 692.557C578.401 684.286 593.797 675.372 609.749 667.815Z"/>
	<path fill="#F3F8FF" transform="matrix(1.14062 0 0 1.14062 1.52588e-05 0)" d="M443.761 817.896C448.65 813.8 456.021 810.745 461.644 807.676L507.026 783.163L621.08 721.385C637.151 712.748 652.91 703.178 669.302 695.198C671.368 694.192 673.281 693.977 675.555 693.784C670.527 698.889 657.789 704.168 651.116 707.722L616.275 726.379L507.658 785.577C487.326 796.65 466.17 806.968 446.379 818.96L443.761 817.896Z"/>
	<path fill="#FF6C00" transform="matrix(1.14062 0 0 1.14062 1.52588e-05 0)" d="M416.43 807.069C424.602 802.988 469.399 777.169 472.803 776.87L472.975 777.2C470.631 778.954 468.205 779.894 465.661 781.273C463.306 782.549 461.17 784.21 458.82 785.499C457.111 786.435 455.234 787.055 453.5 787.95C440.895 794.454 427.549 801.285 415.736 809.117Q415.743 818.016 416.043 826.909C408.536 823.224 400.44 820.223 392.696 817.052L352.999 800.742C356.296 798.996 376.187 789.679 378.707 789.781L379.859 791.458C392.043 795.667 404.32 802.182 416.43 807.069Z"/>
	<path fill="#FF6C00" transform="matrix(1.14062 0 0 1.14062 1.52588e-05 0)" d="M464.648 610.865L511.505 629.574C520.631 633.131 529.945 636.318 538.843 640.436Q499.357 661.532 460.417 683.622L393.418 720.263L330.749 754.047C326.898 756.131 315.447 761.236 312.909 763.796C309.651 763.003 302.066 768.132 298.962 769.799C298.857 771.71 298.831 773.658 298.573 775.553C298.578 774.265 298.713 772.826 298.322 771.589C298.117 770.937 297.767 770.935 297.208 770.633C294.851 770.542 290.687 773.092 288.242 774.005C283.121 772.437 277.941 769.926 272.951 767.92Q253.969 760.464 235.456 751.908C235.445 746.764 234.631 739.442 236.12 734.562C236.368 733.749 236.675 733.845 237.388 733.523C263.275 721.222 288.351 706.679 313.481 692.906C326.651 685.688 340.144 679.046 353.44 672.065C364.336 666.345 375.145 660.189 385.929 654.248C412.125 639.815 437.997 624.435 464.648 610.865Z"/>
	<path fill="#FF6C00" transform="matrix(1.14062 0 0 1.14062 1.52588e-05 0)" d="M287.819 753.227C288.127 753.112 288.436 753.001 288.743 752.883C296.192 750.008 303.203 744.562 310.267 740.735L441.437 668.892L482.742 646.234C485.446 644.784 487.975 642.947 490.689 641.575C492.122 640.851 494.721 639.348 496.255 639.72C491.238 643.957 483.756 646.92 477.902 650.041Q465.041 656.941 452.307 664.073L340.911 725.427Q323.172 735.022 305.549 744.825C299.826 748.007 293.907 751.018 288.409 754.568C288.179 761.052 288.195 767.519 288.242 774.005C283.121 772.437 277.941 769.926 272.951 767.92Q253.969 760.464 235.456 751.908C235.445 746.764 234.631 739.442 236.12 734.562C236.368 733.749 236.675 733.845 237.388 733.523C254.5 739.01 270.801 747.391 287.819 753.227Z"/>
	<path fill="#FF6C00" transform="matrix(1.14062 0 0 1.14062 1.52588e-05 0)" d="M330.312 980.297C315.265 974.362 300.47 967.876 285.539 961.666L162.988 910.634L83.8532 877.798C72.3926 873.016 57.5206 867.965 46.793 862.371C42.2172 859.984 38.8815 856.212 35.9926 852.029C26.2491 837.918 24.9084 819.611 27.9901 803.146C32.1918 780.697 46.1319 759.731 65.0622 746.963C76.6659 739.137 92.603 733.246 106.738 733.58C111.963 733.703 117.015 734.761 122.123 735.769C123.988 738.667 161.04 752.535 167.417 756.218C174.72 759.749 182.247 762.826 189.652 766.136Q218.29 779.221 247.402 791.214L327.168 824.956Q348.179 833.819 369.072 842.954C377.517 846.641 385.968 850.648 394.659 853.715C389.22 854.411 383.688 854.668 378.378 856.121C360.308 861.064 343.471 874.723 332.196 889.318C318.722 906.759 311.858 928.912 314.82 950.953C315.91 959.065 318.793 966.705 323.949 973.114C325.394 974.909 329.835 978.414 330.312 980.297Z"/>
	<path transform="matrix(1.14062 0 0 1.14062 1.52588e-05 0)" d="M434.929 304.55C445.298 307.589 455.572 311.853 465.804 315.422C475.736 318.885 502.972 327.105 510.307 331.844C512.479 334.717 511.055 347.144 511.232 351.129Q531.288 341.868 551.052 331.997C569.955 337.909 589.383 346.315 607.99 353.432C618.742 357.475 629.592 361.484 640.153 366.003C640.39 354.73 639.476 342.777 640.51 331.604C640.768 328.818 641.187 327.878 643.386 326.074C645.097 336.022 643.654 356.512 643.539 367.396C670.606 378.328 698.156 388.246 725.512 398.438C735.104 402.953 745.563 406.681 755.516 410.385L756.123 387.721C756.262 382.777 756.002 377.417 757.01 372.577C757.933 371.433 758.803 371.465 760.2 371.096C759.769 383.883 760.192 399.053 758.551 411.535Q786.826 421.88 814.862 432.857C824.9 436.68 835.112 440.285 845.025 444.407C855.182 448.382 865.426 452.6 875.818 455.917C875.943 447.024 875.82 431.716 877.425 423.42C877.824 421.356 878.467 420.931 880.102 419.801C880.538 432.355 880.041 444.947 880.096 457.506Q921.063 473.383 962.267 488.632C974.824 493.284 987.296 498.354 1000.04 502.454Q999.46 615.825 1000.26 729.198C961.587 749.114 923.605 770.313 885.259 790.857L855.061 807.072C849.452 810.094 843.546 813.777 837.593 816.039C827.152 812.368 816.934 807.545 806.705 803.277L758.775 783.434C759.537 777.933 760.48 772.447 761.184 766.941C749.711 772.082 738.881 778.215 727.808 784.134L686.229 806.05Q616.107 842.965 546.372 880.606Q517.612 896.425 488.613 911.8C480.761 915.98 472.899 920.973 464.845 924.63C453.115 920.477 441.633 915.193 430.049 910.586Q420.849 906.835 411.959 902.398C419.34 898.54 427.041 895.295 434.408 891.389C446.323 885.686 457.919 879.243 469.639 873.144Q499.159 858.09 528.297 842.309L661.345 770.825L730.194 734.185Q744.571 726.767 758.674 718.841C761.276 717.376 764.744 715.937 767.022 714.091C768.556 712.847 768.383 711.335 768.693 709.489C764.036 709.959 757.829 713 754.066 715.709C753.618 716.256 753.417 716.818 752.663 716.916C748.945 717.394 729.384 708.429 724.825 706.735Q587.676 655.494 451.777 601.023C443.366 606.65 434.035 611.188 425.135 616.009L376.304 642.291L230.088 721.825L186.086 745.591C179.928 748.996 173.142 752.157 167.417 756.218C161.04 752.535 123.988 738.667 122.123 735.769C141.237 724.33 161.458 714.335 181.11 703.828Q231.45 676.488 282.117 649.765L320.756 629.014C327.056 625.627 334.053 622.657 339.867 618.54C334.997 616.615 329.855 615.185 324.889 613.513C311.396 608.969 297.485 604.422 284.415 598.796C287.983 577.843 290.101 556.662 292.923 535.602L309.213 418.155C311.955 398.957 314.15 379.422 317.943 360.406C322.627 357.464 327.911 355.214 332.889 352.805L365.164 337.464L410.849 315.484C418.697 311.757 426.728 307.384 434.929 304.55Z"/>
	<path fill="#F3F8FF" transform="matrix(1.14062 0 0 1.14062 1.52588e-05 0)" d="M749.338 678.484L750.04 678.579C751.413 681.007 750.572 708.116 750.571 713.097Q741.269 709.456 731.906 705.977L722.336 702.499Q726.564 694.73 730.937 687.041Q740.023 682.515 749.338 678.484Z"/>
	<path fill="#F3F8FF" transform="matrix(1.14062 0 0 1.14062 1.52588e-05 0)" d="M538.033 489.039C542.451 489.012 558.896 495.895 563.745 498.015C553.691 502.617 543.897 508.11 534.042 513.146L467.253 547.529C464.106 549.127 458.483 553.072 454.967 553.013C452.597 552.974 451.44 553.586 449.376 554.763Q449.256 544.573 449.358 534.384C478.67 518.807 508.599 504.383 538.033 489.039Z"/>
	<path fill="#FF6C00" transform="matrix(1.14062 0 0 1.14062 1.52588e-05 0)" d="M449.343 455.592C477.802 465.548 506.138 476.302 534.304 487.061C525.211 492.261 515.52 496.736 506.172 501.477C487.074 510.855 468.37 520.969 449.199 530.212C448.167 505.482 449.247 480.354 449.343 455.592Z"/>
	<path fill="#F3F8FF" transform="matrix(1.14062 0 0 1.14062 1.52588e-05 0)" d="M568.093 499.477L691.601 545.734C711.121 553.128 730.898 559.814 750.118 567.981C750.142 574.985 750.318 582.023 750.16 589.023Q744.072 590.666 737.948 592.173Q737.114 589.053 736.213 585.952C734.051 578.628 730.661 572.366 723.593 568.683C711.012 562.127 698.341 567.788 685.901 571.44C684.648 564.314 682.984 557.143 677.088 552.31C674.959 550.565 672.472 549.297 669.862 548.437C665.782 547.091 661.442 547.216 657.319 546.174C652.999 545.083 649.046 542.763 644.61 542.068Q642.772 541.779 640.911 541.788C634.895 541.824 629.111 544.307 623.131 544.952L622.451 545.021C621.97 538.908 622.427 533.579 618.915 528.156C614.99 522.095 607.631 518.443 600.688 517.043C595.398 515.976 590.192 516.573 585.118 518.249C571.846 522.632 557.141 531.881 544.485 538.422C531.459 545.154 518.571 551.926 505.712 558.967C501.09 561.498 496.081 563.715 491.727 566.682C481.458 562.682 471.209 558.375 460.782 554.826Q514.276 526.839 568.093 499.477Z"/>
	<path fill="#FF6C00" transform="matrix(1.14062 0 0 1.14062 1.52588e-05 0)" d="M440.454 573.623C453.97 578.322 467.217 584.119 480.521 589.4L556.514 619.175L659.95 659.383C682.402 668.115 705.34 676.378 727.355 686.16L718.946 701.472C689.446 691.137 660.42 679.006 631.336 667.556L516.348 622.853L466.239 603.177C457.782 599.839 449.212 595.781 440.508 593.222C440.572 586.691 440.725 580.151 440.454 573.623Z"/>
	<path fill="#FF6C00" transform="matrix(1.14062 0 0 1.14062 1.52588e-05 0)" d="M453.885 556.949C456.844 556.751 460.209 558.16 462.962 559.154C473.295 562.887 483.416 567.383 493.652 571.388L551.997 594.083L701.007 652.72C717.439 659.275 734.549 667.904 751.258 673.113C745.538 676.391 739.744 679.43 733.664 681.989L731.203 683.1C724.938 682.217 718.036 678.439 712.108 676.023Q698.473 670.45 684.75 665.095L514.098 598.424C505.564 595.027 440.262 570.426 438.192 568.131C437.661 567.542 437.863 567.196 437.896 566.469C440.561 562.593 449.585 558.855 453.885 556.949Z"/>
	<path fill="#F3F8FF" transform="matrix(1.14062 0 0 1.14062 1.52588e-05 0)" d="M434.107 308.433C440.156 308.926 447.571 312.711 453.351 314.674Q469.617 320.195 485.821 325.894C492.696 328.296 499.72 330.48 506.371 333.455C502.413 336.12 497.737 338.079 493.449 340.188C483.49 345.088 473.383 349.679 463.421 354.567L420.97 375.821C412.999 379.769 405.06 383.955 396.772 387.203C387.939 384.507 379.232 380.913 370.559 377.717C355.01 371.986 339.544 366.416 323.69 361.558C332.745 355.346 349.45 349.004 360.016 344.021L434.107 308.433Z"/>
	<path fill="#F3F8FF" transform="matrix(1.14062 0 0 1.14062 1.52588e-05 0)" d="M916.331 475.988C920.215 475.891 986.516 501.411 994.188 504.541C987.698 508.403 980.471 511.481 973.727 514.936Q951.05 526.665 928.247 538.146C920.039 542.284 911.753 546.318 903.65 550.658C893.356 556.172 883.326 561.989 872.748 566.964C855.628 560.145 838.206 554.012 820.907 547.662C812.495 544.574 803.557 541.884 795.521 537.977C835.576 516.833 876.028 496.636 916.331 475.988Z"/>
	<path fill="#FF6C00" transform="matrix(1.14062 0 0 1.14062 1.52588e-05 0)" d="M982.198 602.451L982.565 602.563C983.576 604.549 983.12 702.022 983.208 712.353C972.327 719.154 960.1 724.659 948.72 730.673C929.052 741.067 909.515 751.837 889.341 761.226L889.001 761.2C887.623 759.135 888.6 663.723 888.897 651.089C919.81 634.567 951.121 618.674 982.198 602.451Z"/>
	<path fill="#FF6C00" transform="matrix(1.14062 0 0 1.14062 1.52588e-05 0)" d="M320.782 364.109C331.967 367.478 342.918 371.721 353.928 375.617C367.754 380.51 381.741 385.198 395.314 390.758C393.593 405.564 390.754 420.304 388.386 435.023C381.712 476.51 373.972 517.849 367.903 559.43C367.01 565.551 360.915 610.964 359.277 613.14C355.868 614.836 352.608 616.909 349.33 618.848C341.567 616.092 333.916 613.046 326.141 610.317C313.713 605.955 301.136 601.878 288.834 597.175C289.252 588.826 290.926 580.224 292.006 571.921Q295.362 545.714 299.009 519.545Q309.335 441.748 320.782 364.109Z"/>
	<path transform="matrix(1.14062 0 0 1.14062 1.52588e-05 0)" d="M342.949 414.585C346.707 414.345 349.885 414.812 353.29 416.493C359.767 419.691 364.599 425.913 366.652 432.776C368.41 438.654 368.481 445.579 365.376 451.032C362.901 455.379 359.188 457.65 354.493 458.983C350.062 459.352 346.334 458.836 342.411 456.624C336.089 453.057 331.625 446.465 329.805 439.516C328.327 433.872 328.381 427.231 331.528 422.135C334.267 417.7 338.084 415.793 342.949 414.585Z"/>
	<path fill="#FF6C00" transform="matrix(1.14062 0 0 1.14062 1.52588e-05 0)" d="M344.357 417.627C347.112 417.799 349.562 418.286 352.023 419.599C357.554 422.551 361.598 427.986 363.184 434.013C364.49 438.973 364.535 445.013 361.784 449.519C359.581 453.127 356.652 454.667 352.648 455.582L352.341 455.562C349.061 455.378 346.41 454.899 343.533 453.23C338.087 450.073 334.385 444.508 332.82 438.481C331.617 433.85 331.648 428.476 334.188 424.277C336.561 420.353 340.044 418.665 344.357 417.627Z"/>
	<path transform="matrix(1.14062 0 0 1.14062 1.52588e-05 0)" d="M332.079 488.126C336.412 487.638 339.969 488.009 343.927 489.971C350.557 493.259 355.347 499.485 357.559 506.463C359.413 512.312 359.447 519.314 356.47 524.794C354.243 528.893 350.849 531.125 346.492 532.454C342.709 532.991 339.662 532.956 336.002 531.581C329.251 529.046 323.863 523.288 321.159 516.673C318.781 510.857 318.14 503.783 320.72 497.939C323.009 492.755 326.99 490.087 332.079 488.126Z"/>
	<path fill="#FF6C00" transform="matrix(1.14062 0 0 1.14062 1.52588e-05 0)" d="M332.482 491.582C335.906 491.166 338.513 491.227 341.707 492.671C347.474 495.278 351.822 500.851 353.876 506.741C355.593 511.665 355.931 517.699 353.554 522.473C351.68 526.235 348.958 528.165 345.069 529.509C342.776 529.758 340.61 529.719 338.388 529.016C332.741 527.229 328.182 522.851 325.522 517.632C322.906 512.5 321.698 506.147 323.671 500.592C325.275 496.076 328.244 493.55 332.482 491.582Z"/>
	<path fill="#FF6C00" transform="matrix(1.14062 0 0 1.14062 1.52588e-05 0)" d="M491.727 566.682C496.081 563.715 501.09 561.498 505.712 558.967C518.571 551.926 531.459 545.154 544.485 538.422C557.141 531.881 571.846 522.632 585.118 518.249C590.192 516.573 595.398 515.976 600.688 517.043C607.631 518.443 614.99 522.095 618.915 528.156C622.427 533.579 621.97 538.908 622.451 545.021L623.131 544.952C629.111 544.307 634.895 541.824 640.911 541.788Q642.772 541.779 644.61 542.068C649.046 542.763 652.999 545.083 657.319 546.174C661.442 547.216 665.782 547.091 669.862 548.437C672.472 549.297 674.959 550.565 677.088 552.31C682.984 557.143 684.648 564.314 685.901 571.44C698.341 567.788 711.012 562.127 723.593 568.683C730.661 572.366 734.051 578.628 736.213 585.952Q737.114 589.053 737.948 592.173Q744.072 590.666 750.16 589.023C749.678 615.718 750.779 642.431 750.455 669.103C745.864 667.114 740.727 665.312 736.364 662.901L732.957 661.788C725.371 659.068 717.919 655.762 710.434 652.763L677.797 639.878L676.85 639.651C659.17 632.59 641.017 626.097 623.645 618.345L621.458 617.61C604.399 610.075 586.605 603.585 569.212 596.836L566.414 595.87C548.3 589.419 530.404 581.834 512.51 574.777L509.503 573.712C503.514 571.632 497.619 569.036 491.727 566.682Z"/>
	<path fill="#F3F8FF" transform="matrix(1.14062 0 0 1.14062 1.52588e-05 0)" d="M732.957 661.788C737.485 658.791 744.464 655.959 749.713 654.508C749.941 655.565 750.01 656.291 749.851 657.363C747.186 660.539 740.329 662.092 736.364 662.901L732.957 661.788Z"/>
	<path fill="#F3F8FF" transform="matrix(1.14062 0 0 1.14062 1.52588e-05 0)" d="M621.458 617.61C624.933 614.665 682.323 585.476 684.786 585.559C684.928 585.563 685.067 585.601 685.207 585.623C684.139 587.524 681.135 588.979 679.281 590.048C669.234 595.839 658.362 600.616 648.038 605.945C641.093 609.53 630.572 616.152 623.645 618.345L621.458 617.61Z"/>
	<path fill="#F3F8FF" transform="matrix(1.14062 0 0 1.14062 1.52588e-05 0)" d="M676.85 639.651C677.232 639.043 677.505 638.558 678.103 638.131C681.449 635.743 686.158 634.008 689.827 632.089Q708.305 622.416 727.033 613.235C730.724 611.395 738.161 606.936 741.599 605.793C742.281 605.566 742.529 605.603 743.167 605.599L743.916 606.258C743.814 606.554 743.806 606.901 743.611 607.146C742.796 608.175 698.548 630.511 692.709 633.367C687.868 635.735 682.933 638.225 677.797 639.878L676.85 639.651Z"/>
	<path fill="#F3F8FF" transform="matrix(1.14062 0 0 1.14062 1.52588e-05 0)" d="M566.414 595.87C570.567 591.098 623.174 566.568 632.843 562.083L633.718 562.232L633.917 562.963C631.146 566.003 626.079 567.721 622.459 569.557C609.367 576.196 596.071 582.389 583.019 589.1C578.416 591.466 573.231 593.539 569.212 596.836L566.414 595.87Z"/>
	<path fill="#F3F8FF" transform="matrix(1.14062 0 0 1.14062 1.52588e-05 0)" d="M509.503 573.712C514.769 569.177 535.524 560.378 542.864 556.63C555.118 550.373 567.141 543.379 579.558 537.455C580.392 537.057 580.11 537.182 581.16 537.164L581.361 537.955C580.197 539.493 578.477 540.474 576.829 541.429C566.973 547.145 556.394 551.993 546.22 557.141C534.908 562.866 523.768 568.94 512.51 574.777L509.503 573.712Z"/>
	<path fill="#FF6C00" transform="matrix(1.14062 0 0 1.14062 1.52588e-05 0)" d="M792.711 540.762L870.711 569.42C866.498 603.387 860.855 637.188 855.776 671.035L836.454 808.475C836.483 809.487 836.218 810.276 835.922 811.236L835.222 811.537C827.254 809.12 819.371 804.932 811.659 801.724Q787.038 791.763 762.598 781.365C766.133 759.084 768.476 736.608 771.304 714.232Q778.099 662.603 784.24 610.892C787.066 587.509 789.557 564.105 792.711 540.762Z"/>
	<path transform="matrix(1.14062 0 0 1.14062 1.52588e-05 0)" d="M819.38 593.124C823.338 592.936 827.144 594.083 830.471 596.207C836.522 600.071 840.633 606.791 842.184 613.728C843.458 619.427 842.979 625.491 839.623 630.417C836.749 634.636 832.897 636.437 828.029 637.396C824.16 637.531 820.759 636.695 817.437 634.667C811.285 630.913 807.052 624.235 805.438 617.279C804.099 611.507 804.546 605.118 807.887 600.079C810.68 595.865 814.536 593.997 819.38 593.124Z"/>
	<path fill="#FF6C00" transform="matrix(1.14062 0 0 1.14062 1.52588e-05 0)" d="M819.291 596.548C822.159 596.416 824.625 596.802 827.197 598.158C832.878 601.152 836.821 607.153 838.525 613.241C839.838 617.936 839.848 623.193 837.34 627.51C835.247 631.113 832.336 632.746 828.431 633.822C825.567 633.939 823.052 633.709 820.447 632.416C815.127 629.775 811.096 624.596 809.224 619.02C807.588 614.149 807.453 608.321 809.879 603.679C811.955 599.705 815.095 597.743 819.291 596.548Z"/>
	<path transform="matrix(1.14062 0 0 1.14062 1.52588e-05 0)" d="M810.377 667.628C814.84 667.763 818.818 669.047 822.456 671.659C828.47 675.979 832.563 683.196 833.739 690.467C834.66 696.163 833.924 702.531 830.371 707.249C827.37 711.235 823.277 713.006 818.465 713.687C814.354 713.516 810.967 712.793 807.384 710.609C801.041 706.744 796.439 699.965 794.851 692.744C793.589 687.004 794.205 680.565 797.471 675.569C800.567 670.834 805.009 668.673 810.377 667.628Z"/>
	<path fill="#FF6C00" transform="matrix(1.14062 0 0 1.14062 1.52588e-05 0)" d="M809.604 671.134C812.408 670.944 814.881 671.313 817.431 672.533C823.249 675.315 827.424 680.968 829.365 687.015C830.986 692.066 831.407 698.058 828.797 702.865C826.54 707.024 823.315 708.849 818.91 710.127C816.248 710.043 813.886 709.763 811.408 708.728C805.56 706.284 801.079 701.261 798.905 695.351C797.074 690.374 796.744 684.563 799.095 679.694C801.263 675.207 805.011 672.698 809.604 671.134Z"/>
	<path fill="#FF6C00" transform="matrix(1.14062 0 0 1.14062 1.52588e-05 0)" d="M412.776 401.292C438.207 409.709 463.261 419.641 488.389 428.939L620.563 477.691L729.832 517.838C749.661 525.113 770.097 531.66 789.493 540.019C781.682 596.378 776.983 653.208 768.693 709.489C764.036 709.959 757.829 713 754.066 715.709C752.339 665.711 753.46 615.413 753.309 565.378C733.199 556.629 711.953 550.111 691.438 542.344L527.973 481.558L472.765 460.918C466.114 458.435 453.033 451.949 446.6 451.588L446.068 452.09C444.923 458.157 445.746 473.422 445.722 480.368Q445.625 518.836 445.942 557.304C442.244 559.335 438.647 561.418 435.121 563.737C434.924 566.259 434.946 568.773 434.945 571.301L440.454 573.623C440.725 580.151 440.572 586.691 440.508 593.222L412.533 582.659L412.569 459.772L412.654 421.981C412.661 415.129 412.372 408.128 412.776 401.292Z"/>
	<path fill="#FF6C00" transform="matrix(1.14062 0 0 1.14062 1.52588e-05 0)" d="M551.011 335.944C555.067 335.615 627.553 364.761 637.373 368.545L794.121 428.993L911.744 473.659C902.161 479.842 891.027 484.566 880.843 489.731Q852.224 504.213 823.807 519.09C812.734 524.858 801.222 530.29 790.659 536.941L783.166 533.981C761.694 525.527 739.839 518.068 718.184 510.108L583.339 460.493L478.232 421.874C458.504 414.567 438.825 406.504 418.855 399.919Q459.634 379.768 500.648 360.1C517.402 352.025 534.079 343.63 551.011 335.944Z"/>
</svg>
