<svg xmlns="http://www.w3.org/2000/svg" xml:space="preserve" width="1080" height="1080"><rect width="100%" height="100%" fill="transparent"/><path d="M0 0h612v612H0z" style="stroke:none;stroke-width:1;stroke-dasharray:none;stroke-linecap:butt;stroke-dashoffset:0;stroke-linejoin:miter;stroke-miterlimit:4;fill:#fefeff;fill-rule:nonzero;opacity:1" transform="translate(-267.84 -267.84)scale(2.64)" vector-effect="non-scaling-stroke"/><path d="M338.077 523.884c.573-.055.512-.154 1.011.21 1.055.77 1.784 1.222 3.074 1.517 1.759 1.059 2.813 1.373 4.863 1.385-.589.568-.865.881-1.719.884-1.484.007-2.087-.306-3.486.395-1.909-1.021-2.933-2.425-3.743-4.391" style="stroke:none;stroke-width:1;stroke-dasharray:none;stroke-linecap:butt;stroke-dashoffset:0;stroke-linejoin:miter;stroke-miterlimit:4;fill:#371502;fill-rule:nonzero;opacity:1" transform="translate(-267.882 -268.082)scale(2.64)" vector-effect="non-scaling-stroke"/><path d="M333.345 520.014c-1.206-.971-.952-2.497-1.683-3.832-1.257-2.295-3.556-3.831-4.432-6.355 2.597 1.176 4.632 2.813 5.672 5.551.566 1.49.607 3.07.443 4.636" style="stroke:none;stroke-width:1;stroke-dasharray:none;stroke-linecap:butt;stroke-dashoffset:0;stroke-linejoin:miter;stroke-miterlimit:4;fill:#181221;fill-rule:nonzero;opacity:1" transform="translate(-267.871 -268.069)scale(2.64)" vector-effect="non-scaling-stroke"/><path d="M329.863 556.8c2.139 1.151 3.551 2.667 4.273 5.025q.124.404.208.819t.127.835q.042.42.044.843t-.04.844q-.04.42-.122.835t-.204.82-.283.795q-.162.391-.361.764c-.775 1.43-1.854 2.405-3.254 3.191.24-1.673 2.459-2.942 2.865-4.897.716-3.45-1.465-7.164-3.253-9.874" style="stroke:none;stroke-width:1;stroke-dasharray:none;stroke-linecap:butt;stroke-dashoffset:0;stroke-linejoin:miter;stroke-miterlimit:4;fill:#301504;fill-rule:nonzero;opacity:1" transform="translate(-267.872 -268.142)scale(2.64)" vector-effect="non-scaling-stroke"/><path d="M215.12 463.689c.777.446 1.507.604 2.4.61 2.471.015 4.394-1.954 6.065-3.548l.649 1.425c-2.008 2.032-4.158 3.48-7.127 3.445-2.258-.026-4.12-.932-5.808-2.369 1.398-.305 1.809-.16 3.179.232.216.062.428.135.642.205" style="stroke:none;stroke-width:1;stroke-dasharray:none;stroke-linecap:butt;stroke-dashoffset:0;stroke-linejoin:miter;stroke-miterlimit:4;fill:#431300;fill-rule:nonzero;opacity:1" transform="translate(-267.753 -268.022)scale(2.64)" vector-effect="non-scaling-stroke"/><path d="M162.597 359.79c1.15.101 2.088.137 3.103.72.735.71 1.489 1.401 2.148 2.184 1.618 2.356 4.082 1.867 6.318 3.219-2.115.334-4.002.429-5.99-.464-1.302-.616-2.292-1.256-3.316-2.275-1.08-.811-1.668-2.21-2.263-3.384" style="stroke:none;stroke-width:1;stroke-dasharray:none;stroke-linecap:butt;stroke-dashoffset:0;stroke-linejoin:miter;stroke-miterlimit:4;fill:#371502;fill-rule:nonzero;opacity:1" transform="translate(-267.683 -267.9)scale(2.64)" vector-effect="non-scaling-stroke"/><path d="M164.86 363.174c.676-.343.947-.585 1.727-.351 1.069.321 1.806 1.298 2.28 2.238l-.691.388c-1.302-.616-2.292-1.256-3.316-2.275" style="stroke:none;stroke-width:1;stroke-dasharray:none;stroke-linecap:butt;stroke-dashoffset:0;stroke-linejoin:miter;stroke-miterlimit:4;fill:#301504;fill-rule:nonzero;opacity:1" transform="translate(-267.68 -267.908)scale(2.64)" vector-effect="non-scaling-stroke"/><path d="M310.234 560.664c.616 1.885.014 3.213-.576 5.009-1.664 1.562-3.72 2.114-5.965 2.087-1.533-.019-2.62-.458-3.983-1.128l.339-.546a17.5 17.5 0 0 0 2.672-1.026c1.008.065 2.054.134 3.035-.152 2.243-.655 3.4-2.29 4.478-4.244" style="stroke:none;stroke-width:1;stroke-dasharray:none;stroke-linecap:butt;stroke-dashoffset:0;stroke-linejoin:miter;stroke-miterlimit:4;fill:#4a1300;fill-rule:nonzero;opacity:1" transform="translate(-267.834 -268.124)scale(2.64)" vector-effect="non-scaling-stroke"/><path d="M237.986 487.108c-.823-2.11-.839-4.213.093-6.315 1.051-2.371 3.229-4.232 5.645-5.11 2.909-1.058 5.242-.492 7.92.788-.926.935-1.308 1.105-2.615 1.115-.489.004-.979-.012-1.468-.026-1.333-.511-2.981-.758-4.346-.199-2.365.968-3.725 3.687-4.539 5.954-.437 1.216-.552 2.516-.69 3.793" style="stroke:none;stroke-width:1;stroke-dasharray:none;stroke-linecap:butt;stroke-dashoffset:0;stroke-linejoin:miter;stroke-miterlimit:4;fill:#301504;fill-rule:nonzero;opacity:1" transform="translate(-267.776 -268.037)scale(2.64)" vector-effect="non-scaling-stroke"/><path d="M259.137 489.069c1.855-1.644 4.182-2.73 6.705-2.633 2.557.098 4.823 1.342 6.448 3.294q.306.374.573.776.267.403.492.831t.405.876q.181.448.315.912t.221.939.125.957.027.965-.07.962c-.075.646-.224 1.288-.37 1.92-2.093-4.245-2.608-7.562-6.226-10.997-.992-.637-1.712-.957-2.929-.721-1.85.359-3.882 2.338-5.716 1.919" style="stroke:none;stroke-width:1;stroke-dasharray:none;stroke-linecap:butt;stroke-dashoffset:0;stroke-linejoin:miter;stroke-miterlimit:4;fill:#181221;fill-rule:nonzero;opacity:1" transform="translate(-267.812 -268.046)scale(2.64)" vector-effect="non-scaling-stroke"/><path d="M205.195 430.52c2.855.604 5.106 2.011 6.677 4.529 1.252 2.005 1.727 4.302 1.134 6.614-.263 1.022-.679 1.846-1.274 2.708-.148-1.394.805-2.571.61-3.967l-.874.851-.28-.116c-.031-.75-.018-1.594-.155-2.329-.168-.904-.586-1.216-1.274-1.723-.763-.381-1.573-1.688-2.098-2.356l.105-.965c-.994-.839-1.938-2.109-2.571-3.246" style="stroke:none;stroke-width:1;stroke-dasharray:none;stroke-linecap:butt;stroke-dashoffset:0;stroke-linejoin:miter;stroke-miterlimit:4;fill:#301504;fill-rule:nonzero;opacity:1" transform="translate(-267.737 -267.998)scale(2.64)" vector-effect="non-scaling-stroke"/><path d="M246.654 524.96c1.186 2.22 1.87 4.639 1.072 7.121-.731 2.275-2.477 3.973-4.59 5.01-2.154 1.056-4.728 1.438-7.032.648-2.212-.758-3.986-2.554-4.899-4.689q-.234-.561-.426-1.137c2.09 1.863 3.908 4.2 6.818 4.894 2.805.67 5.031-.751 7.327-2.141 2.869-5.84.733-5.408 1.73-9.706" style="stroke:none;stroke-width:1;stroke-dasharray:none;stroke-linecap:butt;stroke-dashoffset:0;stroke-linejoin:miter;stroke-miterlimit:4;fill:#301504;fill-rule:nonzero;opacity:1" transform="translate(-267.749 -268.088)scale(2.64)" vector-effect="non-scaling-stroke"/><path d="M164.097 352.485c1.271-1.838 3.152-3.193 5.382-3.586 2.52-.444 5.167.327 7.222 1.809 1.917 1.383 3.322 3.419 3.679 5.777q.136.916.065 1.839-.07.923-.344 1.807c-1.361-1.646-1.05-3.937-2.097-5.638-.911-1.48-3.366-2.664-4.985-3.193q-1.606-.529-3.202-1.087c-1.438.777-4.157 2.135-5.72 2.272" style="stroke:none;stroke-width:1;stroke-dasharray:none;stroke-linecap:butt;stroke-dashoffset:0;stroke-linejoin:miter;stroke-miterlimit:4;fill:#301504;fill-rule:nonzero;opacity:1" transform="translate(-267.676 -267.888)scale(2.64)" vector-effect="non-scaling-stroke"/><path d="M207.264 493.604c.438.618.846 1.16 1.146 1.86.954 2.387 1.364 4.613.291 7.057-.996 2.267-3.018 3.862-5.331 4.646-.435.147-.408.134-.781.223-.476-.259-.244-.081-.657-.581q.6-1.227 1.148-2.479c1.516-.844 2.213-1.917 3.117-3.369.301-1.469.201-2.492-.169-3.945.718-1.105.504-2.317 1.236-3.412" style="stroke:none;stroke-width:1;stroke-dasharray:none;stroke-linecap:butt;stroke-dashoffset:0;stroke-linejoin:miter;stroke-miterlimit:4;fill:#301504;fill-rule:nonzero;opacity:1" transform="translate(-267.713 -268.06)scale(2.64)" vector-effect="non-scaling-stroke"/><path d="M207.264 493.604c.438.618.846 1.16 1.146 1.86-1.548 1.532.359 3.737-2.213 5.497.301-1.469.201-2.492-.169-3.945.718-1.105.504-2.317 1.236-3.412" style="stroke:none;stroke-width:1;stroke-dasharray:none;stroke-linecap:butt;stroke-dashoffset:0;stroke-linejoin:miter;stroke-miterlimit:4;fill:#371502;fill-rule:nonzero;opacity:1" transform="translate(-267.73 -268.05)scale(2.64)" vector-effect="non-scaling-stroke"/><path d="M195.898 442.525c-.743-1.467-.994-3.357-.645-4.965.522-2.405 2.107-4.676 4.217-5.956 1.591-.964 3.899-1.499 5.725-1.084.633 1.137 1.577 2.407 2.571 3.246l-.105.965c-1.708-.981-3.112-1.716-5.107-1.154-1.132.318-2.111.978-3.091 1.605-1.41.363-1.697 2.271-2.806 2.732l.628-1.064c-.78.998-1.502 1.651-1.337 2.992.117.946.449 1.791-.05 2.683" style="stroke:none;stroke-width:1;stroke-dasharray:none;stroke-linecap:butt;stroke-dashoffset:0;stroke-linejoin:miter;stroke-miterlimit:4;fill:#371502;fill-rule:nonzero;opacity:1" transform="translate(-267.715 -267.978)scale(2.64)" vector-effect="non-scaling-stroke"/><path d="M209.759 437.087c.688.507 1.106.819 1.274 1.723.137.735.124 1.579.155 2.329l.28.116.874-.851c.195 1.396-.758 2.573-.61 3.967-.988 1.937-2.657 3.232-4.723 3.902-2.145.695-4.416.68-6.4-.443a5.9 5.9 0 0 1-1.383-1.049c1.963.248 3.326-.092 5.172-.681 1.877-.698 3.952-1.586 5.041-3.369 1.118-1.832.717-3.682.32-5.644" style="stroke:none;stroke-width:1;stroke-dasharray:none;stroke-linecap:butt;stroke-dashoffset:0;stroke-linejoin:miter;stroke-miterlimit:4;fill:#371502;fill-rule:nonzero;opacity:1" transform="translate(-267.732 -267.999)scale(2.64)" vector-effect="non-scaling-stroke"/><path d="M210.492 513.453c.616-2.203 1.805-4.142 3.865-5.272 2.049-1.124 4.62-1.279 6.839-.608 2.549.77 4.733 2.655 5.943 5.018.985 1.923 1.174 3.96.444 6.006-.266.744-.623 1.466-1.176 2.035-.047-1.578.617-3.051.896-4.606-.762-1.885-1.717-4.665-3.466-5.84-1.352-.908-3.804-.631-5.337-.355-.706.15-1.51.42-2.228.379-1.985.532-3.377.713-4.628 2.483-.261.37-.538.732-.805 1.098z" style="stroke:none;stroke-width:1;stroke-dasharray:none;stroke-linecap:butt;stroke-dashoffset:0;stroke-linejoin:miter;stroke-miterlimit:4;fill:#431300;fill-rule:nonzero;opacity:1" transform="translate(-267.746 -268.066)scale(2.64)" vector-effect="non-scaling-stroke"/><path d="M184.737 415.957c1.566-2.216 3.318-3.451 6.044-3.864 2.519-.382 5.326.159 7.381 1.707 1.001.754 2.01 1.84 2.595 2.955 1.007 2.107 1.286 4.457.546 6.703-.778 2.364-2.538 4.173-4.753 5.247a20 20 0 0 0 1.779-2.589c.881-1.026 1.253-2.219 1.724-3.464.027-1.952-.045-4.088-1.353-5.676-.66-.802-1.593-1.446-2.641-1.517-.494-.845-1.705-2.256-2.684-2.535-2.078-.591-4.401.749-6.122 1.837-.912.577-1.4 1.116-2.516 1.196" style="stroke:none;stroke-width:1;stroke-dasharray:none;stroke-linecap:butt;stroke-dashoffset:0;stroke-linejoin:miter;stroke-miterlimit:4;fill:#181221;fill-rule:nonzero;opacity:1" transform="translate(-267.717 -267.968)scale(2.64)" vector-effect="non-scaling-stroke"/><path d="M230.779 531.913a2.7 2.7 0 0 1-.448-.966c-.554-2.074-.299-3.887.841-5.718 1.508-2.422 3.659-3.957 6.435-4.533l.019.607c-.998.72-1.982 1.384-2.803 2.312-2.068 1.388-3.501 3.22-3.909 5.716-.155.954.049 1.577.482 2.415.752.553 1.399.356 1.983.882l.489-.155c1.304.885 3.127 3.486 5.338 3.395 1.124-.047 3.747-2.034 4.563-2.819.366-.351.125-.145.65-.564q.133-.105.267-.208c.322-.203.56-.33.835-.59 1.828-1.736.225-5.483.252-7.709q.002-.143.008-.285l.873 1.267c-.997 4.298 1.139 3.866-1.73 9.706-2.296 1.39-4.522 2.811-7.327 2.141-2.91-.694-4.728-3.031-6.818-4.894" style="stroke:none;stroke-width:1;stroke-dasharray:none;stroke-linecap:butt;stroke-dashoffset:0;stroke-linejoin:miter;stroke-miterlimit:4;fill:#431300;fill-rule:nonzero;opacity:1" transform="translate(-267.764 -268.098)scale(2.64)" vector-effect="non-scaling-stroke"/><path d="M189.979 478.188c.642-.889.55-1.702 1.42-2.456.305.496.695 1.015.921 1.549.865 2.353 1.12 4.761.001 7.086-1.07 2.222-3.181 3.904-5.528 4.61-2.055.618-4.238.426-6.122-.619-1.55-.859-2.917-2.266-3.697-3.86.123.046.247.09.368.14.508.212.854.535 1.272.883 1.339 1.112 3.852 2.712 5.664 2.577.718-.053 1.381-.246 1.834-.842.243-.32.389-.718.534-1.088 1.615-1.252 2.664-2.402 3.621-4.223.079-1.352.087-2.449-.288-3.757" style="stroke:none;stroke-width:1;stroke-dasharray:none;stroke-linecap:butt;stroke-dashoffset:0;stroke-linejoin:miter;stroke-miterlimit:4;fill:#371502;fill-rule:nonzero;opacity:1" transform="translate(-267.703 -268.04)scale(2.64)" vector-effect="non-scaling-stroke"/><path d="M189.979 478.188c.642-.889.55-1.702 1.42-2.456.305.496.695 1.015.921 1.549-.375.729-.453 1.235-.538 2.054-.114 1.099-.218 1.614-1.119 2.328-.127.1-.264.188-.396.282.079-1.352.087-2.449-.288-3.757" style="stroke:none;stroke-width:1;stroke-dasharray:none;stroke-linecap:butt;stroke-dashoffset:0;stroke-linejoin:miter;stroke-miterlimit:4;fill:#4a1300;fill-rule:nonzero;opacity:1" transform="translate(-267.716 -268.038)scale(2.64)" vector-effect="non-scaling-stroke"/><g transform="translate(74.76 677.8)scale(2.64)"><linearGradient id="a" x1="130.797" x2="131.471" y1="362.466" y2="352.817" gradientUnits="userSpaceOnUse"><stop offset="0%" style="stop-color:#3b2805;stop-opacity:1"/><stop offset="100%" style="stop-color:#541400;stop-opacity:1"/></linearGradient><path d="m135.552 353.787.485.321.118 1.071c.123-.298.383-1.18.617-1.322.154-.094.303-.197.456-.294.552-.348.309-.259.787-.365.26 2.559.095 4.361-1.569 6.425-1.614 2.002-4.128 3.297-6.675 3.565-2.11.222-4.294-.225-5.966-1.579q-.433-.349-.813-.755t-.7-.861q-.319-.455-.573-.95t-.435-1.021l.632-.065c.709 1.045 1.416 2.617 2.591 3.095 1.283-.204 2.609-.591 3.896-.682 1.616-.162 3.137-.357 4.504-1.308 1.807-1.259 2.338-3.215 2.645-5.275" style="stroke:none;stroke-width:1;stroke-dasharray:none;stroke-linecap:butt;stroke-dashoffset:0;stroke-linejoin:miter;stroke-miterlimit:4;fill:url(#a);fill-rule:nonzero;opacity:1" transform="translate(-129.7 -358.22)" vector-effect="non-scaling-stroke"/></g><path d="M324.277 555.567c1.697-.135 4.2.16 5.586 1.233 1.788 2.71 3.969 6.424 3.253 9.874-.406 1.955-2.625 3.224-2.865 4.897l-.561.318c-.068-.004-.136-.015-.204-.012-2.27.101-4.242-.156-6.454-.643.561-.231.411-.233.901-.259.837-.044 1.632-.071 2.467-.174l.228-.494c1.935-.693 3.375-1.525 4.3-3.444q.135-.275.242-.562t.183-.584q.077-.297.123-.6t.061-.609-.001-.612-.063-.608q-.047-.303-.124-.6-.078-.296-.185-.583-.106-.279-.239-.547-.133-.267-.292-.52-.159-.252-.343-.488-.183-.235-.39-.451-.206-.216-.433-.41t-.472-.365-.506-.316-.535-.263c-1.987-.842-3.889-.544-5.821.244-.238-.058-.466-.189-.688-.292.188-1.521 1.727-1.908 2.613-2.865.078-.084.146-.177.219-.265" style="stroke:none;stroke-width:1;stroke-dasharray:none;stroke-linecap:butt;stroke-dashoffset:0;stroke-linejoin:miter;stroke-miterlimit:4;fill:#431300;fill-rule:nonzero;opacity:1" transform="translate(-267.864 -268.13)scale(2.64)" vector-effect="non-scaling-stroke"/><path d="M257.272 549.833q-.638-.25-1.247-.563c-2.321-1.195-3.947-3.126-4.679-5.651-.648-2.236-.471-4.749.702-6.782 1.346-2.331 3.632-3.613 6.176-4.242l.495.395c-.96 1.422-2.141 2.485-3.173 3.81-1.165 1.593-2.224 3.454-1.962 5.511.23 1.795 1.6 3.207 2.931 4.297.14.114.276.233.415.348l.262.215.189.241c.697.865 1.393 1.438 2.312 2.054-.518.4-1.733.308-2.421.367" style="stroke:none;stroke-width:1;stroke-dasharray:none;stroke-linecap:butt;stroke-dashoffset:0;stroke-linejoin:miter;stroke-miterlimit:4;fill:#431300;fill-rule:nonzero;opacity:1" transform="translate(-267.771 -268.094)scale(2.64)" vector-effect="non-scaling-stroke"/><path d="M353.067 557.562c1.83 2.018 3.005 4.198 2.897 7.001q-.015.427-.073.85-.058.424-.158.839t-.241.819q-.141.403-.322.79t-.399.754-.473.711-.541.66q-.288.316-.605.602c-1.953 1.782-4.558 2.577-7.177 2.401-2.03-.137-4.137-1.177-5.41-2.785-.176-.222-.24-.344-.4-.598l.967-.722c.99 1.479 2.085 2.184 3.83 2.605.945.228 2.534.307 3.341-.323.361-.281.609-.709.85-1.089q.635-.363 1.248-.764c1.342-.895 2.393-2.482 2.648-4.089.284-1.792-.248-3.533-1.26-4.996.704-.033.715-.019 1.24-.483.32-.939.214-1.231.038-2.183" style="stroke:none;stroke-width:1;stroke-dasharray:none;stroke-linecap:butt;stroke-dashoffset:0;stroke-linejoin:miter;stroke-miterlimit:4;fill:#431300;fill-rule:nonzero;opacity:1" transform="translate(-267.895 -268.136)scale(2.64)" vector-effect="non-scaling-stroke"/><path d="M237.607 520.696c2.45-.412 4.58.072 6.577 1.594.562.428 1.082.92 1.597 1.403q-.005.143-.008.285c-.027 2.226 1.576 5.973-.252 7.709-.275.26-.513.387-.835.59.525-1.933.583-3.642-.348-5.471-.747-1.467-2.001-2.65-3.6-3.118-1.948-.571-3.707-.046-5.41.933-1.284 1.439-2.31 2.795-2.264 4.812.025 1.08.415 2.047.804 3.04l-.489.155c-.584-.526-1.231-.329-1.983-.882-.433-.838-.637-1.461-.482-2.415.408-2.496 1.841-4.328 3.909-5.716.821-.928 1.805-1.592 2.803-2.312z" style="stroke:none;stroke-width:1;stroke-dasharray:none;stroke-linecap:butt;stroke-dashoffset:0;stroke-linejoin:miter;stroke-miterlimit:4;fill:#4a1300;fill-rule:nonzero;opacity:1" transform="translate(-267.763 -268.078)scale(2.64)" vector-effect="non-scaling-stroke"/><path d="m198.169 490.726.675.242c-.172.667-.301.759-.728 1.275-.568.689-.777 1.081-.941 1.947-.435.352-.903.824-1.381 1.101-.861 1.818-1.346 3.416-.66 5.389.319.919.825 1.694 1.381 2.483 2.029 1.206 3.113 1.69 5.56 1.611l1.005-.444q-.548 1.252-1.148 2.479c.413.5.181.322.657.581-.124.011-.248.026-.372.034-3.101.212-4.93-.212-7.347-2.27-1.059-.789-1.882-2.009-2.379-3.219-.848-2.068-.74-4.483.182-6.508 1.143-2.51 2.994-3.755 5.496-4.701" style="stroke:none;stroke-width:1;stroke-dasharray:none;stroke-linecap:butt;stroke-dashoffset:0;stroke-linejoin:miter;stroke-miterlimit:4;fill:#431300;fill-rule:nonzero;opacity:1" transform="translate(-267.73 -268.054)scale(2.64)" vector-effect="non-scaling-stroke"/><path d="M195.794 495.291c-.861 1.818-1.346 3.416-.66 5.389.319.919.825 1.694 1.381 2.483-.894-.117-2.159-.829-2.79-1.496-.644-.68-.847-1.363-.763-2.295.175-1.933 1.397-2.948 2.832-4.081" style="stroke:none;stroke-width:1;stroke-dasharray:none;stroke-linecap:butt;stroke-dashoffset:0;stroke-linejoin:miter;stroke-miterlimit:4;fill:#4a1300;fill-rule:nonzero;opacity:1" transform="translate(-267.717 -268.067)scale(2.64)" vector-effect="non-scaling-stroke"/><path d="M286.899 544.826c2.083 1.653 3.709 3.505 4.075 6.241.305 2.275-.447 4.523-1.908 6.272-1.626 1.944-4.085 3.317-6.637 3.451q-.39.024-.781.008-.391-.015-.778-.069-.388-.055-.768-.147-.38-.093-.749-.223-.368-.13-.723-.296-.354-.166-.689-.366-.336-.201-.65-.434-.315-.233-.604-.496a10.2 10.2 0 0 1-2.792-4.238c2.006 1.958 4.475 4.348 7.489 4.272.939-.024 1.764-.385 2.613-.751l.608-.725c.89-.608 1.718-1.216 2.413-2.05 1.35-1.62 1.109-3.471.9-5.431.039-1.836-1.141-3.229-1.019-5.018" style="stroke:none;stroke-width:1;stroke-dasharray:none;stroke-linecap:butt;stroke-dashoffset:0;stroke-linejoin:miter;stroke-miterlimit:4;fill:#301504;fill-rule:nonzero;opacity:1" transform="translate(-267.82 -268.125)scale(2.64)" vector-effect="non-scaling-stroke"/><path d="M171.19 452.284c2.338.918 4.632 2.691 5.663 5.047.88 2.009 1.017 4.446.104 6.47-.965 2.137-3.019 3.786-5.199 4.565-2.201.788-4.793.779-6.917-.249-1.728-.836-3.47-2.501-4.272-4.256.119.058.24.113.357.174.722.371 1.258 1.025 1.865 1.552 2.364 2.055 4.275 1.084 6.974.527.028-.006.053-.021.08-.031 1.707-.649 3.477-1.562 4.319-3.279.862-1.756.458-3.481-.101-5.254.01-.084.025-.166.028-.25.08-1.853-1.794-3.647-2.901-5.016" style="stroke:none;stroke-width:1;stroke-dasharray:none;stroke-linecap:butt;stroke-dashoffset:0;stroke-linejoin:miter;stroke-miterlimit:4;fill:#301504;fill-rule:nonzero;opacity:1" transform="translate(-267.675 -267.994)scale(2.64)" vector-effect="non-scaling-stroke"/><path d="M329.69 571.889c-.957.533-1.87.819-2.948 1.009-2.401.424-4.643.126-6.642-1.347q-.353-.265-.678-.563t-.62-.626q-.294-.328-.556-.683t-.488-.734-.414-.778q-.189-.398-.338-.814t-.257-.842q-.108-.428-.174-.864-.063-.436-.084-.877-.021-.44 0-.88.022-.441.085-.877.064-.436.169-.864t.251-.844.332-.816.408-.78.481-.738c1.439-1.952 3.695-3.081 6.06-3.404-.073.088-.141.181-.219.265-.886.957-2.425 1.344-2.613 2.865.222.103.45.234.688.292-.38.323-.567.558-1.067.657-.89 1.594-1.599 3.051-2.03 4.845.647 2.072 1.324 3.953 3.387 4.976 1.334.662 2.743.744 4.205.84l-.228.494c-.835.103-1.63.13-2.467.174-.49.026-.34.028-.901.259 2.212.487 4.184.744 6.454.643.068-.003.136.008.204.012" style="stroke:none;stroke-width:1;stroke-dasharray:none;stroke-linecap:butt;stroke-dashoffset:0;stroke-linejoin:miter;stroke-miterlimit:4;fill:#371502;fill-rule:nonzero;opacity:1" transform="translate(-267.851 -268.125)scale(2.64)" vector-effect="non-scaling-stroke"/><path d="M323.032 571.234c-.428-.216-.22-.159-.731-.203-.458-.039-1.021-.032-1.462-.161-1.047-.305-2.288-1.82-2.777-2.771-.804-1.564-1.022-3.432-.373-5.089.561-1.428 2.012-2.731 3.377-3.364-.89 1.594-1.599 3.051-2.03 4.845.647 2.072 1.324 3.953 3.387 4.976 1.334.662 2.743.744 4.205.84l-.228.494c-.835.103-1.63.13-2.467.174-.49.026-.34.028-.901.259" style="stroke:none;stroke-width:1;stroke-dasharray:none;stroke-linecap:butt;stroke-dashoffset:0;stroke-linejoin:miter;stroke-miterlimit:4;fill:#4a1300;fill-rule:nonzero;opacity:1" transform="translate(-267.86 -268.132)scale(2.64)" vector-effect="non-scaling-stroke"/><path d="M176.974 484.498c-.184-.229-.268-.318-.415-.551-.986-1.562-1.461-3.665-.996-5.472.635-2.465 2.497-4.617 4.72-5.808 2.367-1.267 4.378-1.285 6.879-.451-1.967 1.443-4.309.534-5.733 2.976-.069.092-.134.186-.206.275-1.504 1.879-2.797 2.402-2.551 5.126.165 1.83 1.217 3.494 2.658 4.595 1.346 1.027 2.656 1.487 4.335 1.193q.496-.083.981-.213c-.145.37-.291.768-.534 1.088-.453.596-1.116.789-1.834.842-1.812.135-4.325-1.465-5.664-2.577-.418-.348-.764-.671-1.272-.883-.121-.05-.245-.094-.368-.14" style="stroke:none;stroke-width:1;stroke-dasharray:none;stroke-linecap:butt;stroke-dashoffset:0;stroke-linejoin:miter;stroke-miterlimit:4;fill:#4a1300;fill-rule:nonzero;opacity:1" transform="translate(-267.693 -268.017)scale(2.64)" vector-effect="non-scaling-stroke"/><path d="M156.228 432.047c2.795.819 5.44 2.227 6.843 4.921 1.026 1.969 1.134 4.445.371 6.521q-.153.409-.345.802-.193.393-.422.765-.23.372-.494.72-.265.348-.562.669t-.624.611-.681.547q-.353.257-.73.479t-.774.405q-.424.19-.866.337-.441.146-.895.247t-.916.155q-.462.055-.927.062t-.928-.033q-.464-.04-.921-.127t-.902-.22q-.446-.133-.876-.31c-2.216-.929-4.086-3.017-4.953-5.235q-.047-.122-.092-.243l.669.004c.464.476.838.907 1.218 1.451 1.045 1.499 3.157 2.906 4.98 3.15 1.016.136 1.783.025 2.742-.307l.382-.491-.137-.561c1.437-.444 2.539-1.002 3.54-2.159.908-1.051 1.393-2.308 1.28-3.703-.182-2.238-1.434-3.587-3.053-4.998-.315-.858-.969-1.429-1.347-2.244-.19-.409-.376-.812-.58-1.215" style="stroke:none;stroke-width:1;stroke-dasharray:none;stroke-linecap:butt;stroke-dashoffset:0;stroke-linejoin:miter;stroke-miterlimit:4;fill:#371502;fill-rule:nonzero;opacity:1" transform="translate(-267.684 -267.989)scale(2.64)" vector-effect="non-scaling-stroke"/><path d="M317.45 524.216c-.389-.474-.746-.927-1.042-1.465-1.258-2.288-1.529-4.935-.695-7.419q.158-.458.362-.897.203-.44.451-.856t.538-.805.617-.745q.327-.357.69-.678t.756-.603.814-.523.864-.436c2.179-.957 4.265-.795 6.425.038.876 2.524 3.175 4.06 4.432 6.355.731 1.335.477 2.861 1.683 3.832-.3 1.27-.72 2.216-1.46 3.29-.738-2.083.201-4.136-1.092-5.851-.953-2.374-2.187-4.127-4.64-5.136-1.452-.597-3.043-.661-4.483.003-1.545.711-2.742 2.179-3.262 3.787-.27.834-.353 1.76-.435 2.631-.239 1.81-.624 3.649-.523 5.478" style="stroke:none;stroke-width:1;stroke-dasharray:none;stroke-linecap:butt;stroke-dashoffset:0;stroke-linejoin:miter;stroke-miterlimit:4;fill:#301504;fill-rule:nonzero;opacity:1" transform="translate(-267.866 -268.085)scale(2.64)" vector-effect="non-scaling-stroke"/><path d="M208.205 454.613c.604-2.491 1.951-4.628 4.22-5.93q.406-.234.834-.424.428-.191.874-.336.445-.145.904-.243.458-.098.924-.148t.934-.051q.469-.001.935.046.466.048.925.144t.905.238q.461.149.906.343.444.193.868.43.423.236.821.512.398.277.768.591.369.314.706.663.337.348.638.728t.563.788.484.839q.192.382.344.783.151.4.26.814t.175.837q.066.422.088.85.022.427 0 .855-.023.427-.09.85-.066.423-.176.836-.11.414-.262.814c-.357.966-.921 1.9-1.519 2.734l-.649-1.425c.588-.871.969-1.848.976-2.909.007-1.125-.432-1.686-1.18-2.464a18 18 0 0 0-.913-1.508c-1.099-1.585-2.86-3.147-4.845-3.385-2.223-.266-3.91.723-5.572 2.057-1.411.223-2.527 1.522-3.846 2.071" style="stroke:none;stroke-width:1;stroke-dasharray:none;stroke-linecap:butt;stroke-dashoffset:0;stroke-linejoin:miter;stroke-miterlimit:4;fill:#371502;fill-rule:nonzero;opacity:1" transform="translate(-267.74 -268.011)scale(2.64)" vector-effect="non-scaling-stroke"/><path d="M340.165 569.606c-.833-1.127-1.336-2.296-1.612-3.675-.473-2.358-.012-4.768 1.373-6.745 1.463-2.09 3.888-3.416 6.395-3.746 2.635-.347 4.686.553 6.746 2.122.176.952.282 1.244-.038 2.183-.525.464-.536.45-1.24.483-1.586-1.341-3.196-2.374-5.357-2.267-1.645.081-3.048.912-4.068 2.178-1.401 1.737-1.524 3.34-1.491 5.484 1.102 1.96 2.234 3.864 4.541 4.527 1.311.377 2.436.242 3.739-.073-.241.38-.489.808-.85 1.089-.807.63-2.396.551-3.341.323-1.745-.421-2.84-1.126-3.83-2.605z" style="stroke:none;stroke-width:1;stroke-dasharray:none;stroke-linecap:butt;stroke-dashoffset:0;stroke-linejoin:miter;stroke-miterlimit:4;fill:#4a1300;fill-rule:nonzero;opacity:1" transform="translate(-267.872 -268.126)scale(2.64)" vector-effect="non-scaling-stroke"/><path d="M164.097 352.485c1.563-.137 4.282-1.495 5.72-2.272q1.596.558 3.202 1.087c1.619.529 4.074 1.713 4.985 3.193 1.047 1.701.736 3.992 2.097 5.638-.379 1.088-.802 1.808-1.552 2.682-1.09 1.576-2.574 2.496-4.383 3.1-2.236-1.352-4.7-.863-6.318-3.219.89.324 1.854.629 2.799.719 1.746.168 3.567-.193 4.895-1.398 1.721-1.563 1.988-3.429 2.05-5.627-1.074-2.166-2.44-3.577-4.801-4.351-1.563-.512-3.372-.461-4.853.285-1.399.704-2.281 1.897-2.677 3.396-.468 1.772-.276 3.139.439 4.792-1.015-.583-1.953-.619-3.103-.72a17 17 0 0 1-.17-1.636c-.109-2.169.168-4.029 1.67-5.669" style="stroke:none;stroke-width:1;stroke-dasharray:none;stroke-linecap:butt;stroke-dashoffset:0;stroke-linejoin:miter;stroke-miterlimit:4;fill:#431300;fill-rule:nonzero;opacity:1" transform="translate(-267.68 -267.888)scale(2.64)" vector-effect="non-scaling-stroke"/><path d="M251.644 476.471c2.223 1.837 3.857 4.041 4.087 7.026.184 2.389-.796 4.649-2.386 6.404-.309.34-.657.624-1.009.916-1.966 1.724-4.406 2.419-7.004 2.214q-.479-.036-.949-.137t-.921-.265-.877-.389q-.425-.224-.815-.504c-.985-.617-1.619-1.31-2.372-2.189 2.283.238 3.622 1.433 6.019.875 1.919-.141 3.943-.666 5.435-1.942 1.598-1.366 2.029-2.917 2.21-4.939a12 12 0 0 0-.534-1.42c-1.097-2.38-2.678-3.348-5.059-4.271l.092-.29c.489.014.979.03 1.468.026 1.307-.01 1.689-.18 2.615-1.115" style="stroke:none;stroke-width:1;stroke-dasharray:none;stroke-linecap:butt;stroke-dashoffset:0;stroke-linejoin:miter;stroke-miterlimit:4;fill:#371502;fill-rule:nonzero;opacity:1" transform="translate(-267.791 -268.043)scale(2.64)" vector-effect="non-scaling-stroke"/><path d="m252.427 490.057-.091.76c-1.966 1.724-4.406 2.419-7.004 2.214q-.479-.036-.949-.137t-.921-.265-.877-.389q-.425-.224-.815-.504c.573-.329.865-.332 1.522-.246 3.184.422 6.146-.387 9.135-1.433" style="stroke:none;stroke-width:1;stroke-dasharray:none;stroke-linecap:butt;stroke-dashoffset:0;stroke-linejoin:miter;stroke-miterlimit:4;fill:#301504;fill-rule:nonzero;opacity:1" transform="translate(-267.774 -268.038)scale(2.64)" vector-effect="non-scaling-stroke"/><path d="M275.036 503.897c.789-2.298 2.186-4.087 4.411-5.159 2.395-1.156 5.575-1.311 8.057-.345q.405.159.793.359.387.199.751.437.365.238.704.512t.647.581q.309.307.585.645.275.337.515.7t.442.749.363.791c.891 2.209.749 4.589-.204 6.754-1.015 2.307-2.875 4.214-5.272 5.065-2.133.758-4.1.667-6.231.009.844-1.193 1.971-.946 3.199-1.487q.22-.099.441-.201c1.577-.753 2.909-1.518 4.05-2.871 1.431-1.698 1.741-3.557 1.566-5.711.096-.341.219-.716.265-1.071a3.22 3.22 0 0 0-.662-2.445c-1.007-1.307-3.54-2.184-5.136-2.304-2.927-.222-5.841 2.158-7.941 3.96-.319.273-.629.531-.973.773z" style="stroke:none;stroke-width:1;stroke-dasharray:none;stroke-linecap:butt;stroke-dashoffset:0;stroke-linejoin:miter;stroke-miterlimit:4;fill:#301504;fill-rule:nonzero;opacity:1" transform="translate(-267.82 -268.06)scale(2.64)" vector-effect="non-scaling-stroke"/><path d="M258.224 532.595c2.539-.246 4.636.069 6.636 1.786 1.943 1.668 3.196 4.26 3.332 6.813.124 2.349-.695 4.762-2.317 6.481s-3.814 2.503-6.152 2.51c-.852.003-1.63-.14-2.451-.352.688-.059 1.903.033 2.421-.367-.919-.616-1.615-1.189-2.312-2.054l-.189-.241c1.267.266 2.735.384 3.99.013 2.075-.613 3.187-2.548 4.216-4.287-.055-1.454-.055-2.878-.681-4.224-.848-1.825-2.432-2.618-4.242-3.271-1.874.193-3.246.515-4.929 1.398 1.032-1.325 2.213-2.388 3.173-3.81z" style="stroke:none;stroke-width:1;stroke-dasharray:none;stroke-linecap:butt;stroke-dashoffset:0;stroke-linejoin:miter;stroke-miterlimit:4;fill:#4a1300;fill-rule:nonzero;opacity:1" transform="translate(-267.803 -268.094)scale(2.64)" vector-effect="non-scaling-stroke"/><path d="M167.125 375.99c1.003-2.292 2.821-3.896 5.165-4.783 2.347-.89 5.348-.694 7.601.399 2.067 1.002 3.443 2.798 4.104 4.974.685 2.255.421 4.561-.723 6.617-1.22 2.191-3.329 3.972-5.785 4.585-2.555.639-5.064-.165-7.216-1.568a11 11 0 0 1-1.144-.863c1.597-.239 3.377-.069 5-.057.873-.04 1.779-.124 2.625-.358 1.604-.443 3.166-1.236 3.951-2.773 1.147-2.244.551-4.585-.229-6.827-.252-1.286-.945-2.562-2.029-3.357-1.045-.766-2.39-.691-3.573-.375-2.443.653-4.688 2.347-6.636 3.907-.428.343-.577.432-1.111.479" style="stroke:none;stroke-width:1;stroke-dasharray:none;stroke-linecap:butt;stroke-dashoffset:0;stroke-linejoin:miter;stroke-miterlimit:4;fill:#371502;fill-rule:nonzero;opacity:1" transform="translate(-267.7 -267.931)scale(2.64)" vector-effect="non-scaling-stroke"/><path d="M180.467 391.992c2.635-.472 5.132-.123 7.369 1.431q.362.249.698.534t.641.602.576.663q.272.346.508.718.235.371.432.765.197.393.353.804t.27.837.185.859c.341 2.156-.265 4.605-1.621 6.326-.077.097-.167.183-.25.274-.915 1.662-2.601 2.909-4.416 3.435-2.42.701-4.179.404-6.48-.482.097-.118.515-.639.623-.723.533-.414 2.497.086 3.207.196 1.044-.437 1.046-.702 1.582-1.661 1.361-.683 2.567-1.707 3.399-2.988.9-1.386 1.263-3.001.9-4.626-.434-1.944-1.537-2.785-3.133-3.838l.02-.487c-1.693-.897-3.411-2.055-5.403-1.422-1.944.618-3.908 2.421-5.211 3.94-.297.347-.175.218-.648.487.161-.508.326-1.028.561-1.508 1.139-2.329 3.496-3.414 5.838-4.136" style="stroke:none;stroke-width:1;stroke-dasharray:none;stroke-linecap:butt;stroke-dashoffset:0;stroke-linejoin:miter;stroke-miterlimit:4;fill:#371502;fill-rule:nonzero;opacity:1" transform="translate(-267.701 -267.934)scale(2.64)" vector-effect="non-scaling-stroke"/><path d="M180.467 391.992c2.635-.472 5.132-.123 7.369 1.431q.362.249.698.534t.641.602.576.663q.272.346.508.718.235.371.432.765.197.393.353.804t.27.837.185.859c.341 2.156-.265 4.605-1.621 6.326-.077.097-.167.183-.25.274-.116-1.643.971-3.802 1.085-5.631l-.336 1.271q.003-.248.01-.497c.116-3.558-2.781-5.163-4.782-7.695l-.185-.238a40 40 0 0 0-4.953-1.023" style="stroke:none;stroke-width:1;stroke-dasharray:none;stroke-linecap:butt;stroke-dashoffset:0;stroke-linejoin:miter;stroke-miterlimit:4;fill:#181221;fill-rule:nonzero;opacity:1" transform="translate(-267.71 -267.942)scale(2.64)" vector-effect="non-scaling-stroke"/><path d="M338.122 517.171c.856-2.137 2.353-3.726 4.497-4.624q.444-.185.904-.324t.931-.231.951-.135.959-.038q.481.005.958.059.478.054.947.157.47.102.927.251t.896.345c2.013.904 3.699 2.562 4.481 4.642.152.404.289.824.395 1.243.632 1.852.607 3.6-.225 5.399-1.052 2.275-3.295 4.313-5.655 5.142-.433.152-.87.271-1.313.393-2.275.227-3.958-.074-5.955-1.175 1.399-.701 2.002-.388 3.486-.395.854-.003 1.13-.316 1.719-.884.841-.335 1.72-.654 2.474-1.162 2.114-1.425 2.81-3.416 3.212-5.835-.873-2.734-2.022-3.969-4.396-5.472-.015-.016-.029-.035-.047-.049-1.224-.926-3.299-.588-4.739-.473-1.86.936-3.5 1.681-5.071 3.112z" style="stroke:none;stroke-width:1;stroke-dasharray:none;stroke-linecap:butt;stroke-dashoffset:0;stroke-linejoin:miter;stroke-miterlimit:4;fill:#181221;fill-rule:nonzero;opacity:1" transform="translate(-267.893 -268.079)scale(2.64)" vector-effect="non-scaling-stroke"/><path d="M352.711 519.999c.674 1.144.367 2.856.001 4.112-.409 1.405-1.681 2.941-3.01 3.547-.746.341-1.897.574-2.329 1.244l.402.548c-2.275.227-3.958-.074-5.955-1.175 1.399-.701 2.002-.388 3.486-.395.854-.003 1.13-.316 1.719-.884.841-.335 1.72-.654 2.474-1.162 2.114-1.425 2.81-3.416 3.212-5.835" style="stroke:none;stroke-width:1;stroke-dasharray:none;stroke-linecap:butt;stroke-dashoffset:0;stroke-linejoin:miter;stroke-miterlimit:4;fill:#301504;fill-rule:nonzero;opacity:1" transform="translate(-267.874 -268.086)scale(2.64)" vector-effect="non-scaling-stroke"/><path d="M120.551 352.153c1.101-2.678 2.481-4.561 5.262-5.724q.406-.174.828-.306t.855-.221.872-.135.881-.048q.442-.001.882.041t.873.129q.434.086.857.215.422.129.83.299.409.174.798.389.389.214.755.467.366.252.705.54.339.287.647.607.309.32.583.67.275.349.514.724.238.375.438.772t.359.812c.23.596.394 1.19.525 1.814-.478.106-.235.017-.787.365-.153.097-.302.2-.456.294-.234.142-.494 1.024-.617 1.322l-.118-1.071-.485-.321c-1.186-2.981-2.158-4.169-5.078-5.554-2.507.295-4.479.964-6.05 3.084-.943 1.272-1.316 2.796-1.035 4.357.239 1.33.921 2.173 1.783 3.177 1.085.751 1.937 1.23 3.231 1.519-1.287.091-2.613.478-3.896.682-1.175-.478-1.882-2.05-2.591-3.095l-.632.065c-1.197-1.982-1.109-3.659-.733-5.869" style="stroke:none;stroke-width:1;stroke-dasharray:none;stroke-linecap:butt;stroke-dashoffset:0;stroke-linejoin:miter;stroke-miterlimit:4;fill:#4a1300;fill-rule:nonzero;opacity:1" transform="translate(-267.652 -267.91)scale(2.64)" vector-effect="non-scaling-stroke"/><path d="M121.284 358.022c-1.197-1.982-1.109-3.659-.733-5.869l.77.753c.172 1.786.234 4.231 1.787 5.428.656.505 1.259.516 2.064.517 1.085.751 1.937 1.23 3.231 1.519-1.287.091-2.613.478-3.896.682-1.175-.478-1.882-2.05-2.591-3.095z" style="stroke:none;stroke-width:1;stroke-dasharray:none;stroke-linecap:butt;stroke-dashoffset:0;stroke-linejoin:miter;stroke-miterlimit:4;fill:#431300;fill-rule:nonzero;opacity:1" transform="translate(-267.634 -267.894)scale(2.64)" vector-effect="non-scaling-stroke"/><path d="M218.5 509.831c1.533-.276 3.985-.553 5.337.355 1.749 1.175 2.704 3.955 3.466 5.84-.279 1.555-.943 3.028-.896 4.606a8.6 8.6 0 0 1-2.375 2.212q-.405.255-.834.468-.429.212-.878.38-.449.167-.912.288t-.936.194q-.474.073-.952.097t-.956-.001q-.479-.025-.952-.098t-.936-.195c-2.755-.735-4.297-2.258-5.654-4.679-.858-1.739-.947-3.978-.53-5.845l.347.338c.267-.366.544-.728.805-1.098 1.251-1.77 2.643-1.951 4.628-2.483-1.564 1.449-3.048 3.004-3.168 5.256-.1 1.883.933 3.513 2.09 4.902.789.506 1.567 1.045 2.489 1.272q.289.071.584.114.295.042.593.056.297.013.595-.002.298-.016.592-.061.295-.044.583-.117.289-.074.57-.175t.549-.229q.269-.128.524-.282.257-.159.496-.342.24-.184.46-.391.22-.206.419-.434.198-.227.373-.473t.324-.509.272-.538.217-.563q.095-.286.16-.581.064-.283.099-.572.035-.288.039-.579.004-.29-.022-.58-.026-.289-.082-.575-.056-.285-.141-.562t-.199-.546q-.114-.267-.255-.521t-.308-.492c-1.426-2.016-3.347-2.471-5.625-2.855" style="stroke:none;stroke-width:1;stroke-dasharray:none;stroke-linecap:butt;stroke-dashoffset:0;stroke-linejoin:miter;stroke-miterlimit:4;fill:#4a1300;fill-rule:nonzero;opacity:1" transform="translate(-267.75 -268.085)scale(2.64)" vector-effect="non-scaling-stroke"/><path d="M72.105 251.098c.63 1.012.247 2.949.48 4.212l-.573-1.14c-3.647-.78-7.95-.372-11.686-.369-8.316.007-16.725.296-25.03.003.436 4.817.518 10.264.012 15.077 11.113-.226 22.283.103 33.404.154 3.51.016 7.512.525 10.962.147l.38.411c-3.45.834-10.874.258-14.627.258-10.313 0-20.653.153-30.961-.093-.297-5.51-.187-11.17-.075-16.687 12.43-.101 25.002.453 37.407-.102.403-.519.28-1.222.307-1.871" style="stroke:none;stroke-width:1;stroke-dasharray:none;stroke-linecap:butt;stroke-dashoffset:0;stroke-linejoin:miter;stroke-miterlimit:4;fill:#5b5354;fill-rule:nonzero;opacity:1" transform="translate(-267.552 -267.785)scale(2.64)" vector-effect="non-scaling-stroke"/><path d="M184.737 415.957c1.116-.08 1.604-.619 2.516-1.196 1.721-1.088 4.044-2.428 6.122-1.837.979.279 2.19 1.69 2.684 2.535-2.452-.686-4.527-1.062-6.908.188-1.369.718-2.477 1.969-2.888 3.474-.421 1.54-.09 3.172.733 4.519.61.999 1.535 1.827 2.447 2.546 1.624.776 2.883 1.176 4.646.565 1.753-.608 3.15-1.812 3.928-3.507.699-1.519.896-3.592.261-5.163-.402-.996-1.647-1.668-2.219-2.622 1.048.071 1.981.715 2.641 1.517 1.308 1.588 1.38 3.724 1.353 5.676-.471 1.245-.843 2.438-1.724 3.464a20 20 0 0 1-1.779 2.589c-.953.595-2.346 1.045-3.461 1.168-2.214.245-3.98-.609-5.689-1.921-.077-.042-.158-.078-.232-.126-1.666-1.079-2.923-3.267-3.389-5.159-.594-2.41-.327-4.59.958-6.71" style="stroke:none;stroke-width:1;stroke-dasharray:none;stroke-linecap:butt;stroke-dashoffset:0;stroke-linejoin:miter;stroke-miterlimit:4;fill:#371502;fill-rule:nonzero;opacity:1" transform="translate(-267.723 -267.974)scale(2.64)" vector-effect="non-scaling-stroke"/><path d="M187.4 427.952c1.245-.105 2.795.388 4.083.473 2.725.179 4.768-.496 6.846-2.309a20 20 0 0 1-1.779 2.589c-.953.595-2.346 1.045-3.461 1.168-2.214.245-3.98-.609-5.689-1.921" style="stroke:none;stroke-width:1;stroke-dasharray:none;stroke-linecap:butt;stroke-dashoffset:0;stroke-linejoin:miter;stroke-miterlimit:4;fill:#301504;fill-rule:nonzero;opacity:1" transform="translate(-267.7 -267.983)scale(2.64)" vector-effect="non-scaling-stroke"/><path d="M296.214 555.887c.909-2.176 2.248-4.077 4.473-5.068 2.176-.97 4.69-.871 6.871.028 2.317.955 4.343 2.81 5.213 5.192q.147.395.252.803.104.409.166.826.061.417.078.838t-.01.842q-.028.421-.099.836-.071.416-.186.822-.114.405-.271.797-.156.391-.353.764c-.627 1.206-1.529 2.374-2.69 3.106.59-1.796 1.192-3.124.576-5.009.335-1.459.371-3.09-.36-4.442-1.076-1.99-3.324-2.668-5.34-3.25-2.158.376-3.659.742-4.999 2.631-.925 1.305-1.335 2.86-1.047 4.446.337 1.862 1.518 3.38 3.097 4.373.372.234.746.437 1.136.638-.889.417-1.727.755-2.672 1.026l-.339.546c-1.583-.967-2.765-2.093-3.565-3.794-1.136-2.414-.864-4.547.069-6.951" style="stroke:none;stroke-width:1;stroke-dasharray:none;stroke-linecap:butt;stroke-dashoffset:0;stroke-linejoin:miter;stroke-miterlimit:4;fill:#431300;fill-rule:nonzero;opacity:1" transform="translate(-267.838 -268.113)scale(2.64)" vector-effect="non-scaling-stroke"/><path d="M426.021 532.744c.014-2.632-.243-5.651 1.068-8.019l.562-.317c.966.796 1.175 2.206 1.302 3.398.173 1.638.026 3.452-.011 5.103l-.235 2.177.084.527c-.185 5.504.127 11.054-.15 16.543l.175 2.149c.132 3.25.597 6.991-.682 10.045l-.825.251c-1.845-2.252-1.258-7.658-1.246-10.49l.006-2.101.044-16.511z" style="stroke:none;stroke-width:1;stroke-dasharray:none;stroke-linecap:butt;stroke-dashoffset:0;stroke-linejoin:miter;stroke-miterlimit:4;fill:#5b5354;fill-rule:nonzero;opacity:1" transform="translate(-267.97 -268.09)scale(2.64)" vector-effect="non-scaling-stroke"/><path d="M255.546 536.8c1.683-.883 3.055-1.205 4.929-1.398 1.81.653 3.394 1.446 4.242 3.271.626 1.346.626 2.77.681 4.224-1.029 1.739-2.141 3.674-4.216 4.287-1.255.371-2.723.253-3.99-.013l-.262-.215c-.139-.115-.275-.234-.415-.348-1.331-1.09-2.701-2.502-2.931-4.297-.262-2.057.797-3.918 1.962-5.511" style="stroke:none;stroke-width:1;stroke-dasharray:none;stroke-linecap:butt;stroke-dashoffset:0;stroke-linejoin:miter;stroke-miterlimit:4;fill:red;fill-rule:nonzero;opacity:1" transform="translate(-267.79 -268.102)scale(2.64)" vector-effect="non-scaling-stroke"/><path d="M130.474 348.233c2.92 1.385 3.892 2.573 5.078 5.554-.307 2.06-.838 4.016-2.645 5.275-1.367.951-2.888 1.146-4.504 1.308-1.294-.289-2.146-.768-3.231-1.519-.862-1.004-1.544-1.847-1.783-3.177-.281-1.561.092-3.085 1.035-4.357 1.571-2.12 3.543-2.789 6.05-3.084" style="stroke:none;stroke-width:1;stroke-dasharray:none;stroke-linecap:butt;stroke-dashoffset:0;stroke-linejoin:miter;stroke-miterlimit:4;fill:red;fill-rule:nonzero;opacity:1" transform="translate(-267.629 -267.892)scale(2.64)" vector-effect="non-scaling-stroke"/><path d="M218.5 509.831c2.278.384 4.199.839 5.625 2.855q.167.238.308.492t.255.521.199.546q.085.277.141.562t.082.575.022.58-.039.579-.099.572q-.065.295-.16.581-.094.287-.217.563-.122.276-.272.538-.149.263-.324.509t-.373.473q-.199.228-.419.434-.22.207-.46.391-.239.183-.496.342-.255.154-.524.282t-.549.229q-.281.101-.57.175t-.583.118-.592.06-.595.002-.593-.056q-.295-.043-.584-.114c-.922-.227-1.7-.766-2.489-1.272-1.157-1.389-2.19-3.019-2.09-4.902.12-2.252 1.604-3.807 3.168-5.256.718.041 1.522-.229 2.228-.379" style="stroke:none;stroke-width:1;stroke-dasharray:none;stroke-linecap:butt;stroke-dashoffset:0;stroke-linejoin:miter;stroke-miterlimit:4;fill:red;fill-rule:nonzero;opacity:1" transform="translate(-267.757 -268.081)scale(2.64)" vector-effect="non-scaling-stroke"/><path d="M235.328 524.621c1.703-.979 3.462-1.504 5.41-.933 1.599.468 2.853 1.651 3.6 3.118.931 1.829.873 3.538.348 5.471q-.134.103-.267.208c-.525.419-.284.213-.65.564-.816.785-3.439 2.772-4.563 2.819-2.211.091-4.034-2.51-5.338-3.395-.389-.993-.779-1.96-.804-3.04-.046-2.017.98-3.373 2.264-4.812" style="stroke:none;stroke-width:1;stroke-dasharray:none;stroke-linecap:butt;stroke-dashoffset:0;stroke-linejoin:miter;stroke-miterlimit:4;fill:red;fill-rule:nonzero;opacity:1" transform="translate(-267.758 -268.082)scale(2.64)" vector-effect="non-scaling-stroke"/><path d="M304.534 552.972c2.016.582 4.264 1.26 5.34 3.25.731 1.352.695 2.983.36 4.442-1.078 1.954-2.235 3.589-4.478 4.244-.981.286-2.027.217-3.035.152-.39-.201-.764-.404-1.136-.638-1.579-.993-2.76-2.511-3.097-4.373-.288-1.586.122-3.141 1.047-4.446 1.34-1.889 2.841-2.255 4.999-2.631" style="stroke:none;stroke-width:1;stroke-dasharray:none;stroke-linecap:butt;stroke-dashoffset:0;stroke-linejoin:miter;stroke-miterlimit:4;fill:red;fill-rule:nonzero;opacity:1" transform="translate(-267.835 -268.106)scale(2.64)" vector-effect="non-scaling-stroke"/><path d="M322.133 558.989c1.932-.788 3.834-1.086 5.821-.244q.274.118.535.263t.506.316.472.365.433.41.39.451q.184.236.343.488.159.253.292.52.133.268.239.547.107.287.185.583.077.297.124.6.047.302.063.608t.001.612-.061.609-.123.6q-.077.296-.183.584-.107.287-.242.562c-.925 1.919-2.365 2.751-4.3 3.444-1.462-.096-2.871-.178-4.205-.84-2.063-1.023-2.74-2.904-3.387-4.976.431-1.794 1.14-3.251 2.03-4.845.5-.099.687-.334 1.067-.657" style="stroke:none;stroke-width:1;stroke-dasharray:none;stroke-linecap:butt;stroke-dashoffset:0;stroke-linejoin:miter;stroke-miterlimit:4;fill:red;fill-rule:nonzero;opacity:1" transform="translate(-267.856 -268.123)scale(2.64)" vector-effect="non-scaling-stroke"/><path d="M165.7 360.51c-.715-1.653-.907-3.02-.439-4.792.396-1.499 1.278-2.692 2.677-3.396 1.481-.746 3.29-.797 4.853-.285 2.361.774 3.727 2.185 4.801 4.351-.062 2.198-.329 4.064-2.05 5.627-1.328 1.205-3.149 1.566-4.895 1.398-.945-.09-1.909-.395-2.799-.719-.659-.783-1.413-1.474-2.148-2.184" style="stroke:none;stroke-width:1;stroke-dasharray:none;stroke-linecap:butt;stroke-dashoffset:0;stroke-linejoin:miter;stroke-miterlimit:4;fill:red;fill-rule:nonzero;opacity:1" transform="translate(-267.692 -267.911)scale(2.64)" vector-effect="non-scaling-stroke"/><path d="M340.873 565.623c-.033-2.144.09-3.747 1.491-5.484 1.02-1.266 2.423-2.097 4.068-2.178 2.161-.107 3.771.926 5.357 2.267 1.012 1.463 1.544 3.204 1.26 4.996-.255 1.607-1.306 3.194-2.648 4.089q-.613.401-1.248.764c-1.303.315-2.428.45-3.739.073-2.307-.663-3.439-2.567-4.541-4.527" style="stroke:none;stroke-width:1;stroke-dasharray:none;stroke-linecap:butt;stroke-dashoffset:0;stroke-linejoin:miter;stroke-miterlimit:4;fill:red;fill-rule:nonzero;opacity:1" transform="translate(-267.89 -268.139)scale(2.64)" vector-effect="non-scaling-stroke"/><path d="M189.443 426.186c-.912-.719-1.837-1.547-2.447-2.546-.823-1.347-1.154-2.979-.733-4.519.411-1.505 1.519-2.756 2.888-3.474 2.381-1.25 4.456-.874 6.908-.188.572.954 1.817 1.626 2.219 2.622.635 1.571.438 3.644-.261 5.163-.778 1.695-2.175 2.899-3.928 3.507-1.763.611-3.022.211-4.646-.565" style="stroke:none;stroke-width:1;stroke-dasharray:none;stroke-linecap:butt;stroke-dashoffset:0;stroke-linejoin:miter;stroke-miterlimit:4;fill:red;fill-rule:nonzero;opacity:1" transform="translate(-267.707 -267.972)scale(2.64)" vector-effect="non-scaling-stroke"/><path d="M187.162 472.216c1.735.84 3.166 1.88 4.237 3.516-.87.754-.778 1.567-1.42 2.456.375 1.308.367 2.405.288 3.757-.957 1.821-2.006 2.971-3.621 4.223q-.485.13-.981.213c-1.679.294-2.989-.166-4.335-1.193-1.441-1.101-2.493-2.765-2.658-4.595-.246-2.724 1.047-3.247 2.551-5.126.072-.089.137-.183.206-.275 1.424-2.442 3.766-1.533 5.733-2.976" style="stroke:none;stroke-width:1;stroke-dasharray:none;stroke-linecap:butt;stroke-dashoffset:0;stroke-linejoin:miter;stroke-miterlimit:4;fill:red;fill-rule:nonzero;opacity:1" transform="translate(-267.703 -268.028)scale(2.64)" vector-effect="non-scaling-stroke"/><path d="M187.162 472.216c1.735.84 3.166 1.88 4.237 3.516-.87.754-.778 1.567-1.42 2.456-.691-1.062-1.556-2.061-2.664-2.703-1.905-1.106-3.846-.814-5.886-.293 1.424-2.442 3.766-1.533 5.733-2.976" style="stroke:none;stroke-width:1;stroke-dasharray:none;stroke-linecap:butt;stroke-dashoffset:0;stroke-linejoin:miter;stroke-miterlimit:4;fill:#431300;fill-rule:nonzero;opacity:1" transform="translate(-267.692 -268.018)scale(2.64)" vector-effect="non-scaling-stroke"/><path d="M198.169 490.726c2.33-.529 4.53-.581 6.653.696.901.542 1.833 1.323 2.442 2.182-.732 1.095-.518 2.307-1.236 3.412.37 1.453.47 2.476.169 3.945-.904 1.452-1.601 2.525-3.117 3.369l-1.005.444c-2.447.079-3.531-.405-5.56-1.611-.556-.789-1.062-1.564-1.381-2.483-.686-1.973-.201-3.571.66-5.389.478-.277.946-.749 1.381-1.101.164-.866.373-1.258.941-1.947.427-.516.556-.608.728-1.275z" style="stroke:none;stroke-width:1;stroke-dasharray:none;stroke-linecap:butt;stroke-dashoffset:0;stroke-linejoin:miter;stroke-miterlimit:4;fill:red;fill-rule:nonzero;opacity:1" transform="translate(-267.736 -268.061)scale(2.64)" vector-effect="non-scaling-stroke"/><path d="M198.169 490.726c2.33-.529 4.53-.581 6.653.696.901.542 1.833 1.323 2.442 2.182-.732 1.095-.518 2.307-1.236 3.412-.887-1.435-1.733-2.682-3.363-3.32-1.884-.737-3.694-.22-5.49.494.164-.866.373-1.258.941-1.947.427-.516.556-.608.728-1.275z" style="stroke:none;stroke-width:1;stroke-dasharray:none;stroke-linecap:butt;stroke-dashoffset:0;stroke-linejoin:miter;stroke-miterlimit:4;fill:#4a1300;fill-rule:nonzero;opacity:1" transform="translate(-267.73 -268.058)scale(2.64)" vector-effect="non-scaling-stroke"/><path d="M199.463 435.182c.98-.627 1.959-1.287 3.091-1.605 1.995-.562 3.399.173 5.107 1.154.525.668 1.335 1.975 2.098 2.356.397 1.962.798 3.812-.32 5.644-1.089 1.783-3.164 2.671-5.041 3.369-1.846.589-3.209.929-5.172.681l-.158-.076c-1.414-1.192-2.382-2.509-3.17-4.18.499-.892.167-1.737.05-2.683-.165-1.341.557-1.994 1.337-2.992l-.628 1.064c1.109-.461 1.396-2.369 2.806-2.732" style="stroke:none;stroke-width:1;stroke-dasharray:none;stroke-linecap:butt;stroke-dashoffset:0;stroke-linejoin:miter;stroke-miterlimit:4;fill:red;fill-rule:nonzero;opacity:1" transform="translate(-267.72 -267.987)scale(2.64)" vector-effect="non-scaling-stroke"/><path d="M195.898 442.525c.499-.892.167-1.737.05-2.683-.165-1.341.557-1.994 1.337-2.992l-.628 1.064c1.109-.461 1.396-2.369 2.806-2.732-.98 1.936-1.807 3.832-1.168 6.038.489 1.69 1.981 2.896 3.318 3.919l.362.279 2.423.682c-1.846.589-3.209.929-5.172.681l-.158-.076c-1.414-1.192-2.382-2.509-3.17-4.18" style="stroke:none;stroke-width:1;stroke-dasharray:none;stroke-linecap:butt;stroke-dashoffset:0;stroke-linejoin:miter;stroke-miterlimit:4;fill:#431300;fill-rule:nonzero;opacity:1" transform="translate(-267.726 -267.983)scale(2.64)" vector-effect="non-scaling-stroke"/><path d="M343.529 514.005c1.44-.115 3.515-.453 4.739.473q.026.023.047.049c2.374 1.503 3.523 2.738 4.396 5.472-.402 2.419-1.098 4.41-3.212 5.835-.754.508-1.633.827-2.474 1.162-2.05-.012-3.104-.326-4.863-1.385-1.29-.295-2.019-.747-3.074-1.517-.499-.364-.438-.265-1.011-.21-.202-.332-.171-.244-.302-.599-.774-2.091-.53-4.105.347-6.114l.336-.054c1.571-1.431 3.211-2.176 5.071-3.112" style="stroke:none;stroke-width:1;stroke-dasharray:none;stroke-linecap:butt;stroke-dashoffset:0;stroke-linejoin:miter;stroke-miterlimit:4;fill:red;fill-rule:nonzero;opacity:1" transform="translate(-267.886 -268.069)scale(2.64)" vector-effect="non-scaling-stroke"/><path d="M343.529 514.005c1.44-.115 3.515-.453 4.739.473q.026.023.047.049l-.482.043c-2.391.196-4.267-.286-6.061 1.743-1.237 1.399-1.52 3.309-1.344 5.11.156 1.592.778 2.924 1.734 4.188-1.29-.295-2.019-.747-3.074-1.517-.499-.364-.438-.265-1.011-.21-.202-.332-.171-.244-.302-.599-.774-2.091-.53-4.105.347-6.114l.336-.054c1.571-1.431 3.211-2.176 5.071-3.112" style="stroke:none;stroke-width:1;stroke-dasharray:none;stroke-linecap:butt;stroke-dashoffset:0;stroke-linejoin:miter;stroke-miterlimit:4;fill:#4a1300;fill-rule:nonzero;opacity:1" transform="translate(-267.878 -268.077)scale(2.64)" vector-effect="non-scaling-stroke"/><path d="M237.986 487.108c.138-1.277.253-2.577.69-3.793.814-2.267 2.174-4.986 4.539-5.954 1.365-.559 3.013-.312 4.346.199l-.092.29c2.381.923 3.962 1.891 5.059 4.271.214.465.378.933.534 1.42-.181 2.022-.612 3.573-2.21 4.939-1.492 1.276-3.516 1.801-5.435 1.942-2.397.558-3.736-.637-6.019-.875-.714-.571-1.118-1.604-1.412-2.439" style="stroke:none;stroke-width:1;stroke-dasharray:none;stroke-linecap:butt;stroke-dashoffset:0;stroke-linejoin:miter;stroke-miterlimit:4;fill:red;fill-rule:nonzero;opacity:1" transform="translate(-267.763 -268.048)scale(2.64)" vector-effect="non-scaling-stroke"/><path d="M237.986 487.108c.138-1.277.253-2.577.69-3.793.814-2.267 2.174-4.986 4.539-5.954 1.365-.559 3.013-.312 4.346.199l-.092.29c-2.155.065-3.97.628-5.486 2.243q-.225.237-.425.496t-.37.538q-.171.278-.312.573-.14.296-.249.604t-.184.626q-.076.318-.118.642-.042.325-.049.651-.008.327.019.653c.15 1.653 1.052 3.132 2.328 4.167.81.657 1.803 1.08 2.794 1.379-2.397.558-3.736-.637-6.019-.875-.714-.571-1.118-1.604-1.412-2.439" style="stroke:none;stroke-width:1;stroke-dasharray:none;stroke-linecap:butt;stroke-dashoffset:0;stroke-linejoin:miter;stroke-miterlimit:4;fill:#431300;fill-rule:nonzero;opacity:1" transform="translate(-267.763 -268.048)scale(2.64)" vector-effect="non-scaling-stroke"/><path d="M167.125 375.99c.534-.047.683-.136 1.111-.479 1.948-1.56 4.193-3.254 6.636-3.907 1.183-.316 2.528-.391 3.573.375 1.084.795 1.777 2.071 2.029 3.357.78 2.242 1.376 4.583.229 6.827-.785 1.537-2.347 2.33-3.951 2.773-.846.234-1.752.318-2.625.358-1.623-.012-3.403-.182-5 .057-.988-1.121-1.854-2.357-2.371-3.77-.72-1.973-.525-3.722.369-5.591" style="stroke:none;stroke-width:1;stroke-dasharray:none;stroke-linecap:butt;stroke-dashoffset:0;stroke-linejoin:miter;stroke-miterlimit:4;fill:red;fill-rule:nonzero;opacity:1" transform="translate(-267.691 -267.91)scale(2.64)" vector-effect="non-scaling-stroke"/><path d="M167.125 375.99c.534-.047.683-.136 1.111-.479 1.948-1.56 4.193-3.254 6.636-3.907 1.183-.316 2.528-.391 3.573.375 1.084.795 1.777 2.071 2.029 3.357-2.043-1.365-3.946-2.306-6.488-1.79-1.506.305-2.9 1.206-3.727 2.511q-.153.24-.281.495-.127.255-.227.522-.101.267-.173.542-.072.276-.115.558t-.057.566.003.57q.016.284.061.565.046.282.12.557c.563 2.1 2.182 3.63 4.055 4.616q.24.125.482.246c-1.623-.012-3.403-.182-5 .057-.988-1.121-1.854-2.357-2.371-3.77-.72-1.973-.525-3.722.369-5.591" style="stroke:none;stroke-width:1;stroke-dasharray:none;stroke-linecap:butt;stroke-dashoffset:0;stroke-linejoin:miter;stroke-miterlimit:4;fill:#4a1300;fill-rule:nonzero;opacity:1" transform="translate(-267.706 -267.91)scale(2.64)" vector-effect="non-scaling-stroke"/><path d="M212.051 452.542c1.662-1.334 3.349-2.323 5.572-2.057 1.985.238 3.746 1.8 4.845 3.385.335.482.626.996.913 1.508.748.778 1.187 1.339 1.18 2.464-.007 1.061-.388 2.038-.976 2.909-1.671 1.594-3.594 3.563-6.065 3.548-.893-.006-1.623-.164-2.4-.61-.214-.07-.426-.143-.642-.205-1.37-.392-1.781-.537-3.179-.232a12.5 12.5 0 0 1-1.605-1.804c-1.488-2.028-1.953-4.393-1.489-6.835 1.319-.549 2.435-1.848 3.846-2.071" style="stroke:none;stroke-width:1;stroke-dasharray:none;stroke-linecap:butt;stroke-dashoffset:0;stroke-linejoin:miter;stroke-miterlimit:4;fill:red;fill-rule:nonzero;opacity:1" transform="translate(-267.752 -268.007)scale(2.64)" vector-effect="non-scaling-stroke"/><path d="M208.205 454.613c1.319-.549 2.435-1.848 3.846-2.071-.851 1.699-1.77 3.451-1.084 5.39.674 1.908 2.319 3.283 3.83 4.528.455.083.909.153 1.371.189 1.824.14 3.685-.422 5.044-1.678 1.685-1.557 2.122-3.387 2.169-5.593.748.778 1.187 1.339 1.18 2.464-.007 1.061-.388 2.038-.976 2.909-1.671 1.594-3.594 3.563-6.065 3.548-.893-.006-1.623-.164-2.4-.61-.214-.07-.426-.143-.642-.205-1.37-.392-1.781-.537-3.179-.232a12.5 12.5 0 0 1-1.605-1.804c-1.488-2.028-1.953-4.393-1.489-6.835" style="stroke:none;stroke-width:1;stroke-dasharray:none;stroke-linecap:butt;stroke-dashoffset:0;stroke-linejoin:miter;stroke-miterlimit:4;fill:#4a1300;fill-rule:nonzero;opacity:1" transform="translate(-267.752 -268.009)scale(2.64)" vector-effect="non-scaling-stroke"/><path d="M146.534 443.12q-.335-.996-.387-2.045c-.135-2.323.806-4.426 2.413-6.066 2.163-2.207 4.647-2.991 7.668-2.962.204.403.39.806.58 1.215.378.815 1.032 1.386 1.347 2.244 1.619 1.411 2.871 2.76 3.053 4.998.113 1.395-.372 2.652-1.28 3.703-1.001 1.157-2.103 1.715-3.54 2.159l.137.561-.382.491c-.959.332-1.726.443-2.742.307-1.823-.244-3.935-1.651-4.98-3.15-.38-.544-.754-.975-1.218-1.451z" style="stroke:none;stroke-width:1;stroke-dasharray:none;stroke-linecap:butt;stroke-dashoffset:0;stroke-linejoin:miter;stroke-miterlimit:4;fill:red;fill-rule:nonzero;opacity:1" transform="translate(-267.675 -267.982)scale(2.64)" vector-effect="non-scaling-stroke"/><path d="M146.534 443.12q-.335-.996-.387-2.045c-.135-2.323.806-4.426 2.413-6.066 2.163-2.207 4.647-2.991 7.668-2.962.204.403.39.806.58 1.215.378.815 1.032 1.386 1.347 2.244-1.807-.707-3.395-1.005-5.241-.213q-.277.12-.541.268-.264.147-.511.321t-.476.372q-.228.197-.435.418t-.391.46q-.183.24-.341.497t-.29.53-.234.556q-.104.275-.179.56-.074.285-.118.577-.043.291-.056.585-.012.294.007.588t.07.584q.05.291.132.574.081.283.192.556t.25.532c.827 1.509 2.401 2.566 4.064 2.946.766.175 1.55.163 2.331.149l.137.561-.382.491c-.959.332-1.726.443-2.742.307-1.823-.244-3.935-1.651-4.98-3.15-.38-.544-.754-.975-1.218-1.451z" style="stroke:none;stroke-width:1;stroke-dasharray:none;stroke-linecap:butt;stroke-dashoffset:0;stroke-linejoin:miter;stroke-miterlimit:4;fill:#431300;fill-rule:nonzero;opacity:1" transform="translate(-267.66 -267.982)scale(2.64)" vector-effect="non-scaling-stroke"/><path d="M174.068 397.636c.473-.269.351-.14.648-.487 1.303-1.519 3.267-3.322 5.211-3.94 1.992-.633 3.71.525 5.403 1.422l-.02.487c1.596 1.053 2.699 1.894 3.133 3.838.363 1.625 0 3.24-.9 4.626-.832 1.281-2.038 2.305-3.399 2.988-.536.959-.538 1.224-1.582 1.661-.71-.11-2.674-.61-3.207-.196-.108.084-.526.605-.623.723-.823-.591-1.597-1.278-2.382-1.918-2.026-2.257-2.598-4.252-2.842-7.196.11-.729.306-1.322.56-2.008" style="stroke:none;stroke-width:1;stroke-dasharray:none;stroke-linecap:butt;stroke-dashoffset:0;stroke-linejoin:miter;stroke-miterlimit:4;fill:red;fill-rule:nonzero;opacity:1" transform="translate(-267.712 -267.94)scale(2.64)" vector-effect="non-scaling-stroke"/><path d="M174.068 397.636c.473-.269.351-.14.648-.487 1.303-1.519 3.267-3.322 5.211-3.94 1.992-.633 3.71.525 5.403 1.422l-.02.487c-2.347-.428-4.755-.438-6.812.959-1.132.769-1.944 1.926-2.203 3.276-.337 1.758.289 3.621 1.372 5.009 1.02 1.309 2.587 2.263 4.241 2.485.766.103 1.494-.114 2.236-.277-.536.959-.538 1.224-1.582 1.661-.71-.11-2.674-.61-3.207-.196-.108.084-.526.605-.623.723-.823-.591-1.597-1.278-2.382-1.918-2.026-2.257-2.598-4.252-2.842-7.196.11-.729.306-1.322.56-2.008" style="stroke:none;stroke-width:1;stroke-dasharray:none;stroke-linecap:butt;stroke-dashoffset:0;stroke-linejoin:miter;stroke-miterlimit:4;fill:#431300;fill-rule:nonzero;opacity:1" transform="translate(-267.699 -267.94)scale(2.64)" vector-effect="non-scaling-stroke"/><path d="M159.81 458.682c.359-1.894 1.399-3.74 2.941-4.923 2.521-1.931 5.454-1.904 8.439-1.475 1.107 1.369 2.981 3.163 2.901 5.016-.003.084-.018.166-.028.25.559 1.773.963 3.498.101 5.254-.842 1.717-2.612 2.63-4.319 3.279-.027.01-.052.025-.08.031-2.699.557-4.61 1.528-6.974-.527-.607-.527-1.143-1.181-1.865-1.552-.117-.061-.238-.116-.357-.174-.071-.067-.159-.119-.211-.201-.884-1.384-.689-3.431-.548-4.978" style="stroke:none;stroke-width:1;stroke-dasharray:none;stroke-linecap:butt;stroke-dashoffset:0;stroke-linejoin:miter;stroke-miterlimit:4;fill:red;fill-rule:nonzero;opacity:1" transform="translate(-267.669 -268.002)scale(2.64)" vector-effect="non-scaling-stroke"/><path d="M159.81 458.682c.101.789.054 1.504.533 2.151.635-.52 1.257-1.125 2.023-1.44.22 1.84.65 3.469 2.12 4.72 1.572 1.339 3.374 1.72 5.359 1.97-.027.01-.052.025-.08.031-2.699.557-4.61 1.528-6.974-.527-.607-.527-1.143-1.181-1.865-1.552-.117-.061-.238-.116-.357-.174-.071-.067-.159-.119-.211-.201-.884-1.384-.689-3.431-.548-4.978" style="stroke:none;stroke-width:1;stroke-dasharray:none;stroke-linecap:butt;stroke-dashoffset:0;stroke-linejoin:miter;stroke-miterlimit:4;fill:#431300;fill-rule:nonzero;opacity:1" transform="translate(-267.693 -268.016)scale(2.64)" vector-effect="non-scaling-stroke"/><path d="M159.81 458.682c.359-1.894 1.399-3.74 2.941-4.923 2.521-1.931 5.454-1.904 8.439-1.475 1.107 1.369 2.981 3.163 2.901 5.016-.003.084-.018.166-.028.25-1.532-1.75-2.839-2.956-5.287-3.059-1.742-.073-3.281.581-4.544 1.759-1.011.943-1.464 1.84-1.866 3.143-.766.315-1.388.92-2.023 1.44-.479-.647-.432-1.362-.533-2.151" style="stroke:none;stroke-width:1;stroke-dasharray:none;stroke-linecap:butt;stroke-dashoffset:0;stroke-linejoin:miter;stroke-miterlimit:4;fill:#431300;fill-rule:nonzero;opacity:1" transform="translate(-267.678 -268.012)scale(2.64)" vector-effect="non-scaling-stroke"/><path d="M317.973 518.738c.082-.871.165-1.797.435-2.631.52-1.608 1.717-3.076 3.262-3.787 1.44-.664 3.031-.6 4.483-.003 2.453 1.009 3.687 2.762 4.64 5.136 1.293 1.715.354 3.768 1.092 5.851-1.776 2.273-4.019 3.847-6.945 4.219-2.159.274-4.194-.244-5.905-1.601-.551-.437-1.239-1.088-1.585-1.706-.101-1.829.284-3.668.523-5.478" style="stroke:none;stroke-width:1;stroke-dasharray:none;stroke-linecap:butt;stroke-dashoffset:0;stroke-linejoin:miter;stroke-miterlimit:4;fill:red;fill-rule:nonzero;opacity:1" transform="translate(-267.862 -268.08)scale(2.64)" vector-effect="non-scaling-stroke"/><path d="M330.793 517.453c1.293 1.715.354 3.768 1.092 5.851-1.776 2.273-4.019 3.847-6.945 4.219-2.159.274-4.194-.244-5.905-1.601-.551-.437-1.239-1.088-1.585-1.706-.101-1.829.284-3.668.523-5.478.305 1.324.635 2.552 1.474 3.651q.177.234.377.448.201.214.423.406t.462.36.497.31q.256.142.526.257t.551.201q.28.085.568.142t.58.082c1.84.157 3.701-.537 5.063-1.77 1.696-1.534 2.216-3.148 2.299-5.372" style="stroke:none;stroke-width:1;stroke-dasharray:none;stroke-linecap:butt;stroke-dashoffset:0;stroke-linejoin:miter;stroke-miterlimit:4;fill:#371502;fill-rule:nonzero;opacity:1" transform="translate(-267.862 -268.073)scale(2.64)" vector-effect="non-scaling-stroke"/><path d="M279.403 543.632c2.229-.768 4.049-.665 6.183.372.482.233.886.503 1.313.822-.122 1.789 1.058 3.182 1.019 5.018.209 1.96.45 3.811-.9 5.431-.695.834-1.523 1.442-2.413 2.05l-.608.725c-.849.366-1.674.727-2.613.751-3.014.076-5.483-2.314-7.489-4.272-.04-.098-.086-.194-.121-.294-.647-1.87-.599-3.959.229-5.764 1.108-2.415 2.983-3.877 5.4-4.839" style="stroke:none;stroke-width:1;stroke-dasharray:none;stroke-linecap:butt;stroke-dashoffset:0;stroke-linejoin:miter;stroke-miterlimit:4;fill:red;fill-rule:nonzero;opacity:1" transform="translate(-267.824 -268.12)scale(2.64)" vector-effect="non-scaling-stroke"/><path d="M279.403 543.632c2.229-.768 4.049-.665 6.183.372.482.233.886.503 1.313.822-.122 1.789 1.058 3.182 1.019 5.018-.926-1.292-1.846-2.383-3.285-3.122-2.032-1.044-3.774-.709-5.832.014.206-.33.536-.784.663-1.165.243-.735.2-1.233-.061-1.939" style="stroke:none;stroke-width:1;stroke-dasharray:none;stroke-linecap:butt;stroke-dashoffset:0;stroke-linejoin:miter;stroke-miterlimit:4;fill:#431300;fill-rule:nonzero;opacity:1" transform="translate(-267.81 -268.114)scale(2.64)" vector-effect="non-scaling-stroke"/><path d="M273.895 554.529c-.04-.098-.086-.194-.121-.294-.647-1.87-.599-3.959.229-5.764 1.108-2.415 2.983-3.877 5.4-4.839.261.706.304 1.204.061 1.939-.127.381-.457.835-.663 1.165-1.467 1.417-2.525 2.656-2.616 4.775-.068 1.579.355 3.057 1.485 4.201 1.277 1.293 3.114 1.879 4.901 1.831.69-.018 1.355-.101 2.034-.218l-.608.725c-.849.366-1.674.727-2.613.751-3.014.076-5.483-2.314-7.489-4.272" style="stroke:none;stroke-width:1;stroke-dasharray:none;stroke-linecap:butt;stroke-dashoffset:0;stroke-linejoin:miter;stroke-miterlimit:4;fill:#4a1300;fill-rule:nonzero;opacity:1" transform="translate(-267.82 -268.12)scale(2.64)" vector-effect="non-scaling-stroke"/><path d="m275.036 503.897.37-.259c.344-.242.654-.5.973-.773 2.1-1.802 5.014-4.182 7.941-3.96 1.596.12 4.129.997 5.136 2.304.551.714.779 1.552.662 2.445-.046.355-.169.73-.265 1.071.175 2.154-.135 4.013-1.566 5.711-1.141 1.353-2.473 2.118-4.05 2.871q-.22.102-.441.201c-1.228.541-2.355.294-3.199 1.487-.304-.092-.439-.124-.715-.236-2.169-.883-3.929-2.839-4.809-4.978-.794-1.931-.809-3.949-.037-5.884" style="stroke:none;stroke-width:1;stroke-dasharray:none;stroke-linecap:butt;stroke-dashoffset:0;stroke-linejoin:miter;stroke-miterlimit:4;fill:red;fill-rule:nonzero;opacity:1" transform="translate(-267.818 -268.052)scale(2.64)" vector-effect="non-scaling-stroke"/><path d="m275.036 503.897.37-.259c.344-.242.654-.5.973-.773 2.1-1.802 5.014-4.182 7.941-3.96 1.596.12 4.129.997 5.136 2.304.551.714.779 1.552.662 2.445-.046.355-.169.73-.265 1.071-1.148-1.926-2.416-3.452-4.691-4.039-1.581-.407-3.312-.07-4.691.779q-.275.168-.532.364-.256.196-.49.418t-.444.467-.393.511-.337.549q-.154.284-.278.582t-.215.607-.151.627c-.319 1.655-.01 3.483.996 4.856 1.115 1.524 3.23 2.59 5.086 2.809.174.02.349.034.524.052q-.22.102-.441.201c-1.228.541-2.355.294-3.199 1.487-.304-.092-.439-.124-.715-.236-2.169-.883-3.929-2.839-4.809-4.978-.794-1.931-.809-3.949-.037-5.884" style="stroke:none;stroke-width:1;stroke-dasharray:none;stroke-linecap:butt;stroke-dashoffset:0;stroke-linejoin:miter;stroke-miterlimit:4;fill:#4a1300;fill-rule:nonzero;opacity:1" transform="translate(-267.818 -268.052)scale(2.64)" vector-effect="non-scaling-stroke"/><path d="M259.137 489.069c1.834.419 3.866-1.56 5.716-1.919 1.217-.236 1.937.084 2.929.721 3.618 3.435 4.133 6.752 6.226 10.997-1.368 2.635-3.153 4.523-6.043 5.466-2.161.706-4.795.634-6.816-.469-1.172-.64-2.869-2.032-3.43-3.267-.064-.068-.134-.133-.193-.206-1.31-1.626-1.631-4.129-1.367-6.142.284-2.161 1.247-3.865 2.978-5.181" style="stroke:none;stroke-width:1;stroke-dasharray:none;stroke-linecap:butt;stroke-dashoffset:0;stroke-linejoin:miter;stroke-miterlimit:4;fill:#431300;fill-rule:nonzero;opacity:1" transform="translate(-267.796 -268.045)scale(2.64)" vector-effect="non-scaling-stroke"/><path d="M259.137 489.069c1.834.419 3.866-1.56 5.716-1.919 1.217-.236 1.937.084 2.929.721-2.882-.148-4.656.771-6.792 2.705-1.67 1.513-3.842 3.823-3.913 6.187-.04 1.347.764 2.393.642 3.835-.064-.068-.134-.133-.193-.206-1.31-1.626-1.631-4.129-1.367-6.142.284-2.161 1.247-3.865 2.978-5.181" style="stroke:none;stroke-width:1;stroke-dasharray:none;stroke-linecap:butt;stroke-dashoffset:0;stroke-linejoin:miter;stroke-miterlimit:4;fill:#301504;fill-rule:nonzero;opacity:1" transform="translate(-267.795 -268.058)scale(2.64)" vector-effect="non-scaling-stroke"/><path d="M263.642 489.531c.904-.105 1.855-.211 2.757-.028 1.731.351 3.38 1.463 4.3 2.975q.153.25.28.515.127.264.227.54t.171.56q.072.285.114.575t.055.583-.004.586q-.016.293-.063.583-.046.289-.121.573c-.628 2.319-2.33 3.47-4.303 4.621-.9.227-1.739.379-2.67.236-1.577-.242-3.104-1.003-4.055-2.307q-.185-.254-.343-.526t-.286-.559-.227-.586-.166-.606q-.066-.308-.101-.62-.035-.313-.037-.627-.002-.315.029-.628.03-.313.093-.621c.547-2.585 2.25-3.898 4.35-5.239" style="stroke:none;stroke-width:1;stroke-dasharray:none;stroke-linecap:butt;stroke-dashoffset:0;stroke-linejoin:miter;stroke-miterlimit:4;fill:red;fill-rule:nonzero;opacity:1" transform="translate(-267.79 -268.036)scale(2.64)" vector-effect="non-scaling-stroke"/><path d="M144.676 411.54c1.654-.074 3.668.438 5.125 1.22q.375.2.728.437.354.237.68.509t.625.576q.297.304.561.637.265.334.494.692t.42.738.342.778q.151.397.261.808.106.41.17.828.063.419.083.841.02.423-.004.846-.025.422-.092.84-.068.418-.179.826-.111.409-.263.803t-.345.772q-.192.377-.423.732c-1.567 2.451-3.953 3.78-6.747 4.342-1.822.168-3.64-.168-5.248-1.053-2.053-1.129-3.43-3.061-3.995-5.321q-.111-.425-.177-.859t-.088-.873.002-.877.091-.873.181-.858q.112-.425.267-.836t.351-.803.432-.764c1.649-2.556 3.937-3.447 6.748-4.108" style="stroke:none;stroke-width:1;stroke-dasharray:none;stroke-linecap:butt;stroke-dashoffset:0;stroke-linejoin:miter;stroke-miterlimit:4;fill:#371502;fill-rule:nonzero;opacity:1" transform="translate(-267.653 -267.969)scale(2.64)" vector-effect="non-scaling-stroke"/><path d="M144.148 414.522c1.086-.031 2.139-.066 3.184.276 1.491.489 2.81 1.506 3.503 2.933.621 1.28.661 2.714.178 4.044-.736 2.021-2.288 3.108-4.14 4.03-1.24.23-2.426.269-3.613-.23q-.274-.113-.536-.252-.261-.14-.508-.304-.246-.165-.475-.354t-.437-.399-.396-.44-.35-.478q-.163-.247-.301-.51-.137-.262-.248-.537-.109-.263-.192-.536-.082-.273-.137-.553-.055-.279-.082-.563t-.026-.569q.002-.285.031-.569.03-.283.087-.562.058-.279.143-.552.085-.272.196-.534c.813-1.924 2.267-2.617 4.119-3.341" style="stroke:none;stroke-width:1;stroke-dasharray:none;stroke-linecap:butt;stroke-dashoffset:0;stroke-linejoin:miter;stroke-miterlimit:4;fill:red;fill-rule:nonzero;opacity:1" transform="translate(-267.674 -267.974)scale(2.64)" vector-effect="non-scaling-stroke"/><path d="M134.036 390.086c2.983-.314 5.769-.33 8.27 1.62 1.887 1.471 3.383 4.058 3.589 6.455.179 2.075-.638 4.054-1.992 5.599q-.315.359-.664.684t-.729.614-.788.537-.838.455-.88.367q-.449.162-.912.277t-.936.184q-.472.068-.949.088c-2.431.09-4.988-.747-6.729-2.482-1.759-1.752-2.402-4.226-2.366-6.651.012-.748.079-1.473.19-2.212 1.434-2.899 2.904-4.125 5.734-5.535" style="stroke:none;stroke-width:1;stroke-dasharray:none;stroke-linecap:butt;stroke-dashoffset:0;stroke-linejoin:miter;stroke-miterlimit:4;fill:#301504;fill-rule:nonzero;opacity:1" transform="translate(-267.663 -267.938)scale(2.64)" vector-effect="non-scaling-stroke"/><path d="M134.036 390.086c.628.055 1.48-.001 2.003.349-.656.518-1.303 1.046-1.963 1.559-1.887 1.466-3.041 5.011-5.402 5.41-.326-.689-.317-1.032-.372-1.783 1.434-2.899 2.904-4.125 5.734-5.535" style="stroke:none;stroke-width:1;stroke-dasharray:none;stroke-linecap:butt;stroke-dashoffset:0;stroke-linejoin:miter;stroke-miterlimit:4;fill:#181221;fill-rule:nonzero;opacity:1" transform="translate(-267.649 -267.95)scale(2.64)" vector-effect="non-scaling-stroke"/><path d="M130.858 398.923c.406-2.18.959-4.203 2.903-5.534 1.204-.825 2.697-1.083 4.122-.809q.34.069.671.172.332.103.651.239t.622.304q.304.168.589.365.285.198.549.424.263.225.503.476.239.251.452.526.212.274.396.568c.752 1.207 1.065 2.632.704 4.024-.584 2.256-2.492 3.627-4.433 4.677-1.539.266-2.743.196-4.143-.571-1.906-1.045-2.965-2.845-3.586-4.861" style="stroke:none;stroke-width:1;stroke-dasharray:none;stroke-linecap:butt;stroke-dashoffset:0;stroke-linejoin:miter;stroke-miterlimit:4;fill:red;fill-rule:nonzero;opacity:1" transform="translate(-267.646 -267.954)scale(2.64)" vector-effect="non-scaling-stroke"/><path d="M139.763 375.998c.02.52.036 1.05-.028 1.568q-.052.435-.148.863-.096.427-.235.843-.139.415-.32.814-.182.399-.403.777-.221.379-.48.732-.259.354-.552.679t-.62.618q-.325.294-.679.552c-2.116 1.514-4.872 2.198-7.44 1.728-2.498-.457-4.869-1.998-6.233-4.15-1.122-1.772-1.396-3.843-.854-5.862.652-2.429 2.322-4.586 4.556-5.76 1.801-.947 4.288-1.306 6.241-.688 2.386.476 4.424 1.294 5.79 3.425.763 1.19 1.128 2.49 1.405 3.861" style="stroke:none;stroke-width:1;stroke-dasharray:none;stroke-linecap:butt;stroke-dashoffset:0;stroke-linejoin:miter;stroke-miterlimit:4;fill:#371502;fill-rule:nonzero;opacity:1" transform="translate(-267.64 -267.91)scale(2.64)" vector-effect="non-scaling-stroke"/><path d="M132.568 368.712c2.386.476 4.424 1.294 5.79 3.425.763 1.19 1.128 2.49 1.405 3.861-.085.276-.231.476-.386.718l-.382-.439c-.06-.508-.123-1.055-.308-1.535-.463-1.202-3.443-4.514-4.588-5.03a4.9 4.9 0 0 1-1.117-.665z" style="stroke:none;stroke-width:1;stroke-dasharray:none;stroke-linecap:butt;stroke-dashoffset:0;stroke-linejoin:miter;stroke-miterlimit:4;fill:#301504;fill-rule:nonzero;opacity:1" transform="translate(-267.659 -267.904)scale(2.64)" vector-effect="non-scaling-stroke"/><path d="M128.717 371.514c1.302-.139 2.718-.307 3.998.032 1.476.39 2.904 1.343 3.663 2.689q.122.217.221.445.099.227.174.464t.126.48q.05.244.076.491t.026.495-.025.496-.075.491-.125.48c-.67 2.171-2.379 3.4-4.284 4.429-1.103.226-2.231.41-3.337.107-1.531-.418-2.92-1.541-3.698-2.918-.802-1.421-1.023-3.08-.504-4.638.629-1.888 2.056-2.735 3.764-3.543" style="stroke:none;stroke-width:1;stroke-dasharray:none;stroke-linecap:butt;stroke-dashoffset:0;stroke-linejoin:miter;stroke-miterlimit:4;fill:red;fill-rule:nonzero;opacity:1" transform="translate(-267.658 -267.918)scale(2.64)" vector-effect="non-scaling-stroke"/><path d="M300.252 506.208c2.111-.536 3.843-.579 5.986-.211 1.79.667 3.435 1.679 4.688 3.144 1.644 1.923 2.186 4.487 1.859 6.961q-.059.431-.162.855-.102.423-.246.834t-.33.805-.408.768q-.224.373-.484.723-.26.349-.554.67t-.619.612q-.325.29-.677.546c-1.978 1.463-4.296 2.237-6.76 1.824-2.524-.424-4.801-2.017-6.192-4.148-1.391-2.129-1.764-4.703-1.155-7.162.722-2.914 2.55-4.727 5.054-6.221" style="stroke:none;stroke-width:1;stroke-dasharray:none;stroke-linecap:butt;stroke-dashoffset:0;stroke-linejoin:miter;stroke-miterlimit:4;fill:#431300;fill-rule:nonzero;opacity:1" transform="translate(-267.846 -268.062)scale(2.64)" vector-effect="non-scaling-stroke"/><path d="M300.252 506.208c2.111-.536 3.843-.579 5.986-.211.663 1.167 1.705 2.619 1.527 3.999-.671-.464-1.32-.852-2.095-1.122-1.957-.682-3.58-.078-5.339.821-.678-1.045-.251-2.3-.079-3.487" style="stroke:none;stroke-width:1;stroke-dasharray:none;stroke-linecap:butt;stroke-dashoffset:0;stroke-linejoin:miter;stroke-miterlimit:4;fill:#4a1300;fill-rule:nonzero;opacity:1" transform="translate(-267.827 -268.073)scale(2.64)" vector-effect="non-scaling-stroke"/><path d="M300.331 509.695c1.759-.899 3.382-1.503 5.339-.821.775.27 1.424.658 2.095 1.122 1.278 1.386 1.933 2.578 2.105 4.508.134 1.504-.2 2.864-1.201 4.021-1.153 1.333-2.927 2.197-4.695 2.221-1.773.025-3.564-.774-4.829-1.998-1.009-.977-1.623-2.25-1.596-3.669.045-2.332 1.215-3.795 2.782-5.384" style="stroke:none;stroke-width:1;stroke-dasharray:none;stroke-linecap:butt;stroke-dashoffset:0;stroke-linejoin:miter;stroke-miterlimit:4;fill:red;fill-rule:nonzero;opacity:1" transform="translate(-267.83 -268.062)scale(2.64)" vector-effect="non-scaling-stroke"/><path d="M224.458 464.143c2.209-1.522 5.261-2.507 7.951-2 2.269.427 4.173 1.858 5.384 3.804q.258.414.475.851t.387.893q.172.457.298.928t.204.953.109.968.012.974-.085.971-.18.957c-.569 2.33-1.946 4.438-4.017 5.69-2.033 1.229-4.743 1.551-7.024.949-1.945-.825-3.539-2.014-4.761-3.753-1.496-2.131-2.359-4.967-1.853-7.567.387-1.986 1.464-3.483 3.1-4.618" style="stroke:none;stroke-width:1;stroke-dasharray:none;stroke-linecap:butt;stroke-dashoffset:0;stroke-linejoin:miter;stroke-miterlimit:4;fill:#431300;fill-rule:nonzero;opacity:1" transform="translate(-267.75 -268.022)scale(2.64)" vector-effect="non-scaling-stroke"/><path d="M229.143 463.202c1.358-.109 2.118-.065 3.315.597q.164.087.326.177c.92.528 1.52 1.281 2.175 2.097l.002.703q-.475-.333-.979-.622c-2.378-1.383-4.275-1.092-6.793-.455.177-.978 1.261-1.807 1.954-2.497" style="stroke:none;stroke-width:1;stroke-dasharray:none;stroke-linecap:butt;stroke-dashoffset:0;stroke-linejoin:miter;stroke-miterlimit:4;fill:#4a1300;fill-rule:nonzero;opacity:1" transform="translate(-267.745 -268.03)scale(2.64)" vector-effect="non-scaling-stroke"/><path d="M227.189 465.699c2.518-.637 4.415-.928 6.793.455q.504.289.979.622c1.134 1.722 1.905 3.218 1.48 5.337-.46 2.288-2.193 3.794-4.044 5.001-.167.109-.33.224-.495.336-.574.061-1.151.1-1.729.09-1.589-.028-3.248-.812-4.314-1.995-1.122-1.245-1.619-2.963-1.544-4.616.108-2.403 1.118-3.699 2.874-5.23" style="stroke:none;stroke-width:1;stroke-dasharray:none;stroke-linecap:butt;stroke-dashoffset:0;stroke-linejoin:miter;stroke-miterlimit:4;fill:red;fill-rule:nonzero;opacity:1" transform="translate(-267.745 -268.014)scale(2.64)" vector-effect="non-scaling-stroke"/><path d="m362.251 104.294.59.223c.415.735.461.891.467 1.734-.558.816-.859.84-1.789 1.201-2.719 1.054-5.613 1.801-8.396 2.693q-7.704 2.492-15.375 5.083l-75.904 25.93c-10.821 3.773-21.861 6.94-32.465 11.305-.238-.242-.661-.608-.842-.915-.405-.689-.313-.855-.09-1.561.446-.383.819-.643 1.376-.854 7.254-2.761 14.883-4.924 22.245-7.412l38.999-13.389 43.826-14.81c9.104-3.096 18.176-6.381 27.358-9.228" style="stroke:none;stroke-width:1;stroke-dasharray:none;stroke-linecap:butt;stroke-dashoffset:0;stroke-linejoin:miter;stroke-miterlimit:4;fill:#fff;fill-rule:nonzero;opacity:1" transform="translate(-267.82 -267.643)scale(2.64)" vector-effect="non-scaling-stroke"/><path d="M566.586 537.449c7.978 3.113 16.244 6.236 23.887 10.096-8.034 2.659-16.067 5.344-24.231 7.573l.025-7.067c-16.85-.535-33.821-.012-50.685-.029l-17.32-.044c-3.745-.008-7.806-.269-11.507.348-.089-.971-.012-1.956.022-2.929l79.76-.107c0-2.612-.034-5.23.049-7.841" style="stroke:none;stroke-width:1;stroke-dasharray:none;stroke-linecap:butt;stroke-dashoffset:0;stroke-linejoin:miter;stroke-miterlimit:4;fill:snow;fill-rule:nonzero;opacity:1" transform="translate(-268.088 -268.1)scale(2.64)" vector-effect="non-scaling-stroke"/><path d="M403.169 554.089c-.192.819-.237 1.719-.334 2.558l-.245.288.095.402c-.368-7.912-.485-18.061-.015-25.932l.204.097.393 1.271c2.061.769 19.318.11 22.754-.029l.092 2.755-.044 16.511-.006 2.101c-7.62-.153-15.288.319-22.894-.022" style="stroke:none;stroke-width:1;stroke-dasharray:none;stroke-linecap:butt;stroke-dashoffset:0;stroke-linejoin:miter;stroke-miterlimit:4;fill:#fff;fill-rule:nonzero;opacity:1" transform="translate(-267.964 -268.107)scale(2.64)" vector-effect="non-scaling-stroke"/><path d="M242.252 367.07c3.137 2.426 13.177 16.609 16.425 20.7-2.907.578-5.76 1.223-8.625 1.984 6.558 23.641 17.869 47.36 35.94 64.433 3.029 2.862 6.337 5.358 9.659 7.862.323.209.46.411.69.714-.179 1.053-1.017 1.707-1.728 2.445-24.153-17.526-40.362-46.17-47.175-74.853-2.712.846-5.69 1.257-8.516 1.532.455-4.313 1.173-8.594 1.734-12.894.52-3.978.86-7.976 1.596-11.923" style="stroke:none;stroke-width:1;stroke-dasharray:none;stroke-linecap:butt;stroke-dashoffset:0;stroke-linejoin:miter;stroke-miterlimit:4;fill:#fff;fill-rule:nonzero;opacity:1" transform="translate(-267.793 -267.97)scale(2.64)" vector-effect="non-scaling-stroke"/><path d="M35.295 253.804c8.306.293 16.715.004 25.03-.003 3.737-.003 8.04-.411 11.687.369l.573 1.14c1.311 5.338 3.827 9.491 7.09 13.872-3.451.378-7.452-.131-10.963-.147-11.12-.051-22.291-.38-33.404-.154.506-4.813.424-10.26-.013-15.077" style="stroke:none;stroke-width:1;stroke-dasharray:none;stroke-linecap:butt;stroke-dashoffset:0;stroke-linejoin:miter;stroke-miterlimit:4;fill:#b1aeac;fill-rule:nonzero;opacity:1" transform="translate(-267.547 -267.796)scale(2.64)" vector-effect="non-scaling-stroke"/><path d="m381.239 527.026 22.027-.04.001 5.787-.393-1.271-.204-.097c-.47 7.871-.353 18.02.015 25.932l-.095-.402.245-.288c.097-.839.142-1.739.334-2.558.169 1.698.076 3.458.073 5.165h-21.746c-.044-1.716-.12-3.385.187-5.082l.229.173c.32-.823.201-23.09.061-25.094-.393.663-.41 1.476-.524 2.233-.253-1.513-.246-2.935-.21-4.458" style="stroke:none;stroke-width:1;stroke-dasharray:none;stroke-linecap:butt;stroke-dashoffset:0;stroke-linejoin:miter;stroke-miterlimit:4;fill:#b1aeac;fill-rule:nonzero;opacity:1" transform="translate(-267.95 -268.107)scale(2.64)" vector-effect="non-scaling-stroke"/><path d="m475.062 532.919 11.817-.16c-.028 4.201.076 8.444-.102 12.638-.034.973-.111 1.958-.022 2.929l.038 6.23c-9.53.088-19.017-.169-28.54-.248l-29.437-.003-.175-2.149c.277-5.489-.035-11.039.15-16.543l-.084-.527.235-2.177c2.938.051 5.884.154 8.821.103 12.432.02 24.869-.2 37.299-.093" style="stroke:none;stroke-width:1;stroke-dasharray:none;stroke-linecap:butt;stroke-dashoffset:0;stroke-linejoin:miter;stroke-miterlimit:4;fill:#fff;fill-rule:nonzero;opacity:1" transform="translate(-268.006 -268.109)scale(2.64)" vector-effect="non-scaling-stroke"/><path d="m60.075 135.259 152.688.403c.085 6.865.363 13.779.253 20.639 3.078-.121 6.792-.564 9.331 1.597.775.66 1.256 1.497 1.321 2.52.087 1.375-.619 3.338-1.582 4.333-1.692 1.748-4.699 1.515-6.927 1.445-2.268-.07-5.138-.674-7.173.51-1.751 2.18-1.603 12.865-1.801 15.999l-4.301 71.343q12.188.1 24.377.031c4.139-.005 8.487-.271 12.597.179l-.093 16.675c-9.587.254-19.214.083-28.806.093-3.934.004-8.499-.442-12.362.203-.423.589-.295.301-.459.825.614 10.512.042 21.211.334 31.756-2.72.013-5.446.064-8.165.021q-.071 11.843-.019 23.685c-8.766.118-17.578.175-26.341-.04q-.061-11.933.097-23.865l-3.386.107c.475 33.14-.686 65.379 11.83 96.835 1.189 2.839 2.237 5.94 3.735 8.622.784 3.07 2.603 6.216 4.009 9.058 2.597 5.247 5.181 10.529 8.234 15.53 3.322 5.441 7.133 10.655 10.298 16.179-1.475-.347-4.517-5.716-5.737-7.084-1.669-2.89-5.848-10.132-7.785-12.296-.541.91-1.013 1.678-2.003 2.071l-.62-.344c-.307-.68-.407-.727-.219-1.435.741-.512 1.411-.488 2.277-.535l.384-.018c-.451-2.743-3.196-6.424-4.592-8.878-.98.524-1.779 1.202-2.897 1.219-.438-.401-.562-.666-.686-1.233-.165-.748-.217-.422.169-1.052a29 29 0 0 1 1.98-.202c.412-.555.427-.53.289-1.178-.492-2.298-4.195-9.865-5.342-12.606-4.852-11.6-8.533-22.963-10.769-35.383-2.014-11.185-2.31-22.359-2.751-33.665-.757-19.438-.627-38.853-.435-58.303-7.076-.054-14.145.491-21.218.214-.002 13.591.331 27.125.65 40.708.18 7.648.035 15.206.627 22.847.466 6.009.661 12.098 1.312 18.084.359 3.294 1.264 6.577 1.46 9.881.042.707-.029 1.246-.202 1.928-3.517-14.608-3.458-30.373-3.994-45.306-7.504-.258-15.066-.095-22.577-.103-.072-7.832.077-15.679.129-23.511q-3.389.049-6.773-.156c-.511-7.701.005-16.095-.06-23.9-12.46.184-18.874-1.544-28.327-10.113l-.38-.411c-3.263-4.381-5.778-8.534-7.09-13.872-.232-1.263.15-3.2-.48-4.212-.339-7.442-1.154-14.847-1.832-22.263l-2.24-25.713c-1.077-12.032-1.459-24.464-3.59-36.355-3.476-.016-11.968.984-14.838-.684-1.01-.588-1.775-1.765-2.083-2.874-.367-1.32-.2-2.757.55-3.916 3.004-4.636 10.994-1.127 15.435-2.364.149-.041.295-.091.443-.136.933.096 1.62.11 2.38.726.86 2.142.857 6.682.375 8.898a5.4 5.4 0 0 1-1.14.48c1.283 9.279 1.85 18.821 2.637 28.16q1.783 19.194 3.373 38.404c.613 7.197.397 17.648 2.475 24.236 1.828 5.792 5.903 11.102 10.707 14.754 3.638 2.766 7.891 4.913 12.384 5.845 5.806 1.205 14.147.501 20.207.499l45.116-.215c11.711-.331 20.348.449 29.667-8.07q.728-.663 1.408-1.376t1.309-1.47 1.203-1.558 1.092-1.637q.517-.838.975-1.71t.854-1.774.728-1.829.599-1.875c1.692-6.106 2.004-21.553 2.424-28.44.928-15.212 2.112-30.446 2.835-45.666.028-3.67.368-7.344.299-11.016-.049-2.588-.483-5.158-.599-7.744-.13-2.873.042-5.794.124-8.668l-50.401.142c-9.944-.019-20.121-.486-30.04.055-4.449.759-14.682.126-19.656.105l-40.833-.085c-1.493.039-2.91.05-4.397-.15q-.05-10.278.02-20.555" style="stroke:none;stroke-width:1;stroke-dasharray:none;stroke-linecap:butt;stroke-dashoffset:0;stroke-linejoin:miter;stroke-miterlimit:4;fill:#000;fill-rule:nonzero;opacity:1" transform="translate(-267.674 -267.824)scale(2.64)" vector-effect="non-scaling-stroke"/><path d="M213.785 158.551c2.096-.161 4.368-.504 6.049 1.067.63.589.795.973.878 1.815-.213.552-.362.848-.817 1.251-1.186 1.052-2.899.83-4.365.806l-6.996-.085c.024-1.579.156-3.158.259-4.735z" style="stroke:none;stroke-width:1;stroke-dasharray:none;stroke-linecap:butt;stroke-dashoffset:0;stroke-linejoin:miter;stroke-miterlimit:4;fill:#fffdf8;fill-rule:nonzero;opacity:1" transform="translate(-267.727 -267.664)scale(2.64)" vector-effect="non-scaling-stroke"/><path d="M52.951 159.712c3.624-.097 7.29.067 10.918.125.072 1.154.418 2.871-.173 3.887-.79.58-1.659.427-2.588.4-2.78.017-5.846.259-8.578-.241-1.186-.217-1.901-.534-2.599-1.527-.053-.692.139-1.225.598-1.764.662-.778 1.488-.729 2.422-.88" style="stroke:none;stroke-width:1;stroke-dasharray:none;stroke-linecap:butt;stroke-dashoffset:0;stroke-linejoin:miter;stroke-miterlimit:4;fill:#fffdf8;fill-rule:nonzero;opacity:1" transform="translate(-267.567 -267.682)scale(2.64)" vector-effect="non-scaling-stroke"/><path d="M159.877 279.421c.935-.009 1.766.035 2.687.204.926 1.181.44 19.883.46 22.662l-3.296.01z" style="stroke:none;stroke-width:1;stroke-dasharray:none;stroke-linecap:butt;stroke-dashoffset:0;stroke-linejoin:miter;stroke-miterlimit:4;fill:#fefeff;fill-rule:nonzero;opacity:1" transform="translate(-267.675 -267.83)scale(2.64)" vector-effect="non-scaling-stroke"/><g transform="translate(271.83 120.35)scale(2.64)"><linearGradient id="b" x1="208.927" x2="198.973" y1="146.756" y2="146.695" gradientUnits="userSpaceOnUse"><stop offset="0%" style="stop-color:#4b4a4b;stop-opacity:1"/><stop offset="100%" style="stop-color:#7e7e7e;stop-opacity:1"/></linearGradient><path d="M199.119 138.771c3.47.011 6.999.148 10.463-.004q.131 8.132-.07 16.262-5.153.187-10.309.072c-.125-.579-.143-.404-.088-.886.595-5.182.155-10.262.004-15.444" style="stroke:none;stroke-width:1;stroke-dasharray:none;stroke-linecap:butt;stroke-dashoffset:0;stroke-linejoin:miter;stroke-miterlimit:4;fill:url(#b);fill-rule:nonzero;opacity:1" transform="translate(-204.38 -146.97)" vector-effect="non-scaling-stroke"/></g><g transform="translate(-23.41 121.23)scale(2.64)"><linearGradient id="c" x1="63.667" x2="78.887" y1="146.864" y2="147.427" gradientUnits="userSpaceOnUse"><stop offset="0%" style="stop-color:#272526;stop-opacity:1"/><stop offset="100%" style="stop-color:#474645;stop-opacity:1"/></linearGradient><path d="M63.38 138.671q16.666-.43 33.338-.269c6.117.027 12.303-.115 18.409.201l-2.557.293c-4.149-.331-8.442-.136-12.61-.132l-21.846.036.594.247-.242-.106.433.186c.187 1.439-.16 2.943-.337 4.377-.442 3.592-.608 7.332.444 10.85 2.514 1.768 12.215.191 15.875.776q-4.673.275-9.353.398 13.292.209 26.584.206c4.22.022 8.637-.197 12.828.21-4.449.759-14.682.126-19.656.105l-40.833-.085c-1.493.039-2.91.05-4.397-.15a22 22 0 0 0 2.823-.382c.996-1.699.498-14.01.502-16.761" style="stroke:none;stroke-width:1;stroke-dasharray:none;stroke-linecap:butt;stroke-dashoffset:0;stroke-linejoin:miter;stroke-miterlimit:4;fill:url(#c);fill-rule:nonzero;opacity:1" transform="translate(-92.5 -147.31)" vector-effect="non-scaling-stroke"/></g><g transform="translate(200.4 120)scale(2.64)"><linearGradient id="d" x1="195.769" x2="168.767" y1="146.596" y2="146.856" gradientUnits="userSpaceOnUse"><stop offset="0%" style="stop-color:#848483;stop-opacity:1"/><stop offset="100%" style="stop-color:#cccbcb;stop-opacity:1"/></linearGradient><path d="M155.198 138.672c7.236-.17 14.49-.066 21.728-.04 4.887.017 9.862-.126 14.742.102q3.726-.011 7.451.037c.151 5.182.591 10.262-.004 15.444-.055.482-.037.307.088.886l-38.101.008.076-.229-.773-.31c2.473-.748 6.425.601 8.617-.572-.032-.658-.059-1.256.047-1.909.677-4.175-.318-8.141-.017-12.298l.032-.4c-.188-.022-.376-.04-.564-.064-4.141-.53-9.46.629-13.322-.655" style="stroke:none;stroke-width:1;stroke-dasharray:none;stroke-linecap:butt;stroke-dashoffset:0;stroke-linejoin:miter;stroke-miterlimit:4;fill:url(#d);fill-rule:nonzero;opacity:1" transform="translate(-177.31 -146.84)" vector-effect="non-scaling-stroke"/></g><path d="M191.668 138.734q3.726-.011 7.451.037c.151 5.182.591 10.262-.004 15.444-.055.482-.037.307.088.886l-38.101.008.076-.229q17.351.014 34.701-.227c-.107-4.931 1.058-10.499-.17-15.338-1.279-.121-2.54-.228-3.795-.521z" style="stroke:none;stroke-width:1;stroke-dasharray:none;stroke-linecap:butt;stroke-dashoffset:0;stroke-linejoin:miter;stroke-miterlimit:4;fill:#7d7d7d;fill-rule:nonzero;opacity:1" transform="translate(-267.696 -267.669)scale(2.64)" vector-effect="non-scaling-stroke"/><g transform="translate(-12.74 120.39)scale(2.64)"><linearGradient id="e" x1="78.298" x2="113.313" y1="145.748" y2="147.929" gradientUnits="userSpaceOnUse"><stop offset="0%" style="stop-color:#484747;stop-opacity:1"/><stop offset="100%" style="stop-color:#a09f9f;stop-opacity:1"/></linearGradient><path d="M94.881 155.13c-3.66-.585-13.361.992-15.876-.776-1.05-3.518-.885-7.258-.443-10.85.176-1.434.524-2.938.337-4.377l-.433-.186.242.106-.594-.247 21.847-.036c4.167-.004 8.46-.199 12.609.132.8.089 1.59.208 2.395.149-.671.464-.803.451-.972 1.273-.832 4.036-1.393 10.095-1.59 14.287l.574.092c.483.078.91.182 1.37.356-6.433.086-13.043.411-19.466.077" style="stroke:none;stroke-width:1;stroke-dasharray:none;stroke-linecap:butt;stroke-dashoffset:0;stroke-linejoin:miter;stroke-miterlimit:4;fill:url(#e);fill-rule:nonzero;opacity:1" transform="translate(-96.54 -146.99)" vector-effect="non-scaling-stroke"/></g><path d="M201.836 254.809c12.079.359 24.237-.147 36.329-.001-.264 5.088-.25 10.203-.324 15.297-2.429-.059-4.865-.037-7.295-.051-12.297-.055-24.582.056-36.879-.118 4.482-4.279 6.754-9.152 8.169-15.127" style="stroke:none;stroke-width:1;stroke-dasharray:none;stroke-linecap:butt;stroke-dashoffset:0;stroke-linejoin:miter;stroke-miterlimit:4;fill:#b1aeac;fill-rule:nonzero;opacity:1" transform="translate(-267.749 -267.782)scale(2.64)" vector-effect="non-scaling-stroke"/><g transform="translate(104.2 119.98)scale(2.64)"><linearGradient id="f" x1="112.558" x2="169.324" y1="144.948" y2="148.545" gradientUnits="userSpaceOnUse"><stop offset="0%" style="stop-color:#bdbcbc;stop-opacity:1"/><stop offset="100%" style="stop-color:#fcfcfb;stop-opacity:1"/></linearGradient><path d="M115.127 138.603c10.487-.379 21.178-.138 31.674.072 2.71-.076 5.707-.318 8.397-.003 3.862 1.284 9.181.125 13.322.655.188.024.376.042.564.064l-.032.4c-.301 4.157.694 8.123.017 12.298-.106.653-.079 1.251-.047 1.909-2.192 1.173-6.144-.176-8.617.572l.773.31-.076.229c-15.554.069-31.208.342-46.755-.056a6.8 6.8 0 0 0-1.37-.356l-.574-.092c.197-4.192.758-10.251 1.59-14.287.169-.822.301-.809.972-1.273-.805.059-1.595-.06-2.395-.149z" style="stroke:none;stroke-width:1;stroke-dasharray:none;stroke-linecap:butt;stroke-dashoffset:0;stroke-linejoin:miter;stroke-miterlimit:4;fill:url(#f);fill-rule:nonzero;opacity:1" transform="translate(-140.86 -146.83)" vector-effect="non-scaling-stroke"/></g><path d="M114.965 139.045c.057.19.139.375.171.571.458 2.806-2.317 13.038-1.222 14.801 6.347.636 12.946.344 19.324.388 3.775.026 8.129.46 11.857-.017 3.647.104 12.174.686 15.31-.218l.773.31-.076.229c-15.554.069-31.208.342-46.755-.056a6.8 6.8 0 0 0-1.37-.356l-.574-.092c.197-4.192.758-10.251 1.59-14.287.169-.822.301-.809.972-1.273" style="stroke:none;stroke-width:1;stroke-dasharray:none;stroke-linecap:butt;stroke-dashoffset:0;stroke-linejoin:miter;stroke-miterlimit:4;fill:#b1aeac;fill-rule:nonzero;opacity:1" transform="translate(-267.656 -267.656)scale(2.64)" vector-effect="non-scaling-stroke"/><path d="M134.639 279.543c.833-.058 1.583-.193 2.354.199.742 2.578.145 15.572.142 19.133q-.049 13.747.334 27.488c-7.138.188-14.328.015-21.472.013l.018-2.969q.119-10.181.123-20.363-3.424-.026-6.846-.17l.11-23.266q12.619.15 25.237-.065" style="stroke:none;stroke-width:1;stroke-dasharray:none;stroke-linecap:butt;stroke-dashoffset:0;stroke-linejoin:miter;stroke-miterlimit:4;fill:#e0ddd2;fill-rule:nonzero;opacity:1" transform="translate(-267.633 -267.834)scale(2.64)" vector-effect="non-scaling-stroke"/><path d="M193.062 271.018c1.053-.002 2.161-.115 3.124.367.423 2.371.232 4.923.227 7.331l-.029 15.793c-.001 2.759-.214 5.809.207 8.531-2.635-.492-5.625-.255-8.297-.145q-.18 11.856-.092 23.713c-8.14-.101-16.295.01-24.437.022q.206-14.221.165-28.444c-.031-6.249-.429-12.746.106-18.958 8.574 1.51 18.145-.561 25.268-5.489q1.897-1.335 3.758-2.721" style="stroke:none;stroke-width:1;stroke-dasharray:none;stroke-linecap:butt;stroke-dashoffset:0;stroke-linejoin:miter;stroke-miterlimit:4;fill:#e0ddd2;fill-rule:nonzero;opacity:1" transform="translate(-267.689 -267.835)scale(2.64)" vector-effect="non-scaling-stroke"/><path d="M137.809 279.234c7.073.277 14.142-.268 21.218-.214-.192 19.45-.322 38.865.435 58.303.441 11.306.737 22.48 2.751 33.665 2.236 12.42 5.917 23.783 10.769 35.383 1.147 2.741 4.85 10.308 5.342 12.606.138.648.123.623-.289 1.178-.666.051-1.319.105-1.98.202-.386.63-.334.304-.169 1.052.124.567.248.832.686 1.233 1.118-.017 1.917-.695 2.897-1.219 1.396 2.454 4.141 6.135 4.592 8.878l-.384.018c-.866.047-1.536.023-2.277.535-.188.708-.088.755.219 1.435l.62.344c.99-.393 1.462-1.161 2.003-2.071 1.937 2.164 6.116 9.406 7.785 12.296 1.22 1.368 4.262 6.737 5.737 7.084 1.326 1.785 2.545 3.646 3.825 5.464 2.363 2.886 4.738 5.881 7.346 8.549 7.086 8.575 15.587 16.638 24.143 23.747 2.647 2.199 5.581 4.045 8.169 6.319 4.347 3.012 8.571 6.329 13.013 9.176 5.839 3.653 11.823 6.796 17.939 9.962 7.956 3.578 16.137 7.091 24.431 9.807 4.35 1.424 8.839 2.511 13.259 3.705 2.926.791 6.194 1.997 9.181 2.336 4.273.85 8.53 1.824 12.814 2.607 2.65-.147 5.635.489 8.329.588 5.521.203 38.982.563 41.109-.178l.127-.54c.114-.757.131-1.57.524-2.233.14 2.004.259 24.271-.061 25.094l-.229-.173c-3.165-.381-6.613-.115-9.805-.058-8.459.151-17.225.789-25.654.164-6.683-.496-13.552-1.005-20.176-2.007-20.645-3.122-43.089-10.628-61.629-20.244-8.906-4.619-17.473-10.115-25.764-15.748-6.961-4.728-14.175-9.513-20.601-14.941-30.923-26.122-52.935-60.938-67.629-98.385-3.158-8.047-8.064-21.853-8.769-30.271.173-.682.244-1.221.202-1.928-.196-3.304-1.101-6.587-1.46-9.881-.651-5.986-.846-12.075-1.312-18.084-.592-7.641-.447-15.199-.627-22.847-.319-13.583-.652-27.117-.65-40.708" style="stroke:none;stroke-width:1;stroke-dasharray:none;stroke-linecap:butt;stroke-dashoffset:0;stroke-linejoin:miter;stroke-miterlimit:4;fill:snow;fill-rule:nonzero;opacity:1" transform="translate(-267.784 -267.96)scale(2.64)" vector-effect="non-scaling-stroke"/><path d="M331.248 534.306c1.159.112 2.46.065 3.403.819l.305.692c-.221.493-.125.597-.688.781-.589.192-.897.138-1.488.03-.768-.529-1.221-1.108-1.771-1.842z" style="stroke:none;stroke-width:1;stroke-dasharray:none;stroke-linecap:butt;stroke-dashoffset:0;stroke-linejoin:miter;stroke-miterlimit:4;fill:#464242;fill-rule:nonzero;opacity:1" transform="translate(-267.867 -268.103)scale(2.64)" vector-effect="non-scaling-stroke"/><path d="M349.249 535.29c.389.191.638.403.966.681.843 2.04.37 4.77.207 6.918l-.439-.096c-1.106-1.435-.699-5.575-.734-7.503" style="stroke:none;stroke-width:1;stroke-dasharray:none;stroke-linecap:butt;stroke-dashoffset:0;stroke-linejoin:miter;stroke-miterlimit:4;fill:#464242;fill-rule:nonzero;opacity:1" transform="translate(-267.878 -268.098)scale(2.64)" vector-effect="non-scaling-stroke"/><path d="M150.114 373.525c1.339.065 2.532.239 3.416 1.362.417.53.652 1.121.508 1.802-.174.821-.774 1.135-1.423 1.529-.265.01-.53.023-.795.019-.973-.015-1.85-.206-2.502-.972-.494-.58-.693-1.174-.549-1.94.16-.853.72-1.292 1.345-1.8" style="stroke:none;stroke-width:1;stroke-dasharray:none;stroke-linecap:butt;stroke-dashoffset:0;stroke-linejoin:miter;stroke-miterlimit:4;fill:#fff;fill-rule:nonzero;opacity:1" transform="translate(-267.666 -267.913)scale(2.64)" vector-effect="non-scaling-stroke"/><path d="M192.027 442.858c1.22 1.368 4.262 6.737 5.737 7.084 1.326 1.785 2.545 3.646 3.825 5.464 2.363 2.886 4.738 5.881 7.346 8.549l-.76.483c-.725-.835-1.397-1.717-2.083-2.584-1.038-.387-1.119-.406-2.191-.134-1.888-.579-4.974-5.966-6.208-7.623-3.017-3.222-4.923-7-8.282-9.922.642-.691 1.75-.982 2.616-1.317" style="stroke:none;stroke-width:1;stroke-dasharray:none;stroke-linecap:butt;stroke-dashoffset:0;stroke-linejoin:miter;stroke-miterlimit:4;fill:#d1c3c4;fill-rule:nonzero;opacity:1" transform="translate(-267.709 -268.006)scale(2.64)" vector-effect="non-scaling-stroke"/><path d="m208.175 464.438.76-.483c7.086 8.575 15.587 16.638 24.143 23.747 2.647 2.199 5.581 4.045 8.169 6.319 4.347 3.012 8.571 6.329 13.013 9.176l-.946.407c-.268 1.11.511 1.815-.15 2.838a21.3 21.3 0 0 1-3.544-.894l-.209-.574c-1.863-.979-4.44-2.746-5.636-4.479-.95-.505-1.77-1.19-2.615-1.85-4.69-2.006-3.816-6.172-5.864-8.079-2.283-2.126-5.16-4.14-7.573-6.312-5.639-5.075-10.96-10.453-16.294-15.842l-.292.209a20 20 0 0 1-.933 2.481c-.665.479-.67.514-1.482.478-.436-.414-.446-.255-.458-.792-.027-1.146.506-1.771 1.294-2.509.51-.477.657-.563.946-1.225-.672-.945-1.534-1.773-2.329-2.616" style="stroke:none;stroke-width:1;stroke-dasharray:none;stroke-linecap:butt;stroke-dashoffset:0;stroke-linejoin:miter;stroke-miterlimit:4;fill:#d1c3c4;fill-rule:nonzero;opacity:1" transform="translate(-267.76 -268.038)scale(2.64)" vector-effect="non-scaling-stroke"/><path d="M241.16 498.645c.734-.715.937-1.023 1.953-1.274.709.311.683.317 1.024 1.016-.013.821-.033 1.337-.362 2.108-.95-.505-1.77-1.19-2.615-1.85" style="stroke:none;stroke-width:1;stroke-dasharray:none;stroke-linecap:butt;stroke-dashoffset:0;stroke-linejoin:miter;stroke-miterlimit:4;fill:#000;fill-rule:nonzero;opacity:1" transform="translate(-267.776 -268.045)scale(2.64)" vector-effect="non-scaling-stroke"/><path d="M241.247 494.021c4.347 3.012 8.571 6.329 13.013 9.176l-.946.407c-.268 1.11.511 1.815-.15 2.838a21.3 21.3 0 0 1-3.544-.894c.087-.374.167-.874.351-1.223.416-.785 1.083-.94 1.86-1.215l.095-.266c-3.063-2.751-8.619-5.48-10.679-8.823" style="stroke:none;stroke-width:1;stroke-dasharray:none;stroke-linecap:butt;stroke-dashoffset:0;stroke-linejoin:miter;stroke-miterlimit:4;fill:#000;fill-rule:nonzero;opacity:1" transform="translate(-267.77 -268.047)scale(2.64)" vector-effect="non-scaling-stroke"/><path d="M124.94 155.944c9.919-.541 20.096-.074 30.04-.055l50.401-.142c-.082 2.874-.254 5.795-.124 8.668.116 2.586.55 5.156.599 7.744.069 3.672-.271 7.346-.299 11.016-.723 15.22-1.907 30.454-2.835 45.666-.42 6.887-.732 22.334-2.424 28.44q-.267.948-.599 1.875t-.728 1.829-.854 1.774-.975 1.71-1.092 1.637-1.203 1.558-1.309 1.47q-.68.713-1.408 1.376c-9.319 8.519-17.956 7.739-29.667 8.07l-45.116.215c-6.06.002-14.401.706-20.207-.499-4.493-.932-8.746-3.079-12.384-5.845-4.804-3.652-8.88-8.962-10.707-14.754-2.078-6.588-1.862-17.039-2.475-24.236q-1.59-19.21-3.373-38.404c-.786-9.339-1.354-18.881-2.637-28.16a5.4 5.4 0 0 0 1.14-.48c.482-2.216.484-6.756-.374-8.898-.762-.616-1.448-.63-2.381-.726l.502-.829 40.833.085c4.974.021 15.207.654 19.656-.105" style="stroke:none;stroke-width:1;stroke-dasharray:none;stroke-linecap:butt;stroke-dashoffset:0;stroke-linejoin:miter;stroke-miterlimit:4;fill:#b1aeac;fill-rule:nonzero;opacity:1" transform="translate(-267.662 -267.738)scale(2.64)" vector-effect="non-scaling-stroke"/><path d="M168.146 197.65c.289.03.867.043 1.156.164.651.272.666.554.873 1.166-.257 1.042-.654 1.538-1.368 2.326-.24-.085-.553-.185-.767-.315-.666-.407-.791-.668-1.045-1.356.137-.973.494-1.322 1.151-1.985" style="stroke:none;stroke-width:1;stroke-dasharray:none;stroke-linecap:butt;stroke-dashoffset:0;stroke-linejoin:miter;stroke-miterlimit:4;fill:#e0ddd2;fill-rule:nonzero;opacity:1" transform="translate(-267.698 -267.727)scale(2.64)" vector-effect="non-scaling-stroke"/><path d="M196.124 186.363c.471.024.919.108 1.383.185.505.476.799.793.825 1.52.034.933-.39 1.6-.998 2.243-.422-.12-.968-.231-1.347-.447-.748-.427-.831-.64-1.079-1.403.191-.933.617-1.401 1.216-2.098" style="stroke:none;stroke-width:1;stroke-dasharray:none;stroke-linecap:butt;stroke-dashoffset:0;stroke-linejoin:miter;stroke-miterlimit:4;fill:#e0ddd2;fill-rule:nonzero;opacity:1" transform="translate(-267.717 -267.718)scale(2.64)" vector-effect="non-scaling-stroke"/><path d="m196.369 176.101 1.006.17c.43.323.769.57.971 1.096.409 1.072.07 2.05-.453 2.991-.357-.047-.926-.078-1.275-.214-.791-.308-.875-.53-1.23-1.242.051-1.099.477-1.839.981-2.801" style="stroke:none;stroke-width:1;stroke-dasharray:none;stroke-linecap:butt;stroke-dashoffset:0;stroke-linejoin:miter;stroke-miterlimit:4;fill:#e0ddd2;fill-rule:nonzero;opacity:1" transform="translate(-267.724 -267.697)scale(2.64)" vector-effect="non-scaling-stroke"/><path d="M181.485 197.832a7.9 7.9 0 0 1 1.908.206c.594.626.628.666.748 1.518-.317.939-.598 1.326-1.298 2.029-.578-.084-1.224-.163-1.726-.485-.678-.434-.843-1.03-.978-1.761.408-.864.549-.964 1.346-1.507" style="stroke:none;stroke-width:1;stroke-dasharray:none;stroke-linecap:butt;stroke-dashoffset:0;stroke-linejoin:miter;stroke-miterlimit:4;fill:#e0ddd2;fill-rule:nonzero;opacity:1" transform="translate(-267.7 -267.724)scale(2.64)" vector-effect="non-scaling-stroke"/><path d="M194.025 199.575c.709.002 1.469-.031 2.17.073.856.128 1.192.428 1.674 1.101-.032.931-.234 1.251-.735 1.994l-.238.052q-.196.038-.393.074c-.359.07-.883.226-1.243.174-.797-.115-.945-.367-1.403-.955-.193-.935-.036-1.606.168-2.513" style="stroke:none;stroke-width:1;stroke-dasharray:none;stroke-linecap:butt;stroke-dashoffset:0;stroke-linejoin:miter;stroke-miterlimit:4;fill:#e0ddd2;fill-rule:nonzero;opacity:1" transform="translate(-267.725 -267.718)scale(2.64)" vector-effect="non-scaling-stroke"/><path d="m77.786 210.583 119.193.285c-.535 8.913-1.448 17.785-2.255 26.675-.546 6.018-.359 12.51-2.319 18.266-1.373 4.036-3.684 7.397-6.856 10.236-6.909 6.184-12.38 6.528-21.061 6.694-1.505.173-3.091.069-4.607.065-10.388.189-20.77.101-31.158.218-8.314.094-21.172.986-28.943-.785-4.642-1.058-9.36-3.638-12.777-6.948-3.175-3.075-5.4-7.229-6.548-11.477-1.176-4.353-.985-9.332-1.244-13.831z" style="stroke:none;stroke-width:1;stroke-dasharray:none;stroke-linecap:butt;stroke-dashoffset:0;stroke-linejoin:miter;stroke-miterlimit:4;fill:#fff;fill-rule:nonzero;opacity:1" transform="translate(-267.643 -267.774)scale(2.64)" vector-effect="non-scaling-stroke"/><path d="M170.855 256.354c.086-.007.172-.02.259-.021 2.223-.023 5.202 1.666 6.677 3.274.843.919 1.565 2.213 1.381 3.502-.189 1.325-1.144 2.057-2.093 2.871-.546.179-1.135.419-1.723.347-1.537-.187-3.365-2.027-4.319-3.184-1.19-1.442-2.244-3.266-2.025-5.192.384-.899 1.031-1.155 1.843-1.597" style="stroke:none;stroke-width:1;stroke-dasharray:none;stroke-linecap:butt;stroke-dashoffset:0;stroke-linejoin:miter;stroke-miterlimit:4;fill:#e0ddd2;fill-rule:nonzero;opacity:1" transform="translate(-267.688 -267.798)scale(2.64)" vector-effect="non-scaling-stroke"/><path d="M157.335 267.307c1.607-1.841 3.011-2.7 5.287-3.556 1.926 1.218 5.671 3.351 6.065 5.761.12.732-.049 1.263-.531 1.809-.811.918-2.516 1.302-3.668 1.418-1.505.173-3.091.069-4.607.065-.67-1.963-1.801-3.599-2.546-5.497" style="stroke:none;stroke-width:1;stroke-dasharray:none;stroke-linecap:butt;stroke-dashoffset:0;stroke-linejoin:miter;stroke-miterlimit:4;fill:#e0ddd2;fill-rule:nonzero;opacity:1" transform="translate(-267.68 -267.786)scale(2.64)" vector-effect="non-scaling-stroke"/><path d="M182.724 242.66c2.071-.21 3.77.123 5.448 1.438.922.722 1.652 1.688 1.773 2.882.359 3.533-4.453 8.521-6.556 11.136-2.829-2.72-6.277-5.518-8.308-8.896 1.787-3.098 4.48-5.028 7.643-6.56" style="stroke:none;stroke-width:1;stroke-dasharray:none;stroke-linecap:butt;stroke-dashoffset:0;stroke-linejoin:miter;stroke-miterlimit:4;fill:#e0ddd2;fill-rule:nonzero;opacity:1" transform="translate(-267.693 -267.78)scale(2.64)" vector-effect="non-scaling-stroke"/><path d="m16.28 19.945 3.677-3.625c2.103-2.154 5.621-2.154 7.724 0l22.326 22.275L72.333 16.32c2.103-2.154 5.621-2.154 7.721 0l3.626 3.625c2.154 2.101 2.154 5.621 0 7.723L61.405 49.993 83.68 72.32c2.154 2.102 2.154 5.619 0 7.723l-3.626 3.678c-2.1 2.099-5.618 2.099-7.721 0L50.007 61.393 27.681 83.721c-2.103 2.099-5.621 2.099-7.724 0l-3.677-3.678c-2.1-2.104-2.1-5.621 0-7.723l22.326-22.327L16.28 27.667c-2.1-2.101-2.1-5.621 0-7.722z" style="stroke:#000;stroke-width:0;stroke-dasharray:none;stroke-linecap:butt;stroke-dashoffset:0;stroke-linejoin:miter;stroke-miterlimit:4;fill:red;fill-rule:nonzero;opacity:1" transform="translate(293.5 665.56)scale(4.93)" vector-effect="non-scaling-stroke"/></svg>