<svg xmlns="http://www.w3.org/2000/svg" width="1615" height="1615"><path fill="#FEFEFF" d="M0 0h612v612H0z" data-index="0" style="opacity:1;visibility:visible;fill:#f3f8ff;stroke:#f3f8ff" transform="scale(2.63889)"/><path fill="#2A1D04" d="M892.148 1382.472c1.512-.145 1.351-.406 2.668.554 2.784 2.032 4.708 3.225 8.112 4.004 4.642 2.794 7.423 3.623 12.833 3.654-1.555 1.5-2.283 2.325-4.537 2.333-3.916.019-5.507-.807-9.199 1.043-5.037-2.695-7.74-6.4-9.877-11.588" data-index="1"/><path fill="#181221" d="M879.66 1372.26c-3.182-2.563-2.511-6.59-4.44-10.112-3.318-6.057-9.384-10.11-11.696-16.77 6.853 3.103 12.223 7.423 14.968 14.648 1.493 3.932 1.602 8.101 1.169 12.234" data-index="2"/><path fill="#231905" d="M870.472 1469.334c5.645 3.037 9.37 7.038 11.276 13.26q.327 1.066.549 2.162.222 1.092.335 2.203.11 1.108.116 2.225.003 1.116-.105 2.227-.106 1.108-.322 2.203-.217 1.096-.539 2.164t-.746 2.098q-.428 1.032-.953 2.016c-2.045 3.774-4.893 6.347-8.587 8.421.633-4.415 6.489-7.764 7.56-12.923 1.89-9.104-3.866-18.905-8.584-26.056" data-index="3"/><path fill="#362002" d="M567.678 1223.624c2.05 1.177 3.977 1.594 6.333 1.61 6.521.04 11.596-5.156 16.005-9.363l1.713 3.76c-5.3 5.363-10.973 9.184-18.808 9.092-5.958-.069-10.872-2.46-15.326-6.252 3.689-.805 4.774-.422 8.389.612.57.164 1.13.357 1.694.541" data-index="4"/><path fill="#2A1D04" d="M429.076 949.446c3.034.267 5.51.362 8.188 1.9 1.94 1.874 3.93 3.697 5.668 5.764 4.27 6.217 10.772 4.926 16.673 8.494-5.581.882-10.561 1.132-15.807-1.224-3.436-1.626-6.048-3.315-8.75-6.004-2.85-2.14-4.402-5.832-5.972-8.93" data-index="5"/><path fill="#231905" d="M435.047 958.376c1.784-.905 2.5-1.544 4.558-.926 2.82.847 4.766 3.425 6.016 5.906l-1.823 1.024c-3.436-1.626-6.048-3.315-8.75-6.004" data-index="6"/><path fill="#3D2200" d="M818.673 1479.53c1.626 4.975.037 8.48-1.52 13.219-4.39 4.122-9.816 5.578-15.74 5.507-4.046-.05-6.915-1.208-10.511-2.976l.894-1.441c2.494-.715 4.705-1.607 7.051-2.708 2.66.172 5.42.354 8.01-.4 5.918-1.73 8.972-6.044 11.816-11.2" data-index="7"/><path fill="#231905" d="M628.019 1285.424c-2.172-5.568-2.214-11.117.245-16.664 2.774-6.257 8.521-11.168 14.897-13.485 7.676-2.792 13.833-1.298 20.9 2.08-2.444 2.467-3.452 2.916-6.9 2.942-1.291.01-2.584-.032-3.875-.069-3.517-1.348-7.866-2-11.468-.525-6.241 2.555-9.83 9.73-11.978 15.712-1.154 3.209-1.457 6.64-1.821 10.01" data-index="8"/><path fill="#181221" d="M683.834 1290.6c4.895-4.339 11.036-7.205 17.694-6.949 6.747.259 12.727 3.541 17.015 8.693q.808.987 1.512 2.047.705 1.064 1.299 2.193.593 1.127 1.068 2.312.478 1.182.832 2.407.353 1.224.583 2.478.227 1.253.33 2.525.1 1.272.071 2.546-.029 1.275-.185 2.54c-.198 1.704-.59 3.398-.976 5.066-5.523-11.202-6.882-19.956-16.43-29.02-2.618-1.681-4.518-2.526-7.73-1.903-4.881.948-10.243 6.17-15.083 5.064" data-index="9"/><path fill="#231905" d="M541.487 1136.095c7.534 1.594 13.474 5.307 17.62 11.951 3.304 5.291 4.557 11.353 2.992 17.454-.694 2.697-1.791 4.871-3.362 7.146-.39-3.678 2.125-6.784 1.61-10.468l-2.306 2.245-.74-.306c-.081-1.979-.047-4.206-.408-6.146-.444-2.385-1.547-3.209-3.362-4.546-2.014-1.006-4.151-4.455-5.537-6.218l.278-2.546c-2.623-2.214-5.115-5.566-6.785-8.566" data-index="10"/><path fill="#231905" d="M650.893 1385.312c3.13 5.858 4.934 12.242 2.829 18.791-1.93 6.004-6.537 10.485-12.113 13.221-5.684 2.787-12.477 3.795-18.557 1.71-5.837-2-10.518-6.74-12.927-12.374q-.618-1.48-1.125-3c5.516 4.916 10.313 11.083 17.992 12.915 7.402 1.768 13.277-1.982 19.335-5.65 7.571-15.411 1.935-14.271 4.566-25.613" data-index="11"/><path fill="#231905" d="M433.034 930.17c3.354-4.851 8.318-8.427 14.202-9.464 6.65-1.172 13.636.863 19.058 4.774 5.06 3.65 8.767 9.022 9.709 15.245q.359 2.417.171 4.853-.184 2.435-.907 4.768c-3.592-4.344-2.771-10.39-5.534-14.878-2.404-3.906-8.883-7.03-13.155-8.426q-4.238-1.396-8.45-2.868c-3.794 2.05-10.97 5.634-15.094 5.995" data-index="12"/><path fill="#231905" d="M546.947 1302.567c1.156 1.63 2.232 3.06 3.024 4.908 2.518 6.299 3.6 12.173.768 18.623-2.628 5.982-7.964 10.191-14.068 12.26-1.148.388-1.077.354-2.061.588-1.256-.683-.644-.213-1.734-1.533q1.584-3.238 3.03-6.542c4-2.227 5.84-5.058 8.225-8.89.794-3.877.53-6.576-.446-10.41 1.895-2.916 1.33-6.115 3.262-9.004" data-index="13"/><path fill="#2A1D04" d="M546.947 1302.567c1.156 1.63 2.232 3.06 3.024 4.908-4.085 4.043.947 9.862-5.84 14.506.794-3.877.53-6.576-.446-10.41 1.895-2.916 1.33-6.115 3.262-9.004" data-index="14"/><path fill="#2A1D04" d="M516.953 1167.775c-1.96-3.871-2.623-8.859-1.702-13.102 1.378-6.347 5.56-12.34 11.128-15.718 4.199-2.543 10.29-3.955 15.108-2.86 1.67 3 4.162 6.352 6.785 8.566l-.278 2.546c-4.507-2.588-8.212-4.528-13.476-3.045-2.988.84-5.571 2.58-8.157 4.235-3.721.958-4.478 5.993-7.405 7.21l1.657-2.808c-2.058 2.634-3.963 4.357-3.528 7.896.309 2.496 1.185 4.726-.132 7.08" data-index="15"/><path fill="#2A1D04" d="M553.53 1153.425c1.816 1.337 2.92 2.16 3.363 4.546.361 1.94.327 4.167.409 6.146l.739.306 2.306-2.245c.515 3.684-2 6.79-1.61 10.468-2.607 5.112-7.011 8.53-12.463 10.297-5.66 1.834-11.653 1.795-16.889-1.169-1.388-.786-2.528-1.618-3.65-2.768 5.18.654 8.777-.243 13.649-1.797 4.953-1.842 10.429-4.185 13.302-8.89 2.95-4.835 1.893-9.717.845-14.894" data-index="16"/><path fill="#362002" d="M555.465 1354.946c1.626-5.813 4.763-10.93 10.2-13.912 5.407-2.966 12.191-3.375 18.047-1.605 6.726 2.032 12.49 7.007 15.683 13.242 2.6 5.075 3.098 10.45 1.171 15.85-.702 1.963-1.644 3.868-3.103 5.37-.124-4.165 1.628-8.052 2.365-12.155-2.011-4.974-4.531-12.31-9.147-15.411-3.568-2.396-10.038-1.665-14.084-.937-1.863.396-3.984 1.108-5.879 1-5.238 1.404-8.912 1.882-12.213 6.552-.689.977-1.42 1.932-2.124 2.898z" data-index="17"/><path fill="#181221" d="M487.5 1097.665c4.133-5.848 8.756-9.107 15.95-10.197 6.647-1.008 14.055.42 19.478 4.505 2.641 1.99 5.304 4.855 6.848 7.798 2.657 5.56 3.393 11.761 1.44 17.688-2.053 6.238-6.697 11.012-12.542 13.846a53 53 0 0 0 4.694-6.832c2.325-2.707 3.307-5.855 4.55-9.14.071-5.152-.119-10.789-3.57-14.98-1.742-2.116-4.204-3.815-6.97-4.002-1.304-2.23-4.5-5.954-7.083-6.69-5.483-1.56-11.613 1.977-16.155 4.848-2.407 1.522-3.694 2.945-6.64 3.156" data-index="18"/><path fill="#362002" d="M609 1403.66c-.599-.842-.915-1.55-1.182-2.55-1.462-5.472-.789-10.257 2.22-15.088 3.979-6.392 9.655-10.443 16.98-11.963l.05 1.602c-2.633 1.9-5.23 3.652-7.396 6.101-5.457 3.663-9.239 8.498-10.315 15.084-.41 2.518.129 4.162 1.272 6.373 1.984 1.46 3.691.94 5.232 2.328l1.29-.41c3.442 2.336 8.253 9.2 14.087 8.96 2.966-.124 9.888-5.368 12.042-7.44.965-.926.33-.382 1.715-1.488.232-.184.47-.366.704-.549.85-.535 1.478-.87 2.204-1.556 4.824-4.582.594-14.47.665-20.344.002-.25.013-.501.021-.752l2.304 3.344c-2.631 11.342 3.005 10.202-4.566 25.613-6.058 3.668-11.933 7.418-19.335 5.65-7.679-1.832-12.476-7.999-17.992-12.915" data-index="19"/><path fill="#2A1D04" d="M501.334 1261.886c1.694-2.346 1.451-4.492 3.747-6.482.805 1.31 1.834 2.679 2.43 4.088 2.283 6.21 2.956 12.564.003 18.7-2.824 5.863-8.394 10.301-14.588 12.165-5.423 1.63-11.183 1.124-16.155-1.634-4.09-2.267-7.698-5.98-9.756-10.186.324.121.652.237.971.37 1.34.559 2.254 1.411 3.357 2.33 3.533 2.934 10.165 7.156 14.946 6.8 1.895-.14 3.645-.65 4.84-2.222.641-.844 1.027-1.895 1.41-2.871 4.261-3.304 7.03-6.339 9.555-11.144.208-3.568.23-6.463-.76-9.914" data-index="20"/><path fill="#3D2200" d="M501.334 1261.886c1.694-2.346 1.451-4.492 3.747-6.482.805 1.31 1.834 2.679 2.43 4.088-.99 1.924-1.195 3.26-1.42 5.42-.3 2.9-.575 4.26-2.952 6.144-.336.264-.697.496-1.045.744.208-3.568.23-6.463-.76-9.914" data-index="21"/><defs><linearGradient id="a" x1="130.797" x2="131.471" y1="362.466" y2="352.817" gradientUnits="userSpaceOnUse"><stop offset="0" stop-color="#2E2B07"/><stop offset="1" stop-color="#472600"/></linearGradient></defs><path fill="url(#a)" d="m135.552 353.787.485.321.118 1.071c.123-.298.383-1.18.617-1.322.154-.094.303-.197.456-.294.552-.348.309-.259.787-.365.26 2.559.095 4.361-1.569 6.425-1.614 2.002-4.128 3.297-6.675 3.565-2.11.222-4.294-.225-5.966-1.579q-.433-.349-.813-.755t-.7-.861q-.319-.455-.573-.95t-.435-1.021l.632-.065c.709 1.045 1.416 2.617 2.591 3.095 1.283-.204 2.609-.591 3.896-.682 1.616-.162 3.137-.357 4.504-1.308 1.807-1.259 2.338-3.215 2.645-5.275" data-index="22" transform="scale(2.63889)"/><path fill="#362002" d="M855.731 1466.08c4.478-.356 11.084.422 14.741 3.254 4.718 7.151 10.474 16.952 8.584 26.056-1.071 5.16-6.927 8.508-7.56 12.923l-1.48.84c-.18-.011-.36-.04-.539-.033-5.99.267-11.194-.411-17.031-1.696 1.48-.61 1.084-.615 2.377-.684 2.21-.116 4.307-.187 6.51-.459l.602-1.304c5.107-1.828 8.907-4.024 11.348-9.088q.356-.726.638-1.483.28-.76.483-1.541.203-.784.325-1.583.121-.8.16-1.607.04-.808-.002-1.615-.042-.808-.166-1.605-.124-.8-.327-1.583-.206-.781-.489-1.539-.28-.736-.63-1.443-.351-.705-.77-1.372-.42-.665-.906-1.288-.483-.62-1.03-1.19-.543-.57-1.142-1.082t-1.245-.963q-.647-.45-1.336-.834-.688-.383-1.412-.694c-5.243-2.222-10.262-1.436-15.36.643-.629-.153-1.23-.498-1.816-.77.496-4.014 4.557-5.035 6.895-7.56.206-.222.386-.468.578-.7" data-index="23"/><path fill="#362002" d="M678.912 1450.949a35 35 0 0 1-3.29-1.486c-6.125-3.153-10.416-8.25-12.348-14.912-1.71-5.9-1.243-12.532 1.853-17.897 3.552-6.151 9.584-9.535 16.298-11.194l1.306 1.042c-2.533 3.752-5.65 6.558-8.373 10.054-3.075 4.204-5.87 9.115-5.178 14.543.607 4.737 4.222 8.463 7.735 11.34.37.3.728.614 1.095.918l.691.567c.167.214.33.425.5.636 1.838 2.283 3.675 3.795 6.1 5.42-1.367 1.056-4.573.813-6.389.969" data-index="24"/><path fill="#362002" d="M931.705 1471.345c4.83 5.325 7.93 11.078 7.645 18.475q-.04 1.126-.193 2.243-.153 1.119-.417 2.214t-.636 2.161q-.372 1.063-.85 2.085-.477 1.021-1.052 1.99-.578.97-1.249 1.876-.67.907-1.427 1.741-.76.834-1.597 1.589c-5.154 4.702-12.028 6.8-18.94 6.336-5.356-.362-10.916-3.106-14.275-7.35-.465-.585-.634-.907-1.056-1.577l2.552-1.906c2.612 3.903 5.502 5.764 10.107 6.875 2.493.601 6.687.81 8.816-.853.953-.741 1.607-1.87 2.243-2.874q1.676-.957 3.294-2.016c3.541-2.361 6.314-6.55 6.987-10.79.75-4.729-.654-9.323-3.325-13.184 1.858-.087 1.887-.05 3.273-1.275.844-2.477.564-3.248.1-5.76" data-index="25"/><path fill="#3D2200" d="M627.019 1374.06c6.465-1.088 12.086.19 17.356 4.206 1.483 1.13 2.855 2.428 4.214 3.702-.008.25-.019.502-.021.752-.071 5.874 4.159 15.762-.665 20.344-.726.686-1.354 1.02-2.204 1.556 1.386-5.1 1.539-9.61-.918-14.437-1.971-3.871-5.28-6.993-9.5-8.228-5.14-1.507-9.782-.121-14.276 2.462-3.389 3.797-6.096 7.376-5.975 12.698.066 2.85 1.095 5.402 2.122 8.023l-1.29.409c-1.542-1.388-3.249-.868-5.233-2.328-1.143-2.211-1.681-3.855-1.272-6.373 1.076-6.586 4.858-11.42 10.315-15.084 2.167-2.449 4.763-4.2 7.397-6.1z" data-index="26"/><path fill="#362002" d="m522.946 1294.972 1.781.639c-.454 1.76-.794 2.002-1.92 3.364-1.5 1.818-2.051 2.853-2.484 5.138-1.148.929-2.383 2.174-3.644 2.905-2.272 4.798-3.552 9.015-1.742 14.221.842 2.426 2.177 4.47 3.644 6.553 5.355 3.182 8.215 4.46 14.673 4.251l2.652-1.172q-1.446 3.304-3.03 6.542c1.09 1.32.478.85 1.734 1.533-.327.03-.654.069-.982.09-8.183.56-13.01-.56-19.388-5.99-2.794-2.082-4.966-5.302-6.277-8.495-2.238-5.457-1.953-11.83.48-17.174 3.016-6.623 7.9-9.909 14.503-12.405" data-index="27"/><path fill="#3D2200" d="M516.679 1307.018c-2.272 4.798-3.552 9.015-1.742 14.221.842 2.426 2.177 4.47 3.644 6.553-2.359-.309-5.697-2.188-7.362-3.948-1.7-1.794-2.235-3.597-2.014-6.056.462-5.101 3.687-7.78 7.474-10.77" data-index="28"/><path fill="#231905" d="M757.095 1437.736c5.497 4.362 9.787 9.25 10.753 16.47.805 6.003-1.18 11.935-5.035 16.55-4.29 5.13-10.78 8.754-17.514 9.107q-1.03.063-2.061.021-1.032-.04-2.053-.182-1.024-.145-2.027-.388-1.002-.245-1.976-.588-.971-.343-1.908-.781-.934-.438-1.818-.966-.887-.53-1.716-1.145-.83-.615-1.594-1.31c-3.406-3.116-5.855-6.834-7.367-11.183 5.293 5.167 11.809 11.474 19.762 11.273 2.478-.063 4.655-1.016 6.896-1.981l1.604-1.914c2.349-1.604 4.534-3.209 6.368-5.41 3.562-4.274 2.926-9.159 2.375-14.331.103-4.845-3.011-8.521-2.69-13.242" data-index="29"/><path fill="#231905" d="M451.752 1193.528c6.17 2.422 12.223 7.101 14.944 13.318 2.322 5.302 2.683 11.733.274 17.074-2.547 5.64-7.967 9.99-13.72 12.046-5.808 2.08-12.648 2.056-18.253-.657-4.56-2.206-9.157-6.6-11.273-11.23.314.152.633.297.942.458 1.905.98 3.32 2.705 4.921 4.096 6.239 5.423 11.282 2.86 18.404 1.39.074-.015.14-.055.211-.081 4.505-1.713 9.176-4.122 11.398-8.653 2.274-4.634 1.208-9.186-.267-13.865.026-.222.066-.438.074-.66.211-4.89-4.734-9.624-7.655-13.236" data-index="30"/><path fill="#2A1D04" d="M870.016 1509.152c-2.526 1.407-4.935 2.161-7.78 2.663-6.336 1.119-12.252.332-17.527-3.555q-.932-.7-1.79-1.485-.857-.787-1.636-1.652-.775-.866-1.467-1.803-.691-.937-1.288-1.937-.596-1-1.092-2.053-.499-1.05-.892-2.148-.393-1.095-.678-2.222-.285-1.13-.46-2.28-.166-1.15-.221-2.314-.056-1.161 0-2.322.058-1.164.224-2.315.17-1.15.446-2.28.277-1.13.663-2.227.385-1.098.876-2.153.488-1.056 1.076-2.059.589-1.005 1.27-1.947c3.797-5.151 9.75-8.13 15.991-8.983-.192.232-.372.478-.578.7-2.338 2.525-6.399 3.546-6.895 7.56.586.272 1.187.617 1.815.77-1.002.853-1.496 1.473-2.815 1.734-2.349 4.207-4.22 8.051-5.357 12.786 1.707 5.467 3.494 10.431 8.938 13.13 3.52 1.748 7.238 1.964 11.096 2.217l-.601 1.304c-2.204.272-4.302.343-6.51.46-1.294.068-.898.073-2.378.683 5.837 1.285 11.041 1.963 17.031 1.696.18-.007.36.022.539.032" data-index="31"/><path fill="#3D2200" d="M852.446 1507.424c-1.13-.57-.58-.42-1.93-.536-1.208-.103-2.693-.084-3.857-.425-2.763-.805-6.038-4.803-7.328-7.312-2.122-4.127-2.697-9.057-.985-13.43 1.48-3.768 5.31-7.206 8.912-8.877-2.349 4.207-4.22 8.051-5.357 12.786 1.707 5.467 3.494 10.431 8.938 13.13 3.52 1.748 7.238 1.964 11.096 2.217l-.601 1.304c-2.204.272-4.302.343-6.51.46-1.294.068-.898.073-2.378.683" data-index="32"/><path fill="#3D2200" d="M467.015 1278.537c-.486-.604-.707-.84-1.095-1.454-2.602-4.122-3.856-9.672-2.629-14.44 1.676-6.505 6.59-12.184 12.456-15.327 6.246-3.343 11.553-3.39 18.153-1.19-5.19 3.808-11.371 1.41-15.129 7.853-.182.243-.353.491-.543.726-3.97 4.959-7.381 6.339-6.732 13.527.435 4.83 3.211 9.22 7.014 12.126 3.552 2.71 7.009 3.924 11.44 3.148q1.308-.22 2.588-.562c-.382.976-.768 2.027-1.409 2.871-1.195 1.573-2.945 2.082-4.84 2.222-4.781.356-11.413-3.866-14.946-6.8-1.103-.919-2.016-1.771-3.357-2.33-.32-.133-.647-.249-.971-.37" data-index="33"/><path fill="#2A1D04" d="M412.268 1140.125c7.376 2.16 14.356 5.876 18.058 12.985 2.708 5.196 2.993 11.73.98 17.209q-.404 1.079-.911 2.116-.51 1.037-1.114 2.019-.607.981-1.303 1.9-.7.918-1.483 1.765t-1.647 1.613-1.797 1.443q-.932.678-1.926 1.264-.995.583-2.043 1.069-1.119.501-2.285.89-1.164.384-2.362.651-1.198.266-2.417.409-1.22.145-2.446.164-1.228.018-2.45-.087-1.224-.106-2.43-.336t-2.38-.58q-1.177-.351-2.312-.818c-5.848-2.452-10.782-7.962-13.07-13.815-.085-.214-.161-.427-.243-.641l1.765.01c1.225 1.257 2.212 2.394 3.215 3.83 2.757 3.955 8.33 7.668 13.141 8.312 2.681.359 4.705.066 7.236-.81l1.008-1.296-.361-1.48c3.792-1.172 6.7-2.644 9.341-5.698 2.396-2.773 3.676-6.09 3.378-9.771-.48-5.906-3.784-9.466-8.056-13.19-.832-2.264-2.557-3.77-3.555-5.921-.501-1.08-.992-2.143-1.53-3.206" data-index="34"/><path fill="#231905" d="M837.716 1383.348c-1.027-1.25-1.969-2.446-2.75-3.866-3.32-6.037-4.035-13.023-1.834-19.578q.417-1.208.955-2.367.536-1.16 1.19-2.259.655-1.097 1.42-2.124.763-1.024 1.628-1.966.863-.942 1.821-1.789t1.995-1.591q1.04-.744 2.148-1.38 1.111-.634 2.28-1.15c5.75-2.526 11.255-2.099 16.955.1 2.312 6.66 8.378 10.713 11.695 16.77 1.93 3.522 1.26 7.55 4.442 10.112-.792 3.351-1.9 5.848-3.853 8.682-1.948-5.497.53-10.915-2.882-15.44-2.515-6.265-5.771-10.891-12.244-13.554-3.832-1.575-8.03-1.744-11.83.008-4.077 1.876-7.236 5.75-8.608 9.994-.713 2.2-.932 4.644-1.148 6.943-.631 4.776-1.647 9.629-1.38 14.455" data-index="35"/><path fill="#2A1D04" d="M549.43 1199.674c1.594-6.574 5.149-12.213 11.136-15.649q1.072-.617 2.201-1.119 1.13-.504 2.306-.886 1.175-.383 2.386-.642 1.209-.258 2.438-.39t2.465-.135q1.238-.003 2.467.122 1.23.126 2.441.38 1.212.25 2.389.628 1.216.393 2.39.905 1.172.509 2.29 1.134 1.117.623 2.167 1.352t2.027 1.56q.974.828 1.863 1.749.89.918 1.684 1.92.794 1.004 1.485 2.08.694 1.077 1.278 2.214.506 1.008.907 2.067.399 1.055.687 2.148.29 1.092.461 2.208.175 1.114.233 2.243.058 1.127 0 2.257-.061 1.126-.238 2.243-.174 1.116-.464 2.206-.29 1.092-.692 2.148c-.942 2.55-2.43 5.014-4.008 7.215l-1.713-3.76c1.552-2.3 2.557-4.877 2.576-7.677.018-2.97-1.14-4.45-3.114-6.503-.758-1.35-1.525-2.707-2.41-3.979-2.9-4.183-7.547-8.305-12.785-8.933-5.866-.702-10.318 1.908-14.704 5.429-3.723.588-6.668 4.016-10.149 5.465" data-index="36"/><path fill="#3D2200" d="M897.658 1503.128c-2.198-2.974-3.526-6.06-4.254-9.698-1.248-6.223-.032-12.583 3.623-17.8 3.861-5.515 10.26-9.014 16.876-9.885 6.953-.916 12.366 1.46 17.802 5.6.464 2.512.744 3.283-.1 5.76-1.386 1.225-1.415 1.188-3.273 1.275-4.185-3.539-8.433-6.265-14.136-5.982-4.341.213-8.043 2.406-10.735 5.747-3.697 4.584-4.022 8.814-3.935 14.472 2.908 5.172 5.896 10.197 11.983 11.946 3.46.995 6.429.639 9.867-.193-.636 1.003-1.29 2.133-2.243 2.874-2.13 1.663-6.323 1.454-8.816.853-4.605-1.111-7.495-2.972-10.107-6.875z" data-index="37"/><path fill="#362002" d="M433.034 930.17c4.124-.362 11.3-3.946 15.094-5.996q4.212 1.472 8.45 2.868c4.272 1.396 10.75 4.52 13.155 8.426 2.763 4.489 1.942 10.534 5.534 14.878-1 2.871-2.117 4.771-4.096 7.078-2.876 4.158-6.792 6.586-11.566 8.18-5.9-3.568-12.403-2.277-16.673-8.494 2.349.855 4.893 1.66 7.387 1.897 4.607.443 9.413-.51 12.917-3.69 4.541-4.124 5.246-9.048 5.41-14.848-2.834-5.716-6.44-9.44-12.67-11.482-4.124-1.351-8.898-1.217-12.806.752-3.692 1.858-6.02 5.006-7.064 8.962-1.235 4.676-.729 8.283 1.158 12.645-2.678-1.538-5.154-1.633-8.188-1.9-.209-1.44-.378-2.863-.45-4.317-.287-5.724.444-10.632 4.408-14.96" data-index="38"/><path fill="#2A1D04" d="M664.06 1257.355c5.867 4.847 10.179 10.663 10.786 18.54.485 6.305-2.1 12.269-6.296 16.9-.816.897-1.734 1.647-2.663 2.417-5.188 4.55-11.627 6.384-18.483 5.843q-1.264-.095-2.504-.362-1.24-.266-2.43-.7-1.193-.432-2.315-1.026-1.121-.59-2.15-1.33c-2.6-1.628-4.273-3.457-6.26-5.776 6.025.628 9.558 3.781 15.883 2.309 5.064-.372 10.406-1.758 14.343-5.125 4.217-3.605 5.354-7.698 5.832-13.033-.412-1.286-.845-2.52-1.41-3.748-2.894-6.28-7.066-8.835-13.35-11.27l.243-.766c1.29.037 2.584.08 3.874.069 3.45-.026 4.457-.475 6.9-2.942" data-index="39"/><path fill="#231905" d="m666.127 1293.207-.24 2.005c-5.188 4.55-11.627 6.384-18.483 5.843q-1.264-.095-2.504-.362-1.24-.266-2.43-.7-1.193-.432-2.315-1.026-1.121-.59-2.15-1.33c1.511-.868 2.282-.876 4.016-.649 8.402 1.114 16.218-1.021 24.106-3.781" data-index="40"/><path fill="#231905" d="M725.79 1329.729c2.082-6.064 5.768-10.785 11.64-13.614 6.32-3.05 14.712-3.46 21.261-.91q1.07.419 2.093.947 1.021.525 1.982 1.153.963.628 1.858 1.351.892.723 1.707 1.533t1.544 1.702q.725.89 1.359 1.847.633.958 1.166 1.977t.958 2.087c2.351 5.83 1.977 12.11-.538 17.823-2.679 6.088-7.587 11.12-13.913 13.366-5.628 2-10.819 1.76-16.442.024 2.227-3.148 5.2-2.496 8.441-3.924.388-.171.776-.353 1.164-.53 4.162-1.987 7.677-4.006 10.688-7.577 3.776-4.48 4.594-9.386 4.132-15.07.253-.9.578-1.89.7-2.826.308-2.357-.293-4.568-1.748-6.453-2.657-3.449-9.341-5.763-13.553-6.08-7.724-.585-15.414 5.695-20.955 10.45-.842.72-1.66 1.402-2.568 2.04z" data-index="41"/><path fill="#3D2200" d="M681.425 1405.46c6.7-.65 12.234.182 17.511 4.713 5.128 4.401 8.434 11.241 8.793 17.978.327 6.2-1.834 12.567-6.114 17.103-4.283 4.539-10.065 6.605-16.235 6.624-2.248.008-4.301-.37-6.468-.93 1.816-.155 5.022.088 6.39-.968-2.426-1.625-4.263-3.137-6.102-5.42-.169-.211-.332-.422-.499-.636 3.344.702 7.218 1.013 10.53.034 5.475-1.617 8.41-6.724 11.125-11.313-.145-3.836-.145-7.594-1.797-11.146-2.238-4.816-6.418-6.909-11.194-8.632-4.945.51-8.566 1.359-13.007 3.69 2.723-3.497 5.84-6.303 8.373-10.055z" data-index="42"/><path fill="#2A1D04" d="M441.024 992.196c2.647-6.048 7.445-10.28 13.63-12.622 6.194-2.348 14.113-1.83 20.058 1.053 5.455 2.645 9.086 7.384 10.83 13.126 1.808 5.95 1.111 12.036-1.907 17.462-3.22 5.782-8.785 10.481-15.266 12.099-6.743 1.686-13.364-.435-19.043-4.138a28 28 0 0 1-3.019-2.277c4.215-.63 8.912-.182 13.195-.15 2.304-.106 4.695-.328 6.927-.945 4.233-1.17 8.355-3.262 10.426-7.318 3.027-5.922 1.454-12.1-.604-18.016-.665-3.393-2.494-6.76-5.354-8.858-2.758-2.022-6.307-1.824-9.43-.99-6.446 1.723-12.37 6.194-17.51 10.31-1.13.905-1.523 1.14-2.933 1.264" data-index="43"/><path fill="#2A1D04" d="M476.233 1034.424c6.953-1.246 13.542-.325 19.445 3.776q.956.657 1.842 1.41.884.751 1.692 1.588.805.836 1.52 1.75.718.912 1.34 1.894.62.98 1.14 2.019.52 1.037.932 2.122.412 1.087.713 2.208.3 1.122.488 2.267c.9 5.69-.7 12.152-4.278 16.694-.203.256-.44.483-.66.723-2.414 4.386-6.863 7.676-11.653 9.064-6.386 1.85-11.028 1.066-17.1-1.272.256-.311 1.36-1.686 1.644-1.908 1.407-1.092 6.59.227 8.463.518 2.755-1.153 2.76-1.853 4.175-4.383 3.591-1.803 6.774-4.505 8.97-7.885 2.374-3.658 3.332-7.92 2.374-12.208-1.145-5.13-4.056-7.35-8.267-10.128l.052-1.285c-4.467-2.367-9-5.423-14.258-3.753-5.13 1.631-10.312 6.39-13.75 10.398-.785.915-.463.575-1.71 1.285.424-1.34.86-2.713 1.48-3.98 3.005-6.146 9.225-9.009 15.406-10.914" data-index="44"/><path fill="#181221" d="M476.233 1034.424c6.953-1.246 13.542-.325 19.445 3.776q.956.657 1.842 1.41.884.751 1.692 1.588.805.836 1.52 1.75.718.912 1.34 1.894.62.98 1.14 2.019.52 1.037.932 2.122.412 1.087.713 2.208.3 1.122.488 2.267c.9 5.69-.7 12.152-4.278 16.694-.203.256-.44.483-.66.723-.306-4.336 2.563-10.033 2.864-14.86l-.887 3.354c.008-.435.01-.873.026-1.311.306-9.39-7.338-13.625-12.619-20.307l-.488-.628c-4.357-1.192-8.598-2.053-13.07-2.7" data-index="45"/><path fill="#181221" d="M892.267 1364.757c2.259-5.639 6.209-9.832 11.867-12.202q1.171-.488 2.385-.855t2.457-.61q1.246-.242 2.51-.356 1.264-.116 2.53-.1 1.27.013 2.528.156 1.262.142 2.5.414 1.24.27 2.446.662 1.206.396 2.364.91c5.312 2.386 9.761 6.762 11.825 12.25a31 31 0 0 1 1.042 3.28c1.668 4.888 1.602 9.5-.593 14.248-2.776 6.004-8.695 11.382-14.923 13.57-1.143.4-2.296.714-3.465 1.036-6.004.6-10.445-.195-15.715-3.1 3.692-1.85 5.283-1.024 9.2-1.043 2.253-.008 2.981-.834 4.536-2.333 2.219-.884 4.539-1.725 6.528-3.066 5.579-3.76 7.416-9.014 8.476-15.398-2.303-7.215-5.335-10.474-11.6-14.44-.04-.042-.077-.092-.124-.13-3.23-2.443-8.706-1.55-12.506-1.247-4.908 2.47-9.236 4.436-13.382 8.212z" data-index="46"/><path fill="#231905" d="M930.765 1372.22c1.78 3.02.969 7.537.003 10.851-1.08 3.708-4.436 7.761-7.943 9.36-1.969.9-5.006 1.515-6.146 3.283l1.06 1.446c-6.003.6-10.444-.195-15.714-3.1 3.692-1.85 5.283-1.024 9.2-1.043 2.253-.008 2.981-.834 4.536-2.333 2.219-.884 4.539-1.725 6.528-3.066 5.579-3.76 7.416-9.014 8.476-15.398" data-index="47"/><path fill="#3D2200" d="M318.12 929.293c2.906-7.067 6.548-12.036 13.887-15.105q1.071-.46 2.185-.807 1.113-.349 2.256-.584 1.14-.235 2.301-.356 1.158-.121 2.325-.127 1.166-.002 2.327.109 1.161.113 2.304.34 1.145.227 2.262.567 1.113.34 2.19.79 1.08.459 2.106 1.026 1.026.565 1.992 1.232.966.665 1.86 1.425.895.758 1.708 1.602.815.845 1.538 1.768.726.921 1.357 1.91.628.99 1.156 2.038t.947 2.143c.607 1.573 1.04 3.14 1.385 4.787-1.261.28-.62.045-2.076.963-.404.256-.797.528-1.204.776-.617.374-1.303 2.702-1.628 3.488l-.311-2.826-1.28-.847c-3.13-7.867-5.695-11.002-13.4-14.656-6.616.778-11.82 2.543-15.966 8.138-2.488 3.357-3.473 7.378-2.731 11.498.63 3.51 2.43 5.734 4.705 8.383 2.863 1.982 5.112 3.246 8.526 4.009-3.396.24-6.895 1.261-10.28 1.8-3.101-1.262-4.967-5.41-6.838-8.168l-1.668.172c-3.159-5.23-2.926-9.656-1.934-15.488" data-index="48"/><path fill="#362002" d="M320.055 944.78c-3.159-5.23-2.926-9.655-1.934-15.487l2.032 1.987c.454 4.713.617 11.165 4.715 14.324 1.732 1.333 3.323 1.362 5.447 1.364 2.863 1.982 5.112 3.246 8.526 4.009-3.396.24-6.895 1.261-10.28 1.8-3.101-1.262-4.967-5.41-6.838-8.168z" data-index="49"/><path fill="#3D2200" d="M576.597 1345.388c4.046-.728 10.516-1.46 14.084.937 4.616 3.1 7.136 10.437 9.147 15.41-.737 4.104-2.489 7.991-2.365 12.156-1.75 2.388-3.76 4.238-6.267 5.837q-1.069.673-2.201 1.235-1.132.56-2.317 1.003-1.185.44-2.407.76-1.222.319-2.47.512-1.25.192-2.512.255-1.261.064-2.523-.002-1.264-.066-2.512-.259-1.248-.195-2.47-.514c-7.27-1.94-11.34-5.959-14.92-12.348-2.264-4.589-2.5-10.497-1.399-15.424l.916.892c.704-.966 1.435-1.921 2.124-2.898 3.301-4.67 6.975-5.148 12.213-6.552-4.127 3.824-8.043 7.927-8.36 13.87-.264 4.97 2.462 9.27 5.515 12.936 2.082 1.335 4.135 2.758 6.568 3.357q.763.187 1.542.3.778.111 1.564.148.784.034 1.57-.005.787-.042 1.563-.161.778-.116 1.538-.309.763-.195 1.504-.462.74-.266 1.45-.604.709-.338 1.382-.744.678-.42 1.309-.903.633-.485 1.214-1.031.58-.544 1.105-1.146.523-.599.985-1.248t.855-1.343q.396-.691.717-1.42.325-.728.573-1.485.25-.755.422-1.534.17-.746.262-1.51.092-.76.103-1.527.01-.765-.059-1.53-.068-.763-.216-1.518-.148-.752-.372-1.483-.224-.734-.525-1.44-.301-.705-.673-1.376t-.813-1.298c-3.763-5.32-8.832-6.52-14.844-7.534" data-index="50"/><path fill="#5B5354" d="M190.277 662.62c1.662 2.67.652 7.782 1.265 11.115l-1.51-3.008c-9.624-2.059-20.978-.982-30.84-.974-21.944.018-44.134.781-66.052.008 1.154 12.711 1.37 27.085.033 39.786 29.326-.596 58.804.272 88.15.407 9.265.042 19.824 1.385 28.929.388l1 1.084c-9.101 2.201-28.693.681-38.596.681-27.216 0-54.502.404-81.705-.245-.783-14.54-.492-29.477-.198-44.035 32.802-.267 65.977 1.195 98.713-.27 1.065-1.37.74-3.224.81-4.937" data-index="51"/><path fill="#2A1D04" d="M487.5 1097.665c2.946-.211 4.233-1.634 6.64-3.156 4.542-2.871 10.672-6.408 16.155-4.848 2.584.736 5.78 4.46 7.083 6.69-6.47-1.81-11.946-2.803-18.23.496-3.612 1.894-6.536 5.196-7.62 9.167-1.111 4.064-.238 8.37 1.934 11.925 1.61 2.637 4.05 4.822 6.457 6.719 4.286 2.048 7.608 3.103 12.26 1.49 4.626-1.603 8.313-4.78 10.366-9.254 1.845-4.008 2.364-9.479.689-13.624-1.061-2.629-4.346-4.402-5.856-6.92 2.766.188 5.228 1.887 6.97 4.004 3.451 4.19 3.641 9.827 3.57 14.978-1.243 3.286-2.225 6.434-4.55 9.141a53 53 0 0 1-4.694 6.832c-2.515 1.57-6.191 2.758-9.133 3.083-5.843.646-10.503-1.608-15.013-5.07-.203-.11-.417-.206-.612-.332-4.397-2.848-7.714-8.622-8.943-13.614-1.568-6.36-.863-12.113 2.528-17.707" data-index="52"/><path fill="#231905" d="M494.528 1129.318c3.285-.277 7.376 1.024 10.775 1.248 7.19.473 12.582-1.308 18.065-6.093a53 53 0 0 1-4.694 6.832c-2.515 1.57-6.191 2.758-9.133 3.083-5.843.646-10.503-1.608-15.013-5.07" data-index="53"/><path fill="#362002" d="M781.676 1466.925c2.399-5.743 5.932-10.76 11.804-13.374 5.742-2.56 12.376-2.299 18.132.074 6.114 2.52 11.46 7.415 13.756 13.7q.388 1.043.665 2.12.275 1.08.438 2.18.161 1.1.206 2.21.045 1.112-.026 2.223-.074 1.11-.262 2.206-.187 1.098-.49 2.17-.301 1.068-.716 2.102-.411 1.032-.931 2.016c-1.655 3.183-4.035 6.265-7.099 8.197 1.557-4.74 3.146-8.244 1.52-13.218.884-3.85.98-8.155-.95-11.722-2.84-5.252-8.771-7.04-14.091-8.577-5.695.993-9.656 1.958-13.192 6.943-2.441 3.444-3.523 7.547-2.763 11.733.89 4.913 4.006 8.92 8.173 11.54a40 40 0 0 0 2.997 1.683c-2.346 1.1-4.557 1.993-7.05 2.708l-.895 1.44c-4.178-2.551-7.297-5.523-9.408-10.011-2.998-6.37-2.28-12 .182-18.343" data-index="54"/><path fill="#5B5354" d="M1124.222 1405.853c.037-6.946-.64-14.913 2.819-21.161l1.483-.837c2.55 2.1 3.1 5.821 3.436 8.967.456 4.322.068 9.11-.03 13.466l-.62 5.745.222 1.39c-.488 14.525.335 29.171-.396 43.656l.462 5.67c.349 8.577 1.576 18.45-1.8 26.509l-2.177.662c-4.868-5.943-3.32-20.209-3.288-27.682l.016-5.544.116-43.571z" data-index="55"/><path fill="#E1794E" d="M674.358 1416.556c4.441-2.33 8.062-3.18 13.007-3.689 4.776 1.723 8.956 3.816 11.194 8.632 1.652 3.552 1.652 7.31 1.797 11.146-2.715 4.59-5.65 9.696-11.125 11.313-3.312.98-7.186.668-10.53-.034l-.691-.567c-.367-.304-.726-.618-1.095-.919-3.513-2.876-7.128-6.602-7.735-11.339-.691-5.428 2.103-10.34 5.178-14.543" data-index="56"/><path fill="#E1794E" d="M344.306 918.949c7.706 3.654 10.271 6.79 13.4 14.656-.81 5.436-2.21 10.598-6.98 13.92-3.606 2.51-7.62 3.024-11.885 3.452-3.414-.763-5.663-2.027-8.526-4.009-2.275-2.65-4.074-4.874-4.705-8.383-.742-4.12.243-8.141 2.731-11.498 4.146-5.595 9.35-7.36 15.965-8.138" data-index="57"/><path fill="#E1794E" d="M576.597 1345.388c6.012 1.013 11.081 2.214 14.844 7.534q.44.628.813 1.298t.673 1.375q.3.707.525 1.441.224.731.372 1.483.148.755.216 1.517.07.766.059 1.531-.011.768-.103 1.528-.093.763-.262 1.51-.171.778-.422 1.533-.248.757-.573 1.485-.321.729-.717 1.42-.393.694-.855 1.343-.462.65-.985 1.248-.525.602-1.105 1.146-.58.546-1.214 1.031-.63.483-1.31.903-.672.406-1.382.744t-1.449.604q-.741.267-1.504.462-.76.193-1.538.312-.776.116-1.562.158-.787.04-1.57.005-.787-.037-1.565-.148-.779-.113-1.542-.3c-2.433-.6-4.486-2.022-6.568-3.357-3.053-3.666-5.779-7.967-5.515-12.936.317-5.943 4.233-10.046 8.36-13.87 1.895.108 4.016-.604 5.88-1" data-index="58"/><path fill="#E1794E" d="M621.005 1384.417c4.494-2.583 9.135-3.969 14.276-2.462 4.22 1.235 7.529 4.357 9.5 8.228 2.457 4.827 2.304 9.336.918 14.437-.234.183-.472.365-.704.55-1.386 1.105-.75.561-1.715 1.488-2.154 2.071-9.076 7.315-12.042 7.439-5.834.24-10.645-6.624-14.086-8.96-1.027-2.62-2.056-5.172-2.122-8.022-.121-5.322 2.586-8.9 5.975-12.698" data-index="59"/><path fill="#E1794E" d="M803.632 1459.232c5.32 1.536 11.252 3.325 14.091 8.577 1.93 3.567 1.834 7.871.95 11.722-2.844 5.156-5.898 9.47-11.817 11.2-2.588.754-5.349.572-8.009.4a40 40 0 0 1-2.997-1.683c-4.167-2.62-7.284-6.627-8.173-11.54-.76-4.186.322-8.289 2.763-11.733 3.536-4.985 7.497-5.95 13.192-6.943" data-index="60"/><path fill="#E1794E" d="M850.073 1475.11c5.099-2.079 10.118-2.865 15.361-.643q.724.311 1.412.694.689.385 1.336.834.646.45 1.245.963t1.143 1.082q.546.57 1.029 1.19.485.623.905 1.288.42.667.77 1.372.352.707.631 1.443.283.758.489 1.539.203.783.327 1.583.124.797.166 1.605t.003 1.615-.161 1.607-.325 1.583q-.203.781-.483 1.541-.282.757-.638 1.483c-2.441 5.064-6.241 7.26-11.348 9.088-3.858-.253-7.576-.47-11.096-2.216-5.444-2.7-7.23-7.664-8.938-13.131 1.137-4.735 3.008-8.58 5.357-12.786 1.32-.261 1.813-.881 2.815-1.734" data-index="61"/><path fill="#E1794E" d="M437.264 951.346c-1.887-4.362-2.393-7.97-1.158-12.645 1.045-3.956 3.372-7.104 7.064-8.962 3.908-1.969 8.682-2.103 12.806-.752 6.23 2.042 9.836 5.766 12.67 11.482-.164 5.8-.869 10.724-5.41 14.849-3.504 3.18-8.31 4.132-12.917 3.689-2.494-.238-5.038-1.042-7.387-1.897-1.739-2.067-3.728-3.89-5.668-5.764" data-index="62"/><path fill="#E1794E" d="M899.526 1492.617c-.087-5.658.238-9.888 3.935-14.472 2.692-3.34 6.394-5.534 10.735-5.747 5.703-.283 9.951 2.443 14.136 5.982 2.671 3.86 4.075 8.455 3.325 13.184-.673 4.24-3.446 8.429-6.987 10.79q-1.618 1.059-3.294 2.016c-3.438.832-6.407 1.188-9.867.193-6.087-1.75-9.075-6.774-11.983-11.946" data-index="63"/><path fill="#E1794E" d="M499.92 1124.658c-2.407-1.897-4.848-4.082-6.458-6.719-2.172-3.554-3.045-7.86-1.934-11.925 1.084-3.971 4.008-7.273 7.62-9.167 6.284-3.299 11.76-2.307 18.23-.496 1.51 2.517 4.795 4.29 5.856 6.919 1.675 4.145 1.156 9.616-.689 13.624-2.053 4.473-5.74 7.65-10.366 9.255-4.652 1.612-7.974.557-12.26-1.491" data-index="64"/><path fill="#E1794E" d="M493.9 1246.126c4.578 2.217 8.355 4.961 11.18 9.278-2.295 1.99-2.052 4.136-3.746 6.482.99 3.451.968 6.346.76 9.914-2.526 4.805-5.294 7.84-9.556 11.144q-1.28.343-2.589.562c-4.43.776-7.887-.438-11.44-3.148-3.802-2.906-6.578-7.297-7.013-12.126-.65-7.188 2.763-8.568 6.732-13.527.19-.235.361-.483.543-.726 3.758-6.444 9.938-4.045 15.129-7.853" data-index="65"/><path fill="#362002" d="M493.9 1246.126c4.578 2.217 8.355 4.961 11.18 9.278-2.295 1.99-2.052 4.136-3.746 6.482-1.824-2.803-4.106-5.44-7.03-7.133-5.027-2.919-10.15-2.148-15.533-.774 3.758-6.444 9.938-4.045 15.129-7.853" data-index="66"/><path fill="#E1794E" d="M522.946 1294.972c6.149-1.396 11.954-1.533 17.557 1.837 2.377 1.43 4.837 3.49 6.444 5.758-1.932 2.89-1.367 6.088-3.262 9.004.977 3.834 1.24 6.533.446 10.41-2.385 3.832-4.225 6.663-8.225 8.89l-2.652 1.172c-6.458.209-9.318-1.069-14.673-4.251-1.467-2.082-2.802-4.127-3.644-6.553-1.81-5.206-.53-9.423 1.742-14.22 1.261-.732 2.496-1.977 3.644-2.906.433-2.285.984-3.32 2.483-5.138 1.127-1.362 1.467-1.604 1.921-3.364z" data-index="67"/><path fill="#3D2200" d="M522.946 1294.972c6.149-1.396 11.954-1.533 17.557 1.837 2.377 1.43 4.837 3.49 6.444 5.758-1.932 2.89-1.367 6.088-3.262 9.004-2.34-3.787-4.573-7.078-8.874-8.762-4.972-1.944-9.748-.58-14.488 1.304.433-2.285.984-3.32 2.483-5.138 1.127-1.362 1.467-1.604 1.921-3.364z" data-index="68"/><path fill="#E1794E" d="M526.36 1148.397c2.587-1.654 5.17-3.396 8.158-4.235 5.264-1.483 8.97.457 13.476 3.045 1.386 1.763 3.523 5.212 5.537 6.218 1.048 5.177 2.106 10.059-.845 14.893-2.873 4.706-8.349 7.049-13.302 8.89-4.872 1.555-8.468 2.452-13.649 1.798l-.417-.2c-3.73-3.146-6.285-6.622-8.365-11.031 1.317-2.354.44-4.584.132-7.08-.435-3.54 1.47-5.262 3.528-7.896l-1.657 2.808c2.927-1.217 3.684-6.252 7.405-7.21" data-index="69"/><path fill="#362002" d="M516.953 1167.775c1.317-2.354.44-4.584.132-7.08-.435-3.54 1.47-5.262 3.528-7.896l-1.657 2.808c2.927-1.217 3.684-6.252 7.405-7.21-2.586 5.11-4.769 10.113-3.082 15.934 1.29 4.46 5.227 7.642 8.755 10.342l.956.736 6.394 1.8c-4.872 1.554-8.468 2.451-13.649 1.797l-.417-.2c-3.73-3.146-6.285-6.622-8.365-11.031" data-index="70"/><path fill="#E1794E" d="M906.535 1356.403c3.8-.304 9.276-1.196 12.506 1.248.047.037.084.087.124.13 6.265 3.965 9.297 7.224 11.6 14.44-1.06 6.383-2.897 11.637-8.476 15.397-1.99 1.34-4.309 2.182-6.528 3.066-5.41-.031-8.191-.86-12.833-3.654-3.404-.779-5.328-1.972-8.112-4.004-1.317-.96-1.156-.699-2.668-.554-.533-.876-.451-.644-.797-1.58-2.042-5.518-1.399-10.833.916-16.135l.886-.142c4.146-3.776 8.474-5.742 13.382-8.212" data-index="71"/><path fill="#3D2200" d="M906.535 1356.403c3.8-.304 9.276-1.196 12.506 1.248.047.037.084.087.124.13l-1.272.113c-6.31.517-11.26-.755-15.994 4.6-3.265 3.691-4.011 8.731-3.547 13.484.412 4.201 2.053 7.716 4.576 11.052-3.404-.779-5.328-1.972-8.112-4.004-1.317-.96-1.156-.699-2.668-.554-.533-.876-.451-.644-.797-1.58-2.042-5.518-1.399-10.833.916-16.135l.886-.142c4.146-3.776 8.474-5.742 13.382-8.212" data-index="72"/><path fill="#E1794E" d="M628.019 1285.424c.364-3.37.667-6.8 1.82-10.009 2.149-5.982 5.738-13.157 11.979-15.712 3.602-1.475 7.95-.823 11.468.525l-.243.766c6.284 2.435 10.456 4.99 13.35 11.27.565 1.227.998 2.462 1.41 3.748-.478 5.335-1.615 9.428-5.832 13.033-3.937 3.367-9.279 4.753-14.343 5.125-6.325 1.472-9.858-1.681-15.883-2.31-1.884-1.506-2.95-4.232-3.726-6.436" data-index="73"/><path fill="#362002" d="M628.019 1285.424c.364-3.37.667-6.8 1.82-10.009 2.149-5.982 5.738-13.157 11.979-15.712 3.602-1.475 7.95-.823 11.468.525l-.243.766c-5.686.171-10.476 1.657-14.477 5.919q-.593.625-1.121 1.309-.525.683-.976 1.42-.452.733-.824 1.511-.37.781-.657 1.594t-.485 1.652q-.201.84-.312 1.694-.11.858-.13 1.718-.02.863.051 1.723c.396 4.363 2.776 8.265 6.143 10.997 2.138 1.733 4.758 2.85 7.373 3.639-6.325 1.472-9.858-1.681-15.883-2.31-1.884-1.506-2.95-4.232-3.726-6.436" data-index="74"/><path fill="#E1794E" d="M441.024 992.196c1.41-.124 1.803-.359 2.932-1.264 5.14-4.116 11.065-8.587 17.512-10.31 3.122-.834 6.671-1.032 9.429.99 2.86 2.098 4.689 5.465 5.354 8.858 2.058 5.917 3.631 12.094.604 18.016-2.071 4.056-6.193 6.149-10.426 7.318-2.232.617-4.623.839-6.927.944-4.283-.031-8.98-.48-13.195.15-2.607-2.957-4.892-6.219-6.256-9.948-1.9-5.206-1.386-9.822.973-14.754" data-index="75"/><path fill="#3D2200" d="M441.024 992.196c1.41-.124 1.803-.359 2.932-1.264 5.14-4.116 11.065-8.587 17.512-10.31 3.122-.834 6.671-1.032 9.429.99 2.86 2.098 4.689 5.465 5.354 8.858-5.391-3.602-10.413-6.085-17.121-4.723-3.974.805-7.653 3.182-9.835 6.626q-.404.633-.742 1.306-.335.673-.599 1.378-.266.704-.456 1.43-.19.728-.304 1.473-.113.744-.15 1.493-.035.752.008 1.504.042.75.16 1.491.122.745.317 1.47c1.486 5.542 5.758 9.58 10.701 12.181.422.222.847.433 1.272.65-4.283-.032-8.98-.48-13.195.15-2.607-2.958-4.892-6.22-6.256-9.949-1.9-5.206-1.386-9.822.973-14.754" data-index="76"/><path fill="#E1794E" d="M559.58 1194.209c4.385-3.52 8.837-6.13 14.703-5.429 5.238.628 9.885 4.75 12.786 8.933.884 1.272 1.651 2.628 2.409 3.98 1.974 2.053 3.132 3.533 3.114 6.502-.019 2.8-1.024 5.378-2.576 7.676-4.41 4.207-9.484 9.403-16.005 9.363-2.356-.016-4.283-.433-6.333-1.61-.565-.184-1.124-.377-1.694-.54-3.615-1.035-4.7-1.418-8.39-.613-1.543-1.41-2.997-3.077-4.235-4.76-3.926-5.352-5.153-11.593-3.929-18.037 3.48-1.45 6.426-4.877 10.15-5.465" data-index="77"/><path fill="#3D2200" d="M549.43 1199.674c3.48-1.45 6.426-4.877 10.15-5.465-2.246 4.483-4.672 9.106-2.861 14.223 1.778 5.035 6.12 8.664 10.107 11.95 1.2.218 2.398.403 3.618.498 4.813.37 9.724-1.114 13.31-4.428 4.447-4.109 5.6-8.938 5.724-14.76 1.974 2.054 3.132 3.534 3.114 6.503-.019 2.8-1.024 5.378-2.576 7.676-4.41 4.207-9.484 9.403-16.005 9.363-2.356-.016-4.283-.433-6.333-1.61-.565-.184-1.124-.377-1.694-.54-3.615-1.035-4.7-1.418-8.39-.613-1.543-1.41-2.997-3.077-4.235-4.76-3.926-5.352-5.153-11.593-3.929-18.037" data-index="78"/><path fill="#E1794E" d="M386.687 1169.345q-.884-2.628-1.021-5.397c-.356-6.13 2.127-11.68 6.367-16.007 5.708-5.824 12.263-7.893 20.235-7.816.539 1.063 1.03 2.126 1.531 3.206.998 2.15 2.723 3.657 3.555 5.921 4.272 3.724 7.576 7.284 8.056 13.19.298 3.68-.982 6.998-3.378 9.771-2.641 3.054-5.55 4.526-9.341 5.698l.361 1.48-1.008 1.296c-2.53.876-4.555 1.169-7.236.81-4.81-.644-10.384-4.357-13.141-8.312-1.003-1.436-1.99-2.573-3.215-3.83z" data-index="79"/><path fill="#362002" d="M386.687 1169.345q-.884-2.628-1.021-5.397c-.356-6.13 2.127-11.68 6.367-16.007 5.708-5.824 12.263-7.893 20.235-7.816.539 1.063 1.03 2.126 1.531 3.206.998 2.15 2.723 3.657 3.555 5.921-4.769-1.865-8.96-2.652-13.83-.562q-.732.317-1.428.708-.697.387-1.349.847t-1.256.981q-.602.52-1.148 1.103-.546.58-1.032 1.214-.483.634-.9 1.312-.42.678-.765 1.398-.346.718-.617 1.468-.275.725-.473 1.477-.195.752-.311 1.523-.114.768-.148 1.544-.032.776.019 1.551.05.776.184 1.542.132.767.349 1.514.213.747.506 1.468.293.72.66 1.403c2.182 3.982 6.336 6.772 10.724 7.775 2.022.461 4.09.43 6.152.393l.361 1.48-1.008 1.296c-2.53.876-4.555 1.169-7.236.81-4.81-.644-10.384-4.357-13.141-8.312-1.003-1.436-1.99-2.573-3.215-3.83z" data-index="80"/><path fill="#E1794E" d="M459.346 1049.318c1.248-.71.926-.37 1.71-1.285 3.439-4.009 8.621-8.767 13.751-10.398 5.257-1.67 9.79 1.386 14.258 3.753l-.052 1.285c4.211 2.779 7.122 4.998 8.267 10.128.958 4.288 0 8.55-2.375 12.208-2.195 3.38-5.378 6.082-8.97 7.885-1.414 2.53-1.419 3.23-4.174 4.383-1.874-.29-7.056-1.61-8.463-.518-.285.222-1.388 1.597-1.644 1.908-2.172-1.56-4.214-3.372-6.286-5.061-5.346-5.956-6.856-11.22-7.5-18.99.29-1.923.808-3.488 1.478-5.298" data-index="81"/><path fill="#362002" d="M459.346 1049.318c1.248-.71.926-.37 1.71-1.285 3.439-4.009 8.621-8.767 13.751-10.398 5.257-1.67 9.79 1.386 14.258 3.753l-.052 1.285c-6.194-1.13-12.548-1.156-17.976 2.53-2.988 2.03-5.13 5.083-5.814 8.646-.89 4.639.763 9.555 3.62 13.218 2.692 3.454 6.827 5.972 11.192 6.557 2.022.272 3.943-.3 5.9-.73-1.414 2.53-1.419 3.23-4.174 4.383-1.874-.29-7.056-1.61-8.463-.518-.285.222-1.388 1.597-1.644 1.908-2.172-1.56-4.214-3.372-6.286-5.061-5.346-5.956-6.856-11.22-7.5-18.99.29-1.923.808-3.488 1.478-5.298" data-index="82"/><path fill="#E1794E" d="M421.72 1210.411c.948-4.998 3.693-9.87 7.762-12.99 6.653-5.097 14.392-5.025 22.27-3.893 2.92 3.612 7.866 8.347 7.655 13.236-.008.222-.048.438-.074.66 1.475 4.679 2.541 9.231.267 13.865-2.222 4.53-6.893 6.94-11.398 8.653-.071.026-.137.066-.21.082-7.123 1.47-12.166 4.032-18.405-1.391-1.601-1.39-3.016-3.117-4.921-4.096-.309-.16-.628-.306-.942-.459-.187-.177-.42-.314-.557-.53-2.333-3.652-1.818-9.054-1.446-13.137" data-index="83"/><path fill="#362002" d="M421.72 1210.411c.267 2.082.143 3.97 1.407 5.677 1.676-1.373 3.318-2.97 5.339-3.8.58 4.855 1.715 9.154 5.594 12.455 4.149 3.534 8.904 4.539 14.142 5.199-.071.026-.137.066-.21.082-7.123 1.47-12.166 4.032-18.405-1.391-1.601-1.39-3.016-3.117-4.921-4.096-.309-.16-.628-.306-.942-.459-.187-.177-.42-.314-.557-.53-2.333-3.652-1.818-9.054-1.446-13.137" data-index="84"/><path fill="#362002" d="M421.72 1210.411c.948-4.998 3.693-9.87 7.762-12.99 6.653-5.097 14.392-5.025 22.27-3.893 2.92 3.612 7.866 8.347 7.655 13.236-.008.222-.048.438-.074.66-4.043-4.618-7.492-7.8-13.952-8.072-4.597-.193-8.658 1.533-11.99 4.642-2.669 2.488-3.864 4.855-4.925 8.294-2.021.83-3.663 2.427-5.339 3.8-1.264-1.708-1.14-3.595-1.406-5.677" data-index="85"/><path fill="#E1794E" d="M839.096 1368.893c.216-2.299.435-4.743 1.148-6.943 1.372-4.244 4.53-8.118 8.608-9.994 3.8-1.752 7.998-1.583 11.83-.008 6.473 2.663 9.73 7.289 12.244 13.554 3.412 4.525.934 9.943 2.882 15.44-4.687 5.998-10.606 10.152-18.327 11.133-5.698.723-11.068-.644-15.583-4.225-1.454-1.153-3.27-2.87-4.182-4.502-.267-4.826.749-9.68 1.38-14.455" data-index="86"/><path fill="#2A1D04" d="M872.926 1365.502c3.412 4.525.934 9.943 2.882 15.44-4.687 5.998-10.606 10.152-18.327 11.133-5.698.723-11.068-.644-15.583-4.225-1.454-1.153-3.27-2.87-4.182-4.502-.267-4.826.749-9.68 1.38-14.455.805 3.493 1.675 6.734 3.89 9.634q.467.618.994 1.182.53.565 1.117 1.072.583.506 1.219.95.633.443 1.311.818.676.374 1.388.678.713.303 1.454.53.74.225 1.5.375.76.148 1.53.216c4.855.415 9.766-1.417 13.36-4.67 4.476-4.048 5.848-8.308 6.067-14.176" data-index="87"/><path fill="#E1794E" d="M737.314 1434.585c5.882-2.027 10.685-1.755 16.316.982 1.272.615 2.338 1.327 3.465 2.169-.322 4.72 2.792 8.397 2.689 13.242.551 5.172 1.187 10.057-2.375 14.332-1.834 2.2-4.02 3.805-6.368 5.41l-1.604 1.913c-2.24.965-4.418 1.918-6.896 1.981-7.953.2-14.469-6.106-19.762-11.273-.106-.259-.227-.512-.32-.776-1.707-4.935-1.58-10.447.605-15.21 2.924-6.373 7.872-10.231 14.25-12.77" data-index="88"/><path fill="#362002" d="M737.314 1434.585c5.882-2.027 10.685-1.755 16.316.982 1.272.615 2.338 1.327 3.465 2.169-.322 4.72 2.792 8.397 2.689 13.242-2.444-3.41-4.872-6.289-8.669-8.239-5.362-2.755-9.96-1.87-15.39.037.544-.87 1.415-2.069 1.75-3.074.64-1.94.527-3.254-.161-5.117" data-index="89"/><path fill="#3D2200" d="M722.779 1463.341c-.106-.259-.227-.512-.32-.776-1.707-4.935-1.58-10.447.605-15.21 2.924-6.373 7.872-10.231 14.25-12.77.688 1.863.802 3.177.16 5.117-.334 1.005-1.205 2.203-1.749 3.074-3.871 3.74-6.663 7.01-6.903 12.6-.18 4.168.937 8.068 3.919 11.087 3.37 3.412 8.217 4.958 12.933 4.832 1.82-.048 3.575-.267 5.367-.576l-1.604 1.914c-2.24.965-4.418 1.918-6.896 1.981-7.953.2-14.469-6.106-19.762-11.273" data-index="90"/><path fill="#E1794E" d="m725.79 1329.729.976-.684c.908-.638 1.726-1.32 2.568-2.04 5.541-4.755 13.231-11.035 20.955-10.45 4.212.317 10.896 2.631 13.553 6.08 1.455 1.885 2.056 4.096 1.747 6.453-.121.936-.446 1.926-.699 2.826.462 5.684-.356 10.59-4.132 15.07-3.011 3.57-6.526 5.59-10.688 7.577-.388.177-.776.359-1.164.53-3.24 1.428-6.214.776-8.441 3.924-.803-.243-1.159-.327-1.887-.623-5.724-2.33-10.368-7.491-12.69-13.136-2.096-5.096-2.136-10.421-.098-15.527" data-index="91"/><path fill="#3D2200" d="m725.79 1329.729.976-.684c.908-.638 1.726-1.32 2.568-2.04 5.541-4.755 13.231-11.035 20.955-10.45 4.212.317 10.896 2.631 13.553 6.08 1.455 1.885 2.056 4.096 1.747 6.453-.121.936-.446 1.926-.699 2.826-3.03-5.083-6.375-9.11-12.379-10.659-4.172-1.074-8.74-.184-12.379 2.056q-.726.443-1.404.96-.675.518-1.293 1.104-.617.585-1.172 1.232-.554.646-1.037 1.348t-.889 1.45q-.406.749-.734 1.535t-.567 1.602q-.243.818-.398 1.654c-.842 4.368-.027 9.192 2.628 12.815 2.942 4.022 8.524 6.835 13.421 7.412.46.053.921.09 1.383.138-.388.177-.776.359-1.164.53-3.24 1.428-6.214.776-8.441 3.924-.803-.243-1.159-.327-1.887-.623-5.724-2.33-10.368-7.491-12.69-13.136-2.096-5.096-2.136-10.421-.098-15.527" data-index="92"/><path fill="#362002" d="M683.834 1290.6c4.84 1.105 10.202-4.117 15.084-5.065 3.211-.623 5.111.222 7.73 1.903 9.547 9.064 10.906 17.818 16.429 29.02-3.61 6.953-8.32 11.935-15.947 14.424-5.703 1.863-12.653 1.673-17.987-1.238-3.092-1.689-7.57-5.362-9.051-8.62-.169-.18-.354-.352-.51-.545-3.456-4.29-4.303-10.896-3.607-16.208.75-5.702 3.291-10.199 7.859-13.672" data-index="93"/><path fill="#231905" d="M683.834 1290.6c4.84 1.105 10.202-4.117 15.084-5.065 3.211-.623 5.111.222 7.73 1.903-7.606-.39-12.287 2.034-17.924 7.138-4.407 3.993-10.139 10.089-10.326 16.327-.106 3.554 2.016 6.315 1.694 10.12-.169-.18-.354-.35-.51-.544-3.456-4.29-4.303-10.896-3.607-16.208.75-5.702 3.291-10.199 7.859-13.672" data-index="94"/><path fill="#E1794E" d="M695.722 1291.818c2.386-.277 4.895-.556 7.276-.073 4.568.926 8.919 3.86 11.347 7.85q.404.66.739 1.36.335.696.599 1.424.264.729.451 1.478.19.752.3 1.517.112.766.146 1.539t-.01 1.546-.167 1.539q-.121.762-.32 1.512c-1.656 6.12-6.148 9.157-11.354 12.194-2.375.6-4.59 1-7.046.623-4.162-.639-8.191-2.647-10.7-6.088q-.489-.67-.906-1.388t-.755-1.475q-.34-.758-.599-1.547-.261-.789-.438-1.599-.174-.813-.266-1.636-.093-.826-.098-1.654-.005-.832.077-1.658.079-.826.245-1.638c1.443-6.822 5.938-10.287 11.48-13.826" data-index="95"/><path fill="#2A1D04" d="M381.784 1086.009c4.365-.195 9.68 1.156 13.524 3.22q.99.527 1.921 1.152.935.626 1.795 1.344.863.717 1.65 1.52.783.802 1.48 1.68.699.882 1.303 1.827.604.944 1.109 1.947.504 1.003.902 2.053.398 1.048.689 2.132.28 1.082.448 2.185.167 1.106.22 2.22.052 1.116-.011 2.232-.066 1.114-.243 2.217-.18 1.103-.472 2.18-.293 1.079-.694 2.119-.401 1.042-.91 2.037-.507.995-1.117 1.932c-4.135 6.468-10.432 9.975-17.805 11.458-4.808.443-9.605-.444-13.848-2.78-5.418-2.978-9.052-8.077-10.543-14.04q-.293-1.122-.467-2.267-.174-1.146-.232-2.304-.058-1.159.005-2.314.06-1.159.24-2.304.18-1.146.478-2.264.295-1.122.705-2.207.409-1.084.926-2.119.517-1.037 1.14-2.016c4.351-6.745 10.39-9.096 17.807-10.84" data-index="96"/><path fill="#E1794E" d="M380.39 1093.878c2.866-.082 5.645-.174 8.403.728 3.934 1.29 7.415 3.974 9.244 7.74 1.639 3.378 1.744 7.162.47 10.672-1.943 5.333-6.038 8.201-10.925 10.635-3.273.607-6.402.71-9.535-.607q-.723-.299-1.414-.665-.689-.37-1.34-.803-.65-.435-1.254-.934-.602-.496-1.153-1.053-.552-.554-1.045-1.16-.494-.608-.924-1.262-.43-.652-.794-1.346-.362-.691-.655-1.417-.287-.694-.506-1.415-.217-.72-.362-1.459-.145-.736-.216-1.486-.072-.749-.069-1.501.005-.752.082-1.502.08-.746.23-1.483.153-.736.377-1.456.224-.718.517-1.41c2.145-5.077 5.982-6.905 10.87-8.816" data-index="97"/><path fill="#231905" d="M353.706 1029.394c7.872-.829 15.224-.87 21.824 4.275 4.98 3.882 8.927 10.709 9.47 17.034.473 5.476-1.683 10.698-5.256 14.775q-.831.948-1.752 1.805-.921.86-1.924 1.62-1.005.76-2.08 1.418t-2.21 1.2q-1.138.544-2.323.969-1.185.427-2.407.73-1.221.307-2.47.486-1.245.18-2.504.233c-6.415.237-13.163-1.972-17.757-6.55-4.642-4.624-6.339-11.152-6.244-17.551.032-1.974.209-3.888.502-5.838 3.784-7.65 7.663-10.885 15.131-14.606" data-index="98"/><path fill="#181221" d="M353.706 1029.394c1.657.145 3.906-.003 5.286.921-1.731 1.367-3.439 2.76-5.18 4.114-4.98 3.869-8.025 13.224-14.256 14.276-.86-1.818-.836-2.723-.981-4.705 3.784-7.65 7.663-10.885 15.131-14.606" data-index="99"/><path fill="#E1794E" d="M345.32 1052.714c1.071-5.753 2.53-11.091 7.66-14.604 3.178-2.177 7.118-2.858 10.878-2.135q.897.183 1.77.454.877.272 1.719.631.841.359 1.641.802.802.444 1.554.963.752.523 1.45 1.12.693.593 1.326 1.255.631.663 1.193 1.388.56.724 1.045 1.5c1.985 3.185 2.81 6.945 1.858 10.618-1.541 5.954-6.576 9.572-11.698 12.342-4.061.702-7.239.518-10.933-1.506-5.03-2.758-7.824-7.508-9.463-12.828" data-index="100"/><path fill="#2A1D04" d="M368.82 992.217c.052 1.373.094 2.771-.075 4.138q-.137 1.148-.39 2.278-.254 1.126-.62 2.224-.367 1.095-.845 2.148-.48 1.053-1.063 2.05-.584 1-1.267 1.932-.684.934-1.457 1.792-.776.858-1.636 1.63-.857.777-1.792 1.458c-5.584 3.995-12.856 5.8-19.633 4.56-6.592-1.206-12.849-5.273-16.448-10.952-2.961-4.676-3.684-10.141-2.254-15.469 1.72-6.41 6.128-12.102 12.023-15.2 4.753-2.5 11.316-3.446 16.47-1.816 6.296 1.257 11.674 3.415 15.278 9.039 2.014 3.14 2.977 6.57 3.708 10.188" data-index="101"/><path fill="#231905" d="M349.832 972.99c6.297 1.257 11.675 3.415 15.28 9.039 2.013 3.14 2.976 6.57 3.707 10.188-.224.729-.61 1.256-1.018 1.895l-1.009-1.158c-.158-1.34-.324-2.784-.812-4.051-1.222-3.172-9.086-11.912-12.108-13.274-1.124-.506-1.973-.981-2.947-1.755z" data-index="102"/><path fill="#E1794E" d="M339.67 980.385c3.436-.367 7.172-.81 10.55.084 3.895 1.03 7.664 3.544 9.666 7.096q.322.573.584 1.174.26.6.459 1.225.198.625.332 1.266.132.644.2 1.296.07.652.07 1.306 0 .657-.066 1.31-.066.651-.198 1.295-.132.641-.33 1.267c-1.768 5.729-6.278 8.972-11.305 11.687-2.91.597-5.888 1.082-8.806.283-4.04-1.103-7.706-4.067-9.759-7.7-2.116-3.75-2.7-8.128-1.33-12.24 1.66-4.982 5.426-7.217 9.933-9.35" data-index="103"/><path fill="#362002" d="M792.332 1335.827c5.57-1.414 10.141-1.528 15.796-.557 4.724 1.76 9.065 4.431 12.371 8.297 4.339 5.075 5.77 11.84 4.906 18.37q-.156 1.137-.427 2.256-.27 1.116-.65 2.2-.382 1.085-.87 2.125-.489 1.04-1.077 2.026-.591.985-1.277 1.908-.686.921-1.462 1.768-.776.85-1.634 1.615-.857.766-1.786 1.441c-5.22 3.861-11.337 5.903-17.84 4.814-6.66-1.12-12.668-5.323-16.34-10.947-3.67-5.618-4.654-12.41-3.047-18.9 1.905-7.689 6.73-12.473 13.337-16.416" data-index="104"/><path fill="#3D2200" d="M792.332 1335.827c5.57-1.414 10.141-1.528 15.796-.557 1.75 3.08 4.5 6.912 4.03 10.553-1.77-1.224-3.483-2.248-5.529-2.96-5.164-1.8-9.447-.206-14.089 2.166-1.789-2.758-.662-6.07-.208-9.202" data-index="105"/><path fill="#E1794E" d="M792.54 1345.029c4.642-2.372 8.925-3.966 14.09-2.166 2.045.712 3.757 1.736 5.528 2.96 3.372 3.658 5.1 6.803 5.555 11.896.353 3.97-.528 7.558-3.17 10.611-3.042 3.518-7.724 5.798-12.39 5.861-4.678.066-9.404-2.042-12.742-5.272-2.663-2.578-4.283-5.938-4.212-9.682.119-6.154 3.206-10.015 7.341-14.208" data-index="106"/><path fill="#362002" d="M592.32 1224.822c5.83-4.016 13.883-6.615 20.982-5.277 5.987 1.126 11.012 4.903 14.208 10.038q.68 1.092 1.253 2.246.57 1.153 1.021 2.356.454 1.206.787 2.449.332 1.243.538 2.515.206 1.27.288 2.554.079 1.285.031 2.57-.047 1.286-.224 2.563-.174 1.275-.475 2.525c-1.502 6.149-5.135 11.712-10.6 15.016-5.365 3.243-12.517 4.093-18.536 2.504-5.133-2.177-9.34-5.315-12.564-9.904-3.948-5.623-6.225-13.107-4.89-19.968 1.022-5.241 3.864-9.192 8.18-12.187" data-index="107"/><path fill="#3D2200" d="M604.683 1222.34c3.584-.289 5.59-.172 8.748 1.575.285.155.578.306.86.467 2.428 1.393 4.011 3.38 5.74 5.533l.005 1.856q-1.253-.88-2.583-1.642c-6.276-3.65-11.282-2.882-17.926-1.2.467-2.581 3.327-4.769 5.156-6.59" data-index="108"/><path fill="#E1794E" d="M599.527 1228.928c6.644-1.68 11.65-2.448 17.926 1.201q1.33.763 2.583 1.642c2.993 4.544 5.027 8.491 3.906 14.083-1.214 6.038-5.787 10.012-10.672 13.197-.44.288-.87.591-1.306.887-1.515.161-3.038.264-4.563.238-4.193-.074-8.57-2.143-11.384-5.265-2.96-3.285-4.272-7.82-4.074-12.181.285-6.341 2.95-9.761 7.584-13.802" data-index="109"/><path fill="#F5540F" d="m955.94 275.22 1.557.589c1.096 1.94 1.217 2.351 1.233 4.576-1.473 2.153-2.267 2.216-4.721 3.169-7.175 2.781-14.812 4.753-22.156 7.107q-20.33 6.576-40.573 13.413L690.977 372.5c-28.555 9.957-57.688 18.314-85.671 29.833-.628-.639-1.744-1.604-2.222-2.414-1.069-1.819-.826-2.257-.238-4.12 1.177-1.01 2.162-1.697 3.632-2.253 19.142-7.286 39.274-12.994 58.702-19.56l102.914-35.332 115.652-39.082c24.024-8.17 47.964-16.839 72.194-24.352" data-index="110"/><path fill="#F5540F" d="M1495.158 1418.269c21.053 8.215 42.866 16.456 63.035 26.642-21.2 7.017-42.399 14.102-63.943 19.984l.066-18.649c-44.465-1.412-89.25-.031-133.752-.076l-45.705-.116c-9.883-.021-20.6-.71-30.366.918-.235-2.562-.032-5.162.058-7.73l210.478-.282c0-6.892-.09-13.801.13-20.691" data-index="111"/><path fill="#F5540F" d="M1063.919 1462.18c-.507 2.161-.626 4.536-.882 6.75l-.646.76.25 1.061c-.97-20.879-1.28-47.661-.04-68.432l.54.256 1.036 3.354c5.439 2.03 50.978.29 60.045-.076l.243 7.27-.116 43.57-.016 5.545c-20.108-.404-40.343.842-60.414-.058" data-index="112"/><path fill="#F5540F" d="M639.276 968.657c8.279 6.402 34.773 43.83 43.344 54.625-7.671 1.526-15.2 3.228-22.76 5.236 17.306 62.386 47.154 124.978 94.841 170.032 7.994 7.552 16.723 14.139 25.49 20.746.852.552 1.213 1.085 1.82 1.885-.472 2.778-2.684 4.504-4.56 6.452-63.737-46.25-106.51-121.838-124.49-197.53-7.156 2.233-15.015 3.318-22.472 4.044 1.2-11.382 3.095-22.679 4.576-34.026 1.372-10.498 2.27-21.048 4.211-31.464" data-index="113"/><path fill="#B1AEAC" d="M93.14 669.76c21.918.774 44.108.011 66.053-.007 9.86-.008 21.215-1.085 30.839.974l1.51 3.008c3.462 14.086 10.1 25.046 18.71 36.607-9.105.997-19.664-.346-28.93-.388-29.345-.135-58.823-1.003-88.149-.407 1.337-12.7 1.12-27.075-.033-39.786" data-index="114"/><path fill="#B1AEAC" d="m1006.048 1390.764 58.127-.106.002 15.271-1.037-3.354-.538-.256c-1.24 20.771-.932 47.553.04 68.432l-.251-1.06.646-.76c.256-2.215.375-4.59.882-6.751.446 4.48.2 9.125.192 13.63h-57.385c-.116-4.529-.317-8.933.493-13.411l.605.456c.844-2.171.53-60.931.16-66.22-1.036 1.75-1.081 3.895-1.382 5.893-.668-3.993-.65-7.745-.554-11.764" data-index="115"/><path fill="#F5540F" d="m1253.636 1406.315 31.184-.423c-.074 11.086.2 22.283-.27 33.35-.089 2.568-.292 5.168-.057 7.73l.1 16.44c-25.149.233-50.184-.446-75.314-.654l-77.68-.008-.463-5.671c.731-14.485-.092-29.13.396-43.655l-.221-1.39.62-5.746c7.753.135 15.527.407 23.277.272 32.807.053 65.627-.528 98.428-.245" data-index="116"/><path d="m158.53 356.934 402.928 1.063c.224 18.116.958 36.361.668 54.464 8.122-.32 17.923-1.488 24.623 4.214 2.045 1.742 3.315 3.95 3.486 6.65.23 3.629-1.633 8.81-4.175 11.435-4.465 4.613-12.4 3.998-18.28 3.813-5.984-.185-13.558-1.779-18.928 1.346-4.62 5.753-4.23 33.95-4.753 42.22l-11.35 188.266q32.163.264 64.329.082c10.922-.014 22.396-.716 33.242.472l-.245 44.003c-25.3.67-50.704.22-76.016.246-10.382.01-22.428-1.167-32.622.535-1.117 1.555-.779.795-1.212 2.178 1.62 27.74.111 55.973.882 83.8-7.178.034-14.372.17-21.547.056q-.187 31.252-.05 62.502c-23.132.311-46.386.462-69.51-.106q-.162-31.49.255-62.977l-8.935.282c1.253 87.453-1.81 172.528 31.218 255.537 3.138 7.492 5.903 15.675 9.856 22.753 2.07 8.101 6.87 16.403 10.58 23.903 6.853 13.846 13.672 27.785 21.728 40.982 8.766 14.358 18.823 28.117 27.175 42.694-3.892-.915-11.92-15.083-15.139-18.693-4.404-7.627-15.432-26.738-20.544-32.448-1.427 2.401-2.673 4.428-5.285 5.465l-1.636-.908c-.81-1.794-1.075-1.918-.578-3.787 1.955-1.35 3.723-1.287 6.008-1.411l1.014-.048c-1.19-7.238-8.434-16.952-12.118-23.428-2.586 1.383-4.695 3.172-7.645 3.217-1.156-1.058-1.483-1.758-1.81-3.254-.436-1.974-.573-1.114.446-2.776 1.744-.256 3.467-.399 5.225-.533 1.087-1.465 1.127-1.399.762-3.109-1.298-6.064-11.07-26.032-14.097-33.266-12.803-30.61-22.517-60.596-28.418-93.371-5.315-29.516-6.096-59.003-7.26-88.839-1.997-51.294-1.654-102.529-1.147-153.855-18.673-.142-37.327 1.296-55.992.565-.006 35.865.873 71.58 1.715 107.424.475 20.182.092 40.127 1.655 60.29 1.23 15.858 1.744 31.926 3.462 47.722.947 8.693 3.335 17.356 3.853 26.075.11 1.866-.077 3.288-.533 5.088-9.281-38.55-9.126-80.151-10.54-119.558-19.802-.68-39.758-.25-59.578-.272-.19-20.667.203-41.375.34-62.042q-8.943.129-17.873-.412c-1.349-20.322.013-42.473-.159-63.07-32.881.486-49.805-4.074-74.752-26.687l-1.001-1.084c-8.61-11.561-15.248-22.52-18.71-36.607-.613-3.333.397-8.444-1.265-11.115-.897-19.639-3.049-39.18-4.838-58.75l-5.908-67.853c-2.844-31.752-3.852-64.558-9.475-95.937-9.173-.042-31.584 2.596-39.156-1.805-2.667-1.552-4.685-4.658-5.498-7.584-.968-3.484-.528-7.276 1.454-10.334 7.926-12.234 29.011-2.974 40.729-6.239.393-.108.78-.24 1.17-.359 2.46.254 4.272.29 6.281 1.916 2.266 5.653 2.26 17.633.988 23.481-1.066.594-1.806.89-3.009 1.267 3.387 24.486 4.885 49.666 6.96 74.311q4.704 50.65 8.9 101.344c1.618 18.992 1.048 46.571 6.533 63.956 4.823 15.284 15.577 29.297 28.253 38.934 9.602 7.3 20.825 12.965 32.681 15.425 15.321 3.18 37.332 1.322 53.324 1.316l119.056-.567c30.904-.873 53.696 1.185 78.288-21.296q1.921-1.75 3.715-3.631 1.795-1.879 3.455-3.88t3.174-4.11q1.518-2.112 2.882-4.32 1.364-2.212 2.573-4.513t2.254-4.681 1.92-4.827 1.581-4.948c4.465-16.113 5.289-56.876 6.397-75.05 2.449-40.143 5.573-80.343 7.481-120.507.074-9.685.971-19.38.79-29.07-.13-6.83-1.275-13.612-1.581-20.436-.343-7.581.11-15.29.327-22.874l-133.003.375c-26.241-.05-53.097-1.283-79.272.145-11.74 2.003-38.744.333-51.87.277l-107.755-.224c-3.939.103-7.68.132-11.602-.396q-.13-27.123.054-54.242" data-index="117"/><path fill="#EAFF0E" d="M564.155 418.399c5.531-.425 11.527-1.33 15.963 2.815 1.662 1.555 2.098 2.568 2.317 4.79-.562 1.457-.956 2.238-2.156 3.301-3.13 2.776-7.65 2.19-11.52 2.127l-18.46-.224c.063-4.167.41-8.334.683-12.495z" data-index="118"/><path fill="#EAFF0E" d="M139.732 421.462c9.564-.256 19.238.177 28.81.33.191 3.046 1.103 7.577-.455 10.258-2.085 1.53-4.377 1.126-6.831 1.055-7.335.045-15.425.684-22.636-.636-3.13-.572-5.017-1.409-6.857-4.03-.14-1.825.365-3.232 1.578-4.654 1.746-2.053 3.926-1.924 6.391-2.323" data-index="119"/><path fill="#FEFEFF" d="M421.898 737.361c2.467-.023 4.66.093 7.09.539 2.444 3.116 1.162 52.469 1.214 59.802l-8.697.027z" data-index="120"/><defs><linearGradient id="b" x1="208.927" x2="198.973" y1="146.756" y2="146.695" gradientUnits="userSpaceOnUse"><stop offset="0" stop-color="#4B4A4B"/><stop offset="1" stop-color="#7E7E7E"/></linearGradient></defs><path fill="url(#b)" d="M199.119 138.771c3.47.011 6.999.148 10.463-.004q.131 8.132-.07 16.262-5.153.187-10.309.072c-.125-.579-.143-.404-.088-.886.595-5.182.155-10.262.004-15.444" data-index="121" transform="scale(2.63889)"/><defs><linearGradient id="c" x1="63.667" x2="78.887" y1="146.864" y2="147.427" gradientUnits="userSpaceOnUse"><stop offset="0" stop-color="#272526"/><stop offset="1" stop-color="#474645"/></linearGradient></defs><path fill="url(#c)" d="M63.38 138.671q16.666-.43 33.338-.269c6.117.027 12.303-.115 18.409.201l-2.557.293c-4.149-.331-8.442-.136-12.61-.132l-21.846.036.594.247-.242-.106.433.186c.187 1.439-.16 2.943-.337 4.377-.442 3.592-.608 7.332.444 10.85 2.514 1.768 12.215.191 15.875.776q-4.673.275-9.353.398 13.292.209 26.584.206c4.22.022 8.637-.197 12.828.21-4.449.759-14.682.126-19.656.105l-40.833-.085c-1.493.039-2.91.05-4.397-.15a22 22 0 0 0 2.823-.382c.996-1.699.498-14.01.502-16.761" data-index="122" transform="scale(2.63889)"/><defs><linearGradient id="d" x1="195.769" x2="168.767" y1="146.596" y2="146.856" gradientUnits="userSpaceOnUse"><stop offset="0" stop-color="#848483"/><stop offset="1" stop-color="#CCCBCB"/></linearGradient></defs><path fill="url(#d)" d="M155.198 138.672c7.236-.17 14.49-.066 21.728-.04 4.887.017 9.862-.126 14.742.102q3.726-.011 7.451.037c.151 5.182.591 10.262-.004 15.444-.055.482-.037.307.088.886l-38.101.008.076-.229-.773-.31c2.473-.748 6.425.601 8.617-.572-.032-.658-.059-1.256.047-1.909.677-4.175-.318-8.141-.017-12.298l.032-.4c-.188-.022-.376-.04-.564-.064-4.141-.53-9.46.629-13.322-.655" data-index="123" transform="scale(2.63889)"/><path fill="#7D7D7D" d="M505.79 366.104q9.833-.03 19.663.097c.399 13.675 1.56 27.08-.01 40.755-.146 1.272-.098.81.232 2.338l-100.545.022.201-.605q45.787.037 91.572-.599c-.282-13.012 2.792-27.705-.449-40.475-3.375-.32-6.702-.602-10.014-1.375z" data-index="124"/><defs><linearGradient id="e" x1="78.298" x2="113.313" y1="145.748" y2="147.929" gradientUnits="userSpaceOnUse"><stop offset="0" stop-color="#484747"/><stop offset="1" stop-color="#A09F9F"/></linearGradient></defs><path fill="url(#e)" d="M94.881 155.13c-3.66-.585-13.361.992-15.876-.776-1.05-3.518-.885-7.258-.443-10.85.176-1.434.524-2.938.337-4.377l-.433-.186.242.106-.594-.247 21.847-.036c4.167-.004 8.46-.199 12.609.132.8.089 1.59.208 2.395.149-.671.464-.803.451-.972 1.273-.832 4.036-1.393 10.095-1.59 14.287l.574.092c.483.078.91.182 1.37.356-6.433.086-13.043.411-19.466.077" data-index="125" transform="scale(2.63889)"/><path fill="#B1AEAC" d="M532.623 672.413c31.875.947 63.959-.388 95.868-.003-.696 13.427-.66 26.925-.855 40.367-6.41-.155-12.838-.097-19.25-.134-32.451-.145-64.87.148-97.32-.312 11.827-11.291 17.823-24.15 21.557-39.918" data-index="126"/><defs><linearGradient id="f" x1="112.558" x2="169.324" y1="144.948" y2="148.545" gradientUnits="userSpaceOnUse"><stop offset="0" stop-color="#BDBCBC"/><stop offset="1" stop-color="#FCFCFB"/></linearGradient></defs><path fill="url(#f)" d="M115.127 138.603c10.487-.379 21.178-.138 31.674.072 2.71-.076 5.707-.318 8.397-.003 3.862 1.284 9.181.125 13.322.655.188.024.376.042.564.064l-.032.4c-.301 4.157.694 8.123.017 12.298-.106.653-.079 1.251-.047 1.909-2.192 1.173-6.144-.176-8.617.572l.773.31-.076.229c-15.554.069-31.208.342-46.755-.056a6.8 6.8 0 0 0-1.37-.356l-.574-.092c.197-4.192.758-10.251 1.59-14.287.169-.822.301-.809.972-1.273-.805.059-1.595-.06-2.395-.149z" data-index="127" transform="scale(2.63889)"/><path fill="#B1AEAC" d="M303.38 366.924c.15.502.367.99.451 1.507 1.209 7.405-6.114 34.406-3.225 39.058 16.75 1.679 34.164.908 50.994 1.024 9.962.069 21.452 1.214 31.29-.044 9.624.274 32.126 1.81 40.401-.576l2.04.818-.2.605c-41.046.182-82.355.902-123.382-.148-1.214-.46-2.34-.734-3.615-.94l-1.515-.242c.52-11.063 2-27.052 4.196-37.702.446-2.17.794-2.135 2.565-3.36" data-index="128"/><path fill="#CFD606" d="M355.297 737.683c2.199-.153 4.178-.51 6.212.525 1.958 6.803.383 41.093.375 50.49q-.13 36.277.882 72.538c-18.837.496-37.81.04-56.663.034l.048-7.835q.314-26.866.324-53.735-9.035-.069-18.065-.449l.29-61.396q33.3.396 66.597-.172" data-index="129"/><path fill="#CFD606" d="M509.47 715.187c2.778-.006 5.702-.304 8.243.968 1.116 6.257.612 12.991.6 19.346l-.077 41.676c-.003 7.28-.565 15.33.546 22.512-6.954-1.298-14.844-.673-21.895-.382q-.475 31.286-.243 62.576c-21.48-.267-43 .026-64.486.058q.543-37.528.435-75.06c-.082-16.491-1.132-33.636.28-50.029 22.626 3.985 47.883-1.48 66.68-14.485q5.005-3.523 9.916-7.18" data-index="130"/><path fill="#F5540F" d="M363.663 736.868c18.665.73 37.319-.707 55.992-.565-.507 51.326-.85 102.56 1.148 153.855 1.163 29.836 1.944 59.323 7.26 88.839 5.9 32.775 15.614 62.76 28.417 93.371 3.027 7.234 12.799 27.202 14.097 33.266.365 1.71.325 1.644-.762 3.109-1.758.134-3.481.277-5.225.533-1.019 1.662-.882.802-.446 2.776.327 1.496.654 2.196 1.81 3.254 2.95-.045 5.059-1.834 7.645-3.217 3.684 6.476 10.928 16.19 12.118 23.428l-1.014.048c-2.285.124-4.053.06-6.008 1.411-.497 1.869-.233 1.993.578 3.787l1.636.908c2.612-1.037 3.858-3.064 5.285-5.465 5.112 5.71 16.14 24.821 20.544 32.448 3.22 3.61 11.247 17.778 15.14 18.693 3.499 4.71 6.715 9.622 10.093 14.42 6.236 7.615 12.503 15.519 19.385 22.56 18.7 22.628 41.133 43.905 63.711 62.665 6.985 5.803 14.728 10.674 21.557 16.675 11.471 7.948 22.618 16.702 34.34 24.215 15.409 9.64 31.2 17.933 47.34 26.288 20.994 9.442 42.583 18.713 64.47 25.88 11.48 3.758 23.325 6.626 34.989 9.777 7.721 2.087 16.345 5.27 24.228 6.164 11.276 2.243 22.51 4.814 33.814 6.88 6.993-.388 14.87 1.29 21.98 1.552 14.569.535 102.869 1.485 108.482-.47l.335-1.425c.3-1.998.346-4.143 1.383-5.893.37 5.289.683 64.049-.161 66.22l-.605-.456c-8.352-1.005-17.45-.304-25.874-.153-22.322.398-45.455 2.082-67.698.433-17.636-1.31-35.762-2.652-53.242-5.297-54.48-8.238-113.707-28.046-162.632-53.421-23.502-12.19-46.11-26.693-67.989-41.558-18.37-12.476-37.406-25.103-54.364-39.427-81.602-68.933-139.69-160.809-178.465-259.627-8.334-21.236-21.28-57.668-23.14-79.882.456-1.8.643-3.222.533-5.088-.518-8.719-2.906-17.382-3.853-26.075-1.718-15.796-2.233-31.864-3.462-47.722-1.563-20.163-1.18-40.108-1.655-60.29-.842-35.844-1.72-71.559-1.715-107.424" data-index="131"/><path fill="#391302" d="M874.127 1409.975c3.058.295 6.492.171 8.98 2.161l.805 1.826c-.583 1.301-.33 1.576-1.816 2.061-1.554.507-2.367.364-3.926.08-2.027-1.397-3.222-2.925-4.674-4.862z" data-index="132"/><path fill="#391302" d="M921.63 1412.571c1.026.504 1.683 1.064 2.549 1.798 2.224 5.383.976 12.587.546 18.255l-1.158-.253c-2.919-3.787-1.845-14.712-1.937-19.8" data-index="133"/><path fill="#FFAF47" d="M396.134 985.691c3.534.172 6.682.631 9.015 3.595 1.1 1.398 1.72 2.958 1.34 4.755-.459 2.166-2.042 2.995-3.755 4.035-.7.026-1.398.06-2.098.05-2.567-.04-4.882-.544-6.602-2.565-1.304-1.53-1.829-3.098-1.449-5.12.422-2.25 1.9-3.41 3.55-4.75" data-index="134"/><path fill="#C63C05" d="M506.738 1168.654c3.22 3.61 11.247 17.778 15.14 18.693 3.499 4.71 6.715 9.622 10.093 14.42 6.236 7.615 12.503 15.519 19.385 22.56l-2.005 1.274c-1.913-2.204-3.687-4.531-5.497-6.82-2.74-1.02-2.953-1.07-5.782-.353-4.982-1.528-13.126-15.743-16.382-20.116-7.962-8.502-12.991-18.472-21.855-26.183 1.694-1.824 4.618-2.591 6.903-3.475" data-index="135"/><path fill="#C63C05" d="m549.35 1225.6 2.006-1.274c18.7 22.629 41.133 43.906 63.711 62.666 6.985 5.803 14.728 10.674 21.557 16.675 11.471 7.948 22.618 16.702 34.34 24.215l-2.496 1.074c-.708 2.929 1.348 4.79-.396 7.489-3.257-.544-6.23-1.28-9.352-2.36l-.552-1.514c-4.916-2.584-11.717-7.247-14.873-11.82-2.507-1.332-4.67-3.14-6.9-4.882-12.377-5.293-10.07-16.287-15.475-21.32-6.024-5.61-13.616-10.924-19.984-16.656-14.88-13.392-28.922-27.584-42.998-41.805l-.77.551a54 54 0 0 1-2.463 6.547c-1.755 1.264-1.768 1.357-3.91 1.262-1.151-1.093-1.178-.673-1.21-2.09-.07-3.024 1.336-4.674 3.415-6.621 1.346-1.259 1.734-1.486 2.497-3.233-1.773-2.494-4.048-4.679-6.146-6.903" data-index="136"/><path d="M636.395 1315.87c1.937-1.888 2.472-2.7 5.153-3.363 1.871.821 1.803.837 2.703 2.681-.035 2.167-.087 3.529-.956 5.563-2.507-1.332-4.67-3.14-6.9-4.882" data-index="137"/><path d="M636.624 1303.667c11.471 7.948 22.618 16.702 34.34 24.215l-2.496 1.074c-.708 2.929 1.348 4.79-.396 7.489-3.257-.544-6.23-1.28-9.352-2.36.23-.986.44-2.306.926-3.227 1.098-2.071 2.858-2.48 4.908-3.206l.25-.702c-8.082-7.26-22.744-14.461-28.18-23.283" data-index="138"/><path fill="#B1AEAC" d="M329.703 411.52c26.175-1.429 53.031-.196 79.272-.146l133.003-.375c-.217 7.584-.67 15.293-.327 22.874.306 6.824 1.451 13.606 1.58 20.436.182 9.69-.715 19.385-.789 29.07-1.908 40.164-5.032 80.364-7.481 120.507-1.108 18.174-1.932 58.937-6.397 75.05q-.704 2.502-1.58 4.948t-1.921 4.827-2.254 4.681-2.573 4.513q-1.364 2.208-2.882 4.32-1.514 2.11-3.174 4.11t-3.455 3.88q-1.794 1.882-3.715 3.631c-24.592 22.48-47.384 20.423-78.288 21.296l-119.056.567c-15.992.006-38.003 1.863-53.324-1.316-11.856-2.46-23.079-8.126-32.68-15.425-12.677-9.637-23.431-23.65-28.254-38.934-5.485-17.385-4.915-44.964-6.532-63.956q-4.197-50.693-8.9-101.344c-2.076-24.645-3.574-49.825-6.96-74.311 1.202-.378 1.942-.673 3.008-1.267 1.272-5.848 1.278-17.828-.988-23.48-2.01-1.626-3.82-1.663-6.282-1.917l1.324-2.187 107.755.224c13.126.056 40.13 1.726 51.87-.277" data-index="139"/><path fill="#CFD606" d="M443.719 521.577c.762.079 2.288.113 3.05.432 1.718.718 1.758 1.462 2.304 3.077-.678 2.75-1.726 4.059-3.61 6.138-.633-.224-1.46-.488-2.024-.83-1.757-1.075-2.087-1.764-2.758-3.58.362-2.567 1.304-3.488 3.038-5.237" data-index="140"/><path fill="#CFD606" d="M517.55 491.791c1.243.064 2.425.285 3.65.489 1.332 1.256 2.108 2.092 2.176 4.01.09 2.463-1.029 4.223-2.633 5.92-1.114-.317-2.555-.61-3.555-1.18-1.974-1.127-2.193-1.689-2.847-3.702.504-2.462 1.628-3.697 3.209-5.537" data-index="141"/><path fill="#CFD606" d="m518.196 464.711 2.655.449c1.135.852 2.03 1.504 2.562 2.892 1.08 2.829.185 5.41-1.195 7.893-.942-.124-2.444-.206-3.365-.565-2.087-.813-2.309-1.398-3.246-3.277.135-2.9 1.26-4.853 2.59-7.392" data-index="142"/><path fill="#CFD606" d="M478.919 522.057c1.797-.016 3.28.148 5.035.543 1.567 1.652 1.657 1.758 1.974 4.006-.837 2.478-1.578 3.5-3.425 5.355-1.526-.222-3.23-.43-4.555-1.28-1.79-1.145-2.225-2.718-2.581-4.647 1.077-2.28 1.449-2.544 3.552-3.977" data-index="143"/><path fill="#CFD606" d="M512.01 526.656c1.872.006 3.877-.081 5.727.193 2.259.338 3.146 1.13 4.417 2.906-.084 2.456-.617 3.3-1.94 5.261q-.311.073-.627.138c-.346.068-.692.129-1.037.195-.948.185-2.33.596-3.28.46-2.104-.304-2.494-.97-3.703-2.521-.51-2.467-.095-4.238.444-6.632" data-index="144"/><path fill="#FFAF47" d="m205.268 555.705 314.538.752c-1.412 23.52-3.821 46.933-5.95 70.393-1.442 15.88-.948 33.012-6.12 48.202-3.624 10.65-9.722 19.52-18.093 27.011-18.232 16.32-32.67 17.227-55.577 17.665-3.972.457-8.157.182-12.158.172-27.412.498-54.81.266-82.222.575-21.94.248-55.87 2.602-76.377-2.072-12.25-2.791-24.7-9.6-33.718-18.335-8.379-8.114-14.25-19.076-17.28-30.286-3.104-11.487-2.6-24.626-3.281-36.499z" data-index="145"/><path fill="#CFD606" d="M450.867 676.49c.227-.018.454-.053.684-.055 5.866-.061 13.727 4.396 17.62 8.64 2.224 2.424 4.13 5.84 3.644 9.24-.499 3.497-3.019 5.429-5.523 7.577-1.44.472-2.995 1.106-4.547.916-4.056-.494-8.88-5.35-11.397-8.403-3.14-3.805-5.922-8.618-5.344-13.7 1.013-2.373 2.72-3.049 4.863-4.215" data-index="146"/><path fill="#CFD606" d="M415.19 705.394c4.24-4.858 7.945-7.125 13.952-9.384 5.082 3.214 14.965 8.843 16.004 15.203.317 1.931-.129 3.332-1.4 4.773-2.141 2.423-6.64 3.436-9.68 3.742-3.972.457-8.157.182-12.158.172-1.768-5.18-4.752-9.498-6.718-14.506" data-index="147"/><path fill="#CFD606" d="M482.188 640.353c5.466-.554 9.95.325 14.377 3.795 2.433 1.905 4.36 4.454 4.679 7.605.947 9.323-11.751 22.486-17.3 29.387-7.466-7.178-16.565-14.562-21.925-23.476 4.716-8.175 11.823-13.268 20.17-17.311" data-index="148"/></svg>