<?xml version="1.0" encoding="UTF-8" standalone="no" ?>
<!DOCTYPE svg PUBLIC "-//W3C//DTD SVG 1.1//EN" "http://www.w3.org/Graphics/SVG/1.1/DTD/svg11.dtd">
<svg xmlns="http://www.w3.org/2000/svg" xmlns:xlink="http://www.w3.org/1999/xlink" version="1.1" width="1080" height="1080" viewBox="0 0 1080 1080" xml:space="preserve">
<desc>Created with Fabric.js 5.2.4</desc>
<defs>
</defs>
<g transform="matrix(1 0 0 1 540 540)" id="59f1be61-9d38-4e55-be2e-2cdade657848"  >
<rect style="stroke: none; stroke-width: 1; stroke-dasharray: none; stroke-linecap: butt; stroke-dashoffset: 0; stroke-linejoin: miter; stroke-miterlimit: 4; fill: rgb(255,255,255); fill-rule: nonzero; opacity: 1; visibility: hidden;" vector-effect="non-scaling-stroke"  x="-540" y="-540" rx="0" ry="0" width="1080" height="1080" />
</g>
<g transform="matrix(1 0 0 1 540 540)" id="86557b63-0e15-4ecb-af17-154f7249c043"  >
</g>
<g transform="matrix(1 0 0 1 540 540)"  >
<g style="" vector-effect="non-scaling-stroke"   >
		<g transform="matrix(1 0 0 1 0 0)"  >
<path style="stroke: none; stroke-width: 1; stroke-dasharray: none; stroke-linecap: butt; stroke-dashoffset: 0; stroke-linejoin: miter; stroke-miterlimit: 4; fill: rgb(243,248,255); fill-rule: nonzero; opacity: 1;" vector-effect="non-scaling-stroke"  transform=" translate(-512, -512)" d="M 0 0 L 1024 0 L 1024 1024 L 0 1024 L 0 0 Z" stroke-linecap="round" />
</g>
		<g transform="matrix(1 0 0 1 -0.12 -0.21)"  >
<path style="stroke: none; stroke-width: 1; stroke-dasharray: none; stroke-linecap: butt; stroke-dashoffset: 0; stroke-linejoin: miter; stroke-miterlimit: 4; fill: rgb(2,29,29); fill-rule: nonzero; opacity: 1;" vector-effect="non-scaling-stroke"  transform=" translate(-511.88, -511.79)" d="M 331.103 173.621 C 340.086 172.812 348.023 174.114 355.223 180.053 C 362.802 186.306 365.107 193.885 366.061 203.383 C 378.859 203.782 391.759 203.465 404.567 203.465 L 488.889 203.19 L 517.297 203.136 C 523.959 203.127 531.032 202.66 537.606 203.841 C 545.151 205.197 551.966 208.853 557.605 213.998 C 563.515 219.391 568.207 226.918 569.406 234.91 C 570.307 240.916 569.956 247.175 569.943 253.232 L 569.965 276.688 L 569.716 364.362 L 569.864 591.469 L 569.81 689.062 C 569.835 703.79 569.195 718.763 569.776 733.462 C 575.414 714.659 579.257 695.175 585.521 676.577 C 597.572 671.847 609.784 667.46 621.914 662.934 C 628.455 660.493 635.39 657.262 642.17 655.634 C 646.774 654.529 718.728 654.476 721.074 655.358 C 722.918 658.531 723.318 663.603 724.072 667.224 C 733.353 663.662 747.989 656.7 757.045 654.843 C 763.034 653.615 785.27 654.484 792.643 654.476 C 808.856 654.458 825.483 653.458 841.638 654.316 C 845.901 667.254 848.511 681.971 851.812 695.297 C 854.331 705.463 856.671 715.611 859.014 725.818 C 859.941 729.854 861.48 733.718 862.044 737.831 C 861.41 739.133 860.19 739.252 858.886 739.788 L 859.237 740.208 C 871.118 741.765 883.802 741.484 895.79 741.558 C 902.566 770.291 912.319 798.518 918.308 827.419 C 906.579 832.152 894.228 835.783 882.295 840.012 C 874.642 842.725 861.454 848.517 854.243 849.595 C 846.855 850.698 838.466 849.889 830.984 849.831 L 787.75 849.654 L 347.297 849.158 L 207.68 849.239 L 164.976 849.248 C 156.788 849.248 148.255 849.727 140.116 848.785 C 132.721 847.929 124.593 843.668 119.277 838.563 C 112.527 832.082 107.558 822.846 106.312 813.543 C 105.594 808.177 106.044 802.328 106.051 796.903 L 106.074 765.425 L 105.899 658.908 L 105.697 351.046 C 105.547 316.692 106.16 282.339 105.47 247.989 C 105.219 235.508 107.581 224.671 116.566 215.442 C 121.827 210.039 129.646 205.883 137.041 204.439 C 143.321 203.213 150.157 203.684 156.523 203.7 L 183.777 203.739 L 304.769 203.556 C 305.713 197.3 307.101 191.38 310.744 186.087 C 315.695 178.893 322.747 175.225 331.103 173.621 Z" stroke-linecap="round" />
</g>
		<g transform="matrix(1 0 0 1 212.63 294.66)"  >
<path style="stroke: none; stroke-width: 1; stroke-dasharray: none; stroke-linecap: butt; stroke-dashoffset: 0; stroke-linejoin: miter; stroke-miterlimit: 4; fill: rgb(243,248,255); fill-rule: nonzero; opacity: 1;" vector-effect="non-scaling-stroke"  transform=" translate(-724.63, -806.66)" d="M 718.058 769.674 L 718.599 769.56 C 718.465 774.192 720.522 780.036 721.48 784.635 C 724.03 796.888 726.109 809.218 728.554 821.489 C 729.628 826.879 731.909 833.106 732.12 838.53 C 732.185 840.189 731.578 842.068 731.172 843.671 L 730.958 843.768 C 730.204 842.896 716.928 774.574 717.145 770.299 L 718.058 769.674 Z" stroke-linecap="round" />
</g>
		<g transform="matrix(1 0 0 1 280.65 205.16)"  >
<path style="stroke: none; stroke-width: 1; stroke-dasharray: none; stroke-linecap: butt; stroke-dashoffset: 0; stroke-linejoin: miter; stroke-miterlimit: 4; fill: rgb(243,248,255); fill-rule: nonzero; opacity: 1;" vector-effect="non-scaling-stroke"  transform=" translate(-792.65, -717.16)" d="M 783.617 677.128 C 784.055 677.268 785.027 677.556 785.408 677.773 C 785.533 677.845 786.191 678.428 786.28 678.648 C 788.041 682.988 789.761 694.807 790.802 700.009 Q 796.703 728.512 801.681 757.191 L 799.502 756.937 C 799.277 756.718 799.004 756.54 798.828 756.281 C 798.75 756.167 786.127 686.211 783.617 677.128 Z" stroke-linecap="round" />
</g>
		<g transform="matrix(1 0 0 1 331.22 295.7)"  >
<path style="stroke: none; stroke-width: 1; stroke-dasharray: none; stroke-linecap: butt; stroke-dashoffset: 0; stroke-linejoin: miter; stroke-miterlimit: 4; fill: rgb(243,248,255); fill-rule: nonzero; opacity: 1;" vector-effect="non-scaling-stroke"  transform=" translate(-843.22, -807.7)" d="M 835.268 768.143 L 836.771 768.739 C 836.998 769.303 837.078 769.461 837.249 770.126 C 838.628 775.488 852.438 844.914 852.175 845.947 C 852.049 846.442 851.654 846.826 851.394 847.266 L 850.09 846.227 C 847.826 840.386 847.135 832.895 845.95 826.711 Q 842.451 808.323 838.648 789.995 C 837.604 784.906 836.636 779.781 835.479 774.718 C 835.106 773.086 834.369 771.342 834.272 769.688 C 834.227 768.918 834.771 768.671 835.268 768.143 Z" stroke-linecap="round" />
</g>
		<g transform="matrix(1 0 0 1 96.53 288.6)"  >
<path style="stroke: none; stroke-width: 1; stroke-dasharray: none; stroke-linecap: butt; stroke-dashoffset: 0; stroke-linejoin: miter; stroke-miterlimit: 4; fill: rgb(243,248,255); fill-rule: nonzero; opacity: 1;" vector-effect="non-scaling-stroke"  transform=" translate(-608.53, -800.6)" d="M 618.679 760.007 L 619.213 760.217 C 618.614 761.443 603.414 767.887 600.887 769.249 C 601.285 776.177 603.248 783.381 604.564 790.207 L 610.507 822.676 C 611.346 827.287 613.111 833.284 612.919 837.914 C 612.873 839.027 612.423 840.157 612.035 841.19 C 608.688 830.231 607.026 818.563 605.023 807.307 Q 601.685 788.342 597.84 769.474 C 604.295 765.629 611.54 762.369 618.679 760.007 Z" stroke-linecap="round" />
</g>
		<g transform="matrix(1 0 0 1 179.35 193.72)"  >
<path style="stroke: none; stroke-width: 1; stroke-dasharray: none; stroke-linecap: butt; stroke-dashoffset: 0; stroke-linejoin: miter; stroke-miterlimit: 4; fill: rgb(243,248,255); fill-rule: nonzero; opacity: 1;" vector-effect="non-scaling-stroke"  transform=" translate(-691.35, -705.72)" d="M 714.23 658.491 L 715.423 658.599 C 713.415 660.315 673.879 675.739 669.195 677.132 C 672.442 689.233 674.237 702.106 676.663 714.418 C 678.761 725.07 681.718 735.987 682.951 746.76 C 683.194 748.875 682.738 750.889 682.299 752.945 L 682.262 752.953 C 680.17 750.485 669.27 686.934 667.274 676.915 C 682.518 669.683 698.763 665.053 714.23 658.491 Z" stroke-linecap="round" />
</g>
		<g transform="matrix(1 0 0 1 172.56 251.14)"  >
<path style="stroke: none; stroke-width: 1; stroke-dasharray: none; stroke-linecap: butt; stroke-dashoffset: 0; stroke-linejoin: miter; stroke-miterlimit: 4; fill: rgb(243,248,255); fill-rule: nonzero; opacity: 1;" vector-effect="non-scaling-stroke"  transform=" translate(-684.56, -763.14)" d="M 655.62 760.037 C 665.5 759.598 675.501 759.998 685.394 759.978 C 699.934 759.949 714.518 759.649 729.051 760.065 C 724.733 763.126 720.64 765.057 715.548 766.452 L 640.073 766.401 C 645.362 764.497 650.477 762.297 655.62 760.037 Z" stroke-linecap="round" />
</g>
		<g transform="matrix(1 0 0 1 55.04 247.5)"  >
<path style="stroke: none; stroke-width: 1; stroke-dasharray: none; stroke-linecap: butt; stroke-dashoffset: 0; stroke-linejoin: miter; stroke-miterlimit: 4; fill: rgb(243,248,255); fill-rule: nonzero; opacity: 1;" vector-effect="non-scaling-stroke"  transform=" translate(-567.04, -759.5)" d="M 562.13 752.46 C 563.095 752.307 562.558 752.29 563.723 752.702 C 563.969 753.648 563.877 754.142 563.59 755.043 C 563.047 756.742 562.64 757.736 563.317 759.455 C 566.364 761.14 604.743 760.055 610.557 760.05 C 606.819 761.275 603.253 763.006 599.542 764.325 C 591.437 767.204 583.332 766.607 574.856 766.557 Q 549.184 766.631 523.513 766.419 C 536.272 761.457 549.332 757.338 562.13 752.46 Z" stroke-linecap="round" />
</g>
		<g transform="matrix(1 0 0 1 -176.08 -312.74)"  >
<path style="stroke: none; stroke-width: 1; stroke-dasharray: none; stroke-linecap: butt; stroke-dashoffset: 0; stroke-linejoin: miter; stroke-miterlimit: 4; fill: rgb(243,248,255); fill-rule: nonzero; opacity: 1;" vector-effect="non-scaling-stroke"  transform=" translate(-335.92, -199.26)" d="M 333.883 183.066 C 337.067 182.705 339.905 183.159 342.789 184.57 C 346.996 186.628 350.468 190.514 351.822 195.025 C 353.084 199.227 352.279 203.823 350.134 207.599 C 347.531 212.181 343.843 214.277 338.909 215.513 C 335.196 215.646 332.133 215.639 328.746 213.892 Q 328.346 213.685 327.958 213.457 Q 327.57 213.229 327.194 212.981 Q 326.818 212.734 326.455 212.468 Q 326.092 212.201 325.744 211.916 Q 325.395 211.631 325.062 211.329 Q 324.728 211.027 324.411 210.707 Q 324.093 210.388 323.793 210.053 Q 323.492 209.718 323.209 209.368 Q 322.926 209.018 322.662 208.654 Q 322.397 208.289 322.152 207.912 Q 321.906 207.535 321.681 207.145 Q 321.455 206.756 321.25 206.355 Q 321.044 205.954 320.86 205.544 Q 320.675 205.133 320.512 204.714 Q 320.349 204.294 320.208 203.867 Q 320.067 203.439 319.948 203.005 Q 319.754 202.292 319.632 201.564 Q 319.51 200.835 319.462 200.098 Q 319.413 199.361 319.438 198.623 Q 319.463 197.885 319.562 197.153 Q 319.661 196.421 319.832 195.703 Q 320.003 194.984 320.245 194.286 Q 320.487 193.588 320.797 192.918 Q 321.107 192.248 321.483 191.612 C 324.233 186.881 328.731 184.402 333.883 183.066 Z" stroke-linecap="round" />
</g>
		<g transform="matrix(1 0 0 1 113.18 283.25)"  >
<path style="stroke: none; stroke-width: 1; stroke-dasharray: none; stroke-linecap: butt; stroke-dashoffset: 0; stroke-linejoin: miter; stroke-miterlimit: 4; fill: rgb(243,248,255); fill-rule: nonzero; opacity: 1;" vector-effect="non-scaling-stroke"  transform=" translate(-625.18, -795.25)" d="M 627.073 760.089 C 633.421 760.033 639.761 760.286 646.105 760.503 C 641.256 762.989 636.233 765.166 631.277 767.43 C 627.124 785.649 621.335 803.456 617.011 821.614 L 614.886 830.42 C 614.164 824.09 612.746 817.703 611.649 811.417 Q 608.112 791.123 604.261 770.887 C 611.773 767.159 620.023 764.68 627.073 760.089 Z" stroke-linecap="round" />
</g>
		<g transform="matrix(1 0 0 1 140.29 154.81)"  >
<path style="stroke: none; stroke-width: 1; stroke-dasharray: none; stroke-linecap: butt; stroke-dashoffset: 0; stroke-linejoin: miter; stroke-miterlimit: 4; fill: rgb(243,248,255); fill-rule: nonzero; opacity: 1;" vector-effect="non-scaling-stroke"  transform=" translate(-652.29, -666.81)" d="M 702.772 658.258 C 703.55 658.181 703.91 658.228 704.653 658.393 C 702.316 660.523 693.602 662.759 690.208 664.053 C 685.504 665.848 680.741 667.582 676.108 669.551 C 672.387 671.134 668.935 673.103 664.975 674.09 C 657.029 676.071 647.258 675.14 639.07 675.182 L 601.875 675.401 C 601.197 675.406 600.584 675.28 599.918 675.165 C 600.133 674.916 600.316 674.635 600.563 674.417 C 602.664 672.575 611.497 670.332 614.573 669.21 C 623.699 665.88 635.397 660.582 644.772 658.924 C 651.456 657.742 659.27 658.664 666.119 658.67 Q 684.447 658.567 702.772 658.258 Z" stroke-linecap="round" />
</g>
		<g transform="matrix(1 0 0 1 254.05 154.34)"  >
<path style="stroke: none; stroke-width: 1; stroke-dasharray: none; stroke-linecap: butt; stroke-dashoffset: 0; stroke-linejoin: miter; stroke-miterlimit: 4; fill: rgb(243,248,255); fill-rule: nonzero; opacity: 1;" vector-effect="non-scaling-stroke"  transform=" translate(-766.05, -666.34)" d="M 795.882 657.754 Q 808.983 657.504 822.085 657.68 C 817.176 659.477 812.281 661.261 807.516 663.419 C 799.472 667.064 789.878 672.571 781.348 674.414 C 775.217 675.739 768.104 675.033 761.84 674.976 Q 749.545 674.846 737.25 674.93 C 728.172 675.014 719.083 675.191 710.01 674.834 C 717.205 672.571 724.29 670.546 731.376 667.891 C 739.57 664.82 749.384 659.876 757.815 658.314 C 766.105 656.778 786.462 657.835 795.882 657.754 Z" stroke-linecap="round" />
</g>
		<g transform="matrix(1 0 0 1 184.99 188.39)"  >
<path style="stroke: none; stroke-width: 1; stroke-dasharray: none; stroke-linecap: butt; stroke-dashoffset: 0; stroke-linejoin: miter; stroke-miterlimit: 4; fill: rgb(243,248,255); fill-rule: nonzero; opacity: 1;" vector-effect="non-scaling-stroke"  transform=" translate(-696.99, -700.39)" d="M 719.079 660.551 C 720.424 661.948 720.611 666.099 720.888 668.026 C 714.317 670.495 707.601 672.544 701.147 675.324 C 699.766 686.859 696.141 698.808 693.205 710.057 C 690.585 720.099 688.228 730.374 685.007 740.23 L 683.116 731.134 Q 677.912 705.245 673.086 679.283 C 680.318 676.289 687.474 673.056 694.757 670.2 C 702.868 667.019 711.179 664.238 719.079 660.551 Z" stroke-linecap="round" />
</g>
		<g transform="matrix(1 0 0 1 290.77 274.89)"  >
<path style="stroke: none; stroke-width: 1; stroke-dasharray: none; stroke-linecap: butt; stroke-dashoffset: 0; stroke-linejoin: miter; stroke-miterlimit: 4; fill: rgb(243,248,255); fill-rule: nonzero; opacity: 1;" vector-effect="non-scaling-stroke"  transform=" translate(-802.77, -786.89)" d="M 854.865 743.203 C 864.327 742.988 874.085 743.941 883.565 744.278 C 871.955 748.212 846.844 755.536 837.274 761.804 C 835.717 762.823 834.768 764.161 833.756 765.693 C 819.05 765.545 804.292 765.991 789.578 766.046 C 776.072 766.098 762.396 765.69 748.914 766.418 C 744.238 783.308 741.13 800.816 737.072 817.892 C 736.057 822.148 735.193 826.523 733.593 830.602 C 728.919 810.903 725.835 790.581 721.974 770.68 C 728.97 767.389 736.764 762.488 744.203 760.56 C 748.474 759.453 753.499 759.899 757.887 759.91 L 784.71 760.065 C 790.946 760.132 797.742 760.737 803.907 759.696 C 809.311 758.783 814.499 756.577 819.65 754.758 L 841.694 747.059 C 845.939 745.59 850.399 743.774 854.865 743.203 Z" stroke-linecap="round" />
</g>
		<g transform="matrix(1 0 0 1 312.16 195.39)"  >
<path style="stroke: none; stroke-width: 1; stroke-dasharray: none; stroke-linecap: butt; stroke-dashoffset: 0; stroke-linejoin: miter; stroke-miterlimit: 4; fill: rgb(243,248,255); fill-rule: nonzero; opacity: 1;" vector-effect="non-scaling-stroke"  transform=" translate(-824.16, -707.39)" d="M 838.638 658.374 L 839.168 658.566 C 840.721 660.237 856.064 727.049 858.657 737.545 C 851.147 739.996 843.797 742.899 836.331 745.479 C 827.452 748.547 818.492 751.339 809.75 754.795 L 804.837 756.413 C 800.591 730.431 795.049 704.553 789.668 678.788 C 799.682 674.957 809.51 670.635 819.409 666.52 C 825.833 663.849 832.438 661.544 838.638 658.374 Z" stroke-linecap="round" />
</g>
		<g transform="matrix(1 0 0 1 365.2 284.6)"  >
<path style="stroke: none; stroke-width: 1; stroke-dasharray: none; stroke-linecap: butt; stroke-dashoffset: 0; stroke-linejoin: miter; stroke-miterlimit: 4; fill: rgb(243,248,255); fill-rule: nonzero; opacity: 1;" vector-effect="non-scaling-stroke"  transform=" translate(-877.2, -796.6)" d="M 893.491 747.228 C 896.606 751.888 912.641 817.309 914.277 825.693 Q 886.628 835.004 859.132 844.757 L 855.36 845.972 C 851.534 819.709 843.892 793.933 840.121 767.639 C 851.169 764.012 861.939 759.549 872.802 755.411 C 879.65 752.802 887.03 750.653 893.491 747.228 Z" stroke-linecap="round" />
</g>
		<g transform="matrix(1 0 0 1 110.78 205.55)"  >
<path style="stroke: none; stroke-width: 1; stroke-dasharray: none; stroke-linecap: butt; stroke-dashoffset: 0; stroke-linejoin: miter; stroke-miterlimit: 4; fill: rgb(243,248,255); fill-rule: nonzero; opacity: 1;" vector-effect="non-scaling-stroke"  transform=" translate(-622.78, -717.55)" d="M 640.371 678.25 C 648.228 678.191 656.11 678.013 663.961 678.355 C 666.939 686.542 667.344 696.143 668.95 704.736 L 679.187 756.789 Q 642.657 756.379 606.125 756.715 C 592.915 756.783 579.559 757.23 566.368 756.658 C 573.004 730.564 582.318 704.911 587.789 678.521 C 605.297 678.095 622.857 678.306 640.371 678.25 Z" stroke-linecap="round" />
</g>
		<g transform="matrix(1 0 0 1 228.41 205.32)"  >
<path style="stroke: none; stroke-width: 1; stroke-dasharray: none; stroke-linecap: butt; stroke-dashoffset: 0; stroke-linejoin: miter; stroke-miterlimit: 4; fill: rgb(243,248,255); fill-rule: nonzero; opacity: 1;" vector-effect="non-scaling-stroke"  transform=" translate(-740.41, -717.32)" d="M 708.078 678.279 C 732.168 677.111 756.715 678.035 780.855 678.062 C 783.678 691.077 785.922 704.238 788.473 717.31 C 791.038 730.451 793.989 743.681 795.782 756.949 C 787.778 756.751 779.757 756.813 771.75 756.775 L 685.029 756.832 C 687.954 740.768 692.765 725.005 696.829 709.199 C 699.393 699.228 701.21 688.793 704.517 679.059 C 705.61 678.161 706.698 678.373 708.078 678.279 Z" stroke-linecap="round" />
</g>
		<g transform="matrix(1 0 0 1 39.92 296.15)"  >
<path style="stroke: none; stroke-width: 1; stroke-dasharray: none; stroke-linecap: butt; stroke-dashoffset: 0; stroke-linejoin: miter; stroke-miterlimit: 4; fill: rgb(243,248,255); fill-rule: nonzero; opacity: 1;" vector-effect="non-scaling-stroke"  transform=" translate(-551.92, -808.15)" d="M 515.067 769.449 Q 555.014 770.006 594.964 769.843 C 596.194 778.499 598.116 787.102 599.725 795.697 Q 604.302 821.269 609.722 846.676 L 588.75 846.565 L 494.126 846.856 C 503.237 821.981 508.917 795.208 515.067 769.449 Z" stroke-linecap="round" />
</g>
		<g transform="matrix(1 0 0 1 159.03 296.1)"  >
<path style="stroke: none; stroke-width: 1; stroke-dasharray: none; stroke-linecap: butt; stroke-dashoffset: 0; stroke-linejoin: miter; stroke-miterlimit: 4; fill: rgb(243,248,255); fill-rule: nonzero; opacity: 1;" vector-effect="non-scaling-stroke"  transform=" translate(-671.03, -808.1)" d="M 634.133 769.659 C 646.935 769.298 659.806 769.503 672.617 769.509 C 686.38 769.517 700.182 769.35 713.939 769.762 C 715.416 781.464 717.957 792.859 720.201 804.42 Q 724.285 825.547 727.921 846.756 L 708.25 846.627 L 614.142 846.671 C 620.074 820.854 627.811 795.395 634.133 769.659 Z" stroke-linecap="round" />
</g>
		<g transform="matrix(1 0 0 1 277.99 295.81)"  >
<path style="stroke: none; stroke-width: 1; stroke-dasharray: none; stroke-linecap: butt; stroke-dashoffset: 0; stroke-linejoin: miter; stroke-miterlimit: 4; fill: rgb(243,248,255); fill-rule: nonzero; opacity: 1;" vector-effect="non-scaling-stroke"  transform=" translate(-789.99, -807.81)" d="M 751.231 769.18 C 777.833 768.466 804.597 768.998 831.217 768.894 C 832.181 778.909 835.183 789.389 837.264 799.282 Q 842.145 822.92 846.592 846.644 L 827.456 846.63 Q 780.417 846.476 733.378 846.824 C 739.933 821.176 746.394 795.207 751.231 769.18 Z" stroke-linecap="round" />
</g>
		<g transform="matrix(1 0 0 1 -2.52 -31.55)"  >
<path style="stroke: none; stroke-width: 1; stroke-dasharray: none; stroke-linecap: butt; stroke-dashoffset: 0; stroke-linejoin: miter; stroke-miterlimit: 4; fill: rgb(194,198,248); fill-rule: nonzero; opacity: 1;" vector-effect="non-scaling-stroke"  transform=" translate(-509.48, -480.45)" d="M 451.715 206.411 C 465.697 205.561 480.246 206.452 494.287 206.441 C 507.571 206.43 522.998 205.431 536.029 206.707 C 545.232 207.608 554.21 213.602 559.868 220.697 C 563.645 225.432 566.366 231.437 566.818 237.514 C 567.566 247.551 567.12 257.873 567.125 267.951 L 567.025 324.138 L 567.023 492.601 L 566.903 656.288 L 566.996 712.153 C 566.984 723.785 567.399 735.908 566.144 747.46 L 561.128 749.265 Q 553.825 752.19 546.425 754.86 L 546.383 402.461 L 546.347 295.508 L 546.355 263.894 C 546.369 258.033 546.8 251.765 546.201 245.947 C 545.708 241.164 543.666 236.789 540.223 233.42 C 537.706 230.957 534.422 228.849 530.991 227.95 C 523.942 226.102 514.99 227.076 507.724 227.075 Q 489.742 227.124 471.76 226.965 C 466.963 216.538 461.969 211.535 451.715 206.411 Z" stroke-linecap="round" />
</g>
		<g transform="matrix(1 0 0 1 -209.25 14.62)"  >
<path style="stroke: none; stroke-width: 1; stroke-dasharray: none; stroke-linecap: butt; stroke-dashoffset: 0; stroke-linejoin: miter; stroke-miterlimit: 4; fill: rgb(194,198,248); fill-rule: nonzero; opacity: 1;" vector-effect="non-scaling-stroke"  transform=" translate(-302.75, -526.62)" d="M 217.353 206.771 C 218.837 206.692 220.397 206.426 221.83 206.844 C 221.769 207.079 215.934 210.519 215.11 211.115 C 209.086 215.472 204.974 221.123 201.401 227.549 Q 181.636 227.275 161.87 227.22 C 155.304 227.182 147.767 226.386 141.343 227.495 C 138.8 227.934 136.705 229.09 134.795 230.813 C 130.502 234.684 128.708 238.968 128.518 244.674 C 128.108 257.03 128.587 269.521 128.666 281.892 L 128.875 347.748 L 128.971 580.576 L 129.043 735.875 L 129.022 780.229 C 128.967 788.368 128.295 796.907 129.015 804.988 C 129.497 810.402 131.469 815.04 135.237 818.986 C 138.546 822.451 143.014 825.585 147.826 826.304 C 158.568 827.907 172.174 826.906 183.167 826.921 L 253.061 826.952 L 497.092 826.937 C 495.463 833.42 493.153 839.842 491.134 846.219 L 482.125 846.109 L 245.867 846.306 L 177.742 846.309 C 165.83 846.318 153.048 847.3 141.263 845.795 C 135.576 845.068 129.066 841.991 124.581 838.429 C 124.385 838.273 124.193 838.111 123.997 837.955 C 122.998 837.161 121.997 836.381 121.073 835.498 C 112.759 827.558 109.388 817.903 109.1 806.619 C 108.737 792.442 109.101 778.171 109.104 763.986 L 109.046 683.628 L 109.014 438.384 L 108.763 304.504 L 108.604 262.462 C 108.575 254.917 108.091 247.014 108.794 239.501 C 109.493 232.02 112.982 224.155 118.182 218.729 C 122.677 214.038 128.963 209.874 135.305 208.268 C 145.597 205.661 157.983 206.976 168.526 207.003 Q 192.941 207.239 217.353 206.771 Z" stroke-linecap="round" />
</g>
		<g transform="matrix(1 0 0 1 -174.72 15)"  >
<path style="stroke: none; stroke-width: 1; stroke-dasharray: none; stroke-linecap: butt; stroke-dashoffset: 0; stroke-linejoin: miter; stroke-miterlimit: 4; fill: rgb(243,248,255); fill-rule: nonzero; opacity: 1;" vector-effect="non-scaling-stroke"  transform=" translate(-337.28, -527)" d="M 144.217 230.247 L 145.186 230.216 C 165.041 229.618 185.023 230.293 204.899 230.157 L 390.599 230.028 Q 437.401 229.771 484.201 230.219 L 513.243 230.171 C 518.17 230.16 523.433 229.838 528.326 230.362 C 531.912 230.746 534.914 232.564 537.45 235.043 C 540.681 238.202 542.468 241.978 542.845 246.472 C 543.316 252.081 543.059 257.877 543.066 263.508 L 543.127 293.943 L 543.188 409.99 L 543.467 755.748 Q 527.809 761.025 512.348 766.856 C 509.63 777.12 507.258 787.51 504.688 797.816 C 502.098 806.394 500.511 815.132 497.374 823.568 C 461.465 823.998 425.503 823.595 389.589 823.603 L 261.886 823.841 Q 226.103 823.675 190.319 823.881 C 177.558 823.913 164.41 824.556 151.693 823.71 C 148.098 823.471 144.539 822.469 141.535 820.431 C 136.846 817.249 133.142 812.382 132.308 806.681 C 131.069 798.209 131.959 788.805 131.933 780.22 Q 131.767 753.259 131.874 726.3 L 131.869 540.886 L 131.639 334.532 L 131.476 272.203 C 131.456 262.492 130.473 251.127 131.757 241.629 C 132.082 239.222 132.913 237.108 134.423 235.18 C 136.934 231.976 140.294 230.678 144.217 230.247 Z" stroke-linecap="round" />
</g>
		<g transform="matrix(1 0 0 1 -305.05 -49.04)"  >
<path style="stroke: none; stroke-width: 1; stroke-dasharray: none; stroke-linecap: butt; stroke-dashoffset: 0; stroke-linejoin: miter; stroke-miterlimit: 4; fill: rgb(2,29,29); fill-rule: nonzero; opacity: 1;" vector-effect="non-scaling-stroke"  transform=" translate(-206.95, -462.96)" d="M 225.668 443.178 L 227.254 445.199 L 227.14 446.021 C 218.114 457.3 209.958 472.681 200.542 482.738 C 195.662 477.52 190.631 471.917 186.649 465.969 C 187.289 464.784 187.357 464.997 188.535 464.529 C 192.859 468.463 196.315 473.815 200.343 478.139 C 204.251 473.487 207.587 468.145 211.092 463.173 Q 218.267 453.093 225.668 443.178 Z" stroke-linecap="round" />
</g>
		<g transform="matrix(1 0 0 1 -305.34 -165.3)"  >
<path style="stroke: none; stroke-width: 1; stroke-dasharray: none; stroke-linecap: butt; stroke-dashoffset: 0; stroke-linejoin: miter; stroke-miterlimit: 4; fill: rgb(2,29,29); fill-rule: nonzero; opacity: 1;" vector-effect="non-scaling-stroke"  transform=" translate(-206.66, -346.7)" d="M 226.771 326.811 C 227.323 328.291 227.551 328.52 226.901 330.016 C 226.799 330.25 226.662 330.466 226.543 330.691 Q 218.738 340.687 211.76 351.276 C 208.328 356.398 205.037 361.994 200.917 366.586 C 199.854 365.78 198.905 364.861 197.98 363.902 C 195.013 360.826 185.949 350.872 186.017 347.108 C 186.349 347.118 186.687 347.069 187.012 347.137 C 189.92 347.749 198.174 359.735 200.609 362.455 C 204.368 356.897 222.469 328.547 226.771 326.811 Z" stroke-linecap="round" />
</g>
		<g transform="matrix(1 0 0 1 -304.59 187.81)"  >
<path style="stroke: none; stroke-width: 1; stroke-dasharray: none; stroke-linecap: butt; stroke-dashoffset: 0; stroke-linejoin: miter; stroke-miterlimit: 4; fill: rgb(2,29,29); fill-rule: nonzero; opacity: 1;" vector-effect="non-scaling-stroke"  transform=" translate(-207.41, -699.81)" d="M 225.523 679.886 C 226.376 680.731 227.373 681.305 227.277 682.64 C 227.264 682.823 227.173 682.992 227.121 683.169 C 222.104 689.91 217.321 696.755 212.605 703.709 C 209.255 708.649 205.964 714.037 202.101 718.568 C 201.244 719.573 200.737 719.717 199.465 719.728 C 197.062 718.228 188.73 706.767 187.814 703.854 C 187.475 702.774 187.392 702.704 187.95 701.679 L 188.962 701.712 C 190.93 702.701 197.981 713.616 199.968 716.106 C 203.846 711.743 207.063 706.426 210.344 701.608 Q 217.77 690.633 225.523 679.886 Z" stroke-linecap="round" />
</g>
		<g transform="matrix(1 0 0 1 -305.33 68.84)"  >
<path style="stroke: none; stroke-width: 1; stroke-dasharray: none; stroke-linecap: butt; stroke-dashoffset: 0; stroke-linejoin: miter; stroke-miterlimit: 4; fill: rgb(2,29,29); fill-rule: nonzero; opacity: 1;" vector-effect="non-scaling-stroke"  transform=" translate(-206.67, -580.84)" d="M 224.858 561.021 C 225.67 562.097 226.604 563.01 226.565 564.432 C 222.501 570.111 203.023 599.018 199.879 600.66 C 197.756 600.069 189.685 589.369 187.944 586.926 C 187.059 585.684 186.575 585.292 186.84 583.795 L 187.559 583.419 C 191.84 585.025 196.824 593.325 199.668 596.968 C 207.852 584.832 216.686 573.151 224.858 561.021 Z" stroke-linecap="round" />
</g>
		<g transform="matrix(1 0 0 1 -147.52 -24.5)"  >
<path style="stroke: none; stroke-width: 1; stroke-dasharray: none; stroke-linecap: butt; stroke-dashoffset: 0; stroke-linejoin: miter; stroke-miterlimit: 4; fill: rgb(153,163,155); fill-rule: nonzero; opacity: 1;" vector-effect="non-scaling-stroke"  transform=" translate(-364.48, -487.5)" d="M 262.162 483.118 C 308.017 482.245 354.031 482.994 399.901 483.003 L 444.813 482.952 C 451.488 482.938 458.805 482.244 465.406 482.998 C 467.182 483.201 469.055 483.682 470.039 485.344 C 470.639 486.357 470.661 487.549 470.409 488.665 C 470 490.482 468.928 491.166 467.479 492.099 C 419.368 491.385 371.151 491.981 323.03 492.021 L 282.493 492.091 C 276.233 492.107 269.59 492.645 263.37 492.151 C 261.642 492.015 260.282 491.713 259.222 490.184 C 258.485 489.121 258.213 487.82 258.534 486.56 C 259.027 484.62 260.522 483.905 262.162 483.118 Z" stroke-linecap="round" />
</g>
		<g transform="matrix(1 0 0 1 -146.89 -141.64)"  >
<path style="stroke: none; stroke-width: 1; stroke-dasharray: none; stroke-linecap: butt; stroke-dashoffset: 0; stroke-linejoin: miter; stroke-miterlimit: 4; fill: rgb(153,163,155); fill-rule: nonzero; opacity: 1;" vector-effect="non-scaling-stroke"  transform=" translate(-365.11, -370.36)" d="M 285.237 365.755 L 404.517 365.567 L 445.707 365.614 C 451.897 365.631 458.173 365.324 464.348 365.598 C 465.892 365.667 467.627 365.747 468.921 366.698 C 470.19 367.63 470.947 369.318 470.846 370.888 C 470.788 371.805 470.525 372.428 469.91 373.075 C 466.645 376.514 447.887 374.871 442.875 374.794 L 318.994 374.582 L 283.248 374.633 C 277.238 374.647 271.091 374.921 265.099 374.569 C 263.411 374.47 261.867 374.31 260.398 373.408 C 259.86 372.579 259.43 371.873 259.377 370.867 C 259.316 369.721 259.388 368.609 260.265 367.784 C 263.917 364.351 280.004 365.721 285.237 365.755 Z" stroke-linecap="round" />
</g>
		<g transform="matrix(1 0 0 1 -147 93.97)"  >
<path style="stroke: none; stroke-width: 1; stroke-dasharray: none; stroke-linecap: butt; stroke-dashoffset: 0; stroke-linejoin: miter; stroke-miterlimit: 4; fill: rgb(153,163,155); fill-rule: nonzero; opacity: 1;" vector-effect="non-scaling-stroke"  transform=" translate(-365, -605.97)" d="M 261.642 601.538 C 305.899 600.86 350.273 601.305 394.544 601.341 L 439.359 601.353 C 447.875 601.321 456.628 600.832 465.12 601.35 C 467.171 601.475 468.377 601.744 469.98 603.056 C 470.406 603.848 470.753 604.437 470.685 605.376 C 470.532 607.498 469.292 608.929 467.897 610.399 C 454.646 610.998 441.21 610.539 427.941 610.523 L 356.893 610.545 L 295.146 610.586 C 285.083 610.591 274.652 611.152 264.621 610.54 C 263.171 610.452 261.861 610.206 260.698 609.247 C 259.779 608.489 259.303 607.366 259.3 606.187 C 259.293 604.072 260.226 602.927 261.642 601.538 Z" stroke-linecap="round" />
</g>
		<g transform="matrix(1 0 0 1 -147.31 210.27)"  >
<path style="stroke: none; stroke-width: 1; stroke-dasharray: none; stroke-linecap: butt; stroke-dashoffset: 0; stroke-linejoin: miter; stroke-miterlimit: 4; fill: rgb(153,163,155); fill-rule: nonzero; opacity: 1;" vector-effect="non-scaling-stroke"  transform=" translate(-364.69, -722.27)" d="M 262.206 717.656 L 403.119 717.701 L 448.526 717.581 C 454.336 717.573 461.809 716.703 467.454 717.811 C 468.647 718.045 469.841 719.104 470.342 720.189 C 470.896 721.389 470.812 722.78 470.337 723.987 C 469.71 725.582 468.746 726.179 467.298 726.949 C 426.437 727.676 385.397 727.026 344.525 726.905 L 292.709 726.817 C 283.084 726.831 273.373 727.118 263.757 726.838 C 262.051 726.789 260.506 726.62 259.339 725.224 C 258.592 724.331 258.567 723.122 258.755 722.023 C 259.108 719.965 260.596 718.777 262.206 717.656 Z" stroke-linecap="round" />
</g>
</g>
</g>
<g transform="matrix(4.23 0 0 4.23 657.41 715.14)" id="a3676d40-a1b1-46d8-9b62-a050daf3c870"  >
<path style="stroke: rgb(0,0,0); stroke-width: 0; stroke-dasharray: none; stroke-linecap: butt; stroke-dashoffset: 0; stroke-linejoin: miter; stroke-miterlimit: 4; fill: rgb(255,0,0); fill-rule: nonzero; opacity: 1;" vector-effect="non-scaling-stroke"  transform=" translate(-50, -50)" d="M 16.28 19.945 L 19.957 16.32 C 22.060000000000002 14.166 25.578000000000003 14.166 27.681 16.32 L 50.007000000000005 38.595 L 72.333 16.32 C 74.43599999999999 14.166 77.954 14.166 80.054 16.32 L 83.68 19.945 C 85.834 22.046 85.834 25.566000000000003 83.68 27.668 L 61.405 49.993 L 83.68 72.32 C 85.834 74.422 85.834 77.939 83.68 80.04299999999999 L 80.054 83.72099999999999 C 77.95400000000001 85.82 74.436 85.82 72.333 83.72099999999999 L 50.007 61.393 L 27.681 83.721 C 25.578 85.82000000000001 22.060000000000002 85.82000000000001 19.957 83.721 L 16.28 80.043 C 14.180000000000001 77.93900000000001 14.180000000000001 74.42200000000001 16.28 72.32000000000001 L 38.606 49.99300000000001 L 16.28 27.667 C 14.18 25.566 14.18 22.046 16.28 19.945 z" stroke-linecap="round" />
</g>
</svg>