<?xml version="1.0" encoding="utf-8" ?>
<svg xmlns="http://www.w3.org/2000/svg" xmlns:xlink="http://www.w3.org/1999/xlink" width="1024" height="1024">
	<path fill="#F3F8FF" d="M0 0L1024 0L1024 1024L0 1024L0 0Z"/>
	<path fill="#1C0311" d="M331.103 173.621C340.086 172.812 348.023 174.114 355.223 180.053C362.802 186.306 365.107 193.885 366.061 203.383C378.859 203.782 391.759 203.465 404.567 203.465L488.889 203.19L517.297 203.136C523.959 203.127 531.032 202.66 537.606 203.841C545.151 205.197 551.966 208.853 557.605 213.998C563.515 219.391 568.207 226.918 569.406 234.91C570.307 240.916 569.956 247.175 569.943 253.232L569.965 276.688L569.716 364.362L569.864 591.469L569.81 689.062C569.835 703.79 569.195 718.763 569.776 733.462C575.414 714.659 579.257 695.175 585.521 676.577C597.572 671.847 609.784 667.46 621.914 662.934C628.455 660.493 635.39 657.262 642.17 655.634C646.774 654.529 718.728 654.476 721.074 655.358C722.918 658.531 723.318 663.603 724.072 667.224C733.353 663.662 747.989 656.7 757.045 654.843C763.034 653.615 785.27 654.484 792.643 654.476C808.856 654.458 825.483 653.458 841.638 654.316C845.901 667.254 848.511 681.971 851.812 695.297C854.331 705.463 856.671 715.611 859.014 725.818C859.941 729.854 861.48 733.718 862.044 737.831C861.41 739.133 860.19 739.252 858.886 739.788L859.237 740.208C871.118 741.765 883.802 741.484 895.79 741.558C902.566 770.291 912.319 798.518 918.308 827.419C906.579 832.152 894.228 835.783 882.295 840.012C874.642 842.725 861.454 848.517 854.243 849.595C846.855 850.698 838.466 849.889 830.984 849.831L787.75 849.654L347.297 849.158L207.68 849.239L164.976 849.248C156.788 849.248 148.255 849.727 140.116 848.785C132.721 847.929 124.593 843.668 119.277 838.563C112.527 832.082 107.558 822.846 106.312 813.543C105.594 808.177 106.044 802.328 106.051 796.903L106.074 765.425L105.899 658.908L105.697 351.046C105.547 316.692 106.16 282.339 105.47 247.989C105.219 235.508 107.581 224.671 116.566 215.442C121.827 210.039 129.646 205.883 137.041 204.439C143.321 203.213 150.157 203.684 156.523 203.7L183.777 203.739L304.769 203.556C305.713 197.3 307.101 191.38 310.744 186.087C315.695 178.893 322.747 175.225 331.103 173.621Z"/>
	<path fill="#F3F8FF" d="M718.058 769.674L718.599 769.56C718.465 774.192 720.522 780.036 721.48 784.635C724.03 796.888 726.109 809.218 728.554 821.489C729.628 826.879 731.909 833.106 732.12 838.53C732.185 840.189 731.578 842.068 731.172 843.671L730.958 843.768C730.204 842.896 716.928 774.574 717.145 770.299L718.058 769.674Z"/>
	<path fill="#F3F8FF" d="M783.617 677.128C784.055 677.268 785.027 677.556 785.408 677.773C785.533 677.845 786.191 678.428 786.28 678.648C788.041 682.988 789.761 694.807 790.802 700.009Q796.703 728.512 801.681 757.191L799.502 756.937C799.277 756.718 799.004 756.54 798.828 756.281C798.75 756.167 786.127 686.211 783.617 677.128Z"/>
	<path fill="#F3F8FF" d="M835.268 768.143L836.771 768.739C836.998 769.303 837.078 769.461 837.249 770.126C838.628 775.488 852.438 844.914 852.175 845.947C852.049 846.442 851.654 846.826 851.394 847.266L850.09 846.227C847.826 840.386 847.135 832.895 845.95 826.711Q842.451 808.323 838.648 789.995C837.604 784.906 836.636 779.781 835.479 774.718C835.106 773.086 834.369 771.342 834.272 769.688C834.227 768.918 834.771 768.671 835.268 768.143Z"/>
	<path fill="#F3F8FF" d="M618.679 760.007L619.213 760.217C618.614 761.443 603.414 767.887 600.887 769.249C601.285 776.177 603.248 783.381 604.564 790.207L610.507 822.676C611.346 827.287 613.111 833.284 612.919 837.914C612.873 839.027 612.423 840.157 612.035 841.19C608.688 830.231 607.026 818.563 605.023 807.307Q601.685 788.342 597.84 769.474C604.295 765.629 611.54 762.369 618.679 760.007Z"/>
	<path fill="#F3F8FF" d="M714.23 658.491L715.423 658.599C713.415 660.315 673.879 675.739 669.195 677.132C672.442 689.233 674.237 702.106 676.663 714.418C678.761 725.07 681.718 735.987 682.951 746.76C683.194 748.875 682.738 750.889 682.299 752.945L682.262 752.953C680.17 750.485 669.27 686.934 667.274 676.915C682.518 669.683 698.763 665.053 714.23 658.491Z"/>
	<path fill="#F3F8FF" d="M655.62 760.037C665.5 759.598 675.501 759.998 685.394 759.978C699.934 759.949 714.518 759.649 729.051 760.065C724.733 763.126 720.64 765.057 715.548 766.452L640.073 766.401C645.362 764.497 650.477 762.297 655.62 760.037Z"/>
	<path fill="#F3F8FF" d="M562.13 752.46C563.095 752.307 562.558 752.29 563.723 752.702C563.969 753.648 563.877 754.142 563.59 755.043C563.047 756.742 562.64 757.736 563.317 759.455C566.364 761.14 604.743 760.055 610.557 760.05C606.819 761.275 603.253 763.006 599.542 764.325C591.437 767.204 583.332 766.607 574.856 766.557Q549.184 766.631 523.513 766.419C536.272 761.457 549.332 757.338 562.13 752.46Z"/>
	<path fill="#F3F8FF" d="M333.883 183.066C337.067 182.705 339.905 183.159 342.789 184.57C346.996 186.628 350.468 190.514 351.822 195.025C353.084 199.227 352.279 203.823 350.134 207.599C347.531 212.181 343.843 214.277 338.909 215.513C335.196 215.646 332.133 215.639 328.746 213.892Q328.346 213.685 327.958 213.457Q327.57 213.229 327.194 212.981Q326.818 212.734 326.455 212.468Q326.092 212.201 325.744 211.916Q325.395 211.631 325.062 211.329Q324.728 211.027 324.411 210.707Q324.093 210.388 323.793 210.053Q323.492 209.718 323.209 209.368Q322.926 209.018 322.662 208.654Q322.397 208.289 322.152 207.912Q321.906 207.535 321.681 207.145Q321.455 206.756 321.25 206.355Q321.044 205.954 320.86 205.544Q320.675 205.133 320.512 204.714Q320.349 204.294 320.208 203.867Q320.067 203.439 319.948 203.005Q319.754 202.292 319.632 201.564Q319.51 200.835 319.462 200.098Q319.413 199.361 319.438 198.623Q319.463 197.885 319.562 197.153Q319.661 196.421 319.832 195.703Q320.003 194.984 320.245 194.286Q320.487 193.588 320.797 192.918Q321.107 192.248 321.483 191.612C324.233 186.881 328.731 184.402 333.883 183.066Z"/>
	<path fill="#F3F8FF" d="M627.073 760.089C633.421 760.033 639.761 760.286 646.105 760.503C641.256 762.989 636.233 765.166 631.277 767.43C627.124 785.649 621.335 803.456 617.011 821.614L614.886 830.42C614.164 824.09 612.746 817.703 611.649 811.417Q608.112 791.123 604.261 770.887C611.773 767.159 620.023 764.68 627.073 760.089Z"/>
	<path fill="#F3F8FF" d="M702.772 658.258C703.55 658.181 703.91 658.228 704.653 658.393C702.316 660.523 693.602 662.759 690.208 664.053C685.504 665.848 680.741 667.582 676.108 669.551C672.387 671.134 668.935 673.103 664.975 674.09C657.029 676.071 647.258 675.14 639.07 675.182L601.875 675.401C601.197 675.406 600.584 675.28 599.918 675.165C600.133 674.916 600.316 674.635 600.563 674.417C602.664 672.575 611.497 670.332 614.573 669.21C623.699 665.88 635.397 660.582 644.772 658.924C651.456 657.742 659.27 658.664 666.119 658.67Q684.447 658.567 702.772 658.258Z"/>
	<path fill="#F3F8FF" d="M795.882 657.754Q808.983 657.504 822.085 657.68C817.176 659.477 812.281 661.261 807.516 663.419C799.472 667.064 789.878 672.571 781.348 674.414C775.217 675.739 768.104 675.033 761.84 674.976Q749.545 674.846 737.25 674.93C728.172 675.014 719.083 675.191 710.01 674.834C717.205 672.571 724.29 670.546 731.376 667.891C739.57 664.82 749.384 659.876 757.815 658.314C766.105 656.778 786.462 657.835 795.882 657.754Z"/>
	<path fill="#F3F8FF" d="M719.079 660.551C720.424 661.948 720.611 666.099 720.888 668.026C714.317 670.495 707.601 672.544 701.147 675.324C699.766 686.859 696.141 698.808 693.205 710.057C690.585 720.099 688.228 730.374 685.007 740.23L683.116 731.134Q677.912 705.245 673.086 679.283C680.318 676.289 687.474 673.056 694.757 670.2C702.868 667.019 711.179 664.238 719.079 660.551Z"/>
	<path fill="#F3F8FF" d="M854.865 743.203C864.327 742.988 874.085 743.941 883.565 744.278C871.955 748.212 846.844 755.536 837.274 761.804C835.717 762.823 834.768 764.161 833.756 765.693C819.05 765.545 804.292 765.991 789.578 766.046C776.072 766.098 762.396 765.69 748.914 766.418C744.238 783.308 741.13 800.816 737.072 817.892C736.057 822.148 735.193 826.523 733.593 830.602C728.919 810.903 725.835 790.581 721.974 770.68C728.97 767.389 736.764 762.488 744.203 760.56C748.474 759.453 753.499 759.899 757.887 759.91L784.71 760.065C790.946 760.132 797.742 760.737 803.907 759.696C809.311 758.783 814.499 756.577 819.65 754.758L841.694 747.059C845.939 745.59 850.399 743.774 854.865 743.203Z"/>
	<path fill="#F3F8FF" d="M838.638 658.374L839.168 658.566C840.721 660.237 856.064 727.049 858.657 737.545C851.147 739.996 843.797 742.899 836.331 745.479C827.452 748.547 818.492 751.339 809.75 754.795L804.837 756.413C800.591 730.431 795.049 704.553 789.668 678.788C799.682 674.957 809.51 670.635 819.409 666.52C825.833 663.849 832.438 661.544 838.638 658.374Z"/>
	<path fill="#F3F8FF" d="M893.491 747.228C896.606 751.888 912.641 817.309 914.277 825.693Q886.628 835.004 859.132 844.757L855.36 845.972C851.534 819.709 843.892 793.933 840.121 767.639C851.169 764.012 861.939 759.549 872.802 755.411C879.65 752.802 887.03 750.653 893.491 747.228Z"/>
	<path fill="#F3F8FF" d="M640.371 678.25C648.228 678.191 656.11 678.013 663.961 678.355C666.939 686.542 667.344 696.143 668.95 704.736L679.187 756.789Q642.657 756.379 606.125 756.715C592.915 756.783 579.559 757.23 566.368 756.658C573.004 730.564 582.318 704.911 587.789 678.521C605.297 678.095 622.857 678.306 640.371 678.25Z"/>
	<path fill="#F3F8FF" d="M708.078 678.279C732.168 677.111 756.715 678.035 780.855 678.062C783.678 691.077 785.922 704.238 788.473 717.31C791.038 730.451 793.989 743.681 795.782 756.949C787.778 756.751 779.757 756.813 771.75 756.775L685.029 756.832C687.954 740.768 692.765 725.005 696.829 709.199C699.393 699.228 701.21 688.793 704.517 679.059C705.61 678.161 706.698 678.373 708.078 678.279Z"/>
	<path fill="#F3F8FF" d="M515.067 769.449Q555.014 770.006 594.964 769.843C596.194 778.499 598.116 787.102 599.725 795.697Q604.302 821.269 609.722 846.676L588.75 846.565L494.126 846.856C503.237 821.981 508.917 795.208 515.067 769.449Z"/>
	<path fill="#F3F8FF" d="M634.133 769.659C646.935 769.298 659.806 769.503 672.617 769.509C686.38 769.517 700.182 769.35 713.939 769.762C715.416 781.464 717.957 792.859 720.201 804.42Q724.285 825.547 727.921 846.756L708.25 846.627L614.142 846.671C620.074 820.854 627.811 795.395 634.133 769.659Z"/>
	<path fill="#F3F8FF" d="M751.231 769.18C777.833 768.466 804.597 768.998 831.217 768.894C832.181 778.909 835.183 789.389 837.264 799.282Q842.145 822.92 846.592 846.644L827.456 846.63Q780.417 846.476 733.378 846.824C739.933 821.176 746.394 795.207 751.231 769.18Z"/>
	<path fill="#F5540F" d="M451.715 206.411C465.697 205.561 480.246 206.452 494.287 206.441C507.571 206.43 522.998 205.431 536.029 206.707C545.232 207.608 554.21 213.602 559.868 220.697C563.645 225.432 566.366 231.437 566.818 237.514C567.566 247.551 567.12 257.873 567.125 267.951L567.025 324.138L567.023 492.601L566.903 656.288L566.996 712.153C566.984 723.785 567.399 735.908 566.144 747.46L561.128 749.265Q553.825 752.19 546.425 754.86L546.383 402.461L546.347 295.508L546.355 263.894C546.369 258.033 546.8 251.765 546.201 245.947C545.708 241.164 543.666 236.789 540.223 233.42C537.706 230.957 534.422 228.849 530.991 227.95C523.942 226.102 514.99 227.076 507.724 227.075Q489.742 227.124 471.76 226.965C466.963 216.538 461.969 211.535 451.715 206.411Z"/>
	<path fill="#F5540F" d="M217.353 206.771C218.837 206.692 220.397 206.426 221.83 206.844C221.769 207.079 215.934 210.519 215.11 211.115C209.086 215.472 204.974 221.123 201.401 227.549Q181.636 227.275 161.87 227.22C155.304 227.182 147.767 226.386 141.343 227.495C138.8 227.934 136.705 229.09 134.795 230.813C130.502 234.684 128.708 238.968 128.518 244.674C128.108 257.03 128.587 269.521 128.666 281.892L128.875 347.748L128.971 580.576L129.043 735.875L129.022 780.229C128.967 788.368 128.295 796.907 129.015 804.988C129.497 810.402 131.469 815.04 135.237 818.986C138.546 822.451 143.014 825.585 147.826 826.304C158.568 827.907 172.174 826.906 183.167 826.921L253.061 826.952L497.092 826.937C495.463 833.42 493.153 839.842 491.134 846.219L482.125 846.109L245.867 846.306L177.742 846.309C165.83 846.318 153.048 847.3 141.263 845.795C135.576 845.068 129.066 841.991 124.581 838.429C124.385 838.273 124.193 838.111 123.997 837.955C122.998 837.161 121.997 836.381 121.073 835.498C112.759 827.558 109.388 817.903 109.1 806.619C108.737 792.442 109.101 778.171 109.104 763.986L109.046 683.628L109.014 438.384L108.763 304.504L108.604 262.462C108.575 254.917 108.091 247.014 108.794 239.501C109.493 232.02 112.982 224.155 118.182 218.729C122.677 214.038 128.963 209.874 135.305 208.268C145.597 205.661 157.983 206.976 168.526 207.003Q192.941 207.239 217.353 206.771Z"/>
	<path fill="#F3F8FF" d="M144.217 230.247L145.186 230.216C165.041 229.618 185.023 230.293 204.899 230.157L390.599 230.028Q437.401 229.771 484.201 230.219L513.243 230.171C518.17 230.16 523.433 229.838 528.326 230.362C531.912 230.746 534.914 232.564 537.45 235.043C540.681 238.202 542.468 241.978 542.845 246.472C543.316 252.081 543.059 257.877 543.066 263.508L543.127 293.943L543.188 409.99L543.467 755.748Q527.809 761.025 512.348 766.856C509.63 777.12 507.258 787.51 504.688 797.816C502.098 806.394 500.511 815.132 497.374 823.568C461.465 823.998 425.503 823.595 389.589 823.603L261.886 823.841Q226.103 823.675 190.319 823.881C177.558 823.913 164.41 824.556 151.693 823.71C148.098 823.471 144.539 822.469 141.535 820.431C136.846 817.249 133.142 812.382 132.308 806.681C131.069 798.209 131.959 788.805 131.933 780.22Q131.767 753.259 131.874 726.3L131.869 540.886L131.639 334.532L131.476 272.203C131.456 262.492 130.473 251.127 131.757 241.629C132.082 239.222 132.913 237.108 134.423 235.18C136.934 231.976 140.294 230.678 144.217 230.247Z"/>
	<path fill="#1C0311" d="M225.668 443.178L227.254 445.199L227.14 446.021C218.114 457.3 209.958 472.681 200.542 482.738C195.662 477.52 190.631 471.917 186.649 465.969C187.289 464.784 187.357 464.997 188.535 464.529C192.859 468.463 196.315 473.815 200.343 478.139C204.251 473.487 207.587 468.145 211.092 463.173Q218.267 453.093 225.668 443.178Z"/>
	<path fill="#1C0311" d="M226.771 326.811C227.323 328.291 227.551 328.52 226.901 330.016C226.799 330.25 226.662 330.466 226.543 330.691Q218.738 340.687 211.76 351.276C208.328 356.398 205.037 361.994 200.917 366.586C199.854 365.78 198.905 364.861 197.98 363.902C195.013 360.826 185.949 350.872 186.017 347.108C186.349 347.118 186.687 347.069 187.012 347.137C189.92 347.749 198.174 359.735 200.609 362.455C204.368 356.897 222.469 328.547 226.771 326.811Z"/>
	<path fill="#1C0311" d="M225.523 679.886C226.376 680.731 227.373 681.305 227.277 682.64C227.264 682.823 227.173 682.992 227.121 683.169C222.104 689.91 217.321 696.755 212.605 703.709C209.255 708.649 205.964 714.037 202.101 718.568C201.244 719.573 200.737 719.717 199.465 719.728C197.062 718.228 188.73 706.767 187.814 703.854C187.475 702.774 187.392 702.704 187.95 701.679L188.962 701.712C190.93 702.701 197.981 713.616 199.968 716.106C203.846 711.743 207.063 706.426 210.344 701.608Q217.77 690.633 225.523 679.886Z"/>
	<path fill="#1C0311" d="M224.858 561.021C225.67 562.097 226.604 563.01 226.565 564.432C222.501 570.111 203.023 599.018 199.879 600.66C197.756 600.069 189.685 589.369 187.944 586.926C187.059 585.684 186.575 585.292 186.84 583.795L187.559 583.419C191.84 585.025 196.824 593.325 199.668 596.968C207.852 584.832 216.686 573.151 224.858 561.021Z"/>
	<path fill="#F5540F" d="M262.162 483.118C308.017 482.245 354.031 482.994 399.901 483.003L444.813 482.952C451.488 482.938 458.805 482.244 465.406 482.998C467.182 483.201 469.055 483.682 470.039 485.344C470.639 486.357 470.661 487.549 470.409 488.665C470 490.482 468.928 491.166 467.479 492.099C419.368 491.385 371.151 491.981 323.03 492.021L282.493 492.091C276.233 492.107 269.59 492.645 263.37 492.151C261.642 492.015 260.282 491.713 259.222 490.184C258.485 489.121 258.213 487.82 258.534 486.56C259.027 484.62 260.522 483.905 262.162 483.118Z"/>
	<path fill="#F5540F" d="M285.237 365.755L404.517 365.567L445.707 365.614C451.897 365.631 458.173 365.324 464.348 365.598C465.892 365.667 467.627 365.747 468.921 366.698C470.19 367.63 470.947 369.318 470.846 370.888C470.788 371.805 470.525 372.428 469.91 373.075C466.645 376.514 447.887 374.871 442.875 374.794L318.994 374.582L283.248 374.633C277.238 374.647 271.091 374.921 265.099 374.569C263.411 374.47 261.867 374.31 260.398 373.408C259.86 372.579 259.43 371.873 259.377 370.867C259.316 369.721 259.388 368.609 260.265 367.784C263.917 364.351 280.004 365.721 285.237 365.755Z"/>
	<path fill="#F5540F" d="M261.642 601.538C305.899 600.86 350.273 601.305 394.544 601.341L439.359 601.353C447.875 601.321 456.628 600.832 465.12 601.35C467.171 601.475 468.377 601.744 469.98 603.056C470.406 603.848 470.753 604.437 470.685 605.376C470.532 607.498 469.292 608.929 467.897 610.399C454.646 610.998 441.21 610.539 427.941 610.523L356.893 610.545L295.146 610.586C285.083 610.591 274.652 611.152 264.621 610.54C263.171 610.452 261.861 610.206 260.698 609.247C259.779 608.489 259.303 607.366 259.3 606.187C259.293 604.072 260.226 602.927 261.642 601.538Z"/>
	<path fill="#F5540F" d="M262.206 717.656L403.119 717.701L448.526 717.581C454.336 717.573 461.809 716.703 467.454 717.811C468.647 718.045 469.841 719.104 470.342 720.189C470.896 721.389 470.812 722.78 470.337 723.987C469.71 725.582 468.746 726.179 467.298 726.949C426.437 727.676 385.397 727.026 344.525 726.905L292.709 726.817C283.084 726.831 273.373 727.118 263.757 726.838C262.051 726.789 260.506 726.62 259.339 725.224C258.592 724.331 258.567 723.122 258.755 722.023C259.108 719.965 260.596 718.777 262.206 717.656Z"/>
</svg>
