<?xml version="1.0" encoding="UTF-8" standalone="no" ?>
<!DOCTYPE svg PUBLIC "-//W3C//DTD SVG 1.1//EN" "http://www.w3.org/Graphics/SVG/1.1/DTD/svg11.dtd">
<svg xmlns="http://www.w3.org/2000/svg" xmlns:xlink="http://www.w3.org/1999/xlink" version="1.1" width="1080" height="1080" viewBox="0 0 1080 1080" xml:space="preserve">
<desc>Created with Fabric.js 5.2.4</desc>
<defs>
</defs>
<rect x="0" y="0" width="100%" height="100%" fill="transparent"></rect>
<g transform="matrix(1 0 0 1 540 540)" id="33919d11-5f59-43ea-9533-ae0446a135e2"  >
<rect style="stroke: none; stroke-width: 1; stroke-dasharray: none; stroke-linecap: butt; stroke-dashoffset: 0; stroke-linejoin: miter; stroke-miterlimit: 4; fill: rgb(255,255,255); fill-rule: nonzero; opacity: 1; visibility: hidden;" vector-effect="non-scaling-stroke"  x="-540" y="-540" rx="0" ry="0" width="1080" height="1080" />
</g>
<g transform="matrix(1 0 0 1 540 540)" id="c28ddf61-c678-422c-a505-b3c7b30dafff"  >
</g>
<g transform="matrix(1 0 0 1 540 540)"  >
<g style="" vector-effect="non-scaling-stroke"   >
		<g transform="matrix(1.38 0 0 1.38 0 0)"  >
<path style="stroke: none; stroke-width: 1; stroke-dasharray: none; stroke-linecap: butt; stroke-dashoffset: 0; stroke-linejoin: miter; stroke-miterlimit: 4; fill: rgb(248,247,254); fill-rule: nonzero; opacity: 1;" vector-effect="non-scaling-stroke"  transform=" translate(-512, -512)" d="M 0 0 L 1024 0 L 1024 1024 L 0 1024 L 0 0 Z" stroke-linecap="round" />
</g>
		<g transform="matrix(1.38 0 0 1.38 -68.39 -188.12)"  >
<path style="stroke: none; stroke-width: 1; stroke-dasharray: none; stroke-linecap: butt; stroke-dashoffset: 0; stroke-linejoin: miter; stroke-miterlimit: 4; fill: rgb(8,7,23); fill-rule: nonzero; opacity: 1;" vector-effect="non-scaling-stroke"  transform=" translate(-462.61, -376.15)" d="M 308.756 117.047 L 308.892 77.8333 C 308.91 72.0149 308.293 65.5392 309.011 59.8022 C 309.286 57.6088 309.799 55.8342 311.269 54.1664 L 312.181 54.0563 C 314.222 56.042 314.551 59.042 314.606 61.7734 C 314.977 80.1666 314.492 98.6783 314.468 117.081 L 399.853 117.24 C 415.898 117.248 432.052 116.714 448.079 117.388 C 457.136 98.5682 468.885 85.2376 489.186 78.2201 Q 490.779 77.6812 492.397 77.2206 Q 494.015 76.7599 495.653 76.3785 Q 497.292 75.9971 498.946 75.6959 Q 500.601 75.3947 502.269 75.1744 Q 503.936 74.9541 505.613 74.8152 Q 507.289 74.6763 508.97 74.6191 Q 510.651 74.562 512.333 74.5867 Q 514.015 74.6114 515.694 74.718 Q 517.372 74.8245 519.044 75.0126 Q 520.715 75.2008 522.376 75.47 Q 524.036 75.7393 525.682 76.089 Q 527.327 76.4388 528.953 76.8681 Q 530.58 77.2975 532.183 77.8056 Q 533.787 78.3136 535.364 78.8991 Q 536.94 79.4846 538.487 80.1461 Q 540.033 80.8076 541.546 81.5436 C 557.424 89.4283 570.486 103.778 575.991 120.712 C 581.216 136.782 579.537 153.504 571.855 168.487 C 567.501 176.979 561.792 184.522 558.479 193.59 C 553.738 206.571 555.644 248.918 555.809 264.865 C 576.076 267.307 596.335 269.33 616.338 273.548 C 668.335 284.512 722.351 309.33 755.819 351.997 C 766.948 366.186 775.897 382.846 779.781 400.555 C 782.822 414.417 781.515 429.692 781.464 443.825 C 781.386 465.509 781.022 487.234 781.386 508.913 C 790.491 508.928 798 510.663 804.595 517.388 Q 805.333 518.143 806.017 518.947 Q 806.702 519.751 807.331 520.599 Q 807.96 521.447 808.53 522.336 Q 809.099 523.224 809.608 524.149 Q 810.116 525.075 810.561 526.032 Q 811.006 526.99 811.384 527.975 Q 811.763 528.961 812.075 529.97 Q 812.386 530.978 812.628 532.006 C 814.901 541.547 813.506 554.276 813.46 564.141 C 813.405 575.567 813.672 587.019 813.458 598.441 C 813.416 600.643 813.36 602.862 813.19 605.058 C 814.697 606.836 816.154 608.558 816.987 610.771 C 819.581 617.659 817.785 628.268 817.861 635.709 L 818.4 635.758 C 827.633 636.513 841.376 633.142 848.042 641.038 C 850.809 644.317 852.022 648.747 851.495 652.988 C 851.009 656.899 849.12 660.46 845.956 662.845 Q 845.113 663.471 844.187 663.966 Q 843.26 664.46 842.271 664.812 Q 841.281 665.163 840.251 665.364 Q 839.22 665.565 838.171 665.611 C 831.147 665.624 824.035 665.419 817.023 665.786 C 817.059 674.233 819.153 687.995 812.693 694.406 Q 812.236 694.869 811.735 695.283 Q 811.233 695.697 810.693 696.059 Q 810.152 696.421 809.578 696.726 Q 809.004 697.032 808.403 697.278 Q 807.801 697.525 807.177 697.71 Q 806.554 697.895 805.915 698.016 Q 805.276 698.137 804.628 698.193 Q 803.98 698.25 803.33 698.241 C 799.851 698.188 796.54 696.83 794.159 694.273 C 788.25 687.924 790.121 673.934 790.196 665.945 C 781.366 666.244 775.34 666.141 768.547 672.628 C 768.277 660.158 768.716 647.601 768.826 635.124 C 768.875 629.604 769.535 623.26 768.43 617.863 C 767.941 615.471 766.809 613.178 765.048 611.466 Q 764.497 610.925 763.871 610.472 Q 763.246 610.019 762.56 609.664 Q 761.875 609.309 761.144 609.06 Q 760.413 608.811 759.653 608.673 C 753.678 607.55 747.104 608.101 741.023 608.136 L 717.043 608.154 C 716.291 567.156 716.989 526.012 716.971 484.999 C 716.964 468.057 718.338 435.691 714.645 420.12 C 711.682 407.627 703.592 394.911 695.235 385.336 C 662.111 347.387 604.286 329.256 555.458 325.768 C 555.368 331.576 556.662 363.355 554.562 366.384 C 553.249 368.279 549.038 369.024 546.953 369.258 C 540.657 369.963 533.798 369.508 527.445 369.51 L 490.064 369.499 L 485.889 369.539 C 482.041 369.643 472.946 370.794 470.111 367.871 C 466.454 364.1 468.068 332.994 468.105 326.067 C 419.437 329.313 361.48 347.527 328.436 385.15 C 318.893 396.015 311.196 409.506 308.191 423.753 C 306.234 433.033 306.754 442.709 306.81 452.139 L 306.933 482.653 L 306.999 608.094 C 296.194 608.041 273.668 606.902 263.877 608.77 C 261.659 609.193 258.963 610.02 257.324 611.666 C 255.932 613.062 255.599 615.166 255.387 617.045 C 254.718 622.979 255.353 629.29 255.33 635.264 C 255.282 647.554 254.842 659.947 255.423 672.226 Q 255.512 674.105 255.671 675.979 L 255.157 676.172 C 254.673 675.911 254.461 675.821 254.045 675.523 C 250.9 673.27 250.084 668.462 249.461 664.9 L 233.49 665.104 C 232.842 674.025 235.985 686.518 229.375 693.629 Q 228.947 694.098 228.471 694.52 Q 227.996 694.942 227.479 695.311 Q 226.962 695.681 226.409 695.993 Q 225.855 696.306 225.273 696.559 Q 224.69 696.812 224.083 697.002 Q 223.477 697.192 222.854 697.317 Q 222.231 697.442 221.598 697.501 Q 220.965 697.56 220.33 697.552 Q 219.693 697.541 219.061 697.466 Q 218.428 697.392 217.807 697.254 Q 217.185 697.116 216.58 696.916 Q 215.976 696.716 215.394 696.456 Q 214.813 696.197 214.26 695.88 Q 213.708 695.563 213.19 695.192 Q 212.672 694.822 212.194 694.401 Q 211.716 693.98 211.283 693.513 C 205.353 687.245 207.537 673.055 207.608 664.917 L 199.435 664.975 C 192.024 665.16 182.903 666.534 177.002 661.031 Q 176.487 660.548 176.024 660.016 Q 175.56 659.483 175.154 658.905 Q 174.748 658.328 174.402 657.712 Q 174.057 657.096 173.777 656.449 Q 173.496 655.801 173.283 655.128 Q 173.07 654.454 172.927 653.763 Q 172.784 653.072 172.712 652.369 Q 172.641 651.667 172.641 650.961 C 172.665 647.128 174.444 643.532 177.254 640.971 C 183.352 635.411 191.95 636.873 199.534 637.061 C 199.547 629.984 197.993 620.07 200.795 613.591 C 202.564 609.502 205.761 607.407 209.794 605.87 C 209.055 592.917 209.598 579.668 209.59 566.684 C 209.584 556.595 208.338 544.953 210.302 535.092 Q 210.505 534.026 210.777 532.976 Q 211.05 531.925 211.392 530.895 Q 211.734 529.865 212.143 528.86 Q 212.553 527.855 213.028 526.88 Q 213.503 525.904 214.041 524.962 Q 214.58 524.02 215.18 523.115 Q 215.78 522.211 216.438 521.349 Q 217.097 520.486 217.811 519.669 C 224.281 512.354 232.074 508.863 241.688 507.923 L 241.939 447.502 C 241.967 436.695 241.313 425.432 242.267 414.68 C 245.026 383.581 261.16 358.143 282.886 336.703 C 323.637 296.489 382.969 275.928 438.598 267.921 C 448.397 266.511 458.235 266.022 468.087 265.188 L 468.035 205.808 C 452.112 205.107 436.052 205.496 420.109 205.473 Q 367.269 205.374 314.429 205.811 L 314.427 249.463 C 314.423 256.694 315.516 267.305 313.735 274.243 C 312.385 275.044 311.039 275.145 309.501 275.198 C 302.033 275.455 294.429 275.086 286.943 275.085 L 235.117 275.113 L 73.6116 275.398 C 74.5634 273.483 75.4678 271.52 76.5329 269.666 C 153.908 268.811 231.367 269.524 308.753 269.519 L 308.874 205.892 L 175.551 205.62 Q 157.649 205.607 139.747 205.776 C 133.97 205.832 127.872 206.318 122.127 205.97 C 121.108 205.908 120.296 205.631 119.521 204.94 C 118.923 204.409 119.009 204.021 118.871 203.283 C 119.523 201.964 120.091 201.249 121.527 200.753 C 125.923 199.233 194.418 200.176 204.845 200.259 L 204.88 144.754 C 204.868 137.941 205.852 129.194 204.645 122.669 L 202.345 121.423 C 202.082 120.031 202.301 119.686 202.799 118.335 C 203.588 117.603 204.21 117.201 205.305 117.074 C 208.587 116.691 212.309 117.027 215.639 117.05 L 237.218 117.162 L 308.756 117.047 Z" stroke-linecap="round" />
</g>
		<g transform="matrix(1.38 0 0 1.38 -425.88 151.66)"  >
<path style="stroke: none; stroke-width: 1; stroke-dasharray: none; stroke-linecap: butt; stroke-dashoffset: 0; stroke-linejoin: miter; stroke-miterlimit: 4; fill: rgb(255,255,255); fill-rule: nonzero; opacity: 1;" vector-effect="non-scaling-stroke"  transform=" translate(-204.45, -621.52)" d="M 199.534 637.061 C 199.547 629.984 197.993 620.07 200.795 613.591 C 202.564 609.502 205.761 607.407 209.794 605.87 C 206.911 616.336 207.452 626.44 207.528 637.174 C 204.868 637.153 202.19 637.198 199.534 637.061 Z" stroke-linecap="round" />
</g>
		<g transform="matrix(1.38 0 0 1.38 -374.47 156.71)"  >
<path style="stroke: none; stroke-width: 1; stroke-dasharray: none; stroke-linecap: butt; stroke-dashoffset: 0; stroke-linejoin: miter; stroke-miterlimit: 4; fill: rgb(255,255,255); fill-rule: nonzero; opacity: 1;" vector-effect="non-scaling-stroke"  transform=" translate(-241.58, -625.17)" d="M 241.518 612.998 L 241.548 625.102 C 244.094 626.867 246.764 628.046 249.59 629.282 L 249.635 637.198 L 233.547 637.336 Q 233.673 625.194 233.528 613.052 C 236.184 613.207 238.859 613.065 241.518 612.998 Z" stroke-linecap="round" />
</g>
		<g transform="matrix(1.38 0 0 1.38 -403.69 191.51)"  >
<path style="stroke: none; stroke-width: 1; stroke-dasharray: none; stroke-linecap: butt; stroke-dashoffset: 0; stroke-linejoin: miter; stroke-miterlimit: 4; fill: rgb(248,247,254); fill-rule: nonzero; opacity: 1;" vector-effect="non-scaling-stroke"  transform=" translate(-220.48, -650.3)" d="M 219.073 609.055 C 220.168 609.037 221.307 609 222.377 609.258 C 224.178 609.692 225.86 610.746 226.749 612.412 C 228.184 615.101 228.764 682.678 227.19 686.96 C 226.332 689.295 224.21 690.491 222.116 691.555 C 220.962 691.554 219.747 691.585 218.617 691.324 C 216.767 690.898 215.108 689.789 214.181 688.109 C 213.196 686.325 213.281 683.573 213.191 681.563 C 212.841 673.752 212.41 616.75 213.732 613.317 C 214.638 610.965 216.937 609.986 219.073 609.055 Z" stroke-linecap="round" />
</g>
		<g transform="matrix(1.38 0 0 1.38 404.12 191.26)"  >
<path style="stroke: none; stroke-width: 1; stroke-dasharray: none; stroke-linecap: butt; stroke-dashoffset: 0; stroke-linejoin: miter; stroke-miterlimit: 4; fill: rgb(248,247,254); fill-rule: nonzero; opacity: 1;" vector-effect="non-scaling-stroke"  transform=" translate(-803.83, -650.12)" d="M 802 608.504 C 803.388 608.371 804.873 608.288 806.242 608.608 C 808.071 609.035 809.708 610.274 810.585 611.94 C 811.175 613.061 811.232 614.264 811.282 615.504 C 811.558 622.318 811.327 685.916 810.495 687.903 C 809.602 690.035 808.128 690.739 806.196 691.74 Q 805.127 691.824 804.054 691.848 C 802.083 691.875 799.985 691.432 798.572 689.957 C 797.445 688.779 796.998 687.34 796.804 685.756 C 795.785 677.442 796.576 668.176 796.541 659.755 C 796.475 644.392 795.958 628.886 796.555 613.539 C 798.088 611.311 799.708 609.925 802 608.504 Z" stroke-linecap="round" />
</g>
		<g transform="matrix(1.38 0 0 1.38 -392.44 70.61)"  >
<path style="stroke: none; stroke-width: 1; stroke-dasharray: none; stroke-linecap: butt; stroke-dashoffset: 0; stroke-linejoin: miter; stroke-miterlimit: 4; fill: rgb(248,247,254); fill-rule: nonzero; opacity: 1;" vector-effect="non-scaling-stroke"  transform=" translate(-228.6, -562.99)" d="M 241.591 512.86 C 242.859 523.638 241.949 535.32 241.938 546.225 Q 242.07 579.614 241.518 612.998 C 238.859 613.065 236.184 613.207 233.528 613.052 C 232.513 610.57 231.192 608.55 229.099 606.832 C 225.023 603.487 220.273 603.341 215.297 603.818 C 215.406 588.868 215.217 573.909 215.163 558.959 C 215.137 551.607 214.488 543.633 215.551 536.354 Q 215.737 535.087 216.052 533.845 Q 216.366 532.604 216.805 531.401 Q 217.244 530.197 217.804 529.045 Q 218.363 527.893 219.037 526.804 C 224.338 518.245 232.344 515.23 241.591 512.86 Z" stroke-linecap="round" />
</g>
		<g transform="matrix(1.38 0 0 1.38 387.71 87.48)"  >
<path style="stroke: none; stroke-width: 1; stroke-dasharray: none; stroke-linecap: butt; stroke-dashoffset: 0; stroke-linejoin: miter; stroke-miterlimit: 4; fill: rgb(248,247,254); fill-rule: nonzero; opacity: 1;" vector-effect="non-scaling-stroke"  transform=" translate(-791.98, -575.18)" d="M 781.099 514.592 C 781.411 514.586 781.723 514.577 782.035 514.574 C 789.071 514.514 795.937 516.429 800.9 521.669 C 804.017 524.961 805.999 529.009 807.001 533.409 C 808.946 541.943 807.962 552.235 807.969 561.011 Q 808.088 581.67 807.815 602.327 C 802.918 602.289 798.075 603.029 794.427 606.628 C 789.917 611.077 790.039 617.025 790.069 622.875 L 790.125 635.746 L 775.861 635.779 C 775.763 631.528 775.514 627.101 776.309 622.904 C 777.654 615.808 780.666 609.502 781.012 602.178 C 781.403 593.915 781.149 585.533 781.148 577.259 C 781.147 556.38 780.738 535.466 781.099 514.592 Z" stroke-linecap="round" />
</g>
		<g transform="matrix(1.38 0 0 1.38 -239.77 -485.33)"  >
<path style="stroke: none; stroke-width: 1; stroke-dasharray: none; stroke-linecap: butt; stroke-dashoffset: 0; stroke-linejoin: miter; stroke-miterlimit: 4; fill: rgb(248,247,254); fill-rule: nonzero; opacity: 1;" vector-effect="non-scaling-stroke"  transform=" translate(-338.85, -161.53)" d="M 210.684 122.712 C 237.919 122.262 265.267 122.871 292.515 122.825 L 445.898 122.899 C 440.763 144.609 444.334 157.93 456.025 176.55 C 460.557 183.768 464.633 190.641 467.075 198.883 L 466.866 199.735 C 465.738 200.419 464.701 200.37 463.419 200.406 C 454.166 200.666 444.827 200.333 435.563 200.328 L 375.495 200.303 L 210.634 200.238 L 210.684 122.712 Z" stroke-linecap="round" />
</g>
		<g transform="matrix(1.38 0 0 1.38 -0.98 -401.32)"  >
<path style="stroke: none; stroke-width: 1; stroke-dasharray: none; stroke-linecap: butt; stroke-dashoffset: 0; stroke-linejoin: miter; stroke-miterlimit: 4; fill: rgb(248,247,254); fill-rule: nonzero; opacity: 1;" vector-effect="non-scaling-stroke"  transform=" translate(-511.29, -222.19)" d="M 503.759 80.6615 C 508.234 80.1957 512.911 80.0873 517.392 80.4676 C 533.091 81.7999 549.09 89.9722 559.152 102.133 C 568.1 112.949 573.586 127.522 573.263 141.614 C 572.674 167.29 552.757 179.642 550.135 203.518 C 548.979 214.041 549.904 229.122 549.911 240.085 L 549.864 319.986 C 549.885 334.432 550.859 349.586 549.563 363.932 C 539.5 364.342 529.325 364.034 519.25 364.035 L 473.849 364.022 C 472.846 325.641 473.722 287.081 473.793 248.687 L 473.749 217.865 C 473.707 212.079 474.05 205.905 473.075 200.198 C 469.761 180.801 452.942 167.544 449.926 148.149 C 447.536 132.773 452.198 117.33 461.404 104.944 C 471.648 91.1626 486.948 83.0733 503.759 80.6615 Z" stroke-linecap="round" />
</g>
		<g transform="matrix(1.38 0 0 1.38 -1.04 -512.75)"  >
<path style="stroke: none; stroke-width: 1; stroke-dasharray: none; stroke-linecap: butt; stroke-dashoffset: 0; stroke-linejoin: miter; stroke-miterlimit: 4; fill: rgb(8,7,23); fill-rule: nonzero; opacity: 1;" vector-effect="non-scaling-stroke"  transform=" translate(-511.25, -141.72)" d="M 508.398 106.207 C 517.251 105.673 524.9 107.239 532.213 112.45 C 539.854 117.895 545.549 125.903 547.102 135.246 Q 547.255 136.138 547.364 137.036 Q 547.472 137.935 547.535 138.838 Q 547.597 139.741 547.614 140.646 Q 547.632 141.551 547.603 142.455 Q 547.575 143.36 547.501 144.262 Q 547.426 145.164 547.307 146.061 Q 547.188 146.958 547.023 147.848 Q 546.858 148.738 546.649 149.618 Q 546.44 150.499 546.186 151.368 Q 545.933 152.237 545.636 153.092 Q 545.339 153.946 545 154.785 Q 544.66 155.624 544.279 156.445 Q 543.897 157.266 543.475 158.066 Q 543.052 158.867 542.59 159.645 Q 542.128 160.423 541.627 161.177 Q 541.126 161.93 540.588 162.658 C 534.203 171.438 525.156 175.459 514.687 177.122 C 505.317 178.122 495.805 175.682 488.383 169.792 C 481.153 164.055 476.176 154.852 475.134 145.697 Q 475.028 144.815 474.966 143.928 Q 474.904 143.041 474.887 142.153 Q 474.869 141.264 474.897 140.376 Q 474.924 139.488 474.996 138.602 Q 475.068 137.716 475.185 136.835 Q 475.302 135.954 475.462 135.08 Q 475.623 134.205 475.827 133.34 Q 476.032 132.475 476.279 131.622 Q 476.527 130.768 476.817 129.928 Q 477.107 129.088 477.439 128.264 Q 477.771 127.439 478.144 126.633 Q 478.518 125.826 478.931 125.039 Q 479.344 124.252 479.796 123.487 Q 480.248 122.722 480.738 121.981 Q 481.228 121.239 481.755 120.523 Q 482.282 119.807 482.844 119.119 C 489.172 111.412 498.594 107.116 508.398 106.207 Z" stroke-linecap="round" />
</g>
		<g transform="matrix(1.38 0 0 1.38 -0.85 -512.79)"  >
<path style="stroke: none; stroke-width: 1; stroke-dasharray: none; stroke-linecap: butt; stroke-dashoffset: 0; stroke-linejoin: miter; stroke-miterlimit: 4; fill: rgb(248,247,254); fill-rule: nonzero; opacity: 1;" vector-effect="non-scaling-stroke"  transform=" translate(-511.38, -141.69)" d="M 505.793 112.152 C 512.802 111.368 519.611 112.059 525.963 115.277 C 532.814 118.749 538.387 125.202 540.703 132.552 Q 540.928 133.253 541.118 133.965 Q 541.307 134.677 541.46 135.397 Q 541.613 136.118 541.73 136.845 Q 541.847 137.572 541.926 138.304 Q 542.006 139.036 542.048 139.772 Q 542.091 140.507 542.096 141.243 Q 542.102 141.98 542.07 142.716 Q 542.038 143.452 541.969 144.185 Q 541.9 144.918 541.794 145.647 Q 541.688 146.376 541.545 147.098 Q 541.402 147.821 541.223 148.535 Q 541.044 149.25 540.829 149.954 Q 540.614 150.659 540.364 151.351 Q 540.114 152.044 539.829 152.723 Q 539.544 153.402 539.225 154.066 Q 538.906 154.73 538.554 155.377 C 534.028 163.531 526.327 168.591 517.471 170.955 C 510.256 172.305 502.523 171.279 496.058 167.75 C 488.904 163.845 483.852 157.055 481.682 149.249 C 479.555 141.593 480.849 133.037 484.929 126.223 C 489.763 118.15 496.994 114.384 505.793 112.152 Z" stroke-linecap="round" />
</g>
		<g transform="matrix(1.38 0 0 1.38 0.4 371.48)"  >
<path style="stroke: none; stroke-width: 1; stroke-dasharray: none; stroke-linecap: butt; stroke-dashoffset: 0; stroke-linejoin: miter; stroke-miterlimit: 4; fill: rgb(8,7,23); fill-rule: nonzero; opacity: 1;" vector-effect="non-scaling-stroke"  transform=" translate(-512.29, -780.26)" d="M 199.435 664.975 L 207.608 664.917 C 207.537 673.055 205.353 687.245 211.283 693.513 Q 211.716 693.98 212.194 694.401 Q 212.672 694.822 213.19 695.193 Q 213.708 695.563 214.26 695.88 Q 214.813 696.197 215.394 696.456 Q 215.976 696.716 216.58 696.916 Q 217.185 697.116 217.807 697.254 Q 218.428 697.392 219.061 697.467 Q 219.693 697.541 220.33 697.552 Q 220.965 697.56 221.598 697.501 Q 222.231 697.442 222.854 697.317 Q 223.477 697.192 224.083 697.002 Q 224.69 696.812 225.273 696.559 Q 225.855 696.306 226.409 695.993 Q 226.962 695.681 227.479 695.311 Q 227.996 694.942 228.471 694.52 Q 228.947 694.098 229.375 693.629 C 235.985 686.518 232.842 674.025 233.49 665.104 L 249.461 664.9 C 250.084 668.462 250.9 673.27 254.045 675.523 C 254.461 675.821 254.673 675.911 255.157 676.172 L 255.671 675.979 C 257.4 679.275 259.13 681.606 262.834 682.726 C 264.372 683.191 266 683.342 267.591 683.516 L 603.121 683.519 C 654.525 683.465 706.105 684.339 757.487 683.358 C 759.938 682.756 762.441 682.014 764.511 680.522 C 767.305 678.507 767.935 675.862 768.547 672.628 C 775.34 666.141 781.366 666.244 790.196 665.945 C 790.121 673.934 788.25 687.924 794.159 694.273 C 796.54 696.83 799.851 698.188 803.33 698.241 Q 803.98 698.25 804.628 698.193 Q 805.276 698.137 805.915 698.016 Q 806.554 697.895 807.177 697.71 Q 807.801 697.525 808.403 697.278 Q 809.005 697.032 809.578 696.726 Q 810.152 696.421 810.693 696.059 Q 811.233 695.697 811.735 695.283 Q 812.236 694.869 812.693 694.406 C 819.153 687.995 817.059 674.233 817.023 665.786 C 824.035 665.419 831.147 665.624 838.171 665.611 C 832.194 666.454 825.76 666.019 819.716 665.939 L 819.442 889.976 L 881.224 889.977 C 887.086 889.97 895.877 888.728 901.297 889.942 C 902.699 890.256 903.666 890.668 904.419 891.897 L 904.211 892.607 C 902.956 894.081 900.949 895.132 899.015 895.399 C 894.694 895.995 884.048 895.183 878.982 895.192 Q 852.205 895.352 825.427 895.22 L 684.782 895.279 L 134.297 895.326 C 131.005 895.343 122.865 896.22 120.456 894.244 C 120.07 892.858 120.075 892.589 120.419 891.19 C 121.193 890.391 121.86 890.029 122.98 889.878 C 129.454 889.001 137.194 889.75 143.776 889.797 C 161.924 889.925 180.528 890.859 198.628 889.708 L 199.435 664.975 Z" stroke-linecap="round" />
</g>
		<g transform="matrix(1.38 0 0 1.38 276.82 419.26)"  >
<path style="stroke: none; stroke-width: 1; stroke-dasharray: none; stroke-linecap: butt; stroke-dashoffset: 0; stroke-linejoin: miter; stroke-miterlimit: 4; fill: rgb(248,247,254); fill-rule: nonzero; opacity: 1;" vector-effect="non-scaling-stroke"  transform=" translate(-711.91, -814.76)" d="M 740.155 739.463 C 741.363 745.917 740.784 753.207 740.724 759.766 L 740.505 789.967 C 740.433 823.187 741.215 856.474 740.606 889.684 C 721.394 889.695 702.094 889.366 682.896 890.064 C 688.701 885.805 694.577 881.429 698.137 875.004 C 703.999 864.425 707.125 849.042 710.746 837.423 Q 725.739 788.53 740.155 739.463 Z" stroke-linecap="round" />
</g>
		<g transform="matrix(1.38 0 0 1.38 -277.16 411.45)"  >
<path style="stroke: none; stroke-width: 1; stroke-dasharray: none; stroke-linecap: butt; stroke-dashoffset: 0; stroke-linejoin: miter; stroke-miterlimit: 4; fill: rgb(248,247,254); fill-rule: nonzero; opacity: 1;" vector-effect="non-scaling-stroke"  transform=" translate(-311.85, -809.12)" d="M 280.485 889.68 L 280.516 785.915 L 280.462 749.306 C 280.453 742.927 280.174 736.403 280.55 730.041 C 280.593 729.306 280.803 728.744 281.137 728.098 C 285.089 739.223 287.957 750.733 291.405 762.021 L 314.684 838.391 C 318.147 849.671 321.222 865.373 327.025 875.433 C 330.859 882.08 336.791 886.441 343.342 890.147 Q 311.915 889.715 280.485 889.68 Z" stroke-linecap="round" />
</g>
		<g transform="matrix(1.38 0 0 1.38 2.14 382.47)"  >
<path style="stroke: none; stroke-width: 1; stroke-dasharray: none; stroke-linecap: butt; stroke-dashoffset: 0; stroke-linejoin: miter; stroke-miterlimit: 4; fill: rgb(248,247,254); fill-rule: nonzero; opacity: 1;" vector-effect="non-scaling-stroke"  transform=" translate(-513.54, -788.2)" d="M 514.135 724.853 C 522.797 734.119 531.157 743.701 539.879 752.896 C 556.117 770.014 575.136 785.319 574.209 811.119 C 573.564 829.068 564.719 837.699 554.324 851 Q 543.108 851.131 531.891 851.115 C 520.209 851.895 505.928 851.433 494.091 851.134 L 472.957 851.176 C 461.77 839.803 452.792 825.903 452.846 809.48 C 452.93 783.729 473.661 767.071 490.188 750.01 C 497.237 742.734 503.762 734.836 510.988 727.758 Q 512.523 726.264 514.135 724.853 Z" stroke-linecap="round" />
</g>
		<g transform="matrix(1.38 0 0 1.38 2.01 424.32)"  >
<path style="stroke: none; stroke-width: 1; stroke-dasharray: none; stroke-linecap: butt; stroke-dashoffset: 0; stroke-linejoin: miter; stroke-miterlimit: 4; fill: rgb(255,255,255); fill-rule: nonzero; opacity: 1;" vector-effect="non-scaling-stroke"  transform=" translate(-513.45, -818.42)" d="M 513.019 785.288 C 524.075 796.873 543.637 812.875 542.947 830.262 C 542.63 838.252 538.669 845.187 532.767 850.37 Q 532.334 850.748 531.891 851.115 C 520.209 851.895 505.928 851.433 494.091 851.134 C 488.515 846.148 484.395 839.788 483.982 832.101 C 483.282 819.072 492.432 809.435 500.301 800.259 Q 506.733 792.836 513.019 785.288 Z" stroke-linecap="round" />
</g>
		<g transform="matrix(1.38 0 0 1.38 383.81 368.03)"  >
<path style="stroke: none; stroke-width: 1; stroke-dasharray: none; stroke-linecap: butt; stroke-dashoffset: 0; stroke-linejoin: miter; stroke-miterlimit: 4; fill: rgb(255,255,255); fill-rule: nonzero; opacity: 1;" vector-effect="non-scaling-stroke"  transform=" translate(-789.16, -777.77)" d="M 817.023 665.786 C 824.035 665.419 831.147 665.624 838.171 665.611 C 832.194 666.454 825.76 666.019 819.716 665.939 L 819.442 889.976 C 810.152 889.353 800.541 889.723 791.222 889.719 L 740.606 889.684 C 741.215 856.474 740.433 823.187 740.505 789.967 L 740.724 759.766 C 740.784 753.207 741.363 745.917 740.155 739.463 C 741.826 732.273 744.603 725.089 746.731 718 C 750.218 706.382 753.296 694.758 757.487 683.358 C 759.938 682.756 762.441 682.014 764.511 680.522 C 767.305 678.507 767.935 675.862 768.547 672.628 C 775.34 666.141 781.366 666.244 790.196 665.945 C 790.121 673.934 788.25 687.924 794.159 694.273 C 796.54 696.83 799.851 698.188 803.33 698.241 Q 803.98 698.25 804.628 698.193 Q 805.276 698.137 805.915 698.016 Q 806.554 697.895 807.177 697.71 Q 807.801 697.525 808.403 697.278 Q 809.005 697.032 809.578 696.726 Q 810.152 696.421 810.693 696.059 Q 811.233 695.697 811.735 695.283 Q 812.236 694.869 812.693 694.406 C 819.153 687.995 817.059 674.233 817.023 665.786 Z" stroke-linecap="round" />
</g>
		<g transform="matrix(1.38 0 0 1.38 -376.82 367.39)"  >
<path style="stroke: none; stroke-width: 1; stroke-dasharray: none; stroke-linecap: butt; stroke-dashoffset: 0; stroke-linejoin: miter; stroke-miterlimit: 4; fill: rgb(255,255,255); fill-rule: nonzero; opacity: 1;" vector-effect="non-scaling-stroke"  transform=" translate(-239.88, -777.3)" d="M 199.435 664.975 L 207.608 664.917 C 207.537 673.055 205.353 687.245 211.283 693.513 Q 211.716 693.98 212.194 694.401 Q 212.672 694.822 213.19 695.193 Q 213.708 695.563 214.26 695.88 Q 214.813 696.197 215.394 696.456 Q 215.976 696.716 216.58 696.916 Q 217.185 697.116 217.807 697.254 Q 218.428 697.392 219.061 697.467 Q 219.693 697.541 220.33 697.552 Q 220.965 697.56 221.598 697.501 Q 222.231 697.442 222.854 697.317 Q 223.477 697.192 224.083 697.002 Q 224.69 696.812 225.273 696.559 Q 225.855 696.306 226.409 695.993 Q 226.962 695.681 227.479 695.311 Q 227.996 694.942 228.471 694.52 Q 228.947 694.098 229.375 693.629 C 235.985 686.518 232.842 674.025 233.49 665.104 L 249.461 664.9 C 250.084 668.462 250.9 673.27 254.045 675.523 C 254.461 675.821 254.673 675.911 255.157 676.172 L 255.671 675.979 C 257.4 679.275 259.13 681.606 262.834 682.726 C 264.372 683.191 266 683.342 267.591 683.516 C 271.139 692.762 273.526 702.546 276.245 712.068 C 277.777 717.435 279.683 722.722 281.137 728.098 C 280.803 728.744 280.593 729.306 280.55 730.041 C 280.174 736.403 280.453 742.927 280.462 749.306 L 280.516 785.915 L 280.485 889.68 C 253.289 889.63 225.79 888.742 198.628 889.708 L 199.435 664.975 Z" stroke-linecap="round" />
</g>
		<g transform="matrix(1.38 0 0 1.38 0.1 -9.97)"  >
<path style="stroke: none; stroke-width: 1; stroke-dasharray: none; stroke-linecap: butt; stroke-dashoffset: 0; stroke-linejoin: miter; stroke-miterlimit: 4; fill: rgb(248,247,254); fill-rule: nonzero; opacity: 1;" vector-effect="non-scaling-stroke"  transform=" translate(-512.07, -504.8)" d="M 555.458 325.768 C 604.286 329.256 662.111 347.387 695.235 385.336 C 703.592 394.911 711.682 407.627 714.645 420.12 C 718.338 435.691 716.964 468.057 716.971 484.999 C 716.989 526.012 716.291 567.156 717.043 608.154 L 741.023 608.136 C 747.104 608.101 753.678 607.55 759.653 608.673 Q 760.413 608.811 761.144 609.06 Q 761.875 609.309 762.56 609.664 Q 763.246 610.019 763.871 610.472 Q 764.497 610.925 765.048 611.466 C 766.809 613.178 767.941 615.471 768.43 617.863 C 769.535 623.26 768.875 629.604 768.826 635.124 C 768.716 647.601 768.277 660.158 768.547 672.628 C 767.935 675.862 767.305 678.507 764.511 680.522 C 762.441 682.014 759.938 682.756 757.487 683.358 C 706.105 684.339 654.525 683.465 603.121 683.519 L 267.591 683.516 C 266 683.342 264.372 683.191 262.834 682.726 C 259.13 681.606 257.4 679.275 255.671 675.979 Q 255.512 674.105 255.423 672.226 C 254.842 659.947 255.282 647.554 255.33 635.264 C 255.353 629.29 254.718 622.979 255.387 617.045 C 255.599 615.166 255.932 613.062 257.324 611.666 C 258.963 610.02 261.659 609.193 263.877 608.77 C 273.668 606.902 296.194 608.041 306.999 608.094 L 306.933 482.653 L 306.81 452.139 C 306.754 442.709 306.234 433.033 308.191 423.753 C 311.196 409.506 318.893 396.015 328.436 385.15 C 361.48 347.527 419.437 329.313 468.105 326.067 C 468.068 332.994 466.454 364.1 470.111 367.871 C 472.946 370.794 482.041 369.643 485.889 369.539 L 490.064 369.499 L 527.445 369.51 C 533.798 369.508 540.657 369.963 546.953 369.258 C 549.038 369.024 553.249 368.279 554.562 366.384 C 556.662 363.355 555.368 331.576 555.458 325.768 Z" stroke-linecap="round" />
</g>
		<g transform="matrix(1.38 0 0 1.38 -20.33 17.74)"  >
<path style="stroke: none; stroke-width: 1; stroke-dasharray: none; stroke-linecap: butt; stroke-dashoffset: 0; stroke-linejoin: miter; stroke-miterlimit: 4; fill: rgb(255,255,255); fill-rule: nonzero; opacity: 1;" vector-effect="non-scaling-stroke"  transform=" translate(-497.32, -524.81)" d="M 489.008 541.719 C 491.06 531.213 494.196 522.377 499.81 513.286 C 501.003 511.354 501.959 509.463 503.759 508.008 L 504.751 507.898 C 505.167 508.334 505.643 508.578 505.632 509.234 C 505.589 511.835 499.371 520.661 497.93 523.617 C 495.188 529.242 493.013 535.365 491.706 541.491 L 489.008 541.719 Z" stroke-linecap="round" />
</g>
		<g transform="matrix(1.38 0 0 1.38 -118.55 -40.49)"  >
<path style="stroke: none; stroke-width: 1; stroke-dasharray: none; stroke-linecap: butt; stroke-dashoffset: 0; stroke-linejoin: miter; stroke-miterlimit: 4; fill: rgb(255,255,255); fill-rule: nonzero; opacity: 1;" vector-effect="non-scaling-stroke"  transform=" translate(-426.39, -482.76)" d="M 408.954 558.356 C 414 544.297 422.349 532.627 429.249 519.545 C 444.117 491.356 444.03 460.962 429.86 432.541 C 427.341 427.487 416.148 411.085 416.115 407.531 L 416.784 407.158 C 424.012 410.638 434.534 433.587 437.424 441.347 C 447.042 467.174 445.895 494.174 433.43 518.934 C 426.946 531.811 418.958 543.668 412.924 556.851 C 411.611 557.377 410.307 557.939 408.954 558.356 Z" stroke-linecap="round" />
</g>
		<g transform="matrix(1.38 0 0 1.38 143.8 -56.34)"  >
<path style="stroke: none; stroke-width: 1; stroke-dasharray: none; stroke-linecap: butt; stroke-dashoffset: 0; stroke-linejoin: miter; stroke-miterlimit: 4; fill: rgb(255,255,255); fill-rule: nonzero; opacity: 1;" vector-effect="non-scaling-stroke"  transform=" translate(-615.84, -471.32)" d="M 620.691 559.755 L 620.925 559.17 C 630.954 533.511 631.455 504.815 620.13 479.491 C 616.278 470.875 611.085 462.997 606.996 454.521 C 597.346 434.518 598.18 413.224 606.027 392.776 C 607.399 389.199 608.858 385.105 611.46 382.233 L 612.619 381.848 C 613.061 382.282 613.587 382.548 613.619 383.215 C 613.708 385.015 607.904 397.653 607.015 400.425 Q 606.424 402.25 605.927 404.103 Q 605.43 405.955 605.028 407.831 Q 604.625 409.706 604.319 411.6 Q 604.013 413.493 603.803 415.4 Q 603.593 417.307 603.481 419.221 Q 603.368 421.136 603.354 423.054 Q 603.339 424.973 603.421 426.889 Q 603.504 428.805 603.684 430.715 C 605.189 446.056 612.869 458.032 619.972 471.268 C 635.322 499.871 634.937 531.194 622.935 560.787 L 620.691 559.755 Z" stroke-linecap="round" />
</g>
		<g transform="matrix(1.38 0 0 1.38 12.95 -76.69)"  >
<path style="stroke: none; stroke-width: 1; stroke-dasharray: none; stroke-linecap: butt; stroke-dashoffset: 0; stroke-linejoin: miter; stroke-miterlimit: 4; fill: rgb(255,255,255); fill-rule: nonzero; opacity: 1;" vector-effect="non-scaling-stroke"  transform=" translate(-521.35, -456.62)" d="M 485.889 369.539 L 490.064 369.499 C 487.902 392.593 496.167 413.785 510.765 431.41 C 517.049 438.997 523.993 446.061 530.091 453.795 C 549.762 478.742 559.255 506.908 556.273 538.859 Q 556.044 541.301 555.771 543.739 C 554.374 543.633 553.021 543.472 551.636 543.26 L 552.528 542.785 C 554.677 537.041 553.369 523.394 552.747 517.237 C 549.482 484.913 536.284 465.583 515.436 442.037 C 507.354 432.91 499.564 423.82 494.34 412.674 C 487.781 398.68 486.002 384.794 485.889 369.539 Z" stroke-linecap="round" />
</g>
		<g transform="matrix(1.38 0 0 1.38 -2.99 86.76)"  >
<path style="stroke: none; stroke-width: 1; stroke-dasharray: none; stroke-linecap: butt; stroke-dashoffset: 0; stroke-linejoin: miter; stroke-miterlimit: 4; fill: rgb(8,7,23); fill-rule: nonzero; opacity: 1;" vector-effect="non-scaling-stroke"  transform=" translate(-509.84, -574.65)" d="M 491.706 541.491 C 511.711 540.655 531.757 540.54 551.636 543.26 C 553.021 543.472 554.374 543.633 555.771 543.739 C 573.089 546.661 589.323 549.806 606.166 554.961 C 610.936 556.421 616.126 557.734 620.691 559.755 L 622.935 560.787 C 645.367 567.741 672.545 583.615 691.558 597.483 C 695.066 600.042 699.846 602.93 702.129 606.632 L 702.157 607.699 C 700.342 608.743 698.327 608.27 696.327 607.97 C 696.199 607.834 696.076 607.692 695.943 607.56 C 688.366 600.027 677.027 593.679 667.81 588.265 Q 663.556 585.732 659.22 583.342 Q 654.885 580.951 650.473 578.705 Q 646.061 576.459 641.577 574.359 Q 637.093 572.26 632.542 570.31 Q 627.991 568.361 623.378 566.562 Q 618.766 564.764 614.096 563.119 Q 609.426 561.474 604.705 559.984 Q 599.983 558.494 595.215 557.161 Q 590.447 555.828 585.638 554.653 Q 580.828 553.478 575.982 552.463 Q 571.136 551.448 566.26 550.593 Q 561.383 549.738 556.481 549.045 Q 551.579 548.352 546.656 547.822 Q 541.734 547.291 536.797 546.923 Q 531.859 546.556 526.913 546.351 Q 521.966 546.147 517.015 546.106 Q 511.744 546.062 506.475 546.194 Q 501.205 546.326 495.943 546.633 Q 490.681 546.94 485.432 547.422 Q 480.183 547.904 474.952 548.56 Q 469.722 549.216 464.517 550.046 Q 459.312 550.876 454.137 551.879 Q 448.962 552.881 443.823 554.056 Q 438.684 555.23 433.587 556.574 Q 428.491 557.919 423.441 559.432 Q 418.392 560.946 413.396 562.626 Q 408.4 564.307 403.463 566.153 Q 398.525 567.998 393.652 570.007 Q 388.779 572.016 383.975 574.186 Q 379.171 576.356 374.442 578.685 Q 369.713 581.014 365.064 583.498 Q 360.416 585.983 355.852 588.621 C 346.162 594.211 335.484 599.939 327.43 607.774 C 324.238 608.167 320.757 607.945 317.528 607.982 C 322.127 603.584 327.658 600.101 332.889 596.503 Q 337.265 593.447 341.749 590.552 Q 346.233 587.656 350.819 584.925 Q 355.405 582.193 360.086 579.63 Q 364.768 577.066 369.539 574.673 Q 374.31 572.28 379.165 570.062 Q 384.02 567.843 388.951 565.801 Q 393.883 563.76 398.885 561.898 Q 403.888 560.036 408.954 558.356 C 410.307 557.939 411.611 557.377 412.924 556.851 C 440.801 548.546 460.198 545.06 489.008 541.719 L 491.706 541.491 Z" stroke-linecap="round" />
</g>
		<g transform="matrix(1.38 0 0 1.38 -0.17 90.04)"  >
<path style="stroke: none; stroke-width: 1; stroke-dasharray: none; stroke-linecap: butt; stroke-dashoffset: 0; stroke-linejoin: miter; stroke-miterlimit: 4; fill: rgb(255,255,255); fill-rule: nonzero; opacity: 1;" vector-effect="non-scaling-stroke"  transform=" translate(-511.88, -577.02)" d="M 327.43 607.774 C 335.484 599.939 346.162 594.211 355.852 588.621 Q 360.416 585.983 365.064 583.498 Q 369.713 581.014 374.442 578.685 Q 379.171 576.356 383.975 574.186 Q 388.779 572.016 393.652 570.007 Q 398.525 567.998 403.463 566.153 Q 408.4 564.307 413.396 562.626 Q 418.392 560.946 423.441 559.432 Q 428.491 557.919 433.587 556.574 Q 438.684 555.23 443.823 554.056 Q 448.962 552.881 454.137 551.879 Q 459.311 550.876 464.517 550.046 Q 469.722 549.216 474.952 548.56 Q 480.183 547.904 485.432 547.422 Q 490.681 546.94 495.943 546.633 Q 501.205 546.326 506.475 546.194 Q 511.744 546.062 517.015 546.106 Q 521.966 546.147 526.913 546.351 Q 531.859 546.556 536.797 546.923 Q 541.734 547.291 546.656 547.822 Q 551.579 548.352 556.481 549.045 Q 561.383 549.738 566.26 550.593 Q 571.136 551.448 575.982 552.463 Q 580.828 553.478 585.638 554.653 Q 590.447 555.828 595.215 557.161 Q 599.983 558.494 604.705 559.984 Q 609.426 561.474 614.096 563.119 Q 618.766 564.764 623.378 566.562 Q 627.991 568.361 632.542 570.31 Q 637.093 572.26 641.577 574.359 Q 646.061 576.459 650.473 578.705 Q 654.885 580.951 659.22 583.342 Q 663.556 585.732 667.81 588.265 C 677.027 593.679 688.366 600.027 695.943 607.56 C 696.076 607.692 696.199 607.834 696.327 607.97 C 678.158 607.243 659.782 607.699 641.59 607.675 L 541.422 607.622 L 409.317 607.599 Q 368.373 607.367 327.43 607.774 Z" stroke-linecap="round" />
</g>
		<g transform="matrix(1.38 0 0 1.38 0.12 185.13)"  >
<path style="stroke: none; stroke-width: 1; stroke-dasharray: none; stroke-linecap: butt; stroke-dashoffset: 0; stroke-linejoin: miter; stroke-miterlimit: 4; fill: rgb(8,7,23); fill-rule: nonzero; opacity: 1;" vector-effect="non-scaling-stroke"  transform=" translate(-512.08, -645.69)" d="M 282.363 613.74 L 746.949 613.49 C 750.897 613.477 758.011 612.656 760.9 615.735 C 761.823 616.72 762.41 617.846 762.673 619.169 C 763.987 625.782 763.083 651.689 763.106 660.168 C 763.117 664.208 764.274 672.757 761.075 675.694 C 757.245 679.212 745.559 677.663 740.375 677.628 L 422.104 677.764 L 316.332 677.687 L 283.867 677.644 C 277.209 677.646 270.36 677.974 263.735 677.356 C 262.408 676.534 261.936 675.463 261.563 674.004 C 260.532 669.975 260.67 626.643 261.12 621.104 C 261.295 618.949 261.566 616.921 262.711 615.059 C 266.135 612.905 277.793 613.783 282.363 613.74 Z" stroke-linecap="round" />
</g>
		<g transform="matrix(1.38 0 0 1.38 59.43 186.2)"  >
<path style="stroke: none; stroke-width: 1; stroke-dasharray: none; stroke-linecap: butt; stroke-dashoffset: 0; stroke-linejoin: miter; stroke-miterlimit: 4; fill: rgb(248,247,254); fill-rule: nonzero; opacity: 1;" vector-effect="non-scaling-stroke"  transform=" translate(-554.92, -646.46)" d="M 553.419 642.199 C 555.12 642.491 555.814 642.783 557.084 644.008 C 558.067 646.534 557.39 648.276 556.442 650.691 C 556.303 650.7 556.164 650.717 556.025 650.719 C 554.402 650.745 553.84 650.436 552.732 649.355 C 551.769 646.734 552.468 644.727 553.419 642.199 Z" stroke-linecap="round" />
</g>
		<g transform="matrix(1.38 0 0 1.38 1.42 186.43)"  >
<path style="stroke: none; stroke-width: 1; stroke-dasharray: none; stroke-linecap: butt; stroke-dashoffset: 0; stroke-linejoin: miter; stroke-miterlimit: 4; fill: rgb(248,247,254); fill-rule: nonzero; opacity: 1;" vector-effect="non-scaling-stroke"  transform=" translate(-513.03, -646.63)" d="M 511.877 642.194 C 512.801 642.318 513.447 642.396 514.272 642.873 C 515.15 643.382 515.719 644.492 515.827 645.493 C 516.051 647.58 515.131 649.407 514.001 651.066 C 512.984 650.993 512.335 650.675 511.43 650.223 C 510.898 649.519 510.397 648.9 510.262 647.993 C 509.952 645.911 510.793 643.905 511.877 642.194 Z" stroke-linecap="round" />
</g>
		<g transform="matrix(1.38 0 0 1.38 -172.6 186.49)"  >
<path style="stroke: none; stroke-width: 1; stroke-dasharray: none; stroke-linecap: butt; stroke-dashoffset: 0; stroke-linejoin: miter; stroke-miterlimit: 4; fill: rgb(248,247,254); fill-rule: nonzero; opacity: 1;" vector-effect="non-scaling-stroke"  transform=" translate(-387.36, -646.67)" d="M 386.945 641.654 C 387.829 641.986 388.431 642.454 389.169 643.034 C 389.641 644.058 389.976 644.781 390.049 645.927 C 390.186 648.108 389.027 650.109 387.66 651.684 C 387.003 651.25 386.996 651.269 386.345 650.724 C 385.241 649.799 384.7 648.403 384.659 646.98 C 384.596 644.804 385.536 643.213 386.945 641.654 Z" stroke-linecap="round" />
</g>
		<g transform="matrix(1.38 0 0 1.38 -232.25 186.15)"  >
<path style="stroke: none; stroke-width: 1; stroke-dasharray: none; stroke-linecap: butt; stroke-dashoffset: 0; stroke-linejoin: miter; stroke-miterlimit: 4; fill: rgb(248,247,254); fill-rule: nonzero; opacity: 1;" vector-effect="non-scaling-stroke"  transform=" translate(-344.28, -646.43)" d="M 342.544 642.255 C 343.616 642.217 344.371 642.405 345.392 642.723 C 346.069 643.339 346.661 643.834 346.926 644.755 C 347.501 646.751 346.771 648.776 345.93 650.562 C 344.967 650.664 344.237 650.599 343.288 650.419 C 342.601 649.78 342.1 649.485 341.76 648.586 C 340.984 646.536 341.759 644.175 342.544 642.255 Z" stroke-linecap="round" />
</g>
		<g transform="matrix(1.38 0 0 1.38 -291.5 186.18)"  >
<path style="stroke: none; stroke-width: 1; stroke-dasharray: none; stroke-linecap: butt; stroke-dashoffset: 0; stroke-linejoin: miter; stroke-miterlimit: 4; fill: rgb(248,247,254); fill-rule: nonzero; opacity: 1;" vector-effect="non-scaling-stroke"  transform=" translate(-301.49, -646.45)" d="M 300.459 641.677 C 301.156 641.84 301.862 642 302.468 642.406 C 303.586 643.154 304.085 644.402 304.269 645.679 C 304.578 647.818 303.589 649.612 302.321 651.219 C 301.311 651.009 300.805 650.746 299.922 650.248 C 299.342 649.442 298.976 648.863 298.77 647.869 C 298.328 645.738 299.298 643.399 300.459 641.677 Z" stroke-linecap="round" />
</g>
		<g transform="matrix(1.38 0 0 1.38 -56.52 186.35)"  >
<path style="stroke: none; stroke-width: 1; stroke-dasharray: none; stroke-linecap: butt; stroke-dashoffset: 0; stroke-linejoin: miter; stroke-miterlimit: 4; fill: rgb(248,247,254); fill-rule: nonzero; opacity: 1;" vector-effect="non-scaling-stroke"  transform=" translate(-471.18, -646.57)" d="M 469.894 642.199 C 470.726 642.244 471.663 642.203 472.403 642.653 C 473.32 643.209 473.897 644.43 474.03 645.457 C 474.297 647.526 473.57 649.243 472.501 650.945 C 471.464 650.943 470.778 650.783 469.806 650.425 C 469.122 649.748 468.734 649.311 468.452 648.362 C 467.859 646.37 468.92 643.889 469.894 642.199 Z" stroke-linecap="round" />
</g>
		<g transform="matrix(1.38 0 0 1.38 -115.21 186.15)"  >
<path style="stroke: none; stroke-width: 1; stroke-dasharray: none; stroke-linecap: butt; stroke-dashoffset: 0; stroke-linejoin: miter; stroke-miterlimit: 4; fill: rgb(248,247,254); fill-rule: nonzero; opacity: 1;" vector-effect="non-scaling-stroke"  transform=" translate(-428.8, -646.43)" d="M 427.428 641.789 C 428.628 641.909 429.312 642.093 430.359 642.696 C 431.012 643.545 431.395 644.049 431.617 645.13 C 432.031 647.14 430.981 649.445 429.907 651.07 C 429.236 650.998 428.615 650.919 428.011 650.582 C 426.865 649.943 426.327 648.828 426.038 647.598 C 425.548 645.512 426.378 643.532 427.428 641.789 Z" stroke-linecap="round" />
</g>
		<g transform="matrix(1.38 0 0 1.38 292.73 186.55)"  >
<path style="stroke: none; stroke-width: 1; stroke-dasharray: none; stroke-linecap: butt; stroke-dashoffset: 0; stroke-linejoin: miter; stroke-miterlimit: 4; fill: rgb(248,247,254); fill-rule: nonzero; opacity: 1;" vector-effect="non-scaling-stroke"  transform=" translate(-723.39, -646.72)" d="M 722.524 642.188 C 723.176 642.332 723.793 642.52 724.387 642.841 C 725.521 643.456 726.286 644.453 726.443 645.759 C 726.692 647.837 725.595 649.608 724.491 651.25 C 723.509 651.14 722.582 651.117 721.761 650.489 C 720.844 649.788 720.328 648.583 720.307 647.446 C 720.267 645.286 721.205 643.793 722.524 642.188 Z" stroke-linecap="round" />
</g>
		<g transform="matrix(1.38 0 0 1.38 118.5 186.13)"  >
<path style="stroke: none; stroke-width: 1; stroke-dasharray: none; stroke-linecap: butt; stroke-dashoffset: 0; stroke-linejoin: miter; stroke-miterlimit: 4; fill: rgb(248,247,254); fill-rule: nonzero; opacity: 1;" vector-effect="non-scaling-stroke"  transform=" translate(-597.58, -646.41)" d="M 595.908 642.196 C 596.82 642.226 597.7 642.208 598.543 642.621 C 599.569 643.124 600.335 644.136 600.559 645.255 C 600.965 647.281 600.118 649.01 599.019 650.631 C 598.793 650.63 598.567 650.638 598.342 650.628 C 596.541 650.546 595.994 650.089 594.843 648.821 C 594.026 646.227 594.733 644.559 595.908 642.196 Z" stroke-linecap="round" />
</g>
		<g transform="matrix(1.38 0 0 1.38 235.59 186.15)"  >
<path style="stroke: none; stroke-width: 1; stroke-dasharray: none; stroke-linecap: butt; stroke-dashoffset: 0; stroke-linejoin: miter; stroke-miterlimit: 4; fill: rgb(248,247,254); fill-rule: nonzero; opacity: 1;" vector-effect="non-scaling-stroke"  transform=" translate(-682.13, -646.43)" d="M 680.844 642.204 C 681.637 642.353 682.395 642.516 683.129 642.87 C 684.247 643.41 685.085 644.301 685.304 645.558 C 685.651 647.544 684.56 649.119 683.49 650.648 C 682.589 650.639 681.583 650.711 680.757 650.271 C 679.764 649.741 679.061 648.592 678.931 647.492 C 678.685 645.394 679.622 643.795 680.844 642.204 Z" stroke-linecap="round" />
</g>
		<g transform="matrix(1.38 0 0 1.38 176.8 186.5)"  >
<path style="stroke: none; stroke-width: 1; stroke-dasharray: none; stroke-linecap: butt; stroke-dashoffset: 0; stroke-linejoin: miter; stroke-miterlimit: 4; fill: rgb(248,247,254); fill-rule: nonzero; opacity: 1;" vector-effect="non-scaling-stroke"  transform=" translate(-639.67, -646.68)" d="M 637.961 642.275 C 638.983 642.378 639.918 642.416 640.826 642.96 C 641.83 643.562 642.564 644.626 642.741 645.787 C 643.055 647.841 642.13 649.475 641.001 651.086 C 640.189 651.044 639.459 651.01 638.71 650.644 C 637.646 650.124 636.911 649.123 636.668 647.968 C 636.232 645.889 637.042 644.08 637.961 642.275 Z" stroke-linecap="round" />
</g>
</g>
</g>
<g transform="matrix(9.11 0 0 9.11 877.81 737.4)" id="b62a3bfb-5283-41c1-ab6c-763b916d5e04"  >
<path style="stroke: rgb(0,0,0); stroke-width: 0; stroke-dasharray: none; stroke-linecap: butt; stroke-dashoffset: 0; stroke-linejoin: miter; stroke-miterlimit: 4; fill: rgb(255,0,0); fill-rule: nonzero; opacity: 1;" vector-effect="non-scaling-stroke"  transform=" translate(-50, -50)" d="M 16.28 19.945 L 19.957 16.32 C 22.060000000000002 14.166 25.578000000000003 14.166 27.681 16.32 L 50.007000000000005 38.595 L 72.333 16.32 C 74.43599999999999 14.166 77.954 14.166 80.054 16.32 L 83.68 19.945 C 85.834 22.046 85.834 25.566000000000003 83.68 27.668 L 61.405 49.993 L 83.68 72.32 C 85.834 74.422 85.834 77.939 83.68 80.04299999999999 L 80.054 83.72099999999999 C 77.95400000000001 85.82 74.436 85.82 72.333 83.72099999999999 L 50.007 61.393 L 27.681 83.721 C 25.578 85.82000000000001 22.060000000000002 85.82000000000001 19.957 83.721 L 16.28 80.043 C 14.180000000000001 77.93900000000001 14.180000000000001 74.42200000000001 16.28 72.32000000000001 L 38.606 49.99300000000001 L 16.28 27.667 C 14.18 25.566 14.18 22.046 16.28 19.945 z" stroke-linecap="round" />
</g>
</svg>