<svg xmlns="http://www.w3.org/2000/svg" xml:space="preserve" width="1080" height="1080"><rect width="100%" height="100%" fill="transparent"/><path stroke-linecap="round" d="M0 0h1024v1024H0z" data-index="0" style="stroke:#f3f8ff;stroke-width:1;stroke-dasharray:none;stroke-linecap:butt;stroke-dashoffset:0;stroke-linejoin:miter;stroke-miterlimit:4;fill:#f3f8ff;fill-rule:nonzero;opacity:1;visibility:visible" transform="translate(-166.56 -132.6)scale(1.38)" vector-effect="non-scaling-stroke"/><path d="m308.756 117.047.136-39.214c.018-5.818-.599-12.294.119-18.03.275-2.194.788-3.969 2.258-5.637l.912-.11c2.041 1.986 2.37 4.986 2.425 7.717.371 18.394-.114 36.905-.138 55.308l85.385.159c16.045.008 32.199-.526 48.226.148 9.057-18.82 20.806-32.15 41.107-39.168q1.593-.539 3.211-1t3.256-.841 3.293-.683 3.323-.522q1.667-.22 3.344-.359t3.357-.196 3.363-.032 3.361.131 3.35.295 3.332.457 3.306.619 3.271.78q1.627.428 3.23.937 1.604.508 3.181 1.093 1.576.586 3.123 1.247 1.546.662 3.059 1.398c15.878 7.884 28.94 22.234 34.445 39.168 5.225 16.07 3.546 32.792-4.136 47.775-4.354 8.492-10.063 16.035-13.376 25.103-4.741 12.981-2.835 55.328-2.67 71.275 20.267 2.442 40.526 4.465 60.529 8.683 51.997 10.964 106.013 35.782 139.481 78.449 11.129 14.189 20.078 30.849 23.962 48.558 3.041 13.862 1.734 29.137 1.683 43.27-.078 21.684-.442 43.409-.078 65.088 9.105.015 16.614 1.75 23.209 8.475q.738.755 1.422 1.559.685.804 1.314 1.652t1.199 1.737 1.078 1.813q.508.926.953 1.883.445.958.823 1.943.379.986.691 1.995.311 1.008.553 2.036c2.273 9.541.878 22.27.832 32.135-.055 11.426.212 22.878-.002 34.3-.042 2.202-.098 4.421-.268 6.617 1.507 1.778 2.964 3.5 3.797 5.713 2.594 6.888.798 17.497.874 24.938l.539.049c9.233.755 22.976-2.616 29.642 5.28 2.767 3.279 3.98 7.709 3.453 11.95-.486 3.911-2.375 7.472-5.539 9.857q-.843.626-1.769 1.121-.927.494-1.916.846-.99.351-2.02.552t-2.08.247c-7.024.013-14.136-.192-21.148.175.036 8.447 2.13 22.209-4.33 28.62q-.457.463-.958.877-.502.414-1.042.776-.541.362-1.115.667t-1.175.552-1.226.432q-.623.185-1.262.306t-1.287.177-1.298.048c-3.479-.053-6.79-1.411-9.171-3.968-5.909-6.349-4.038-20.339-3.963-28.328-8.83.299-14.856.196-21.649 6.683-.27-12.47.169-25.027.279-37.504.049-5.52.709-11.864-.396-17.261-.489-2.392-1.621-4.685-3.382-6.397q-.551-.541-1.177-.994-.625-.453-1.311-.808t-1.416-.604q-.731-.249-1.491-.387c-5.975-1.123-12.549-.572-18.63-.537l-23.98.018c-.752-40.998-.054-82.142-.072-123.155-.007-16.942 1.367-49.308-2.326-64.879-2.963-12.493-11.053-25.209-19.41-34.784-33.124-37.949-90.949-56.08-139.777-59.568-.09 5.808 1.204 37.587-.896 40.616-1.313 1.895-5.524 2.64-7.609 2.874-6.296.705-13.155.25-19.508.252l-37.381-.011-4.175.04c-3.848.104-12.943 1.255-15.778-1.668-3.657-3.771-2.043-34.877-2.006-41.804-48.668 3.246-106.625 21.46-139.669 59.083-9.543 10.865-17.24 24.356-20.245 38.603-1.957 9.28-1.437 18.956-1.381 28.386l.123 30.514.066 125.441c-10.805-.053-33.331-1.192-43.122.676-2.218.423-4.914 1.25-6.553 2.896-1.392 1.396-1.725 3.5-1.937 5.379-.669 5.934-.034 12.245-.057 18.219-.048 12.29-.488 24.683.093 36.962q.089 1.879.248 3.753l-.514.193c-.484-.261-.696-.351-1.112-.649-3.145-2.253-3.961-7.061-4.584-10.623l-15.971.204c-.648 8.921 2.495 21.414-4.115 28.525q-.428.469-.904.891-.475.422-.992.791t-1.07.682-1.136.566-1.19.443q-.606.19-1.229.315t-1.256.184-1.268.051q-.637-.011-1.269-.086-.633-.074-1.254-.212-.622-.138-1.227-.338-.604-.2-1.186-.46-.581-.259-1.134-.576t-1.07-.688q-.518-.37-.996-.791t-.911-.888c-5.93-6.268-3.746-20.458-3.675-28.596l-8.173.058c-7.411.185-16.532 1.559-22.433-3.944q-.515-.483-.978-1.015-.464-.533-.87-1.111-.406-.577-.752-1.193-.345-.616-.625-1.263-.281-.648-.494-1.321-.213-.674-.356-1.365t-.215-1.394q-.071-.702-.071-1.408c.024-3.833 1.803-7.429 4.613-9.99 6.098-5.56 14.696-4.098 22.28-3.91.013-7.077-1.541-16.991 1.261-23.47 1.769-4.089 4.966-6.184 8.999-7.721-.739-12.953-.196-26.202-.204-39.186-.006-10.089-1.252-21.731.712-31.592q.203-1.066.475-2.116.273-1.051.615-2.081t.751-2.035q.41-1.005.885-1.98t1.013-1.918 1.139-1.847q.6-.904 1.258-1.766.659-.863 1.373-1.68c6.47-7.315 14.263-10.806 23.877-11.746l.251-60.421c.028-10.807-.626-22.07.328-32.822 2.759-31.099 18.893-56.537 40.619-77.977 40.751-40.214 100.083-60.775 155.712-68.782 9.799-1.41 19.637-1.899 29.489-2.733l-.052-59.38c-15.923-.701-31.983-.312-47.926-.335q-52.84-.099-105.68.338l-.002 43.652c-.004 7.231 1.089 17.842-.692 24.78-1.35.801-2.696.902-4.234.955-7.468.257-15.072-.112-22.558-.113l-51.826.028-161.505.285c.951-1.915 1.856-3.878 2.92-5.732 77.376-.855 154.835-.142 232.221-.147l.121-63.627-133.323-.272q-17.902-.013-35.804.156c-5.777.056-11.875.542-17.62.194-1.019-.062-1.831-.339-2.606-1.03-.598-.531-.512-.919-.65-1.657.652-1.319 1.22-2.034 2.656-2.53 4.396-1.52 72.891-.577 83.318-.494l.035-55.505c-.012-6.813.972-15.56-.235-22.085l-2.3-1.246c-.263-1.392-.044-1.737.454-3.088.789-.732 1.411-1.134 2.506-1.261 3.282-.383 7.004-.047 10.334-.024l21.579.112z" data-index="1" style="stroke:none;stroke-width:1;stroke-dasharray:none;stroke-linecap:butt;stroke-dashoffset:0;stroke-linejoin:miter;stroke-miterlimit:4;fill:#080717;fill-rule:nonzero;opacity:1" transform="translate(-166.792 -133.247)scale(1.38)" vector-effect="non-scaling-stroke"/><path d="M199.534 637.061c.013-7.077-1.541-16.991 1.261-23.47 1.769-4.089 4.966-6.184 8.999-7.721-2.883 10.466-2.342 20.57-2.266 31.304-2.66-.021-5.338.024-7.994-.113" data-index="2" style="stroke:none;stroke-width:1;stroke-dasharray:none;stroke-linecap:butt;stroke-dashoffset:0;stroke-linejoin:miter;stroke-miterlimit:4;fill:#fff;fill-rule:nonzero;opacity:1" transform="translate(-168.021 -132.078)scale(1.38)" vector-effect="non-scaling-stroke"/><path d="m241.518 612.998.03 12.104c2.546 1.765 5.216 2.944 8.042 4.18l.045 7.916-16.088.138q.126-12.142-.019-24.284c2.656.155 5.331.013 7.99-.054" data-index="3" style="stroke:none;stroke-width:1;stroke-dasharray:none;stroke-linecap:butt;stroke-dashoffset:0;stroke-linejoin:miter;stroke-miterlimit:4;fill:#fff;fill-rule:nonzero;opacity:1" transform="translate(-167.85 -132.065)scale(1.38)" vector-effect="non-scaling-stroke"/><path d="M219.073 609.055c1.095-.018 2.234-.055 3.304.203 1.801.434 3.483 1.488 4.372 3.154 1.435 2.689 2.015 70.266.441 74.548-.858 2.335-2.98 3.531-5.074 4.595-1.154-.001-2.369.03-3.499-.231-1.85-.426-3.509-1.535-4.436-3.215-.985-1.784-.9-4.536-.99-6.546-.35-7.811-.781-64.813.541-68.246.906-2.352 3.205-3.331 5.341-4.262" data-index="4" style="stroke:none;stroke-width:1;stroke-dasharray:none;stroke-linecap:butt;stroke-dashoffset:0;stroke-linejoin:miter;stroke-miterlimit:4;fill:#f8f7fe;fill-rule:nonzero;opacity:1" transform="translate(-167.952 -131.944)scale(1.38)" vector-effect="non-scaling-stroke"/><path d="M802 608.504c1.388-.133 2.873-.216 4.242.104 1.829.427 3.466 1.666 4.343 3.332.59 1.121.647 2.324.697 3.564.276 6.814.045 70.412-.787 72.399-.893 2.132-2.367 2.836-4.299 3.837q-1.069.084-2.142.108c-1.971.027-4.069-.416-5.482-1.891-1.127-1.178-1.574-2.617-1.768-4.201-1.019-8.314-.228-17.58-.263-26.001-.066-15.363-.583-30.869.014-46.216 1.533-2.228 3.153-3.614 5.445-5.035" data-index="5" style="stroke:none;stroke-width:1;stroke-dasharray:none;stroke-linecap:butt;stroke-dashoffset:0;stroke-linejoin:miter;stroke-miterlimit:4;fill:#f8f7fe;fill-rule:nonzero;opacity:1" transform="translate(-165.165 -131.946)scale(1.38)" vector-effect="non-scaling-stroke"/><path d="M241.591 512.86c1.268 10.778.358 22.46.347 33.365q.132 33.389-.42 66.773c-2.659.067-5.334.209-7.99.054-1.015-2.482-2.336-4.502-4.429-6.22-4.076-3.345-8.826-3.491-13.802-3.014.109-14.95-.08-29.909-.134-44.859-.026-7.352-.675-15.326.388-22.605q.186-1.267.501-2.509.314-1.241.753-2.444.439-1.204.999-2.356.559-1.152 1.233-2.241c5.301-8.559 13.307-11.574 22.554-13.944" data-index="6" style="stroke:none;stroke-width:1;stroke-dasharray:none;stroke-linecap:butt;stroke-dashoffset:0;stroke-linejoin:miter;stroke-miterlimit:4;fill:#f8f7fe;fill-rule:nonzero;opacity:1" transform="translate(-167.908 -132.356)scale(1.38)" vector-effect="non-scaling-stroke"/><path d="M781.099 514.592c.312-.006.624-.015.936-.018 7.036-.06 13.902 1.855 18.865 7.095 3.117 3.292 5.099 7.34 6.101 11.74 1.945 8.534.961 18.826.968 27.602q.119 20.659-.154 41.316c-4.897-.038-9.74.702-13.388 4.301-4.51 4.449-4.388 10.397-4.358 16.247l.056 12.871-14.264.033c-.098-4.251-.347-8.678.448-12.875 1.345-7.096 4.357-13.402 4.703-20.726.391-8.263.137-16.645.136-24.919-.001-20.879-.41-41.793-.049-62.667" data-index="7" style="stroke:none;stroke-width:1;stroke-dasharray:none;stroke-linecap:butt;stroke-dashoffset:0;stroke-linejoin:miter;stroke-miterlimit:4;fill:#f8f7fe;fill-rule:nonzero;opacity:1" transform="translate(-165.222 -132.308)scale(1.38)" vector-effect="non-scaling-stroke"/><path d="M210.684 122.712c27.235-.45 54.583.159 81.831.113l153.383.074c-5.135 21.71-1.564 35.031 10.127 53.651 4.532 7.218 8.608 14.091 11.05 22.333l-.209.852c-1.128.684-2.165.635-3.447.671-9.253.26-18.592-.073-27.856-.078l-60.068-.025-164.861-.065z" data-index="8" style="stroke:none;stroke-width:1;stroke-dasharray:none;stroke-linecap:butt;stroke-dashoffset:0;stroke-linejoin:miter;stroke-miterlimit:4;fill:#f8f7fe;fill-rule:nonzero;opacity:1" transform="translate(-167.383 -134.281)scale(1.38)" vector-effect="non-scaling-stroke"/><path d="M503.759 80.662c4.475-.466 9.152-.575 13.633-.194 15.699 1.332 31.698 9.504 41.76 21.665 8.948 10.816 14.434 25.389 14.111 39.481-.589 25.676-20.506 38.028-23.128 61.904-1.156 10.523-.231 25.604-.224 36.567l-.047 79.901c.021 14.446.995 29.6-.301 43.946-10.063.41-20.238.102-30.313.103l-45.401-.013c-1.003-38.381-.127-76.941-.056-115.335l-.044-30.822c-.042-5.786.301-11.96-.674-17.667-3.314-19.397-20.133-32.654-23.149-52.049-2.39-15.376 2.272-30.819 11.478-43.205 10.244-13.781 25.544-21.87 42.355-24.282" data-index="9" style="stroke:none;stroke-width:1;stroke-dasharray:none;stroke-linecap:butt;stroke-dashoffset:0;stroke-linejoin:miter;stroke-miterlimit:4;fill:#f8f7fe;fill-rule:nonzero;opacity:1" transform="translate(-166.56 -133.982)scale(1.38)" vector-effect="non-scaling-stroke"/><path d="M508.398 106.207c8.853-.534 16.502 1.032 23.815 6.243 7.641 5.445 13.336 13.453 14.889 22.796q.153.892.262 1.79.108.899.171 1.802.062.903.079 1.808t-.011 1.809-.102 1.807q-.075.902-.194 1.799t-.284 1.787-.374 1.77q-.209.881-.463 1.75-.253.869-.55 1.724-.297.854-.636 1.693-.34.839-.721 1.66-.382.821-.804 1.621-.423.801-.885 1.579t-.963 1.532-1.039 1.481c-6.385 8.78-15.432 12.801-25.901 14.464-9.37 1-18.882-1.44-26.304-7.33-7.23-5.737-12.207-14.94-13.249-24.095q-.106-.882-.168-1.769t-.079-1.775q-.018-.889.01-1.777t.099-1.774.189-1.767.277-1.755q.161-.875.365-1.74.205-.865.452-1.718.248-.854.538-1.694t.622-1.664q.332-.825.705-1.631.374-.807.787-1.594t.865-1.552.942-1.506q.49-.742 1.017-1.458t1.089-1.404c6.328-7.707 15.75-12.003 25.554-12.912" data-index="10" style="stroke:none;stroke-width:1;stroke-dasharray:none;stroke-linecap:butt;stroke-dashoffset:0;stroke-linejoin:miter;stroke-miterlimit:4;fill:#080717;fill-rule:nonzero;opacity:1" transform="translate(-166.565 -134.364)scale(1.38)" vector-effect="non-scaling-stroke"/><path d="M505.793 112.152c7.009-.784 13.818-.093 20.17 3.125 6.851 3.472 12.424 9.925 14.74 17.275q.225.701.415 1.413t.342 1.432q.153.721.27 1.448t.196 1.459.122 1.468.048 1.471q.006.737-.026 1.473t-.101 1.469-.175 1.462-.249 1.451q-.143.723-.322 1.437t-.394 1.419-.465 1.397q-.25.693-.535 1.372t-.604 1.343-.671 1.311c-4.526 8.154-12.227 13.214-21.083 15.578-7.215 1.35-14.948.324-21.413-3.205-7.154-3.905-12.206-10.695-14.376-18.501-2.127-7.656-.833-16.212 3.247-23.026 4.834-8.073 12.065-11.839 20.864-14.071" data-index="11" style="stroke:none;stroke-width:1;stroke-dasharray:none;stroke-linecap:butt;stroke-dashoffset:0;stroke-linejoin:miter;stroke-miterlimit:4;fill:#f8f7fe;fill-rule:nonzero;opacity:1" transform="translate(-166.554 -134.362)scale(1.38)" vector-effect="non-scaling-stroke"/><path d="m199.435 664.975 8.173-.058c-.071 8.138-2.255 22.328 3.675 28.596q.433.467.911.888t.996.792q.518.37 1.07.687.553.317 1.134.576.582.26 1.186.46.605.2 1.227.338.621.138 1.254.213.632.074 1.269.085.635.008 1.268-.051t1.256-.184 1.229-.315q.607-.19 1.19-.443.582-.253 1.136-.566t1.07-.682.992-.791.904-.891c6.61-7.111 3.467-19.604 4.115-28.525l15.971-.204c.623 3.562 1.439 8.37 4.584 10.623.416.298.628.388 1.112.649l.514-.193c1.729 3.296 3.459 5.627 7.163 6.747 1.538.465 3.166.616 4.757.79l335.53.003c51.404-.054 102.984.82 154.366-.161 2.451-.602 4.954-1.344 7.024-2.836 2.794-2.015 3.424-4.66 4.036-7.894 6.793-6.487 12.819-6.384 21.649-6.683-.075 7.989-1.946 21.979 3.963 28.328 2.381 2.557 5.692 3.915 9.171 3.968q.65.009 1.298-.048.648-.056 1.287-.177t1.262-.306 1.226-.432q.602-.246 1.175-.552.574-.305 1.115-.667.54-.362 1.042-.776.501-.414.958-.877c6.46-6.411 4.366-20.173 4.33-28.62 7.012-.367 14.124-.162 21.148-.175-5.977.843-12.411.408-18.455.328l-.274 224.037 61.782.001c5.862-.007 14.653-1.249 20.073-.035 1.402.314 2.369.726 3.122 1.955l-.208.71c-1.255 1.474-3.262 2.525-5.196 2.792-4.321.596-14.967-.216-20.033-.207q-26.777.16-53.555.028l-140.645.059-550.485.047c-3.292.017-11.432.894-13.841-1.082-.386-1.386-.381-1.655-.037-3.054.774-.799 1.441-1.161 2.561-1.312 6.474-.877 14.214-.128 20.796-.081 18.148.128 36.752 1.062 54.852-.089z" data-index="12" style="stroke:none;stroke-width:1;stroke-dasharray:none;stroke-linecap:butt;stroke-dashoffset:0;stroke-linejoin:miter;stroke-miterlimit:4;fill:#080717;fill-rule:nonzero;opacity:1" transform="translate(-166.56 -131.319)scale(1.38)" vector-effect="non-scaling-stroke"/><path d="M740.155 739.463c1.208 6.454.629 13.744.569 20.303l-.219 30.201c-.072 33.22.71 66.507.101 99.717-19.212.011-38.512-.318-57.71.38 5.805-4.259 11.681-8.635 15.241-15.06 5.862-10.579 8.988-25.962 12.609-37.581q14.993-48.893 29.409-97.96" data-index="13" style="stroke:none;stroke-width:1;stroke-dasharray:none;stroke-linecap:butt;stroke-dashoffset:0;stroke-linejoin:miter;stroke-miterlimit:4;fill:#f8f7fe;fill-rule:nonzero;opacity:1" transform="translate(-165.616 -131.149)scale(1.38)" vector-effect="non-scaling-stroke"/><path d="m280.485 889.68.031-103.765-.054-36.609c-.009-6.379-.288-12.903.088-19.265.043-.735.253-1.297.587-1.943 3.952 11.125 6.82 22.635 10.268 33.923l23.279 76.37c3.463 11.28 6.538 26.982 12.341 37.042 3.834 6.647 9.766 11.008 16.317 14.714q-31.427-.432-62.857-.467" data-index="14" style="stroke:none;stroke-width:1;stroke-dasharray:none;stroke-linecap:butt;stroke-dashoffset:0;stroke-linejoin:miter;stroke-miterlimit:4;fill:#f8f7fe;fill-rule:nonzero;opacity:1" transform="translate(-167.513 -131.176)scale(1.38)" vector-effect="non-scaling-stroke"/><path d="M514.135 724.853c8.662 9.266 17.022 18.848 25.744 28.043 16.238 17.118 35.257 32.423 34.33 58.223-.645 17.949-9.49 26.58-19.885 39.881q-11.216.131-22.433.115c-11.682.78-25.963.318-37.8.019l-21.134.042c-11.187-11.373-20.165-25.273-20.111-41.696.084-25.751 20.815-42.409 37.342-59.47 7.049-7.276 13.574-15.174 20.8-22.252q1.535-1.494 3.147-2.905" data-index="15" style="stroke:none;stroke-width:1;stroke-dasharray:none;stroke-linecap:butt;stroke-dashoffset:0;stroke-linejoin:miter;stroke-miterlimit:4;fill:#f8f7fe;fill-rule:nonzero;opacity:1" transform="translate(-166.545 -131.286)scale(1.38)" vector-effect="non-scaling-stroke"/><path d="M513.019 785.288c11.056 11.585 30.618 27.587 29.928 44.974-.317 7.99-4.278 14.925-10.18 20.108q-.433.378-.876.745c-11.682.78-25.963.318-37.8.019-5.576-4.986-9.696-11.346-10.109-19.033-.7-13.029 8.45-22.666 16.319-31.842q6.432-7.423 12.718-14.971" data-index="16" style="stroke:none;stroke-width:1;stroke-dasharray:none;stroke-linecap:butt;stroke-dashoffset:0;stroke-linejoin:miter;stroke-miterlimit:4;fill:#fff;fill-rule:nonzero;opacity:1" transform="translate(-166.551 -131.14)scale(1.38)" vector-effect="non-scaling-stroke"/><path d="M817.023 665.786c7.012-.367 14.124-.162 21.148-.175-5.977.843-12.411.408-18.455.328l-.274 224.037c-9.29-.623-18.901-.253-28.22-.257l-50.616-.035c.609-33.21-.173-66.497-.101-99.717l.219-30.201c.06-6.559.639-13.849-.569-20.303 1.671-7.19 4.448-14.374 6.576-21.463 3.487-11.618 6.565-23.242 10.756-34.642 2.451-.602 4.954-1.344 7.024-2.836 2.794-2.015 3.424-4.66 4.036-7.894 6.793-6.487 12.819-6.384 21.649-6.683-.075 7.989-1.946 21.979 3.963 28.328 2.381 2.557 5.692 3.915 9.171 3.968q.65.009 1.298-.048.648-.056 1.287-.177t1.262-.306 1.226-.432q.602-.246 1.175-.552.574-.305 1.115-.667.54-.362 1.042-.776.501-.414.958-.877c6.46-6.411 4.366-20.173 4.33-28.62" data-index="17" style="stroke:none;stroke-width:1;stroke-dasharray:none;stroke-linecap:butt;stroke-dashoffset:0;stroke-linejoin:miter;stroke-miterlimit:4;fill:#fff;fill-rule:nonzero;opacity:1" transform="translate(-165.23 -131.333)scale(1.38)" vector-effect="non-scaling-stroke"/><path d="m199.435 664.975 8.173-.058c-.071 8.138-2.255 22.328 3.675 28.596q.433.467.911.888t.996.792q.518.37 1.07.687.553.317 1.134.576.582.26 1.186.46.605.2 1.227.338.621.138 1.254.213.632.074 1.269.085.635.008 1.268-.051t1.256-.184 1.229-.315q.607-.19 1.19-.443.582-.253 1.136-.566t1.07-.682.992-.791.904-.891c6.61-7.111 3.467-19.604 4.115-28.525l15.971-.204c.623 3.562 1.439 8.37 4.584 10.623.416.298.628.388 1.112.649l.514-.193c1.729 3.296 3.459 5.627 7.163 6.747 1.538.465 3.166.616 4.757.79 3.548 9.246 5.935 19.03 8.654 28.552 1.532 5.367 3.438 10.654 4.892 16.03-.334.646-.544 1.208-.587 1.943-.376 6.362-.097 12.886-.088 19.265l.054 36.609-.031 103.765c-27.196-.05-54.695-.938-81.857.028z" data-index="18" style="stroke:none;stroke-width:1;stroke-dasharray:none;stroke-linecap:butt;stroke-dashoffset:0;stroke-linejoin:miter;stroke-miterlimit:4;fill:#fff;fill-rule:nonzero;opacity:1" transform="translate(-167.854 -131.324)scale(1.38)" vector-effect="non-scaling-stroke"/><path stroke-linecap="round" d="M555.458 325.768c48.828 3.488 106.653 21.619 139.777 59.568 8.357 9.575 16.447 22.291 19.41 34.784 3.693 15.571 2.319 47.937 2.326 64.879.018 41.013-.68 82.157.072 123.155l23.98-.018c6.081-.035 12.655-.586 18.63.537q.76.138 1.491.387t1.416.604q.686.355 1.311.808.626.453 1.177.994c1.761 1.712 2.893 4.005 3.382 6.397 1.105 5.397.445 11.741.396 17.261-.11 12.477-.549 25.034-.279 37.504-.612 3.234-1.242 5.879-4.036 7.894-2.07 1.492-4.573 2.234-7.024 2.836-51.382.981-102.962.107-154.366.161l-335.53-.003c-1.591-.174-3.219-.325-4.757-.79-3.704-1.12-5.434-3.451-7.163-6.747q-.159-1.874-.248-3.753c-.581-12.279-.141-24.672-.093-36.962.023-5.974-.612-12.285.057-18.219.212-1.879.545-3.983 1.937-5.379 1.639-1.646 4.335-2.473 6.553-2.896 9.791-1.868 32.317-.729 43.122-.676l-.066-125.441-.123-30.514c-.056-9.43-.576-19.106 1.381-28.386 3.005-14.247 10.702-27.738 20.245-38.603 33.044-37.623 91.001-55.837 139.669-59.083-.037 6.927-1.651 38.033 2.006 41.804 2.835 2.923 11.93 1.772 15.778 1.668l4.175-.04 37.381.011c6.353-.002 13.212.453 19.508-.252 2.085-.234 6.296-.979 7.609-2.874 2.1-3.029.806-34.808.896-40.616Z" data-index="19" style="stroke:#f3f8ff;stroke-width:1;stroke-dasharray:none;stroke-linecap:butt;stroke-dashoffset:0;stroke-linejoin:miter;stroke-miterlimit:4;fill:#f3f8ff;fill-rule:nonzero;opacity:1;visibility:visible" transform="translate(-166.557 -132.634)scale(1.38)" vector-effect="non-scaling-stroke"/><path d="M489.008 541.719c2.052-10.506 5.188-19.342 10.802-28.433 1.193-1.932 2.149-3.823 3.949-5.278l.992-.11c.416.436.892.68.881 1.336-.043 2.601-6.261 11.427-7.702 14.383-2.742 5.625-4.917 11.748-6.224 17.874z" data-index="20" style="stroke:none;stroke-width:1;stroke-dasharray:none;stroke-linecap:butt;stroke-dashoffset:0;stroke-linejoin:miter;stroke-miterlimit:4;fill:#fff;fill-rule:nonzero;opacity:1" transform="translate(-166.632 -132.538)scale(1.38)" vector-effect="non-scaling-stroke"/><path d="M408.954 558.356c5.046-14.059 13.395-25.729 20.295-38.811 14.868-28.189 14.781-58.583.611-87.004-2.519-5.054-13.712-21.456-13.745-25.01l.669-.373c7.228 3.48 17.75 26.429 20.64 34.189 9.618 25.827 8.471 52.827-3.994 77.587-6.484 12.877-14.472 24.734-20.506 37.917-1.313.526-2.617 1.088-3.97 1.505" data-index="21" style="stroke:none;stroke-width:1;stroke-dasharray:none;stroke-linecap:butt;stroke-dashoffset:0;stroke-linejoin:miter;stroke-miterlimit:4;fill:#fff;fill-rule:nonzero;opacity:1" transform="translate(-166.968 -132.739)scale(1.38)" vector-effect="non-scaling-stroke"/><path d="m620.691 559.755.234-.585c10.029-25.659 10.53-54.355-.795-79.679-3.852-8.616-9.045-16.494-13.134-24.97-9.65-20.003-8.816-41.297-.969-61.745 1.372-3.577 2.831-7.671 5.433-10.543l1.159-.385c.442.434.968.7 1 1.367.089 1.8-5.715 14.438-6.604 17.21q-.591 1.825-1.088 3.678t-.899 3.728-.709 3.769q-.306 1.893-.516 3.8t-.322 3.821-.127 3.833.067 3.835q.083 1.916.263 3.826c1.505 15.341 9.185 27.317 16.288 40.553 15.35 28.603 14.965 59.926 2.963 89.519z" data-index="22" style="stroke:none;stroke-width:1;stroke-dasharray:none;stroke-linecap:butt;stroke-dashoffset:0;stroke-linejoin:miter;stroke-miterlimit:4;fill:#fff;fill-rule:nonzero;opacity:1" transform="translate(-166.06 -132.802)scale(1.38)" vector-effect="non-scaling-stroke"/><path d="m485.889 369.539 4.175-.04c-2.162 23.094 6.103 44.286 20.701 61.911 6.284 7.587 13.228 14.651 19.326 22.385 19.671 24.947 29.164 53.113 26.182 85.064q-.229 2.442-.502 4.88a54 54 0 0 1-4.135-.479l.892-.475c2.149-5.744.841-19.391.219-25.548-3.265-32.324-16.463-51.654-37.311-75.2-8.082-9.127-15.872-18.217-21.096-29.363-6.559-13.994-8.338-27.88-8.451-43.135" data-index="23" style="stroke:none;stroke-width:1;stroke-dasharray:none;stroke-linecap:butt;stroke-dashoffset:0;stroke-linejoin:miter;stroke-miterlimit:4;fill:#fff;fill-rule:nonzero;opacity:1" transform="translate(-166.513 -132.866)scale(1.38)" vector-effect="non-scaling-stroke"/><path d="M491.706 541.491c20.005-.836 40.051-.951 59.93 1.769 1.385.212 2.738.373 4.135.479 17.318 2.922 33.552 6.067 50.395 11.222 4.77 1.46 9.96 2.773 14.525 4.794l2.244 1.032c22.432 6.954 49.61 22.828 68.623 36.696 3.508 2.559 8.288 5.447 10.571 9.149l.028 1.067c-1.815 1.044-3.83.571-5.83.271-.128-.136-.251-.278-.384-.41-7.577-7.533-18.916-13.881-28.133-19.295q-4.254-2.533-8.59-4.923-4.335-2.391-8.747-4.637t-8.896-4.346-9.035-4.049-9.164-3.748-9.282-3.443-9.391-3.135-9.49-2.823-9.577-2.508q-4.81-1.175-9.656-2.19t-9.722-1.87q-4.877-.855-9.779-1.548t-9.825-1.223-9.859-.899q-4.938-.367-9.884-.572t-9.898-.245q-5.271-.044-10.54.088-5.27.132-10.532.439t-10.511.789-10.48 1.138q-5.23.656-10.435 1.486t-10.38 1.833-10.314 2.177-10.236 2.518q-5.096 1.345-10.146 2.858-5.049 1.514-10.045 3.194-4.996 1.681-9.933 3.527-4.938 1.845-9.811 3.854t-9.677 4.179-9.533 4.499-9.378 4.813-9.212 5.123c-9.69 5.59-20.368 11.318-28.422 19.153-3.192.393-6.673.171-9.902.208 4.599-4.398 10.13-7.881 15.361-11.479q4.376-3.056 8.86-5.951 4.484-2.896 9.07-5.627 4.586-2.732 9.267-5.295 4.682-2.564 9.453-4.957t9.626-4.611q4.855-2.219 9.786-4.261 4.932-2.041 9.934-3.903 5.003-1.862 10.069-3.542c1.353-.417 2.657-.979 3.97-1.505 27.877-8.305 47.274-11.791 76.084-15.132z" data-index="24" style="stroke:none;stroke-width:1;stroke-dasharray:none;stroke-linecap:butt;stroke-dashoffset:0;stroke-linejoin:miter;stroke-miterlimit:4;fill:#080717;fill-rule:nonzero;opacity:1" transform="translate(-166.57 -132.297)scale(1.38)" vector-effect="non-scaling-stroke"/><path d="M327.43 607.774c8.054-7.835 18.732-13.563 28.422-19.153q4.564-2.638 9.212-5.123 4.649-2.484 9.378-4.813t9.533-4.499 9.677-4.179 9.811-3.854q4.937-1.846 9.933-3.527 4.996-1.68 10.045-3.194 5.05-1.513 10.146-2.858 5.097-1.344 10.236-2.518 5.139-1.175 10.314-2.177t10.38-1.833 10.435-1.486 10.48-1.138 10.511-.789q5.262-.307 10.532-.439 5.269-.132 10.54-.088 4.951.041 9.898.245 4.946.205 9.884.572 4.937.368 9.859.899 4.923.53 9.825 1.223t9.779 1.548 9.722 1.87 9.656 2.19q4.809 1.175 9.577 2.508t9.49 2.823 9.391 3.135 9.282 3.443 9.164 3.748 9.035 4.049 8.896 4.346 8.747 4.637 8.59 4.923c9.217 5.414 20.556 11.762 28.133 19.295.133.132.256.274.384.41-18.169-.727-36.545-.271-54.737-.295l-100.168-.053-132.105-.023q-40.944-.232-81.887.175" data-index="25" style="stroke:none;stroke-width:1;stroke-dasharray:none;stroke-linecap:butt;stroke-dashoffset:0;stroke-linejoin:miter;stroke-miterlimit:4;fill:#fff;fill-rule:nonzero;opacity:1" transform="translate(-166.564 -132.288)scale(1.38)" vector-effect="non-scaling-stroke"/><path d="m282.363 613.74 464.586-.25c3.948-.013 11.062-.834 13.951 2.245a6.85 6.85 0 0 1 1.773 3.434c1.314 6.613.41 32.52.433 40.999.011 4.04 1.168 12.589-2.031 15.526-3.83 3.518-15.516 1.969-20.7 1.934l-318.271.136-105.772-.077-32.465-.043c-6.658.002-13.507.33-20.132-.288-1.327-.822-1.799-1.893-2.172-3.352-1.031-4.029-.893-47.361-.443-52.9.175-2.155.446-4.183 1.591-6.045 3.424-2.154 15.082-1.276 19.652-1.319" data-index="26" style="stroke:none;stroke-width:1;stroke-dasharray:none;stroke-linecap:butt;stroke-dashoffset:0;stroke-linejoin:miter;stroke-miterlimit:4;fill:#080717;fill-rule:nonzero;opacity:1" transform="translate(-166.55 -131.962)scale(1.38)" vector-effect="non-scaling-stroke"/><path d="M553.419 642.199c1.701.292 2.395.584 3.665 1.809.983 2.526.306 4.268-.642 6.683-.139.009-.278.026-.417.028-1.623.026-2.185-.283-3.293-1.364-.963-2.621-.264-4.628.687-7.156" data-index="27" style="stroke:none;stroke-width:1;stroke-dasharray:none;stroke-linecap:butt;stroke-dashoffset:0;stroke-linejoin:miter;stroke-miterlimit:4;fill:#f8f7fe;fill-rule:nonzero;opacity:1" transform="translate(-166.36 -131.955)scale(1.38)" vector-effect="non-scaling-stroke"/><path d="M511.877 642.194c.924.124 1.57.202 2.395.679.878.509 1.447 1.619 1.555 2.62.224 2.087-.696 3.914-1.826 5.573-1.017-.073-1.666-.391-2.571-.843-.532-.704-1.033-1.323-1.168-2.23-.31-2.082.531-4.088 1.615-5.799" data-index="28" style="stroke:none;stroke-width:1;stroke-dasharray:none;stroke-linecap:butt;stroke-dashoffset:0;stroke-linejoin:miter;stroke-miterlimit:4;fill:#f8f7fe;fill-rule:nonzero;opacity:1" transform="translate(-166.561 -131.96)scale(1.38)" vector-effect="non-scaling-stroke"/><path d="M386.945 641.654c.884.332 1.486.8 2.224 1.38.472 1.024.807 1.747.88 2.893.137 2.181-1.022 4.182-2.389 5.757-.657-.434-.664-.415-1.315-.96-1.104-.925-1.645-2.321-1.686-3.744-.063-2.176.877-3.767 2.286-5.326" data-index="29" style="stroke:none;stroke-width:1;stroke-dasharray:none;stroke-linecap:butt;stroke-dashoffset:0;stroke-linejoin:miter;stroke-miterlimit:4;fill:#f8f7fe;fill-rule:nonzero;opacity:1" transform="translate(-167.157 -131.955)scale(1.38)" vector-effect="non-scaling-stroke"/><path d="M342.544 642.255c1.072-.038 1.827.15 2.848.468.677.616 1.269 1.111 1.534 2.032.575 1.996-.155 4.021-.996 5.807-.963.102-1.693.037-2.642-.143-.687-.639-1.188-.934-1.528-1.833-.776-2.05-.001-4.411.784-6.331" data-index="30" style="stroke:none;stroke-width:1;stroke-dasharray:none;stroke-linecap:butt;stroke-dashoffset:0;stroke-linejoin:miter;stroke-miterlimit:4;fill:#f8f7fe;fill-rule:nonzero;opacity:1" transform="translate(-167.356 -131.963)scale(1.38)" vector-effect="non-scaling-stroke"/><path d="M300.459 641.677c.697.163 1.403.323 2.009.729 1.118.748 1.617 1.996 1.801 3.273.309 2.139-.68 3.933-1.948 5.54-1.01-.21-1.516-.473-2.399-.971-.58-.806-.946-1.385-1.152-2.379-.442-2.131.528-4.47 1.689-6.192" data-index="31" style="stroke:none;stroke-width:1;stroke-dasharray:none;stroke-linecap:butt;stroke-dashoffset:0;stroke-linejoin:miter;stroke-miterlimit:4;fill:#f8f7fe;fill-rule:nonzero;opacity:1" transform="translate(-167.556 -131.961)scale(1.38)" vector-effect="non-scaling-stroke"/><path d="M469.894 642.199c.832.045 1.769.004 2.509.454.917.556 1.494 1.777 1.627 2.804.267 2.069-.46 3.786-1.529 5.488-1.037-.002-1.723-.162-2.695-.52-.684-.677-1.072-1.114-1.354-2.063-.593-1.992.468-4.473 1.442-6.163" data-index="32" style="stroke:none;stroke-width:1;stroke-dasharray:none;stroke-linecap:butt;stroke-dashoffset:0;stroke-linejoin:miter;stroke-miterlimit:4;fill:#f8f7fe;fill-rule:nonzero;opacity:1" transform="translate(-166.748 -131.957)scale(1.38)" vector-effect="non-scaling-stroke"/><path d="M427.428 641.789c1.2.12 1.884.304 2.931.907.653.849 1.036 1.353 1.258 2.434.414 2.01-.636 4.315-1.71 5.94-.671-.072-1.292-.151-1.896-.488-1.146-.639-1.684-1.754-1.973-2.984-.49-2.086.34-4.066 1.39-5.809" data-index="33" style="stroke:none;stroke-width:1;stroke-dasharray:none;stroke-linecap:butt;stroke-dashoffset:0;stroke-linejoin:miter;stroke-miterlimit:4;fill:#f8f7fe;fill-rule:nonzero;opacity:1" transform="translate(-166.954 -131.963)scale(1.38)" vector-effect="non-scaling-stroke"/><path d="M722.524 642.188c.652.144 1.269.332 1.863.653 1.134.615 1.899 1.612 2.056 2.918.249 2.078-.848 3.849-1.952 5.491-.982-.11-1.909-.133-2.73-.761-.917-.701-1.433-1.906-1.454-3.043-.04-2.16.898-3.653 2.217-5.258" data-index="34" style="stroke:none;stroke-width:1;stroke-dasharray:none;stroke-linecap:butt;stroke-dashoffset:0;stroke-linejoin:miter;stroke-miterlimit:4;fill:#f8f7fe;fill-rule:nonzero;opacity:1" transform="translate(-165.548 -131.964)scale(1.38)" vector-effect="non-scaling-stroke"/><path d="M595.908 642.196c.912.03 1.792.012 2.635.425 1.026.503 1.792 1.515 2.016 2.634.406 2.026-.441 3.755-1.54 5.376-.226-.001-.452.007-.677-.003-1.801-.082-2.348-.539-3.499-1.807-.817-2.594-.11-4.262 1.065-6.625" data-index="35" style="stroke:none;stroke-width:1;stroke-dasharray:none;stroke-linecap:butt;stroke-dashoffset:0;stroke-linejoin:miter;stroke-miterlimit:4;fill:#f8f7fe;fill-rule:nonzero;opacity:1" transform="translate(-166.16 -131.956)scale(1.38)" vector-effect="non-scaling-stroke"/><path d="M680.844 642.204c.793.149 1.551.312 2.285.666 1.118.54 1.956 1.431 2.175 2.688.347 1.986-.744 3.561-1.814 5.09-.901-.009-1.907.063-2.733-.377-.993-.53-1.696-1.679-1.826-2.779-.246-2.098.691-3.697 1.913-5.288" data-index="36" style="stroke:none;stroke-width:1;stroke-dasharray:none;stroke-linecap:butt;stroke-dashoffset:0;stroke-linejoin:miter;stroke-miterlimit:4;fill:#f8f7fe;fill-rule:nonzero;opacity:1" transform="translate(-165.75 -131.963)scale(1.38)" vector-effect="non-scaling-stroke"/><path d="M637.961 642.275c1.022.103 1.957.141 2.865.685 1.004.602 1.738 1.666 1.915 2.827.314 2.054-.611 3.688-1.74 5.299-.812-.042-1.542-.076-2.291-.442-1.064-.52-1.799-1.521-2.042-2.676-.436-2.079.374-3.888 1.293-5.693" data-index="37" style="stroke:none;stroke-width:1;stroke-dasharray:none;stroke-linecap:butt;stroke-dashoffset:0;stroke-linejoin:miter;stroke-miterlimit:4;fill:#f8f7fe;fill-rule:nonzero;opacity:1" transform="translate(-165.945 -131.958)scale(1.38)" vector-effect="non-scaling-stroke"/><path d="m16.28 19.945 3.677-3.625c2.103-2.154 5.621-2.154 7.724 0l22.326 22.275L72.333 16.32c2.103-2.154 5.621-2.154 7.721 0l3.626 3.625c2.154 2.101 2.154 5.621 0 7.723L61.405 49.993 83.68 72.32c2.154 2.102 2.154 5.619 0 7.723l-3.626 3.678c-2.1 2.099-5.618 2.099-7.721 0L50.007 61.393 27.681 83.721c-2.103 2.099-5.621 2.099-7.724 0l-3.677-3.678c-2.1-2.104-2.1-5.621 0-7.723l22.326-22.327L16.28 27.667c-2.1-2.101-2.1-5.621 0-7.722z" data-index="38" style="stroke:#000;stroke-width:0;stroke-dasharray:none;stroke-linecap:butt;stroke-dashoffset:0;stroke-linejoin:miter;stroke-miterlimit:4;fill:red;fill-rule:nonzero;opacity:1" transform="matrix(5.5 0 0 5.5 285.31 569.63)" vector-effect="non-scaling-stroke"/></svg>