<svg xmlns="http://www.w3.org/2000/svg" width="1418" height="1418"><path fill="#F8F7FE" d="M0 0h1024v1024H0z" data-index="0" style="opacity:1;visibility:visible;fill:#f3f8ff;stroke:#f3f8ff" transform="scale(1.38477)"/><path fill="#080717" d="m308.756 117.047.136-39.214c.018-5.818-.599-12.294.119-18.03.275-2.194.788-3.969 2.258-5.637l.912-.11c2.041 1.986 2.37 4.986 2.425 7.717.371 18.394-.114 36.905-.138 55.308l85.385.159c16.045.008 32.199-.526 48.226.148 9.057-18.82 20.806-32.15 41.107-39.168q1.593-.539 3.211-1t3.256-.841 3.293-.683 3.323-.522q1.667-.22 3.344-.359t3.357-.196 3.363-.032 3.361.131 3.35.295 3.332.457 3.306.619 3.271.78q1.627.428 3.23.937 1.604.508 3.181 1.093 1.576.586 3.123 1.247 1.546.662 3.059 1.398c15.878 7.884 28.94 22.234 34.445 39.168 5.225 16.07 3.546 32.792-4.136 47.775-4.354 8.492-10.063 16.035-13.376 25.103-4.741 12.981-2.835 55.328-2.67 71.275 20.267 2.442 40.526 4.465 60.529 8.683 51.997 10.964 106.013 35.782 139.481 78.449 11.129 14.189 20.078 30.849 23.962 48.558 3.041 13.862 1.734 29.137 1.683 43.27-.078 21.684-.442 43.409-.078 65.088 9.105.015 16.614 1.75 23.209 8.475q.738.755 1.422 1.559.685.804 1.314 1.652t1.199 1.737 1.078 1.813q.508.926.953 1.883.445.958.823 1.943.379.986.691 1.995.311 1.008.553 2.036c2.273 9.541.878 22.27.832 32.135-.055 11.426.212 22.878-.002 34.3-.042 2.202-.098 4.421-.268 6.617 1.507 1.778 2.964 3.5 3.797 5.713 2.594 6.888.798 17.497.874 24.938l.539.049c9.233.755 22.976-2.616 29.642 5.28 2.767 3.279 3.98 7.709 3.453 11.95-.486 3.911-2.375 7.472-5.539 9.857q-.843.626-1.769 1.121-.927.494-1.916.846-.99.351-2.02.552t-2.08.247c-7.024.013-14.136-.192-21.148.175.036 8.447 2.13 22.209-4.33 28.62q-.457.463-.958.877-.502.414-1.042.776-.541.362-1.115.667t-1.175.552-1.226.432q-.623.185-1.262.306t-1.287.177-1.298.048c-3.479-.053-6.79-1.411-9.171-3.968-5.909-6.349-4.038-20.339-3.963-28.328-8.83.299-14.856.196-21.649 6.683-.27-12.47.169-25.027.279-37.504.049-5.52.709-11.864-.396-17.261-.489-2.392-1.621-4.685-3.382-6.397q-.551-.541-1.177-.994-.625-.453-1.311-.808t-1.416-.604q-.731-.249-1.491-.387c-5.975-1.123-12.549-.572-18.63-.537l-23.98.018c-.752-40.998-.054-82.142-.072-123.155-.007-16.942 1.367-49.308-2.326-64.879-2.963-12.493-11.053-25.209-19.41-34.784-33.124-37.949-90.949-56.08-139.777-59.568-.09 5.808 1.204 37.587-.896 40.616-1.313 1.895-5.524 2.64-7.609 2.874-6.296.705-13.155.25-19.508.252l-37.381-.011-4.175.04c-3.848.104-12.943 1.255-15.778-1.668-3.657-3.771-2.043-34.877-2.006-41.804-48.668 3.246-106.625 21.46-139.669 59.083-9.543 10.865-17.24 24.356-20.245 38.603-1.957 9.28-1.437 18.956-1.381 28.386l.123 30.514.066 125.441c-10.805-.053-33.331-1.192-43.122.676-2.218.423-4.914 1.25-6.553 2.896-1.392 1.396-1.725 3.5-1.937 5.379-.669 5.934-.034 12.245-.057 18.219-.048 12.29-.488 24.683.093 36.962q.089 1.879.248 3.753l-.514.193c-.484-.261-.696-.351-1.112-.649-3.145-2.253-3.961-7.061-4.584-10.623l-15.971.204c-.648 8.921 2.495 21.414-4.115 28.525q-.428.469-.904.891-.475.422-.992.791t-1.07.682-1.136.566-1.19.443q-.606.19-1.229.315t-1.256.184-1.268.051q-.637-.011-1.269-.086-.633-.074-1.254-.212-.622-.138-1.227-.338-.604-.2-1.186-.46-.581-.259-1.134-.576t-1.07-.688q-.518-.37-.996-.791t-.911-.888c-5.93-6.268-3.746-20.458-3.675-28.596l-8.173.058c-7.411.185-16.532 1.559-22.433-3.944q-.515-.483-.978-1.015-.464-.533-.87-1.111-.406-.577-.752-1.193-.345-.616-.625-1.263-.281-.648-.494-1.321-.213-.674-.356-1.365t-.215-1.394q-.071-.702-.071-1.408c.024-3.833 1.803-7.429 4.613-9.99 6.098-5.56 14.696-4.098 22.28-3.91.013-7.077-1.541-16.991 1.261-23.47 1.769-4.089 4.966-6.184 8.999-7.721-.739-12.953-.196-26.202-.204-39.186-.006-10.089-1.252-21.731.712-31.592q.203-1.066.475-2.116.273-1.051.615-2.081t.751-2.035q.41-1.005.885-1.98t1.013-1.918 1.139-1.847q.6-.904 1.258-1.766.659-.863 1.373-1.68c6.47-7.315 14.263-10.806 23.877-11.746l.251-60.421c.028-10.807-.626-22.07.328-32.822 2.759-31.099 18.893-56.537 40.619-77.977 40.751-40.214 100.083-60.775 155.712-68.782 9.799-1.41 19.637-1.899 29.489-2.733l-.052-59.38c-15.923-.701-31.983-.312-47.926-.335q-52.84-.099-105.68.338l-.002 43.652c-.004 7.231 1.089 17.842-.692 24.78-1.35.801-2.696.902-4.234.955-7.468.257-15.072-.112-22.558-.113l-51.826.028-161.505.285c.951-1.915 1.856-3.878 2.92-5.732 77.376-.855 154.835-.142 232.221-.147l.121-63.627-133.323-.272q-17.902-.013-35.804.156c-5.777.056-11.875.542-17.62.194-1.019-.062-1.831-.339-2.606-1.03-.598-.531-.512-.919-.65-1.657.652-1.319 1.22-2.034 2.656-2.53 4.396-1.52 72.891-.577 83.318-.494l.035-55.505c-.012-6.813.972-15.56-.235-22.085l-2.3-1.246c-.263-1.392-.044-1.737.454-3.088.789-.732 1.411-1.134 2.506-1.261 3.282-.383 7.004-.047 10.334-.024l21.579.112z" data-index="1" style="opacity:1" transform="scale(1.38477)"/><path fill="#fff" d="M276.309 882.183c.018-9.8-2.134-23.529 1.746-32.5 2.45-5.663 6.877-8.564 12.461-10.692-3.992 14.493-3.243 28.484-3.137 43.348-3.684-.029-7.392.034-11.07-.156" data-index="2"/><path fill="#fff" d="m334.447 848.861.041 16.761c3.526 2.445 7.223 4.077 11.137 5.789l.062 10.962-22.278.19q.174-16.813-.026-33.627c3.678.215 7.382.018 11.064-.075" data-index="3"/><path fill="#F8F7FE" d="M303.366 843.401c1.516-.025 3.093-.076 4.575.281 2.494.601 4.823 2.06 6.054 4.368 1.987 3.723 2.79 97.302.61 103.232-1.187 3.233-4.126 4.89-7.025 6.363-1.598-.002-3.28.041-4.846-.32-2.562-.59-4.859-2.126-6.143-4.452-1.364-2.47-1.246-6.282-1.37-9.065-.485-10.816-1.082-89.751.749-94.505 1.254-3.257 4.438-4.613 7.396-5.902" data-index="4"/><path fill="#F8F7FE" d="M1110.586 842.638c1.922-.184 3.978-.3 5.874.144 2.533.591 4.8 2.307 6.014 4.614.817 1.552.896 3.218.965 4.935.382 9.436.062 97.505-1.09 100.256-1.236 2.953-3.278 3.928-5.953 5.314q-1.48.116-2.966.15c-2.73.037-5.635-.577-7.591-2.62-1.561-1.63-2.18-3.623-2.449-5.817-1.41-11.513-.315-24.344-.364-36.005-.091-21.274-.807-42.747.02-63.999 2.122-3.085 4.366-5.004 7.54-6.972" data-index="5"/><path fill="#F8F7FE" d="M334.548 710.193c1.756 14.925.496 31.102.48 46.203q.183 46.236-.581 92.465c-3.682.093-7.386.29-11.064.075-1.406-3.437-3.235-6.234-6.134-8.613-5.644-4.632-12.222-4.835-19.112-4.174.15-20.702-.11-41.417-.186-62.12-.036-10.18-.934-21.222.538-31.302q.257-1.755.693-3.474t1.043-3.385q.608-1.667 1.383-3.262.775-1.596 1.708-3.104c7.34-11.852 18.427-16.027 31.232-19.309" data-index="6"/><path fill="#F8F7FE" d="M1081.642 712.592c.433-.009.865-.021 1.297-.025 9.743-.083 19.25 2.568 26.123 9.825 4.317 4.558 7.061 10.164 8.449 16.257 2.693 11.817 1.33 26.07 1.34 38.222q.165 28.608-.213 57.213c-6.781-.052-13.488.972-18.54 5.956-6.245 6.161-6.076 14.398-6.034 22.499l.077 17.823-19.752.046c-.136-5.887-.48-12.017.62-17.83 1.863-9.826 6.034-18.558 6.513-28.7.541-11.442.19-23.05.188-34.507-.001-28.913-.567-57.874-.068-86.78" data-index="7"/><path fill="#F8F7FE" d="M291.749 169.928c37.714-.623 75.585.22 113.317.156l212.4.103c-7.11 30.063-2.166 48.51 14.024 74.294 6.276 9.995 11.92 19.513 15.301 30.926l-.289 1.18c-1.562.947-2.998.88-4.773.93-12.814.36-25.746-.102-38.574-.109l-83.18-.034-228.295-.09z" data-index="8"/><path fill="#F8F7FE" d="M697.59 111.698c6.197-.645 12.674-.796 18.879-.269 21.74 1.845 43.894 13.162 57.828 30.002 12.39 14.977 19.988 35.158 19.54 54.672-.815 35.555-28.396 52.66-32.027 85.723-1.6 14.572-.32 35.455-.31 50.636l-.065 110.645c.03 20.004 1.378 40.99-.417 60.855-13.935.568-28.025.141-41.976.143l-62.87-.018c-1.389-53.15-.176-106.546-.078-159.713l-.06-42.681c-.059-8.012.416-16.562-.934-24.465-4.589-26.86-27.88-45.218-32.056-72.076-3.31-21.292 3.146-42.677 15.894-59.829 14.186-19.084 35.373-30.286 58.652-33.625" data-index="9"/><path fill="#080717" d="M704.014 147.072c12.26-.74 22.852 1.43 32.979 8.645 10.58 7.54 18.467 18.63 20.617 31.568q.212 1.235.363 2.478.15 1.245.237 2.496.086 1.25.11 2.503t-.016 2.505q-.039 1.254-.141 2.503-.104 1.249-.269 2.49-.164 1.243-.393 2.475-.228 1.233-.518 2.451-.29 1.22-.641 2.424-.35 1.203-.762 2.387-.41 1.183-.88 2.345-.471 1.161-.999 2.298-.529 1.137-1.113 2.245-.586 1.11-1.226 2.187t-1.333 2.121q-.694 1.043-1.439 2.05c-8.842 12.16-21.37 17.727-35.867 20.03-12.975 1.385-26.147-1.994-36.425-10.15-10.012-7.945-16.904-20.689-18.347-33.366q-.146-1.222-.232-2.45t-.11-2.458q-.025-1.23.014-2.46.038-1.23.137-2.457.1-1.227.262-2.447t.384-2.43q.222-1.212.505-2.41t.626-2.379.745-2.346q.401-1.163.861-2.304.46-1.142.976-2.258.518-1.118 1.09-2.208t1.198-2.149 1.305-2.085q.678-1.028 1.408-2.02.73-.99 1.508-1.944c8.763-10.672 21.81-16.621 35.386-17.88" data-index="10"/><path fill="#F8F7FE" d="M700.407 155.305c9.706-1.086 19.135-.13 27.93 4.327 9.488 4.808 17.205 13.744 20.412 23.922q.312.97.575 1.957.262.986.474 1.983t.373 2.005q.163 1.007.272 2.02t.169 2.033q.06 1.018.066 2.037.009 1.02-.036 2.04-.044 1.019-.14 2.034-.095 1.015-.242 2.025t-.345 2.009q-.198 1.001-.446 1.99-.247.99-.545 1.965t-.644 1.934-.741 1.9-.836 1.86q-.442.92-.93 1.815c-6.267 11.292-16.931 18.299-29.195 21.572-9.99 1.87-20.7.449-29.652-4.438-9.906-5.407-16.902-14.81-19.907-25.62-2.946-10.601-1.154-22.45 4.496-31.885 6.694-11.18 16.707-16.394 28.892-19.485" data-index="11"/><path fill="#080717" d="m276.172 920.837 11.317-.08c-.098 11.27-3.122 30.92 5.09 39.599q.599.647 1.26 1.23.663.583 1.38 1.096t1.482.952q.766.439 1.57.797.806.36 1.643.637t1.699.468q.86.191 1.736.295.875.103 1.757.118.88.011 1.756-.07.877-.082 1.74-.255.862-.173 1.701-.437.841-.263 1.648-.613t1.573-.784q.766-.432 1.482-.944.716-.511 1.374-1.096.659-.584 1.252-1.233c9.153-9.847 4.8-27.147 5.698-39.501l22.116-.282c.863 4.932 1.993 11.59 6.348 14.71.576.413.87.537 1.54.899l.712-.268c2.394 4.565 4.79 7.793 9.919 9.343 2.13.644 4.384.853 6.587 1.094l464.632.005c71.183-.075 142.61 1.135 213.761-.223 3.394-.834 6.86-1.862 9.727-3.928 3.869-2.79 4.741-6.453 5.589-10.931 9.407-8.983 17.751-8.84 29.979-9.254-.104 11.063-2.695 30.435 5.488 39.227 3.297 3.541 7.882 5.422 12.7 5.495q.9.013 1.797-.066.897-.078 1.782-.245.885-.168 1.748-.424.864-.256 1.697-.598t1.627-.765q.795-.422 1.544-.923.748-.502 1.443-1.075.694-.573 1.327-1.214c8.946-8.878 6.046-27.935 5.996-39.633 9.71-.508 19.558-.224 29.285-.242-8.277 1.167-17.186.565-25.556.454l-.38 310.24 85.555.001c8.117-.01 20.29-1.73 27.796-.048 1.942.435 3.28 1.005 4.323 2.707l-.288.983c-1.738 2.042-4.517 3.497-7.195 3.867-5.984.825-20.726-.3-27.741-.287q-37.08.222-74.161.039l-194.761.081-762.296.066c-4.558.023-15.83 1.238-19.166-1.499-.535-1.92-.528-2.292-.051-4.229 1.071-1.106 1.995-1.608 3.546-1.817 8.965-1.214 19.683-.177 28.798-.112 25.13.177 50.893 1.47 75.957-.123z" data-index="12"/><path fill="#F8F7FE" d="M1024.944 1023.986c1.673 8.937.871 19.032.788 28.115l-.303 41.822c-.1 46.002.983 92.096.14 138.085-26.604.015-53.33-.44-79.915.526 8.039-5.898 16.175-11.958 21.105-20.855 8.118-14.65 12.447-35.951 17.46-52.04q20.763-67.706 40.725-135.653" data-index="13"/><path fill="#F8F7FE" d="m388.407 1232.002.043-143.69-.075-50.696c-.012-8.833-.398-17.867.122-26.677.06-1.018.35-1.796.813-2.69 5.473 15.405 9.444 31.344 14.219 46.975l32.236 105.755c4.795 15.62 9.054 37.364 17.09 51.294 5.309 9.205 13.523 15.244 22.595 20.376q-43.52-.598-87.043-.647" data-index="14"/><path fill="#F8F7FE" d="M711.959 1003.755c11.995 12.83 23.571 26.1 35.65 38.833 22.485 23.704 48.822 44.898 47.538 80.625-.893 24.855-13.141 36.807-27.536 55.226q-15.531.182-31.064.16c-16.177 1.08-35.953.44-52.345.026l-29.265.058c-15.492-15.749-27.924-34.997-27.85-57.74.117-35.659 28.825-58.726 51.71-82.352 9.762-10.075 18.798-21.012 28.804-30.814q2.126-2.068 4.358-4.022" data-index="15"/><path fill="#fff" d="M710.413 1087.443c15.31 16.043 42.4 38.202 41.444 62.279-.44 11.064-5.924 20.668-14.097 27.845q-.6.523-1.213 1.031c-16.177 1.08-35.953.44-52.345.027-7.721-6.905-13.426-15.712-13.998-26.357-.97-18.042 11.701-31.387 22.598-44.093q8.907-10.28 17.611-20.732" data-index="16"/><path fill="#fff" d="M1131.389 921.96c9.71-.508 19.558-.224 29.285-.242-8.277 1.167-17.186.565-25.556.454l-.38 310.24c-12.864-.863-26.173-.35-39.077-.356l-70.092-.048c.843-45.989-.24-92.083-.14-138.085l.303-41.822c.083-9.083.885-19.178-.788-28.115 2.314-9.956 6.16-19.905 9.107-29.721 4.828-16.088 9.09-32.185 14.894-47.971 3.394-.834 6.86-1.862 9.727-3.928 3.869-2.79 4.741-6.453 5.589-10.931 9.407-8.983 17.751-8.84 29.979-9.254-.104 11.063-2.695 30.435 5.488 39.227 3.297 3.541 7.882 5.422 12.7 5.495q.9.013 1.797-.066.897-.078 1.782-.245.885-.168 1.748-.424.864-.256 1.697-.598t1.627-.765q.795-.422 1.544-.923.748-.502 1.443-1.075.694-.573 1.327-1.214c8.946-8.878 6.046-27.935 5.996-39.633" data-index="17"/><path fill="#fff" d="m276.172 920.837 11.317-.08c-.098 11.27-3.122 30.92 5.09 39.599q.599.647 1.26 1.23.663.583 1.38 1.096t1.482.952q.766.439 1.57.797.806.36 1.643.637t1.699.468q.86.191 1.736.295.875.103 1.757.118.88.011 1.756-.07.877-.082 1.74-.255.862-.173 1.701-.437.841-.263 1.648-.613t1.573-.784q.766-.432 1.482-.944.716-.511 1.374-1.096.659-.584 1.252-1.233c9.153-9.847 4.8-27.147 5.698-39.501l22.116-.282c.863 4.932 1.993 11.59 6.348 14.71.576.413.87.537 1.54.899l.712-.268c2.394 4.565 4.79 7.793 9.919 9.343 2.13.644 4.384.853 6.587 1.094 4.913 12.804 8.219 26.353 11.984 39.538 2.121 7.432 4.76 14.754 6.774 22.198-.462.895-.753 1.673-.813 2.69-.52 8.81-.134 17.845-.122 26.678l.075 50.695-.043 143.691c-37.66-.07-75.74-1.299-113.353.039z" data-index="18"/><path fill="#F8F7FE" d="M555.458 325.768c48.828 3.488 106.653 21.619 139.777 59.568 8.357 9.575 16.447 22.291 19.41 34.784 3.693 15.571 2.319 47.937 2.326 64.879.018 41.013-.68 82.157.072 123.155l23.98-.018c6.081-.035 12.655-.586 18.63.537q.76.138 1.491.387t1.416.604q.686.355 1.311.808.626.453 1.177.994c1.761 1.712 2.893 4.005 3.382 6.397 1.105 5.397.445 11.741.396 17.261-.11 12.477-.549 25.034-.279 37.504-.612 3.234-1.242 5.879-4.036 7.894-2.07 1.492-4.573 2.234-7.024 2.836-51.382.981-102.962.107-154.366.161l-335.53-.003c-1.591-.174-3.219-.325-4.757-.79-3.704-1.12-5.434-3.451-7.163-6.747q-.159-1.874-.248-3.753c-.581-12.279-.141-24.672-.093-36.962.023-5.974-.612-12.285.057-18.219.212-1.879.545-3.983 1.937-5.379 1.639-1.646 4.335-2.473 6.553-2.896 9.791-1.868 32.317-.729 43.122-.676l-.066-125.441-.123-30.514c-.056-9.43-.576-19.106 1.381-28.386 3.005-14.247 10.702-27.738 20.245-38.603 33.044-37.623 91.001-55.837 139.669-59.083-.037 6.927-1.651 38.033 2.006 41.804 2.835 2.923 11.93 1.772 15.778 1.668l4.175-.04 37.381.011c6.353-.002 13.212.453 19.508-.252 2.085-.234 6.296-.979 7.609-2.874 2.1-3.029.806-34.808.896-40.616" data-index="19" style="opacity:1" transform="scale(1.38477)"/><path fill="#fff" d="M677.164 750.156c2.841-14.548 7.184-26.784 14.958-39.373 1.652-2.675 2.976-5.294 5.468-7.309l1.374-.152c.576.604 1.235.942 1.22 1.85-.06 3.602-8.67 15.824-10.665 19.917-3.797 7.79-6.81 16.268-8.62 24.751z" data-index="20"/><path fill="#fff" d="M408.954 558.356c5.046-14.059 13.395-25.729 20.295-38.811 14.868-28.189 14.781-58.583.611-87.004-2.519-5.054-13.712-21.456-13.745-25.01l.669-.373c7.228 3.48 17.75 26.429 20.64 34.189 9.618 25.827 8.471 52.827-3.994 77.587-6.484 12.877-14.472 24.734-20.506 37.917-1.313.526-2.617 1.088-3.97 1.505" data-index="21" style="opacity:1" transform="scale(1.38477)"/><path fill="#fff" d="m859.514 775.132.324-.81c13.888-35.532 14.582-75.27-1.1-110.337-5.335-11.931-12.526-22.84-18.188-34.578-13.363-27.7-12.208-57.187-1.342-85.503 1.9-4.953 3.92-10.622 7.523-14.6l1.605-.532c.613.6 1.34.969 1.385 1.893.123 2.492-7.914 19.993-9.145 23.831q-.818 2.528-1.506 5.094-.689 2.564-1.245 5.162-.558 2.597-.982 5.22-.424 2.62-.715 5.261-.29 2.641-.446 5.292t-.175 5.307q-.021 2.658.092 5.311.115 2.653.365 5.298c2.084 21.244 12.719 37.828 22.555 56.157 21.256 39.608 20.723 82.983 4.103 123.963z" data-index="22"/><path fill="#fff" d="m672.845 511.726 5.781-.055c-2.994 31.98 8.451 61.326 28.666 85.733 8.702 10.506 18.318 20.288 26.762 30.998 27.24 34.546 40.386 73.549 36.256 117.794q-.317 3.381-.695 6.757a75 75 0 0 1-5.726-.663l1.235-.658c2.976-7.954 1.165-26.852.303-35.378-4.52-44.761-22.797-71.529-51.667-104.134-11.191-12.64-21.979-25.227-29.213-40.661-9.082-19.379-11.546-38.608-11.702-59.733" data-index="23"/><path fill="#080717" d="M680.9 749.84c27.702-1.157 55.461-1.316 82.989 2.45 1.918.294 3.792.517 5.726.663 23.981 4.047 46.462 8.402 69.786 15.54 6.605 2.022 13.792 3.84 20.113 6.639l3.108 1.429c31.063 9.63 68.698 31.612 95.027 50.816 4.858 3.543 11.477 7.542 14.638 12.669l.039 1.477c-2.513 1.446-5.304.791-8.073.376-.177-.189-.348-.385-.532-.568-10.492-10.432-26.194-19.222-38.958-26.72q-5.89-3.507-11.895-6.817-6.003-3.31-12.112-6.42-6.11-3.11-12.32-6.019-6.209-2.907-12.51-5.607-6.303-2.699-12.69-5.19-6.387-2.49-12.854-4.768t-13.005-4.341q-6.539-2.063-13.141-3.91-6.603-1.845-13.262-3.472t-13.371-3.033q-6.711-1.405-13.463-2.59-6.754-1.183-13.542-2.143t-13.605-1.694q-6.816-.735-13.653-1.244t-13.687-.793-13.706-.339q-7.3-.06-14.596.122-7.297.183-14.584.608t-14.555 1.093q-7.269.667-14.513 1.575-7.242.909-14.45 2.058-7.207 1.15-14.374 2.538-7.166 1.388-14.282 3.015-7.117 1.626-14.175 3.487-7.056 1.862-14.05 3.958-6.991 2.096-13.91 4.423-6.918 2.327-13.755 4.884-6.838 2.555-13.585 5.337t-13.4 5.787q-6.653 3.004-13.202 6.23-6.548 3.225-12.986 6.664-6.437 3.442-12.757 7.095c-13.418 7.74-28.205 15.672-39.358 26.522-4.42.544-9.24.237-13.712.288 6.369-6.09 14.028-10.913 21.272-15.896q6.06-4.231 12.269-8.24t12.56-7.792q6.35-3.784 12.832-7.333 6.484-3.55 13.09-6.864 6.607-3.314 13.33-6.385 6.723-3.073 13.552-5.9 6.83-2.827 13.756-5.406 6.928-2.578 13.943-4.904c1.874-.578 3.68-1.356 5.498-2.084 38.603-11.501 65.463-16.328 105.359-20.955z" data-index="24"/><path fill="#fff" d="M453.415 841.627c11.153-10.85 25.94-18.781 39.358-26.522q6.32-3.653 12.757-7.095 6.438-3.44 12.986-6.664 6.549-3.226 13.201-6.23t13.4-5.787 13.586-5.337q6.837-2.557 13.755-4.884t13.91-4.423q6.994-2.096 14.05-3.958 7.058-1.861 14.175-3.487 7.116-1.627 14.282-3.015 7.165-1.388 14.374-2.538 7.208-1.15 14.45-2.058 7.244-.908 14.513-1.575 7.268-.668 14.555-1.093t14.584-.608 14.596-.122q6.856.057 13.706.34t13.687.792 13.653 1.244q6.817.734 13.605 1.694t13.542 2.144q6.752 1.184 13.463 2.59t13.371 3.032 13.262 3.473 13.141 3.909q6.538 2.063 13.005 4.341t12.853 4.768q6.388 2.491 12.69 5.19t12.512 5.607 12.319 6.018 12.112 6.421 11.895 6.818c12.764 7.497 28.466 16.287 38.958 26.719.184.183.355.38.532.568-25.16-1.007-50.607-.376-75.798-.409l-138.71-.073-182.935-.032q-56.698-.321-113.395.242" data-index="25"/><path fill="#080717" d="m391.008 849.889 643.345-.346c5.467-.018 15.318-1.155 19.319 3.108 1.278 1.364 2.09 2.924 2.455 4.756 1.82 9.157.567 45.032.6 56.774.015 5.594 1.617 17.433-2.813 21.5-5.304 4.871-21.486 2.726-28.665 2.678l-440.732.188-146.47-.106-44.956-.06c-9.22.003-18.705.457-27.879-.399-1.837-1.138-2.49-2.621-3.007-4.642-1.428-5.579-1.237-65.584-.614-73.254.243-2.984.618-5.792 2.203-8.37 4.742-2.984 20.885-1.768 27.214-1.827" data-index="26"/><path fill="#F8F7FE" d="M766.358 889.298c2.356.404 3.317.809 5.075 2.505 1.361 3.498.424 5.91-.889 9.254-.192.013-.385.036-.577.04-2.248.035-3.026-.393-4.56-1.89-1.334-3.63-.366-6.408.951-9.91" data-index="27"/><path fill="#F8F7FE" d="M708.832 889.291c1.28.172 2.174.28 3.316.94 1.216.705 2.004 2.242 2.154 3.628.31 2.89-.964 5.42-2.529 7.718-1.408-.101-2.307-.542-3.56-1.168-.737-.975-1.43-1.832-1.617-3.088-.43-2.883.735-5.66 2.236-8.03" data-index="28"/><path fill="#F8F7FE" d="M535.83 888.543c1.224.46 2.058 1.108 3.08 1.911.653 1.418 1.117 2.42 1.218 4.006.19 3.02-1.415 5.791-3.308 7.972-.91-.6-.92-.574-1.821-1.329-1.529-1.28-2.278-3.214-2.335-5.185-.087-3.013 1.215-5.216 3.166-7.375" data-index="29"/><path fill="#F8F7FE" d="M474.345 889.375c1.484-.052 2.53.208 3.944.648.937.854 1.757 1.539 2.124 2.814.796 2.764-.215 5.569-1.38 8.042-1.333.141-2.344.05-3.658-.198-.951-.885-1.645-1.294-2.116-2.539-1.075-2.838-.001-6.108 1.086-8.767" data-index="30"/><path fill="#F8F7FE" d="M416.067 888.575c.965.226 1.942.447 2.782 1.01 1.548 1.035 2.239 2.764 2.494 4.532.428 2.962-.942 5.446-2.698 7.672-1.399-.291-2.1-.655-3.322-1.345-.803-1.116-1.31-1.918-1.595-3.294-.612-2.951.73-6.19 2.339-8.575" data-index="31"/><path fill="#F8F7FE" d="M650.695 889.298c1.152.062 2.45.005 3.475.629 1.27.77 2.068 2.46 2.253 3.882.37 2.866-.637 5.243-2.118 7.6-1.436-.003-2.386-.224-3.732-.72-.947-.937-1.484-1.543-1.875-2.857-.82-2.758.648-6.194 1.997-8.534" data-index="32"/><path fill="#F8F7FE" d="M591.89 888.73c1.661.166 2.608.421 4.058 1.256.905 1.176 1.435 1.874 1.742 3.37.574 2.784-.88 5.976-2.368 8.226-.929-.1-1.789-.209-2.625-.676-1.587-.884-2.332-2.428-2.732-4.132-.679-2.888.47-5.63 1.925-8.044" data-index="33"/><path fill="#F8F7FE" d="M1000.53 889.283c.902.2 1.757.46 2.58.904 1.57.852 2.63 2.232 2.847 4.04.344 2.878-1.175 5.33-2.704 7.604-1.36-.152-2.643-.184-3.78-1.053-1.27-.971-1.984-2.64-2.013-4.214-.056-2.991 1.243-5.059 3.07-7.281" data-index="34"/><path fill="#F8F7FE" d="M825.196 889.294c1.262.041 2.481.016 3.648.588 1.421.697 2.482 2.098 2.792 3.648.562 2.805-.61 5.2-2.132 7.444-.313-.001-.626.01-.938-.004-2.494-.113-3.251-.746-4.845-2.502-1.132-3.592-.153-5.902 1.475-9.174" data-index="35"/><path fill="#F8F7FE" d="M942.812 889.305c1.098.206 2.148.432 3.165.922 1.548.748 2.708 1.982 3.011 3.722.481 2.75-1.03 4.931-2.512 7.049-1.247-.013-2.64.087-3.784-.522-1.375-.734-2.349-2.325-2.529-3.849-.34-2.905.957-5.119 2.65-7.322" data-index="36"/><path fill="#F8F7FE" d="M883.43 889.403c1.415.143 2.71.195 3.967.949 1.39.833 2.406 2.307 2.651 3.914.435 2.845-.846 5.107-2.409 7.338-1.124-.058-2.135-.105-3.173-.612-1.473-.72-2.49-2.106-2.827-3.705-.604-2.88.518-5.384 1.79-7.884" data-index="37"/></svg>