<svg xmlns="http://www.w3.org/2000/svg" width="1418" height="1418"><path fill="#F8F7FE" d="M0 0h1024v1024H0z" data-index="0" style="visibility:visible;fill:#f3f8ff;stroke:#f3f8ff;opacity:1" transform="scale(1.38477)"/><path fill="#080717" d="m427.556 162.083.188-54.302c.025-8.057-.83-17.024.165-24.969.381-3.037 1.091-5.495 3.127-7.804l1.263-.152c2.826 2.75 3.282 6.904 3.358 10.686.514 25.47-.158 51.105-.191 76.588l118.238.22c22.22.011 44.589-.728 66.782.205 12.542-26.06 28.812-44.52 56.924-54.238q2.206-.746 4.447-1.384t4.508-1.166q2.27-.529 4.56-.946 2.292-.417 4.602-.722 2.308-.305 4.63-.497 2.322-.193 4.65-.272 2.327-.079 4.656-.045 2.33.035 4.655.182 2.323.148 4.639.408 2.314.26 4.614.634 2.298.372 4.578.857 2.278.484 4.53 1.079 2.252.594 4.472 1.298 2.221.703 4.405 1.514 2.182.81 4.325 1.727 2.14.916 4.236 1.935c21.987 10.919 40.075 30.79 47.698 54.24 7.236 22.253 4.91 45.409-5.727 66.157-6.03 11.76-13.935 22.204-18.523 34.762-6.565 17.975-3.926 76.616-3.697 98.7 28.065 3.38 56.119 6.182 83.818 12.023 72.004 15.183 146.804 49.55 193.15 108.634 15.41 19.648 27.803 42.719 33.181 67.242 4.211 19.195 2.402 40.348 2.33 59.919-.107 30.027-.611 60.111-.107 90.131 12.608.021 23.006 2.424 32.139 11.736q1.022 1.046 1.97 2.16.948 1.113 1.819 2.287.87 1.174 1.66 2.405.788 1.23 1.493 2.51.703 1.283 1.32 2.608.616 1.327 1.14 2.69.524 1.366.956 2.764.43 1.395.766 2.819c3.147 13.212 1.216 30.839 1.152 44.5-.076 15.822.294 31.68-.003 47.497-.058 3.05-.135 6.122-.37 9.163 2.086 2.462 4.104 4.847 5.257 7.911 3.592 9.539 1.105 24.23 1.21 34.534l.747.068c12.785 1.045 31.816-3.623 41.047 7.311 3.832 4.54 5.512 10.675 4.782 16.548-.673 5.416-3.29 10.347-7.67 13.65q-1.168.867-2.45 1.552-1.284.684-2.653 1.172-1.371.486-2.798.764t-2.88.342c-9.727.018-19.575-.266-29.285.242.05 11.698 2.95 30.755-5.996 39.633q-.633.64-1.327 1.214-.695.573-1.443 1.075-.749.5-1.544.923t-1.627.765q-.833.342-1.697.598-.863.256-1.748.424t-1.782.245q-.898.079-1.798.066c-4.817-.073-9.402-1.954-12.7-5.495-8.182-8.792-5.591-28.164-5.487-39.227-12.228.414-20.572.271-29.98 9.254-.373-17.268.235-34.657.387-51.934.068-7.644.982-16.43-.548-23.903-.677-3.312-2.245-6.488-4.683-8.858q-.763-.75-1.63-1.377t-1.816-1.119q-.948-.491-1.96-.836t-2.065-.536c-8.274-1.555-17.378-.792-25.799-.744l-33.206.025c-1.042-56.772-.075-113.747-.1-170.541-.01-23.46 1.893-68.28-3.221-89.842-4.103-17.3-15.306-34.91-26.878-48.168-45.87-52.55-125.944-77.658-193.56-82.488-.124 8.042 1.668 52.05-1.24 56.244-1.818 2.624-7.65 3.655-10.537 3.98-8.718.976-18.217.346-27.014.348l-51.764-.015-5.781.055c-5.33.145-17.924 1.738-21.85-2.31-5.063-5.221-2.828-48.296-2.777-57.888-67.394 4.495-147.651 29.717-193.41 81.816-13.215 15.046-23.873 33.728-28.034 53.456-2.71 12.851-1.99 26.25-1.913 39.308l.17 42.255.092 173.707c-14.962-.073-46.156-1.65-59.714.936-3.071.586-6.805 1.731-9.074 4.01-1.928 1.934-2.39 4.847-2.683 7.45-.926 8.217-.047 16.956-.079 25.228-.066 17.02-.675 34.18.13 51.184q.122 2.602.343 5.197l-.712.268c-.67-.362-.964-.486-1.54-.899-4.355-3.12-5.485-9.778-6.348-14.71l-22.116.282c-.897 12.354 3.455 29.654-5.698 39.5q-.593.65-1.252 1.234-.658.585-1.374 1.096t-1.482.944-1.573.784-1.648.613q-.839.264-1.701.437t-1.74.254-1.756.071q-.882-.015-1.757-.119-.876-.103-1.736-.294-.862-.19-1.7-.468-.836-.277-1.642-.637-.804-.358-1.57-.797-.765-.44-1.482-.953t-1.38-1.095q-.661-.583-1.26-1.23c-8.212-8.68-5.188-28.33-5.09-39.599l-11.317.08c-10.263.257-22.893 2.16-31.065-5.461q-.713-.669-1.354-1.406-.643-.738-1.205-1.538t-1.041-1.652q-.478-.853-.866-1.75-.389-.896-.684-1.828-.295-.934-.493-1.89-.198-.958-.298-1.931-.098-.972-.098-1.95c.033-5.308 2.497-10.287 6.388-13.834 8.444-7.699 20.35-5.674 30.853-5.414.018-9.8-2.134-23.529 1.746-32.5 2.45-5.663 6.877-8.564 12.461-10.692-1.023-17.937-.27-36.284-.282-54.264-.008-13.971-1.734-30.092.986-43.748q.281-1.476.658-2.93.378-1.455.851-2.882.474-1.426 1.04-2.818.568-1.391 1.226-2.741.658-1.352 1.403-2.656.746-1.305 1.577-2.558.83-1.252 1.742-2.446t1.901-2.326c8.96-10.13 19.751-14.964 33.064-16.265l.348-83.67c.039-14.965-.867-30.562.454-45.45 3.82-43.066 26.163-78.291 56.248-107.98 56.43-55.688 138.592-84.16 215.625-95.248 13.57-1.953 27.193-2.63 40.836-3.785l-.072-82.227c-22.05-.971-44.29-.432-66.367-.464q-73.17-.137-146.342.468l-.003 60.448c-.005 10.013 1.508 24.707-.958 34.314-1.87 1.11-3.733 1.25-5.863 1.323-10.342.356-20.872-.155-31.238-.157l-71.767.04-223.648.394c1.318-2.652 2.57-5.37 4.045-7.938 107.147-1.184 214.41-.196 321.572-.203l.167-88.109-184.621-.377q-24.79-.018-49.58.216c-8 .078-16.445.75-24.4.269-1.411-.086-2.536-.47-3.609-1.426-.828-.736-.709-1.273-.9-2.295.903-1.826 1.69-2.816 3.678-3.503 6.087-2.105 100.937-.8 115.376-.684l.049-76.862c-.017-9.434 1.346-21.547-.326-30.583l-3.185-1.725c-.364-1.928-.06-2.405.629-4.276 1.093-1.014 1.954-1.57 3.47-1.746 4.545-.53 9.7-.066 14.31-.034l29.882.155z" data-index="1"/><path fill="#75EE4F" d="M276.309 882.183c.018-9.8-2.134-23.529 1.746-32.5 2.45-5.663 6.877-8.564 12.461-10.692-3.992 14.493-3.243 28.484-3.137 43.348-3.684-.029-7.392.034-11.07-.156" data-index="2"/><path fill="#75EE4F" d="m334.447 848.861.041 16.761c3.526 2.445 7.223 4.077 11.137 5.789l.062 10.962-22.278.19q.174-16.813-.026-33.627c3.678.215 7.382.018 11.064-.075" data-index="3"/><path fill="#F8F7FE" d="M303.366 843.401c1.516-.025 3.093-.076 4.575.281 2.494.601 4.823 2.06 6.054 4.368 1.987 3.723 2.79 97.302.61 103.232-1.187 3.233-4.126 4.89-7.025 6.363-1.598-.002-3.28.041-4.846-.32-2.562-.59-4.859-2.126-6.143-4.452-1.364-2.47-1.246-6.282-1.37-9.065-.485-10.816-1.082-89.751.749-94.505 1.254-3.257 4.438-4.613 7.396-5.902" data-index="4"/><path fill="#F8F7FE" d="M1110.586 842.638c1.922-.184 3.978-.3 5.874.144 2.533.591 4.8 2.307 6.014 4.614.817 1.552.896 3.218.965 4.935.382 9.436.062 97.505-1.09 100.256-1.236 2.953-3.278 3.928-5.953 5.314q-1.48.116-2.966.15c-2.73.037-5.635-.577-7.591-2.62-1.561-1.63-2.18-3.623-2.449-5.817-1.41-11.513-.315-24.344-.364-36.005-.091-21.274-.807-42.747.02-63.999 2.122-3.085 4.366-5.004 7.54-6.972" data-index="5"/><path fill="#F8F7FE" d="M334.548 710.193c1.756 14.925.496 31.102.48 46.203q.183 46.236-.581 92.465c-3.682.093-7.386.29-11.064.075-1.406-3.437-3.235-6.234-6.134-8.613-5.644-4.632-12.222-4.835-19.112-4.174.15-20.702-.11-41.417-.186-62.12-.036-10.18-.934-21.222.538-31.302q.257-1.755.693-3.474t1.043-3.385q.608-1.667 1.383-3.262.775-1.596 1.708-3.104c7.34-11.852 18.427-16.027 31.232-19.309" data-index="6"/><path fill="#F8F7FE" d="M1081.642 712.592c.433-.009.865-.021 1.297-.025 9.743-.083 19.25 2.568 26.123 9.825 4.317 4.558 7.061 10.164 8.449 16.257 2.693 11.817 1.33 26.07 1.34 38.222q.165 28.608-.213 57.213c-6.781-.052-13.488.972-18.54 5.956-6.245 6.161-6.076 14.398-6.034 22.499l.077 17.823-19.752.046c-.136-5.887-.48-12.017.62-17.83 1.863-9.826 6.034-18.558 6.513-28.7.541-11.442.19-23.05.188-34.507-.001-28.913-.567-57.874-.068-86.78" data-index="7"/><path fill="#F8F7FE" d="M291.749 169.928c37.714-.623 75.585.22 113.317.156l212.4.103c-7.11 30.063-2.166 48.51 14.024 74.294 6.276 9.995 11.92 19.513 15.301 30.926l-.289 1.18c-1.562.947-2.998.88-4.773.93-12.814.36-25.746-.102-38.574-.109l-83.18-.034-228.295-.09z" data-index="8"/><path fill="#F8F7FE" d="M697.59 111.698c6.197-.645 12.674-.796 18.879-.269 21.74 1.845 43.894 13.162 57.828 30.002 12.39 14.977 19.988 35.158 19.54 54.672-.815 35.555-28.396 52.66-32.027 85.723-1.6 14.572-.32 35.455-.31 50.636l-.065 110.645c.03 20.004 1.378 40.99-.417 60.855-13.935.568-28.025.141-41.976.143l-62.87-.018c-1.389-53.15-.176-106.546-.078-159.713l-.06-42.681c-.059-8.012.416-16.562-.934-24.465-4.589-26.86-27.88-45.218-32.056-72.076-3.31-21.292 3.146-42.677 15.894-59.829 14.186-19.084 35.373-30.286 58.652-33.625" data-index="9"/><path fill="#080717" d="M704.014 147.072c12.26-.74 22.852 1.43 32.979 8.645 10.58 7.54 18.467 18.63 20.617 31.568q.212 1.235.363 2.478.15 1.245.237 2.496.086 1.25.11 2.503t-.016 2.505q-.039 1.254-.141 2.503-.104 1.249-.269 2.49-.164 1.243-.393 2.475-.228 1.233-.518 2.451-.29 1.22-.641 2.424-.35 1.203-.762 2.387-.41 1.183-.88 2.345-.471 1.161-.999 2.298-.529 1.137-1.113 2.245-.586 1.11-1.226 2.187t-1.333 2.121q-.694 1.043-1.439 2.05c-8.842 12.16-21.37 17.727-35.867 20.03-12.975 1.385-26.147-1.994-36.425-10.15-10.012-7.945-16.904-20.689-18.347-33.366q-.146-1.222-.232-2.45t-.11-2.458q-.025-1.23.014-2.46.038-1.23.137-2.457.1-1.227.262-2.447t.384-2.43q.222-1.212.505-2.41t.626-2.379.745-2.346q.401-1.163.861-2.304.46-1.142.976-2.258.518-1.118 1.09-2.208t1.198-2.149 1.305-2.085q.678-1.028 1.408-2.02.73-.99 1.508-1.944c8.763-10.672 21.81-16.621 35.386-17.88" data-index="10"/><path fill="#F8F7FE" d="M700.407 155.305c9.706-1.086 19.135-.13 27.93 4.327 9.488 4.808 17.205 13.744 20.412 23.922q.312.97.575 1.957.262.986.474 1.983t.373 2.005q.163 1.007.272 2.02t.169 2.033q.06 1.018.066 2.037.009 1.02-.036 2.04-.044 1.019-.14 2.034-.095 1.015-.242 2.025t-.345 2.009q-.198 1.001-.446 1.99-.247.99-.545 1.965t-.644 1.934-.741 1.9-.836 1.86q-.442.92-.93 1.815c-6.267 11.292-16.931 18.299-29.195 21.572-9.99 1.87-20.7.449-29.652-4.438-9.906-5.407-16.902-14.81-19.907-25.62-2.946-10.601-1.154-22.45 4.496-31.885 6.694-11.18 16.707-16.394 28.892-19.485" data-index="11"/><path fill="#080717" d="m276.172 920.837 11.317-.08c-.098 11.27-3.122 30.92 5.09 39.599q.599.647 1.26 1.23.663.583 1.38 1.096t1.482.952q.766.439 1.57.797.806.36 1.643.637t1.699.468q.86.191 1.736.295.875.103 1.757.118.88.011 1.756-.07.877-.082 1.74-.255.862-.173 1.701-.437.841-.263 1.648-.613t1.573-.784q.766-.432 1.482-.944.716-.511 1.374-1.096.659-.584 1.252-1.233c9.153-9.847 4.8-27.147 5.698-39.501l22.116-.282c.863 4.932 1.993 11.59 6.348 14.71.576.413.87.537 1.54.899l.712-.268c2.394 4.565 4.79 7.793 9.919 9.343 2.13.644 4.384.853 6.587 1.094l464.632.005c71.183-.075 142.61 1.135 213.761-.223 3.394-.834 6.86-1.862 9.727-3.928 3.869-2.79 4.741-6.453 5.589-10.931 9.407-8.983 17.751-8.84 29.979-9.254-.104 11.063-2.695 30.435 5.488 39.227 3.297 3.541 7.882 5.422 12.7 5.495q.9.013 1.797-.066.897-.078 1.782-.245.885-.168 1.748-.424.864-.256 1.697-.598t1.627-.765q.795-.422 1.544-.923.748-.502 1.443-1.075.694-.573 1.327-1.214c8.946-8.878 6.046-27.935 5.996-39.633 9.71-.508 19.558-.224 29.285-.242-8.277 1.167-17.186.565-25.556.454l-.38 310.24 85.555.001c8.117-.01 20.29-1.73 27.796-.048 1.942.435 3.28 1.005 4.323 2.707l-.288.983c-1.738 2.042-4.517 3.497-7.195 3.867-5.984.825-20.726-.3-27.741-.287q-37.08.222-74.161.039l-194.761.081-762.296.066c-4.558.023-15.83 1.238-19.166-1.499-.535-1.92-.528-2.292-.051-4.229 1.071-1.106 1.995-1.608 3.546-1.817 8.965-1.214 19.683-.177 28.798-.112 25.13.177 50.893 1.47 75.957-.123z" data-index="12"/><path fill="#F8F7FE" d="M1024.944 1023.986c1.673 8.937.871 19.032.788 28.115l-.303 41.822c-.1 46.002.983 92.096.14 138.085-26.604.015-53.33-.44-79.915.526 8.039-5.898 16.175-11.958 21.105-20.855 8.118-14.65 12.447-35.951 17.46-52.04q20.763-67.706 40.725-135.653" data-index="13"/><path fill="#F8F7FE" d="m388.407 1232.002.043-143.69-.075-50.696c-.012-8.833-.398-17.867.122-26.677.06-1.018.35-1.796.813-2.69 5.473 15.405 9.444 31.344 14.219 46.975l32.236 105.755c4.795 15.62 9.054 37.364 17.09 51.294 5.309 9.205 13.523 15.244 22.595 20.376q-43.52-.598-87.043-.647" data-index="14"/><path fill="#F8F7FE" d="M711.959 1003.755c11.995 12.83 23.571 26.1 35.65 38.833 22.485 23.704 48.822 44.898 47.538 80.625-.893 24.855-13.141 36.807-27.536 55.226q-15.531.182-31.064.16c-16.177 1.08-35.953.44-52.345.026l-29.265.058c-15.492-15.749-27.924-34.997-27.85-57.74.117-35.659 28.825-58.726 51.71-82.352 9.762-10.075 18.798-21.012 28.804-30.814q2.126-2.068 4.358-4.022" data-index="15"/><path fill="#75EE4F" d="M710.413 1087.443c15.31 16.043 42.4 38.202 41.444 62.279-.44 11.064-5.924 20.668-14.097 27.845q-.6.523-1.213 1.031c-16.177 1.08-35.953.44-52.345.027-7.721-6.905-13.426-15.712-13.998-26.357-.97-18.042 11.701-31.387 22.598-44.093q8.907-10.28 17.611-20.732" data-index="16"/><path fill="#75EE4F" d="M1131.389 921.96c9.71-.508 19.558-.224 29.285-.242-8.277 1.167-17.186.565-25.556.454l-.38 310.24c-12.864-.863-26.173-.35-39.077-.356l-70.092-.048c.843-45.989-.24-92.083-.14-138.085l.303-41.822c.083-9.083.885-19.178-.788-28.115 2.314-9.956 6.16-19.905 9.107-29.721 4.828-16.088 9.09-32.185 14.894-47.971 3.394-.834 6.86-1.862 9.727-3.928 3.869-2.79 4.741-6.453 5.589-10.931 9.407-8.983 17.751-8.84 29.979-9.254-.104 11.063-2.695 30.435 5.488 39.227 3.297 3.541 7.882 5.422 12.7 5.495q.9.013 1.797-.066.897-.078 1.782-.245.885-.168 1.748-.424.864-.256 1.697-.598t1.627-.765q.795-.422 1.544-.923.748-.502 1.443-1.075.694-.573 1.327-1.214c8.946-8.878 6.046-27.935 5.996-39.633" data-index="17"/><path fill="#75EE4F" d="m276.172 920.837 11.317-.08c-.098 11.27-3.122 30.92 5.09 39.599q.599.647 1.26 1.23.663.583 1.38 1.096t1.482.952q.766.439 1.57.797.806.36 1.643.637t1.699.468q.86.191 1.736.295.875.103 1.757.118.88.011 1.756-.07.877-.082 1.74-.255.862-.173 1.701-.437.841-.263 1.648-.613t1.573-.784q.766-.432 1.482-.944.716-.511 1.374-1.096.659-.584 1.252-1.233c9.153-9.847 4.8-27.147 5.698-39.501l22.116-.282c.863 4.932 1.993 11.59 6.348 14.71.576.413.87.537 1.54.899l.712-.268c2.394 4.565 4.79 7.793 9.919 9.343 2.13.644 4.384.853 6.587 1.094 4.913 12.804 8.219 26.353 11.984 39.538 2.121 7.432 4.76 14.754 6.774 22.198-.462.895-.753 1.673-.813 2.69-.52 8.81-.134 17.845-.122 26.678l.075 50.695-.043 143.691c-37.66-.07-75.74-1.299-113.353.039z" data-index="18"/><path fill="#F8F7FE" d="M555.458 325.768c48.828 3.488 106.653 21.619 139.777 59.568 8.357 9.575 16.447 22.291 19.41 34.784 3.693 15.571 2.319 47.937 2.326 64.879.018 41.013-.68 82.157.072 123.155l23.98-.018c6.081-.035 12.655-.586 18.63.537q.76.138 1.491.387t1.416.604q.686.355 1.311.808.626.453 1.177.994c1.761 1.712 2.893 4.005 3.382 6.397 1.105 5.397.445 11.741.396 17.261-.11 12.477-.549 25.034-.279 37.504-.612 3.234-1.242 5.879-4.036 7.894-2.07 1.492-4.573 2.234-7.024 2.836-51.382.981-102.962.107-154.366.161l-335.53-.003c-1.591-.174-3.219-.325-4.757-.79-3.704-1.12-5.434-3.451-7.163-6.747q-.159-1.874-.248-3.753c-.581-12.279-.141-24.672-.093-36.962.023-5.974-.612-12.285.057-18.219.212-1.879.545-3.983 1.937-5.379 1.639-1.646 4.335-2.473 6.553-2.896 9.791-1.868 32.317-.729 43.122-.676l-.066-125.441-.123-30.514c-.056-9.43-.576-19.106 1.381-28.386 3.005-14.247 10.702-27.738 20.245-38.603 33.044-37.623 91.001-55.837 139.669-59.083-.037 6.927-1.651 38.033 2.006 41.804 2.835 2.923 11.93 1.772 15.778 1.668l4.175-.04 37.381.011c6.353-.002 13.212.453 19.508-.252 2.085-.234 6.296-.979 7.609-2.874 2.1-3.029.806-34.808.896-40.616" data-index="19" style="opacity:1" transform="scale(1.38477)"/><path fill="#75EE4F" d="M677.164 750.156c2.841-14.548 7.184-26.784 14.958-39.373 1.652-2.675 2.976-5.294 5.468-7.309l1.374-.152c.576.604 1.235.942 1.22 1.85-.06 3.602-8.67 15.824-10.665 19.917-3.797 7.79-6.81 16.268-8.62 24.751z" data-index="20"/><path fill="#75EE4F" d="M566.307 773.195c6.988-19.469 18.55-35.63 28.104-53.745 20.589-39.035 20.468-81.124.846-120.48-3.488-6.999-18.988-29.712-19.033-34.633l.926-.517c10.01 4.82 24.58 36.598 28.582 47.344 13.318 35.765 11.73 73.153-5.531 107.44-8.979 17.832-20.04 34.251-28.396 52.507-1.818.728-3.624 1.506-5.498 2.084" data-index="21"/><path fill="#75EE4F" d="m859.514 775.132.324-.81c13.888-35.532 14.582-75.27-1.1-110.337-5.335-11.931-12.526-22.84-18.188-34.578-13.363-27.7-12.208-57.187-1.342-85.503 1.9-4.953 3.92-10.622 7.523-14.6l1.605-.532c.613.6 1.34.969 1.385 1.893.123 2.492-7.914 19.993-9.145 23.831q-.818 2.528-1.506 5.094-.689 2.564-1.245 5.162-.558 2.597-.982 5.22-.424 2.62-.715 5.261-.29 2.641-.446 5.292t-.175 5.307q-.021 2.658.092 5.311.115 2.653.365 5.298c2.084 21.244 12.719 37.828 22.555 56.157 21.256 39.608 20.723 82.983 4.103 123.963z" data-index="22"/><path fill="#75EE4F" d="m672.845 511.726 5.781-.055c-2.994 31.98 8.451 61.326 28.666 85.733 8.702 10.506 18.318 20.288 26.762 30.998 27.24 34.546 40.386 73.549 36.256 117.794q-.317 3.381-.695 6.757a75 75 0 0 1-5.726-.663l1.235-.658c2.976-7.954 1.165-26.852.303-35.378-4.52-44.761-22.797-71.529-51.667-104.134-11.191-12.64-21.979-25.227-29.213-40.661-9.082-19.379-11.546-38.608-11.702-59.733" data-index="23"/><path fill="#080717" d="M680.9 749.84c27.702-1.157 55.461-1.316 82.989 2.45 1.918.294 3.792.517 5.726.663 23.981 4.047 46.462 8.402 69.786 15.54 6.605 2.022 13.792 3.84 20.113 6.639l3.108 1.429c31.063 9.63 68.698 31.612 95.027 50.816 4.858 3.543 11.477 7.542 14.638 12.669l.039 1.477c-2.513 1.446-5.304.791-8.073.376-.177-.189-.348-.385-.532-.568-10.492-10.432-26.194-19.222-38.958-26.72q-5.89-3.507-11.895-6.817-6.003-3.31-12.112-6.42-6.11-3.11-12.32-6.019-6.209-2.907-12.51-5.607-6.303-2.699-12.69-5.19-6.387-2.49-12.854-4.768t-13.005-4.341q-6.539-2.063-13.141-3.91-6.603-1.845-13.262-3.472t-13.371-3.033q-6.711-1.405-13.463-2.59-6.754-1.183-13.542-2.143t-13.605-1.694q-6.816-.735-13.653-1.244t-13.687-.793-13.706-.339q-7.3-.06-14.596.122-7.297.183-14.584.608t-14.555 1.093q-7.269.667-14.513 1.575-7.242.909-14.45 2.058-7.207 1.15-14.374 2.538-7.166 1.388-14.282 3.015-7.117 1.626-14.175 3.487-7.056 1.862-14.05 3.958-6.991 2.096-13.91 4.423-6.918 2.327-13.755 4.884-6.838 2.555-13.585 5.337t-13.4 5.787q-6.653 3.004-13.202 6.23-6.548 3.225-12.986 6.664-6.437 3.442-12.757 7.095c-13.418 7.74-28.205 15.672-39.358 26.522-4.42.544-9.24.237-13.712.288 6.369-6.09 14.028-10.913 21.272-15.896q6.06-4.231 12.269-8.24t12.56-7.792q6.35-3.784 12.832-7.333 6.484-3.55 13.09-6.864 6.607-3.314 13.33-6.385 6.723-3.073 13.552-5.9 6.83-2.827 13.756-5.406 6.928-2.578 13.943-4.904c1.874-.578 3.68-1.356 5.498-2.084 38.603-11.501 65.463-16.328 105.359-20.955z" data-index="24"/><path fill="#75EE4F" d="M453.415 841.627c11.153-10.85 25.94-18.781 39.358-26.522q6.32-3.653 12.757-7.095 6.438-3.44 12.986-6.664 6.549-3.226 13.201-6.23t13.4-5.787 13.586-5.337q6.837-2.557 13.755-4.884t13.91-4.423q6.994-2.096 14.05-3.958 7.058-1.861 14.175-3.487 7.116-1.627 14.282-3.015 7.165-1.388 14.374-2.538 7.208-1.15 14.45-2.058 7.244-.908 14.513-1.575 7.268-.668 14.555-1.093t14.584-.608 14.596-.122q6.856.057 13.706.34t13.687.792 13.653 1.244q6.817.734 13.605 1.694t13.542 2.144q6.752 1.184 13.463 2.59t13.371 3.032 13.262 3.473 13.141 3.909q6.538 2.063 13.005 4.341t12.853 4.768q6.388 2.491 12.69 5.19t12.512 5.607 12.319 6.018 12.112 6.421 11.895 6.818c12.764 7.497 28.466 16.287 38.958 26.719.184.183.355.38.532.568-25.16-1.007-50.607-.376-75.798-.409l-138.71-.073-182.935-.032q-56.698-.321-113.395.242" data-index="25"/><path fill="#080717" d="m391.008 849.889 643.345-.346c5.467-.018 15.318-1.155 19.319 3.108 1.278 1.364 2.09 2.924 2.455 4.756 1.82 9.157.567 45.032.6 56.774.015 5.594 1.617 17.433-2.813 21.5-5.304 4.871-21.486 2.726-28.665 2.678l-440.732.188-146.47-.106-44.956-.06c-9.22.003-18.705.457-27.879-.399-1.837-1.138-2.49-2.621-3.007-4.642-1.428-5.579-1.237-65.584-.614-73.254.243-2.984.618-5.792 2.203-8.37 4.742-2.984 20.885-1.768 27.214-1.827" data-index="26"/><path fill="#F8F7FE" d="M766.358 889.298c2.356.404 3.317.809 5.075 2.505 1.361 3.498.424 5.91-.889 9.254-.192.013-.385.036-.577.04-2.248.035-3.026-.393-4.56-1.89-1.334-3.63-.366-6.408.951-9.91" data-index="27"/><path fill="#F8F7FE" d="M708.832 889.291c1.28.172 2.174.28 3.316.94 1.216.705 2.004 2.242 2.154 3.628.31 2.89-.964 5.42-2.529 7.718-1.408-.101-2.307-.542-3.56-1.168-.737-.975-1.43-1.832-1.617-3.088-.43-2.883.735-5.66 2.236-8.03" data-index="28"/><path fill="#F8F7FE" d="M535.83 888.543c1.224.46 2.058 1.108 3.08 1.911.653 1.418 1.117 2.42 1.218 4.006.19 3.02-1.415 5.791-3.308 7.972-.91-.6-.92-.574-1.821-1.329-1.529-1.28-2.278-3.214-2.335-5.185-.087-3.013 1.215-5.216 3.166-7.375" data-index="29"/><path fill="#F8F7FE" d="M474.345 889.375c1.484-.052 2.53.208 3.944.648.937.854 1.757 1.539 2.124 2.814.796 2.764-.215 5.569-1.38 8.042-1.333.141-2.344.05-3.658-.198-.951-.885-1.645-1.294-2.116-2.539-1.075-2.838-.001-6.108 1.086-8.767" data-index="30"/><path fill="#F8F7FE" d="M416.067 888.575c.965.226 1.942.447 2.782 1.01 1.548 1.035 2.239 2.764 2.494 4.532.428 2.962-.942 5.446-2.698 7.672-1.399-.291-2.1-.655-3.322-1.345-.803-1.116-1.31-1.918-1.595-3.294-.612-2.951.73-6.19 2.339-8.575" data-index="31"/><path fill="#F8F7FE" d="M650.695 889.298c1.152.062 2.45.005 3.475.629 1.27.77 2.068 2.46 2.253 3.882.37 2.866-.637 5.243-2.118 7.6-1.436-.003-2.386-.224-3.732-.72-.947-.937-1.484-1.543-1.875-2.857-.82-2.758.648-6.194 1.997-8.534" data-index="32"/><path fill="#F8F7FE" d="M591.89 888.73c1.661.166 2.608.421 4.058 1.256.905 1.176 1.435 1.874 1.742 3.37.574 2.784-.88 5.976-2.368 8.226-.929-.1-1.789-.209-2.625-.676-1.587-.884-2.332-2.428-2.732-4.132-.679-2.888.47-5.63 1.925-8.044" data-index="33"/><path fill="#F8F7FE" d="M1000.53 889.283c.902.2 1.757.46 2.58.904 1.57.852 2.63 2.232 2.847 4.04.344 2.878-1.175 5.33-2.704 7.604-1.36-.152-2.643-.184-3.78-1.053-1.27-.971-1.984-2.64-2.013-4.214-.056-2.991 1.243-5.059 3.07-7.281" data-index="34"/><path fill="#F8F7FE" d="M825.196 889.294c1.262.041 2.481.016 3.648.588 1.421.697 2.482 2.098 2.792 3.648.562 2.805-.61 5.2-2.132 7.444-.313-.001-.626.01-.938-.004-2.494-.113-3.251-.746-4.845-2.502-1.132-3.592-.153-5.902 1.475-9.174" data-index="35"/><path fill="#F8F7FE" d="M942.812 889.305c1.098.206 2.148.432 3.165.922 1.548.748 2.708 1.982 3.011 3.722.481 2.75-1.03 4.931-2.512 7.049-1.247-.013-2.64.087-3.784-.522-1.375-.734-2.349-2.325-2.529-3.849-.34-2.905.957-5.119 2.65-7.322" data-index="36"/><path fill="#F8F7FE" d="M883.43 889.403c1.415.143 2.71.195 3.967.949 1.39.833 2.406 2.307 2.651 3.914.435 2.845-.846 5.107-2.409 7.338-1.124-.058-2.135-.105-3.173-.612-1.473-.72-2.49-2.106-2.827-3.705-.604-2.88.518-5.384 1.79-7.884" data-index="37"/></svg>