<?xml version="1.0" encoding="utf-8" ?>
<svg xmlns="http://www.w3.org/2000/svg" xmlns:xlink="http://www.w3.org/1999/xlink" width="1418" height="1418">
	<path fill="#F8F7FE" transform="matrix(1.38477 0 0 1.38477 3.05176e-05 -3.05176e-05)" d="M0 0L1024 0L1024 1024L0 1024L0 0Z"/>
	<path fill="#080717" transform="matrix(1.38477 0 0 1.38477 3.05176e-05 -3.05176e-05)" d="M308.756 117.047L308.892 77.8333C308.91 72.0149 308.293 65.5392 309.011 59.8022C309.286 57.6088 309.799 55.8342 311.269 54.1664L312.181 54.0563C314.222 56.042 314.551 59.042 314.606 61.7734C314.977 80.1666 314.492 98.6783 314.468 117.081L399.853 117.24C415.898 117.248 432.052 116.714 448.079 117.388C457.136 98.5682 468.885 85.2376 489.186 78.2201Q490.779 77.6812 492.397 77.2206Q494.015 76.7599 495.653 76.3785Q497.292 75.9971 498.946 75.6959Q500.601 75.3947 502.269 75.1744Q503.936 74.9541 505.613 74.8152Q507.289 74.6763 508.97 74.6191Q510.651 74.562 512.333 74.5867Q514.015 74.6114 515.694 74.718Q517.372 74.8245 519.044 75.0126Q520.715 75.2008 522.376 75.47Q524.036 75.7393 525.682 76.089Q527.327 76.4388 528.953 76.8681Q530.58 77.2975 532.183 77.8056Q533.787 78.3136 535.364 78.8991Q536.94 79.4846 538.487 80.1461Q540.033 80.8076 541.546 81.5436C557.424 89.4283 570.486 103.778 575.991 120.712C581.216 136.782 579.537 153.504 571.855 168.487C567.501 176.979 561.792 184.522 558.479 193.59C553.738 206.571 555.644 248.918 555.809 264.865C576.076 267.307 596.335 269.33 616.338 273.548C668.335 284.512 722.351 309.33 755.819 351.997C766.948 366.186 775.897 382.846 779.781 400.555C782.822 414.417 781.515 429.692 781.464 443.825C781.386 465.509 781.022 487.234 781.386 508.913C790.491 508.928 798 510.663 804.595 517.388Q805.333 518.143 806.017 518.947Q806.702 519.751 807.331 520.599Q807.96 521.447 808.53 522.336Q809.099 523.224 809.608 524.149Q810.116 525.075 810.561 526.032Q811.006 526.99 811.384 527.975Q811.763 528.961 812.075 529.97Q812.386 530.978 812.628 532.006C814.901 541.547 813.506 554.276 813.46 564.141C813.405 575.567 813.672 587.019 813.458 598.441C813.416 600.643 813.36 602.862 813.19 605.058C814.697 606.836 816.154 608.558 816.987 610.771C819.581 617.659 817.785 628.268 817.861 635.709L818.4 635.758C827.633 636.513 841.376 633.142 848.042 641.038C850.809 644.317 852.022 648.747 851.495 652.988C851.009 656.899 849.12 660.46 845.956 662.845Q845.113 663.471 844.187 663.966Q843.26 664.46 842.271 664.812Q841.281 665.163 840.251 665.364Q839.22 665.565 838.171 665.611C831.147 665.624 824.035 665.419 817.023 665.786C817.059 674.233 819.153 687.995 812.693 694.406Q812.236 694.869 811.735 695.283Q811.233 695.697 810.693 696.059Q810.152 696.421 809.578 696.726Q809.004 697.032 808.403 697.278Q807.801 697.525 807.177 697.71Q806.554 697.895 805.915 698.016Q805.276 698.137 804.628 698.193Q803.98 698.25 803.33 698.241C799.851 698.188 796.54 696.83 794.159 694.273C788.25 687.924 790.121 673.934 790.196 665.945C781.366 666.244 775.34 666.141 768.547 672.628C768.277 660.158 768.716 647.601 768.826 635.124C768.875 629.604 769.535 623.26 768.43 617.863C767.941 615.471 766.809 613.178 765.048 611.466Q764.497 610.925 763.871 610.472Q763.246 610.019 762.56 609.664Q761.875 609.309 761.144 609.06Q760.413 608.811 759.653 608.673C753.678 607.55 747.104 608.101 741.023 608.136L717.043 608.154C716.291 567.156 716.989 526.012 716.971 484.999C716.964 468.057 718.338 435.691 714.645 420.12C711.682 407.627 703.592 394.911 695.235 385.336C662.111 347.387 604.286 329.256 555.458 325.768C555.368 331.576 556.662 363.355 554.562 366.384C553.249 368.279 549.038 369.024 546.953 369.258C540.657 369.963 533.798 369.508 527.445 369.51L490.064 369.499L485.889 369.539C482.041 369.643 472.946 370.794 470.111 367.871C466.454 364.1 468.068 332.994 468.105 326.067C419.437 329.313 361.48 347.527 328.436 385.15C318.893 396.015 311.196 409.506 308.191 423.753C306.234 433.033 306.754 442.709 306.81 452.139L306.933 482.653L306.999 608.094C296.194 608.041 273.668 606.902 263.877 608.77C261.659 609.193 258.963 610.02 257.324 611.666C255.932 613.062 255.599 615.166 255.387 617.045C254.718 622.979 255.353 629.29 255.33 635.264C255.282 647.554 254.842 659.947 255.423 672.226Q255.512 674.105 255.671 675.979L255.157 676.172C254.673 675.911 254.461 675.821 254.045 675.523C250.9 673.27 250.084 668.462 249.461 664.9L233.49 665.104C232.842 674.025 235.985 686.518 229.375 693.629Q228.947 694.098 228.471 694.52Q227.996 694.942 227.479 695.311Q226.962 695.681 226.409 695.993Q225.855 696.306 225.273 696.559Q224.69 696.812 224.083 697.002Q223.477 697.192 222.854 697.317Q222.231 697.442 221.598 697.501Q220.965 697.56 220.33 697.552Q219.693 697.541 219.061 697.466Q218.428 697.392 217.807 697.254Q217.185 697.116 216.58 696.916Q215.976 696.716 215.394 696.456Q214.813 696.197 214.26 695.88Q213.708 695.563 213.19 695.192Q212.672 694.822 212.194 694.401Q211.716 693.98 211.283 693.513C205.353 687.245 207.537 673.055 207.608 664.917L199.435 664.975C192.024 665.16 182.903 666.534 177.002 661.031Q176.487 660.548 176.024 660.016Q175.56 659.483 175.154 658.905Q174.748 658.328 174.402 657.712Q174.057 657.096 173.777 656.449Q173.496 655.801 173.283 655.128Q173.07 654.454 172.927 653.763Q172.784 653.072 172.712 652.369Q172.641 651.667 172.641 650.961C172.665 647.128 174.444 643.532 177.254 640.971C183.352 635.411 191.95 636.873 199.534 637.061C199.547 629.984 197.993 620.07 200.795 613.591C202.564 609.502 205.761 607.407 209.794 605.87C209.055 592.917 209.598 579.668 209.59 566.684C209.584 556.595 208.338 544.953 210.302 535.092Q210.505 534.026 210.777 532.976Q211.05 531.925 211.392 530.895Q211.734 529.865 212.143 528.86Q212.553 527.855 213.028 526.88Q213.503 525.904 214.041 524.962Q214.58 524.02 215.18 523.115Q215.78 522.211 216.438 521.349Q217.097 520.486 217.811 519.669C224.281 512.354 232.074 508.863 241.688 507.923L241.939 447.502C241.967 436.695 241.313 425.432 242.267 414.68C245.026 383.581 261.16 358.143 282.886 336.703C323.637 296.489 382.969 275.928 438.598 267.921C448.397 266.511 458.235 266.022 468.087 265.188L468.035 205.808C452.112 205.107 436.052 205.496 420.109 205.473Q367.269 205.374 314.429 205.811L314.427 249.463C314.423 256.694 315.516 267.305 313.735 274.243C312.385 275.044 311.039 275.145 309.501 275.198C302.033 275.455 294.429 275.086 286.943 275.085L235.117 275.113L73.6116 275.398C74.5634 273.483 75.4678 271.52 76.5329 269.666C153.908 268.811 231.367 269.524 308.753 269.519L308.874 205.892L175.551 205.62Q157.649 205.607 139.747 205.776C133.97 205.832 127.872 206.318 122.127 205.97C121.108 205.908 120.296 205.631 119.521 204.94C118.923 204.409 119.009 204.021 118.871 203.283C119.523 201.964 120.091 201.249 121.527 200.753C125.923 199.233 194.418 200.176 204.845 200.259L204.88 144.754C204.868 137.941 205.852 129.194 204.645 122.669L202.345 121.423C202.082 120.031 202.301 119.686 202.799 118.335C203.588 117.603 204.21 117.201 205.305 117.074C208.587 116.691 212.309 117.027 215.639 117.05L237.218 117.162L308.756 117.047Z"/>
	<path fill="#FE0" transform="matrix(1.38477 0 0 1.38477 3.05176e-05 -3.05176e-05)" d="M199.534 637.061C199.547 629.984 197.993 620.07 200.795 613.591C202.564 609.502 205.761 607.407 209.794 605.87C206.911 616.336 207.452 626.44 207.528 637.174C204.868 637.153 202.19 637.198 199.534 637.061Z"/>
	<path fill="#FE0" transform="matrix(1.38477 0 0 1.38477 3.05176e-05 -3.05176e-05)" d="M241.518 612.998L241.548 625.102C244.094 626.867 246.764 628.046 249.59 629.282L249.635 637.198L233.547 637.336Q233.673 625.194 233.528 613.052C236.184 613.207 238.859 613.065 241.518 612.998Z"/>
	<path fill="#F8F7FE" transform="matrix(1.38477 0 0 1.38477 3.05176e-05 -3.05176e-05)" d="M219.073 609.055C220.168 609.037 221.307 609 222.377 609.258C224.178 609.692 225.86 610.746 226.749 612.412C228.184 615.101 228.764 682.678 227.19 686.96C226.332 689.295 224.21 690.491 222.116 691.555C220.962 691.554 219.747 691.585 218.617 691.324C216.767 690.898 215.108 689.789 214.181 688.109C213.196 686.325 213.281 683.573 213.191 681.563C212.841 673.752 212.41 616.75 213.732 613.317C214.638 610.965 216.937 609.986 219.073 609.055Z"/>
	<path fill="#F8F7FE" transform="matrix(1.38477 0 0 1.38477 3.05176e-05 -3.05176e-05)" d="M802 608.504C803.388 608.371 804.873 608.288 806.242 608.608C808.071 609.035 809.708 610.274 810.585 611.94C811.175 613.061 811.232 614.264 811.282 615.504C811.558 622.318 811.327 685.916 810.495 687.903C809.602 690.035 808.128 690.739 806.196 691.74Q805.127 691.824 804.054 691.848C802.083 691.875 799.985 691.432 798.572 689.957C797.445 688.779 796.998 687.34 796.804 685.756C795.785 677.442 796.576 668.176 796.541 659.755C796.475 644.392 795.958 628.886 796.555 613.539C798.088 611.311 799.708 609.925 802 608.504Z"/>
	<path fill="#F8F7FE" transform="matrix(1.38477 0 0 1.38477 3.05176e-05 -3.05176e-05)" d="M241.591 512.86C242.859 523.638 241.949 535.32 241.938 546.225Q242.07 579.614 241.518 612.998C238.859 613.065 236.184 613.207 233.528 613.052C232.513 610.57 231.192 608.55 229.099 606.832C225.023 603.487 220.273 603.341 215.297 603.818C215.406 588.868 215.217 573.909 215.163 558.959C215.137 551.607 214.488 543.633 215.551 536.354Q215.737 535.087 216.052 533.845Q216.366 532.604 216.805 531.401Q217.244 530.197 217.804 529.045Q218.363 527.893 219.037 526.804C224.338 518.245 232.344 515.23 241.591 512.86Z"/>
	<path fill="#F8F7FE" transform="matrix(1.38477 0 0 1.38477 3.05176e-05 -3.05176e-05)" d="M781.099 514.592C781.411 514.586 781.723 514.577 782.035 514.574C789.071 514.514 795.937 516.429 800.9 521.669C804.017 524.961 805.999 529.009 807.001 533.409C808.946 541.943 807.962 552.235 807.969 561.011Q808.088 581.67 807.815 602.327C802.918 602.289 798.075 603.029 794.427 606.628C789.917 611.077 790.039 617.025 790.069 622.875L790.125 635.746L775.861 635.779C775.763 631.528 775.514 627.101 776.309 622.904C777.654 615.808 780.666 609.502 781.012 602.178C781.403 593.915 781.149 585.533 781.148 577.259C781.147 556.38 780.738 535.466 781.099 514.592Z"/>
	<path fill="#F8F7FE" transform="matrix(1.38477 0 0 1.38477 3.05176e-05 -3.05176e-05)" d="M210.684 122.712C237.919 122.262 265.267 122.871 292.515 122.825L445.898 122.899C440.763 144.609 444.334 157.93 456.025 176.55C460.557 183.768 464.633 190.641 467.075 198.883L466.866 199.735C465.738 200.419 464.701 200.37 463.419 200.406C454.166 200.666 444.827 200.333 435.563 200.328L375.495 200.303L210.634 200.238L210.684 122.712Z"/>
	<path fill="#F8F7FE" transform="matrix(1.38477 0 0 1.38477 3.05176e-05 -3.05176e-05)" d="M503.759 80.6615C508.234 80.1957 512.911 80.0873 517.392 80.4676C533.091 81.7999 549.09 89.9722 559.152 102.133C568.1 112.949 573.586 127.522 573.263 141.614C572.674 167.29 552.757 179.642 550.135 203.518C548.979 214.041 549.904 229.122 549.911 240.085L549.864 319.986C549.885 334.432 550.859 349.586 549.563 363.932C539.5 364.342 529.325 364.034 519.25 364.035L473.849 364.022C472.846 325.641 473.722 287.081 473.793 248.687L473.749 217.865C473.707 212.079 474.05 205.905 473.075 200.198C469.761 180.801 452.942 167.544 449.926 148.149C447.536 132.773 452.198 117.33 461.404 104.944C471.648 91.1626 486.948 83.0733 503.759 80.6615Z"/>
	<path fill="#080717" transform="matrix(1.38477 0 0 1.38477 3.05176e-05 -3.05176e-05)" d="M508.398 106.207C517.251 105.673 524.9 107.239 532.213 112.45C539.854 117.895 545.549 125.903 547.102 135.246Q547.255 136.138 547.364 137.036Q547.472 137.935 547.535 138.838Q547.597 139.741 547.614 140.646Q547.632 141.551 547.603 142.455Q547.575 143.36 547.501 144.262Q547.426 145.164 547.307 146.061Q547.188 146.958 547.023 147.848Q546.858 148.738 546.649 149.618Q546.44 150.499 546.186 151.368Q545.933 152.237 545.636 153.092Q545.339 153.946 545 154.785Q544.66 155.624 544.279 156.445Q543.897 157.266 543.475 158.066Q543.052 158.867 542.59 159.645Q542.128 160.423 541.627 161.177Q541.126 161.93 540.588 162.658C534.203 171.438 525.156 175.459 514.687 177.122C505.317 178.122 495.805 175.682 488.383 169.792C481.153 164.055 476.176 154.852 475.134 145.697Q475.028 144.815 474.966 143.928Q474.904 143.041 474.887 142.153Q474.869 141.264 474.897 140.376Q474.924 139.488 474.996 138.602Q475.068 137.716 475.185 136.835Q475.302 135.954 475.462 135.08Q475.623 134.205 475.827 133.34Q476.032 132.475 476.279 131.622Q476.527 130.768 476.817 129.928Q477.107 129.088 477.439 128.264Q477.771 127.439 478.144 126.633Q478.518 125.826 478.931 125.039Q479.344 124.252 479.796 123.487Q480.248 122.722 480.738 121.981Q481.228 121.239 481.755 120.523Q482.282 119.807 482.844 119.119C489.172 111.412 498.594 107.116 508.398 106.207Z"/>
	<path fill="#F8F7FE" transform="matrix(1.38477 0 0 1.38477 3.05176e-05 -3.05176e-05)" d="M505.793 112.152C512.802 111.368 519.611 112.059 525.963 115.277C532.814 118.749 538.387 125.202 540.703 132.552Q540.928 133.253 541.118 133.965Q541.307 134.677 541.46 135.397Q541.613 136.118 541.73 136.845Q541.847 137.572 541.926 138.304Q542.006 139.036 542.048 139.772Q542.091 140.507 542.096 141.243Q542.102 141.98 542.07 142.716Q542.038 143.452 541.969 144.185Q541.9 144.918 541.794 145.647Q541.688 146.376 541.545 147.098Q541.402 147.821 541.223 148.535Q541.044 149.25 540.829 149.954Q540.614 150.659 540.364 151.351Q540.114 152.044 539.829 152.723Q539.544 153.402 539.225 154.066Q538.906 154.73 538.554 155.377C534.028 163.531 526.327 168.591 517.471 170.955C510.256 172.305 502.523 171.279 496.058 167.75C488.904 163.845 483.852 157.055 481.682 149.249C479.555 141.593 480.849 133.037 484.929 126.223C489.763 118.15 496.994 114.384 505.793 112.152Z"/>
	<path fill="#080717" transform="matrix(1.38477 0 0 1.38477 3.05176e-05 -3.05176e-05)" d="M199.435 664.975L207.608 664.917C207.537 673.055 205.353 687.245 211.283 693.513Q211.716 693.98 212.194 694.401Q212.672 694.822 213.19 695.193Q213.708 695.563 214.26 695.88Q214.813 696.197 215.394 696.456Q215.976 696.716 216.58 696.916Q217.185 697.116 217.807 697.254Q218.428 697.392 219.061 697.467Q219.693 697.541 220.33 697.552Q220.965 697.56 221.598 697.501Q222.231 697.442 222.854 697.317Q223.477 697.192 224.083 697.002Q224.69 696.812 225.273 696.559Q225.855 696.306 226.409 695.993Q226.962 695.681 227.479 695.311Q227.996 694.942 228.471 694.52Q228.947 694.098 229.375 693.629C235.985 686.518 232.842 674.025 233.49 665.104L249.461 664.9C250.084 668.462 250.9 673.27 254.045 675.523C254.461 675.821 254.673 675.911 255.157 676.172L255.671 675.979C257.4 679.275 259.13 681.606 262.834 682.726C264.372 683.191 266 683.342 267.591 683.516L603.121 683.519C654.525 683.465 706.105 684.339 757.487 683.358C759.938 682.756 762.441 682.014 764.511 680.522C767.305 678.507 767.935 675.862 768.547 672.628C775.34 666.141 781.366 666.244 790.196 665.945C790.121 673.934 788.25 687.924 794.159 694.273C796.54 696.83 799.851 698.188 803.33 698.241Q803.98 698.25 804.628 698.193Q805.276 698.137 805.915 698.016Q806.554 697.895 807.177 697.71Q807.801 697.525 808.403 697.278Q809.005 697.032 809.578 696.726Q810.152 696.421 810.693 696.059Q811.233 695.697 811.735 695.283Q812.236 694.869 812.693 694.406C819.153 687.995 817.059 674.233 817.023 665.786C824.035 665.419 831.147 665.624 838.171 665.611C832.194 666.454 825.76 666.019 819.716 665.939L819.442 889.976L881.224 889.977C887.086 889.97 895.877 888.728 901.297 889.942C902.699 890.256 903.666 890.668 904.419 891.897L904.211 892.607C902.956 894.081 900.949 895.132 899.015 895.399C894.694 895.995 884.048 895.183 878.982 895.192Q852.205 895.352 825.427 895.22L684.782 895.279L134.297 895.326C131.005 895.343 122.865 896.22 120.456 894.244C120.07 892.858 120.075 892.589 120.419 891.19C121.193 890.391 121.86 890.029 122.98 889.878C129.454 889.001 137.194 889.75 143.776 889.797C161.924 889.925 180.528 890.859 198.628 889.708L199.435 664.975Z"/>
	<path fill="#F8F7FE" transform="matrix(1.38477 0 0 1.38477 3.05176e-05 -3.05176e-05)" d="M740.155 739.463C741.363 745.917 740.784 753.207 740.724 759.766L740.505 789.967C740.433 823.187 741.215 856.474 740.606 889.684C721.394 889.695 702.094 889.366 682.896 890.064C688.701 885.805 694.577 881.429 698.137 875.004C703.999 864.425 707.125 849.042 710.746 837.423Q725.739 788.53 740.155 739.463Z"/>
	<path fill="#F8F7FE" transform="matrix(1.38477 0 0 1.38477 3.05176e-05 -3.05176e-05)" d="M280.485 889.68L280.516 785.915L280.462 749.306C280.453 742.927 280.174 736.403 280.55 730.041C280.593 729.306 280.803 728.744 281.137 728.098C285.089 739.223 287.957 750.733 291.405 762.021L314.684 838.391C318.147 849.671 321.222 865.373 327.025 875.433C330.859 882.08 336.791 886.441 343.342 890.147Q311.915 889.715 280.485 889.68Z"/>
	<path fill="#F8F7FE" transform="matrix(1.38477 0 0 1.38477 3.05176e-05 -3.05176e-05)" d="M514.135 724.853C522.797 734.119 531.157 743.701 539.879 752.896C556.117 770.014 575.136 785.319 574.209 811.119C573.564 829.068 564.719 837.699 554.324 851Q543.108 851.131 531.891 851.115C520.209 851.895 505.928 851.433 494.091 851.134L472.957 851.176C461.77 839.803 452.792 825.903 452.846 809.48C452.93 783.729 473.661 767.071 490.188 750.01C497.237 742.734 503.762 734.836 510.988 727.758Q512.523 726.264 514.135 724.853Z"/>
	<path fill="#FE0" transform="matrix(1.38477 0 0 1.38477 3.05176e-05 -3.05176e-05)" d="M513.019 785.288C524.075 796.873 543.637 812.875 542.947 830.262C542.63 838.252 538.669 845.187 532.767 850.37Q532.334 850.748 531.891 851.115C520.209 851.895 505.928 851.433 494.091 851.134C488.515 846.148 484.395 839.788 483.982 832.101C483.282 819.072 492.432 809.435 500.301 800.259Q506.733 792.836 513.019 785.288Z"/>
	<path fill="#FE0" transform="matrix(1.38477 0 0 1.38477 3.05176e-05 -3.05176e-05)" d="M817.023 665.786C824.035 665.419 831.147 665.624 838.171 665.611C832.194 666.454 825.76 666.019 819.716 665.939L819.442 889.976C810.152 889.353 800.541 889.723 791.222 889.719L740.606 889.684C741.215 856.474 740.433 823.187 740.505 789.967L740.724 759.766C740.784 753.207 741.363 745.917 740.155 739.463C741.826 732.273 744.603 725.089 746.731 718C750.218 706.382 753.296 694.758 757.487 683.358C759.938 682.756 762.441 682.014 764.511 680.522C767.305 678.507 767.935 675.862 768.547 672.628C775.34 666.141 781.366 666.244 790.196 665.945C790.121 673.934 788.25 687.924 794.159 694.273C796.54 696.83 799.851 698.188 803.33 698.241Q803.98 698.25 804.628 698.193Q805.276 698.137 805.915 698.016Q806.554 697.895 807.177 697.71Q807.801 697.525 808.403 697.278Q809.005 697.032 809.578 696.726Q810.152 696.421 810.693 696.059Q811.233 695.697 811.735 695.283Q812.236 694.869 812.693 694.406C819.153 687.995 817.059 674.233 817.023 665.786Z"/>
	<path fill="#FE0" transform="matrix(1.38477 0 0 1.38477 3.05176e-05 -3.05176e-05)" d="M199.435 664.975L207.608 664.917C207.537 673.055 205.353 687.245 211.283 693.513Q211.716 693.98 212.194 694.401Q212.672 694.822 213.19 695.193Q213.708 695.563 214.26 695.88Q214.813 696.197 215.394 696.456Q215.976 696.716 216.58 696.916Q217.185 697.116 217.807 697.254Q218.428 697.392 219.061 697.467Q219.693 697.541 220.33 697.552Q220.965 697.56 221.598 697.501Q222.231 697.442 222.854 697.317Q223.477 697.192 224.083 697.002Q224.69 696.812 225.273 696.559Q225.855 696.306 226.409 695.993Q226.962 695.681 227.479 695.311Q227.996 694.942 228.471 694.52Q228.947 694.098 229.375 693.629C235.985 686.518 232.842 674.025 233.49 665.104L249.461 664.9C250.084 668.462 250.9 673.27 254.045 675.523C254.461 675.821 254.673 675.911 255.157 676.172L255.671 675.979C257.4 679.275 259.13 681.606 262.834 682.726C264.372 683.191 266 683.342 267.591 683.516C271.139 692.762 273.526 702.546 276.245 712.068C277.777 717.435 279.683 722.722 281.137 728.098C280.803 728.744 280.593 729.306 280.55 730.041C280.174 736.403 280.453 742.927 280.462 749.306L280.516 785.915L280.485 889.68C253.289 889.63 225.79 888.742 198.628 889.708L199.435 664.975Z"/>
	<path fill="#F8F7FE" transform="matrix(1.38477 0 0 1.38477 3.05176e-05 -3.05176e-05)" d="M555.458 325.768C604.286 329.256 662.111 347.387 695.235 385.336C703.592 394.911 711.682 407.627 714.645 420.12C718.338 435.691 716.964 468.057 716.971 484.999C716.989 526.012 716.291 567.156 717.043 608.154L741.023 608.136C747.104 608.101 753.678 607.55 759.653 608.673Q760.413 608.811 761.144 609.06Q761.875 609.309 762.56 609.664Q763.246 610.019 763.871 610.472Q764.497 610.925 765.048 611.466C766.809 613.178 767.941 615.471 768.43 617.863C769.535 623.26 768.875 629.604 768.826 635.124C768.716 647.601 768.277 660.158 768.547 672.628C767.935 675.862 767.305 678.507 764.511 680.522C762.441 682.014 759.938 682.756 757.487 683.358C706.105 684.339 654.525 683.465 603.121 683.519L267.591 683.516C266 683.342 264.372 683.191 262.834 682.726C259.13 681.606 257.4 679.275 255.671 675.979Q255.512 674.105 255.423 672.226C254.842 659.947 255.282 647.554 255.33 635.264C255.353 629.29 254.718 622.979 255.387 617.045C255.599 615.166 255.932 613.062 257.324 611.666C258.963 610.02 261.659 609.193 263.877 608.77C273.668 606.902 296.194 608.041 306.999 608.094L306.933 482.653L306.81 452.139C306.754 442.709 306.234 433.033 308.191 423.753C311.196 409.506 318.893 396.015 328.436 385.15C361.48 347.527 419.437 329.313 468.105 326.067C468.068 332.994 466.454 364.1 470.111 367.871C472.946 370.794 482.041 369.643 485.889 369.539L490.064 369.499L527.445 369.51C533.798 369.508 540.657 369.963 546.953 369.258C549.038 369.024 553.249 368.279 554.562 366.384C556.662 363.355 555.368 331.576 555.458 325.768Z"/>
	<path fill="#FE0" transform="matrix(1.38477 0 0 1.38477 3.05176e-05 -3.05176e-05)" d="M489.008 541.719C491.06 531.213 494.196 522.377 499.81 513.286C501.003 511.354 501.959 509.463 503.759 508.008L504.751 507.898C505.167 508.334 505.643 508.578 505.632 509.234C505.589 511.835 499.371 520.661 497.93 523.617C495.188 529.242 493.013 535.365 491.706 541.491L489.008 541.719Z"/>
	<path fill="#FE0" transform="matrix(1.38477 0 0 1.38477 3.05176e-05 -3.05176e-05)" d="M408.954 558.356C414 544.297 422.349 532.627 429.249 519.545C444.117 491.356 444.03 460.962 429.86 432.541C427.341 427.487 416.148 411.085 416.115 407.531L416.784 407.158C424.012 410.638 434.534 433.587 437.424 441.347C447.042 467.174 445.895 494.174 433.43 518.934C426.946 531.811 418.958 543.668 412.924 556.851C411.611 557.377 410.307 557.939 408.954 558.356Z"/>
	<path fill="#FE0" transform="matrix(1.38477 0 0 1.38477 3.05176e-05 -3.05176e-05)" d="M620.691 559.755L620.925 559.17C630.954 533.511 631.455 504.815 620.13 479.491C616.278 470.875 611.085 462.997 606.996 454.521C597.346 434.518 598.18 413.224 606.027 392.776C607.399 389.199 608.858 385.105 611.46 382.233L612.619 381.848C613.061 382.282 613.587 382.548 613.619 383.215C613.708 385.015 607.904 397.653 607.015 400.425Q606.424 402.25 605.927 404.103Q605.43 405.955 605.028 407.831Q604.625 409.706 604.319 411.6Q604.013 413.493 603.803 415.4Q603.593 417.307 603.481 419.221Q603.368 421.136 603.354 423.054Q603.339 424.973 603.421 426.889Q603.504 428.805 603.684 430.715C605.189 446.056 612.869 458.032 619.972 471.268C635.322 499.871 634.937 531.194 622.935 560.787L620.691 559.755Z"/>
	<path fill="#FE0" transform="matrix(1.38477 0 0 1.38477 3.05176e-05 -3.05176e-05)" d="M485.889 369.539L490.064 369.499C487.902 392.593 496.167 413.785 510.765 431.41C517.049 438.997 523.993 446.061 530.091 453.795C549.762 478.742 559.255 506.908 556.273 538.859Q556.044 541.301 555.771 543.739C554.374 543.633 553.021 543.472 551.636 543.26L552.528 542.785C554.677 537.041 553.369 523.394 552.747 517.237C549.482 484.913 536.284 465.583 515.436 442.037C507.354 432.91 499.564 423.82 494.34 412.674C487.781 398.68 486.002 384.794 485.889 369.539Z"/>
	<path fill="#080717" transform="matrix(1.38477 0 0 1.38477 3.05176e-05 -3.05176e-05)" d="M491.706 541.491C511.711 540.655 531.757 540.54 551.636 543.26C553.021 543.472 554.374 543.633 555.771 543.739C573.089 546.661 589.323 549.806 606.166 554.961C610.936 556.421 616.126 557.734 620.691 559.755L622.935 560.787C645.367 567.741 672.545 583.615 691.558 597.483C695.066 600.042 699.846 602.93 702.129 606.632L702.157 607.699C700.342 608.743 698.327 608.27 696.327 607.97C696.199 607.834 696.076 607.692 695.943 607.56C688.366 600.027 677.027 593.679 667.81 588.265Q663.556 585.732 659.22 583.342Q654.885 580.951 650.473 578.705Q646.061 576.459 641.577 574.359Q637.093 572.26 632.542 570.31Q627.991 568.361 623.378 566.562Q618.766 564.764 614.096 563.119Q609.426 561.474 604.705 559.984Q599.983 558.494 595.215 557.161Q590.447 555.828 585.638 554.653Q580.828 553.478 575.982 552.463Q571.136 551.448 566.26 550.593Q561.383 549.738 556.481 549.045Q551.579 548.352 546.656 547.822Q541.734 547.291 536.797 546.923Q531.859 546.556 526.913 546.351Q521.966 546.147 517.015 546.106Q511.744 546.062 506.475 546.194Q501.205 546.326 495.943 546.633Q490.681 546.94 485.432 547.422Q480.183 547.904 474.952 548.56Q469.722 549.216 464.517 550.046Q459.312 550.876 454.137 551.879Q448.962 552.881 443.823 554.056Q438.684 555.23 433.587 556.574Q428.491 557.919 423.441 559.432Q418.392 560.946 413.396 562.626Q408.4 564.307 403.463 566.153Q398.525 567.998 393.652 570.007Q388.779 572.016 383.975 574.186Q379.171 576.356 374.442 578.685Q369.713 581.014 365.064 583.498Q360.416 585.983 355.852 588.621C346.162 594.211 335.484 599.939 327.43 607.774C324.238 608.167 320.757 607.945 317.528 607.982C322.127 603.584 327.658 600.101 332.889 596.503Q337.265 593.447 341.749 590.552Q346.233 587.656 350.819 584.925Q355.405 582.193 360.086 579.63Q364.768 577.066 369.539 574.673Q374.31 572.28 379.165 570.062Q384.02 567.843 388.951 565.801Q393.883 563.76 398.885 561.898Q403.888 560.036 408.954 558.356C410.307 557.939 411.611 557.377 412.924 556.851C440.801 548.546 460.198 545.06 489.008 541.719L491.706 541.491Z"/>
	<path fill="#FE0" transform="matrix(1.38477 0 0 1.38477 3.05176e-05 -3.05176e-05)" d="M327.43 607.774C335.484 599.939 346.162 594.211 355.852 588.621Q360.416 585.983 365.064 583.498Q369.713 581.014 374.442 578.685Q379.171 576.356 383.975 574.186Q388.779 572.016 393.652 570.007Q398.525 567.998 403.463 566.153Q408.4 564.307 413.396 562.626Q418.392 560.946 423.441 559.432Q428.491 557.919 433.587 556.574Q438.684 555.23 443.823 554.056Q448.962 552.881 454.137 551.879Q459.311 550.876 464.517 550.046Q469.722 549.216 474.952 548.56Q480.183 547.904 485.432 547.422Q490.681 546.94 495.943 546.633Q501.205 546.326 506.475 546.194Q511.744 546.062 517.015 546.106Q521.966 546.147 526.913 546.351Q531.859 546.556 536.797 546.923Q541.734 547.291 546.656 547.822Q551.579 548.352 556.481 549.045Q561.383 549.738 566.26 550.593Q571.136 551.448 575.982 552.463Q580.828 553.478 585.638 554.653Q590.447 555.828 595.215 557.161Q599.983 558.494 604.705 559.984Q609.426 561.474 614.096 563.119Q618.766 564.764 623.378 566.562Q627.991 568.361 632.542 570.31Q637.093 572.26 641.577 574.359Q646.061 576.459 650.473 578.705Q654.885 580.951 659.22 583.342Q663.556 585.732 667.81 588.265C677.027 593.679 688.366 600.027 695.943 607.56C696.076 607.692 696.199 607.834 696.327 607.97C678.158 607.243 659.782 607.699 641.59 607.675L541.422 607.622L409.317 607.599Q368.373 607.367 327.43 607.774Z"/>
	<path fill="#080717" transform="matrix(1.38477 0 0 1.38477 3.05176e-05 -3.05176e-05)" d="M282.363 613.74L746.949 613.49C750.897 613.477 758.011 612.656 760.9 615.735C761.823 616.72 762.41 617.846 762.673 619.169C763.987 625.782 763.083 651.689 763.106 660.168C763.117 664.208 764.274 672.757 761.075 675.694C757.245 679.212 745.559 677.663 740.375 677.628L422.104 677.764L316.332 677.687L283.867 677.644C277.209 677.646 270.36 677.974 263.735 677.356C262.408 676.534 261.936 675.463 261.563 674.004C260.532 669.975 260.67 626.643 261.12 621.104C261.295 618.949 261.566 616.921 262.711 615.059C266.135 612.905 277.793 613.783 282.363 613.74Z"/>
	<path fill="#F8F7FE" transform="matrix(1.38477 0 0 1.38477 3.05176e-05 -3.05176e-05)" d="M553.419 642.199C555.12 642.491 555.814 642.783 557.084 644.008C558.067 646.534 557.39 648.276 556.442 650.691C556.303 650.7 556.164 650.717 556.025 650.719C554.402 650.745 553.84 650.436 552.732 649.355C551.769 646.734 552.468 644.727 553.419 642.199Z"/>
	<path fill="#F8F7FE" transform="matrix(1.38477 0 0 1.38477 3.05176e-05 -3.05176e-05)" d="M511.877 642.194C512.801 642.318 513.447 642.396 514.272 642.873C515.15 643.382 515.719 644.492 515.827 645.493C516.051 647.58 515.131 649.407 514.001 651.066C512.984 650.993 512.335 650.675 511.43 650.223C510.898 649.519 510.397 648.9 510.262 647.993C509.952 645.911 510.793 643.905 511.877 642.194Z"/>
	<path fill="#F8F7FE" transform="matrix(1.38477 0 0 1.38477 3.05176e-05 -3.05176e-05)" d="M386.945 641.654C387.829 641.986 388.431 642.454 389.169 643.034C389.641 644.058 389.976 644.781 390.049 645.927C390.186 648.108 389.027 650.109 387.66 651.684C387.003 651.25 386.996 651.269 386.345 650.724C385.241 649.799 384.7 648.403 384.659 646.98C384.596 644.804 385.536 643.213 386.945 641.654Z"/>
	<path fill="#F8F7FE" transform="matrix(1.38477 0 0 1.38477 3.05176e-05 -3.05176e-05)" d="M342.544 642.255C343.616 642.217 344.371 642.405 345.392 642.723C346.069 643.339 346.661 643.834 346.926 644.755C347.501 646.751 346.771 648.776 345.93 650.562C344.967 650.664 344.237 650.599 343.288 650.419C342.601 649.78 342.1 649.485 341.76 648.586C340.984 646.536 341.759 644.175 342.544 642.255Z"/>
	<path fill="#F8F7FE" transform="matrix(1.38477 0 0 1.38477 3.05176e-05 -3.05176e-05)" d="M300.459 641.677C301.156 641.84 301.862 642 302.468 642.406C303.586 643.154 304.085 644.402 304.269 645.679C304.578 647.818 303.589 649.612 302.321 651.219C301.311 651.009 300.805 650.746 299.922 650.248C299.342 649.442 298.976 648.863 298.77 647.869C298.328 645.738 299.298 643.399 300.459 641.677Z"/>
	<path fill="#F8F7FE" transform="matrix(1.38477 0 0 1.38477 3.05176e-05 -3.05176e-05)" d="M469.894 642.199C470.726 642.244 471.663 642.203 472.403 642.653C473.32 643.209 473.897 644.43 474.03 645.457C474.297 647.526 473.57 649.243 472.501 650.945C471.464 650.943 470.778 650.783 469.806 650.425C469.122 649.748 468.734 649.311 468.452 648.362C467.859 646.37 468.92 643.889 469.894 642.199Z"/>
	<path fill="#F8F7FE" transform="matrix(1.38477 0 0 1.38477 3.05176e-05 -3.05176e-05)" d="M427.428 641.789C428.628 641.909 429.312 642.093 430.359 642.696C431.012 643.545 431.395 644.049 431.617 645.13C432.031 647.14 430.981 649.445 429.907 651.07C429.236 650.998 428.615 650.919 428.011 650.582C426.865 649.943 426.327 648.828 426.038 647.598C425.548 645.512 426.378 643.532 427.428 641.789Z"/>
	<path fill="#F8F7FE" transform="matrix(1.38477 0 0 1.38477 3.05176e-05 -3.05176e-05)" d="M722.524 642.188C723.176 642.332 723.793 642.52 724.387 642.841C725.521 643.456 726.286 644.453 726.443 645.759C726.692 647.837 725.595 649.608 724.491 651.25C723.509 651.14 722.582 651.117 721.761 650.489C720.844 649.788 720.328 648.583 720.307 647.446C720.267 645.286 721.205 643.793 722.524 642.188Z"/>
	<path fill="#F8F7FE" transform="matrix(1.38477 0 0 1.38477 3.05176e-05 -3.05176e-05)" d="M595.908 642.196C596.82 642.226 597.7 642.208 598.543 642.621C599.569 643.124 600.335 644.136 600.559 645.255C600.965 647.281 600.118 649.01 599.019 650.631C598.793 650.63 598.567 650.638 598.342 650.628C596.541 650.546 595.994 650.089 594.843 648.821C594.026 646.227 594.733 644.559 595.908 642.196Z"/>
	<path fill="#F8F7FE" transform="matrix(1.38477 0 0 1.38477 3.05176e-05 -3.05176e-05)" d="M680.844 642.204C681.637 642.353 682.395 642.516 683.129 642.87C684.247 643.41 685.085 644.301 685.304 645.558C685.651 647.544 684.56 649.119 683.49 650.648C682.589 650.639 681.583 650.711 680.757 650.271C679.764 649.741 679.061 648.592 678.931 647.492C678.685 645.394 679.622 643.795 680.844 642.204Z"/>
	<path fill="#F8F7FE" transform="matrix(1.38477 0 0 1.38477 3.05176e-05 -3.05176e-05)" d="M637.961 642.275C638.983 642.378 639.918 642.416 640.826 642.96C641.83 643.562 642.564 644.626 642.741 645.787C643.055 647.841 642.13 649.475 641.001 651.086C640.189 651.044 639.459 651.01 638.71 650.644C637.646 650.124 636.911 649.123 636.668 647.968C636.232 645.889 637.042 644.08 637.961 642.275Z"/>
</svg>
