<svg xmlns="http://www.w3.org/2000/svg" xmlns:xlink="http://www.w3.org/1999/xlink" width="1024" height="1024">
	<path fill="#FEFEFE" d="M0 0L498.759 0L526.302 0L1024 0L1024 1024L730.853 1024L519.5 1024L0 1024L0 0Z" data-index="0" style="opacity: 1; visibility: visible; fill: rgb(243, 248, 255); stroke: rgb(243, 248, 255);"></path>
	<path fill="#1A1A1A" d="M556.467 280.147C556.677 280.216 556.895 280.263 557.095 280.355C558.178 280.852 558.551 281.239 558.988 282.342C559.98 284.845 559.788 364.436 559.372 373.587C559.298 375.209 559.032 376.607 558.398 378.108C558.025 377.997 557.324 377.802 556.991 377.637C555.922 377.109 555.602 376.157 555.317 375.069C554.564 372.19 555.218 368.791 555.206 365.836Q554.998 349.725 555.077 333.613L555.11 300.559C555.113 295.202 554.796 289.703 555.113 284.364C555.217 282.609 555.544 281.642 556.467 280.147Z" data-index="1"></path>
	<path fill="#1A1A1A" d="M465.405 280.612C467.052 280.761 467.955 280.791 469.159 281.952C470.188 288.539 469.289 302.699 469.309 310.314L469.539 376.789C468.145 376.836 467.218 376.872 465.924 376.229C465.116 374.989 465.128 373.732 465.068 372.304C464.346 355.195 465.075 337.742 465.092 320.594C465.105 307.442 464.149 293.659 465.405 280.612Z" data-index="2" style="opacity: 1;"></path>
	<path fill="#1A1A1A" d="M498.759 0L526.302 0C531.433 1.19955 536.762 1.70886 541.925 2.86304C557.244 6.28744 571.259 12.734 584.308 21.3439C612.474 39.9296 633.192 71.4747 639.734 104.499Q640.044 106.085 640.314 107.678Q640.584 109.271 640.816 110.87Q641.047 112.469 641.238 114.073Q641.43 115.678 641.582 117.286Q641.734 118.895 641.846 120.507Q641.959 122.118 642.032 123.732Q642.104 125.347 642.137 126.962Q642.17 128.577 642.163 130.193Q642.156 131.809 642.109 133.424Q642.062 135.039 641.976 136.652Q641.889 138.266 641.763 139.877Q641.637 141.487 641.471 143.095Q641.305 144.702 641.099 146.304Q640.894 147.907 640.649 149.504Q640.404 151.101 640.12 152.692Q639.836 154.282 639.513 155.865Q639.189 157.448 638.827 159.023Q638.465 160.598 638.064 162.163Q637.663 163.728 637.224 165.283Q636.785 166.838 636.307 168.381Q635.83 169.925 635.315 171.456Q634.799 172.988 634.246 174.506Q633.693 176.024 633.103 177.528Q632.513 179.032 631.886 180.521Q631.259 182.01 630.595 183.484Q629.932 184.957 629.232 186.413Q628.532 187.87 627.797 189.308Q627.062 190.747 626.291 192.167Q625.521 193.587 624.716 194.988Q623.91 196.389 623.071 197.769Q622.231 199.15 621.358 200.509Q620.484 201.869 619.578 203.206C600.209 231.724 569.193 250.836 535.544 257.184C500.472 263.802 465.905 255.895 436.594 235.728C409.143 216.84 389.607 185.536 383.758 152.851Q383.486 151.26 383.253 149.662Q383.021 148.065 382.827 146.462Q382.633 144.859 382.479 143.252Q382.325 141.645 382.21 140.035Q382.094 138.425 382.019 136.812Q381.943 135.2 381.907 133.586Q381.871 131.972 381.874 130.357Q381.878 128.743 381.92 127.129Q381.963 125.515 382.046 123.903Q382.128 122.291 382.25 120.681Q382.371 119.071 382.532 117.465Q382.693 115.858 382.894 114.257Q383.094 112.655 383.333 111.058Q383.573 109.462 383.851 107.871Q384.129 106.281 384.447 104.698Q384.764 103.115 385.12 101.541Q385.475 99.966 385.87 98.4005Q386.264 96.835 386.696 95.2796Q387.129 93.7242 387.599 92.1799Q388.069 90.6355 388.577 89.1031Q389.085 87.5707 389.63 86.0512Q390.176 84.5317 390.758 83.026Q391.34 81.5203 391.959 80.0293Q392.578 78.5383 393.233 77.0629Q393.889 75.5874 394.58 74.1285Q395.271 72.6695 395.997 71.2279Q396.724 69.7863 397.486 68.3628Q398.247 66.9394 399.044 65.535Q399.84 64.1307 400.67 62.7462Q401.5 61.3618 402.364 59.998Q403.228 58.6343 404.125 57.2921Q405.022 55.9499 405.952 54.63Q406.765 53.468 407.603 52.3242Q408.441 51.1804 409.303 50.0553Q410.166 48.9301 411.054 47.8242Q411.941 46.7183 412.853 45.6321Q413.764 44.546 414.699 43.4801Q415.634 42.4142 416.593 41.3692Q417.551 40.3241 418.532 39.3003Q419.513 38.2766 420.516 37.2746Q421.52 36.2726 422.545 35.2929Q423.57 34.3132 424.616 33.3563Q425.662 32.3993 426.73 31.4656Q427.797 30.5319 428.884 29.6218Q429.971 28.7118 431.078 27.8258Q432.185 26.9398 433.312 26.0784Q434.438 25.217 435.583 24.3805Q436.728 23.544 437.891 22.7329Q439.054 21.9218 440.234 21.1364Q441.415 20.351 442.613 19.5917Q443.81 18.8325 445.024 18.0997Q446.238 17.3669 447.468 16.661Q448.697 15.9551 449.942 15.2763Q451.187 14.5975 452.447 13.9463Q453.706 13.2951 454.98 12.6716Q456.253 12.0482 457.54 11.4529Q458.827 10.8576 460.127 10.2907Q461.426 9.72387 462.738 9.18567Q464.05 8.64747 465.373 8.13822Q466.697 7.62896 468.031 7.1489Q469.365 6.66884 470.71 6.2182Q472.054 5.76756 473.408 5.34656Q474.762 4.92556 476.125 4.53441Q477.488 4.14325 478.859 3.78213C485.379 2.05301 492.12 1.15437 498.759 0Z" data-index="3" style="opacity: 1;"></path>
	<path fill="#FEFEFE" d="M507.343 4.23232C540.023 3.28743 570.914 13.7236 595.39 35.7167C619.826 57.6736 635.7 89.2008 637.427 122.184C639.143 154.967 628.58 187.873 606.449 212.394Q605.391 213.587 604.304 214.754Q603.217 215.92 602.1 217.059Q600.984 218.198 599.84 219.308Q598.695 220.419 597.523 221.5Q596.351 222.581 595.153 223.633Q593.954 224.685 592.73 225.706Q591.505 226.727 590.255 227.718Q589.005 228.708 587.731 229.667Q586.457 230.625 585.159 231.552Q583.861 232.478 582.54 233.372Q581.22 234.266 579.877 235.126Q578.534 235.986 577.17 236.812Q575.807 237.639 574.422 238.431Q573.038 239.222 571.635 239.979Q570.231 240.736 568.809 241.458Q567.387 242.179 565.947 242.865Q564.508 243.551 563.051 244.2Q561.595 244.849 560.123 245.462Q558.65 246.075 557.163 246.65Q555.676 247.226 554.175 247.764Q552.674 248.302 551.16 248.802Q549.646 249.302 548.12 249.765Q546.594 250.227 545.056 250.651Q543.519 251.074 541.972 251.46Q540.424 251.845 538.868 252.191Q537.311 252.537 535.746 252.844Q534.181 253.151 532.609 253.419Q531.037 253.687 529.459 253.915Q527.881 254.143 526.298 254.332Q524.714 254.521 523.127 254.67Q521.539 254.819 519.948 254.928Q518.357 255.037 516.764 255.106C485.546 256.141 453.568 245.845 430.005 225.01C404.686 202.621 388.458 172.412 386.623 138.356Q386.528 136.782 386.472 135.206Q386.416 133.631 386.399 132.054Q386.382 130.477 386.404 128.901Q386.426 127.324 386.487 125.748Q386.548 124.173 386.649 122.599Q386.749 121.026 386.888 119.455Q387.027 117.884 387.205 116.318Q387.383 114.751 387.599 113.189Q387.816 111.627 388.072 110.071Q388.327 108.516 388.621 106.966Q388.914 105.417 389.247 103.876Q389.579 102.334 389.949 100.802Q390.319 99.269 390.727 97.746Q391.135 96.2229 391.581 94.7104Q392.026 93.1979 392.509 91.697Q392.992 90.196 393.512 88.7074Q394.032 87.2188 394.589 85.7436Q395.145 84.2684 395.738 82.8074Q396.331 81.3464 396.961 79.9006Q397.59 78.4548 398.254 77.0249Q398.919 75.5951 399.619 74.1822Q400.319 72.7693 401.053 71.3741Q401.788 69.979 402.557 68.6025Q403.326 67.226 404.129 65.8689Q404.932 64.5119 405.768 63.1751Q406.604 61.8384 407.474 60.5228Q408.343 59.2072 409.244 57.9135Q410.146 56.6198 411.079 55.3488Q412.012 54.0779 412.976 52.8304Q413.941 51.583 414.936 50.3598Q415.931 49.1366 416.956 47.9385Q417.981 46.7403 419.035 45.5679C442.293 19.9205 472.83 5.78928 507.343 4.23232Z" data-index="4" style="opacity: 1; visibility: visible; fill: rgb(243, 248, 255); stroke: rgb(243, 248, 255);"></path>
	<path fill="#1A1A1A" d="M486.11 50.9914C503.537 50.9677 521.01 50.68 538.432 51.0961C538.951 81.1028 538.463 111.2 538.46 141.216C547.469 141.362 556.501 141.153 565.511 141.091C569.541 141.063 573.829 140.74 577.825 141.195C579.316 141.365 579.621 141.22 580.545 142.378C580.496 143.548 580.297 144.325 579.587 145.28C575.825 150.337 569.984 155.023 565.401 159.481Q546.492 177.805 527.17 195.693C522.512 200.234 517.905 205.175 512.807 209.208C508.648 206.465 446.006 145.534 445.414 143.907C444.994 142.752 445.317 142.38 445.887 141.438C453.808 139.799 475.887 141.079 485.295 141.172L485.157 83.3865C485.12 73.6815 484.333 63.4447 485.172 53.815C485.269 52.7004 485.577 51.9559 486.11 50.9914Z" data-index="5" style="opacity: 1;"></path>
	<path fill="#606061" d="M489.602 55.7454C504.398 55.2566 519.257 55.4969 534.062 55.4891C534.901 85.4487 534.282 115.733 533.988 145.707C546.598 146.624 559.754 145.902 572.417 145.835C556.832 161.912 540.537 177.045 524.284 192.433L512.556 203.156C492.351 184.349 473.12 164.514 452.882 145.736C464.968 145.74 477.368 146.248 489.415 145.438C490.323 136.223 489.774 126.41 489.795 117.136L489.602 55.7454Z" data-index="6"></path>
	<path fill="#1A1A1A" d="M374.649 445.474C374.394 437.919 373.412 406.991 375.224 401.241C384.097 399.811 397.849 400.872 407.103 400.912L472.883 401.075L598.102 400.955L631.084 400.989C637.071 400.997 643.723 400.442 649.61 401.51C649.855 401.833 650.215 402.096 650.345 402.48C651.181 404.955 650.94 437.536 650.401 441.942C650.269 443.016 650.021 443.995 649.692 445.021C646.376 447.152 633.112 445.717 628.318 445.898L649.689 529.199Q655.393 550.358 660.652 571.632C662.494 578.864 664.709 586.031 666.101 593.365C664.141 598.242 660.868 602.788 658.142 607.279C652.692 616.26 647.081 625.183 641.87 634.304C654.026 644.626 666.283 654.755 678.294 665.259C684.911 671.045 692.648 676.811 697.692 684.054C701.62 689.695 704.204 696.71 704.78 703.569C705.604 713.387 705.137 723.553 705.139 733.416L705.232 785.642Q704.729 893.134 705.344 1000.62C711.295 1000.59 727.632 999.351 732.111 1001.69C734.398 1004.67 734.008 1015.6 733.558 1019.53C733.374 1021.14 733.05 1021.93 731.779 1022.92L730.493 1023.08L730.853 1024L519.5 1024C514.58 1022.85 509.126 1024.67 504.19 1023.15L349.963 1023.03C339.304 1023.03 298.775 1024.14 292.003 1022.31C290.246 1018.79 290.127 1005.77 291.502 1002.09C291.833 1001.2 292.041 1001.19 292.747 1000.64C300.977 999.345 311.254 1000.38 319.702 1000.44L319.665 791.372L319.799 732.111C319.834 721.947 319.009 710.767 320.418 700.726Q320.643 699.177 320.99 697.65Q321.336 696.124 321.803 694.63Q322.27 693.135 322.854 691.683Q323.438 690.231 324.136 688.829Q324.833 687.428 325.64 686.086Q326.446 684.744 327.356 683.471Q328.267 682.197 329.275 681Q330.284 679.802 331.384 678.689C337.691 672.364 345.223 666.92 352.057 661.141C362.406 652.39 372.493 643.321 382.849 634.592C377.665 625.318 372.011 616.32 366.456 607.267C363.67 602.724 360.292 598.005 358.129 593.15C366.108 560.856 375.039 528.727 383.444 496.536C387.818 479.782 392.91 462.823 395.825 445.749C388.802 445.616 381.644 445.918 374.649 445.474Z" data-index="7" style="opacity: 1;"></path>
	<path fill="#FEFEFE" d="M443.418 992.648C443.802 992.658 444.174 992.654 444.555 992.737C445.893 993.027 446.175 993.213 446.977 994.234C447.223 995.805 446.644 996.955 446.081 998.381C444.41 998.11 443.754 997.896 442.579 996.713C442.255 995.011 442.718 994.141 443.418 992.648Z" data-index="8"></path>
	<path fill="#FEFEFE" d="M424.257 948.743C426.034 948.885 426.945 949.12 428.172 950.401C428.51 952.029 427.991 952.98 427.354 954.429C426.944 954.467 426.376 954.541 425.976 954.478C424.603 954.263 424.362 953.807 423.613 952.764C423.423 951.152 423.712 950.216 424.257 948.743Z" data-index="9"></path>
	<path fill="#FEFEFE" d="M478.112 979.277C480.025 979.287 480.915 979.434 482.284 980.757C482.606 982.367 482.358 983.244 481.851 984.74C481.304 984.742 480.534 984.802 479.984 984.682C478.608 984.382 478.385 984.127 477.552 983.082C477.362 981.6 477.657 980.653 478.112 979.277Z" data-index="10"></path>
	<path fill="#FEFEFE" d="M574.668 981.412C575.101 981.389 575.534 981.355 575.967 981.357C577.513 981.363 578.34 981.641 579.45 982.705C579.766 984.275 579.282 985.205 578.682 986.61C576.942 986.54 575.8 986.308 574.541 985.043C574.119 983.421 574.275 982.991 574.668 981.412Z" data-index="11"></path>
	<path fill="#FEFEFE" d="M566.815 971.81C568.858 971.749 569.962 971.867 571.507 973.244C571.805 974.861 571.57 975.309 571.057 976.829C570.793 976.854 570.53 976.889 570.265 976.904C568.543 976.998 567.667 976.758 566.416 975.579C565.988 974.042 566.299 973.24 566.815 971.81Z" data-index="12"></path>
	<path fill="#FEFEFE" d="M471.883 943.739C472.369 943.815 473.064 943.903 473.511 944.074C474.856 944.591 475.147 945.079 475.798 946.256C475.821 947.953 475.363 948.82 474.531 950.278C474.023 950.205 473.214 950.115 472.753 949.927C471.422 949.385 471.143 948.724 470.567 947.532C470.547 945.849 471.014 945.093 471.883 943.739Z" data-index="13"></path>
	<path fill="#FEFEFE" d="M402.959 956.635C403.507 956.821 404.162 957 404.666 957.305C405.848 958.02 406.147 958.705 406.567 959.965C406.353 961.615 405.664 962.237 404.556 963.362C404.079 963.21 403.328 962.992 402.908 962.753C401.704 962.069 401.492 961.482 401.03 960.277C401.258 958.554 401.795 957.898 402.959 956.635Z" data-index="14"></path>
	<path fill="#FEFEFE" d="M600.914 988.174C601.173 988.28 601.447 988.355 601.69 988.492C602.937 989.195 603.469 989.919 603.907 991.265C603.793 992.99 603.339 993.622 602.228 994.92C601.675 994.788 600.599 994.619 600.079 994.305C598.825 993.547 598.738 993.112 598.443 991.799C598.912 990.081 599.63 989.375 600.914 988.174Z" data-index="15"></path>
	<path fill="#FEFEFE" d="M484.392 988.244C484.753 988.277 485.341 988.32 485.731 988.39C487.309 988.675 487.878 989.423 488.673 990.667C488.833 992.307 488.312 993.123 487.538 994.489C487.314 994.479 487.09 994.478 486.867 994.458C485.087 994.296 484.454 993.846 483.407 992.51C483.176 990.762 483.653 989.812 484.392 988.244Z" data-index="16"></path>
	<path fill="#FEFEFE" d="M551.828 958.711C552.613 958.747 553.493 958.745 554.255 958.938C555.535 959.261 555.941 959.872 556.565 960.951C556.564 962.58 555.874 963.302 554.919 964.512C554.467 964.509 553.921 964.527 553.485 964.411C552.106 964.044 551.706 963.59 550.907 962.519C550.789 960.704 551.06 960.302 551.828 958.711Z" data-index="17"></path>
	<path fill="#FEFEFE" d="M521.821 956.437C522.613 956.391 523.474 956.305 524.262 956.401C525.555 956.56 526.086 956.987 526.878 957.956C527.064 959.515 526.671 960.137 525.98 961.479C525.275 961.542 524.453 961.664 523.737 961.594C522.402 961.463 521.87 961.031 521.037 960.05C520.82 958.534 521.196 957.762 521.821 956.437Z" data-index="18"></path>
	<path fill="#FEFEFE" d="M612.901 962.885C613.408 963.057 614.246 963.272 614.704 963.59C615.926 964.438 616.065 964.853 616.44 966.201C615.968 967.813 615.356 968.359 614.112 969.37C613.588 969.232 612.668 969.065 612.179 968.773C610.926 968.024 610.869 967.628 610.524 966.313C611.013 964.697 611.672 964.018 612.901 962.885Z" data-index="19"></path>
	<path fill="#FEFEFE" d="M413.539 973.825C414.064 973.86 414.975 973.851 415.496 974.041C416.82 974.527 417.036 974.989 417.71 976.134C417.746 977.882 417.308 978.744 416.446 980.244C415.846 980.198 415.097 980.189 414.513 979.992C413.228 979.557 412.783 978.856 412.165 977.729C412.109 975.973 412.56 975.255 413.539 973.825Z" data-index="20"></path>
	<path fill="#FEFEFE" d="M566.339 988.809C567.017 988.906 568.065 988.968 568.665 989.281C569.918 989.937 570.001 990.45 570.335 991.692C569.944 993.337 569.304 994.002 568.153 995.143C567.442 995.016 566.35 994.916 565.727 994.569C564.465 993.865 564.408 993.348 564.123 992.068C564.521 990.53 565.242 989.87 566.339 988.809Z" data-index="21"></path>
	<path fill="#FEFEFE" d="M583.873 970.894C584.624 971.039 585.842 971.166 586.494 971.6C587.711 972.412 587.774 972.862 588.035 974.187C587.603 975.807 586.79 976.408 585.565 977.434C584.885 977.262 583.918 977.1 583.323 976.743C582.124 976.023 582.017 975.528 581.648 974.286C582.013 972.606 582.668 972.004 583.873 970.894Z" data-index="22"></path>
	<path fill="#FEFEFE" d="M405.949 949.828C406.627 949.85 407.622 949.799 408.252 950.03C409.557 950.509 409.777 951.074 410.389 952.208C410.376 953.896 409.936 954.623 409.036 955.961C408.098 956.013 407.172 955.969 406.234 955.939C405.04 955.179 404.902 955.146 404.375 953.85C404.548 952.086 404.926 951.265 405.949 949.828Z" data-index="23"></path>
	<path fill="#FEFEFE" d="M413.449 938.248C413.882 938.294 414.317 938.327 414.745 938.408C416.245 938.691 416.92 939.378 417.746 940.598C417.934 942.344 417.599 943.229 416.867 944.807C415.971 944.777 414.847 944.813 413.991 944.496C412.694 944.015 412.386 943.263 411.911 942.067C412.009 940.365 412.514 939.588 413.449 938.248Z" data-index="24"></path>
	<path fill="#FEFEFE" d="M612.453 938.293C613.29 938.391 614.399 938.464 615.159 938.851C616.432 939.499 616.636 940.214 617.055 941.446C616.869 943.069 616.437 943.646 615.481 944.9C614.929 944.889 613.857 944.95 613.299 944.753C611.894 944.259 611.709 943.782 611.095 942.549C611.089 940.769 611.589 939.827 612.453 938.293Z" data-index="25"></path>
	<path fill="#FEFEFE" d="M539.017 955.887C539.775 955.974 540.669 956.03 541.383 956.3C542.633 956.775 542.945 957.561 543.382 958.718C543.2 960.483 542.572 961.211 541.436 962.536C540.582 962.465 539.525 962.383 538.745 962.003C537.538 961.416 537.413 960.691 537.047 959.534C537.305 957.813 537.847 957.147 539.017 955.887Z" data-index="26"></path>
	<path fill="#FEFEFE" d="M534.362 941.482C535.287 941.446 536.626 941.284 537.512 941.529C538.88 941.907 539.137 942.326 539.858 943.43C539.967 945.035 539.426 945.802 538.618 947.102C537.703 947.153 536.636 947.263 535.736 947.089C534.51 946.853 533.983 946.232 533.295 945.276C533.103 943.613 533.568 942.861 534.362 941.482Z" data-index="27"></path>
	<path fill="#FEFEFE" d="M512.498 983.309C513.484 983.571 514.704 983.937 515.492 984.608C516.426 985.404 516.389 986.067 516.442 987.171C515.713 988.775 514.891 989.331 513.437 990.284C512.67 990.043 511.443 989.708 510.836 989.132C509.785 988.135 509.779 987.693 509.719 986.352C510.405 984.79 511.151 984.239 512.498 983.309Z" data-index="28"></path>
	<path fill="#FEFEFE" d="M431.373 986.763C432.293 986.851 433.478 987.004 434.275 987.488C435.299 988.11 435.911 989.007 436.022 990.198C436.163 991.698 435.102 992.99 434.292 994.14C433.485 993.911 432.562 993.694 431.822 993.296C430.572 992.624 430.163 991.799 429.686 990.536C429.826 988.832 430.338 988.098 431.373 986.763Z" data-index="29"></path>
	<path fill="#FEFEFE" d="M446.973 929.412C448.405 929.443 449.197 929.631 450.479 930.179C451.467 931.363 451.549 931.418 451.647 932.945C451.074 934.46 450.534 934.901 449.308 935.868C448.429 935.763 447.083 935.661 446.316 935.214C445.087 934.497 444.998 934.102 444.654 932.829C445.005 931.219 445.845 930.512 446.973 929.412Z" data-index="30"></path>
	<path fill="#FEFEFE" d="M617.173 950.44C618.295 950.438 619.559 950.388 620.499 951.128C621.318 951.773 621.715 952.658 621.587 953.698C621.398 955.235 620.249 956.123 619.141 957.024C618.304 956.886 617.038 956.739 616.301 956.326C615.124 955.666 615.038 955.253 614.696 954.056C615.09 952.32 615.937 951.608 617.173 950.44Z" data-index="31"></path>
	<path fill="#FEFEFE" d="M502.787 932.358C503.759 932.356 505.081 932.305 505.977 932.718C507.274 933.317 507.502 933.957 507.975 935.175C507.846 936.83 507.286 937.555 506.316 938.813C505.273 938.78 503.977 938.762 503.028 938.275C501.758 937.624 501.566 937.041 501.126 935.803C501.273 934.221 501.834 933.541 502.787 932.358Z" data-index="32"></path>
	<path fill="#FEFEFE" d="M525.954 935.334C526.742 935.56 527.983 935.853 528.632 936.395C529.769 937.347 529.75 937.811 529.875 939.18C529.215 940.791 528.388 941.375 526.989 942.368C525.995 942.237 524.856 942.086 524.07 941.386C523.2 940.611 522.924 939.701 523.14 938.56C523.417 937.102 524.853 936.166 525.954 935.334Z" data-index="33"></path>
	<path fill="#FEFEFE" d="M432.586 941.469C433.429 941.469 434.92 941.369 435.722 941.7C437.08 942.261 437.258 942.684 437.815 943.927C437.635 945.53 437.03 946.162 436.002 947.302C434.85 947.462 433.469 947.655 432.356 947.19C431.029 946.636 430.927 946.057 430.572 944.819C430.866 943.239 431.525 942.582 432.586 941.469Z" data-index="34"></path>
	<path fill="#FEFEFE" d="M493.961 966.878C494.934 966.912 496.15 966.992 497.008 967.493C498.265 968.227 498.37 968.906 498.693 970.193C498.414 971.834 497.804 972.507 496.725 973.679C495.72 973.654 494.411 973.637 493.505 973.153C492.259 972.488 492.17 971.818 491.847 970.58C492.179 968.89 492.82 968.14 493.961 966.878Z" data-index="35"></path>
	<path fill="#FEFEFE" d="M547.437 968.699C548.548 968.762 549.818 968.866 550.79 969.473C552.046 970.256 552.183 970.885 552.53 972.202C552.257 973.81 551.65 974.401 550.548 975.495C549.444 975.507 548.257 975.475 547.257 974.934C546.094 974.306 545.955 973.696 545.551 972.544C545.732 970.765 546.297 970.046 547.437 968.699Z" data-index="36"></path>
	<path fill="#FEFEFE" d="M436.4 965.417C437.444 965.456 438.691 965.444 439.699 965.747C441.004 966.139 441.495 966.761 442.171 967.873C441.992 969.686 441.582 970.059 440.536 971.498C439.401 971.591 438.09 971.661 436.997 971.279C435.71 970.83 435.425 970.289 434.823 969.188C434.992 967.351 435.393 966.912 436.4 965.417Z" data-index="37"></path>
	<path fill="#FEFEFE" d="M478.49 955.858C479.615 955.785 480.896 955.68 481.937 956.227C483.206 956.893 483.339 957.492 483.751 958.745C483.523 960.435 482.981 961.115 481.911 962.346C480.869 962.444 479.417 962.454 478.478 961.901C477.148 961.117 477.077 960.666 476.66 959.281C476.829 957.691 477.49 957.009 478.49 955.858Z" data-index="38"></path>
	<path fill="#FEFEFE" d="M626.516 930.834C627.943 931.069 628.661 931.321 629.899 932.151C630.486 933.208 630.875 933.687 630.556 934.953C630.2 936.37 628.955 937.129 627.834 937.896C626.771 937.661 625.445 937.375 624.603 936.636C623.56 935.721 623.535 935.082 623.471 933.823C624.163 932.183 625.066 931.706 626.516 930.834Z" data-index="39"></path>
	<path fill="#FEFEFE" d="M554.279 937.389C555.497 937.413 556.893 937.391 557.971 938.053C559.208 938.813 559.38 939.365 559.749 940.655C559.394 942.275 558.969 942.741 557.834 943.859C556.54 943.839 554.991 943.84 553.809 943.222C552.638 942.611 552.55 942.016 552.246 940.862C552.556 939.286 553.253 938.544 554.279 937.389Z" data-index="40"></path>
	<path fill="#FEFEFE" d="M502.323 955.333C503.63 955.337 505.118 955.272 506.26 956.039C507.432 956.825 507.495 957.403 507.726 958.671C507.353 960.247 506.701 960.905 505.604 962.004C504.387 962.014 503.099 962.036 502.012 961.376C500.85 960.671 500.772 960.019 500.44 958.81C500.682 957.18 501.275 956.51 502.323 955.333Z" data-index="41"></path>
	<path fill="#FEFEFE" d="M595.645 946.903C596.824 946.761 598.082 946.692 599.203 947.185C600.472 947.744 600.753 948.359 601.302 949.516C601.107 951.32 600.841 951.65 599.835 953.082C598.479 953.128 596.944 953.192 595.676 952.609C594.453 952.046 594.144 951.523 593.706 950.306C593.895 948.705 594.607 948.032 595.645 946.903Z" data-index="42"></path>
	<path fill="#FEFEFE" d="M454.905 943.391C456.055 943.367 457.435 943.296 458.479 943.864C459.766 944.566 459.963 945.163 460.4 946.442C460.199 948.113 459.809 948.739 458.801 950.088C457.648 950.27 456.358 950.487 455.266 949.908C454.224 949.355 453.564 948.485 453.44 947.304C453.276 945.753 454.061 944.591 454.905 943.391Z" data-index="43"></path>
	<path fill="#FEFEFE" d="M393.934 928.531C394.925 928.416 396.561 928.218 397.53 928.524C398.868 928.947 399.107 929.368 399.801 930.479C399.927 932.127 399.541 933.028 398.876 934.476C397.588 934.62 396.271 934.768 394.991 934.461C393.681 934.148 393.149 933.44 392.524 932.347C392.548 930.649 392.982 929.915 393.934 928.531Z" data-index="44"></path>
	<path fill="#FEFEFE" d="M491.864 941.876C493.177 942 494.731 942.066 495.706 943.089C496.463 943.883 496.819 944.858 496.63 945.948C496.352 947.554 495.292 948.489 494.116 949.485C493.112 949.274 491.912 948.995 491.098 948.332C490.218 947.615 489.677 946.701 489.721 945.551C489.78 944.043 490.918 942.924 491.864 941.876Z" data-index="45"></path>
	<path fill="#FEFEFE" d="M566.065 947.437C567.287 947.364 568.46 947.338 569.617 947.825C570.857 948.347 571.18 949.259 571.561 950.429C571.3 952.061 570.782 952.686 569.706 953.842C568.52 953.885 567.114 953.904 565.993 953.423C564.664 952.852 564.472 952.303 563.982 951.073C564.204 949.323 564.908 948.65 566.065 947.437Z" data-index="46"></path>
	<path fill="#FEFEFE" d="M512.836 966.356C514.278 966.355 515.811 966.309 516.979 967.322C517.887 968.11 518.318 968.988 518.162 970.192C517.976 971.624 516.708 972.478 515.66 973.29C514.642 973.184 513.399 973.048 512.505 972.512C511.22 971.741 511.089 971.132 510.726 969.8C511.054 968.148 511.701 967.498 512.836 966.356Z" data-index="47"></path>
	<path fill="#FEFEFE" d="M589.052 933.938C590.583 934.094 591.379 934.233 592.731 935.057C593.416 936.104 593.931 936.614 593.694 937.944C593.409 939.55 592.165 940.43 590.97 941.356C589.877 941.274 588.619 941.197 587.723 940.469C587.144 939.999 586.739 939.39 586.68 938.651C586.516 936.594 587.784 935.35 589.052 933.938Z" data-index="48"></path>
	<path fill="#FEFEFE" d="M528.429 978.92C529.527 979.059 530.873 979.253 531.782 979.944C532.873 980.773 532.938 981.452 533.087 982.684C532.517 984.329 531.861 984.881 530.476 985.903C529.046 985.702 527.579 985.533 526.47 984.49C525.403 983.486 525.418 982.912 525.405 981.575C526.19 980.06 526.984 979.662 528.429 978.92Z" data-index="49"></path>
	<path fill="#FEFEFE" d="M459.912 960.949C461.187 960.92 462.591 960.917 463.776 961.473C465.043 962.067 465.357 962.715 465.908 963.942C465.824 965.597 465.297 966.293 464.34 967.551C462.921 967.597 461.535 967.666 460.208 967.052C458.977 966.482 458.658 965.761 458.215 964.563C458.413 962.909 458.861 962.222 459.912 960.949Z" data-index="50"></path>
	<path fill="#FEFEFE" d="M556.97 978.957C558.221 978.93 559.621 978.963 560.759 979.582C561.892 980.198 561.97 980.797 562.235 981.926C561.886 983.579 561.092 984.337 559.973 985.512C558.426 985.563 556.757 985.714 555.46 984.689C554.413 983.861 554.464 983.293 554.369 982.081C554.932 980.507 555.702 979.933 556.97 978.957Z" data-index="51"></path>
	<path fill="#FEFEFE" d="M475.507 928.837C477.193 929.057 477.93 929.242 479.301 930.246C479.952 931.469 480.345 932.002 479.928 933.445C479.527 934.831 478.261 935.597 477.131 936.329C475.9 936.163 474.63 936.008 473.674 935.102C472.837 934.309 472.531 933.451 472.701 932.319C472.934 930.774 474.391 929.769 475.507 928.837Z" data-index="52"></path>
	<path fill="#FEFEFE" d="M596.53 977.801C598.127 978.075 598.82 978.274 600.082 979.287C600.643 980.411 601.017 980.915 600.614 982.212C600.173 983.633 598.774 984.328 597.583 985.022C595.979 984.825 595.01 984.616 593.648 983.729C593.113 982.737 592.731 982.281 593.148 981.111C593.696 979.577 595.256 978.664 596.53 977.801Z" data-index="53"></path>
	<path fill="#FEFEFE" d="M419.532 962.432C421.03 962.544 422.859 962.672 423.989 963.817C425.07 964.913 425.073 965.227 425.103 966.673C424.322 968.118 423.479 968.432 422.055 969.061C420.982 968.973 419.198 968.765 418.254 968.22C417.05 967.526 416.994 967.155 416.76 965.913C417.257 964.287 418.307 963.513 419.532 962.432Z" data-index="54"></path>
	<path fill="#FEFEFE" d="M449.82 980.989C451.001 981.219 452.532 981.425 453.356 982.396C454.126 983.305 454.465 984.273 454.168 985.447C453.777 986.992 452.529 987.947 451.347 988.886C449.848 988.589 448.246 988.34 447.237 987.058C446.313 985.884 446.473 985.226 446.603 983.854C447.486 982.343 448.303 981.827 449.82 980.989Z" data-index="55"></path>
	<path fill="#FEFEFE" d="M472.45 969.859C473.856 970.138 475.573 970.383 476.538 971.566C477.338 972.546 477.459 973.498 477.075 974.685C476.62 976.091 475.061 976.871 473.88 977.587C472.51 977.281 471.021 977.021 470.08 975.86C469.322 974.924 469.124 973.971 469.419 972.799C469.776 971.376 471.301 970.578 472.45 969.859Z" data-index="56"></path>
	<path fill="#FEFEFE" d="M577.356 958.373C579.021 958.349 580.43 958.31 581.902 959.204C583.065 959.911 583.312 960.694 583.637 961.935C583.331 963.652 582.775 964.284 581.554 965.5C580.024 965.494 578.523 965.477 577.19 964.609C575.973 963.817 575.749 963.14 575.368 961.795C575.589 960.126 576.236 959.514 577.356 958.373Z" data-index="57"></path>
	<path fill="#D8DAD9" d="M504.19 1023.15L654.844 1023.06L704.567 1023.02C713.122 1023.01 721.966 1022.56 730.493 1023.08L730.853 1024L519.5 1024C514.58 1022.85 509.126 1024.67 504.19 1023.15Z" data-index="58"></path>
	<path fill="#FEFEFE" d="M385.159 638.381C388.216 641.2 390.244 645.442 392.164 649.075C383.302 658.411 372.422 666.758 362.549 675.03C355.618 680.838 343.386 688.498 339.422 696.412C337.959 699.334 337.342 702.606 337.171 705.848C336.655 715.623 337.076 725.626 337.074 735.419L337.098 792.853L337.059 945.531L337.251 981.11C337.279 987.29 337.775 993.865 337.024 999.999C335.829 1000.74 334.515 1000.52 333.125 1000.55L324.505 1000.54L324.397 797.491L324.397 735.398C324.401 724.568 323.684 713.126 324.682 702.353C325.183 696.941 327.331 691.041 330.516 686.651C335.898 679.232 344.522 673.334 351.46 667.37L385.159 638.381Z" data-index="59"></path>
	<path fill="#8E9DF3" d="M377.074 896.124C402.928 895.768 428.832 896.143 454.694 896.102L646.102 896.082C646.145 903.663 646.431 911.333 646.178 918.904C646.136 920.176 646.332 920.952 645.392 921.846C616.499 921.418 587.515 921.964 558.614 922L377.087 922.393Q376.99 909.258 377.074 896.124Z" data-index="60"></path>
	<path fill="#8E9DF3" d="M364.136 594.582L568.063 594.843C598.788 594.82 629.698 593.971 660.398 594.769Q655.174 603.363 650.056 612.02C648.045 615.418 645.966 619.661 643.445 622.657C633.365 621.721 622.818 622.204 612.686 622.182L557.592 622.113Q469.404 621.851 381.218 622.546C375.422 613.287 370.142 603.71 364.136 594.582Z" data-index="61" style="opacity: 1;"></path>
	<path fill="#606061" d="M379.069 405.59L645.953 405.581Q646.06 423.374 645.952 441.167L379.161 441.359C378.969 429.446 379.095 417.507 379.069 405.59Z" data-index="62" style="opacity: 1;"></path>
	<path fill="#FEFEFE" d="M638.926 638.176C644.288 640.463 681.614 673.791 688.272 680.049C694.806 686.191 698.344 692.011 699.822 700.92C701.432 710.624 700.568 721.34 700.554 731.172L700.508 784.169L700.578 934.831C700.626 958.279 700.086 981.861 700.755 1005.29C709.906 1006.16 719.719 1005.49 728.934 1005.51C728.973 1009.78 729.02 1014 728.55 1018.26C715.482 1018.68 702.302 1018.37 689.223 1018.39L596.742 1018.23L331.575 1018.28L295.564 1018.17L295.519 1005.45Q330.374 1005.27 365.228 1005.48Q493.48 1006.13 621.729 1005.28C643.548 1004.93 665.556 1006.17 687.338 1005.1C688.354 988.827 687.405 969.477 687.378 952.919L687.368 852.077L687.399 756.506C687.44 740.345 688.362 722.168 687.402 706.223C687.216 703.138 686.993 698.585 685.367 695.941C680.94 688.746 672.633 683.274 666.272 677.874C655.065 668.36 643.537 659.121 632.482 649.446C634.502 645.602 636.671 641.887 638.926 638.176Z" data-index="63"></path>
	<path fill="#FEFEFE" d="M381.218 622.546Q469.404 621.851 557.592 622.113L612.686 622.182C622.818 622.204 633.365 621.721 643.445 622.657Q615.471 667.601 588.275 713.02C572.358 739.695 556.933 766.628 540.437 792.959C521.419 793.2 502.376 792.981 483.356 792.963C478.764 785.529 474.63 777.797 470.144 770.294L419.262 684.831C412.872 674.132 406.585 663.335 399.968 652.774C393.666 642.715 386.947 632.959 381.218 622.546Z" data-index="64" style="opacity: 1;"></path>
	<path fill="#FEFEFE" d="M401.899 445.62L623.103 445.668C627.999 459.686 630.651 474.626 634.46 488.978Q648 539.623 660.909 590.433L627.399 590.353C605.685 591.21 583.736 590.229 561.985 590.398L487.744 590.54C471.509 590.53 455.214 590.779 438.99 590.209C414.092 589.877 388.393 591.086 363.69 590.206C370.119 561.545 378.782 533.195 386.134 504.739L394.957 470.383C397.029 462.137 398.72 453.525 401.899 445.62Z" data-index="65" style="opacity: 1; visibility: visible; fill: rgb(243, 248, 255); stroke: rgb(243, 248, 255);"></path>
	<path fill="#8E9DF3" d="M438.99 590.209C446.466 579.422 464.075 570.017 476.819 567.647C493.453 564.555 508.754 571.199 524.132 576.615C531.468 579.199 538.937 581.531 546.233 584.206C551.624 586.183 557.111 589.099 562.856 589.783C568.693 590.477 575.038 590.009 580.934 590.002L614.57 589.963C618.055 589.96 624.317 589.167 627.399 590.353C605.685 591.21 583.736 590.229 561.985 590.398L487.744 590.54C471.509 590.53 455.214 590.779 438.99 590.209Z" data-index="66"></path>
	<path fill="#FEFEFE" d="M394.772 652.741C401.833 663.535 408.138 674.869 414.77 685.931Q432.893 715.833 450.387 746.108C456.609 756.923 463.093 767.547 469.528 778.234C473.361 784.6 476.91 791.216 481.174 797.303L543.361 797.353L603.997 696.4C612.59 682.092 620.783 667.577 629.72 653.474C639.475 660.848 648.762 668.923 658.153 676.758C664.407 681.975 671.372 687.09 676.909 693.042C679.346 695.662 681.983 698.59 682.545 702.231C684.163 712.725 683.261 724.211 683.276 734.866L683.181 798.805L683.078 928.219C683.098 952.244 683.866 976.491 683.142 1000.49L614.186 1000.48C619.318 987.256 626.059 974.79 632 961.93C636.602 951.967 644.198 931.659 650.439 923.952Q650.587 907.846 650.505 891.74C637.206 891.246 623.811 891.562 610.501 891.567L524.564 891.898C515.077 892.21 505.488 891.935 495.991 891.924C483.498 891.91 470.953 892.087 458.469 891.627C449.24 891.63 377.024 890.544 373.323 892.347C371.524 896.08 372.186 922.362 373.612 926.429C375.842 932.789 379.558 939.052 382.573 945.1L400.378 981.148C403.527 987.523 407.194 993.883 409.776 1000.5L341.586 1000.55L341.435 808.248L341.407 741.881C341.395 730.32 340.578 718.128 341.596 706.658C342.063 701.387 342.444 698.247 346.3 694.313C351.582 688.924 358.178 684.311 363.95 679.394C374.283 670.592 384.371 661.449 394.772 652.741Z" data-index="67"></path>
	<path fill="#8E9DF3" d="M497.62 851.931C498.694 852.121 499.692 852.221 500.581 852.92C501.603 853.724 502.14 854.935 502.089 856.226C501.996 858.554 500.786 859.578 499.104 860.927C497.519 860.512 495.907 859.969 494.994 858.491C494.242 857.272 494.081 856.209 494.49 854.825C494.942 853.293 496.337 852.665 497.62 851.931Z" data-index="68"></path>
	<path fill="#8E9DF3" d="M482.968 864.366C484.231 864.547 485.5 864.71 486.497 865.578C487.5 866.451 487.811 867.406 487.809 868.704C487.804 870.895 486.408 872.324 484.899 873.701C483.599 873.501 482.317 873.205 481.294 872.32C480.312 871.47 479.844 870.316 479.933 869.023C480.087 866.788 481.385 865.717 482.968 864.366Z" data-index="69"></path>
	<path fill="#8E9DF3" d="M483.625 835.286C484.982 835.44 486.328 835.898 487.331 836.866C488.272 837.774 488.692 838.924 488.515 840.224C488.214 842.437 486.748 843.295 485.028 844.367C483.761 844.11 482.093 843.75 481.21 842.69C480.418 841.739 480.205 841.141 480.298 839.927C480.459 837.845 482.182 836.571 483.625 835.286Z" data-index="70"></path>
	<path fill="#8E9DF3" d="M522.992 857.416C524.415 857.861 525.888 858.422 526.762 859.713C527.486 860.783 527.879 861.795 527.512 863.092C526.968 865.009 525.308 865.739 523.661 866.487C522.147 865.918 520.307 865.162 519.507 863.64C519.109 862.882 519.004 862.081 519.219 861.269C519.761 859.217 521.299 858.421 522.992 857.416Z" data-index="71"></path>
	<path fill="#8E9DF3" d="M500.026 872.934C501.373 872.886 502.868 872.862 504.022 873.66C505.044 874.366 505.797 875.544 505.898 876.792C506.068 878.883 505.075 880.241 503.711 881.675C502.372 881.841 500.856 881.766 499.688 881.009C498.577 880.289 498.14 879.329 497.972 878.055C497.697 875.966 498.808 874.463 500.026 872.934Z" data-index="72"></path>
	<path fill="#8E9DF3" d="M535.726 873.923C537.2 873.909 538.598 874.049 539.729 875.113C540.691 876.018 541.058 877.167 540.947 878.467C540.767 880.585 539.654 881.664 538.176 882.985C536.616 882.703 535.22 882.483 533.992 881.411C533.246 880.76 532.753 879.819 532.754 878.831C532.755 876.505 534.148 875.395 535.726 873.923Z" data-index="73"></path>
	<path fill="#8E9DF3" d="M500.525 820.418C501.801 820.414 503.301 820.302 504.413 821.056C505.511 821.799 506.301 822.649 506.5 824.01C506.812 826.149 505.784 827.448 504.466 828.937C502.946 829.064 501.492 829.215 500.137 828.361C499.073 827.691 498.449 826.73 498.371 825.463C498.243 823.362 499.29 821.959 500.525 820.418Z" data-index="74"></path>
	<path fill="#8E9DF3" d="M484.495 807.343C486.235 807.723 487.736 808.138 488.929 809.557C489.719 810.498 489.988 811.958 489.681 813.136C489.252 814.784 488.01 815.59 486.724 816.543C484.707 816.668 483.814 816.337 482.299 815.084C481.923 814.394 481.566 813.775 481.542 812.965C481.468 810.455 482.784 808.982 484.495 807.343Z" data-index="75"></path>
	<path fill="#8E9DF3" d="M535.735 841.959C537.479 841.835 538.892 841.811 540.297 843.079C541.306 843.99 541.725 845.12 541.636 846.47C541.486 848.734 540.323 849.657 538.632 850.9C537.09 850.738 535.573 850.443 534.472 849.243C533.531 848.218 533.174 847.113 533.34 845.718C533.542 844.016 534.552 843.075 535.735 841.959Z" data-index="76"></path>
	<path fill="#8E9DF3" d="M538.537 811.321C540.102 811.755 541.534 812.144 542.671 813.387C543.546 814.344 543.978 815.512 543.757 816.809C543.468 818.504 542.383 819.43 541.153 820.502C539.314 820.532 537.637 820.518 536.27 819.052C535.356 818.072 535.053 816.845 535.296 815.551C535.69 813.457 536.894 812.48 538.537 811.321Z" data-index="77"></path>
	<path fill="#8E9DF3" d="M506.486 840.366C508.342 840.287 510.299 840.476 511.636 841.924C512.489 842.847 512.843 843.911 512.716 845.168C512.564 846.682 511.286 847.627 510.224 848.548C509.974 848.608 509.727 848.679 509.475 848.729C507.634 849.095 506.616 848.871 505.038 847.891C504.439 847.101 504.057 846.586 503.981 845.551C503.808 843.204 505.003 841.963 506.486 840.366Z" data-index="78"></path>
	<path fill="#8E9DF3" d="M523.386 825.829C525.074 825.939 526.702 826.286 527.997 827.445C528.983 828.327 529.515 829.344 529.482 830.7C529.428 832.886 528.098 834.022 526.591 835.362C524.852 835.446 523.554 835.185 522.289 833.881C521.203 832.762 520.888 831.311 520.984 829.805C521.104 827.927 522.108 827.031 523.386 825.829Z" data-index="79"></path>
	<path fill="#6061F9" d="M458.469 891.627C472.834 891.16 487.307 891.556 501.683 891.613C504.781 891.625 511.604 892.387 514.301 891.65C514.993 891.461 515.066 891.35 515.568 890.98C516.443 889.13 516.791 887.088 518.555 885.908C519.813 885.652 521.388 885.415 522.584 886.081C523.629 886.662 524.318 887.553 524.505 888.747C524.663 889.755 524.583 890.878 524.564 891.898C515.077 892.21 505.488 891.935 495.991 891.924C483.498 891.91 470.953 892.087 458.469 891.627Z" data-index="80"></path>
	<path fill="#8E9DF3" d="M514.724 800.483C514.908 800.471 515.093 800.457 515.278 800.448C517.236 800.345 518.53 800.381 520.015 801.823C521.069 802.847 521.466 803.971 521.466 805.438C521.467 807.549 520.115 809.001 518.683 810.356C516.96 810.436 515.819 810.171 514.544 808.964C513.278 807.765 512.733 806.28 512.736 804.55C512.739 802.669 513.505 801.753 514.724 800.483Z" data-index="81"></path>
</svg>