<svg xmlns="http://www.w3.org/2000/svg" xmlns:xlink="http://www.w3.org/1999/xlink" version="1.1" width="1080" height="1080" viewBox="0 0 1080 1080" xml:space="preserve">
<desc>Created with Fabric.js 5.2.4</desc>
<defs>
</defs>
<rect x="0" y="0" width="100%" height="100%" fill="transparent"></rect>
<g transform="matrix(1 0 0 1 540 540)" id="33919d11-5f59-43ea-9533-ae0446a135e2">
<rect style="stroke: none; stroke-width: 1; stroke-dasharray: none; stroke-linecap: butt; stroke-dashoffset: 0; stroke-linejoin: miter; stroke-miterlimit: 4; fill: rgb(255,255,255); fill-rule: nonzero; opacity: 1; visibility: hidden;" vector-effect="non-scaling-stroke" x="-540" y="-540" rx="0" ry="0" width="1080" height="1080"></rect>
</g>
<g transform="matrix(1 0 0 1 540 540)" id="c28ddf61-c678-422c-a505-b3c7b30dafff">
</g>
<g transform="matrix(1 0 0 1 540 540)">
<g style="" vector-effect="non-scaling-stroke">
		<g transform="matrix(1 0 0 1 0 0)">
<path style="stroke: rgb(243, 248, 255); stroke-width: 1; stroke-dasharray: none; stroke-linecap: butt; stroke-dashoffset: 0; stroke-linejoin: miter; stroke-miterlimit: 4; fill: rgb(243, 248, 255); fill-rule: nonzero; opacity: 1; visibility: visible;" vector-effect="non-scaling-stroke" transform=" translate(-512, -512)" d="M 0 0 L 498.759 0 L 526.302 0 L 1024 0 L 1024 1024 L 730.853 1024 L 519.5 1024 L 0 1024 L 0 0 Z" stroke-linecap="round" data-index="0"></path>
</g>
		<g transform="matrix(1 0 0 1 45.33 -182.87)">
<path style="stroke: none; stroke-width: 1; stroke-dasharray: none; stroke-linecap: butt; stroke-dashoffset: 0; stroke-linejoin: miter; stroke-miterlimit: 4; fill: rgb(26,26,26); fill-rule: nonzero; opacity: 1;" vector-effect="non-scaling-stroke" transform=" translate(-557.33, -329.13)" d="M 556.467 280.147 C 556.677 280.216 556.895 280.263 557.095 280.355 C 558.178 280.852 558.551 281.239 558.988 282.342 C 559.98 284.845 559.788 364.436 559.372 373.587 C 559.298 375.209 559.032 376.607 558.398 378.108 C 558.025 377.997 557.324 377.802 556.991 377.637 C 555.922 377.109 555.602 376.157 555.317 375.069 C 554.564 372.19 555.218 368.791 555.206 365.836 Q 554.998 349.725 555.077 333.613 L 555.11 300.559 C 555.113 295.202 554.796 289.703 555.113 284.364 C 555.217 282.609 555.544 281.642 556.467 280.147 Z" stroke-linecap="round" data-index="1"></path>
</g>
		<g transform="matrix(1 0 0 1 -44.8 -183.29)">
<path style="stroke: none; stroke-width: 1; stroke-dasharray: none; stroke-linecap: butt; stroke-dashoffset: 0; stroke-linejoin: miter; stroke-miterlimit: 4; fill: rgb(26,26,26); fill-rule: nonzero; opacity: 1;" vector-effect="non-scaling-stroke" transform=" translate(-467.2, -328.71)" d="M 465.405 280.612 C 467.052 280.761 467.955 280.791 469.159 281.952 C 470.188 288.539 469.289 302.699 469.309 310.314 L 469.539 376.789 C 468.145 376.836 467.218 376.872 465.924 376.229 C 465.116 374.989 465.128 373.732 465.068 372.304 C 464.346 355.195 465.075 337.742 465.092 320.594 C 465.105 307.442 464.149 293.659 465.405 280.612 Z" stroke-linecap="round" data-index="2"></path>
</g>
		<g transform="matrix(1 0 0 1 0.02 -382.26)">
<path style="stroke: none; stroke-width: 1; stroke-dasharray: none; stroke-linecap: butt; stroke-dashoffset: 0; stroke-linejoin: miter; stroke-miterlimit: 4; fill: rgb(26, 26, 26); fill-rule: nonzero; opacity: 1;" vector-effect="non-scaling-stroke" transform=" translate(-512.02, -129.74)" d="M 498.759 0 L 526.302 0 C 531.433 1.19955 536.762 1.70886 541.925 2.86304 C 557.244 6.28744 571.259 12.734 584.308 21.3439 C 612.474 39.9296 633.192 71.4747 639.734 104.499 Q 640.044 106.085 640.314 107.678 Q 640.584 109.271 640.816 110.87 Q 641.047 112.469 641.238 114.073 Q 641.43 115.678 641.582 117.286 Q 641.734 118.895 641.846 120.507 Q 641.959 122.118 642.032 123.732 Q 642.104 125.347 642.137 126.962 Q 642.17 128.577 642.163 130.193 Q 642.156 131.809 642.109 133.424 Q 642.062 135.039 641.976 136.652 Q 641.889 138.266 641.763 139.877 Q 641.637 141.487 641.471 143.095 Q 641.305 144.702 641.099 146.304 Q 640.894 147.907 640.649 149.504 Q 640.404 151.101 640.12 152.692 Q 639.836 154.282 639.513 155.865 Q 639.189 157.448 638.827 159.023 Q 638.465 160.598 638.064 162.163 Q 637.663 163.728 637.224 165.283 Q 636.785 166.838 636.307 168.381 Q 635.83 169.925 635.315 171.456 Q 634.799 172.988 634.246 174.506 Q 633.693 176.024 633.103 177.528 Q 632.513 179.032 631.886 180.521 Q 631.259 182.01 630.595 183.484 Q 629.932 184.957 629.232 186.413 Q 628.532 187.87 627.797 189.308 Q 627.062 190.747 626.291 192.167 Q 625.521 193.587 624.716 194.988 Q 623.91 196.389 623.071 197.769 Q 622.231 199.15 621.358 200.509 Q 620.484 201.869 619.578 203.206 C 600.209 231.724 569.193 250.836 535.544 257.184 C 500.472 263.802 465.905 255.895 436.594 235.728 C 409.143 216.84 389.607 185.536 383.758 152.851 Q 383.486 151.26 383.253 149.662 Q 383.021 148.065 382.827 146.462 Q 382.633 144.859 382.479 143.252 Q 382.325 141.645 382.21 140.035 Q 382.094 138.425 382.019 136.812 Q 381.943 135.2 381.907 133.586 Q 381.871 131.972 381.874 130.357 Q 381.878 128.743 381.92 127.129 Q 381.963 125.515 382.046 123.903 Q 382.128 122.291 382.25 120.681 Q 382.371 119.071 382.532 117.465 Q 382.693 115.858 382.894 114.257 Q 383.094 112.655 383.333 111.058 Q 383.573 109.462 383.851 107.871 Q 384.129 106.281 384.447 104.698 Q 384.764 103.115 385.12 101.541 Q 385.475 99.966 385.87 98.4005 Q 386.264 96.835 386.696 95.2796 Q 387.129 93.7242 387.599 92.1799 Q 388.069 90.6355 388.577 89.1031 Q 389.085 87.5707 389.63 86.0512 Q 390.176 84.5317 390.758 83.026 Q 391.34 81.5203 391.959 80.0293 Q 392.578 78.5383 393.233 77.0629 Q 393.889 75.5874 394.58 74.1285 Q 395.271 72.6695 395.997 71.2279 Q 396.724 69.7863 397.486 68.3628 Q 398.247 66.9394 399.044 65.535 Q 399.84 64.1307 400.67 62.7462 Q 401.5 61.3618 402.364 59.998 Q 403.228 58.6343 404.125 57.2921 Q 405.022 55.9499 405.952 54.63 Q 406.765 53.468 407.603 52.3242 Q 408.441 51.1804 409.303 50.0553 Q 410.166 48.9301 411.054 47.8242 Q 411.941 46.7183 412.853 45.6321 Q 413.764 44.546 414.699 43.4801 Q 415.634 42.4142 416.593 41.3692 Q 417.551 40.3241 418.532 39.3003 Q 419.513 38.2766 420.516 37.2746 Q 421.52 36.2726 422.545 35.2929 Q 423.57 34.3132 424.616 33.3563 Q 425.662 32.3993 426.73 31.4656 Q 427.797 30.5319 428.884 29.6218 Q 429.971 28.7118 431.078 27.8258 Q 432.185 26.9398 433.312 26.0784 Q 434.438 25.217 435.583 24.3805 Q 436.728 23.544 437.891 22.7329 Q 439.054 21.9218 440.234 21.1364 Q 441.415 20.351 442.613 19.5917 Q 443.81 18.8325 445.024 18.0997 Q 446.238 17.3669 447.468 16.661 Q 448.697 15.9551 449.942 15.2763 Q 451.187 14.5975 452.447 13.9463 Q 453.706 13.2951 454.98 12.6716 Q 456.253 12.0482 457.54 11.4529 Q 458.827 10.8576 460.127 10.2907 Q 461.426 9.72387 462.738 9.18567 Q 464.05 8.64747 465.373 8.13822 Q 466.697 7.62896 468.031 7.1489 Q 469.365 6.66884 470.71 6.2182 Q 472.054 5.76756 473.408 5.34656 Q 474.762 4.92556 476.125 4.53441 Q 477.488 4.14325 478.859 3.78213 C 485.379 2.05301 492.12 1.15437 498.759 0 Z" stroke-linecap="round" data-index="3"></path>
</g>
		<g transform="matrix(1 0 0 1 0 -382.32)">
<path style="stroke: rgb(243, 248, 255); stroke-width: 1; stroke-dasharray: none; stroke-linecap: butt; stroke-dashoffset: 0; stroke-linejoin: miter; stroke-miterlimit: 4; fill: rgb(243, 248, 255); fill-rule: nonzero; opacity: 1; visibility: visible;" vector-effect="non-scaling-stroke" transform=" translate(-512, -129.68)" d="M 507.343 4.23232 C 540.023 3.28743 570.914 13.7236 595.39 35.7167 C 619.826 57.6736 635.7 89.2008 637.427 122.184 C 639.143 154.967 628.58 187.873 606.449 212.394 Q 605.391 213.587 604.304 214.754 Q 603.217 215.92 602.1 217.059 Q 600.984 218.198 599.84 219.308 Q 598.695 220.419 597.523 221.5 Q 596.351 222.581 595.153 223.633 Q 593.954 224.685 592.73 225.706 Q 591.505 226.727 590.255 227.718 Q 589.005 228.708 587.731 229.667 Q 586.457 230.625 585.159 231.552 Q 583.861 232.478 582.54 233.372 Q 581.22 234.266 579.877 235.126 Q 578.534 235.986 577.17 236.812 Q 575.807 237.639 574.422 238.431 Q 573.038 239.222 571.635 239.979 Q 570.231 240.736 568.809 241.458 Q 567.387 242.179 565.947 242.865 Q 564.508 243.551 563.051 244.2 Q 561.595 244.849 560.123 245.462 Q 558.65 246.075 557.163 246.65 Q 555.676 247.226 554.175 247.764 Q 552.674 248.302 551.16 248.802 Q 549.646 249.302 548.12 249.765 Q 546.594 250.227 545.056 250.651 Q 543.519 251.074 541.972 251.46 Q 540.424 251.845 538.868 252.191 Q 537.311 252.537 535.746 252.844 Q 534.181 253.151 532.609 253.419 Q 531.037 253.687 529.459 253.915 Q 527.881 254.143 526.298 254.332 Q 524.714 254.521 523.127 254.67 Q 521.539 254.819 519.948 254.928 Q 518.357 255.037 516.764 255.106 C 485.546 256.141 453.568 245.845 430.005 225.01 C 404.686 202.621 388.458 172.412 386.623 138.356 Q 386.528 136.782 386.472 135.206 Q 386.416 133.631 386.399 132.054 Q 386.382 130.477 386.404 128.901 Q 386.426 127.324 386.487 125.748 Q 386.548 124.173 386.649 122.599 Q 386.749 121.026 386.888 119.455 Q 387.027 117.884 387.205 116.318 Q 387.383 114.751 387.599 113.189 Q 387.816 111.627 388.072 110.071 Q 388.327 108.516 388.621 106.966 Q 388.914 105.417 389.247 103.876 Q 389.579 102.334 389.949 100.802 Q 390.319 99.269 390.727 97.746 Q 391.135 96.2229 391.581 94.7104 Q 392.026 93.1979 392.509 91.697 Q 392.992 90.196 393.512 88.7074 Q 394.032 87.2188 394.589 85.7436 Q 395.145 84.2684 395.738 82.8074 Q 396.331 81.3464 396.961 79.9006 Q 397.59 78.4548 398.254 77.0249 Q 398.919 75.5951 399.619 74.1822 Q 400.319 72.7693 401.053 71.3741 Q 401.788 69.979 402.557 68.6025 Q 403.326 67.226 404.129 65.8689 Q 404.932 64.5119 405.768 63.1751 Q 406.604 61.8384 407.474 60.5228 Q 408.343 59.2072 409.244 57.9135 Q 410.146 56.6198 411.079 55.3488 Q 412.012 54.0779 412.976 52.8304 Q 413.941 51.583 414.936 50.3598 Q 415.931 49.1366 416.956 47.9385 Q 417.981 46.7403 419.035 45.5679 C 442.293 19.9205 472.83 5.78928 507.343 4.23232 Z" stroke-linecap="round" data-index="4"></path>
</g>
		<g transform="matrix(1 0 0 1 0.88 -381.96)">
<path style="stroke: none; stroke-width: 1; stroke-dasharray: none; stroke-linecap: butt; stroke-dashoffset: 0; stroke-linejoin: miter; stroke-miterlimit: 4; fill: rgb(26,26,26); fill-rule: nonzero; opacity: 1;" vector-effect="non-scaling-stroke" transform=" translate(-512.88, -130.04)" d="M 486.11 50.9914 C 503.537 50.9677 521.01 50.68 538.432 51.0961 C 538.951 81.1028 538.463 111.2 538.46 141.216 C 547.469 141.362 556.501 141.153 565.511 141.091 C 569.541 141.063 573.829 140.74 577.825 141.195 C 579.316 141.365 579.621 141.22 580.545 142.378 C 580.496 143.548 580.297 144.325 579.587 145.28 C 575.825 150.337 569.984 155.023 565.401 159.481 Q 546.492 177.805 527.17 195.693 C 522.512 200.234 517.905 205.175 512.807 209.208 C 508.648 206.465 446.006 145.534 445.414 143.907 C 444.994 142.752 445.317 142.38 445.887 141.438 C 453.808 139.799 475.887 141.079 485.295 141.172 L 485.157 83.3865 C 485.12 73.6815 484.333 63.4447 485.172 53.815 C 485.269 52.7004 485.577 51.9559 486.11 50.9914 Z" stroke-linecap="round" data-index="5"></path>
</g>
		<g transform="matrix(1 0 0 1 0.65 -382.7)">
<path style="stroke: none; stroke-width: 1; stroke-dasharray: none; stroke-linecap: butt; stroke-dashoffset: 0; stroke-linejoin: miter; stroke-miterlimit: 4; fill: rgb(96,96,97); fill-rule: nonzero; opacity: 1;" vector-effect="non-scaling-stroke" transform=" translate(-512.65, -129.3)" d="M 489.602 55.7454 C 504.398 55.2566 519.257 55.4969 534.062 55.4891 C 534.901 85.4487 534.282 115.733 533.988 145.707 C 546.598 146.624 559.754 145.902 572.417 145.835 C 556.832 161.912 540.537 177.045 524.284 192.433 L 512.556 203.156 C 492.351 184.349 473.12 164.514 452.882 145.736 C 464.968 145.74 477.368 146.248 489.415 145.438 C 490.323 136.223 489.774 126.41 489.795 117.136 L 489.602 55.7454 Z" stroke-linecap="round" data-index="6"></path>
</g>
		<g transform="matrix(1 0 0 1 0.23 200.25)">
<path style="stroke: none; stroke-width: 1; stroke-dasharray: none; stroke-linecap: butt; stroke-dashoffset: 0; stroke-linejoin: miter; stroke-miterlimit: 4; fill: rgb(26, 26, 26); fill-rule: nonzero; opacity: 1;" vector-effect="non-scaling-stroke" transform=" translate(-512.23, -712.25)" d="M 374.649 445.474 C 374.394 437.919 373.412 406.991 375.224 401.241 C 384.097 399.811 397.849 400.872 407.103 400.912 L 472.883 401.075 L 598.102 400.955 L 631.084 400.989 C 637.071 400.997 643.723 400.442 649.61 401.51 C 649.855 401.833 650.215 402.096 650.345 402.48 C 651.181 404.955 650.94 437.536 650.401 441.942 C 650.269 443.016 650.021 443.995 649.692 445.021 C 646.376 447.152 633.112 445.717 628.318 445.898 L 649.689 529.199 Q 655.393 550.358 660.652 571.632 C 662.494 578.864 664.709 586.031 666.101 593.365 C 664.141 598.242 660.868 602.788 658.142 607.279 C 652.692 616.26 647.081 625.183 641.87 634.304 C 654.026 644.626 666.283 654.755 678.294 665.259 C 684.911 671.045 692.648 676.811 697.692 684.054 C 701.62 689.695 704.204 696.71 704.78 703.569 C 705.604 713.387 705.137 723.553 705.139 733.416 L 705.232 785.642 Q 704.729 893.134 705.344 1000.62 C 711.295 1000.59 727.632 999.351 732.111 1001.69 C 734.398 1004.67 734.008 1015.6 733.558 1019.53 C 733.374 1021.14 733.05 1021.93 731.779 1022.92 L 730.493 1023.08 L 730.853 1024 L 519.5 1024 C 514.58 1022.85 509.126 1024.67 504.19 1023.15 L 349.963 1023.03 C 339.304 1023.03 298.775 1024.14 292.003 1022.31 C 290.246 1018.79 290.127 1005.77 291.502 1002.09 C 291.833 1001.2 292.041 1001.19 292.747 1000.64 C 300.977 999.345 311.254 1000.38 319.702 1000.44 L 319.665 791.372 L 319.799 732.111 C 319.834 721.947 319.009 710.767 320.418 700.726 Q 320.643 699.177 320.99 697.65 Q 321.336 696.124 321.803 694.63 Q 322.27 693.135 322.854 691.683 Q 323.438 690.231 324.136 688.829 Q 324.833 687.428 325.64 686.086 Q 326.446 684.744 327.356 683.471 Q 328.267 682.197 329.275 681 Q 330.284 679.802 331.384 678.689 C 337.691 672.364 345.223 666.92 352.057 661.141 C 362.406 652.39 372.493 643.321 382.849 634.592 C 377.665 625.318 372.011 616.32 366.456 607.267 C 363.67 602.724 360.292 598.005 358.129 593.15 C 366.108 560.856 375.039 528.727 383.444 496.536 C 387.818 479.782 392.91 462.823 395.825 445.749 C 388.802 445.616 381.644 445.918 374.649 445.474 Z" stroke-linecap="round" data-index="7"></path>
</g>
		<g transform="matrix(1 0 0 1 -67.25 483.51)">
<path style="stroke: none; stroke-width: 1; stroke-dasharray: none; stroke-linecap: butt; stroke-dashoffset: 0; stroke-linejoin: miter; stroke-miterlimit: 4; fill: rgb(254,254,254); fill-rule: nonzero; opacity: 1;" vector-effect="non-scaling-stroke" transform=" translate(-444.75, -995.51)" d="M 443.418 992.648 C 443.802 992.658 444.174 992.654 444.555 992.737 C 445.893 993.027 446.175 993.213 446.977 994.234 C 447.223 995.805 446.644 996.955 446.081 998.381 C 444.41 998.11 443.754 997.896 442.579 996.713 C 442.255 995.011 442.718 994.141 443.418 992.648 Z" stroke-linecap="round" data-index="8"></path>
</g>
		<g transform="matrix(1 0 0 1 -86.08 439.62)">
<path style="stroke: none; stroke-width: 1; stroke-dasharray: none; stroke-linecap: butt; stroke-dashoffset: 0; stroke-linejoin: miter; stroke-miterlimit: 4; fill: rgb(254,254,254); fill-rule: nonzero; opacity: 1;" vector-effect="non-scaling-stroke" transform=" translate(-425.92, -951.62)" d="M 424.257 948.743 C 426.034 948.885 426.945 949.12 428.172 950.401 C 428.51 952.029 427.991 952.98 427.354 954.429 C 426.944 954.467 426.376 954.541 425.976 954.478 C 424.603 954.263 424.362 953.807 423.613 952.764 C 423.423 951.152 423.712 950.216 424.257 948.743 Z" stroke-linecap="round" data-index="9"></path>
</g>
		<g transform="matrix(1 0 0 1 -32.04 470.02)">
<path style="stroke: none; stroke-width: 1; stroke-dasharray: none; stroke-linecap: butt; stroke-dashoffset: 0; stroke-linejoin: miter; stroke-miterlimit: 4; fill: rgb(254,254,254); fill-rule: nonzero; opacity: 1;" vector-effect="non-scaling-stroke" transform=" translate(-479.96, -982.02)" d="M 478.112 979.277 C 480.025 979.287 480.915 979.434 482.284 980.757 C 482.606 982.367 482.358 983.244 481.851 984.74 C 481.304 984.742 480.534 984.802 479.984 984.682 C 478.608 984.382 478.385 984.127 477.552 983.082 C 477.362 981.6 477.657 980.653 478.112 979.277 Z" stroke-linecap="round" data-index="10"></path>
</g>
		<g transform="matrix(1 0 0 1 64.92 471.98)">
<path style="stroke: none; stroke-width: 1; stroke-dasharray: none; stroke-linecap: butt; stroke-dashoffset: 0; stroke-linejoin: miter; stroke-miterlimit: 4; fill: rgb(254,254,254); fill-rule: nonzero; opacity: 1;" vector-effect="non-scaling-stroke" transform=" translate(-576.92, -983.98)" d="M 574.668 981.412 C 575.101 981.389 575.534 981.355 575.967 981.357 C 577.513 981.363 578.34 981.641 579.45 982.705 C 579.766 984.275 579.282 985.205 578.682 986.61 C 576.942 986.54 575.8 986.308 574.541 985.043 C 574.119 983.421 574.275 982.991 574.668 981.412 Z" stroke-linecap="round" data-index="11"></path>
</g>
		<g transform="matrix(1 0 0 1 56.93 462.36)">
<path style="stroke: none; stroke-width: 1; stroke-dasharray: none; stroke-linecap: butt; stroke-dashoffset: 0; stroke-linejoin: miter; stroke-miterlimit: 4; fill: rgb(254,254,254); fill-rule: nonzero; opacity: 1;" vector-effect="non-scaling-stroke" transform=" translate(-568.93, -974.36)" d="M 566.815 971.81 C 568.858 971.749 569.962 971.867 571.507 973.244 C 571.805 974.861 571.57 975.309 571.057 976.829 C 570.793 976.854 570.53 976.889 570.265 976.904 C 568.543 976.998 567.667 976.758 566.416 975.579 C 565.988 974.042 566.299 973.24 566.815 971.81 Z" stroke-linecap="round" data-index="12"></path>
</g>
		<g transform="matrix(1 0 0 1 -38.82 435.01)">
<path style="stroke: none; stroke-width: 1; stroke-dasharray: none; stroke-linecap: butt; stroke-dashoffset: 0; stroke-linejoin: miter; stroke-miterlimit: 4; fill: rgb(254,254,254); fill-rule: nonzero; opacity: 1;" vector-effect="non-scaling-stroke" transform=" translate(-473.18, -947.01)" d="M 471.883 943.739 C 472.369 943.815 473.064 943.903 473.511 944.074 C 474.856 944.591 475.147 945.079 475.798 946.256 C 475.821 947.953 475.363 948.82 474.531 950.278 C 474.023 950.205 473.214 950.115 472.753 949.927 C 471.422 949.385 471.143 948.724 470.567 947.532 C 470.547 945.849 471.014 945.093 471.883 943.739 Z" stroke-linecap="round" data-index="13"></path>
</g>
		<g transform="matrix(1 0 0 1 -108.2 448)">
<path style="stroke: none; stroke-width: 1; stroke-dasharray: none; stroke-linecap: butt; stroke-dashoffset: 0; stroke-linejoin: miter; stroke-miterlimit: 4; fill: rgb(254,254,254); fill-rule: nonzero; opacity: 1;" vector-effect="non-scaling-stroke" transform=" translate(-403.8, -960)" d="M 402.959 956.635 C 403.507 956.821 404.162 957 404.666 957.305 C 405.848 958.02 406.147 958.705 406.567 959.965 C 406.353 961.615 405.664 962.237 404.556 963.362 C 404.079 963.21 403.328 962.992 402.908 962.753 C 401.704 962.069 401.492 961.482 401.03 960.277 C 401.258 958.554 401.795 957.898 402.959 956.635 Z" stroke-linecap="round" data-index="14"></path>
</g>
		<g transform="matrix(1 0 0 1 89.18 479.55)">
<path style="stroke: none; stroke-width: 1; stroke-dasharray: none; stroke-linecap: butt; stroke-dashoffset: 0; stroke-linejoin: miter; stroke-miterlimit: 4; fill: rgb(254,254,254); fill-rule: nonzero; opacity: 1;" vector-effect="non-scaling-stroke" transform=" translate(-601.17, -991.55)" d="M 600.914 988.174 C 601.173 988.28 601.447 988.355 601.69 988.492 C 602.937 989.195 603.469 989.919 603.907 991.265 C 603.793 992.99 603.339 993.622 602.228 994.92 C 601.675 994.788 600.599 994.619 600.079 994.305 C 598.825 993.547 598.738 993.112 598.443 991.799 C 598.912 990.081 599.63 989.375 600.914 988.174 Z" stroke-linecap="round" data-index="15"></path>
</g>
		<g transform="matrix(1 0 0 1 -25.97 479.37)">
<path style="stroke: none; stroke-width: 1; stroke-dasharray: none; stroke-linecap: butt; stroke-dashoffset: 0; stroke-linejoin: miter; stroke-miterlimit: 4; fill: rgb(254,254,254); fill-rule: nonzero; opacity: 1;" vector-effect="non-scaling-stroke" transform=" translate(-486.03, -991.37)" d="M 484.392 988.244 C 484.753 988.277 485.341 988.32 485.731 988.39 C 487.309 988.675 487.878 989.423 488.673 990.667 C 488.833 992.307 488.312 993.123 487.538 994.489 C 487.314 994.479 487.09 994.478 486.867 994.458 C 485.087 994.296 484.454 993.846 483.407 992.51 C 483.176 990.762 483.653 989.812 484.392 988.244 Z" stroke-linecap="round" data-index="16"></path>
</g>
		<g transform="matrix(1 0 0 1 41.72 449.61)">
<path style="stroke: none; stroke-width: 1; stroke-dasharray: none; stroke-linecap: butt; stroke-dashoffset: 0; stroke-linejoin: miter; stroke-miterlimit: 4; fill: rgb(254,254,254); fill-rule: nonzero; opacity: 1;" vector-effect="non-scaling-stroke" transform=" translate(-553.72, -961.61)" d="M 551.828 958.711 C 552.613 958.747 553.493 958.745 554.255 958.938 C 555.535 959.261 555.941 959.872 556.565 960.951 C 556.564 962.58 555.874 963.302 554.919 964.512 C 554.467 964.509 553.921 964.527 553.485 964.411 C 552.106 964.044 551.706 963.59 550.907 962.519 C 550.789 960.704 551.06 960.302 551.828 958.711 Z" stroke-linecap="round" data-index="17"></path>
</g>
		<g transform="matrix(1 0 0 1 11.95 446.99)">
<path style="stroke: none; stroke-width: 1; stroke-dasharray: none; stroke-linecap: butt; stroke-dashoffset: 0; stroke-linejoin: miter; stroke-miterlimit: 4; fill: rgb(254,254,254); fill-rule: nonzero; opacity: 1;" vector-effect="non-scaling-stroke" transform=" translate(-523.95, -958.99)" d="M 521.821 956.437 C 522.613 956.391 523.474 956.305 524.262 956.401 C 525.555 956.56 526.086 956.987 526.878 957.956 C 527.064 959.515 526.671 960.137 525.98 961.479 C 525.275 961.542 524.453 961.664 523.737 961.594 C 522.402 961.463 521.87 961.031 521.037 960.05 C 520.82 958.534 521.196 957.762 521.821 956.437 Z" stroke-linecap="round" data-index="18"></path>
</g>
		<g transform="matrix(1 0 0 1 101.48 454.13)">
<path style="stroke: none; stroke-width: 1; stroke-dasharray: none; stroke-linecap: butt; stroke-dashoffset: 0; stroke-linejoin: miter; stroke-miterlimit: 4; fill: rgb(254,254,254); fill-rule: nonzero; opacity: 1;" vector-effect="non-scaling-stroke" transform=" translate(-613.48, -966.13)" d="M 612.901 962.885 C 613.408 963.057 614.246 963.272 614.704 963.59 C 615.926 964.438 616.065 964.853 616.44 966.201 C 615.968 967.813 615.356 968.359 614.112 969.37 C 613.588 969.232 612.668 969.065 612.179 968.773 C 610.926 968.024 610.869 967.628 610.524 966.313 C 611.013 964.697 611.672 964.018 612.901 962.885 Z" stroke-linecap="round" data-index="19"></path>
</g>
		<g transform="matrix(1 0 0 1 -97.06 465.03)">
<path style="stroke: none; stroke-width: 1; stroke-dasharray: none; stroke-linecap: butt; stroke-dashoffset: 0; stroke-linejoin: miter; stroke-miterlimit: 4; fill: rgb(254,254,254); fill-rule: nonzero; opacity: 1;" vector-effect="non-scaling-stroke" transform=" translate(-414.94, -977.03)" d="M 413.539 973.825 C 414.064 973.86 414.975 973.851 415.496 974.041 C 416.82 974.527 417.036 974.989 417.71 976.134 C 417.746 977.882 417.308 978.744 416.446 980.244 C 415.846 980.198 415.097 980.189 414.513 979.992 C 413.228 979.557 412.783 978.856 412.165 977.729 C 412.109 975.973 412.56 975.255 413.539 973.825 Z" stroke-linecap="round" data-index="20"></path>
</g>
		<g transform="matrix(1 0 0 1 55.23 479.98)">
<path style="stroke: none; stroke-width: 1; stroke-dasharray: none; stroke-linecap: butt; stroke-dashoffset: 0; stroke-linejoin: miter; stroke-miterlimit: 4; fill: rgb(254,254,254); fill-rule: nonzero; opacity: 1;" vector-effect="non-scaling-stroke" transform=" translate(-567.23, -991.98)" d="M 566.339 988.809 C 567.017 988.906 568.065 988.968 568.665 989.281 C 569.918 989.937 570.001 990.45 570.335 991.692 C 569.944 993.337 569.304 994.002 568.153 995.143 C 567.442 995.016 566.35 994.916 565.727 994.569 C 564.465 993.865 564.408 993.348 564.123 992.068 C 564.521 990.53 565.242 989.87 566.339 988.809 Z" stroke-linecap="round" data-index="21"></path>
</g>
		<g transform="matrix(1 0 0 1 72.84 462.16)">
<path style="stroke: none; stroke-width: 1; stroke-dasharray: none; stroke-linecap: butt; stroke-dashoffset: 0; stroke-linejoin: miter; stroke-miterlimit: 4; fill: rgb(254,254,254); fill-rule: nonzero; opacity: 1;" vector-effect="non-scaling-stroke" transform=" translate(-584.84, -974.16)" d="M 583.873 970.894 C 584.624 971.039 585.842 971.166 586.494 971.6 C 587.711 972.412 587.774 972.862 588.035 974.187 C 587.603 975.807 586.79 976.408 585.565 977.434 C 584.885 977.262 583.918 977.1 583.323 976.743 C 582.124 976.023 582.017 975.528 581.648 974.286 C 582.013 972.606 582.668 972.004 583.873 970.894 Z" stroke-linecap="round" data-index="22"></path>
</g>
		<g transform="matrix(1 0 0 1 -104.62 440.91)">
<path style="stroke: none; stroke-width: 1; stroke-dasharray: none; stroke-linecap: butt; stroke-dashoffset: 0; stroke-linejoin: miter; stroke-miterlimit: 4; fill: rgb(254,254,254); fill-rule: nonzero; opacity: 1;" vector-effect="non-scaling-stroke" transform=" translate(-407.38, -952.91)" d="M 405.949 949.828 C 406.627 949.85 407.622 949.799 408.252 950.03 C 409.557 950.509 409.777 951.074 410.389 952.208 C 410.376 953.896 409.936 954.623 409.036 955.961 C 408.098 956.013 407.172 955.969 406.234 955.939 C 405.04 955.179 404.902 955.146 404.375 953.85 C 404.548 952.086 404.926 951.265 405.949 949.828 Z" stroke-linecap="round" data-index="23"></path>
</g>
		<g transform="matrix(1 0 0 1 -97.15 429.53)">
<path style="stroke: none; stroke-width: 1; stroke-dasharray: none; stroke-linecap: butt; stroke-dashoffset: 0; stroke-linejoin: miter; stroke-miterlimit: 4; fill: rgb(254,254,254); fill-rule: nonzero; opacity: 1;" vector-effect="non-scaling-stroke" transform=" translate(-414.85, -941.53)" d="M 413.449 938.248 C 413.882 938.294 414.317 938.327 414.745 938.408 C 416.245 938.691 416.92 939.378 417.746 940.598 C 417.934 942.344 417.599 943.229 416.867 944.807 C 415.971 944.777 414.847 944.813 413.991 944.496 C 412.694 944.015 412.386 943.263 411.911 942.067 C 412.009 940.365 412.514 939.588 413.449 938.248 Z" stroke-linecap="round" data-index="24"></path>
</g>
		<g transform="matrix(1 0 0 1 102.07 429.6)">
<path style="stroke: none; stroke-width: 1; stroke-dasharray: none; stroke-linecap: butt; stroke-dashoffset: 0; stroke-linejoin: miter; stroke-miterlimit: 4; fill: rgb(254,254,254); fill-rule: nonzero; opacity: 1;" vector-effect="non-scaling-stroke" transform=" translate(-614.07, -941.6)" d="M 612.453 938.293 C 613.29 938.391 614.399 938.464 615.159 938.851 C 616.432 939.499 616.636 940.214 617.055 941.446 C 616.869 943.069 616.437 943.646 615.481 944.9 C 614.929 944.889 613.857 944.95 613.299 944.753 C 611.894 944.259 611.709 943.782 611.095 942.549 C 611.089 940.769 611.589 939.827 612.453 938.293 Z" stroke-linecap="round" data-index="25"></path>
</g>
		<g transform="matrix(1 0 0 1 28.21 447.21)">
<path style="stroke: none; stroke-width: 1; stroke-dasharray: none; stroke-linecap: butt; stroke-dashoffset: 0; stroke-linejoin: miter; stroke-miterlimit: 4; fill: rgb(254,254,254); fill-rule: nonzero; opacity: 1;" vector-effect="non-scaling-stroke" transform=" translate(-540.21, -959.21)" d="M 539.017 955.887 C 539.775 955.974 540.669 956.03 541.383 956.3 C 542.633 956.775 542.945 957.561 543.382 958.718 C 543.2 960.483 542.572 961.211 541.436 962.536 C 540.582 962.465 539.525 962.383 538.745 962.003 C 537.538 961.416 537.413 960.691 537.047 959.534 C 537.305 957.813 537.847 957.147 539.017 955.887 Z" stroke-linecap="round" data-index="26"></path>
</g>
		<g transform="matrix(1 0 0 1 24.56 432.29)">
<path style="stroke: none; stroke-width: 1; stroke-dasharray: none; stroke-linecap: butt; stroke-dashoffset: 0; stroke-linejoin: miter; stroke-miterlimit: 4; fill: rgb(254,254,254); fill-rule: nonzero; opacity: 1;" vector-effect="non-scaling-stroke" transform=" translate(-536.56, -944.29)" d="M 534.362 941.482 C 535.287 941.446 536.626 941.284 537.512 941.529 C 538.88 941.907 539.137 942.326 539.858 943.43 C 539.967 945.035 539.426 945.802 538.618 947.102 C 537.703 947.153 536.636 947.263 535.736 947.089 C 534.51 946.853 533.983 946.232 533.295 945.276 C 533.103 943.613 533.568 942.861 534.362 941.482 Z" stroke-linecap="round" data-index="27"></path>
</g>
		<g transform="matrix(1 0 0 1 1.08 474.8)">
<path style="stroke: none; stroke-width: 1; stroke-dasharray: none; stroke-linecap: butt; stroke-dashoffset: 0; stroke-linejoin: miter; stroke-miterlimit: 4; fill: rgb(254,254,254); fill-rule: nonzero; opacity: 1;" vector-effect="non-scaling-stroke" transform=" translate(-513.08, -986.8)" d="M 512.498 983.309 C 513.484 983.571 514.704 983.937 515.492 984.608 C 516.426 985.404 516.389 986.067 516.442 987.171 C 515.713 988.775 514.891 989.331 513.437 990.284 C 512.67 990.043 511.443 989.708 510.836 989.132 C 509.785 988.135 509.779 987.693 509.719 986.352 C 510.405 984.79 511.151 984.239 512.498 983.309 Z" stroke-linecap="round" data-index="28"></path>
</g>
		<g transform="matrix(1 0 0 1 -79.14 478.45)">
<path style="stroke: none; stroke-width: 1; stroke-dasharray: none; stroke-linecap: butt; stroke-dashoffset: 0; stroke-linejoin: miter; stroke-miterlimit: 4; fill: rgb(254,254,254); fill-rule: nonzero; opacity: 1;" vector-effect="non-scaling-stroke" transform=" translate(-432.86, -990.45)" d="M 431.373 986.763 C 432.293 986.851 433.478 987.004 434.275 987.488 C 435.299 988.11 435.911 989.007 436.022 990.198 C 436.163 991.698 435.102 992.99 434.292 994.14 C 433.485 993.911 432.562 993.694 431.822 993.296 C 430.572 992.624 430.163 991.799 429.686 990.536 C 429.826 988.832 430.338 988.098 431.373 986.763 Z" stroke-linecap="round" data-index="29"></path>
</g>
		<g transform="matrix(1 0 0 1 -63.85 420.64)">
<path style="stroke: none; stroke-width: 1; stroke-dasharray: none; stroke-linecap: butt; stroke-dashoffset: 0; stroke-linejoin: miter; stroke-miterlimit: 4; fill: rgb(254,254,254); fill-rule: nonzero; opacity: 1;" vector-effect="non-scaling-stroke" transform=" translate(-448.15, -932.64)" d="M 446.973 929.412 C 448.405 929.443 449.197 929.631 450.479 930.179 C 451.467 931.363 451.549 931.418 451.647 932.945 C 451.074 934.46 450.534 934.901 449.308 935.868 C 448.429 935.763 447.083 935.661 446.316 935.214 C 445.087 934.497 444.998 934.102 444.654 932.829 C 445.005 931.219 445.845 930.512 446.973 929.412 Z" stroke-linecap="round" data-index="30"></path>
</g>
		<g transform="matrix(1 0 0 1 106.15 441.73)">
<path style="stroke: none; stroke-width: 1; stroke-dasharray: none; stroke-linecap: butt; stroke-dashoffset: 0; stroke-linejoin: miter; stroke-miterlimit: 4; fill: rgb(254,254,254); fill-rule: nonzero; opacity: 1;" vector-effect="non-scaling-stroke" transform=" translate(-618.15, -953.73)" d="M 617.173 950.44 C 618.295 950.438 619.559 950.388 620.499 951.128 C 621.318 951.773 621.715 952.658 621.587 953.698 C 621.398 955.235 620.249 956.123 619.141 957.024 C 618.304 956.886 617.038 956.739 616.301 956.326 C 615.124 955.666 615.038 955.253 614.696 954.056 C 615.09 952.32 615.937 951.608 617.173 950.44 Z" stroke-linecap="round" data-index="31"></path>
</g>
		<g transform="matrix(1 0 0 1 -7.45 423.58)">
<path style="stroke: none; stroke-width: 1; stroke-dasharray: none; stroke-linecap: butt; stroke-dashoffset: 0; stroke-linejoin: miter; stroke-miterlimit: 4; fill: rgb(254,254,254); fill-rule: nonzero; opacity: 1;" vector-effect="non-scaling-stroke" transform=" translate(-504.55, -935.58)" d="M 502.787 932.358 C 503.759 932.356 505.081 932.305 505.977 932.718 C 507.274 933.317 507.502 933.957 507.975 935.175 C 507.846 936.83 507.286 937.555 506.316 938.813 C 505.273 938.78 503.977 938.762 503.028 938.275 C 501.758 937.624 501.566 937.041 501.126 935.803 C 501.273 934.221 501.834 933.541 502.787 932.358 Z" stroke-linecap="round" data-index="32"></path>
</g>
		<g transform="matrix(1 0 0 1 14.47 426.85)">
<path style="stroke: none; stroke-width: 1; stroke-dasharray: none; stroke-linecap: butt; stroke-dashoffset: 0; stroke-linejoin: miter; stroke-miterlimit: 4; fill: rgb(254,254,254); fill-rule: nonzero; opacity: 1;" vector-effect="non-scaling-stroke" transform=" translate(-526.47, -938.85)" d="M 525.954 935.334 C 526.742 935.56 527.983 935.853 528.632 936.395 C 529.769 937.347 529.75 937.811 529.875 939.18 C 529.215 940.791 528.388 941.375 526.989 942.368 C 525.995 942.237 524.856 942.086 524.07 941.386 C 523.2 940.611 522.924 939.701 523.14 938.56 C 523.417 937.102 524.853 936.166 525.954 935.334 Z" stroke-linecap="round" data-index="33"></path>
</g>
		<g transform="matrix(1 0 0 1 -77.81 432.47)">
<path style="stroke: none; stroke-width: 1; stroke-dasharray: none; stroke-linecap: butt; stroke-dashoffset: 0; stroke-linejoin: miter; stroke-miterlimit: 4; fill: rgb(254,254,254); fill-rule: nonzero; opacity: 1;" vector-effect="non-scaling-stroke" transform=" translate(-434.19, -944.47)" d="M 432.586 941.469 C 433.429 941.469 434.92 941.369 435.722 941.7 C 437.08 942.261 437.258 942.684 437.815 943.927 C 437.635 945.53 437.03 946.162 436.002 947.302 C 434.85 947.462 433.469 947.655 432.356 947.19 C 431.029 946.636 430.927 946.057 430.572 944.819 C 430.866 943.239 431.525 942.582 432.586 941.469 Z" stroke-linecap="round" data-index="34"></path>
</g>
		<g transform="matrix(1 0 0 1 -16.73 458.28)">
<path style="stroke: none; stroke-width: 1; stroke-dasharray: none; stroke-linecap: butt; stroke-dashoffset: 0; stroke-linejoin: miter; stroke-miterlimit: 4; fill: rgb(254,254,254); fill-rule: nonzero; opacity: 1;" vector-effect="non-scaling-stroke" transform=" translate(-495.27, -970.28)" d="M 493.961 966.878 C 494.934 966.912 496.15 966.992 497.008 967.493 C 498.265 968.227 498.37 968.906 498.693 970.193 C 498.414 971.834 497.804 972.507 496.725 973.679 C 495.72 973.654 494.411 973.637 493.505 973.153 C 492.259 972.488 492.17 971.818 491.847 970.58 C 492.179 968.89 492.82 968.14 493.961 966.878 Z" stroke-linecap="round" data-index="35"></path>
</g>
		<g transform="matrix(1 0 0 1 37.04 460.1)">
<path style="stroke: none; stroke-width: 1; stroke-dasharray: none; stroke-linecap: butt; stroke-dashoffset: 0; stroke-linejoin: miter; stroke-miterlimit: 4; fill: rgb(254,254,254); fill-rule: nonzero; opacity: 1;" vector-effect="non-scaling-stroke" transform=" translate(-549.04, -972.1)" d="M 547.437 968.699 C 548.548 968.762 549.818 968.866 550.79 969.473 C 552.046 970.256 552.183 970.885 552.53 972.202 C 552.257 973.81 551.65 974.401 550.548 975.495 C 549.444 975.507 548.257 975.475 547.257 974.934 C 546.094 974.306 545.955 973.696 545.551 972.544 C 545.732 970.765 546.297 970.046 547.437 968.699 Z" stroke-linecap="round" data-index="36"></path>
</g>
		<g transform="matrix(1 0 0 1 -73.5 456.49)">
<path style="stroke: none; stroke-width: 1; stroke-dasharray: none; stroke-linecap: butt; stroke-dashoffset: 0; stroke-linejoin: miter; stroke-miterlimit: 4; fill: rgb(254,254,254); fill-rule: nonzero; opacity: 1;" vector-effect="non-scaling-stroke" transform=" translate(-438.5, -968.49)" d="M 436.4 965.417 C 437.444 965.456 438.691 965.444 439.699 965.747 C 441.004 966.139 441.495 966.761 442.171 967.873 C 441.992 969.686 441.582 970.059 440.536 971.498 C 439.401 971.591 438.09 971.661 436.997 971.279 C 435.71 970.83 435.425 970.289 434.823 969.188 C 434.992 967.351 435.393 966.912 436.4 965.417 Z" stroke-linecap="round" data-index="37"></path>
</g>
		<g transform="matrix(1 0 0 1 -31.79 447.1)">
<path style="stroke: none; stroke-width: 1; stroke-dasharray: none; stroke-linecap: butt; stroke-dashoffset: 0; stroke-linejoin: miter; stroke-miterlimit: 4; fill: rgb(254,254,254); fill-rule: nonzero; opacity: 1;" vector-effect="non-scaling-stroke" transform=" translate(-480.21, -959.1)" d="M 478.49 955.858 C 479.615 955.785 480.896 955.68 481.937 956.227 C 483.206 956.893 483.339 957.492 483.751 958.745 C 483.523 960.435 482.981 961.115 481.911 962.346 C 480.869 962.444 479.417 962.454 478.478 961.901 C 477.148 961.117 477.077 960.666 476.66 959.281 C 476.829 957.691 477.49 957.009 478.49 955.858 Z" stroke-linecap="round" data-index="38"></path>
</g>
		<g transform="matrix(1 0 0 1 115.07 422.37)">
<path style="stroke: none; stroke-width: 1; stroke-dasharray: none; stroke-linecap: butt; stroke-dashoffset: 0; stroke-linejoin: miter; stroke-miterlimit: 4; fill: rgb(254,254,254); fill-rule: nonzero; opacity: 1;" vector-effect="non-scaling-stroke" transform=" translate(-627.07, -934.37)" d="M 626.516 930.834 C 627.943 931.069 628.661 931.321 629.899 932.151 C 630.486 933.208 630.875 933.687 630.556 934.953 C 630.2 936.37 628.955 937.129 627.834 937.896 C 626.771 937.661 625.445 937.375 624.603 936.636 C 623.56 935.721 623.535 935.082 623.471 933.823 C 624.163 932.183 625.066 931.706 626.516 930.834 Z" stroke-linecap="round" data-index="39"></path>
</g>
		<g transform="matrix(1 0 0 1 44 428.62)">
<path style="stroke: none; stroke-width: 1; stroke-dasharray: none; stroke-linecap: butt; stroke-dashoffset: 0; stroke-linejoin: miter; stroke-miterlimit: 4; fill: rgb(254,254,254); fill-rule: nonzero; opacity: 1;" vector-effect="non-scaling-stroke" transform=" translate(-556, -940.62)" d="M 554.279 937.389 C 555.497 937.413 556.893 937.391 557.971 938.053 C 559.208 938.813 559.38 939.365 559.749 940.655 C 559.394 942.275 558.969 942.741 557.834 943.859 C 556.54 943.839 554.991 943.84 553.809 943.222 C 552.638 942.611 552.55 942.016 552.246 940.862 C 552.556 939.286 553.253 938.544 554.279 937.389 Z" stroke-linecap="round" data-index="40"></path>
</g>
		<g transform="matrix(1 0 0 1 -7.92 446.67)">
<path style="stroke: none; stroke-width: 1; stroke-dasharray: none; stroke-linecap: butt; stroke-dashoffset: 0; stroke-linejoin: miter; stroke-miterlimit: 4; fill: rgb(254,254,254); fill-rule: nonzero; opacity: 1;" vector-effect="non-scaling-stroke" transform=" translate(-504.08, -958.67)" d="M 502.323 955.333 C 503.63 955.337 505.118 955.272 506.26 956.039 C 507.432 956.825 507.495 957.403 507.726 958.671 C 507.353 960.247 506.701 960.905 505.604 962.004 C 504.387 962.014 503.099 962.036 502.012 961.376 C 500.85 960.671 500.772 960.019 500.44 958.81 C 500.682 957.18 501.275 956.51 502.323 955.333 Z" stroke-linecap="round" data-index="41"></path>
</g>
		<g transform="matrix(1 0 0 1 85.5 437.95)">
<path style="stroke: none; stroke-width: 1; stroke-dasharray: none; stroke-linecap: butt; stroke-dashoffset: 0; stroke-linejoin: miter; stroke-miterlimit: 4; fill: rgb(254,254,254); fill-rule: nonzero; opacity: 1;" vector-effect="non-scaling-stroke" transform=" translate(-597.5, -949.95)" d="M 595.645 946.903 C 596.824 946.761 598.082 946.692 599.203 947.185 C 600.472 947.744 600.753 948.359 601.302 949.516 C 601.107 951.32 600.841 951.65 599.835 953.082 C 598.479 953.128 596.944 953.192 595.676 952.609 C 594.453 952.046 594.144 951.523 593.706 950.306 C 593.895 948.705 594.607 948.032 595.645 946.903 Z" stroke-linecap="round" data-index="42"></path>
</g>
		<g transform="matrix(1 0 0 1 -55.09 434.83)">
<path style="stroke: none; stroke-width: 1; stroke-dasharray: none; stroke-linecap: butt; stroke-dashoffset: 0; stroke-linejoin: miter; stroke-miterlimit: 4; fill: rgb(254,254,254); fill-rule: nonzero; opacity: 1;" vector-effect="non-scaling-stroke" transform=" translate(-456.91, -946.83)" d="M 454.905 943.391 C 456.055 943.367 457.435 943.296 458.479 943.864 C 459.766 944.566 459.963 945.163 460.4 946.442 C 460.199 948.113 459.809 948.739 458.801 950.088 C 457.648 950.27 456.358 950.487 455.266 949.908 C 454.224 949.355 453.564 948.485 453.44 947.304 C 453.276 945.753 454.061 944.591 454.905 943.391 Z" stroke-linecap="round" data-index="43"></path>
</g>
		<g transform="matrix(1 0 0 1 -115.83 419.5)">
<path style="stroke: none; stroke-width: 1; stroke-dasharray: none; stroke-linecap: butt; stroke-dashoffset: 0; stroke-linejoin: miter; stroke-miterlimit: 4; fill: rgb(254,254,254); fill-rule: nonzero; opacity: 1;" vector-effect="non-scaling-stroke" transform=" translate(-396.17, -931.5)" d="M 393.934 928.531 C 394.925 928.416 396.561 928.218 397.53 928.524 C 398.868 928.947 399.107 929.368 399.801 930.479 C 399.927 932.127 399.541 933.028 398.876 934.476 C 397.588 934.62 396.271 934.768 394.991 934.461 C 393.681 934.148 393.149 933.44 392.524 932.347 C 392.548 930.649 392.982 929.915 393.934 928.531 Z" stroke-linecap="round" data-index="44"></path>
</g>
		<g transform="matrix(1 0 0 1 -18.8 433.68)">
<path style="stroke: none; stroke-width: 1; stroke-dasharray: none; stroke-linecap: butt; stroke-dashoffset: 0; stroke-linejoin: miter; stroke-miterlimit: 4; fill: rgb(254,254,254); fill-rule: nonzero; opacity: 1;" vector-effect="non-scaling-stroke" transform=" translate(-493.2, -945.68)" d="M 491.864 941.876 C 493.177 942 494.731 942.066 495.706 943.089 C 496.463 943.883 496.819 944.858 496.63 945.948 C 496.352 947.554 495.292 948.489 494.116 949.485 C 493.112 949.274 491.912 948.995 491.098 948.332 C 490.218 947.615 489.677 946.701 489.721 945.551 C 489.78 944.043 490.918 942.924 491.864 941.876 Z" stroke-linecap="round" data-index="45"></path>
</g>
		<g transform="matrix(1 0 0 1 55.77 438.63)">
<path style="stroke: none; stroke-width: 1; stroke-dasharray: none; stroke-linecap: butt; stroke-dashoffset: 0; stroke-linejoin: miter; stroke-miterlimit: 4; fill: rgb(254,254,254); fill-rule: nonzero; opacity: 1;" vector-effect="non-scaling-stroke" transform=" translate(-567.77, -950.63)" d="M 566.065 947.437 C 567.287 947.364 568.46 947.338 569.617 947.825 C 570.857 948.347 571.18 949.259 571.561 950.429 C 571.3 952.061 570.782 952.686 569.706 953.842 C 568.52 953.885 567.114 953.904 565.993 953.423 C 564.664 952.852 564.472 952.303 563.982 951.073 C 564.204 949.323 564.908 948.65 566.065 947.437 Z" stroke-linecap="round" data-index="46"></path>
</g>
		<g transform="matrix(1 0 0 1 2.46 457.82)">
<path style="stroke: none; stroke-width: 1; stroke-dasharray: none; stroke-linecap: butt; stroke-dashoffset: 0; stroke-linejoin: miter; stroke-miterlimit: 4; fill: rgb(254,254,254); fill-rule: nonzero; opacity: 1;" vector-effect="non-scaling-stroke" transform=" translate(-514.46, -969.82)" d="M 512.836 966.356 C 514.278 966.355 515.811 966.309 516.979 967.322 C 517.887 968.11 518.318 968.988 518.162 970.192 C 517.976 971.624 516.708 972.478 515.66 973.29 C 514.642 973.184 513.399 973.048 512.505 972.512 C 511.22 971.741 511.089 971.132 510.726 969.8 C 511.054 968.148 511.701 967.498 512.836 966.356 Z" stroke-linecap="round" data-index="47"></path>
</g>
		<g transform="matrix(1 0 0 1 78.21 425.65)">
<path style="stroke: none; stroke-width: 1; stroke-dasharray: none; stroke-linecap: butt; stroke-dashoffset: 0; stroke-linejoin: miter; stroke-miterlimit: 4; fill: rgb(254,254,254); fill-rule: nonzero; opacity: 1;" vector-effect="non-scaling-stroke" transform=" translate(-590.21, -937.65)" d="M 589.052 933.938 C 590.583 934.094 591.379 934.233 592.731 935.057 C 593.416 936.104 593.931 936.614 593.694 937.944 C 593.409 939.55 592.165 940.43 590.97 941.356 C 589.877 941.274 588.619 941.197 587.723 940.469 C 587.144 939.999 586.739 939.39 586.68 938.651 C 586.516 936.594 587.784 935.35 589.052 933.938 Z" stroke-linecap="round" data-index="48"></path>
</g>
		<g transform="matrix(1 0 0 1 17.25 470.41)">
<path style="stroke: none; stroke-width: 1; stroke-dasharray: none; stroke-linecap: butt; stroke-dashoffset: 0; stroke-linejoin: miter; stroke-miterlimit: 4; fill: rgb(254,254,254); fill-rule: nonzero; opacity: 1;" vector-effect="non-scaling-stroke" transform=" translate(-529.25, -982.41)" d="M 528.429 978.92 C 529.527 979.059 530.873 979.253 531.782 979.944 C 532.873 980.773 532.938 981.452 533.087 982.684 C 532.517 984.329 531.861 984.881 530.476 985.903 C 529.046 985.702 527.579 985.533 526.47 984.49 C 525.403 983.486 525.418 982.912 525.405 981.575 C 526.19 980.06 526.984 979.662 528.429 978.92 Z" stroke-linecap="round" data-index="49"></path>
</g>
		<g transform="matrix(1 0 0 1 -49.94 452.26)">
<path style="stroke: none; stroke-width: 1; stroke-dasharray: none; stroke-linecap: butt; stroke-dashoffset: 0; stroke-linejoin: miter; stroke-miterlimit: 4; fill: rgb(254,254,254); fill-rule: nonzero; opacity: 1;" vector-effect="non-scaling-stroke" transform=" translate(-462.06, -964.26)" d="M 459.912 960.949 C 461.187 960.92 462.591 960.917 463.776 961.473 C 465.043 962.067 465.357 962.715 465.908 963.942 C 465.824 965.597 465.297 966.293 464.34 967.551 C 462.921 967.597 461.535 967.666 460.208 967.052 C 458.977 966.482 458.658 965.761 458.215 964.563 C 458.413 962.909 458.861 962.222 459.912 960.949 Z" stroke-linecap="round" data-index="50"></path>
</g>
		<g transform="matrix(1 0 0 1 46.3 470.25)">
<path style="stroke: none; stroke-width: 1; stroke-dasharray: none; stroke-linecap: butt; stroke-dashoffset: 0; stroke-linejoin: miter; stroke-miterlimit: 4; fill: rgb(254,254,254); fill-rule: nonzero; opacity: 1;" vector-effect="non-scaling-stroke" transform=" translate(-558.3, -982.25)" d="M 556.97 978.957 C 558.221 978.93 559.621 978.963 560.759 979.582 C 561.892 980.198 561.97 980.797 562.235 981.926 C 561.886 983.579 561.092 984.337 559.973 985.512 C 558.426 985.563 556.757 985.714 555.46 984.689 C 554.413 983.861 554.464 983.293 554.369 982.081 C 554.932 980.507 555.702 979.933 556.97 978.957 Z" stroke-linecap="round" data-index="51"></path>
</g>
		<g transform="matrix(1 0 0 1 -35.62 420.58)">
<path style="stroke: none; stroke-width: 1; stroke-dasharray: none; stroke-linecap: butt; stroke-dashoffset: 0; stroke-linejoin: miter; stroke-miterlimit: 4; fill: rgb(254,254,254); fill-rule: nonzero; opacity: 1;" vector-effect="non-scaling-stroke" transform=" translate(-476.38, -932.58)" d="M 475.507 928.837 C 477.193 929.057 477.93 929.242 479.301 930.246 C 479.952 931.469 480.345 932.002 479.928 933.445 C 479.527 934.831 478.261 935.597 477.131 936.329 C 475.9 936.163 474.63 936.008 473.674 935.102 C 472.837 934.309 472.531 933.451 472.701 932.319 C 472.934 930.774 474.391 929.769 475.507 928.837 Z" stroke-linecap="round" data-index="52"></path>
</g>
		<g transform="matrix(1 0 0 1 84.88 469.41)">
<path style="stroke: none; stroke-width: 1; stroke-dasharray: none; stroke-linecap: butt; stroke-dashoffset: 0; stroke-linejoin: miter; stroke-miterlimit: 4; fill: rgb(254,254,254); fill-rule: nonzero; opacity: 1;" vector-effect="non-scaling-stroke" transform=" translate(-596.88, -981.41)" d="M 596.53 977.801 C 598.127 978.075 598.82 978.274 600.082 979.287 C 600.643 980.411 601.017 980.915 600.614 982.212 C 600.173 983.633 598.774 984.328 597.583 985.022 C 595.979 984.825 595.01 984.616 593.648 983.729 C 593.113 982.737 592.731 982.281 593.148 981.111 C 593.696 979.577 595.256 978.664 596.53 977.801 Z" stroke-linecap="round" data-index="53"></path>
</g>
		<g transform="matrix(1 0 0 1 -91.07 453.75)">
<path style="stroke: none; stroke-width: 1; stroke-dasharray: none; stroke-linecap: butt; stroke-dashoffset: 0; stroke-linejoin: miter; stroke-miterlimit: 4; fill: rgb(254,254,254); fill-rule: nonzero; opacity: 1;" vector-effect="non-scaling-stroke" transform=" translate(-420.93, -965.75)" d="M 419.532 962.432 C 421.03 962.544 422.859 962.672 423.989 963.817 C 425.07 964.913 425.073 965.227 425.103 966.673 C 424.322 968.118 423.479 968.432 422.055 969.061 C 420.982 968.973 419.198 968.765 418.254 968.22 C 417.05 967.526 416.994 967.155 416.76 965.913 C 417.257 964.287 418.307 963.513 419.532 962.432 Z" stroke-linecap="round" data-index="54"></path>
</g>
		<g transform="matrix(1 0 0 1 -61.61 472.94)">
<path style="stroke: none; stroke-width: 1; stroke-dasharray: none; stroke-linecap: butt; stroke-dashoffset: 0; stroke-linejoin: miter; stroke-miterlimit: 4; fill: rgb(254,254,254); fill-rule: nonzero; opacity: 1;" vector-effect="non-scaling-stroke" transform=" translate(-450.39, -984.94)" d="M 449.82 980.989 C 451.001 981.219 452.532 981.425 453.356 982.396 C 454.126 983.305 454.465 984.273 454.168 985.447 C 453.777 986.992 452.529 987.947 451.347 988.886 C 449.848 988.589 448.246 988.34 447.237 987.058 C 446.313 985.884 446.473 985.226 446.603 983.854 C 447.486 982.343 448.303 981.827 449.82 980.989 Z" stroke-linecap="round" data-index="55"></path>
</g>
		<g transform="matrix(1 0 0 1 -38.71 461.72)">
<path style="stroke: none; stroke-width: 1; stroke-dasharray: none; stroke-linecap: butt; stroke-dashoffset: 0; stroke-linejoin: miter; stroke-miterlimit: 4; fill: rgb(254,254,254); fill-rule: nonzero; opacity: 1;" vector-effect="non-scaling-stroke" transform=" translate(-473.29, -973.72)" d="M 472.45 969.859 C 473.856 970.138 475.573 970.383 476.538 971.566 C 477.338 972.546 477.459 973.498 477.075 974.685 C 476.62 976.091 475.061 976.871 473.88 977.587 C 472.51 977.281 471.021 977.021 470.08 975.86 C 469.322 974.924 469.124 973.971 469.419 972.799 C 469.776 971.376 471.301 970.578 472.45 969.859 Z" stroke-linecap="round" data-index="56"></path>
</g>
		<g transform="matrix(1 0 0 1 67.5 449.93)">
<path style="stroke: none; stroke-width: 1; stroke-dasharray: none; stroke-linecap: butt; stroke-dashoffset: 0; stroke-linejoin: miter; stroke-miterlimit: 4; fill: rgb(254,254,254); fill-rule: nonzero; opacity: 1;" vector-effect="non-scaling-stroke" transform=" translate(-579.5, -961.93)" d="M 577.356 958.373 C 579.021 958.349 580.43 958.31 581.902 959.204 C 583.065 959.911 583.312 960.694 583.637 961.935 C 583.331 963.652 582.775 964.284 581.554 965.5 C 580.024 965.494 578.523 965.477 577.19 964.609 C 575.973 963.817 575.749 963.14 575.368 961.795 C 575.589 960.126 576.236 959.514 577.356 958.373 Z" stroke-linecap="round" data-index="57"></path>
</g>
		<g transform="matrix(1 0 0 1 105.52 511.41)">
<path style="stroke: none; stroke-width: 1; stroke-dasharray: none; stroke-linecap: butt; stroke-dashoffset: 0; stroke-linejoin: miter; stroke-miterlimit: 4; fill: rgb(216, 218, 217); fill-rule: nonzero; opacity: 1;" vector-effect="non-scaling-stroke" transform=" translate(-617.52, -1023.41)" d="M 504.19 1023.15 L 654.844 1023.06 L 704.567 1023.02 C 713.122 1023.01 721.966 1022.56 730.493 1023.08 L 730.853 1024 L 519.5 1024 C 514.58 1022.85 509.126 1024.67 504.19 1023.15 Z" stroke-linecap="round" data-index="58"></path>
</g>
		<g transform="matrix(1 0 0 1 -153.84 307.47)">
<path style="stroke: rgb(243, 248, 255); stroke-width: 1; stroke-dasharray: none; stroke-linecap: butt; stroke-dashoffset: 0; stroke-linejoin: miter; stroke-miterlimit: 4; fill: rgb(243, 248, 255); fill-rule: nonzero; opacity: 1; visibility: visible;" vector-effect="non-scaling-stroke" transform=" translate(-358.16, -819.47)" d="M 385.159 638.381 C 388.216 641.2 390.244 645.442 392.164 649.075 C 383.302 658.411 372.422 666.758 362.549 675.03 C 355.618 680.838 343.386 688.498 339.422 696.412 C 337.959 699.334 337.342 702.606 337.171 705.848 C 336.655 715.623 337.076 725.626 337.074 735.419 L 337.098 792.853 L 337.059 945.531 L 337.251 981.11 C 337.279 987.29 337.775 993.865 337.024 999.999 C 335.829 1000.74 334.515 1000.52 333.125 1000.55 L 324.505 1000.54 L 324.397 797.491 L 324.397 735.398 C 324.401 724.568 323.684 713.126 324.682 702.353 C 325.183 696.941 327.331 691.041 330.516 686.651 C 335.898 679.232 344.522 673.334 351.46 667.37 L 385.159 638.381 Z" stroke-linecap="round" data-index="59"></path>
</g>
		<g transform="matrix(1 0 0 1 0.54 -88.53)">
<path style="stroke: none; stroke-width: 1; stroke-dasharray: none; stroke-linecap: butt; stroke-dashoffset: 0; stroke-linejoin: miter; stroke-miterlimit: 4; fill: rgb(96, 96, 97); fill-rule: nonzero; opacity: 1;" vector-effect="non-scaling-stroke" transform=" translate(-512.54, -423.47)" d="M 379.069 405.59 L 645.953 405.581 Q 646.06 423.374 645.952 441.167 L 379.161 441.359 C 378.969 429.446 379.095 417.507 379.069 405.59 Z" stroke-linecap="round" data-index="60"></path>
</g>
		<g transform="matrix(1 0 0 1 0.24 316.33)">
<path style="stroke: rgb(243, 248, 255); stroke-width: 1; stroke-dasharray: none; stroke-linecap: butt; stroke-dashoffset: 0; stroke-linejoin: miter; stroke-miterlimit: 4; fill: rgb(243, 248, 255); fill-rule: nonzero; opacity: 1; visibility: visible;" vector-effect="non-scaling-stroke" transform=" translate(-512.24, -828.33)" d="M 638.926 638.176 C 644.288 640.463 681.614 673.791 688.272 680.049 C 694.806 686.191 698.344 692.011 699.822 700.92 C 701.432 710.624 700.568 721.34 700.554 731.172 L 700.508 784.169 L 700.578 934.831 C 700.626 958.279 700.086 981.861 700.755 1005.29 C 709.906 1006.16 719.719 1005.49 728.934 1005.51 C 728.973 1009.78 729.02 1014 728.55 1018.26 C 715.482 1018.68 702.302 1018.37 689.223 1018.39 L 596.742 1018.23 L 331.575 1018.28 L 295.564 1018.17 L 295.519 1005.45 Q 330.374 1005.27 365.228 1005.48 Q 493.48 1006.13 621.729 1005.28 C 643.548 1004.93 665.556 1006.17 687.338 1005.1 C 688.354 988.827 687.405 969.477 687.378 952.919 L 687.368 852.077 L 687.399 756.506 C 687.44 740.345 688.362 722.168 687.402 706.223 C 687.216 703.138 686.993 698.585 685.367 695.941 C 680.94 688.746 672.633 683.274 666.272 677.874 C 655.065 668.36 643.537 659.121 632.482 649.446 C 634.502 645.602 636.671 641.887 638.926 638.176 Z" stroke-linecap="round" data-index="61"></path>
</g>
		<g transform="matrix(1 0 0 1 0.33 195.51)">
<path style="stroke: rgb(243, 248, 255); stroke-width: 1; stroke-dasharray: none; stroke-linecap: butt; stroke-dashoffset: 0; stroke-linejoin: miter; stroke-miterlimit: 4; fill: rgb(243, 248, 255); fill-rule: nonzero; opacity: 1; visibility: visible;" vector-effect="non-scaling-stroke" transform=" translate(-512.33, -707.51)" d="M 381.218 622.546 Q 469.404 621.851 557.592 622.113 L 612.686 622.182 C 622.818 622.204 633.365 621.721 643.445 622.657 Q 615.471 667.601 588.275 713.02 C 572.358 739.695 556.933 766.628 540.437 792.959 C 521.419 793.2 502.376 792.981 483.356 792.963 C 478.764 785.529 474.63 777.797 470.144 770.294 L 419.262 684.831 C 412.872 674.132 406.585 663.335 399.968 652.774 C 393.666 642.715 386.947 632.959 381.218 622.546 Z" stroke-linecap="round" data-index="62"></path>
</g>
		<g transform="matrix(1 0 0 1 0.3 6.16)">
<path style="stroke: rgb(243, 248, 255); stroke-width: 1; stroke-dasharray: none; stroke-linecap: butt; stroke-dashoffset: 0; stroke-linejoin: miter; stroke-miterlimit: 4; fill: rgb(243, 248, 255); fill-rule: nonzero; opacity: 1; visibility: visible;" vector-effect="non-scaling-stroke" transform=" translate(-512.3, -518.16)" d="M 401.899 445.62 L 623.103 445.668 C 627.999 459.686 630.651 474.626 634.46 488.978 Q 648 539.623 660.909 590.433 L 627.399 590.353 C 605.685 591.21 583.736 590.229 561.985 590.398 L 487.744 590.54 C 471.509 590.53 455.214 590.779 438.99 590.209 C 414.092 589.877 388.393 591.086 363.69 590.206 C 370.119 561.545 378.782 533.195 386.134 504.739 L 394.957 470.383 C 397.029 462.137 398.72 453.525 401.899 445.62 Z" stroke-linecap="round" data-index="63"></path>
</g>
		<g transform="matrix(1 0 0 1 0.3 314.65)">
<path style="stroke: rgb(243, 248, 255); stroke-width: 1; stroke-dasharray: none; stroke-linecap: butt; stroke-dashoffset: 0; stroke-linejoin: miter; stroke-miterlimit: 4; fill: rgb(243, 248, 255); fill-rule: nonzero; opacity: 1; visibility: visible;" vector-effect="non-scaling-stroke" transform=" translate(-512.3, -826.65)" d="M 394.772 652.741 C 401.833 663.535 408.138 674.869 414.77 685.931 Q 432.893 715.833 450.387 746.108 C 456.609 756.923 463.093 767.547 469.528 778.234 C 473.361 784.6 476.91 791.216 481.174 797.303 L 543.361 797.353 L 603.997 696.4 C 612.59 682.092 620.783 667.577 629.72 653.474 C 639.475 660.848 648.762 668.923 658.153 676.758 C 664.407 681.975 671.372 687.09 676.909 693.042 C 679.346 695.662 681.983 698.59 682.545 702.231 C 684.163 712.725 683.261 724.211 683.276 734.866 L 683.181 798.805 L 683.078 928.219 C 683.098 952.244 683.866 976.491 683.142 1000.49 L 614.186 1000.48 C 619.318 987.256 626.059 974.79 632 961.93 C 636.602 951.967 644.198 931.659 650.439 923.952 Q 650.587 907.846 650.505 891.74 C 637.206 891.246 623.811 891.562 610.501 891.567 L 524.564 891.898 C 515.077 892.21 505.488 891.935 495.991 891.924 C 483.498 891.91 470.953 892.087 458.469 891.627 C 449.24 891.63 377.024 890.544 373.323 892.347 C 371.524 896.08 372.186 922.362 373.612 926.429 C 375.842 932.789 379.558 939.052 382.573 945.1 L 400.378 981.148 C 403.527 987.523 407.194 993.883 409.776 1000.5 L 341.586 1000.55 L 341.435 808.248 L 341.407 741.881 C 341.395 730.32 340.578 718.128 341.596 706.658 C 342.063 701.387 342.444 698.247 346.3 694.313 C 351.582 688.924 358.178 684.311 363.95 679.394 C 374.283 670.592 384.371 661.449 394.772 652.741 Z" stroke-linecap="round" data-index="64"></path>
</g>
</g>
</g>
<g transform="matrix(6.32 0 0 6.32 746.23 817.61)" id="17e954ab-ee13-43e4-8812-f6da7fc7f7e2">
<path style="stroke: rgb(0, 0, 0); stroke-width: 0; stroke-dasharray: none; stroke-linecap: butt; stroke-dashoffset: 0; stroke-linejoin: miter; stroke-miterlimit: 4; fill: rgb(255, 0, 0); fill-rule: nonzero; opacity: 1;" vector-effect="non-scaling-stroke" transform=" translate(-50, -50)" d="M 16.28 19.945 L 19.957 16.32 C 22.060000000000002 14.166 25.578000000000003 14.166 27.681 16.32 L 50.007000000000005 38.595 L 72.333 16.32 C 74.43599999999999 14.166 77.954 14.166 80.054 16.32 L 83.68 19.945 C 85.834 22.046 85.834 25.566000000000003 83.68 27.668 L 61.405 49.993 L 83.68 72.32 C 85.834 74.422 85.834 77.939 83.68 80.04299999999999 L 80.054 83.72099999999999 C 77.95400000000001 85.82 74.436 85.82 72.333 83.72099999999999 L 50.007 61.393 L 27.681 83.721 C 25.578 85.82000000000001 22.060000000000002 85.82000000000001 19.957 83.721 L 16.28 80.043 C 14.180000000000001 77.93900000000001 14.180000000000001 74.42200000000001 16.28 72.32000000000001 L 38.606 49.99300000000001 L 16.28 27.667 C 14.18 25.566 14.18 22.046 16.28 19.945 z" stroke-linecap="round" data-index="65"></path>
</g>
</svg>