<svg xmlns="http://www.w3.org/2000/svg" width="1024" height="1024"><path fill="#FEFEFE" d="M0 0h1024v1024H0z" data-index="0" style="opacity:1;visibility:visible;fill:#f3f8ff;stroke:#f3f8ff"/><path fill="#1A1A1A" d="M556.467 280.147c.21.069.428.116.628.208 1.083.497 1.456.884 1.893 1.987.992 2.503.8 82.094.384 91.245-.074 1.622-.34 3.02-.974 4.521-.373-.111-1.074-.306-1.407-.471-1.069-.528-1.389-1.48-1.674-2.568-.753-2.879-.099-6.278-.111-9.233q-.208-16.111-.129-32.223l.033-33.054c.003-5.357-.314-10.856.003-16.195.104-1.755.431-2.722 1.354-4.217" data-index="1"/><path fill="#1A1A1A" d="M465.405 280.612c1.647.149 2.55.179 3.754 1.34 1.029 6.587.13 20.747.15 28.362l.23 66.475c-1.394.047-2.321.083-3.615-.56-.808-1.24-.796-2.497-.856-3.925-.722-17.109.007-34.562.024-51.71.013-13.152-.943-26.935.313-39.982" data-index="2" style="opacity:1"/><path fill="#1A1A1A" d="M498.759 0h27.543c5.131 1.2 10.46 1.709 15.623 2.863 15.319 3.424 29.334 9.871 42.383 18.48 28.166 18.587 48.884 50.132 55.426 83.156q.31 1.586.58 3.179t.502 3.192q.231 1.599.422 3.203.192 1.605.344 3.213t.264 3.221q.113 1.611.186 3.225.072 1.615.105 3.23t.026 3.231-.054 3.231-.133 3.228q-.087 1.614-.213 3.225t-.292 3.218-.372 3.209-.45 3.2-.529 3.188-.607 3.173q-.324 1.583-.686 3.158t-.763 3.14-.84 3.12-.917 3.098q-.477 1.544-.992 3.075-.516 1.532-1.069 3.05t-1.143 3.022-1.217 2.993-1.291 2.963q-.663 1.473-1.363 2.929-.7 1.457-1.435 2.895-.735 1.439-1.506 2.859-.77 1.42-1.575 2.821-.806 1.401-1.645 2.781-.84 1.381-1.713 2.74t-1.78 2.697c-19.369 28.518-50.385 47.63-84.034 53.978-35.072 6.618-69.639-1.289-98.95-21.456-27.451-18.888-46.987-50.192-52.836-82.877q-.272-1.591-.505-3.189-.232-1.597-.426-3.2t-.348-3.21-.269-3.217q-.116-1.61-.191-3.223-.076-1.612-.112-3.226t-.033-3.229q.004-1.614.046-3.228.043-1.614.126-3.226.082-1.612.204-3.222t.282-3.216q.161-1.607.362-3.208t.439-3.199q.24-1.596.518-3.187t.596-3.173q.317-1.583.673-3.157.355-1.575.75-3.14.394-1.566.826-3.121.433-1.556.903-3.1t.978-3.077q.508-1.532 1.053-3.052.546-1.52 1.128-3.025.582-1.506 1.201-2.997t1.274-2.966q.656-1.476 1.347-2.934.691-1.46 1.417-2.901.727-1.442 1.489-2.865.761-1.424 1.558-2.828.796-1.404 1.626-2.789.83-1.384 1.694-2.748t1.761-2.706 1.827-2.662q.813-1.162 1.651-2.306t1.7-2.269q.863-1.125 1.751-2.23.887-1.107 1.799-2.193t1.846-2.152q.935-1.066 1.894-2.11.958-1.046 1.939-2.07t1.984-2.025 2.029-1.982q1.025-.98 2.071-1.937t2.114-1.89q1.067-.934 2.154-1.844t2.194-1.796 2.234-1.748q1.126-.861 2.271-1.697t2.308-1.648 2.343-1.597 2.379-1.544q1.197-.76 2.411-1.492 1.214-.733 2.444-1.439t2.474-1.385q1.245-.678 2.505-1.33 1.259-.65 2.533-1.274 1.273-.624 2.56-1.22 1.287-.594 2.587-1.161 1.299-.567 2.611-1.105 1.312-.539 2.635-1.048 1.324-.509 2.658-.99 1.334-.48 2.679-.93t2.698-.871 2.717-.813q1.363-.39 2.734-.752c6.52-1.729 13.261-2.628 19.9-3.782" data-index="3" style="opacity:1"/><path fill="#FEFEFE" d="M507.343 4.232c32.68-.945 63.571 9.492 88.047 31.485 24.436 21.957 40.31 53.484 42.037 86.467 1.716 32.783-8.847 65.689-30.978 90.21q-1.058 1.193-2.145 2.36t-2.204 2.305-2.26 2.249q-1.145 1.111-2.317 2.192t-2.37 2.133-2.423 2.073-2.475 2.012q-1.25.99-2.524 1.949-1.274.958-2.572 1.885-1.298.926-2.619 1.82-1.32.894-2.663 1.754t-2.707 1.686-2.748 1.619q-1.384.791-2.787 1.548t-2.826 1.479-2.862 1.407-2.896 1.335-2.928 1.262q-1.473.613-2.96 1.188-1.487.576-2.988 1.114t-3.015 1.038-3.04.963q-1.526.462-3.064.886-1.537.423-3.084.809-1.548.385-3.104.731t-3.122.653q-1.565.307-3.137.575t-3.15.496-3.161.417q-1.584.189-3.171.338-1.588.149-3.179.258t-3.184.178c-31.218 1.035-63.196-9.261-86.759-30.096-25.319-22.389-41.547-52.598-43.382-86.654q-.095-1.574-.151-3.15t-.073-3.152q-.017-1.577.005-3.153t.083-3.153q.061-1.575.162-3.149.1-1.573.239-3.144t.317-3.137q.178-1.567.394-3.129t.473-3.118q.255-1.555.549-3.105.293-1.549.626-3.09.332-1.542.702-3.074.37-1.533.778-3.056t.854-3.036q.445-1.512.928-3.013t1.003-2.99 1.077-2.963q.556-1.476 1.149-2.937t1.223-2.906 1.293-2.876q.665-1.43 1.365-2.843t1.434-2.808q.735-1.395 1.504-2.771.769-1.377 1.572-2.734t1.639-2.694 1.706-2.652q.869-1.316 1.77-2.61.902-1.293 1.835-2.564t1.897-2.519 1.96-2.47 2.02-2.422 2.079-2.37C442.293 19.92 472.83 5.789 507.343 4.232Z" data-index="4" style="opacity:1;visibility:visible;fill:#f3f8ff;stroke:#f3f8ff"/><path fill="#1A1A1A" d="M486.11 50.991c17.427-.023 34.9-.311 52.322.105.519 30.007.031 60.104.028 90.12 9.009.146 18.041-.063 27.051-.125 4.03-.028 8.318-.351 12.314.104 1.491.17 1.796.025 2.72 1.183-.049 1.17-.248 1.947-.958 2.902-3.762 5.057-9.603 9.743-14.186 14.201q-18.909 18.324-38.231 36.212c-4.658 4.541-9.265 9.482-14.363 13.515-4.159-2.743-66.801-63.674-67.393-65.301-.42-1.155-.097-1.527.473-2.469 7.921-1.639 30-.359 39.408-.266l-.138-57.785c-.037-9.705-.824-19.942.015-29.572.097-1.115.405-1.86.938-2.824" data-index="5" style="opacity:1"/><path fill="#606061" d="M489.602 55.745c14.796-.488 29.655-.248 44.46-.256.839 29.96.22 60.244-.074 90.218 12.61.917 25.766.195 38.429.128-15.585 16.077-31.88 31.21-48.133 46.598l-11.728 10.723c-20.205-18.807-39.436-38.642-59.674-57.42 12.086.004 24.486.512 36.533-.298.908-9.215.359-19.028.38-28.302z" data-index="6" style="opacity:1"/><path fill="#1A1A1A" d="M374.649 445.474c-.255-7.555-1.237-38.483.575-44.233 8.873-1.43 22.625-.369 31.879-.329l65.78.163 125.219-.12 32.982.034c5.987.008 12.639-.547 18.526.521.245.323.605.586.735.97.836 2.475.595 35.056.056 39.462-.132 1.074-.38 2.053-.709 3.079-3.316 2.131-16.58.696-21.374.877l21.371 83.301q5.704 21.159 10.963 42.433c1.842 7.232 4.057 14.399 5.449 21.733-1.96 4.877-5.233 9.423-7.959 13.914-5.45 8.981-11.061 17.904-16.272 27.025 12.156 10.322 24.413 20.451 36.424 30.955 6.617 5.786 14.354 11.552 19.398 18.795 3.928 5.641 6.512 12.656 7.088 19.515.824 9.818.357 19.984.359 29.847l.093 52.226q-.503 107.492.112 214.978c5.951-.03 22.288-1.269 26.767 1.07 2.287 2.98 1.897 13.91 1.447 17.84-.184 1.61-.508 2.4-1.779 3.39l-1.286.16.36.92H519.5c-4.92-1.15-10.374.67-15.31-.85l-154.227-.12c-10.659 0-51.188 1.11-57.96-.72-1.757-3.52-1.876-16.54-.501-20.22.331-.89.539-.9 1.245-1.45 8.23-1.295 18.507-.26 26.955-.2l-.037-209.068.134-59.261c.035-10.164-.79-21.344.619-31.385q.225-1.549.572-3.076.346-1.526.813-3.02.467-1.495 1.051-2.947t1.282-2.854q.697-1.401 1.504-2.743.806-1.342 1.716-2.615.911-1.274 1.919-2.471t2.109-2.311c6.307-6.325 13.839-11.769 20.673-17.548 10.349-8.751 20.436-17.82 30.792-26.549-5.184-9.274-10.838-18.272-16.393-27.325-2.786-4.543-6.164-9.262-8.327-14.117 7.979-32.294 16.91-64.423 25.315-96.614 4.374-16.754 9.466-33.713 12.381-50.787-7.023-.133-14.181.169-21.176-.275" data-index="7" style="opacity:1"/><path fill="#FEFEFE" d="M443.418 992.648c.384.01.756.006 1.137.089 1.338.29 1.62.476 2.422 1.497.246 1.571-.333 2.721-.896 4.147-1.671-.271-2.327-.485-3.502-1.668-.324-1.702.139-2.572.839-4.065" data-index="8"/><path fill="#FEFEFE" d="M424.257 948.743c1.777.142 2.688.377 3.915 1.658.338 1.628-.181 2.579-.818 4.028-.41.038-.978.112-1.378.049-1.373-.215-1.614-.671-2.363-1.714-.19-1.612.099-2.548.644-4.021" data-index="9"/><path fill="#FEFEFE" d="M478.112 979.277c1.913.01 2.803.157 4.172 1.48.322 1.61.074 2.487-.433 3.983-.547.002-1.317.062-1.867-.058-1.376-.3-1.599-.555-2.432-1.6-.19-1.482.105-2.429.56-3.805" data-index="10"/><path fill="#FEFEFE" d="M574.668 981.412c.433-.023.866-.057 1.299-.055 1.546.006 2.373.284 3.483 1.348.316 1.57-.168 2.5-.768 3.905-1.74-.07-2.882-.302-4.141-1.567-.422-1.622-.266-2.052.127-3.631" data-index="11"/><path fill="#FEFEFE" d="M566.815 971.81c2.043-.061 3.147.057 4.692 1.434.298 1.617.063 2.065-.45 3.585-.264.025-.527.06-.792.075-1.722.094-2.598-.146-3.849-1.325-.428-1.537-.117-2.339.399-3.769" data-index="12"/><path fill="#FEFEFE" d="M471.883 943.739c.486.076 1.181.164 1.628.335 1.345.517 1.636 1.005 2.287 2.182.023 1.697-.435 2.564-1.267 4.022-.508-.073-1.317-.163-1.778-.351-1.331-.542-1.61-1.203-2.186-2.395-.02-1.683.447-2.439 1.316-3.793" data-index="13"/><path fill="#FEFEFE" d="M402.959 956.635c.548.186 1.203.365 1.707.67 1.182.715 1.481 1.4 1.901 2.66-.214 1.65-.903 2.272-2.011 3.397-.477-.152-1.228-.37-1.648-.609-1.204-.684-1.416-1.271-1.878-2.476.228-1.723.765-2.379 1.929-3.642" data-index="14"/><path fill="#FEFEFE" d="M600.914 988.174c.259.106.533.181.776.318 1.247.703 1.779 1.427 2.217 2.773-.114 1.725-.568 2.357-1.679 3.655-.553-.132-1.629-.301-2.149-.615-1.254-.758-1.341-1.193-1.636-2.506.469-1.718 1.187-2.424 2.471-3.625" data-index="15"/><path fill="#FEFEFE" d="M484.392 988.244c.361.033.949.076 1.339.146 1.578.285 2.147 1.033 2.942 2.277.16 1.64-.361 2.456-1.135 3.822-.224-.01-.448-.011-.671-.031-1.78-.162-2.413-.612-3.46-1.948-.231-1.748.246-2.698.985-4.266" data-index="16"/><path fill="#FEFEFE" d="M551.828 958.711c.785.036 1.665.034 2.427.227 1.28.323 1.686.934 2.31 2.013-.001 1.629-.691 2.351-1.646 3.561-.452-.003-.998.015-1.434-.101-1.379-.367-1.779-.821-2.578-1.892-.118-1.815.153-2.217.921-3.808" data-index="17"/><path fill="#FEFEFE" d="M521.821 956.437c.792-.046 1.653-.132 2.441-.036 1.293.159 1.824.586 2.616 1.555.186 1.559-.207 2.181-.898 3.523-.705.063-1.527.185-2.243.115-1.335-.131-1.867-.563-2.7-1.544-.217-1.516.159-2.288.784-3.613" data-index="18"/><path fill="#FEFEFE" d="M612.901 962.885c.507.172 1.345.387 1.803.705 1.222.848 1.361 1.263 1.736 2.611-.472 1.612-1.084 2.158-2.328 3.169-.524-.138-1.444-.305-1.933-.597-1.253-.749-1.31-1.145-1.655-2.46.489-1.616 1.148-2.295 2.377-3.428" data-index="19"/><path fill="#FEFEFE" d="M413.539 973.825c.525.035 1.436.026 1.957.216 1.324.486 1.54.948 2.214 2.093.036 1.748-.402 2.61-1.264 4.11-.6-.046-1.349-.055-1.933-.252-1.285-.435-1.73-1.136-2.348-2.263-.056-1.756.395-2.474 1.374-3.904" data-index="20"/><path fill="#FEFEFE" d="M566.339 988.809c.678.097 1.726.159 2.326.472 1.253.656 1.336 1.169 1.67 2.411-.391 1.645-1.031 2.31-2.182 3.451-.711-.127-1.803-.227-2.426-.574-1.262-.704-1.319-1.221-1.604-2.501.398-1.538 1.119-2.198 2.216-3.259" data-index="21"/><path fill="#FEFEFE" d="M583.873 970.894c.751.145 1.969.272 2.621.706 1.217.812 1.28 1.262 1.541 2.587-.432 1.62-1.245 2.221-2.47 3.247-.68-.172-1.647-.334-2.242-.691-1.199-.72-1.306-1.215-1.675-2.457.365-1.68 1.02-2.282 2.225-3.392" data-index="22"/><path fill="#FEFEFE" d="M405.949 949.828c.678.022 1.673-.029 2.303.202 1.305.479 1.525 1.044 2.137 2.178-.013 1.688-.453 2.415-1.353 3.753-.938.052-1.864.008-2.802-.022-1.194-.76-1.332-.793-1.859-2.089.173-1.764.551-2.585 1.574-4.022" data-index="23"/><path fill="#FEFEFE" d="M413.449 938.248c.433.046.868.079 1.296.16 1.5.283 2.175.97 3.001 2.19.188 1.746-.147 2.631-.879 4.209-.896-.03-2.02.006-2.876-.311-1.297-.481-1.605-1.233-2.08-2.429.098-1.702.603-2.479 1.538-3.819" data-index="24"/><path fill="#FEFEFE" d="M612.453 938.293c.837.098 1.946.171 2.706.558 1.273.648 1.477 1.363 1.896 2.595-.186 1.623-.618 2.2-1.574 3.454-.552-.011-1.624.05-2.182-.147-1.405-.494-1.59-.971-2.204-2.204-.006-1.78.494-2.722 1.358-4.256" data-index="25"/><path fill="#FEFEFE" d="M539.017 955.887c.758.087 1.652.143 2.366.413 1.25.475 1.562 1.261 1.999 2.418-.182 1.765-.81 2.493-1.946 3.818-.854-.071-1.911-.153-2.691-.533-1.207-.587-1.332-1.312-1.698-2.469.258-1.721.8-2.387 1.97-3.647" data-index="26"/><path fill="#FEFEFE" d="M534.362 941.482c.925-.036 2.264-.198 3.15.047 1.368.378 1.625.797 2.346 1.901.109 1.605-.432 2.372-1.24 3.672-.915.051-1.982.161-2.882-.013-1.226-.236-1.753-.857-2.441-1.813-.192-1.663.273-2.415 1.067-3.794" data-index="27"/><path fill="#FEFEFE" d="M512.498 983.309c.986.262 2.206.628 2.994 1.299.934.796.897 1.459.95 2.563-.729 1.604-1.551 2.16-3.005 3.113-.767-.241-1.994-.576-2.601-1.152-1.051-.997-1.057-1.439-1.117-2.78.686-1.562 1.432-2.113 2.779-3.043" data-index="28"/><path fill="#FEFEFE" d="M431.373 986.763c.92.088 2.105.241 2.902.725 1.024.622 1.636 1.519 1.747 2.71.141 1.5-.92 2.792-1.73 3.942-.807-.229-1.73-.446-2.47-.844-1.25-.672-1.659-1.497-2.136-2.76.14-1.704.652-2.438 1.687-3.773" data-index="29"/><path fill="#FEFEFE" d="M446.973 929.412c1.432.031 2.224.219 3.506.767.988 1.184 1.07 1.239 1.168 2.766-.573 1.515-1.113 1.956-2.339 2.923-.879-.105-2.225-.207-2.992-.654-1.229-.717-1.318-1.112-1.662-2.385.351-1.61 1.191-2.317 2.319-3.417" data-index="30"/><path fill="#FEFEFE" d="M617.173 950.44c1.122-.002 2.386-.052 3.326.688.819.645 1.216 1.53 1.088 2.57-.189 1.537-1.338 2.425-2.446 3.326-.837-.138-2.103-.285-2.84-.698-1.177-.66-1.263-1.073-1.605-2.27.394-1.736 1.241-2.448 2.477-3.616" data-index="31"/><path fill="#FEFEFE" d="M502.787 932.358c.972-.002 2.294-.053 3.19.36 1.297.599 1.525 1.239 1.998 2.457-.129 1.655-.689 2.38-1.659 3.638-1.043-.033-2.339-.051-3.288-.538-1.27-.651-1.462-1.234-1.902-2.472.147-1.582.708-2.262 1.661-3.445" data-index="32"/><path fill="#FEFEFE" d="M525.954 935.334c.788.226 2.029.519 2.678 1.061 1.137.952 1.118 1.416 1.243 2.785-.66 1.611-1.487 2.195-2.886 3.188-.994-.131-2.133-.282-2.919-.982-.87-.775-1.146-1.685-.93-2.826.277-1.458 1.713-2.394 2.814-3.226" data-index="33"/><path fill="#FEFEFE" d="M432.586 941.469c.843 0 2.334-.1 3.136.231 1.358.561 1.536.984 2.093 2.227-.18 1.603-.785 2.235-1.813 3.375-1.152.16-2.533.353-3.646-.112-1.327-.554-1.429-1.133-1.784-2.371.294-1.58.953-2.237 2.014-3.35" data-index="34"/><path fill="#FEFEFE" d="M493.961 966.878c.973.034 2.189.114 3.047.615 1.257.734 1.362 1.413 1.685 2.7-.279 1.641-.889 2.314-1.968 3.486-1.005-.025-2.314-.042-3.22-.526-1.246-.665-1.335-1.335-1.658-2.573.332-1.69.973-2.44 2.114-3.702" data-index="35"/><path fill="#FEFEFE" d="M547.437 968.699c1.111.063 2.381.167 3.353.774 1.256.783 1.393 1.412 1.74 2.729-.273 1.608-.88 2.199-1.982 3.293-1.104.012-2.291-.02-3.291-.561-1.163-.628-1.302-1.238-1.706-2.39.181-1.779.746-2.498 1.886-3.845" data-index="36"/><path fill="#FEFEFE" d="M436.4 965.417c1.044.039 2.291.027 3.299.33 1.305.392 1.796 1.014 2.472 2.126-.179 1.813-.589 2.186-1.635 3.625-1.135.093-2.446.163-3.539-.219-1.287-.449-1.572-.99-2.174-2.091.169-1.837.57-2.276 1.577-3.771" data-index="37"/><path fill="#FEFEFE" d="M478.49 955.858c1.125-.073 2.406-.178 3.447.369 1.269.666 1.402 1.265 1.814 2.518-.228 1.69-.77 2.37-1.84 3.601-1.042.098-2.494.108-3.433-.445-1.33-.784-1.401-1.235-1.818-2.62.169-1.59.83-2.272 1.83-3.423" data-index="38"/><path fill="#FEFEFE" d="M626.516 930.834c1.427.235 2.145.487 3.383 1.317.587 1.057.976 1.536.657 2.802-.356 1.417-1.601 2.176-2.722 2.943-1.063-.235-2.389-.521-3.231-1.26-1.043-.915-1.068-1.554-1.132-2.813.692-1.64 1.595-2.117 3.045-2.989" data-index="39"/><path fill="#FEFEFE" d="M554.279 937.389c1.218.024 2.614.002 3.692.664 1.237.76 1.409 1.312 1.778 2.602-.355 1.62-.78 2.086-1.915 3.204-1.294-.02-2.843-.019-4.025-.637-1.171-.611-1.259-1.206-1.563-2.36.31-1.576 1.007-2.318 2.033-3.473" data-index="40"/><path fill="#FEFEFE" d="M502.323 955.333c1.307.004 2.795-.061 3.937.706 1.172.786 1.235 1.364 1.466 2.632-.373 1.576-1.025 2.234-2.122 3.333-1.217.01-2.505.032-3.592-.628-1.162-.705-1.24-1.357-1.572-2.566.242-1.63.835-2.3 1.883-3.477" data-index="41"/><path fill="#FEFEFE" d="M595.645 946.903c1.179-.142 2.437-.211 3.558.282 1.269.559 1.55 1.174 2.099 2.331-.195 1.804-.461 2.134-1.467 3.566-1.356.046-2.891.11-4.159-.473-1.223-.563-1.532-1.086-1.97-2.303.189-1.601.901-2.274 1.939-3.403" data-index="42"/><path fill="#FEFEFE" d="M454.905 943.391c1.15-.024 2.53-.095 3.574.473 1.287.702 1.484 1.299 1.921 2.578-.201 1.671-.591 2.297-1.599 3.646-1.153.182-2.443.399-3.535-.18-1.042-.553-1.702-1.423-1.826-2.604-.164-1.551.621-2.713 1.465-3.913" data-index="43"/><path fill="#FEFEFE" d="M393.934 928.531c.991-.115 2.627-.313 3.596-.007 1.338.423 1.577.844 2.271 1.955.126 1.648-.26 2.549-.925 3.997-1.288.144-2.605.292-3.885-.015-1.31-.313-1.842-1.021-2.467-2.114.024-1.698.458-2.432 1.41-3.816" data-index="44"/><path fill="#FEFEFE" d="M491.864 941.876c1.313.124 2.867.19 3.842 1.213.757.794 1.113 1.769.924 2.859-.278 1.606-1.338 2.541-2.514 3.537-1.004-.211-2.204-.49-3.018-1.153-.88-.717-1.421-1.631-1.377-2.781.059-1.508 1.197-2.627 2.143-3.675" data-index="45"/><path fill="#FEFEFE" d="M566.065 947.437c1.222-.073 2.395-.099 3.552.388 1.24.522 1.563 1.434 1.944 2.604-.261 1.632-.779 2.257-1.855 3.413-1.186.043-2.592.062-3.713-.419-1.329-.571-1.521-1.12-2.011-2.35.222-1.75.926-2.423 2.083-3.636" data-index="46"/><path fill="#FEFEFE" d="M512.836 966.356c1.442-.001 2.975-.047 4.143.966.908.788 1.339 1.666 1.183 2.87-.186 1.432-1.454 2.286-2.502 3.098-1.018-.106-2.261-.242-3.155-.778-1.285-.771-1.416-1.38-1.779-2.712.328-1.652.975-2.302 2.11-3.444" data-index="47"/><path fill="#FEFEFE" d="M589.052 933.938c1.531.156 2.327.295 3.679 1.119.685 1.047 1.2 1.557.963 2.887-.285 1.606-1.529 2.486-2.724 3.412-1.093-.082-2.351-.159-3.247-.887-.579-.47-.984-1.079-1.043-1.818-.164-2.057 1.104-3.301 2.372-4.713" data-index="48"/><path fill="#FEFEFE" d="M528.429 978.92c1.098.139 2.444.333 3.353 1.024 1.091.829 1.156 1.508 1.305 2.74-.57 1.645-1.226 2.197-2.611 3.219-1.43-.201-2.897-.37-4.006-1.413-1.067-1.004-1.052-1.578-1.065-2.915.785-1.515 1.579-1.913 3.024-2.655" data-index="49"/><path fill="#FEFEFE" d="M459.912 960.949c1.275-.029 2.679-.032 3.864.524 1.267.594 1.581 1.242 2.132 2.469-.084 1.655-.611 2.351-1.568 3.609-1.419.046-2.805.115-4.132-.499-1.231-.57-1.55-1.291-1.993-2.489.198-1.654.646-2.341 1.697-3.614" data-index="50"/><path fill="#FEFEFE" d="M556.97 978.957c1.251-.027 2.651.006 3.789.625 1.133.616 1.211 1.215 1.476 2.344-.349 1.653-1.143 2.411-2.262 3.586-1.547.051-3.216.202-4.513-.823-1.047-.828-.996-1.396-1.091-2.608.563-1.574 1.333-2.148 2.601-3.124" data-index="51"/><path fill="#FEFEFE" d="M475.507 928.837c1.686.22 2.423.405 3.794 1.409.651 1.223 1.044 1.756.627 3.199-.401 1.386-1.667 2.152-2.797 2.884-1.231-.166-2.501-.321-3.457-1.227-.837-.793-1.143-1.651-.973-2.783.233-1.545 1.69-2.55 2.806-3.482" data-index="52"/><path fill="#FEFEFE" d="M596.53 977.801c1.597.274 2.29.473 3.552 1.486.561 1.124.935 1.628.532 2.925-.441 1.421-1.84 2.116-3.031 2.81-1.604-.197-2.573-.406-3.935-1.293-.535-.992-.917-1.448-.5-2.618.548-1.534 2.108-2.447 3.382-3.31" data-index="53"/><path fill="#FEFEFE" d="M419.532 962.432c1.498.112 3.327.24 4.457 1.385 1.081 1.096 1.084 1.41 1.114 2.856-.781 1.445-1.624 1.759-3.048 2.388-1.073-.088-2.857-.296-3.801-.841-1.204-.694-1.26-1.065-1.494-2.307.497-1.626 1.547-2.4 2.772-3.481" data-index="54"/><path fill="#FEFEFE" d="M449.82 980.989c1.181.23 2.712.436 3.536 1.407.77.909 1.109 1.877.812 3.051-.391 1.545-1.639 2.5-2.821 3.439-1.499-.297-3.101-.546-4.11-1.828-.924-1.174-.764-1.832-.634-3.204.883-1.511 1.7-2.027 3.217-2.865" data-index="55"/><path fill="#FEFEFE" d="M472.45 969.859c1.406.279 3.123.524 4.088 1.707.8.98.921 1.932.537 3.119-.455 1.406-2.014 2.186-3.195 2.902-1.37-.306-2.859-.566-3.8-1.727-.758-.936-.956-1.889-.661-3.061.357-1.423 1.882-2.221 3.031-2.94" data-index="56"/><path fill="#FEFEFE" d="M577.356 958.373c1.665-.024 3.074-.063 4.546.831 1.163.707 1.41 1.49 1.735 2.731-.306 1.717-.862 2.349-2.083 3.565-1.53-.006-3.031-.023-4.364-.891-1.217-.792-1.441-1.469-1.822-2.814.221-1.669.868-2.281 1.988-3.422" data-index="57"/><path fill="#D8DAD9" d="m504.19 1023.15 150.654-.09 49.723-.04c8.555-.01 17.399-.46 25.926.06l.36.92H519.5c-4.92-1.15-10.374.67-15.31-.85" data-index="58"/><path fill="#FEFEFE" d="M385.159 638.381c3.057 2.819 5.085 7.061 7.005 10.694-8.862 9.336-19.742 17.683-29.615 25.955-6.931 5.808-19.163 13.468-23.127 21.382-1.463 2.922-2.08 6.194-2.251 9.436-.516 9.775-.095 19.778-.097 29.571l.024 57.434-.039 152.678.192 35.579c.028 6.18.524 12.755-.227 18.889-1.195.741-2.509.521-3.899.551l-8.62-.01-.108-203.049v-62.093c.004-10.83-.713-22.272.285-33.045.501-5.412 2.649-11.312 5.834-15.702 5.382-7.419 14.006-13.317 20.944-19.281z" data-index="59" style="opacity:1"/><path fill="#606061" d="m379.069 405.59 266.884-.009q.107 17.793-.001 35.586l-266.791.192c-.192-11.913-.066-23.852-.092-35.769" data-index="60" style="opacity:1"/><path fill="#FEFEFE" d="M638.926 638.176c5.362 2.287 42.688 35.615 49.346 41.873 6.534 6.142 10.072 11.962 11.55 20.871 1.61 9.704.746 20.42.732 30.252l-.046 52.997.07 150.662c.048 23.448-.492 47.03.177 70.459 9.151.87 18.964.2 28.179.22.039 4.27.086 8.49-.384 12.75-13.068.42-26.248.11-39.327.13l-92.481-.16-265.167.05-36.011-.11-.045-12.72q34.855-.18 69.709.03 128.252.65 256.501-.2c21.819-.35 43.827.89 65.609-.18 1.016-16.273.067-35.623.04-52.181l-.01-100.842.031-95.571c.041-16.161.963-34.338.003-50.283-.186-3.085-.409-7.638-2.035-10.282-4.427-7.195-12.734-12.667-19.095-18.067-11.207-9.514-22.735-18.753-33.79-28.428 2.02-3.844 4.189-7.559 6.444-11.27" data-index="61"/><path fill="#FEFEFE" d="M381.218 622.546q88.186-.695 176.374-.433l55.094.069c10.132.022 20.679-.461 30.759.475q-27.974 44.944-55.17 90.363c-15.917 26.675-31.342 53.608-47.838 79.939-19.018.241-38.061.022-57.081.004-4.592-7.434-8.726-15.166-13.212-22.669l-50.882-85.463c-6.39-10.699-12.677-21.496-19.294-32.057-6.302-10.059-13.021-19.815-18.75-30.228Z" data-index="62" style="opacity:1;visibility:visible;fill:#f3f8ff;stroke:#f3f8ff"/><path fill="#FEFEFE" d="m401.899 445.62 221.204.048c4.896 14.018 7.548 28.958 11.357 43.31q13.54 50.645 26.449 101.455l-33.51-.08c-21.714.857-43.663-.124-65.414.045l-74.241.142c-16.235-.01-32.53.239-48.754-.331-24.898-.332-50.597.877-75.3-.003 6.429-28.661 15.092-57.011 22.444-85.467l8.823-34.356c2.072-8.246 3.763-16.858 6.942-24.763Z" data-index="63" style="opacity:1;visibility:visible;fill:#f3f8ff;stroke:#f3f8ff"/><path fill="#FEFEFE" d="M394.772 652.741c7.061 10.794 13.366 22.128 19.998 33.19q18.123 29.902 35.617 60.177c6.222 10.815 12.706 21.439 19.141 32.126 3.833 6.366 7.382 12.982 11.646 19.069l62.187.05L603.997 696.4c8.593-14.308 16.786-28.823 25.723-42.926 9.755 7.374 19.042 15.449 28.433 23.284 6.254 5.217 13.219 10.332 18.756 16.284 2.437 2.62 5.074 5.548 5.636 9.189 1.618 10.494.716 21.98.731 32.635l-.095 63.939-.103 129.414c.02 24.025.788 48.272.064 72.271l-68.956-.01c5.132-13.224 11.873-25.69 17.814-38.55 4.602-9.963 12.198-30.271 18.439-37.978q.148-16.106.066-32.212c-13.299-.494-26.694-.178-40.004-.173l-85.937.331c-9.487.312-19.076.037-28.573.026-12.493-.014-25.038.163-37.522-.297-9.229.003-81.445-1.083-85.146.72-1.799 3.733-1.137 30.015.289 34.082 2.23 6.36 5.946 12.623 8.961 18.671l17.805 36.048c3.149 6.375 6.816 12.735 9.398 19.352l-68.19.05-.151-192.302-.028-66.367c-.012-11.561-.829-23.753.189-35.223.467-5.271.848-8.411 4.704-12.345 5.282-5.389 11.878-10.002 17.65-14.919 10.333-8.802 20.421-17.945 30.822-26.653Z" data-index="64" style="opacity:1;visibility:visible;fill:#f3f8ff;stroke:#f3f8ff"/></svg>