<?xml version="1.0" encoding="UTF-8" standalone="no" ?>
<!DOCTYPE svg PUBLIC "-//W3C//DTD SVG 1.1//EN" "http://www.w3.org/Graphics/SVG/1.1/DTD/svg11.dtd">
<svg xmlns="http://www.w3.org/2000/svg" xmlns:xlink="http://www.w3.org/1999/xlink" version="1.1" width="1080" height="1080" viewBox="0 0 1080 1080" xml:space="preserve">
<desc>Created with Fabric.js 5.2.4</desc>
<defs>
</defs>
<g transform="matrix(1 0 0 1 540 540)" id="33919d11-5f59-43ea-9533-ae0446a135e2"  >
<rect style="stroke: none; stroke-width: 1; stroke-dasharray: none; stroke-linecap: butt; stroke-dashoffset: 0; stroke-linejoin: miter; stroke-miterlimit: 4; fill: rgb(255,255,255); fill-rule: nonzero; opacity: 1; visibility: hidden;" vector-effect="non-scaling-stroke"  x="-540" y="-540" rx="0" ry="0" width="1080" height="1080" />
</g>
<g transform="matrix(1 0 0 1 540 540)" id="c28ddf61-c678-422c-a505-b3c7b30dafff"  >
</g>
<g transform="matrix(1 0 0 1 540 540)"  >
<g style="" vector-effect="non-scaling-stroke"   >
		<g transform="matrix(1 0 0 1 0 0)"  >
<path style="stroke: none; stroke-width: 1; stroke-dasharray: none; stroke-linecap: butt; stroke-dashoffset: 0; stroke-linejoin: miter; stroke-miterlimit: 4; fill: rgb(248,247,254); fill-rule: nonzero; opacity: 1;" vector-effect="non-scaling-stroke"  transform=" translate(-512, -512)" d="M 0 0 L 1024 0 L 1024 1024 L 0 1024 L 0 0 Z" stroke-linecap="round" />
</g>
		<g transform="matrix(1 0 0 1 0.44 71.29)"  >
<path style="stroke: none; stroke-width: 1; stroke-dasharray: none; stroke-linecap: butt; stroke-dashoffset: 0; stroke-linejoin: miter; stroke-miterlimit: 4; fill: rgb(8,7,23); fill-rule: nonzero; opacity: 1;" vector-effect="non-scaling-stroke"  transform=" translate(-512.44, -583.29)" d="M 500.321 224.729 C 503.503 224.618 506.702 224.634 509.886 224.607 C 539.455 224.362 569.819 225.893 599.156 229.618 C 640.338 234.846 715.283 250.516 745.715 280.797 C 749.946 285.007 754.784 290.936 756.26 296.85 C 758.131 304.339 756.934 324.083 756.901 333.046 L 756.718 407.366 C 764.268 407.574 791.287 405.365 796.005 410.45 C 798.722 413.379 797.554 430.194 797.544 434.984 C 804.307 435.043 832.97 433.554 836.797 437.605 C 837.855 438.725 838.077 440.928 838.21 442.384 C 838.602 446.674 839.156 467.348 836.751 469.843 C 833.003 473.732 804.264 472.199 797.536 472.331 L 797.454 723.822 Q 797 827.307 797.843 930.792 C 797.886 934.189 797.124 937.695 794.573 940.102 C 792.749 941.823 789.694 941.679 787.292 941.794 C 778.759 942.201 770.055 941.86 761.5 941.844 L 702.648 941.529 L 525.324 941.55 L 346.713 941.578 L 274.439 941.486 C 265.189 941.455 236.462 942.758 229.411 940.11 C 227.798 937.628 227.36 934.482 227.258 931.563 C 226.789 918.152 227.36 904.486 227.348 891.053 L 227.123 806.345 L 226.913 473.375 C 215.382 472.961 203.645 473.12 192.115 473.533 C 191.067 472.809 189.979 472.087 189.02 471.248 C 186.991 469.473 186.78 467.245 186.63 464.703 C 186.369 460.311 185.525 441.744 188.456 438.668 C 189.944 437.106 192.429 436.346 194.505 436.056 C 202.743 434.906 217.803 436.054 226.679 436.192 C 226.733 431.339 226.697 426.502 226.642 421.65 C 226.605 418.36 226.221 413.535 228.79 411.116 C 230.271 409.722 232.657 409.059 234.609 408.756 C 242.249 407.57 259.094 408.427 267.585 408.425 L 267.625 333.75 C 267.624 323.768 266.541 305.418 268.523 296.536 C 269.649 291.488 273.106 286.734 276.588 283.006 C 289.691 268.975 308.328 260.857 325.981 254.191 C 382.064 233.014 440.777 226.528 500.321 224.729 Z" stroke-linecap="round" />
</g>
		<g transform="matrix(1 0 0 1 -188.94 46.18)"  >
<path style="stroke: none; stroke-width: 1; stroke-dasharray: none; stroke-linecap: butt; stroke-dashoffset: 0; stroke-linejoin: miter; stroke-miterlimit: 4; fill: rgb(248,247,254); fill-rule: nonzero; opacity: 1;" vector-effect="non-scaling-stroke"  transform=" translate(-323.06, -558.18)" d="M 301.04 521.951 C 315.709 521.716 330.411 521.972 345.082 522.03 C 336.227 533.992 336.998 546.907 337 561.057 L 337.02 586.75 L 337.008 594.494 L 301.049 594.501 L 301.04 521.951 Z" stroke-linecap="round" />
</g>
		<g transform="matrix(1 0 0 1 189.99 46.23)"  >
<path style="stroke: none; stroke-width: 1; stroke-dasharray: none; stroke-linecap: butt; stroke-dashoffset: 0; stroke-linejoin: miter; stroke-miterlimit: 4; fill: rgb(248,247,254); fill-rule: nonzero; opacity: 1;" vector-effect="non-scaling-stroke"  transform=" translate(-701.99, -558.23)" d="M 680.764 521.551 Q 701.938 521.331 723.113 521.485 C 723.435 545.944 722.967 570.469 722.867 594.933 C 710.928 595.274 698.875 594.912 686.925 594.882 L 687.064 558.846 C 687.096 551.314 687.687 543.309 686.279 535.89 C 685.284 530.649 683.3 526.213 680.764 521.551 Z" stroke-linecap="round" />
</g>
		<g transform="matrix(1 0 0 1 193.03 127.84)"  >
<path style="stroke: none; stroke-width: 1; stroke-dasharray: none; stroke-linecap: butt; stroke-dashoffset: 0; stroke-linejoin: miter; stroke-miterlimit: 4; fill: rgb(248,247,254); fill-rule: nonzero; opacity: 1;" vector-effect="non-scaling-stroke"  transform=" translate(-705.03, -639.84)" d="M 687.024 601.325 C 698.954 600.977 711.001 601.385 722.938 601.541 L 723.041 678.485 L 687.014 678.499 L 687.024 601.325 Z" stroke-linecap="round" />
</g>
		<g transform="matrix(1 0 0 1 -192.94 128.07)"  >
<path style="stroke: none; stroke-width: 1; stroke-dasharray: none; stroke-linecap: butt; stroke-dashoffset: 0; stroke-linejoin: miter; stroke-miterlimit: 4; fill: rgb(248,247,254); fill-rule: nonzero; opacity: 1;" vector-effect="non-scaling-stroke"  transform=" translate(-319.06, -640.07)" d="M 302.24 600.723 Q 319.461 600.618 336.681 600.779 Q 336.74 601.56 336.78 602.343 C 337.388 616.193 336.952 630.263 336.964 644.134 C 336.972 654.778 337.591 665.851 336.839 676.449 C 336.748 677.721 336.814 678.536 335.938 679.483 L 301.151 679.47 L 301.113 628.654 C 301.102 620.269 300.635 611.593 301.162 603.24 C 301.254 601.789 301.141 601.664 302.24 600.723 Z" stroke-linecap="round" />
</g>
		<g transform="matrix(1 0 0 1 -178.3 298.98)"  >
<path style="stroke: none; stroke-width: 1; stroke-dasharray: none; stroke-linecap: butt; stroke-dashoffset: 0; stroke-linejoin: miter; stroke-miterlimit: 4; fill: rgb(248,247,254); fill-rule: nonzero; opacity: 1;" vector-effect="non-scaling-stroke"  transform=" translate(-333.7, -810.98)" d="M 301.341 686.003 L 336.807 685.928 C 336.17 716.583 336.783 747.369 336.911 778.035 L 337.039 806.804 C 337.064 812.942 336.731 819.313 337.661 825.382 C 338.516 830.959 340.536 836.049 344.122 840.444 C 349.559 847.108 357.552 850.723 365.987 851.636 L 366.122 906.702 C 366.144 916.226 366.84 926.279 365.876 935.726 C 344.453 936.418 322.736 935.695 301.291 935.64 C 300.765 925.811 301.148 915.789 301.168 905.941 L 301.246 851.635 L 301.341 686.003 Z" stroke-linecap="round" />
</g>
		<g transform="matrix(1 0 0 1 178.12 298.25)"  >
<path style="stroke: none; stroke-width: 1; stroke-dasharray: none; stroke-linecap: butt; stroke-dashoffset: 0; stroke-linejoin: miter; stroke-miterlimit: 4; fill: rgb(248,247,254); fill-rule: nonzero; opacity: 1;" vector-effect="non-scaling-stroke"  transform=" translate(-690.12, -810.25)" d="M 686.809 684.949 C 698.905 684.789 711.024 684.944 723.122 684.954 L 723.14 935.614 L 693.75 935.551 L 657.427 935.501 C 656.686 907.365 657.387 879.034 657.467 850.884 C 665.023 849.503 671.74 846.567 677.184 841.046 C 681.778 836.388 684.641 830.932 685.93 824.515 C 688.233 813.052 687.047 789.847 687.055 777.329 Q 687.22 731.138 686.809 684.949 Z" stroke-linecap="round" />
</g>
		<g transform="matrix(1 0 0 1 227.78 114)"  >
<path style="stroke: none; stroke-width: 1; stroke-dasharray: none; stroke-linecap: butt; stroke-dashoffset: 0; stroke-linejoin: miter; stroke-miterlimit: 4; fill: rgb(248,247,254); fill-rule: nonzero; opacity: 1;" vector-effect="non-scaling-stroke"  transform=" translate(-739.78, -626)" d="M 729.513 315.936 L 750.283 316.012 L 749.993 935.41 C 743.823 936.675 735.782 935.694 729.448 935.652 C 729.047 910.608 729.465 885.494 729.476 860.443 L 729.421 733.669 L 729.513 315.936 Z" stroke-linecap="round" />
</g>
		<g transform="matrix(1 0 0 1 -227.73 113.91)"  >
<path style="stroke: none; stroke-width: 1; stroke-dasharray: none; stroke-linecap: butt; stroke-dashoffset: 0; stroke-linejoin: miter; stroke-miterlimit: 4; fill: rgb(248,247,254); fill-rule: nonzero; opacity: 1;" vector-effect="non-scaling-stroke"  transform=" translate(-284.27, -625.91)" d="M 274.185 315.879 C 280.951 315.735 287.756 315.914 294.526 315.943 L 294.819 935.31 C 289.111 936.64 280.141 935.633 274.144 935.571 C 273.441 895.093 274.018 854.531 273.999 814.043 L 274.103 568.563 L 274.044 400.367 C 274.043 372.277 273.222 343.934 274.185 315.879 Z" stroke-linecap="round" />
</g>
		<g transform="matrix(1 0 0 1 0.09 -96.36)"  >
<path style="stroke: none; stroke-width: 1; stroke-dasharray: none; stroke-linecap: butt; stroke-dashoffset: 0; stroke-linejoin: miter; stroke-miterlimit: 4; fill: rgb(248,247,254); fill-rule: nonzero; opacity: 1;" vector-effect="non-scaling-stroke"  transform=" translate(-512.09, -415.64)" d="M 301.048 315.943 C 320.422 315.494 339.897 315.862 359.277 315.897 L 458.183 315.932 L 723.361 315.952 L 723.308 375.09 L 707.044 375.093 C 706.995 377.158 707.063 379.239 707.076 381.306 L 723.361 381.492 C 723.881 402.401 723.38 423.453 723.336 444.377 L 706.771 444.461 L 706.683 450.457 L 723.282 450.565 L 723.12 514.934 L 718.125 514.981 L 691.576 514.972 C 686.326 514.978 680.447 514.55 675.292 515.559 C 670.51 512.281 665.724 509.617 660.035 508.304 C 650.868 506.188 631.937 507.425 621.89 507.432 L 546.726 507.411 L 427.804 507.312 L 391.714 507.225 C 384.723 507.204 377.468 506.801 370.514 507.519 C 363.23 508.272 357.278 511.631 351.197 515.472 L 301.166 515.473 L 301.141 450.909 Q 308.683 450.917 316.223 450.774 L 316.359 444.263 C 311.222 444.049 306.039 444.177 300.897 444.166 L 300.852 381.709 C 304.725 381.589 309.341 382.447 313.088 381.595 C 314.617 381.247 315.276 380.698 316.14 379.428 C 316.175 377.929 316.159 377.735 315.394 376.453 C 311.808 374.15 304.859 375.289 300.647 375.267 C 300.398 355.516 300.907 335.699 301.048 315.943 Z" stroke-linecap="round" />
</g>
		<g transform="matrix(1 0 0 1 57.85 -133.46)"  >
<path style="stroke: none; stroke-width: 1; stroke-dasharray: none; stroke-linecap: butt; stroke-dashoffset: 0; stroke-linejoin: miter; stroke-miterlimit: 4; fill: rgb(8,7,23); fill-rule: nonzero; opacity: 1;" vector-effect="non-scaling-stroke"  transform=" translate(-569.85, -378.54)" d="M 561.523 375.643 L 578.269 375.687 L 578.235 381.093 Q 576.207 381.183 574.177 381.197 C 571.807 381.236 562.835 381.966 561.435 380.611 L 561.523 375.643 Z" stroke-linecap="round" />
</g>
		<g transform="matrix(1 0 0 1 145.15 -133.78)"  >
<path style="stroke: none; stroke-width: 1; stroke-dasharray: none; stroke-linecap: butt; stroke-dashoffset: 0; stroke-linejoin: miter; stroke-miterlimit: 4; fill: rgb(8,7,23); fill-rule: nonzero; opacity: 1;" vector-effect="non-scaling-stroke"  transform=" translate(-657.15, -378.22)" d="M 648.748 375.465 C 654.161 375.429 659.691 375.16 665.082 375.665 C 665.792 377.198 665.498 379.357 665.502 381.044 L 648.832 381.087 C 648.693 379.219 648.747 377.338 648.748 375.465 Z" stroke-linecap="round" />
</g>
		<g transform="matrix(1 0 0 1 174.09 -133.77)"  >
<path style="stroke: none; stroke-width: 1; stroke-dasharray: none; stroke-linecap: butt; stroke-dashoffset: 0; stroke-linejoin: miter; stroke-miterlimit: 4; fill: rgb(8,7,23); fill-rule: nonzero; opacity: 1;" vector-effect="non-scaling-stroke"  transform=" translate(-686.09, -378.23)" d="M 677.743 375.5 C 683.095 375.446 688.87 374.931 694.163 375.69 C 694.872 377.158 694.558 379.438 694.544 381.053 C 689.051 381.085 683.351 381.437 677.891 380.827 C 677.271 379.307 677.67 377.141 677.743 375.5 Z" stroke-linecap="round" />
</g>
		<g transform="matrix(1 0 0 1 -0.23 -133.55)"  >
<path style="stroke: none; stroke-width: 1; stroke-dasharray: none; stroke-linecap: butt; stroke-dashoffset: 0; stroke-linejoin: miter; stroke-miterlimit: 4; fill: rgb(8,7,23); fill-rule: nonzero; opacity: 1;" vector-effect="non-scaling-stroke"  transform=" translate(-511.77, -378.45)" d="M 503.547 375.526 C 508.787 375.496 514.434 375.032 519.612 375.776 C 520.31 377.384 519.997 379.587 519.963 381.32 C 517.127 381.325 505.169 382.156 503.484 380.625 L 503.547 375.526 Z" stroke-linecap="round" />
</g>
		<g transform="matrix(1 0 0 1 -29.03 -133.74)"  >
<path style="stroke: none; stroke-width: 1; stroke-dasharray: none; stroke-linecap: butt; stroke-dashoffset: 0; stroke-linejoin: miter; stroke-miterlimit: 4; fill: rgb(8,7,23); fill-rule: nonzero; opacity: 1;" vector-effect="non-scaling-stroke"  transform=" translate(-482.97, -378.26)" d="M 474.483 375.443 C 479.889 375.45 485.732 375.007 491.072 375.787 C 491.739 377.336 491.49 379.441 491.479 381.125 C 485.965 381.143 480.379 381.35 474.882 380.892 C 474.17 379.311 474.475 377.173 474.483 375.443 Z" stroke-linecap="round" />
</g>
		<g transform="matrix(1 0 0 1 -145.73 -133.64)"  >
<path style="stroke: none; stroke-width: 1; stroke-dasharray: none; stroke-linecap: butt; stroke-dashoffset: 0; stroke-linejoin: miter; stroke-miterlimit: 4; fill: rgb(8,7,23); fill-rule: nonzero; opacity: 1;" vector-effect="non-scaling-stroke"  transform=" translate(-366.27, -378.36)" d="M 357.764 375.566 L 374.826 375.545 C 374.816 377.391 374.645 379.263 374.548 381.109 L 357.749 381.176 C 357.671 379.318 357.754 377.427 357.764 375.566 Z" stroke-linecap="round" />
</g>
		<g transform="matrix(1 0 0 1 -175.27 -133.75)"  >
<path style="stroke: none; stroke-width: 1; stroke-dasharray: none; stroke-linecap: butt; stroke-dashoffset: 0; stroke-linejoin: miter; stroke-miterlimit: 4; fill: rgb(8,7,23); fill-rule: nonzero; opacity: 1;" vector-effect="non-scaling-stroke"  transform=" translate(-336.73, -378.25)" d="M 328.311 375.462 C 333.544 375.441 339.547 374.845 344.667 375.761 C 345.364 377.433 345.185 379.336 345.179 381.122 C 339.553 381.311 333.884 381.218 328.253 381.246 L 328.311 375.462 Z" stroke-linecap="round" />
</g>
		<g transform="matrix(1 0 0 1 -58.28 -133.55)"  >
<path style="stroke: none; stroke-width: 1; stroke-dasharray: none; stroke-linecap: butt; stroke-dashoffset: 0; stroke-linejoin: miter; stroke-miterlimit: 4; fill: rgb(8,7,23); fill-rule: nonzero; opacity: 1;" vector-effect="non-scaling-stroke"  transform=" translate(-453.72, -378.45)" d="M 445.357 375.479 C 450.636 375.448 456.431 374.891 461.627 375.722 C 462.41 377.33 462.122 379.489 462.103 381.247 C 458.337 381.272 448.671 382.294 445.688 380.942 C 445.066 379.23 445.304 377.28 445.357 375.479 Z" stroke-linecap="round" />
</g>
		<g transform="matrix(1 0 0 1 86.76 -133.75)"  >
<path style="stroke: none; stroke-width: 1; stroke-dasharray: none; stroke-linecap: butt; stroke-dashoffset: 0; stroke-linejoin: miter; stroke-miterlimit: 4; fill: rgb(8,7,23); fill-rule: nonzero; opacity: 1;" vector-effect="non-scaling-stroke"  transform=" translate(-598.76, -378.25)" d="M 590.101 375.498 C 595.562 375.444 601.723 374.884 607.087 375.778 C 607.775 377.298 607.511 379.392 607.492 381.056 C 601.864 381.101 595.993 381.499 590.403 380.855 C 589.673 379.406 590.051 377.1 590.101 375.498 Z" stroke-linecap="round" />
</g>
		<g transform="matrix(1 0 0 1 28.85 -133.76)"  >
<path style="stroke: none; stroke-width: 1; stroke-dasharray: none; stroke-linecap: butt; stroke-dashoffset: 0; stroke-linejoin: miter; stroke-miterlimit: 4; fill: rgb(8,7,23); fill-rule: nonzero; opacity: 1;" vector-effect="non-scaling-stroke"  transform=" translate(-540.85, -378.24)" d="M 532.108 375.632 C 536.38 375.566 544.196 374.396 548.202 376.004 C 549.282 376.437 549.306 376.778 549.741 377.78 C 549.614 379.043 549.533 380.077 548.935 381.228 C 543.442 381.252 537.812 381.532 532.344 380.99 C 531.651 379.72 532.08 377.129 532.108 375.632 Z" stroke-linecap="round" />
</g>
		<g transform="matrix(1 0 0 1 -87.44 -133.6)"  >
<path style="stroke: none; stroke-width: 1; stroke-dasharray: none; stroke-linecap: butt; stroke-dashoffset: 0; stroke-linejoin: miter; stroke-miterlimit: 4; fill: rgb(8,7,23); fill-rule: nonzero; opacity: 1;" vector-effect="non-scaling-stroke"  transform=" translate(-424.56, -378.4)" d="M 416.006 375.509 L 433.243 375.546 L 433.16 381.217 C 427.576 381.241 421.915 381.46 416.348 380.991 C 415.586 379.699 415.996 377.056 416.006 375.509 Z" stroke-linecap="round" />
</g>
		<g transform="matrix(1 0 0 1 -116.76 -133.7)"  >
<path style="stroke: none; stroke-width: 1; stroke-dasharray: none; stroke-linecap: butt; stroke-dashoffset: 0; stroke-linejoin: miter; stroke-miterlimit: 4; fill: rgb(8,7,23); fill-rule: nonzero; opacity: 1;" vector-effect="non-scaling-stroke"  transform=" translate(-395.24, -378.3)" d="M 386.482 375.503 C 392.039 375.483 398.127 374.913 403.597 375.775 C 404.29 377.325 404.045 379.451 404.041 381.145 C 398.395 381.169 392.375 381.634 386.784 380.879 C 386.153 379.365 386.452 377.152 386.482 375.503 Z" stroke-linecap="round" />
</g>
		<g transform="matrix(1 0 0 1 86.75 -64.66)"  >
<path style="stroke: none; stroke-width: 1; stroke-dasharray: none; stroke-linecap: butt; stroke-dashoffset: 0; stroke-linejoin: miter; stroke-miterlimit: 4; fill: rgb(8,7,23); fill-rule: nonzero; opacity: 1;" vector-effect="non-scaling-stroke"  transform=" translate(-598.75, -447.34)" d="M 590.479 444.33 C 595.685 444.322 601.404 443.852 606.528 444.71 C 607.337 446.151 606.977 448.817 606.973 450.459 L 590.452 450.492 L 590.479 444.33 Z" stroke-linecap="round" />
</g>
		<g transform="matrix(1 0 0 1 -0.36 -64.63)"  >
<path style="stroke: none; stroke-width: 1; stroke-dasharray: none; stroke-linecap: butt; stroke-dashoffset: 0; stroke-linejoin: miter; stroke-miterlimit: 4; fill: rgb(8,7,23); fill-rule: nonzero; opacity: 1;" vector-effect="non-scaling-stroke"  transform=" translate(-511.64, -447.37)" d="M 503.362 444.433 C 508.658 444.386 514.31 443.94 519.552 444.672 C 520.372 446.166 520.021 448.773 520.017 450.463 C 514.534 450.483 509.059 450.536 503.581 450.27 C 502.878 448.727 503.313 446.154 503.362 444.433 Z" stroke-linecap="round" />
</g>
		<g transform="matrix(1 0 0 1 116.19 -133.82)"  >
<path style="stroke: none; stroke-width: 1; stroke-dasharray: none; stroke-linecap: butt; stroke-dashoffset: 0; stroke-linejoin: miter; stroke-miterlimit: 4; fill: rgb(8,7,23); fill-rule: nonzero; opacity: 1;" vector-effect="non-scaling-stroke"  transform=" translate(-628.19, -378.18)" d="M 619.535 375.186 Q 628.115 375.105 636.693 375.292 C 636.945 377.184 636.908 379.152 636.971 381.06 C 631.367 381.087 625.375 381.565 619.827 380.812 C 619.154 379.136 619.478 376.97 619.535 375.186 Z" stroke-linecap="round" />
</g>
		<g transform="matrix(1 0 0 1 57.64 -64.55)"  >
<path style="stroke: none; stroke-width: 1; stroke-dasharray: none; stroke-linecap: butt; stroke-dashoffset: 0; stroke-linejoin: miter; stroke-miterlimit: 4; fill: rgb(8,7,23); fill-rule: nonzero; opacity: 1;" vector-effect="non-scaling-stroke"  transform=" translate(-569.64, -447.45)" d="M 562.35 444.247 C 567.611 444.228 572.879 444.315 578.141 444.356 C 578.222 446.338 578.382 448.229 577.87 450.171 L 577.059 450.604 C 571.748 450.702 566.427 450.606 561.116 450.578 C 561.028 448.574 560.966 446.772 561.343 444.797 L 562.35 444.247 Z" stroke-linecap="round" />
</g>
		<g transform="matrix(1 0 0 1 174.38 -64.5)"  >
<path style="stroke: none; stroke-width: 1; stroke-dasharray: none; stroke-linecap: butt; stroke-dashoffset: 0; stroke-linejoin: miter; stroke-miterlimit: 4; fill: rgb(8,7,23); fill-rule: nonzero; opacity: 1;" vector-effect="non-scaling-stroke"  transform=" translate(-686.38, -447.5)" d="M 677.707 444.484 C 683.151 444.416 689.095 443.937 694.468 444.761 C 695.364 446.319 695.031 448.833 695.032 450.602 C 689.256 450.789 683.442 450.692 677.661 450.716 L 677.707 444.484 Z" stroke-linecap="round" />
</g>
		<g transform="matrix(1 0 0 1 -58.26 -64.55)"  >
<path style="stroke: none; stroke-width: 1; stroke-dasharray: none; stroke-linecap: butt; stroke-dashoffset: 0; stroke-linejoin: miter; stroke-miterlimit: 4; fill: rgb(8,7,23); fill-rule: nonzero; opacity: 1;" vector-effect="non-scaling-stroke"  transform=" translate(-453.74, -447.45)" d="M 446.617 444.249 Q 454.252 444.1 461.886 444.266 L 461.913 444.693 C 462.023 446.53 462.556 449.395 461.344 450.768 L 445.45 450.726 C 445.349 448.683 445.251 446.844 445.669 444.825 L 446.617 444.249 Z" stroke-linecap="round" />
</g>
		<g transform="matrix(1 0 0 1 -146.08 -64.52)"  >
<path style="stroke: none; stroke-width: 1; stroke-dasharray: none; stroke-linecap: butt; stroke-dashoffset: 0; stroke-linejoin: miter; stroke-miterlimit: 4; fill: rgb(8,7,23); fill-rule: nonzero; opacity: 1;" vector-effect="non-scaling-stroke"  transform=" translate(-365.92, -447.48)" d="M 358.016 444.256 C 363.451 444.08 368.904 444.211 374.341 444.254 Q 374.324 447.521 374.238 450.787 L 357.59 450.75 C 357.559 448.664 357.257 446.22 358.016 444.256 Z" stroke-linecap="round" />
</g>
		<g transform="matrix(1 0 0 1 116.48 -64.6)"  >
<path style="stroke: none; stroke-width: 1; stroke-dasharray: none; stroke-linecap: butt; stroke-dashoffset: 0; stroke-linejoin: miter; stroke-miterlimit: 4; fill: rgb(8,7,23); fill-rule: nonzero; opacity: 1;" vector-effect="non-scaling-stroke"  transform=" translate(-628.48, -447.4)" d="M 620.057 444.232 C 625.693 444.045 631.355 444.173 636.995 444.191 L 636.961 450.535 C 631.305 450.734 625.621 450.631 619.961 450.639 Q 619.979 447.435 620.057 444.232 Z" stroke-linecap="round" />
</g>
		<g transform="matrix(1 0 0 1 28.87 -64.66)"  >
<path style="stroke: none; stroke-width: 1; stroke-dasharray: none; stroke-linecap: butt; stroke-dashoffset: 0; stroke-linejoin: miter; stroke-miterlimit: 4; fill: rgb(8,7,23); fill-rule: nonzero; opacity: 1;" vector-effect="non-scaling-stroke"  transform=" translate(-540.87, -447.34)" d="M 532.362 444.162 Q 540.916 444.02 549.467 444.286 L 549.501 450.579 C 543.752 450.648 537.994 450.593 532.243 450.596 L 532.362 444.162 Z" stroke-linecap="round" />
</g>
		<g transform="matrix(1 0 0 1 -87.66 -64.62)"  >
<path style="stroke: none; stroke-width: 1; stroke-dasharray: none; stroke-linecap: butt; stroke-dashoffset: 0; stroke-linejoin: miter; stroke-miterlimit: 4; fill: rgb(8,7,23); fill-rule: nonzero; opacity: 1;" vector-effect="non-scaling-stroke"  transform=" translate(-424.34, -447.38)" d="M 415.672 444.464 C 420.264 444.413 428.847 442.722 432.481 445.521 C 433.405 447.066 433.004 449.027 432.876 450.76 C 427.127 450.925 421.384 450.823 415.635 450.743 C 415.574 448.655 415.648 446.553 415.672 444.464 Z" stroke-linecap="round" />
</g>
		<g transform="matrix(1 0 0 1 -117.01 -64.48)"  >
<path style="stroke: none; stroke-width: 1; stroke-dasharray: none; stroke-linecap: butt; stroke-dashoffset: 0; stroke-linejoin: miter; stroke-miterlimit: 4; fill: rgb(8,7,23); fill-rule: nonzero; opacity: 1;" vector-effect="non-scaling-stroke"  transform=" translate(-394.99, -447.52)" d="M 387.435 444.22 C 392.773 444.036 398.127 444.148 403.468 444.178 C 403.496 446.193 403.942 449.212 402.842 450.866 L 386.495 450.929 C 386.437 448.673 386.058 446.074 387.435 444.22 Z" stroke-linecap="round" />
</g>
		<g transform="matrix(1 0 0 1 -175.23 -64.5)"  >
<path style="stroke: none; stroke-width: 1; stroke-dasharray: none; stroke-linecap: butt; stroke-dashoffset: 0; stroke-linejoin: miter; stroke-miterlimit: 4; fill: rgb(8,7,23); fill-rule: nonzero; opacity: 1;" vector-effect="non-scaling-stroke"  transform=" translate(-336.77, -447.5)" d="M 328.708 444.226 Q 337.064 444.104 345.418 444.343 C 345.498 446.274 345.95 449.248 344.83 450.815 L 328.095 450.849 C 328.057 448.978 327.585 445.692 328.708 444.226 Z" stroke-linecap="round" />
</g>
		<g transform="matrix(1 0 0 1 145.28 -64.63)"  >
<path style="stroke: none; stroke-width: 1; stroke-dasharray: none; stroke-linecap: butt; stroke-dashoffset: 0; stroke-linejoin: miter; stroke-miterlimit: 4; fill: rgb(8,7,23); fill-rule: nonzero; opacity: 1;" vector-effect="non-scaling-stroke"  transform=" translate(-657.28, -447.37)" d="M 648.537 444.135 Q 657.275 444.025 666.011 444.249 L 666.086 450.652 C 660.22 450.722 654.346 450.656 648.479 450.652 L 648.537 444.135 Z" stroke-linecap="round" />
</g>
		<g transform="matrix(1 0 0 1 -28.97 -64.6)"  >
<path style="stroke: none; stroke-width: 1; stroke-dasharray: none; stroke-linecap: butt; stroke-dashoffset: 0; stroke-linejoin: miter; stroke-miterlimit: 4; fill: rgb(8,7,23); fill-rule: nonzero; opacity: 1;" vector-effect="non-scaling-stroke"  transform=" translate(-483.03, -447.4)" d="M 474.338 444.031 L 491.449 444.002 C 491.676 446.222 491.725 448.45 491.804 450.68 C 485.978 450.9 480.133 450.764 474.304 450.723 C 474.211 448.5 474.307 446.255 474.338 444.031 Z" stroke-linecap="round" />
</g>
		<g transform="matrix(1 0 0 1 0.13 167.87)"  >
<path style="stroke: none; stroke-width: 1; stroke-dasharray: none; stroke-linecap: butt; stroke-dashoffset: 0; stroke-linejoin: miter; stroke-miterlimit: 4; fill: rgb(248,247,254); fill-rule: nonzero; opacity: 1;" vector-effect="non-scaling-stroke"  transform=" translate(-512.13, -679.87)" d="M 371.032 513.639 C 381.519 512.857 395.647 513.688 406.517 513.673 L 485.417 513.595 L 597.844 513.647 C 615.556 513.644 633.461 512.893 651.149 513.525 C 654.961 513.661 658.676 514.156 662.277 515.463 C 669.59 518.119 674.968 523.577 678.13 530.591 C 679.722 534.123 680.398 537.646 680.555 541.494 C 681.141 555.892 680.735 570.45 680.748 584.862 L 680.869 663.417 L 680.991 760.302 C 681.033 778.291 681.516 796.371 681.067 814.346 C 680.981 817.793 681.009 822.471 679.707 825.67 C 678.377 828.936 676.843 832.081 674.665 834.874 C 669.561 841.417 661.678 844.817 653.623 845.839 C 636.276 846.693 618.51 845.923 601.128 845.952 L 492.688 846.027 L 411.414 846.038 C 397.102 846.077 382.177 846.983 367.929 846.01 Q 366.34 845.899 364.778 845.592 Q 363.215 845.285 361.702 844.788 Q 360.189 844.291 358.749 843.611 Q 357.309 842.931 355.964 842.078 C 350.612 838.722 345.099 832.389 343.871 826.063 C 342.306 818 343.348 806.495 343.348 798.046 L 343.336 736.983 L 343.386 606.898 L 343.419 567.406 C 343.408 559.775 343.051 551.942 343.571 544.331 C 343.966 538.544 345.657 533.055 348.795 528.158 C 353.939 520.13 361.863 515.582 371.032 513.639 Z" stroke-linecap="round" />
</g>
		<g transform="matrix(1 0 0 1 -0.06 155.19)"  >
<path style="stroke: none; stroke-width: 1; stroke-dasharray: none; stroke-linecap: butt; stroke-dashoffset: 0; stroke-linejoin: miter; stroke-miterlimit: 4; fill: rgb(8,7,23); fill-rule: nonzero; opacity: 1;" vector-effect="non-scaling-stroke"  transform=" translate(-511.94, -667.19)" d="M 574.394 664.139 Q 606.695 664.357 638.996 664.082 L 660.443 664.058 L 660.34 670 L 452.872 670 L 393.23 670.078 C 383.773 670.09 373.255 671.039 363.917 669.819 C 363.2 668.131 363.484 665.867 363.497 664.051 Q 374.686 664.018 385.875 664.168 C 395.262 665.11 405.197 664.482 414.656 664.464 C 436.521 664.423 458.418 663.867 480.276 664.153 L 520.567 664.361 C 527.574 664.376 534.725 664.103 541.716 664.446 C 552.475 663.578 563.588 664.065 574.394 664.139 Z" stroke-linecap="round" />
</g>
		<g transform="matrix(1 0 0 1 0.17 310.92)"  >
<path style="stroke: none; stroke-width: 1; stroke-dasharray: none; stroke-linecap: butt; stroke-dashoffset: 0; stroke-linejoin: miter; stroke-miterlimit: 4; fill: rgb(8,7,23); fill-rule: nonzero; opacity: 1;" vector-effect="non-scaling-stroke"  transform=" translate(-512.17, -822.92)" d="M 387.18 819.571 C 407.947 820.005 429.025 820.44 449.78 819.688 L 480.702 819.603 L 482.34 819.635 C 513.31 820.996 544.463 818.466 575.401 819.846 Q 606.853 820.131 638.305 820.043 C 645.697 820.041 653.14 819.857 660.526 820.115 C 660.053 821.242 659.588 822.415 659.005 823.492 C 658.377 824.653 657.477 825.468 656.189 825.806 C 651.314 827.083 637.153 825.956 631.373 825.903 C 622.813 825.826 614.242 825.933 605.68 825.939 L 429.485 825.943 Q 407.495 826.03 385.505 825.882 C 380.556 825.884 375.391 826.657 370.479 826.305 C 368.917 826.193 366.91 825.893 365.63 824.92 C 363.892 823.598 363.907 821.597 363.811 819.625 C 371.591 819.478 379.394 819.646 387.18 819.571 Z" stroke-linecap="round" />
</g>
		<g transform="matrix(1 0 0 1 -93.52 294.25)"  >
<path style="stroke: none; stroke-width: 1; stroke-dasharray: none; stroke-linecap: butt; stroke-dashoffset: 0; stroke-linejoin: miter; stroke-miterlimit: 4; fill: rgb(248,247,254); fill-rule: nonzero; opacity: 1;" vector-effect="non-scaling-stroke"  transform=" translate(-418.48, -806.25)" d="M 387.18 819.571 C 389.238 810.532 394.517 801.729 402.519 796.783 Q 403.157 796.394 403.813 796.037 Q 404.469 795.68 405.142 795.356 Q 405.815 795.032 406.504 794.742 Q 407.192 794.453 407.894 794.197 Q 408.596 793.942 409.31 793.722 Q 410.024 793.502 410.748 793.318 Q 411.472 793.134 412.204 792.986 Q 412.937 792.839 413.675 792.727 Q 414.414 792.616 415.157 792.542 Q 415.901 792.468 416.647 792.431 Q 417.393 792.394 418.14 792.394 Q 418.887 792.394 419.633 792.432 Q 420.379 792.469 421.122 792.544 Q 421.865 792.618 422.604 792.73 Q 423.343 792.841 424.075 792.989 Q 424.807 793.138 425.531 793.322 Q 426.304 793.511 427.066 793.738 Q 427.829 793.965 428.579 794.229 Q 429.329 794.493 430.066 794.793 Q 430.803 795.093 431.524 795.429 Q 432.245 795.765 432.949 796.136 Q 433.652 796.507 434.337 796.912 Q 435.022 797.316 435.686 797.754 Q 436.35 798.192 436.992 798.662 Q 437.634 799.131 438.253 799.632 Q 438.871 800.133 439.464 800.663 Q 440.057 801.193 440.623 801.752 Q 441.19 802.31 441.728 802.896 Q 442.266 803.481 442.776 804.093 Q 443.285 804.704 443.763 805.339 Q 444.242 805.975 444.689 806.633 Q 445.136 807.291 445.55 807.97 Q 446.362 809.312 447.037 810.728 Q 447.713 812.144 448.245 813.62 Q 448.778 815.095 449.163 816.616 Q 449.547 818.137 449.78 819.688 C 429.025 820.44 407.947 820.005 387.18 819.571 Z" stroke-linecap="round" />
</g>
		<g transform="matrix(1 0 0 1 0.06 293.79)"  >
<path style="stroke: none; stroke-width: 1; stroke-dasharray: none; stroke-linecap: butt; stroke-dashoffset: 0; stroke-linejoin: miter; stroke-miterlimit: 4; fill: rgb(248,247,254); fill-rule: nonzero; opacity: 1;" vector-effect="non-scaling-stroke"  transform=" translate(-512.06, -805.79)" d="M 480.702 819.603 C 482.135 810.808 485.846 803.694 493.166 798.356 C 500.119 793.286 508.73 790.891 517.287 792.366 C 525.766 793.828 533.496 799.251 538.281 806.332 C 541.057 810.442 542.457 814.767 543.414 819.591 C 523.098 819.684 502.631 818.951 482.34 819.635 L 480.702 819.603 Z" stroke-linecap="round" />
</g>
		<g transform="matrix(1 0 0 1 94.73 294.12)"  >
<path style="stroke: none; stroke-width: 1; stroke-dasharray: none; stroke-linecap: butt; stroke-dashoffset: 0; stroke-linejoin: miter; stroke-miterlimit: 4; fill: rgb(248,247,254); fill-rule: nonzero; opacity: 1;" vector-effect="non-scaling-stroke"  transform=" translate(-606.73, -806.12)" d="M 575.401 819.846 C 574.392 817.311 576.839 812.405 577.857 810.009 Q 578.133 809.343 578.443 808.691 Q 578.753 808.04 579.096 807.406 Q 579.439 806.771 579.814 806.155 Q 580.188 805.538 580.594 804.942 Q 581 804.346 581.435 803.771 Q 581.871 803.196 582.335 802.644 Q 582.799 802.092 583.291 801.564 Q 583.783 801.037 584.301 800.535 Q 584.819 800.033 585.362 799.559 Q 585.905 799.084 586.472 798.637 Q 587.038 798.191 587.627 797.774 Q 588.215 797.357 588.824 796.971 Q 589.433 796.584 590.061 796.229 Q 590.689 795.875 591.334 795.552 Q 591.98 795.23 592.641 794.941 Q 593.301 794.652 593.976 794.397 C 602.059 791.275 611.67 791.36 619.575 794.978 C 627.786 798.735 633.514 805.682 636.595 814.074 C 637.316 816.038 637.9 817.987 638.305 820.043 Q 606.853 820.131 575.401 819.846 Z" stroke-linecap="round" />
</g>
		<g transform="matrix(1 0 0 1 0.17 138.58)"  >
<path style="stroke: none; stroke-width: 1; stroke-dasharray: none; stroke-linecap: butt; stroke-dashoffset: 0; stroke-linejoin: miter; stroke-miterlimit: 4; fill: rgb(248,247,254); fill-rule: nonzero; opacity: 1;" vector-effect="non-scaling-stroke"  transform=" translate(-512.17, -650.58)" d="M 480.276 664.153 C 482.698 654.367 487.268 646.443 496.158 641.179 C 503.337 636.929 512.161 635.543 520.242 637.733 C 528.9 640.079 536.43 646.394 540.777 654.185 C 542.31 656.933 543.546 659.962 544.067 663.071 L 543.658 663.935 L 541.716 664.446 C 534.725 664.103 527.574 664.376 520.567 664.361 L 480.276 664.153 Z" stroke-linecap="round" />
</g>
		<g transform="matrix(1 0 0 1 -94 138.43)"  >
<path style="stroke: none; stroke-width: 1; stroke-dasharray: none; stroke-linecap: butt; stroke-dashoffset: 0; stroke-linejoin: miter; stroke-miterlimit: 4; fill: rgb(248,247,254); fill-rule: nonzero; opacity: 1;" vector-effect="non-scaling-stroke"  transform=" translate(-418, -650.43)" d="M 385.875 664.168 C 387.717 654.922 391.801 647.685 399.787 642.373 C 406.917 637.631 415.307 635.562 423.79 637.288 Q 424.948 637.532 426.086 637.854 Q 427.224 638.176 428.338 638.575 Q 429.452 638.973 430.537 639.446 Q 431.621 639.919 432.671 640.465 Q 433.72 641.01 434.731 641.626 Q 435.741 642.241 436.707 642.924 Q 437.673 643.607 438.591 644.353 Q 439.509 645.1 440.374 645.907 C 445.556 651.311 448.413 656.713 450.135 664.013 C 428.761 664.34 407.212 663.414 385.875 664.168 Z" stroke-linecap="round" />
</g>
		<g transform="matrix(1 0 0 1 94.69 138.33)"  >
<path style="stroke: none; stroke-width: 1; stroke-dasharray: none; stroke-linecap: butt; stroke-dashoffset: 0; stroke-linejoin: miter; stroke-miterlimit: 4; fill: rgb(248,247,254); fill-rule: nonzero; opacity: 1;" vector-effect="non-scaling-stroke"  transform=" translate(-606.69, -650.33)" d="M 574.394 664.139 C 576.591 654.453 581.021 646.522 589.613 641.101 C 596.907 636.498 605.725 635.312 614.082 637.281 C 622.48 639.259 630.312 644.474 634.779 651.932 C 637.041 655.709 638.327 659.742 638.996 664.082 Q 606.695 664.357 574.394 664.139 Z" stroke-linecap="round" />
</g>
</g>
</g>
<g transform="matrix(5.92 0 0 5.92 781.25 754.94)" id="93875e5d-2975-4e06-a65a-f259b849a42b"  >
<path style="stroke: rgb(0,0,0); stroke-width: 0; stroke-dasharray: none; stroke-linecap: butt; stroke-dashoffset: 0; stroke-linejoin: miter; stroke-miterlimit: 4; fill: rgb(255,0,0); fill-rule: nonzero; opacity: 1;" vector-effect="non-scaling-stroke"  transform=" translate(-50, -50)" d="M 16.28 19.945 L 19.957 16.32 C 22.060000000000002 14.166 25.578000000000003 14.166 27.681 16.32 L 50.007000000000005 38.595 L 72.333 16.32 C 74.43599999999999 14.166 77.954 14.166 80.054 16.32 L 83.68 19.945 C 85.834 22.046 85.834 25.566000000000003 83.68 27.668 L 61.405 49.993 L 83.68 72.32 C 85.834 74.422 85.834 77.939 83.68 80.04299999999999 L 80.054 83.72099999999999 C 77.95400000000001 85.82 74.436 85.82 72.333 83.72099999999999 L 50.007 61.393 L 27.681 83.721 C 25.578 85.82000000000001 22.060000000000002 85.82000000000001 19.957 83.721 L 16.28 80.043 C 14.180000000000001 77.93900000000001 14.180000000000001 74.42200000000001 16.28 72.32000000000001 L 38.606 49.99300000000001 L 16.28 27.667 C 14.18 25.566 14.18 22.046 16.28 19.945 z" stroke-linecap="round" />
</g>
</svg>