<svg xmlns="http://www.w3.org/2000/svg" width="1024" height="1024"><path fill="#F8F7FE" d="M0 0h1024v1024H0z" data-index="0" style="opacity:1;visibility:visible;fill:#f3f8ff;stroke:#f3f8ff"/><path fill="#FE0" d="M725.421 141.204c1.496.513 2.878 1.063 3.479 2.652 1.079 2.849.869 70.838.366 77.464-.102 1.341-.414 2.176-1.079 3.333-1.364-.043-2.238-.031-3.48-.671-.204-.536-.389-1.007-.463-1.582-.629-4.853-.237-10.092-.226-14.993l.076-28.413-.023-24.223c-.001-3.54-.367-7.539.117-11.043.142-1.03.635-1.706 1.233-2.524" data-index="1"/><path fill="#FE0" d="M778.075 143.154c1.292.12 2.349.306 3.599.698.937 1.232.85 1.705.954 3.264.449 6.689.008 13.658.015 20.375q.149 20.561.066 41.123l.024 25.935c.02 5.214.323 10.604-.276 15.785-1.259.437-2.326.986-3.655.524-.845-1.188-.718-1.86-.794-3.33-.876-16.948-.005-34.356-.036-51.348-.031-17.449-1.019-35.658.103-53.026" data-index="2"/><path fill="#FE0" d="M555.117 61.294c1.509.121 2.185.04 3.459.9 1.219 3.392.267 23.4.244 28.212q-.229 27.669.009 55.337c.053 8.528 1.305 32.876-.497 39.383-.939.128-1.654.283-2.581-.013-.566-.18-.561-.157-.793-.716-.937-2.258-.917-108.968-.46-120.466.04-1.014.247-1.707.619-2.637" data-index="3"/><path fill="#FE0" d="M611.667 69.97c1.519-.092 2.561-.291 3.888.48 1.088 2.924.858 106.484.343 116.642-.059 1.153-.314 2.069-.682 3.152-1.376-.199-2.613-.078-3.537-1.287-.617-.807-.67-1.87-.687-2.84-.373-21.655.303-43.428.35-65.096.037-16.889-.765-34.226.325-51.051" data-index="4"/><path fill="#080717" d="M500.321 224.729c3.182-.111 6.381-.095 9.565-.122 29.569-.245 59.933 1.286 89.27 5.011 41.182 5.228 116.127 20.898 146.559 51.179 4.231 4.21 9.069 10.139 10.545 16.053 1.871 7.489.674 27.233.641 36.196l-.183 74.32c7.55.208 34.569-2.001 39.287 3.084 2.717 2.929 1.549 19.744 1.539 24.534 6.763.059 35.426-1.43 39.253 2.621 1.058 1.12 1.28 3.323 1.413 4.779.392 4.29.946 24.964-1.459 27.459-3.748 3.889-32.487 2.356-39.215 2.488l-.082 251.491q-.454 103.485.389 206.97c.043 3.397-.719 6.903-3.27 9.31-1.824 1.721-4.879 1.577-7.281 1.692-8.533.407-17.237.066-25.792.05l-58.852-.315-177.324.021-178.611.028-72.274-.092c-9.25-.031-37.977 1.272-45.028-1.376-1.613-2.482-2.051-5.628-2.153-8.547-.469-13.411.102-27.077.09-40.51l-.225-84.708-.21-332.97c-11.531-.414-23.268-.255-34.798.158-1.048-.724-2.136-1.446-3.095-2.285-2.029-1.775-2.24-4.003-2.39-6.545-.261-4.392-1.105-22.959 1.826-26.035 1.488-1.562 3.973-2.322 6.049-2.612 8.238-1.15 23.298-.002 32.174.136.054-4.853.018-9.69-.037-14.542-.037-3.29-.421-8.115 2.148-10.534 1.481-1.394 3.867-2.057 5.819-2.36 7.64-1.186 24.485-.329 32.976-.331l.04-74.675c-.001-9.982-1.084-28.332.898-37.214 1.126-5.048 4.583-9.802 8.065-13.53 13.103-14.031 31.74-22.149 49.393-28.815 56.083-21.177 114.796-27.663 174.34-29.462" data-index="5" style="opacity:1"/><path fill="#F8F7FE" d="M301.04 521.951c14.669-.235 29.371.021 44.042.079-8.855 11.962-8.084 24.877-8.082 39.027l.02 25.693-.012 7.744-35.959.007z" data-index="6"/><path fill="#F8F7FE" d="M680.764 521.551q21.174-.22 42.349-.066c.322 24.459-.146 48.984-.246 73.448-11.939.341-23.992-.021-35.942-.051l.139-36.036c.032-7.532.623-15.537-.785-22.956-.995-5.241-2.979-9.677-5.515-14.339" data-index="7"/><path fill="#F8F7FE" d="M687.024 601.325c11.93-.348 23.977.06 35.914.216l.103 76.944-36.027.014z" data-index="8"/><path fill="#F8F7FE" d="M302.24 600.723q17.221-.105 34.441.056.059.781.099 1.564c.608 13.85.172 27.92.184 41.791.008 10.644.627 21.717-.125 32.315-.091 1.272-.025 2.087-.901 3.034l-34.787-.013-.038-50.816c-.011-8.385-.478-17.061.049-25.414.092-1.451-.021-1.576 1.078-2.517" data-index="9"/><path fill="#F8F7FE" d="m301.341 686.003 35.466-.075c-.637 30.655-.024 61.441.104 92.107l.128 28.769c.025 6.138-.308 12.509.622 18.578.855 5.577 2.875 10.667 6.461 15.062 5.437 6.664 13.43 10.279 21.865 11.192l.135 55.066c.022 9.524.718 19.577-.246 29.024-21.423.692-43.14-.031-64.585-.086-.526-9.829-.143-19.851-.123-29.699l.078-54.306z" data-index="10"/><path fill="#F8F7FE" d="M686.809 684.949c12.096-.16 24.215-.005 36.313.005l.018 250.66-29.39-.063-36.323-.05c-.741-28.136-.04-56.467.04-84.617 7.556-1.381 14.273-4.317 19.717-9.838 4.594-4.658 7.457-10.114 8.746-16.531 2.303-11.463 1.117-34.668 1.125-47.186q.165-46.191-.246-92.38" data-index="11" style="opacity:1"/><path fill="#F8F7FE" d="m729.513 315.936 20.77.076-.29 619.398c-6.17 1.265-14.211.284-20.545.242-.401-25.044.017-50.158.028-75.209l-.055-126.774z" data-index="12"/><path fill="#F8F7FE" d="M274.185 315.879c6.766-.144 13.571.035 20.341.064l.293 619.367c-5.708 1.33-14.678.323-20.675.261-.703-40.478-.126-81.04-.145-121.528l.104-245.48-.059-168.196c-.001-28.09-.822-56.433.141-84.488" data-index="13"/><path fill="#F8F7FE" d="M301.048 315.943c19.374-.449 38.849-.081 58.229-.046l98.906.035 265.178.02-.053 59.138-16.264.003c-.049 2.065.019 4.146.032 6.213l16.285.186c.52 20.909.019 41.961-.025 62.885l-16.565.084-.088 5.996 16.599.108-.162 64.369-4.995.047-26.549-.009c-5.25.006-11.129-.422-16.284.587-4.782-3.278-9.568-5.942-15.257-7.255-9.167-2.116-28.098-.879-38.145-.872l-75.164-.021-118.922-.099-36.09-.087c-6.991-.021-14.246-.424-21.2.294-7.284.753-13.236 4.112-19.317 7.953l-50.031.001-.025-64.564q7.542.008 15.082-.135l.136-6.511c-5.137-.214-10.32-.086-15.462-.097l-.045-62.457c3.873-.12 8.489.738 12.236-.114 1.529-.348 2.188-.897 3.052-2.167.035-1.499.019-1.693-.746-2.975-3.586-2.303-10.535-1.164-14.747-1.186-.249-19.751.26-39.568.401-59.324" data-index="14"/><path fill="#080717" d="m561.523 375.643 16.746.044-.034 5.406q-2.028.09-4.058.104c-2.37.039-11.342.769-12.742-.586z" data-index="15"/><path fill="#080717" d="M648.748 375.465c5.413-.036 10.943-.305 16.334.2.71 1.533.416 3.692.42 5.379l-16.67.043c-.139-1.868-.085-3.749-.084-5.622" data-index="16"/><path fill="#080717" d="M677.743 375.5c5.352-.054 11.127-.569 16.42.19.709 1.468.395 3.748.381 5.363-5.493.032-11.193.384-16.653-.226-.62-1.52-.221-3.686-.148-5.327" data-index="17"/><path fill="#080717" d="M503.547 375.526c5.24-.03 10.887-.494 16.065.25.698 1.608.385 3.811.351 5.544-2.836.005-14.794.836-16.479-.695z" data-index="18"/><path fill="#080717" d="M474.483 375.443c5.406.007 11.249-.436 16.589.344.667 1.549.418 3.654.407 5.338-5.514.018-11.1.225-16.597-.233-.712-1.581-.407-3.719-.399-5.449" data-index="19"/><path fill="#080717" d="m357.764 375.566 17.062-.021c-.01 1.846-.181 3.718-.278 5.564l-16.799.067c-.078-1.858.005-3.749.015-5.61" data-index="20"/><path fill="#080717" d="M328.311 375.462c5.233-.021 11.236-.617 16.356.299.697 1.672.518 3.575.512 5.361-5.626.189-11.295.096-16.926.124z" data-index="21"/><path fill="#080717" d="M445.357 375.479c5.279-.031 11.074-.588 16.27.243.783 1.608.495 3.767.476 5.525-3.766.025-13.432 1.047-16.415-.305-.622-1.712-.384-3.662-.331-5.463" data-index="22"/><path fill="#080717" d="M590.101 375.498c5.461-.054 11.622-.614 16.986.28.688 1.52.424 3.614.405 5.278-5.628.045-11.499.443-17.089-.201-.73-1.449-.352-3.755-.302-5.357" data-index="23"/><path fill="#080717" d="M532.108 375.632c4.272-.066 12.088-1.236 16.094.372 1.08.433 1.104.774 1.539 1.776-.127 1.263-.208 2.297-.806 3.448-5.493.024-11.123.304-16.591-.238-.693-1.27-.264-3.861-.236-5.358" data-index="24"/><path fill="#080717" d="m416.006 375.509 17.237.037-.083 5.671c-5.584.024-11.245.243-16.812-.226-.762-1.292-.352-3.935-.342-5.482" data-index="25"/><path fill="#080717" d="M386.482 375.503c5.557-.02 11.645-.59 17.115.272.693 1.55.448 3.676.444 5.37-5.646.024-11.666.489-17.257-.266-.631-1.514-.332-3.727-.302-5.376" data-index="26"/><path fill="#080717" d="M590.479 444.33c5.206-.008 10.925-.478 16.049.38.809 1.441.449 4.107.445 5.749l-16.521.033z" data-index="27"/><path fill="#080717" d="M503.362 444.433c5.296-.047 10.948-.493 16.19.239.82 1.494.469 4.101.465 5.791-5.483.02-10.958.073-16.436-.193-.703-1.543-.268-4.116-.219-5.837" data-index="28"/><path fill="#080717" d="M619.535 375.186q8.58-.081 17.158.106c.252 1.892.215 3.86.278 5.768-5.604.027-11.596.505-17.144-.248-.673-1.676-.349-3.842-.292-5.626" data-index="29"/><path fill="#080717" d="M562.35 444.247c5.261-.019 10.529.068 15.791.109.081 1.982.241 3.873-.271 5.815l-.811.433c-5.311.098-10.632.002-15.943-.026-.088-2.004-.15-3.806.227-5.781z" data-index="30"/><path fill="#080717" d="M677.707 444.484c5.444-.068 11.388-.547 16.761.277.896 1.558.563 4.072.564 5.841-5.776.187-11.59.09-17.371.114z" data-index="31"/><path fill="#080717" d="M446.617 444.249q7.635-.149 15.269.017l.027.427c.11 1.837.643 4.702-.569 6.075l-15.894-.042c-.101-2.043-.199-3.882.219-5.901z" data-index="32"/><path fill="#080717" d="M358.016 444.256c5.435-.176 10.888-.045 16.325-.002q-.017 3.267-.103 6.533l-16.648-.037c-.031-2.086-.333-4.53.426-6.494" data-index="33"/><path fill="#080717" d="M620.057 444.232c5.636-.187 11.298-.059 16.938-.041l-.034 6.344c-5.656.199-11.34.096-17 .104q.018-3.204.096-6.407" data-index="34"/><path fill="#080717" d="M532.362 444.162q8.554-.142 17.105.124l.034 6.293c-5.749.069-11.507.014-17.258.017z" data-index="35"/><path fill="#080717" d="M415.672 444.464c4.592-.051 13.175-1.742 16.809 1.057.924 1.545.523 3.506.395 5.239-5.749.165-11.492.063-17.241-.017-.061-2.088.013-4.19.037-6.279" data-index="36"/><path fill="#080717" d="M387.435 444.22c5.338-.184 10.692-.072 16.033-.042.028 2.015.474 5.034-.626 6.688l-16.347.063c-.058-2.256-.437-4.855.94-6.709" data-index="37"/><path fill="#080717" d="M328.708 444.226q8.356-.122 16.71.117c.08 1.931.532 4.905-.588 6.472l-16.735.034c-.038-1.871-.51-5.157.613-6.623" data-index="38"/><path fill="#080717" d="M648.537 444.135q8.738-.11 17.474.114l.075 6.403c-5.866.07-11.74.004-17.607 0z" data-index="39"/><path fill="#080717" d="m474.338 444.031 17.111-.029c.227 2.22.276 4.448.355 6.678-5.826.22-11.671.084-17.5.043-.093-2.223.003-4.468.034-6.692" data-index="40"/><path fill="#F8F7FE" d="M371.032 513.639c10.487-.782 24.615.049 35.485.034l78.9-.078 112.427.052c17.712-.003 35.617-.754 53.305-.122 3.812.136 7.527.631 11.128 1.938 7.313 2.656 12.691 8.114 15.853 15.128 1.592 3.532 2.268 7.055 2.425 10.903.586 14.398.18 28.956.193 43.368l.121 78.555.122 96.885c.042 17.989.525 36.069.076 54.044-.086 3.447-.058 8.125-1.36 11.324-1.33 3.266-2.864 6.411-5.042 9.204-5.104 6.543-12.987 9.943-21.042 10.965-17.347.854-35.113.084-52.495.113l-108.44.075-81.274.011c-14.312.039-29.237.945-43.485-.028q-1.589-.111-3.151-.418-1.563-.307-3.076-.804t-2.953-1.177-2.785-1.533c-5.352-3.356-10.865-9.689-12.093-16.015-1.565-8.063-.523-19.568-.523-28.017l-.012-61.063.05-130.085.033-39.492c-.011-7.631-.368-15.464.152-23.075.395-5.787 2.086-11.276 5.224-16.173 5.144-8.028 13.068-12.576 22.237-14.519" data-index="41" style="opacity:1"/><path fill="#080717" d="M574.394 664.139q32.301.218 64.602-.057l21.447-.024-.103 5.942H452.872l-59.642.078c-9.457.012-19.975.961-29.313-.259-.717-1.688-.433-3.952-.42-5.768q11.189-.033 22.378.117c9.387.942 19.322.314 28.781.296 21.865-.041 43.762-.597 65.62-.311l40.291.208c7.007.015 14.158-.258 21.149.085 10.759-.868 21.872-.381 32.678-.307" data-index="42"/><path fill="#080717" d="M387.18 819.571c20.767.434 41.845.869 62.6.117l30.922-.085 1.638.032c30.97 1.361 62.123-1.169 93.061.211q31.452.285 62.904.197c7.392-.002 14.835-.186 22.221.072-.473 1.127-.938 2.3-1.521 3.377-.628 1.161-1.528 1.976-2.816 2.314-4.875 1.277-19.036.15-24.816.097-8.56-.077-17.131.03-25.693.036l-176.195.004q-21.99.087-43.98-.061c-4.949.002-10.114.775-15.026.423-1.562-.112-3.569-.412-4.849-1.385-1.738-1.322-1.723-3.323-1.819-5.295 7.78-.147 15.583.021 23.369-.054" data-index="43"/><path fill="#FE0" d="m363.614 690.077 195.213.018 65.501.039c12.015.018 24.213-.345 36.204.252l-.053 86.974-.066 29.242c.007 4.402-.35 9.167.113 13.513-7.386-.258-14.829-.074-22.221-.072q-31.452.088-62.904-.197c-30.938-1.38-62.091 1.15-93.061-.211l-1.638-.032-30.922.085c-20.755.752-41.833.317-62.6-.117-7.786.075-15.589-.093-23.369.054.606-43.156.04-86.388-.197-129.548" data-index="44" style="opacity:1"/><path fill="#F8F7FE" d="M387.18 819.571c2.058-9.039 7.337-17.842 15.339-22.788q.638-.389 1.294-.746t1.329-.681 1.362-.614q.688-.289 1.39-.545.702-.255 1.416-.475t1.438-.404 1.456-.332 1.471-.259 1.482-.185q.744-.074 1.49-.111t1.493-.037 1.493.038 1.489.112 1.482.186q.739.111 1.471.259t1.456.333q.773.189 1.535.416.763.227 1.513.491t1.487.564 1.458.636 1.425.707 1.388.776q.685.404 1.349.842t1.306.908 1.261.97q.618.501 1.211 1.031t1.159 1.089q.567.558 1.105 1.144t1.048 1.197.987 1.246q.479.636.926 1.294t.861 1.337q.812 1.342 1.487 2.758.676 1.416 1.208 2.892.533 1.475.918 2.996.384 1.521.617 3.072c-20.755.752-41.833.317-62.6-.117" data-index="45"/><path fill="#F8F7FE" d="M480.702 819.603c1.433-8.795 5.144-15.909 12.464-21.247 6.953-5.07 15.564-7.465 24.121-5.99 8.479 1.462 16.209 6.885 20.994 13.966 2.776 4.11 4.176 8.435 5.133 13.259-20.316.093-40.783-.64-61.074.044z" data-index="46"/><path fill="#F8F7FE" d="M575.401 819.846c-1.009-2.535 1.438-7.441 2.456-9.837q.276-.666.586-1.318.31-.651.653-1.285.343-.635.718-1.251.374-.617.78-1.213t.841-1.171q.436-.575.9-1.127t.956-1.08q.492-.527 1.01-1.029t1.061-.976 1.11-.922q.566-.446 1.155-.863.588-.417 1.197-.803t1.237-.742q.628-.354 1.273-.677.646-.322 1.307-.611t1.335-.544c8.083-3.122 17.694-3.037 25.599.581 8.211 3.757 13.939 10.704 17.02 19.096.721 1.964 1.305 3.913 1.71 5.969q-31.452.088-62.904-.197" data-index="47"/><path fill="#FE0" d="m363.497 664.051.081-83.342-.063-22.681c-.019-4.449-.366-9.216.28-13.616.42-2.863 2.021-5.597 4.024-7.647 2.355-2.411 5.059-3.42 8.374-3.704 10.809-.924 22.228-.089 33.086-.046h60.689l119.639.019c19.016-.004 38.071-.325 57.083-.074 4.026.054 7.775.085 10.775 3.176 1.528 1.574 2.526 3.734 2.817 5.899.633 4.727.261 9.853.259 14.629l-.034 26.226c-.034 27.045.32 54.129-.064 81.168l-21.447.024q-32.301.275-64.602.057c-10.806-.074-21.919-.561-32.678.307-6.991-.343-14.142-.07-21.149-.085l-40.291-.208c-21.858-.286-43.755.27-65.62.311-9.459.018-19.394.646-28.781-.296q-11.189-.15-22.378-.117" data-index="48"/><path fill="#F8F7FE" d="M480.276 664.153c2.422-9.786 6.992-17.71 15.882-22.974 7.179-4.25 16.003-5.636 24.084-3.446 8.658 2.346 16.188 8.661 20.535 16.452 1.533 2.748 2.769 5.777 3.29 8.886l-.409.864-1.942.511c-6.991-.343-14.142-.07-21.149-.085z" data-index="49"/><path fill="#F8F7FE" d="M385.875 664.168c1.842-9.246 5.926-16.483 13.912-21.795 7.13-4.742 15.52-6.811 24.003-5.085q1.158.244 2.296.566t2.252.721 2.199.871 2.134 1.019q1.049.545 2.06 1.161 1.01.615 1.976 1.298t1.884 1.429 1.783 1.554c5.182 5.404 8.039 10.806 9.761 18.106-21.374.327-42.923-.599-64.26.155" data-index="50"/><path fill="#F8F7FE" d="M574.394 664.139c2.197-9.686 6.627-17.617 15.219-23.038 7.294-4.603 16.112-5.789 24.469-3.82 8.398 1.978 16.23 7.193 20.697 14.651 2.262 3.777 3.548 7.81 4.217 12.15q-32.301.275-64.602.057" data-index="51"/></svg>