<svg xmlns="http://www.w3.org/2000/svg" xmlns:xlink="http://www.w3.org/1999/xlink" width="1024" height="1024">
	<path fill="#F8F7FE" d="M0 0L1024 0L1024 1024L0 1024L0 0Z" data-index="0" style="opacity: 1; visibility: visible; fill: rgb(243, 248, 255); stroke: rgb(243, 248, 255);"></path>
	<path fill="#FE0" d="M725.421 141.204C726.917 141.717 728.299 142.267 728.9 143.856C729.979 146.705 729.769 214.694 729.266 221.32C729.164 222.661 728.852 223.496 728.187 224.653C726.823 224.61 725.949 224.622 724.707 223.982C724.503 223.446 724.318 222.975 724.244 222.4C723.615 217.547 724.007 212.308 724.018 207.407L724.094 178.994L724.071 154.771C724.07 151.231 723.704 147.232 724.188 143.728C724.33 142.698 724.823 142.022 725.421 141.204Z" data-index="1"></path>
	<path fill="#FE0" d="M778.075 143.154C779.367 143.274 780.424 143.46 781.674 143.852C782.611 145.084 782.524 145.557 782.628 147.116C783.077 153.805 782.636 160.774 782.643 167.491Q782.792 188.052 782.709 208.614L782.733 234.549C782.753 239.763 783.056 245.153 782.457 250.334C781.198 250.771 780.131 251.32 778.802 250.858C777.957 249.67 778.084 248.998 778.008 247.528C777.132 230.58 778.003 213.172 777.972 196.18C777.941 178.731 776.953 160.522 778.075 143.154Z" data-index="2"></path>
	<path fill="#FE0" d="M555.117 61.2937C556.626 61.4153 557.302 61.334 558.576 62.1949C559.795 65.5859 558.843 85.5949 558.82 90.406Q558.591 118.075 558.829 145.743C558.882 154.271 560.134 178.619 558.332 185.126C557.393 185.254 556.678 185.409 555.751 185.113C555.185 184.933 555.19 184.956 554.958 184.397C554.021 182.139 554.041 75.4286 554.498 63.9311C554.538 62.9166 554.745 62.2243 555.117 61.2937Z" data-index="3"></path>
	<path fill="#FE0" d="M611.667 69.9699C613.186 69.8782 614.228 69.6786 615.555 70.4506C616.643 73.3743 616.413 176.934 615.898 187.092C615.839 188.245 615.584 189.161 615.216 190.244C613.84 190.045 612.603 190.166 611.679 188.957C611.062 188.15 611.009 187.087 610.992 186.117C610.619 164.462 611.295 142.689 611.342 121.021C611.379 104.132 610.577 86.7947 611.667 69.9699Z" data-index="4"></path>
	<path fill="#080717" d="M500.321 224.729C503.503 224.618 506.702 224.634 509.886 224.607C539.455 224.362 569.819 225.893 599.156 229.618C640.338 234.846 715.283 250.516 745.715 280.797C749.946 285.007 754.784 290.936 756.26 296.85C758.131 304.339 756.934 324.083 756.901 333.046L756.718 407.366C764.268 407.574 791.287 405.365 796.005 410.45C798.722 413.379 797.554 430.194 797.544 434.984C804.307 435.043 832.97 433.554 836.797 437.605C837.855 438.725 838.077 440.928 838.21 442.384C838.602 446.674 839.156 467.348 836.751 469.843C833.003 473.732 804.264 472.199 797.536 472.331L797.454 723.822Q797 827.307 797.843 930.792C797.886 934.189 797.124 937.695 794.573 940.102C792.749 941.823 789.694 941.679 787.292 941.794C778.759 942.201 770.055 941.86 761.5 941.844L702.648 941.529L525.324 941.55L346.713 941.578L274.439 941.486C265.189 941.455 236.462 942.758 229.411 940.11C227.798 937.628 227.36 934.482 227.258 931.563C226.789 918.152 227.36 904.486 227.348 891.053L227.123 806.345L226.913 473.375C215.382 472.961 203.645 473.12 192.115 473.533C191.067 472.809 189.979 472.087 189.02 471.248C186.991 469.473 186.78 467.245 186.63 464.703C186.369 460.311 185.525 441.744 188.456 438.668C189.944 437.106 192.429 436.346 194.505 436.056C202.743 434.906 217.803 436.054 226.679 436.192C226.733 431.339 226.697 426.502 226.642 421.65C226.605 418.36 226.221 413.535 228.79 411.116C230.271 409.722 232.657 409.059 234.609 408.756C242.249 407.57 259.094 408.427 267.585 408.425L267.625 333.75C267.624 323.768 266.541 305.418 268.523 296.536C269.649 291.488 273.106 286.734 276.588 283.006C289.691 268.975 308.328 260.857 325.981 254.191C382.064 233.014 440.777 226.528 500.321 224.729Z" data-index="5" style="opacity: 1;"></path>
	<path fill="#F8F7FE" d="M301.04 521.951C315.709 521.716 330.411 521.972 345.082 522.03C336.227 533.992 336.998 546.907 337 561.057L337.02 586.75L337.008 594.494L301.049 594.501L301.04 521.951Z" data-index="6"></path>
	<path fill="#F8F7FE" d="M680.764 521.551Q701.938 521.331 723.113 521.485C723.435 545.944 722.967 570.469 722.867 594.933C710.928 595.274 698.875 594.912 686.925 594.882L687.064 558.846C687.096 551.314 687.687 543.309 686.279 535.89C685.284 530.649 683.3 526.213 680.764 521.551Z" data-index="7"></path>
	<path fill="#F8F7FE" d="M687.024 601.325C698.954 600.977 711.001 601.385 722.938 601.541L723.041 678.485L687.014 678.499L687.024 601.325Z" data-index="8"></path>
	<path fill="#F8F7FE" d="M302.24 600.723Q319.461 600.618 336.681 600.779Q336.74 601.56 336.78 602.343C337.388 616.193 336.952 630.263 336.964 644.134C336.972 654.778 337.591 665.851 336.839 676.449C336.748 677.721 336.814 678.536 335.938 679.483L301.151 679.47L301.113 628.654C301.102 620.269 300.635 611.593 301.162 603.24C301.254 601.789 301.141 601.664 302.24 600.723Z" data-index="9"></path>
	<path fill="#F8F7FE" d="M301.341 686.003L336.807 685.928C336.17 716.583 336.783 747.369 336.911 778.035L337.039 806.804C337.064 812.942 336.731 819.313 337.661 825.382C338.516 830.959 340.536 836.049 344.122 840.444C349.559 847.108 357.552 850.723 365.987 851.636L366.122 906.702C366.144 916.226 366.84 926.279 365.876 935.726C344.453 936.418 322.736 935.695 301.291 935.64C300.765 925.811 301.148 915.789 301.168 905.941L301.246 851.635L301.341 686.003Z" data-index="10"></path>
	<path fill="#F8F7FE" d="M686.809 684.949C698.905 684.789 711.024 684.944 723.122 684.954L723.14 935.614L693.75 935.551L657.427 935.501C656.686 907.365 657.387 879.034 657.467 850.884C665.023 849.503 671.74 846.567 677.184 841.046C681.778 836.388 684.641 830.932 685.93 824.515C688.233 813.052 687.047 789.847 687.055 777.329Q687.22 731.138 686.809 684.949Z" data-index="11" style="opacity: 1;"></path>
	<path fill="#F8F7FE" d="M729.513 315.936L750.283 316.012L749.993 935.41C743.823 936.675 735.782 935.694 729.448 935.652C729.047 910.608 729.465 885.494 729.476 860.443L729.421 733.669L729.513 315.936Z" data-index="12"></path>
	<path fill="#F8F7FE" d="M274.185 315.879C280.951 315.735 287.756 315.914 294.526 315.943L294.819 935.31C289.111 936.64 280.141 935.633 274.144 935.571C273.441 895.093 274.018 854.531 273.999 814.043L274.103 568.563L274.044 400.367C274.043 372.277 273.222 343.934 274.185 315.879Z" data-index="13"></path>
	<path fill="#F8F7FE" d="M301.048 315.943C320.422 315.494 339.897 315.862 359.277 315.897L458.183 315.932L723.361 315.952L723.308 375.09L707.044 375.093C706.995 377.158 707.063 379.239 707.076 381.306L723.361 381.492C723.881 402.401 723.38 423.453 723.336 444.377L706.771 444.461L706.683 450.457L723.282 450.565L723.12 514.934L718.125 514.981L691.576 514.972C686.326 514.978 680.447 514.55 675.292 515.559C670.51 512.281 665.724 509.617 660.035 508.304C650.868 506.188 631.937 507.425 621.89 507.432L546.726 507.411L427.804 507.312L391.714 507.225C384.723 507.204 377.468 506.801 370.514 507.519C363.23 508.272 357.278 511.631 351.197 515.472L301.166 515.473L301.141 450.909Q308.683 450.917 316.223 450.774L316.359 444.263C311.222 444.049 306.039 444.177 300.897 444.166L300.852 381.709C304.725 381.589 309.341 382.447 313.088 381.595C314.617 381.247 315.276 380.698 316.14 379.428C316.175 377.929 316.159 377.735 315.394 376.453C311.808 374.15 304.859 375.289 300.647 375.267C300.398 355.516 300.907 335.699 301.048 315.943Z" data-index="14"></path>
	<path fill="#080717" d="M561.523 375.643L578.269 375.687L578.235 381.093Q576.207 381.183 574.177 381.197C571.807 381.236 562.835 381.966 561.435 380.611L561.523 375.643Z" data-index="15"></path>
	<path fill="#080717" d="M648.748 375.465C654.161 375.429 659.691 375.16 665.082 375.665C665.792 377.198 665.498 379.357 665.502 381.044L648.832 381.087C648.693 379.219 648.747 377.338 648.748 375.465Z" data-index="16"></path>
	<path fill="#080717" d="M677.743 375.5C683.095 375.446 688.87 374.931 694.163 375.69C694.872 377.158 694.558 379.438 694.544 381.053C689.051 381.085 683.351 381.437 677.891 380.827C677.271 379.307 677.67 377.141 677.743 375.5Z" data-index="17"></path>
	<path fill="#080717" d="M503.547 375.526C508.787 375.496 514.434 375.032 519.612 375.776C520.31 377.384 519.997 379.587 519.963 381.32C517.127 381.325 505.169 382.156 503.484 380.625L503.547 375.526Z" data-index="18"></path>
	<path fill="#080717" d="M474.483 375.443C479.889 375.45 485.732 375.007 491.072 375.787C491.739 377.336 491.49 379.441 491.479 381.125C485.965 381.143 480.379 381.35 474.882 380.892C474.17 379.311 474.475 377.173 474.483 375.443Z" data-index="19"></path>
	<path fill="#080717" d="M357.764 375.566L374.826 375.545C374.816 377.391 374.645 379.263 374.548 381.109L357.749 381.176C357.671 379.318 357.754 377.427 357.764 375.566Z" data-index="20"></path>
	<path fill="#080717" d="M328.311 375.462C333.544 375.441 339.547 374.845 344.667 375.761C345.364 377.433 345.185 379.336 345.179 381.122C339.553 381.311 333.884 381.218 328.253 381.246L328.311 375.462Z" data-index="21"></path>
	<path fill="#080717" d="M445.357 375.479C450.636 375.448 456.431 374.891 461.627 375.722C462.41 377.33 462.122 379.489 462.103 381.247C458.337 381.272 448.671 382.294 445.688 380.942C445.066 379.23 445.304 377.28 445.357 375.479Z" data-index="22"></path>
	<path fill="#080717" d="M590.101 375.498C595.562 375.444 601.723 374.884 607.087 375.778C607.775 377.298 607.511 379.392 607.492 381.056C601.864 381.101 595.993 381.499 590.403 380.855C589.673 379.406 590.051 377.1 590.101 375.498Z" data-index="23"></path>
	<path fill="#080717" d="M532.108 375.632C536.38 375.566 544.196 374.396 548.202 376.004C549.282 376.437 549.306 376.778 549.741 377.78C549.614 379.043 549.533 380.077 548.935 381.228C543.442 381.252 537.812 381.532 532.344 380.99C531.651 379.72 532.08 377.129 532.108 375.632Z" data-index="24"></path>
	<path fill="#080717" d="M416.006 375.509L433.243 375.546L433.16 381.217C427.576 381.241 421.915 381.46 416.348 380.991C415.586 379.699 415.996 377.056 416.006 375.509Z" data-index="25"></path>
	<path fill="#080717" d="M386.482 375.503C392.039 375.483 398.127 374.913 403.597 375.775C404.29 377.325 404.045 379.451 404.041 381.145C398.395 381.169 392.375 381.634 386.784 380.879C386.153 379.365 386.452 377.152 386.482 375.503Z" data-index="26"></path>
	<path fill="#080717" d="M590.479 444.33C595.685 444.322 601.404 443.852 606.528 444.71C607.337 446.151 606.977 448.817 606.973 450.459L590.452 450.492L590.479 444.33Z" data-index="27"></path>
	<path fill="#080717" d="M503.362 444.433C508.658 444.386 514.31 443.94 519.552 444.672C520.372 446.166 520.021 448.773 520.017 450.463C514.534 450.483 509.059 450.536 503.581 450.27C502.878 448.727 503.313 446.154 503.362 444.433Z" data-index="28"></path>
	<path fill="#080717" d="M619.535 375.186Q628.115 375.105 636.693 375.292C636.945 377.184 636.908 379.152 636.971 381.06C631.367 381.087 625.375 381.565 619.827 380.812C619.154 379.136 619.478 376.97 619.535 375.186Z" data-index="29"></path>
	<path fill="#080717" d="M562.35 444.247C567.611 444.228 572.879 444.315 578.141 444.356C578.222 446.338 578.382 448.229 577.87 450.171L577.059 450.604C571.748 450.702 566.427 450.606 561.116 450.578C561.028 448.574 560.966 446.772 561.343 444.797L562.35 444.247Z" data-index="30"></path>
	<path fill="#080717" d="M677.707 444.484C683.151 444.416 689.095 443.937 694.468 444.761C695.364 446.319 695.031 448.833 695.032 450.602C689.256 450.789 683.442 450.692 677.661 450.716L677.707 444.484Z" data-index="31"></path>
	<path fill="#080717" d="M446.617 444.249Q454.252 444.1 461.886 444.266L461.913 444.693C462.023 446.53 462.556 449.395 461.344 450.768L445.45 450.726C445.349 448.683 445.251 446.844 445.669 444.825L446.617 444.249Z" data-index="32"></path>
	<path fill="#080717" d="M358.016 444.256C363.451 444.08 368.904 444.211 374.341 444.254Q374.324 447.521 374.238 450.787L357.59 450.75C357.559 448.664 357.257 446.22 358.016 444.256Z" data-index="33"></path>
	<path fill="#080717" d="M620.057 444.232C625.693 444.045 631.355 444.173 636.995 444.191L636.961 450.535C631.305 450.734 625.621 450.631 619.961 450.639Q619.979 447.435 620.057 444.232Z" data-index="34"></path>
	<path fill="#080717" d="M532.362 444.162Q540.916 444.02 549.467 444.286L549.501 450.579C543.752 450.648 537.994 450.593 532.243 450.596L532.362 444.162Z" data-index="35"></path>
	<path fill="#080717" d="M415.672 444.464C420.264 444.413 428.847 442.722 432.481 445.521C433.405 447.066 433.004 449.027 432.876 450.76C427.127 450.925 421.384 450.823 415.635 450.743C415.574 448.655 415.648 446.553 415.672 444.464Z" data-index="36"></path>
	<path fill="#080717" d="M387.435 444.22C392.773 444.036 398.127 444.148 403.468 444.178C403.496 446.193 403.942 449.212 402.842 450.866L386.495 450.929C386.437 448.673 386.058 446.074 387.435 444.22Z" data-index="37"></path>
	<path fill="#080717" d="M328.708 444.226Q337.064 444.104 345.418 444.343C345.498 446.274 345.95 449.248 344.83 450.815L328.095 450.849C328.057 448.978 327.585 445.692 328.708 444.226Z" data-index="38"></path>
	<path fill="#080717" d="M648.537 444.135Q657.275 444.025 666.011 444.249L666.086 450.652C660.22 450.722 654.346 450.656 648.479 450.652L648.537 444.135Z" data-index="39"></path>
	<path fill="#080717" d="M474.338 444.031L491.449 444.002C491.676 446.222 491.725 448.45 491.804 450.68C485.978 450.9 480.133 450.764 474.304 450.723C474.211 448.5 474.307 446.255 474.338 444.031Z" data-index="40"></path>
	<path fill="#F8F7FE" d="M371.032 513.639C381.519 512.857 395.647 513.688 406.517 513.673L485.417 513.595L597.844 513.647C615.556 513.644 633.461 512.893 651.149 513.525C654.961 513.661 658.676 514.156 662.277 515.463C669.59 518.119 674.968 523.577 678.13 530.591C679.722 534.123 680.398 537.646 680.555 541.494C681.141 555.892 680.735 570.45 680.748 584.862L680.869 663.417L680.991 760.302C681.033 778.291 681.516 796.371 681.067 814.346C680.981 817.793 681.009 822.471 679.707 825.67C678.377 828.936 676.843 832.081 674.665 834.874C669.561 841.417 661.678 844.817 653.623 845.839C636.276 846.693 618.51 845.923 601.128 845.952L492.688 846.027L411.414 846.038C397.102 846.077 382.177 846.983 367.929 846.01Q366.34 845.899 364.778 845.592Q363.215 845.285 361.702 844.788Q360.189 844.291 358.749 843.611Q357.309 842.931 355.964 842.078C350.612 838.722 345.099 832.389 343.871 826.063C342.306 818 343.348 806.495 343.348 798.046L343.336 736.983L343.386 606.898L343.419 567.406C343.408 559.775 343.051 551.942 343.571 544.331C343.966 538.544 345.657 533.055 348.795 528.158C353.939 520.13 361.863 515.582 371.032 513.639Z" data-index="41" style="opacity: 1;"></path>
	<path fill="#080717" d="M574.394 664.139Q606.695 664.357 638.996 664.082L660.443 664.058L660.34 670L452.872 670L393.23 670.078C383.773 670.09 373.255 671.039 363.917 669.819C363.2 668.131 363.484 665.867 363.497 664.051Q374.686 664.018 385.875 664.168C395.262 665.11 405.197 664.482 414.656 664.464C436.521 664.423 458.418 663.867 480.276 664.153L520.567 664.361C527.574 664.376 534.725 664.103 541.716 664.446C552.475 663.578 563.588 664.065 574.394 664.139Z" data-index="42"></path>
	<path fill="#080717" d="M387.18 819.571C407.947 820.005 429.025 820.44 449.78 819.688L480.702 819.603L482.34 819.635C513.31 820.996 544.463 818.466 575.401 819.846Q606.853 820.131 638.305 820.043C645.697 820.041 653.14 819.857 660.526 820.115C660.053 821.242 659.588 822.415 659.005 823.492C658.377 824.653 657.477 825.468 656.189 825.806C651.314 827.083 637.153 825.956 631.373 825.903C622.813 825.826 614.242 825.933 605.68 825.939L429.485 825.943Q407.495 826.03 385.505 825.882C380.556 825.884 375.391 826.657 370.479 826.305C368.917 826.193 366.91 825.893 365.63 824.92C363.892 823.598 363.907 821.597 363.811 819.625C371.591 819.478 379.394 819.646 387.18 819.571Z" data-index="43"></path>
	<path fill="#FE0" d="M363.614 690.077L558.827 690.095L624.328 690.134C636.343 690.152 648.541 689.789 660.532 690.386L660.479 777.36L660.413 806.602C660.42 811.004 660.063 815.769 660.526 820.115C653.14 819.857 645.697 820.041 638.305 820.043Q606.853 820.131 575.401 819.846C544.463 818.466 513.31 820.996 482.34 819.635L480.702 819.603L449.78 819.688C429.025 820.44 407.947 820.005 387.18 819.571C379.394 819.646 371.591 819.478 363.811 819.625C364.417 776.469 363.851 733.237 363.614 690.077Z" data-index="44" style="opacity: 1;"></path>
	<path fill="#F8F7FE" d="M387.18 819.571C389.238 810.532 394.517 801.729 402.519 796.783Q403.157 796.394 403.813 796.037Q404.469 795.68 405.142 795.356Q405.815 795.032 406.504 794.742Q407.192 794.453 407.894 794.197Q408.596 793.942 409.31 793.722Q410.024 793.502 410.748 793.318Q411.472 793.134 412.204 792.986Q412.937 792.839 413.675 792.727Q414.414 792.616 415.157 792.542Q415.901 792.468 416.647 792.431Q417.393 792.394 418.14 792.394Q418.887 792.394 419.633 792.432Q420.379 792.469 421.122 792.544Q421.865 792.618 422.604 792.73Q423.343 792.841 424.075 792.989Q424.807 793.138 425.531 793.322Q426.304 793.511 427.066 793.738Q427.829 793.965 428.579 794.229Q429.329 794.493 430.066 794.793Q430.803 795.093 431.524 795.429Q432.245 795.765 432.949 796.136Q433.652 796.507 434.337 796.912Q435.022 797.316 435.686 797.754Q436.35 798.192 436.992 798.662Q437.634 799.131 438.253 799.632Q438.871 800.133 439.464 800.663Q440.057 801.193 440.623 801.752Q441.19 802.31 441.728 802.896Q442.266 803.481 442.776 804.093Q443.285 804.704 443.763 805.339Q444.242 805.975 444.689 806.633Q445.136 807.291 445.55 807.97Q446.362 809.312 447.037 810.728Q447.713 812.144 448.245 813.62Q448.778 815.095 449.163 816.616Q449.547 818.137 449.78 819.688C429.025 820.44 407.947 820.005 387.18 819.571Z" data-index="45"></path>
	<path fill="#F8F7FE" d="M480.702 819.603C482.135 810.808 485.846 803.694 493.166 798.356C500.119 793.286 508.73 790.891 517.287 792.366C525.766 793.828 533.496 799.251 538.281 806.332C541.057 810.442 542.457 814.767 543.414 819.591C523.098 819.684 502.631 818.951 482.34 819.635L480.702 819.603Z" data-index="46"></path>
	<path fill="#F8F7FE" d="M575.401 819.846C574.392 817.311 576.839 812.405 577.857 810.009Q578.133 809.343 578.443 808.691Q578.753 808.04 579.096 807.406Q579.439 806.771 579.814 806.155Q580.188 805.538 580.594 804.942Q581 804.346 581.435 803.771Q581.871 803.196 582.335 802.644Q582.799 802.092 583.291 801.564Q583.783 801.037 584.301 800.535Q584.819 800.033 585.362 799.559Q585.905 799.084 586.472 798.637Q587.038 798.191 587.627 797.774Q588.215 797.357 588.824 796.971Q589.433 796.584 590.061 796.229Q590.689 795.875 591.334 795.552Q591.98 795.23 592.641 794.941Q593.301 794.652 593.976 794.397C602.059 791.275 611.67 791.36 619.575 794.978C627.786 798.735 633.514 805.682 636.595 814.074C637.316 816.038 637.9 817.987 638.305 820.043Q606.853 820.131 575.401 819.846Z" data-index="47"></path>
	<path fill="#FE0" d="M363.497 664.051L363.578 580.709L363.515 558.028C363.496 553.579 363.149 548.812 363.795 544.412C364.215 541.549 365.816 538.815 367.819 536.765C370.174 534.354 372.878 533.345 376.193 533.061C387.002 532.137 398.421 532.972 409.279 533.015L469.968 533.015L589.607 533.034C608.623 533.03 627.678 532.709 646.69 532.96C650.716 533.014 654.465 533.045 657.465 536.136C658.993 537.71 659.991 539.87 660.282 542.035C660.915 546.762 660.543 551.888 660.541 556.664L660.507 582.89C660.473 609.935 660.827 637.019 660.443 664.058L638.996 664.082Q606.695 664.357 574.394 664.139C563.588 664.065 552.475 663.578 541.716 664.446C534.725 664.103 527.574 664.376 520.567 664.361L480.276 664.153C458.418 663.867 436.521 664.423 414.656 664.464C405.197 664.482 395.262 665.11 385.875 664.168Q374.686 664.018 363.497 664.051Z" data-index="48"></path>
	<path fill="#F8F7FE" d="M480.276 664.153C482.698 654.367 487.268 646.443 496.158 641.179C503.337 636.929 512.161 635.543 520.242 637.733C528.9 640.079 536.43 646.394 540.777 654.185C542.31 656.933 543.546 659.962 544.067 663.071L543.658 663.935L541.716 664.446C534.725 664.103 527.574 664.376 520.567 664.361L480.276 664.153Z" data-index="49"></path>
	<path fill="#F8F7FE" d="M385.875 664.168C387.717 654.922 391.801 647.685 399.787 642.373C406.917 637.631 415.307 635.562 423.79 637.288Q424.948 637.532 426.086 637.854Q427.224 638.176 428.338 638.575Q429.452 638.973 430.537 639.446Q431.621 639.919 432.671 640.465Q433.72 641.01 434.731 641.626Q435.741 642.241 436.707 642.924Q437.673 643.607 438.591 644.353Q439.509 645.1 440.374 645.907C445.556 651.311 448.413 656.713 450.135 664.013C428.761 664.34 407.212 663.414 385.875 664.168Z" data-index="50"></path>
	<path fill="#F8F7FE" d="M574.394 664.139C576.591 654.453 581.021 646.522 589.613 641.101C596.907 636.498 605.725 635.312 614.082 637.281C622.48 639.259 630.312 644.474 634.779 651.932C637.041 655.709 638.327 659.742 638.996 664.082Q606.695 664.357 574.394 664.139Z" data-index="51"></path>
</svg>